<svg width="20" height="23" viewBox="0 0 20 23" fill="none" xmlns="http://www.w3.org/2000/svg"><path d="M3.902 14.391V8.49a.562.562 0 01.285-.485l4.988-2.88V.852L.48 5.872a.558.558 0 00-.278.482V16.53c.71-.41 2.954-1.706 3.7-2.139z" fill="#fff"/><path d="M5.01 14.256l4.163 2.402v-4.803L5.01 9.449v4.807zm9.443 0V9.45l-4.164 2.406v4.803l4.164-2.402zm-8.89-5.768l4.163 2.405 4.163-2.405-4.163-2.402-4.164 2.402z" fill="#fff"/><path d="M14.996 15.349a.46.46 0 01-.096-.07l-4.896 2.823a.563.563 0 01-.555 0l-4.896-2.824a.458.458 0 01-.096.07l-2.48 1.433-1.11.64 8.582 4.955a.56.56 0 00.555 0l8.582-4.955c-.706-.405-2.85-1.646-3.59-2.072zm3.99-9.477L10.289.851v4.274l4.978 2.872a.566.566 0 01.296.492v5.902c.752.434 2.976 1.724 3.7 2.14V6.353a.558.558 0 00-.277-.482z" fill="#fff"/></svg>