<svg width="20" height="19" viewBox="0 0 20 19" fill="none" xmlns="http://www.w3.org/2000/svg"><path fill-rule="evenodd" clip-rule="evenodd" d="M1.768 5.818h-.566a.99.99 0 00-.731.344 1.34 1.34 0 00-.333.892l-.019 3.8c.001.344.124.654.324.877.188.21.442.341.72.343h.005l.57-.001.03-6.255zm14.778-4.726a.458.458 0 01-.082.171c-.042.115-.067.25-.067.404l-.071 14.369c-.003.456.2.74.46.858.102.047.214.07.327.07a.788.788 0 00.326-.067c.268-.119.48-.406.482-.868l.072-14.368c.002-.456-.2-.74-.46-.859a.79.79 0 00-.328-.07.787.787 0 00-.326.068.747.747 0 00-.332.291zM8.218 12.676l.038-7.487c1.463-.212 2.941-.693 4.261-1.299 1.136-.52 2.16-1.135 2.963-1.751l-.068 13.58c-.797-.616-1.817-1.23-2.95-1.75-1.311-.603-2.783-1.082-4.244-1.293zm-3.845.861l-.006 4.716c0 .328.183.536.417.627a.93.93 0 00.655 0 .632.632 0 00.414-.62l.006-4.724H4.374l-.001.001zm1.921-.916l-2.28.002a.456.456 0 00-.194 0l-.96.001a.22.22 0 01-.185-.117.427.427 0 00-.025-.128l.033-6.875a.468.468 0 00.023-.125.226.226 0 01.047-.065.219.219 0 01.158-.065l4.431-.002-.037 7.377H6.294v-.003zm12.566-2.026l.017-3.497c.172.118.325.269.453.445.255.353.406.805.404 1.302a2.23 2.23 0 01-.419 1.305 1.902 1.902 0 01-.455.446zM6.771 15.124l.362-.004a.844.844 0 00.596-.256.849.849 0 00.244-.604l-.007-.697-.225-.028-.968.001-.002 1.589v-.001z" fill="#fff"/></svg>