<svg width="22" height="21" viewBox="0 0 22 21" fill="none" xmlns="http://www.w3.org/2000/svg"><path d="M20.615.642c-.904-.904-2.68-.728-4.72.233a7.034 7.034 0 001.66 2.798 6.69 6.69 0 002.798 1.661c.99-2.011 1.166-3.788.262-4.692zM18.01 13.87c.261-.261.379-.64.349-.99l-.379-2.826c-.088.087-.175.204-.291.291-1.749 1.748-3.73 3.09-5.507 3.759l.67 4.924 5.158-5.158z" fill="#fff"/><path d="M11.46 4.108C9.712 5.857 8.4 7.838 7.788 9.587v.03a7.737 7.737 0 00-.321 1.223l2.914 2.914a7.663 7.663 0 001.223-.32c.03 0 .03 0 .059-.03 1.748-.613 3.73-1.924 5.478-3.673a17.837 17.837 0 002.856-3.7 7.7 7.7 0 01-2.972-1.836 7.715 7.715 0 01-1.836-2.972 18.448 18.448 0 00-3.729 2.885zm3.583 4.925a1.988 1.988 0 01-2.826 0 1.988 1.988 0 010-2.826 1.988 1.988 0 012.826 0c.788.787.788 2.04 0 2.826z" fill="#fff"/><path d="M12.776 6.761a1.23 1.23 0 000 1.719 1.23 1.23 0 001.719 0 1.23 1.23 0 000-1.719 1.23 1.23 0 00-1.72 0zM7.375 3.235L2.187 8.423l4.925.67c.7-1.806 2.04-3.788 3.788-5.537l.291-.29-2.826-.38a1.27 1.27 0 00-.99.35zm-1.281 16.26l3.03-3.03a.405.405 0 000-.553.405.405 0 00-.553 0l-3.03 3.03a.405.405 0 000 .553.357.357 0 00.553 0zm-5.184.847a.405.405 0 00.553 0l5.77-5.77a.405.405 0 000-.553.405.405 0 00-.553 0L.91 19.787a.406.406 0 000 .555zm.846-4.634a.405.405 0 00.554 0l3.03-3.03a.405.405 0 000-.553.405.405 0 00-.554 0l-3.03 3.03a.357.357 0 000 .553z" fill="#fff"/></svg>