<svg width="23" height="22" viewBox="0 0 23 22" fill="none" xmlns="http://www.w3.org/2000/svg"><path d="M4.943 7.845a1.729 1.729 0 10-.155-3.455 1.729 1.729 0 00.155 3.455zm6.74 0a1.729 1.729 0 10-.155-3.455 1.729 1.729 0 00.155 3.455zm6.73 0a1.729 1.729 0 10-.155-3.455 1.729 1.729 0 00.155 3.455zm3.925 4.983L20.746 9.37a1.776 1.776 0 00-1.615-1.023h-1.593c-.682 0-1.32.41-1.615 1.023l-.956 2.048-.955-2.048a1.776 1.776 0 00-1.615-1.023h-1.593c-.682 0-1.32.41-1.615 1.023l-.955 2.048-.956-2.048a1.776 1.776 0 00-1.615-1.023H4.07c-.682 0-1.319.41-1.615 1.023L.863 12.828c-.16.364 0 .774.341.956.364.159.774 0 .956-.341l1.137-2.48v2.684l-.819 6.53c-.068.454.273.864.728.932h.114c.41 0 .773-.296.819-.728l.75-5.96.751 5.96c.046.41.41.728.82.728h.113a.856.856 0 00.728-.933l-.82-6.529V10.94l1.138 2.48a.71.71 0 00.66.41c.296 0 .523-.16.66-.41l1.137-2.48v2.685l-.819 6.529c-.068.455.273.864.728.932h.114c.41 0 .774-.295.82-.728l.682-5.96.75 5.96c.046.41.41.728.82.728h.113a.856.856 0 00.728-.932l-.819-6.53V10.94l1.138 2.48c.113.25.364.41.66.41a.76.76 0 00.659-.41l1.137-2.48v2.685l-.864 6.551c-.068.455.273.865.728.933h.114c.41 0 .773-.296.819-.728l.75-5.96.751 5.96c.046.41.41.728.82.728h.113a.856.856 0 00.728-.933l-.82-6.529V10.94l1.138 2.48c.114.25.387.41.66.41a.7.7 0 00.296-.069.722.722 0 00.318-.933zM8.308 4.182A1.729 1.729 0 108.153.727a1.729 1.729 0 00.155 3.455zm6.73 0a1.729 1.729 0 10-.154-3.455 1.729 1.729 0 00.154 3.455z" fill="#fff"/></svg>