<svg width="43" height="48" viewBox="0 0 43 48" fill="none" xmlns="http://www.w3.org/2000/svg"><path d="M23.484 1.751l-2.582 6.263c-.652 1.398 1.517 2.298 2.046.846l2.586-6.264c.664-1.602-1.557-2.04-2.05-.845zM16.697 0c-.61.012-1.1.517-1.092 1.13l-.003 6.584a1.11 1.11 0 102.213 0l.003-6.584A1.108 1.108 0 0016.698 0zm13.256 6.185l-4.636 4.659c-1.045 1.048.527 2.612 1.572 1.566l4.636-4.661c1.15-1.153-.586-2.557-1.572-1.564z" fill="#fff"/><path d="M9.086 8.392c2.534 3.176 2.914 5.035 2.972 11.41a.651.651 0 00.824.574l26.184-6.392c1.416-.347 2.891.554 3.233 1.774.315 1.136-.123 2.43-1.929 2.955L18.01 25.17c-1.386.372-2.423 1.547-2.737 3.024a4.66 4.66 0 001.1 4.092c.496.55 1.11.955 1.77 1.175a4.153 4.153 0 00-.944 1.9 4.662 4.662 0 001.095 4.1 4.175 4.175 0 001.696 1.142 3.548 3.548 0 00-.78 1.572c-.276 1.253.034 2.603.943 3.511.295.296.303.575-.235.72l-1.593.43c-3.926 1.06-7.653 1.806-10.794.361-3.35-1.538-5.795-5.245-6.888-9.446-.577-4.24-.093-8.654 1.111-12.171l2.649-7.734c.97-2.83.508-4.633-.72-7.895-1.617-4.304 3.884-3.458 5.403-1.559z" fill="#fff"/><path d="M30.26 24.724c.723.792 1.122 1.991.804 3.014-.36 1.183-1.006 1.82-2.035 2.096l-9.111 2.446c-.878.232-1.857-.07-2.571-.869a3.346 3.346 0 01-.793-2.948c.226-1.048.917-1.794 1.794-2.035l9.283-2.55c.987-.273 2.054.218 2.63.846zm1.917 7.176c.723.793 1.028 1.96.807 3.009-.446 1.176-1.04 1.798-2.065 2.108l-9.085 2.432c-.878.235-1.851-.064-2.57-.86a3.359 3.359 0 01-.789-2.958c.222-1.048.913-1.786 1.79-2.027l9.35-2.57c.955-.264 2.017.268 2.562.866zm.126 7.036c.66.652.89 1.721.706 2.63-.174.853-.682 1.507-1.358 1.688-2.823.741-8.463 2.228-8.463 2.228-.708.186-1.48-.044-2.06-.676a2.645 2.645 0 01-.636-2.361c.182-.833.745-1.427 1.448-1.615l8.622-2.364c.85-.233 1.257-.01 1.741.47z" fill="#fff"/></svg>