<svg width="48" height="49" viewBox="0 0 48 49" fill="none" xmlns="http://www.w3.org/2000/svg"><path d="M24.002.799a5.143 5.143 0 00-5.143 5.143v6.857a5.143 5.143 0 1010.286 0V5.942A5.143 5.143 0 0024.002.799zM12 19.656H5.143a5.143 5.143 0 000 10.286H12a5.142 5.142 0 100-10.286zm12.002 12A5.143 5.143 0 0018.86 36.8v6.857a5.143 5.143 0 0010.286 0V36.8a5.143 5.143 0 00-5.143-5.143zm18.858-12h-6.858a5.143 5.143 0 000 10.286h6.857a5.143 5.143 0 000-10.286zm-7.996-3.996a1.714 1.714 0 001.217-.497l6.274-6.274a1.715 1.715 0 00-2.434-2.417l-6.257 6.325a1.714 1.714 0 001.2 2.863zm-22.865-.497a1.714 1.714 0 002.331-2.366L8.073 6.472a1.715 1.715 0 10-2.434 2.417l6.36 6.274zm0 19.32l-6.36 6.275a1.715 1.715 0 102.434 2.417l6.257-6.258A1.714 1.714 0 0012 34.483zm24.079.001a1.715 1.715 0 00-2.417 2.435l6.257 6.257c.326.314.764.487 1.217.48a1.714 1.714 0 001.217-2.932l-6.274-6.24zM27.427 24.8a3.428 3.428 0 10-6.856 0 3.428 3.428 0 006.856 0z" fill="#fff"/></svg>