<svg width="49" height="48" viewBox="0 0 49 48" fill="none" xmlns="http://www.w3.org/2000/svg"><path d="M45.404 5.8l-3.137.533.532-3.137L45.995 0 48.6 2.604 45.404 5.8zm-9.648 8.7a15.85 15.85 0 013.907 10.417c0 8.82-7.162 15.98-15.98 15.98-8.82 0-15.981-7.16-15.981-15.98 0-8.818 7.162-15.98 15.98-15.98A15.85 15.85 0 0134.1 12.843l5.03-5.03c-4.083-3.67-9.528-5.978-15.447-5.978C10.957 1.835.6 12.192.6 24.917.6 37.642 10.957 48 23.682 48c12.725 0 23.083-10.358 23.083-23.083A22.863 22.863 0 0040.787 9.47l-5.03 5.03zm-12.133-3.195c-7.517 0-13.613 6.096-13.613 13.612 0 7.517 6.096 13.613 13.613 13.613 7.517 0 13.613-6.096 13.613-13.613 0-3.314-1.184-6.392-3.196-8.76l-5.031 5.032a6.554 6.554 0 011.125 3.67c0 3.61-2.9 6.51-6.511 6.51-3.61 0-6.51-2.9-6.51-6.51 0-3.611 2.9-6.511 6.51-6.511 1.361 0 2.663.414 3.67 1.124l5.09-5.03a13.772 13.772 0 00-8.76-3.137zm1.953 9.943a4.326 4.326 0 00-1.953-.474 4.117 4.117 0 00-4.143 4.143 4.118 4.118 0 004.143 4.143 4.118 4.118 0 004.143-4.143c0-.71-.177-1.36-.473-1.953l-2.841 2.782a1.168 1.168 0 01-.829.355c-.296 0-.592-.118-.829-.355a1.144 1.144 0 010-1.657l2.782-2.841z" fill="#fff"/></svg>