<svg width="49" height="48" viewBox="0 0 49 48" fill="none" xmlns="http://www.w3.org/2000/svg"><path d="M6.2 10.5a4.5 4.5 0 119 0 4.5 4.5 0 01-9 0z" fill="#fff"/><path fill-rule="evenodd" clip-rule="evenodd" d="M.2 10.5C.2 4.7 4.9 0 10.7 0c5.798 0 10.5 4.701 10.5 10.5S16.497 21 10.7 21C4.9 21 .2 16.299.2 10.5zM10.7 3a7.5 7.5 0 100 15 7.5 7.5 0 000-15z" fill="#fff"/><path d="M.2 37.5C.2 31.7 4.9 27 10.7 27c5.798 0 10.5 4.701 10.5 10.5S16.497 48 10.7 48C4.9 48 .2 43.299.2 37.5zm27-27C27.2 4.7 31.9 0 37.7 0c5.798 0 10.5 4.701 10.5 10.5S43.497 21 37.7 21c-5.8 0-10.5-4.701-10.5-10.5zm0 27c0-5.8 4.7-10.5 10.5-10.5 5.798 0 10.5 4.701 10.5 10.5S43.497 48 37.7 48c-5.8 0-10.5-4.701-10.5-10.5z" fill="#fff"/></svg>