<svg width="24" height="24" viewBox="0 0 24 24" fill="none" xmlns="http://www.w3.org/2000/svg"><path d="M12.186 2.255A3.75 3.75 0 0115.751 6v1.25h1.92a2.752 2.752 0 012.719 3.168l-1.255 8.152a3.752 3.752 0 01-3.707 3.18H8.575a3.75 3.75 0 01-3.706-3.18l-1.255-8.152a2.752 2.752 0 011.57-2.917c.36-.166.752-.251 1.148-.251H8.25V6A3.75 3.75 0 0112 2.25l.185.005zM6.332 8.75a1.25 1.25 0 00-1.235 1.44l1.254 8.152a2.252 2.252 0 002.224 1.908h6.853a2.25 2.25 0 002.224-1.908l1.255-8.152a1.251 1.251 0 00-1.236-1.44h-1.92V11a.75.75 0 01-1.5 0V8.75h-4.5V11a.75.75 0 01-1.5 0V8.75H6.33zm5.669-5A2.25 2.25 0 009.75 6v1.25h4.5V6a2.25 2.25 0 00-2.027-2.24L12 3.75z" fill="#121212"/></svg>