<svg width="16" height="15" viewBox="0 0 16 15" fill="none" xmlns="http://www.w3.org/2000/svg"><path d="M3.699 4.67c.023.597.626.928 1.223.928h5.974c.597 0 1.2-.33 1.223-.927a4.194 4.194 0 00-1.53-3.41A4.196 4.196 0 007.909.3a4.197 4.197 0 00-2.98 1.234A4.195 4.195 0 003.7 4.67zm2.309 5.816c0-.793-.396-1.588-1.03-2.065a4.923 4.923 0 01-1.433-1.71c-.049-.097-.163-.15-.263-.107A4.22 4.22 0 00.71 10.486a4.197 4.197 0 001.533 3.251 4.235 4.235 0 001.04.631 4.201 4.201 0 001.64.331 4.201 4.201 0 002.008-.508c.256-.14.281-.485.102-.715a4.861 4.861 0 01-1.024-2.99zm-.455-2.48c.071.048.144.093.218.137.365.212.81.013 1.042-.34.27-.41.227-.993-.224-1.188a4.201 4.201 0 00-1.876-.337.376.376 0 00-.298.59c.303.449.69.835 1.138 1.138zm8.836.124a4.241 4.241 0 00-1.853-1.526c-.1-.042-.214.01-.263.106a4.927 4.927 0 01-1.433 1.711 2.638 2.638 0 00-1.03 2.065 4.861 4.861 0 01-1.024 2.99c-.179.23-.154.576.102.715a4.195 4.195 0 002.008.508 4.201 4.201 0 001.97-.49l.038-.018a4.225 4.225 0 00.955-.712c.156-.153.296-.322.427-.498a4.221 4.221 0 00.823-2.495 4.19 4.19 0 00-.72-2.356zM9.256 6.604a4.201 4.201 0 00-.368.177c-.256.14-.281.485-.103.715.078.1.152.203.222.31.232.352.675.55 1.04.337a3.849 3.849 0 00.542-.38c.312-.257.586-.559.814-.895a.376.376 0 00-.297-.59 4.202 4.202 0 00-1.85.325zm-.124 3.724C9.11 9.73 8.506 9.4 7.91 9.4c-.597 0-1.2.33-1.223.927a4.19 4.19 0 00.82 2.653.495.495 0 00.806 0 4.208 4.208 0 00.82-2.653zM8.416 8.13a.606.606 0 00-1.014 0 .376.376 0 00.297.59 4.033 4.033 0 00.42 0 .376.376 0 00.297-.59z" fill="#fff"/></svg>