<svg width="12" height="15" viewBox="0 0 12 15" fill="none" xmlns="http://www.w3.org/2000/svg"><path d="M6 .5c3.537 0 6 1.177 6 2.227 0 1.05-2.463 2.228-6 2.228S0 3.777 0 2.727C0 1.677 2.463.5 6 .5zm0 14c-3.537 0-6-1.177-6-2.227v-1.941c1.042.986 3.316 1.622 6 1.622s4.958-.668 6-1.622v1.94c0 1.05-2.463 2.228-6 2.228zm0-3.182c-3.537 0-6-1.177-6-2.227V7.15c1.042.986 3.316 1.623 6 1.623s4.958-.669 6-1.623v1.94c0 1.05-2.463 2.228-6 2.228zm0-3.182c-3.537 0-6-1.177-6-2.227v-1.94c1.042.985 3.316 1.622 6 1.622s4.958-.668 6-1.623V5.91c0 1.05-2.463 2.227-6 2.227z" fill="#fff"/></svg>