<svg width="15" height="15" viewBox="0 0 15 15" fill="none" xmlns="http://www.w3.org/2000/svg"><path d="M14.298 13.463l-1.462-1.462a.725.725 0 00-1.025 1.025l1.462 1.462a.72.72 0 00.513.212.725.725 0 00.512-1.237zm-1.872-2.891a.72.72 0 00-.213-.513.367.367 0 00-.559.062 6.564 6.564 0 01-1.722 1.723.367.367 0 00-.062.56.72.72 0 001.024 0l1.32-1.32a.72.72 0 00.212-.512zm-.006-4.117c0-1.645-.64-3.19-1.803-4.353A6.115 6.115 0 006.265.3C4.62.3 3.075.94 1.912 2.102A6.115 6.115 0 00.11 6.455c0 1.644.64 3.19 1.803 4.352a6.115 6.115 0 004.353 1.803c1.644 0 3.19-.64 4.352-1.803a6.116 6.116 0 001.803-4.352zM6.265 11.52a5.054 5.054 0 01-3.585-1.48 5.075 5.075 0 010-7.169 5.075 5.075 0 017.169 0 5.075 5.075 0 010 7.169 5.054 5.054 0 01-3.585 1.482z" fill="#fff"/><path d="M9.594 3.127A4.692 4.692 0 006.266 1.75c-1.205 0-2.41.46-3.327 1.377a4.712 4.712 0 000 6.655 4.712 4.712 0 006.655 0 4.712 4.712 0 000-6.655zm-.449 2.43a.182.182 0 01-.363 0 .102.102 0 00-.174-.073l-1.92 1.92a.187.187 0 01-.256 0 1.394 1.394 0 00-1.972 0l-.762.761a.181.181 0 11-.257-.256l1.877-1.877a.181.181 0 01.256 0l.41.41a.814.814 0 001.152 0L8.35 5.229a.102.102 0 00-.072-.175.182.182 0 010-.363h.685c.1 0 .181.082.181.182v.684z" fill="#fff"/></svg>