<svg width="44" height="48" viewBox="0 0 44 48" fill="none" xmlns="http://www.w3.org/2000/svg"><path d="M16.083 6.883a43.457 43.457 0 015.913 1.879 41.12 41.12 0 017.945-2.302C27.851 2.31 25.056 0 21.996 0c-3.06 0-5.855 2.31-7.945 6.46.684.108 1.322.258 2.032.423zM9.85 37.563a40.174 40.174 0 01-1.31-5.94 42.759 42.759 0 01-4.612-4.092c-.457-.44-.953-1.004-1.393-1.505C-.07 29.875-.708 33.413.81 36.001c1.376 2.343 4.32 3.571 8.343 3.571.431 0 .88-.016 1.335-.04a29.74 29.74 0 01-.638-1.97zm18.06 3.555a43.451 43.451 0 01-5.914-1.88 41.116 41.116 0 01-7.945 2.303C16.14 45.69 18.936 48 21.996 48c3.06 0 5.855-2.311 7.945-6.46a31.464 31.464 0 01-2.032-.423zm13.207-14.701a41.664 41.664 0 01-5.656 5.207 39.873 39.873 0 01-1.95 7.9c4.711.3 8.153-.928 9.68-3.523 1.517-2.588.878-6.126-1.726-9.975l-.348.39zM34.15 10.438a40.168 40.168 0 011.31 5.939 42.762 42.762 0 014.612 4.092c.457.44.953 1.004 1.393 1.505 2.604-3.848 3.243-7.387 1.725-9.974-1.534-2.595-4.968-3.824-9.678-3.523.243.646.441 1.286.638 1.96zM2.883 21.584a41.664 41.664 0 015.656-5.207 40.96 40.96 0 011.941-7.9C5.778 8.184 2.336 9.405.81 12c-1.518 2.587-.88 6.126 1.725 9.974l.348-.39z" fill="#fff"/><path d="M38.261 25.855c1.98-2.043 2.033-1.64 0-3.71a41.17 41.17 0 00-5.133-4.45 37.834 37.834 0 00-2.165-8.932 39.884 39.884 0 00-8.965 2.636 41.2 41.2 0 00-7.912-2.45c-1.626-.6-1.24.783-1.85 2.157a39.504 39.504 0 00-1.368 6.59A38.62 38.62 0 004.058 24a38.613 38.613 0 006.81 6.306c.267 2.23.725 4.434 1.368 6.59.797 2.673.462 2.53 3.268 1.846a42.652 42.652 0 006.494-2.14 39.907 39.907 0 008.965 2.636 37.829 37.829 0 002.165-8.932 41.187 41.187 0 005.133-4.45zm-10.226-.992l-5.158 5.06a1.241 1.241 0 01-.88.358 1.263 1.263 0 01-.878-.358l-5.16-5.06a1.213 1.213 0 01-.366-.863 1.192 1.192 0 01.367-.862l5.159-5.06a1.236 1.236 0 01.879-.36 1.257 1.257 0 01.879.36l5.158 5.06a1.212 1.212 0 01.367.862 1.193 1.193 0 01-.367.863z" fill="#fff"/><path d="M22.002 20.665l-3.4 3.336 3.4 3.335 3.4-3.335-3.4-3.336z" fill="#fff"/></svg>