<svg width="45" height="44" viewBox="0 0 45 44" fill="none" xmlns="http://www.w3.org/2000/svg"><path d="M5.895 9.626a4.125 4.125 0 118.25 0 4.125 4.125 0 01-8.25 0z" fill="#fff"/><path fill-rule="evenodd" clip-rule="evenodd" d="M.398 9.625a9.625 9.625 0 1119.25 0 9.625 9.625 0 01-19.25 0zm9.625-6.875a6.875 6.875 0 100 13.75 6.875 6.875 0 000-13.75z" fill="#fff"/><path d="M.398 34.375a9.625 9.625 0 1119.25 0 9.625 9.625 0 01-19.25 0zm24.747-24.75a9.625 9.625 0 1119.25 0 9.625 9.625 0 01-19.25 0zm0 24.75a9.625 9.625 0 1119.25 0 9.625 9.625 0 01-19.25 0z" fill="#fff"/></svg>