<svg width="49" height="48" viewBox="0 0 49 48" fill="none" xmlns="http://www.w3.org/2000/svg"><path d="M24.595 0a5.142 5.142 0 00-5.142 5.143V12a5.143 5.143 0 1010.285 0V5.143A5.143 5.143 0 0024.595 0zM12.6 18.858H5.744a5.142 5.142 0 100 10.286H12.6a5.141 5.141 0 003.636-8.78 5.141 5.141 0 00-3.636-1.506zm12 11.999A5.142 5.142 0 0019.456 36v6.857a5.143 5.143 0 1010.284 0V36a5.143 5.143 0 00-5.142-5.143zm18.86-11.999h-6.857a5.142 5.142 0 000 10.286h6.856a5.142 5.142 0 100-10.286zm-8-3.996a1.714 1.714 0 001.216-.497l6.274-6.274a1.715 1.715 0 00-2.434-2.417l-6.257 6.325a1.714 1.714 0 001.2 2.863zm-22.865-.497a1.714 1.714 0 002.332-2.366L8.67 5.674A1.715 1.715 0 106.236 8.09l6.36 6.274zm0 19.321l-6.359 6.275a1.715 1.715 0 002.434 2.417l6.257-6.257a1.714 1.714 0 00-2.332-2.435zm24.082.001a1.714 1.714 0 10-2.416 2.434l6.256 6.257c.326.315.764.487 1.217.48a1.714 1.714 0 001.217-2.931l-6.274-6.24zM28.025 24a3.429 3.429 0 10-6.857.001 3.429 3.429 0 006.857 0z" fill="#fff"/></svg>