<svg width="49" height="48" viewBox="0 0 49 48" fill="none" xmlns="http://www.w3.org/2000/svg"><path d="M45.003 5.8l-3.137.533.533-3.137L45.595 0l2.604 2.604L45.003 5.8zm-9.647 8.7a15.85 15.85 0 013.906 10.417c0 8.82-7.161 15.98-15.98 15.98s-15.98-7.16-15.98-15.98c0-8.818 7.161-15.98 15.98-15.98a15.85 15.85 0 0110.417 3.906l5.03-5.03c-4.083-3.67-9.528-5.978-15.447-5.978C10.557 1.835.199 12.192.199 24.917.2 37.642 10.557 48 23.282 48c12.725 0 23.082-10.358 23.082-23.083A22.863 22.863 0 0040.387 9.47l-5.031 5.03zm-12.133-3.195c-7.517 0-13.613 6.096-13.613 13.612 0 7.517 6.096 13.613 13.613 13.613 7.516 0 13.613-6.096 13.613-13.613 0-3.314-1.184-6.392-3.197-8.76l-5.03 5.032a6.554 6.554 0 011.124 3.67c0 3.61-2.9 6.51-6.51 6.51s-6.51-2.9-6.51-6.51c0-3.611 2.9-6.511 6.51-6.511 1.36 0 2.663.414 3.67 1.124l5.09-5.03a13.772 13.772 0 00-8.76-3.137zm1.953 9.943a4.326 4.326 0 00-1.953-.474 4.117 4.117 0 00-4.143 4.143 4.118 4.118 0 004.143 4.143 4.118 4.118 0 004.143-4.143c0-.71-.178-1.36-.474-1.953l-2.84 2.782a1.169 1.169 0 01-.83.355c-.295 0-.591-.118-.828-.355a1.144 1.144 0 010-1.657l2.782-2.841z" fill="#fff"/></svg>