<svg width="55" height="59" viewBox="0 0 55 59" fill="none" xmlns="http://www.w3.org/2000/svg"><path fill-rule="evenodd" clip-rule="evenodd" d="M37.437 19.745c-.854-.802-2.084-.784-2.79-.55.463-.608 1.539-1.106 1.856-1.167.242.097.934.86.934 1.717zm2.73-3.322c-.563-3.219-7.55-1.086-11.07-2.453-.068.938 1.083 2.442 2.184 2.998-1.882 1.748-3.571 5.27-3.912 9.574-.34-4.303-2.03-7.826-3.91-9.574 1.1-.556 2.252-2.06 2.183-2.998-3.519 1.367-10.507-.766-11.07 2.453-.119.681.188 1.72.518 2.018.06-.216.369-.922 1.343-1.08 4.923-.797 9.034 7.326 5.323 10.61-.056.05-.025.143.052.143h11.124c.076 0 .108-.092.052-.142-3.711-3.285.4-11.408 5.322-10.612.976.159 1.283.865 1.343 1.08.33-.297.637-1.335.517-2.017zm1.197-7.388c-.089-.304 2.798-.312 2.798 1.622 0 1.297-1.727 1.91-1.727 3.256 0 .627.63 1.086.823 1.086-.445-2.16 1.395-1.03 1.891-.625-.987-2.905 1.235-2.887 1.016-4.218-.152-.931-2.083-.65-2.782-1.121-1.24-.836-2.707-4.088-3.674-.836 1.802 1.792.754 4.428-1.534 4.428 0 0-.013.387.008.418 2.729-.143 3.68-2.29 3.18-4.01zm-31.84 5.339c.496-.404 2.335-1.535 1.892.625.192 0 .821-.46.821-1.086 0-1.345-1.726-1.96-1.726-3.256 0-1.934 2.886-1.926 2.798-1.622-.498 1.72.453 3.867 3.182 4.01.02-.031.007-.418.007-.418-2.287 0-3.336-2.637-1.534-4.428-.967-3.252-2.434 0-3.674.836-.7.471-2.63.19-2.782 1.12-.218 1.332 2.003 1.314 1.016 4.219zm7.749 5.371c.855-.802 2.085-.784 2.79-.55-.461-.608-1.539-1.106-1.855-1.167-.242.097-.935.86-.935 1.717zM28.668 1.738L27.336 0l-1.33 1.738 1.33 1.828 1.332-1.828zm7.6 5.254l-.947-1.235-.946 1.235.946 1.207.946-1.207zm7.678 35.696l-1.2-1.36-1.2 1.36 1.2 1.192 1.2-1.192zM20.3 6.992l-.947-1.235-.946 1.235.946 1.207.947-1.207zm-2.712 6.052h3.531c2.969 0 4.305-1.95 4.708-3.642h3.021c.404 1.692 1.739 3.643 4.709 3.643h3.53s.618-.898.773-1.342c.558-1.598-.155-2.344-1.195-2.344l-1.344 1.304-1.344-1.304c-1.04 0-1.752.746-1.194 2.344.07.205.241.505.403.769-1.253-.185-2.853-1.103-3.204-3.07 0 0 .926-1.574 1.159-2.211.834-2.292-.232-3.228-1.79-3.228l-2.014 2.533-2.012-2.533c-1.56 0-2.626.936-1.79 3.228.231.637 1.158 2.211 1.158 2.211-.352 1.967-1.95 2.886-3.204 3.07.162-.264.332-.564.403-.769.557-1.598-.154-2.344-1.195-2.344l-1.344 1.304-1.344-1.304c-1.04 0-1.751.746-1.194 2.344.155.445.773 1.341.773 1.341zm36.507 11.718c-.682.37-4.68 2.375-9.803 1.633.053-.261.099-.525.135-.79 3.41-.436 6.18-1.055 7.946-2.107 2.013-1.199 2.893-4.062 1.877-6.192-.026-.054-.099-.064-.135-.019-.557.687-4.058 4.764-9.574 6.03-.014-.305-.04-.61-.078-.913 2.679-1.627 5.294-3.5 6.54-5.214 1.883-2.591 1.71-5.896-.082-7.58a.081.081 0 00-.127.019c-.566 1-5.872 10.18-11.696 14.143a9.533 9.533 0 01-.215.143.306.306 0 00-.043.479 3.56 3.56 0 011.089 2.564 3.59 3.59 0 01-2.926 3.522c-.847.175-2.069.124-3.242-.291a.08.08 0 00-.108.076v5.543c0 .089.127.111.157.026.713-2.024 2.85-2.454 3.783-2.454.337 2.163.937 3.954 1.717 4.919 1.27 1.566 3.344 1.544 4.244.461a.082.082 0 00-.02-.12c-.529-.326-3.553-2.313-4.158-5.57a5.69 5.69 0 00.696-.306c.976 1.73 2.396 3.27 3.54 3.857 1.92.987 3.68.507 4.46-.937a.082.082 0 00-.064-.12c-1.189-.102-4.835-1.22-6.388-3.946a7.68 7.68 0 00.514-.551c1.624 1.324 3.922 2.495 5.567 2.733 1.924.28 4.105-.377 4.157-2.773a.082.082 0 00-.086-.084c-.684.044-5.214.255-8.442-1.728.112-.228.217-.46.314-.697 0 0 4.877 1.234 7.188.825 2.296-.405 3.64-2.238 3.381-4.518-.007-.057-.07-.09-.118-.063zM11.03 28.518c.097.237.202.469.314.697-3.226 1.983-7.754 1.773-8.441 1.728a.084.084 0 00-.088.086C2.87 33.424 5.05 34.08 6.973 33.8c1.644-.24 3.942-1.41 5.567-2.734.163.194.336.376.514.55-1.554 2.726-5.2 3.845-6.388 3.947a.082.082 0 00-.064.12c.78 1.444 2.539 1.924 4.46.938 1.144-.589 2.564-2.129 3.54-3.858.224.118.457.218.695.306-.605 3.257-3.628 5.244-4.157 5.57a.083.083 0 00-.02.121c.9 1.083 2.975 1.105 4.245-.462.78-.965 1.38-2.756 1.716-4.919.934 0 3.07.43 3.783 2.454.03.085.157.063.157-.026v-5.543a.08.08 0 00-.108-.076c-1.174.415-2.396.466-3.241.29a3.59 3.59 0 01-2.927-3.52c0-1.007.418-1.915 1.089-2.567a.305.305 0 00-.042-.477 10.259 10.259 0 01-.217-.143C9.755 19.81 4.452 10.638 3.88 9.63a.084.084 0 00-.13-.02c-1.788 1.686-1.962 4.99-.08 7.58 1.246 1.713 3.861 3.587 6.54 5.213-.038.304-.064.609-.078.915C4.622 22.05 1.123 17.98.561 17.29a.082.082 0 00-.138.016C-.59 19.437.29 22.3 2.3 23.498c1.766 1.052 4.537 1.67 7.946 2.107.037.265.082.528.135.79-5.116.74-9.113-1.26-9.8-1.632a.082.082 0 00-.12.064c-.258 2.28 1.086 4.11 3.382 4.516 2.31.41 7.187-.825 7.187-.825zm31.716 17.113l-1.777-1.496a3.302 3.302 0 00-1.432 2.01c-1.07.161-3.983-.532-3.7-.991 3.194-4.81.75-7.673-2.185-7.513v3.23a1.883 1.883 0 01-1.887 1.877h-2.028c-1.454 0-2.4 1.565-2.4 1.565s-.947-1.565-2.402-1.565h-2.027a1.881 1.881 0 01-1.886-1.877v-3.23c-2.936-.16-5.381 2.704-2.186 7.513.28.455-2.715 1.183-4.12.999a2.014 2.014 0 00-2.246-.527s-5.521-5.596-5.622-5.65l.045-.114c.314-.63-.167-1.315-.47-1.267.353-.454.369-2.441-1.592-2.901.057.4.087 1.214.087 1.214s-1.514-.876-2.274-.12c-.668.846.259 2.381.259 2.381s-.775.02-1.156-.014c.561 2.032 2.444 1.888 2.85 1.487-.026.324.655.784 1.232.415l.253-.132c.045.065 5.422 5.503 5.422 5.503a1.998 1.998 0 00-.283 1.388 2.018 2.018 0 003.066 1.377l1.423 1.415a.628.628 0 001.072-.488.613.613 0 00-.189-.393c-.023-.027-1.45-1.445-1.45-1.445 1.178-.884 3.371-1.506 5.192-1.506.32 0 .47-.29.36-.574-.825-2.124.948-3.662 2.782-2.41.8.546 1.613 1.622 2.226 3.416-3.01.78-6.789 2.93-7.553 5.276-.295.905.678 2.14 1.859 2.389.02.005.042 0 .06-.012a.086.086 0 00.035-.054c.617-3.503 4.135-6.113 5.966-6.556l.154.441c-1.994 1.01-3.927 3.139-4.48 5.67-.253 1.16.954 2.204 1.951 2.49a.08.08 0 00.102-.075c.19-3.2 1.51-5.919 2.693-7.156.032.242.057.485.073.728 0 0-1.211 3.613-1.211 6.249 0 1.226 1.702 2.082 1.954 2.202.314-.12 2.015-.976 2.015-2.202 0-2.636-1.21-6.248-1.21-6.248.016-.244.04-.487.073-.729 1.182 1.237 2.503 3.954 2.692 7.155.003.052.053.09.102.076.998-.286 2.204-1.33 1.952-2.49-.553-2.53-2.486-4.66-4.48-5.67l.153-.44c1.832.442 5.35 3.052 5.966 6.554a.087.087 0 00.035.055c.018.012.04.017.06.012 1.18-.249 2.155-1.484 1.859-2.39-.763-2.345-4.543-4.494-7.553-5.275.614-1.794 1.426-2.87 2.227-3.416 1.833-1.252 3.606.286 2.781 2.41-.11.284.04.574.36.574 2.06 0 4.596.796 5.6 1.864a3.3 3.3 0 003.165 1.548c1.52-.159 2.76-1.381 2.93-2.892a3.288 3.288 0 00-1.509-3.161l-1.778 1.496zm-13.097-9.646c.633-.25 1.626-.047 1.592.931-.008.222.282.222.303-.005.19-1.465-.735-1.887-1.703-1.715-.12-.504-.218-.944-.33-1.381-.09-.353-.123-1.016.26-1.016.205 0 .122.617.103.883-.017.233.061.374.238.38.11.005.248-.145.33-.245.554-.67.683-1.709.034-2.21-.543-.42-1.903-.107-2.277.491-.056-.225-.326-.597-.455-.76-.126-.158-.159-.266.015-.405.082-.068.33-.331.33-.604a.463.463 0 00-.487-.459c-.293 0-.618.217-.618.7a.72.72 0 00.09.347 3.086 3.086 0 00-.946.05l3.566 10.474c1.02-.539 1.769-1.393 1.769-2.31 0-.78-1.075-.521-1.597.088-.168-.99-.317-1.905-.48-2.816-.045-.252.074-.342.263-.418zm-5.042-7.115l.75 2.228c-.642.163-1.674.664-1.674 1.327 0 .883 1.46 1.457 2.303 1.388a.628.628 0 00.138.545c-.307 0-.884.153-1.074.371-.447-.446-1.147-.608-1.48-.336-.334.273-.344.737.005 1.26.243.363.334.721.06 1.141 1.018 0 .643-1.415 1.041-1.415-.051.275-.02.592.096.944.077.234.077.4-.054.626-.328.561-.839 1.85-.77 3.017-.333-.002-.503-.09-.385-.577.044-.182-.06-.311-.2-.088-.153.247-.226.668-.226.849 0 1.038 1.155 1.247 1.596 1.027 1.276 1.322 3.782.97 4.62.526l-4.411-12.96c-.09-.245-.414-.127-.335.127zm-.153 10.675c-.091-.533.602-1.487 1.485-2.407-.188.6-.072 1.633.296 1.989-.64 0-1.4.128-1.78.418z" fill="#fff"/></svg>