<svg width="59" height="59" viewBox="0 0 59 59" fill="none" xmlns="http://www.w3.org/2000/svg"><path d="M26.497 2.384c.74-2.645 4.49-2.645 5.23 0 .607 2.168 3.438 2.698 4.788.895 1.645-2.199 5.14-.844 4.876 1.889-.218 2.241 2.232 3.758 4.141 2.564 2.329-1.456 5.099 1.07 3.865 3.523-1.013 2.011.723 4.31 2.935 3.887 2.697-.516 4.368 2.84 2.331 4.68-1.67 1.511-.882 4.282 1.333 4.686 2.701.493 3.047 4.226.482 5.207-2.103.805-2.369 3.673-.449 4.85 2.34 1.436 1.315 5.041-1.431 5.03-2.252-.01-3.536 2.569-2.171 4.36 1.664 2.184-.595 5.176-3.151 4.173-2.097-.822-4.226 1.118-3.6 3.282.762 2.637-2.425 4.61-4.446 2.752-1.658-1.524-4.344-.483-4.542 1.76-.242 2.735-3.927 3.424-5.14.96-.996-2.02-3.876-2.02-4.871 0-1.214 2.464-4.899 1.775-5.14-.96-.199-2.243-2.885-3.284-4.543-1.76-2.021 1.859-5.208-.115-4.446-2.752.626-2.164-1.503-4.104-3.6-3.282-2.556 1.003-4.815-1.989-3.15-4.173 1.364-1.791.08-4.37-2.172-4.36-2.746.011-3.772-3.594-1.43-5.03 1.919-1.177 1.653-4.045-.45-4.85-2.565-.981-2.22-4.714.482-5.207 2.216-.404 3.004-3.175 1.333-4.685-2.037-1.841-.366-5.197 2.331-4.681 2.212.423 3.948-1.876 2.935-3.887-1.234-2.453 1.536-4.979 3.865-3.523 1.91 1.194 4.359-.323 4.141-2.564-.265-2.733 3.23-4.088 4.876-1.89 1.35 1.804 4.181 1.274 4.788-.894z" fill="#fff"/><path fill-rule="evenodd" clip-rule="evenodd" d="M25.17 30.425l.002.002h.001l-.002-.002z" fill="#000"/><path fill-rule="evenodd" clip-rule="evenodd" d="M38.268 15.4L38 18.025c.92.25 1.579-.604 2.344-.72 2.256-.34 2.751 1.655 2.611 3.402-.232 2.893-2.097 4.767-4.124 6.66-1.035.966-4.17 3.09-4.169 4.448 0 .5.323.769.316 1.239-.216.04-.444-.122-.525-.294-.198-.413.167-1.122-.378-1.018.076.94-1.685 2.286-1.833 2.768-.122.398-.045.845-.134 1.217-.027.116-.274.039-.31.309-.135.99.217 3.286.648 4.21.432.923 1.136 1.416 2.23 1.418v2.058h-9.204c-.014-.494 0-1.383 0-2.06 1.303.002 1.647-.293 2.14-1.214.491-.92 1.11-3.52.747-4.412-.066-.165-.344-.21-.43-.384-.027-.05.023-.798-.116-1.142-.196-.486-.736-.768-1.045-1.176-.35-.463-.558-.994-.92-1.445-.388-.027-.15.447-.367.81-.074.123-.489.47-.61.355 1.41-2.19-1.828-3.899-3.249-5.247-2.048-1.95-4.284-3.842-4.575-6.81-.136-1.392-.088-3.449 1.729-3.688 1.466-.193 1.79.559 3.15.435l-.304-2.344h16.646zM22.48 18.37c-.095-.705-.262-1.706-.26-2.382h15.474c-.244 4.224-1.204 8.17-2.561 12.18-.492 1.457-1.704 5.002-3.087 5.77-.392.217-3.687.227-4.121.03-1.758-1.631-2.505-3.928-3.218-6.12l-.026-.08c-.967-2.977-1.783-6.302-2.2-9.398zm-3.904-.672c1.386-.556 2.113.665 3.35.665.585 4.091 1.81 8.186 3.246 12.062l.002.002h-.001l-.001-.002c-2.447-2.642-6.897-5.176-7.655-8.859-.24-1.161-.327-3.312 1.059-3.868zM34.83 30.28c1.385-3.878 2.574-7.859 3.017-11.964 1.43.678 2.23-1.23 3.66-.549.748.358.96 1.198 1.02 1.93.398 4.833-4.639 7.614-7.697 10.583zm-6.338 4.233h3.17l-.002.96s-2.093-.02-3.167 0v-.96zm.3 1.313h2.573c.307 2.948.307 4.803 1.9 5.836h-.4l-5.773.002s1.7-.944 1.7-5.838zm5.48 7.451h-8.398v-1.121h8.399v1.121z" fill="#000"/><path d="M33.45 27.811l2.334-9.628c.311.191.217.173.217.173-.147 1.824-1.237 7.422-2.089 9.1-.1.221-.157.41-.463.354v.002zm-.453 1.899c-.001.09-.935 3.403-1.507 2.623.374-.762.717-1.602 1.13-2.34.113-.205.13-.284.377-.285v.002z" fill="#000"/></svg>