<svg width="22" height="18" viewBox="0 0 22 18" fill="none" xmlns="http://www.w3.org/2000/svg"><path d="M8.747 6.074v4.868H3.24c-.695 0-1.259-.57-1.259-1.277V7.351c0-.703.564-1.273 1.259-1.273h5.508v-.004zM18.37.6v15.704h-1.875l-7.071-5.306V5.905L16.495.6h1.874zM1.303 7.68v1.644h-.285A.82.82 0 01.2 8.502a.84.84 0 01.236-.584.82.82 0 01.583-.238h.285zm6.779 9.488a1.075 1.075 0 01-1.887-.318l-1.71-5.226h2.52l1.258 4.586c.091.335.026.68-.18.958zm13.084-8.719a2.477 2.477 0 01-2.123 2.46V5.985c1.196.163 2.123 1.207 2.123 2.464z" fill="#fff"/></svg>