<svg width="23" height="20" viewBox="0 0 23 20" fill="none" xmlns="http://www.w3.org/2000/svg"><path d="M15.813 4.623c.354-.375.157-1.017-.338-1.1l-2.158-.36a.617.617 0 01-.45-.347l-.99-2.062a.597.597 0 00-1.092 0l-.99 2.062a.619.619 0 01-.45.347l-2.16.36c-.494.084-.691.725-.336 1.1l1.546 1.634a.67.67 0 01.172.561l-.344 2.285c-.08.524.437.921.884.68l1.946-1.053a.584.584 0 01.556 0l1.947 1.052c.446.242.961-.155.883-.68l-.344-2.284a.671.671 0 01.172-.56l1.547-1.635h-.001zm6.544 1.885c.237-.25.105-.681-.227-.736l-1.446-.242a.414.414 0 01-.301-.232l-.664-1.382a.4.4 0 00-.73 0l-.664 1.382a.414.414 0 01-.301.232l-1.446.242c-.332.055-.464.485-.227.736l1.037 1.096a.45.45 0 01.115.375l-.23 1.531c-.052.351.293.617.591.456l1.304-.705a.39.39 0 01.373 0l1.305.705c.298.162.644-.105.591-.456l-.23-1.53a.45.45 0 01.115-.376l1.036-1.096h-.001zM1.24 9.51c-.053.351.292.617.591.456l1.304-.705a.39.39 0 01.373 0l1.304.705c.3.162.645-.105.592-.456l-.23-1.53a.453.453 0 01.115-.376l1.036-1.096c.238-.25.106-.681-.226-.736L4.653 5.53a.414.414 0 01-.302-.232l-.663-1.382a.4.4 0 00-.73 0l-.664 1.382a.414.414 0 01-.301.232l-1.447.242c-.331.055-.464.485-.226.736l1.036 1.096a.45.45 0 01.116.375l-.23 1.531H1.24zm16.472 10.047l.836-.884a.145.145 0 000-.197l-2.158-2.284a.2.2 0 010-.273l1.684-1.783c.1-.106.054-.285-.082-.324l-6.35-1.801c-.135-.04-.26.093-.224.237l1.702 6.723c.036.143.206.192.305.087l1.684-1.783a.175.175 0 01.258 0l2.158 2.284a.126.126 0 00.186 0l.001-.002zM6.707 15.562c.099 0 .198-.04.274-.12l.935-.991a.427.427 0 000-.58.372.372 0 00-.547 0l-.936.991a.427.427 0 000 .58c.076.08.174.12.274.12zm1.863-.826v1.4c0 .227.173.41.387.41a.398.398 0 00.387-.41v-1.4a.398.398 0 00-.387-.41.398.398 0 00-.387.41zM7.49 12.77a.398.398 0 00-.387-.41H5.779a.398.398 0 00-.386.41c0 .226.173.41.386.41h1.324a.398.398 0 00.386-.41z" fill="#fff"/></svg>