<svg width="20" height="21" viewBox="0 0 20 21" fill="none" xmlns="http://www.w3.org/2000/svg"><path fill-rule="evenodd" clip-rule="evenodd" d="M9.6.6a.515.515 0 00-.357.14L6.21 3.637a.467.467 0 00-.11.526c.079.18.263.298.467.298h1.516v4.343c0 .266.226.482.505.482a.494.494 0 00.505-.482V3.977a.494.494 0 00-.505-.482h-.801L9.6 1.765l1.812 1.73h-.801a.494.494 0 00-.505.482v4.826c0 .266.226.482.505.482a.494.494 0 00.505-.482V4.46h1.515a.508.508 0 00.467-.298.465.465 0 00-.11-.526L9.957.741A.513.513 0 009.6.6zM3.537 3.977a.515.515 0 00-.357.142L.148 7.014a.467.467 0 00-.11.526c.079.18.263.297.467.297h1.516v4.344c0 .266.226.482.505.482a.494.494 0 00.505-.482V7.355a.494.494 0 00-.505-.482h-.801l1.812-1.731 1.812 1.73h-.801a.494.494 0 00-.505.483v4.826c0 .266.226.482.505.482a.494.494 0 00.505-.482V7.837h1.515a.508.508 0 00.467-.297.465.465 0 00-.11-.526L3.894 4.119a.513.513 0 00-.357-.142zm12.126 0a.515.515 0 00-.357.142l-3.032 2.895a.467.467 0 00-.11.526c.079.18.263.297.467.297h1.516v4.344c0 .266.226.482.505.482a.494.494 0 00.505-.482V7.355a.494.494 0 00-.505-.482h-.801l1.812-1.731 1.812 1.73h-.801a.494.494 0 00-.505.483v4.826c0 .266.226.482.505.482a.494.494 0 00.505-.482V7.837h1.515a.508.508 0 00.467-.297.465.465 0 00-.11-.526L16.02 4.119a.513.513 0 00-.357-.142zM9.6 9.768c-1.123 0-2.115.274-2.731.677-.53.345-.806.794-.806 1.254v3.452c-.62-.336-1.52-.556-2.526-.556-1.123 0-2.115.274-2.732.676-.53.345-.805.794-.805 1.255v2.413c0 .46.276.908.805 1.254.617.402 1.61.677 2.732.677s2.113-.274 2.73-.677a2.38 2.38 0 00.301-.233c.09.082.189.16.3.233.617.402 1.61.677 2.732.677s2.113-.274 2.73-.677c.112-.073.212-.151.301-.233.09.082.189.16.3.233.617.402 1.61.677 2.732.677 1.123 0 2.113-.274 2.73-.677.53-.345.806-.794.806-1.254v-2.413c0-.461-.276-.909-.806-1.255-.617-.401-1.608-.676-2.73-.676-1.005 0-1.906.22-2.527.555V11.7c0-.461-.276-.91-.806-1.255-.617-.402-1.608-.677-2.73-.677zm0 .966c.886 0 1.674.192 2.16.51.208.134.366.276.366.455 0 .18-.158.322-.365.456-.487.317-1.275.51-2.161.51-.886 0-1.674-.192-2.161-.51-.208-.134-.366-.277-.366-.456s.158-.321.366-.456c.487-.316 1.275-.51 2.16-.51zm2.526 2.339v1.04c0 .179-.158.32-.365.456-.487.316-1.275.509-2.161.509-.886 0-1.674-.192-2.161-.51-.208-.134-.366-.276-.366-.455v-1.04c.62.336 1.52.556 2.527.556 1.006 0 1.906-.221 2.526-.556zm0 2.413v1.04c0 .179-.158.321-.365.456-.487.317-1.275.51-2.161.51-.886 0-1.674-.193-2.161-.51-.208-.135-.366-.277-.366-.456v-1.039c.62.335 1.52.556 2.527.556 1.006 0 1.906-.222 2.526-.557zm-8.59.074c.887 0 1.675.192 2.162.51.207.134.365.277.365.456s-.158.321-.365.456c-.487.317-1.275.51-2.161.51-.886 0-1.674-.193-2.161-.51-.208-.135-.366-.277-.366-.456 0-.18.158-.322.366-.456.487-.317 1.275-.51 2.16-.51zm12.127 0c.886 0 1.674.192 2.16.51.208.134.366.277.366.456s-.158.321-.365.456c-.487.317-1.275.51-2.161.51-.886 0-1.674-.193-2.161-.51-.208-.135-.366-.277-.366-.456 0-.18.158-.322.366-.456.487-.317 1.275-.51 2.16-.51zm-9.6 2.34v1.039c0 .18-.158.321-.365.456-.487.317-1.275.51-2.161.51-.886 0-1.674-.192-2.161-.51-.208-.135-.366-.277-.366-.456V17.9c.62.335 1.52.556 2.527.556 1.006 0 1.906-.222 2.526-.557zm6.063 0v1.039c0 .18-.158.321-.365.456-.487.317-1.275.51-2.161.51-.886 0-1.674-.192-2.161-.51-.208-.135-.366-.277-.366-.456V17.9c.62.335 1.52.556 2.527.556 1.006 0 1.906-.222 2.526-.557zm6.063 0v1.039c0 .18-.158.321-.365.456-.487.317-1.275.51-2.161.51-.886 0-1.674-.192-2.161-.51-.208-.135-.366-.277-.366-.456V17.9c.62.335 1.52.556 2.527.556 1.006 0 1.906-.222 2.526-.557z" fill="#fff" fill-opacity=".8"/></svg>