<svg width="20" height="15" viewBox="0 0 20 15" fill="none" xmlns="http://www.w3.org/2000/svg"><path d="M12.954 14.144a.7.7 0 01-.205.524.747.747 0 01-.525.218H.929a.718.718 0 01-.518-.218.707.707 0 01-.211-.524c.065-3.44 2.926-6.242 6.377-6.242 3.45 0 6.311 2.801 6.377 6.242zM2.992 3.624c0-1.87 1.532-3.39 3.408-3.39 1.875 0 3.4 1.52 3.4 3.39a3.4 3.4 0 01-3.4 3.398 3.406 3.406 0 01-3.408-3.398zm8.186 1.912a2.888 2.888 0 012.888-2.88 2.886 2.886 0 012.88 2.88 2.884 2.884 0 01-5.768 0zm8.225 8.532a.807.807 0 01-.8.814h-4.16a2.16 2.16 0 00.112-.774 7.883 7.883 0 00-1.84-4.913 5.19 5.19 0 011.488-.216c2.816 0 5.152 2.282 5.2 5.09z" fill="#fff" fill-opacity=".8"/></svg>