<svg width="20" height="22" viewBox="0 0 20 22" fill="none" xmlns="http://www.w3.org/2000/svg"><path fill-rule="evenodd" clip-rule="evenodd" d="M16.651 4.059a.246.246 0 01.027.288c-.229.407-.5.79-.809 1.14-.321.37-.667.718-1.034 1.042.345.637.46 1.373.325 2.084a11.936 11.936 0 002.956-3.146.247.247 0 01.367-.065l.495.363.421-3.835-3.538 1.552c.107.077.747.528.79.577zm1.974 17.388h-3.187V11.3a11.999 11.999 0 003.187-3.077v13.224zm-4.918 0V12.36a23.708 23.708 0 01-3.187 1.43v7.657h3.187zm-4.917 0v-7.095a26.445 26.445 0 01-3.188.7v6.395H8.79zm-4.917 0v-6.19c-1.06.09-2.126.097-3.188.022v6.168h3.188zm2.84-10.628l.681 1.176.816-.47-.682-1.175-.815.469zm.254 1.422L5.13 13.299a3.311 3.311 0 01-4.489-1.22 3.285 3.285 0 011.187-4.485l1.836-1.058.682 1.177-1.817 1.044a1.936 1.936 0 00-.738 2.668 1.94 1.94 0 002.655.699l1.84-1.06.68 1.177h.001zM4.091 6.29l.681 1.176.816-.47-.682-1.177-.815.47zm7.963-1.415c.079 0 .156.003.233.008a3.007 3.007 0 00-.668-3.083 3.026 3.026 0 00-3.06-.8 3.026 3.026 0 00-2.103 2.355 3.007 3.007 0 001.153 2.938v-.284a1.503 1.503 0 011.497-1.493h.65a1.501 1.501 0 011.172.567c.36-.137.74-.207 1.125-.206h.001zM9.108 6.883a3.012 3.012 0 01-1.002-.288v-.587a1.001 1.001 0 011.001-.999h.65a1 1 0 01.708.293 3.165 3.165 0 00-1.357 1.58zm4.831-.735a2.658 2.658 0 01.478 3.11 2.66 2.66 0 01-.713.857v-.196a1.357 1.357 0 00-1.36-1.357h-.58a1.366 1.366 0 00-1.36 1.357v.196a2.66 2.66 0 01-1.003-1.853 2.65 2.65 0 011.527-2.641 2.672 2.672 0 013.011.527zM10.9 10.424a2.676 2.676 0 002.309 0v-.505a.864.864 0 00-.865-.863h-.58a.87.87 0 00-.864.863v.504zm1.155-4.031c-.501 0-.854.467-.854.97 0 .873.942 1.3 1.472.669.515-.614.133-1.64-.62-1.64h.002zm.239.617c-.235-.28-.598-.049-.598.353 0 .402.363.632.598.353a.58.58 0 000-.706zM9.431 2.08c.818 0 1.233 1.12.671 1.79-.576.685-1.6.22-1.6-.732 0-.549.384-1.058.93-1.058zm.292.641a.681.681 0 010 .832c-.28.335-.725.066-.725-.416s.444-.75.725-.416z" fill="#fff" fill-opacity=".8"/></svg>