<svg width="20" height="20" viewBox="0 0 20 20" fill="none" xmlns="http://www.w3.org/2000/svg"><path d="M13.186.982c.57.707 1.061 1.578 1.46 2.565a12.27 12.27 0 001.577-.615 9.626 9.626 0 00-3.036-1.95zm-7.173 0a9.625 9.625 0 00-3.037 1.95h.001c.483.23 1.012.436 1.577.615.398-.987.89-1.858 1.46-2.565h-.001zm4.037-.68l-.002 3.969a17.269 17.269 0 003.734-.482c-.65-1.558-1.537-2.725-2.52-3.353A9.499 9.499 0 0010.05.303zm-.9 0c-.41.02-.815.064-1.212.134-.983.627-1.87 1.795-2.52 3.353 1.129.28 2.385.45 3.734.482L9.15.303zm4.946 4.32c-1.26.321-2.632.51-4.049.542l.001 4.263h4.846c-.041-1.792-.332-3.421-.798-4.804zm2.774-1.014c-.59.295-1.234.554-1.92.771v.001c.502 1.515.799 3.244.841 5.047H19.2a9.523 9.523 0 00-2.33-5.82zM5.104 4.623c-.465 1.383-.757 3.012-.798 4.804h4.846V5.164a18.233 18.233 0 01-4.047-.542h-.001zM2.329 3.608A9.524 9.524 0 000 9.428l3.41-.002c.04-1.801.338-3.53.84-5.046a13.127 13.127 0 01-1.92-.772zm12.564 6.713h-4.845l.002 4.262c1.416.033 2.788.221 4.046.542.465-1.383.757-3.012.798-4.804zm-10.587 0c.041 1.793.333 3.42.798 4.804 1.258-.32 2.63-.51 4.046-.541l.002-4.262-4.846-.001zm14.893 0H15.79c-.042 1.803-.338 3.533-.84 5.048h.002c.685.218 1.328.476 1.918.772a9.526 9.526 0 002.329-5.82h-.001zM0 10.321a9.525 9.525 0 002.33 5.82 13.068 13.068 0 011.918-.772h.001c-.502-1.515-.798-3.246-.84-5.047v-.001H0zm4.553 5.88c-.566.179-1.092.384-1.576.616a9.628 9.628 0 003.04 1.95c-.57-.707-1.065-1.578-1.464-2.565V16.2zm10.093 0c-.399.988-.892 1.859-1.462 2.567a9.645 9.645 0 003.04-1.951h-.001a11.997 11.997 0 00-1.575-.616h-.002zm-4.596-.724l-.002 3.969a9.625 9.625 0 001.211-.132h.002c.984-.628 1.87-1.796 2.522-3.355a17.206 17.206 0 00-3.733-.482zm-.9 0a17.215 17.215 0 00-3.733.482c.651 1.559 1.539 2.727 2.521 3.355h.002c.397.069.8.113 1.212.133v-.001l-.002-3.969z" fill="#fff" fill-opacity=".8"/></svg>