<svg width="15" height="15" viewBox="0 0 15 15" fill="none" xmlns="http://www.w3.org/2000/svg"><path fill-rule="evenodd" clip-rule="evenodd" d="M9.05 14.698a7.347 7.347 0 003.418-1.877 9.216 9.216 0 00-1.539-.602c-.106.241-.22.471-.34.689-.43.77-.952 1.383-1.539 1.791zm3.93-2.427a7.382 7.382 0 001.729-4.408h-2.87c-.036 1.344-.267 2.6-.645 3.678a9.72 9.72 0 011.785.73zm1.729-5.136a7.381 7.381 0 00-1.73-4.408 9.768 9.768 0 01-1.785.73c.378 1.079.609 2.334.644 3.678h2.87zm-2.242-4.958A7.34 7.34 0 009.05.3c.586.408 1.109 1.022 1.538 1.792.121.217.235.447.34.689a9.194 9.194 0 001.538-.602l.002-.002zM5.66.3a7.347 7.347 0 00-3.418 1.877 9.221 9.221 0 001.538.603 8.18 8.18 0 01.341-.689c.43-.77.952-1.384 1.538-1.792L5.66.3zM1.73 2.728A7.381 7.381 0 000 7.136h2.87c.036-1.344.267-2.6.644-3.678-.106-.033-.21-.067-.314-.101a9.717 9.717 0 01-1.471-.63zM0 7.863a7.38 7.38 0 001.729 4.408 9.759 9.759 0 011.785-.73c-.376-1.078-.608-2.334-.643-3.678H0zm2.242 4.958a7.341 7.341 0 003.418 1.877c-.587-.407-1.11-1.021-1.538-1.792a8.022 8.022 0 01-.341-.688 9.202 9.202 0 00-1.538.602l-.001.001zm7.977-.788a12.773 12.773 0 00-2.502-.308v2.773c.858-.158 1.64-.873 2.24-1.946.092-.165.18-.339.262-.52zm-3.226-.308c-.882.023-1.723.13-2.503.308.083.18.17.353.263.519.599 1.074 1.382 1.788 2.24 1.946v-2.773zm-2.778-.373c.865-.206 1.8-.33 2.778-.355V7.863H3.595c.036 1.283.258 2.475.62 3.489zm3.502-.355c.978.025 1.914.149 2.778.355.361-1.014.583-2.206.619-3.49H7.716v3.135zM3.596 7.136h3.397V4.002a13.508 13.508 0 01-2.778-.355c-.361 1.014-.584 2.206-.62 3.49v-.001zm4.12 0h3.398c-.035-1.284-.258-2.476-.619-3.49-.864.207-1.8.33-2.778.355v3.134zm0-6.636v2.774c.882-.023 1.724-.13 2.503-.308a7.38 7.38 0 00-.262-.52C9.357 1.374 8.575.66 7.717.5zm-.723 2.774V.5c-.858.159-1.641.873-2.24 1.947a7.47 7.47 0 00-.263.519c.78.178 1.622.285 2.503.308z" fill="#fff"/></svg>