<svg width="15" height="15" viewBox="0 0 15 15" fill="none" xmlns="http://www.w3.org/2000/svg"><path d="M13.08 8.59a.32.32 0 01.255-.26l.937-.188a.656.656 0 000-1.285l-.937-.189a.32.32 0 01-.255-.258 5.82 5.82 0 00-.193-.707.333.333 0 01.095-.354l.717-.63a.655.655 0 00-.642-1.113l-.906.306a.329.329 0 01-.354-.094 5.5 5.5 0 00-.517-.518.333.333 0 01-.095-.353l.307-.906a.655.655 0 00-1.114-.643l-.63.718a.333.333 0 01-.353.095 5.833 5.833 0 00-.707-.193.32.32 0 01-.258-.256L8.24.825a.656.656 0 00-1.285 0l-.189.937a.32.32 0 01-.258.256c-.233.049-.472.11-.707.193a.333.333 0 01-.354-.095l-.63-.718a.655.655 0 00-1.113.643l.307.906a.333.333 0 01-.095.353 5.51 5.51 0 00-.517.518.329.329 0 01-.354.094l-.906-.306a.655.655 0 00-.642 1.114l.717.63a.333.333 0 01.095.353 5.835 5.835 0 00-.193.707.32.32 0 01-.256.258l-.936.189a.656.656 0 000 1.285l.936.189a.32.32 0 01.256.258c.049.232.11.471.193.707a.333.333 0 01-.095.353l-.717.63a.655.655 0 00.642 1.114l.906-.307a.329.329 0 01.354.095c.16.183.333.357.517.517a.333.333 0 01.095.354l-.307.906a.655.655 0 001.114.642l.63-.717a.333.333 0 01.353-.095c.235.082.474.144.707.193a.32.32 0 01.258.255l.189.937a.656.656 0 001.285 0l.189-.937a.32.32 0 01.258-.255c.233-.049.472-.111.707-.193a.333.333 0 01.354.095l.629.717a.656.656 0 001.114-.642l-.307-.906a.333.333 0 01.095-.354c.184-.16.357-.334.517-.517a.329.329 0 01.354-.095l.906.306a.655.655 0 00.642-1.113l-.717-.63a.333.333 0 01-.095-.353 5.82 5.82 0 00.193-.707zm-5.482 3.537a4.632 4.632 0 01-4.627-4.628 4.632 4.632 0 014.627-4.627 4.632 4.632 0 014.628 4.627 4.632 4.632 0 01-4.628 4.628z" fill="#fff"/><path d="M7.596 3.527A3.975 3.975 0 003.623 7.5a3.975 3.975 0 003.973 3.973A3.975 3.975 0 0011.57 7.5a3.975 3.975 0 00-3.973-3.973zm0 6.45A2.482 2.482 0 015.12 7.5a2.482 2.482 0 012.477-2.477A2.482 2.482 0 0110.074 7.5a2.482 2.482 0 01-2.478 2.477z" fill="#fff"/></svg>