<svg width="23" height="17" viewBox="0 0 23 17" fill="none" xmlns="http://www.w3.org/2000/svg"><path d="M.602 16.218V.463c0-.107.045-.168.153-.168.26 0 .504 0 .856-.015.367-.016.75-.016 1.162-.03.413-.016.857-.016 1.331-.032.474-.015.933-.015 1.392-.015 1.254 0 2.294.153 3.15.475a5.46 5.46 0 012.05 1.255c.49.49.872 1.087 1.116 1.746a5.85 5.85 0 01.352 1.99c0 1.317-.306 2.404-.918 3.261a5.24 5.24 0 01-2.462 1.868c-1.04.383-2.187.521-3.441.521-.367 0-.612 0-.765-.015-.153-.016-.367-.016-.658-.016v4.915a.19.19 0 01-.168.215H.785c-.122 0-.183-.062-.183-.2zM3.936 3.25v5.145c.214.015.413.03.596.03h.81c.597 0 1.194-.092 1.76-.275a2.63 2.63 0 001.254-.812c.321-.383.474-.903.474-1.577a2.522 2.522 0 00-.352-1.363 2.218 2.218 0 00-1.07-.872 4.484 4.484 0 00-1.805-.307c-.398 0-.75 0-1.04.016-.306-.016-.52 0-.627.015zm17.772 4.21a5.41 5.41 0 00-1.468-.52 8.054 8.054 0 00-1.713-.199 3.076 3.076 0 00-.918.107.785.785 0 00-.474.306.813.813 0 00-.122.414c0 .138.06.275.152.398.138.168.322.306.52.413.352.184.72.352 1.086.506.826.275 1.622.658 2.356 1.117.505.322.918.75 1.208 1.271.245.49.367 1.026.352 1.577.015.72-.199 1.44-.597 2.037a3.834 3.834 0 01-1.713 1.362c-.75.322-1.667.49-2.768.49-.704 0-1.392-.061-2.08-.199a6.164 6.164 0 01-1.56-.49c-.107-.061-.184-.168-.168-.29v-2.665c0-.046.015-.107.06-.138.047-.03.093-.015.139.016a6.543 6.543 0 001.896.75c.581.153 1.193.23 1.805.23.581 0 .994-.077 1.27-.215a.711.711 0 00.412-.643c0-.214-.122-.413-.367-.612-.245-.2-.75-.43-1.499-.72a9.354 9.354 0 01-2.171-1.102 3.962 3.962 0 01-1.163-1.302 3.288 3.288 0 01-.352-1.562c0-.658.184-1.286.52-1.852a3.772 3.772 0 011.606-1.409C16.677 4.17 17.578 4 18.664 4c.627 0 1.27.046 1.897.138a5.38 5.38 0 011.315.352.271.271 0 01.153.138c.015.061.03.123.03.184v2.495c0 .062-.03.123-.076.154-.137.03-.214.03-.275 0z" fill="#fff"/></svg>