<svg width="19" height="17" viewBox="0 0 19 17" fill="none" xmlns="http://www.w3.org/2000/svg"><path d="M7.027 6.742c0-1.254-.619-1.86-1.562-1.86-.374 0-.658.043-.805.1v3.69c.187.07.422.098.707.098 1.031 0 1.66-.719 1.66-2.028z" fill="#fff"/><path d="M.799 14.129l10.091 2.61V.203L.799 2.815v11.314zM3.806 4.094a6.965 6.965 0 011.64-.183c.846 0 1.464.281 1.857.789.363.45.58 1.14.58 1.986 0 .858-.177 1.536-.511 2.028-.452.69-1.189 1.042-2.024 1.042-.255 0-.49-.015-.687-.085v3.803h-.855v-9.38zm7.671-1.948v13.248h7.125V2.147h-7.125zm2.327 1.141h2.986v4.03h-.343V3.612h-2.643v-.325zm-.517.498h2.986v4.03l-2.986-.003V3.785zm1.643 10.314a1.735 1.735 0 110-3.471v1.736h1.736c0 .958-.777 1.736-1.736 1.736zm.217-1.952V10.41c.96 0 1.736.777 1.736 1.736h-1.736z" fill="#fff"/></svg>