<svg width="21" height="17" viewBox="0 0 21 17" fill="none" xmlns="http://www.w3.org/2000/svg"><path d="M10.32 13.039H4.9l-1.106 3.423a.255.255 0 01-.277.204H.777c-.16 0-.203-.087-.16-.262L5.31 2.898c.043-.145.087-.306.145-.48a5.09 5.09 0 00.088-.947c-.015-.073.044-.146.116-.16h3.774c.116 0 .175.043.19.116l5.317 15.006c.044.16 0 .233-.146.233h-3.045c-.102.015-.204-.058-.233-.16l-1.194-3.467zM5.747 10.08h3.7a20.45 20.45 0 00-.335-1.049 43.863 43.863 0 01-.393-1.253c-.146-.452-.277-.889-.423-1.34a31.496 31.496 0 01-.393-1.297c-.116-.408-.218-.787-.32-1.136h-.03a17.89 17.89 0 01-.495 1.88c-.218.698-.437 1.427-.67 2.155a28.59 28.59 0 01-.641 2.04zm12.441-6.22a1.803 1.803 0 01-1.297-.51 1.893 1.893 0 01-.495-1.34A1.715 1.715 0 0116.92.713c.35-.335.816-.51 1.297-.51.568 0 1.005.175 1.326.51.32.35.495.816.48 1.297a1.84 1.84 0 01-.51 1.34c-.334.35-.83.54-1.325.51zm-1.632 12.646V5.288c0-.146.058-.204.19-.204h2.884c.131 0 .19.073.19.204v11.218c0 .16-.059.233-.19.233h-2.855c-.146 0-.219-.087-.219-.233z" fill="#fff"/></svg>