<svg width="29" height="12" viewBox="0 0 29 12" fill="none" xmlns="http://www.w3.org/2000/svg"><path d="M.232.403S1.372.259 2.131.93c.469.414.605 1.073.605 1.073l1.551 6.02 1.29-4.927c.125-.523.352-1.171.71-1.609C6.744.93 7.67.894 7.77.894c.1 0 1.026.036 1.483.593.358.438.584 1.085.71 1.61l1.29 4.927 1.55-6.02s.138-.66.606-1.074c.76-.67 1.898-.527 1.898-.527l-2.97 11.25s-.979.072-1.47-.179c-.643-.329-.949-.582-1.339-2.113-.197-.784-.392-1.567-.584-2.352l-.073-.295a828.39 828.39 0 00-.556-2.251l-.07-.282c-.066-.256-.11-.427-.127-.48-.043-.14-.096-.477-.348-.477-.247 0-.304.337-.349.478-.016.052-.061.223-.126.479l-.07.282c-.15.603-.3 1.206-.448 1.81l-.072.293c-.228.933-.46 1.864-.693 2.795-.39 1.53-.696 1.785-1.34 2.113-.49.25-1.47.18-1.47.18L.232.403zm17.9 1.866v.406h.002v6.792c-.005 1.393-.14 1.703-.729 2.024-.456.25-1.155.155-1.155.155V4.038c0-.382.118-.632.556-.857.261-.134.505-.237.758-.39.347-.206.522-.452.56-.51l.009-.012zM19.077.44S20.61.17 21.37.886c.427.404.9 1.092 1.007 1.25l.02.03.003.004 1.338 2c.064.103.149.216.285.216.135 0 .22-.112.285-.217l1.337-1.999.003-.004.02-.03c.107-.158.58-.846 1.007-1.25C27.435.169 28.97.44 28.97.44l-3.636 5.606 3.626 5.588s-1.57.21-2.33-.507c-.486-.459-.984-1.205-.984-1.205l-1.337-1.999c-.065-.104-.15-.217-.285-.217-.136 0-.221.112-.286.217L22.4 9.922s-.471.746-.957 1.205c-.76.717-2.358.507-2.358.507l3.626-5.588L19.076.44zM18.13.39h.005c0 .747-.07 1.19-.523 1.535a2.85 2.85 0 01-.688.389c-.25.097-.478.241-.673.425 0-1.36.199-1.854.734-2.145.333-.182.88-.202 1.077-.204h.068z" fill="#fff"/></svg>