<svg width="18" height="17" viewBox="0 0 18 17" fill="none" xmlns="http://www.w3.org/2000/svg"><path d="M14.745 8.034c0-1.021-.367-1.728-.682-2.28-.42-.68-.815-1.256-.815-1.937 0-.76.578-1.467 1.392-1.467.037 0 .072.004.107.006A8.272 8.272 0 009.15.186a8.285 8.285 0 00-6.925 3.726c.194.006.377.01.533.01.867 0 2.21-.105 2.21-.105.446-.027.499.628.052.68 0 0-.449.053-.948.08l3.018 8.952 1.814-5.424-1.292-3.528a14.944 14.944 0 01-.869-.079c-.446-.026-.394-.707.053-.68 0 0 1.369.104 2.183.104.867 0 2.21-.104 2.21-.104.446-.027.498.628.052.68 0 0-.45.053-.949.079l2.996 8.884.827-2.754c.358-1.144.63-1.965.63-2.673zM.861 8.451a8.264 8.264 0 004.672 7.438L1.58 5.088A8.212 8.212 0 00.86 8.45z" fill="#fff"/><path d="M9.3 9.175L6.812 16.38a8.309 8.309 0 005.095-.131.71.71 0 01-.06-.114L9.3 9.175zm4.013 6.42a8.256 8.256 0 003.106-11.11c.036.263.056.546.056.85 0 .839-.157 1.782-.63 2.96l-2.533 7.3z" fill="#fff"/></svg>