<svg width="24" height="17" viewBox="0 0 24 17" fill="none" xmlns="http://www.w3.org/2000/svg"><path d="M.545.187c2.21 4.28 6.117 4.946 10.856 5.045 2.797.06 8.949-.183 8.949 1.346 0 1.147-4.098 4.742-4.098 5.478 0 0 2.841-2.451 4.428-3.893 1.586-1.441 2.472-2.294 2.472-3.147 0-1.736-6.579-1.418-11.892-1.418S3.04 2.571.545.187zm5.934 13.286c-.88 0-1.601.712-1.601 1.61 0 .898.721 1.634 1.601 1.634s1.578-.736 1.578-1.634c0-.898-.697-1.61-1.578-1.61zm7.348 0c-.88 0-1.578.712-1.578 1.61 0 .898.698 1.634 1.578 1.634.88 0 1.601-.736 1.601-1.634 0-.898-.721-1.61-1.601-1.61z" fill="#fff"/></svg>