<svg width="17" height="17" viewBox="0 0 17 17" fill="none" xmlns="http://www.w3.org/2000/svg"><path d="M14.51 2.49A8.473 8.473 0 008.5 0a8.47 8.47 0 00-6.01 2.49A8.5 8.5 0 1017 8.5a8.471 8.471 0 00-2.49-6.01zM8.5 15.979c-4.124 0-7.48-3.355-7.48-7.48S4.376 1.02 8.5 1.02c4.124 0 7.48 3.356 7.48 7.48 0 4.125-3.356 7.48-7.48 7.48zm-4.204-4.383c0-.298.241-.539.539-.539h7.331a.539.539 0 110 1.077H4.835a.538.538 0 01-.539-.538zm0-3.096c0-.297.241-.538.539-.538h7.331a.539.539 0 110 1.077H4.835a.538.538 0 01-.539-.539zm0-3.097c0-.297.241-.538.539-.538h7.331a.538.538 0 110 1.077H4.835a.538.538 0 01-.539-.539z" fill="#fff"/></svg>