<svg width="18" height="17" viewBox="0 0 18 17" fill="none" xmlns="http://www.w3.org/2000/svg"><path d="M7.443 16.622c-1.45-.3-2.803-.966-3.865-1.905-2.727-2.412-3.57-6.2-2.13-9.57.354-.828.93-1.668 1.642-2.398l.629-.643.044 3.766c.042 3.604.052 3.785.223 4.24.343.908.71 1.487 1.342 2.114 1.634 1.62 4.03 2.023 6.066 1.023 1.915-.94 3.121-2.985 2.981-5.05-.094-1.387-.563-2.404-1.574-3.417-.765-.767-1.665-1.267-2.645-1.472-.997-.207-.95-.238-.95.603v.725l.547.1c2.117.388 3.517 2.458 3.076 4.546-.141.667-.456 1.256-.96 1.798a3.843 3.843 0 01-6.276-.97s-.165-.372-.218-.602c-.312-1.354-.112-4.203-.112-4.203l-.025-4.166.247-.127a1.61 1.61 0 01.29-.127c.023 0 .053 1.913.066 4.252 0 0-.3 3.065.07 4.24.054.17.156.46.156.46.325.659.845 1.239 1.522 1.558.514.242.773.351 1.532.351.497 0 .937-.156 1.443-.387.597-.274 1.281-.998 1.534-1.66.697-1.821-.273-3.782-2.143-4.328-.764-.224-.748-.236-.748.59v.723l.367.098c1.322.352 1.725 2.116.687 3.022-.367.32-.697.462-1.275.462-.617 0-1.21-.372-1.515-.943a1.734 1.734 0 01-.198-.817c0-1.376-.03-3.85-.03-3.85L7.218.414l.19-.047c.104-.026.526-.09.937-.142C9.74.048 11.803.502 13.19 1.292c1.89 1.076 3.32 2.925 3.915 5.063.205.735.228.949.228 2.132 0 1.177-.024 1.398-.224 2.117-.81 2.906-2.87 4.982-5.816 5.863-.62.186-.91.221-2.004.244-.882.02-1.455-.009-1.846-.09z" fill="#fff"/></svg>