<svg width="15" height="17" viewBox="0 0 15 17" fill="none" xmlns="http://www.w3.org/2000/svg"><path d="M14.399 8.046c0-.247-.052-.482-.146-.694-.358-.806-1.278-.191-1.278.69 0 .882.92 1.497 1.278.692.094-.21.146-.444.146-.688zM3.485 11.414a1.47 1.47 0 00-1.43 1.813l.68 2.85a.854.854 0 001.035.64l.096-.02a.867.867 0 00.628-1.043l-1.01-4.24h.001zM0 6.465V9.61c0 .67.545 1.216 1.215 1.216h.233a2.784 2.784 0 000-5.57h-.233A1.215 1.215 0 000 6.466zm11.79 9.265c.107.096.25.118.382.06a.347.347 0 00.211-.325V.614a.35.35 0 00-.212-.323.35.35 0 00-.382.06L7.343 4.367a3.445 3.445 0 01-2.313.89.212.212 0 00-.212.212v5.146c0 .116.095.211.212.211.857 0 1.678.317 2.313.89l4.445 4.015h.001z" fill="#fff"/></svg>