<svg width="23" height="21" viewBox="0 0 23 21" fill="none" xmlns="http://www.w3.org/2000/svg"><path d="M1.377 9.191s9.78-4.271 13.171-5.775c1.3-.602 5.71-2.527 5.71-2.527s2.035-.843 1.865 1.203c-.056.842-.509 3.79-.96 6.98-.68 4.512-1.414 9.445-1.414 9.445s-.113 1.384-1.074 1.625c-.961.24-2.544-.843-2.827-1.083-.226-.18-4.24-2.888-5.709-4.212-.396-.361-.848-1.083.056-1.925a222.648 222.648 0 005.936-6.017c.678-.722 1.357-2.406-1.47-.36-4.013 2.947-7.97 5.715-7.97 5.715s-.905.601-2.6.06a112.516 112.516 0 01-3.675-1.263s-1.357-.903.961-1.866z" fill="#332C34"/></svg>