<svg width="14" height="17" viewBox="0 0 14 17" fill="none" xmlns="http://www.w3.org/2000/svg"><path fill-rule="evenodd" clip-rule="evenodd" d="M.072 4.334l1.421-1.421a.25.25 0 01.35 0 .249.249 0 010 .35L.422 4.684a.249.249 0 01-.35 0 .249.249 0 010-.35zM5.609.5h2.533a.364.364 0 010 .728H5.609a.364.364 0 110-.728zm.986 8.936a.395.395 0 11.559.559.395.395 0 01-.559-.56zm.48-3.086a.2.2 0 00-.4 0v2.594a.797.797 0 00-.487 1.175L4.85 11.457a.2.2 0 000 .284.201.201 0 00.285 0l1.338-1.338A.795.795 0 007.589 9.36a.796.796 0 00-.513-.415V6.35zm-3.71-.428l.513.511a.2.2 0 11-.284.284l-.51-.511a5.148 5.148 0 00-1.371 3.309h.723a.2.2 0 110 .4H1.71a5.148 5.148 0 001.37 3.31l.512-.512a.201.201 0 01.285.285l-.51.511a5.148 5.148 0 003.308 1.37v-.723a.2.2 0 01.401 0v.724a5.147 5.147 0 003.309-1.37l-.513-.512a.201.201 0 01.284-.284l.511.511a5.15 5.15 0 001.37-3.309h-.722a.2.2 0 110-.4h.723a5.148 5.148 0 00-1.37-3.31l-.511.511a.201.201 0 01-.285-.284l.511-.51A5.148 5.148 0 007.076 4.55v.724a.2.2 0 11-.4 0V4.55a5.148 5.148 0 00-3.31 1.371zm3.51-1.776a5.57 5.57 0 100 11.14 5.57 5.57 0 000-11.14zm-4.797.772a6.784 6.784 0 109.595 9.596 6.784 6.784 0 00-9.595-9.596zM6.875 2.53c-.18 0-.358.006-.534.02v-.92H7.41v.92a7.34 7.34 0 00-.535-.02zM1.53 4.913a6.621 6.621 0 01.542-.542l-.384-.385-.542.542.384.385z" fill="#fff"/></svg>