<svg width="22" height="22" viewBox="0 0 22 22" fill="none" xmlns="http://www.w3.org/2000/svg"><circle cx="11" cy="11" r="10" stroke="#121212" stroke-width="1.5"/><path d="M18.45 17.671l-.513.548.56.524.511-.571-.559-.5zm-14.9 0l-.558.501.512.57.56-.523-.513-.548zM21 11h-.75a9.213 9.213 0 01-2.36 6.17l.56.501.558.5A10.712 10.712 0 0021.75 11H21zM11 1v.75A9.25 9.25 0 0120.25 11h1.5C21.75 5.063 16.937.25 11 .25V1zM1 11h.75A9.25 9.25 0 0111 1.75V.25C5.063.25.25 5.063.25 11H1zm2.55 6.671l.56-.5A9.213 9.213 0 011.75 11H.25c0 2.755 1.038 5.27 2.742 7.172l.559-.5zm0 0l.513.548c.542-.508 1.636-.999 2.993-1.361 1.328-.354 2.783-.552 3.944-.552v-1.5c-1.306 0-2.892.22-4.33.603-1.41.376-2.807.943-3.632 1.715l.513.547zM11 15.556v.75c1.16 0 2.616.198 3.944.552 1.357.362 2.45.853 2.993 1.36l.512-.547.513-.547c-.825-.772-2.223-1.34-3.632-1.715-1.438-.384-3.024-.603-4.33-.603v.75z" fill="#121212"/><circle cx="10.999" cy="8.444" r="4.444" stroke="#121212" stroke-width="1.5"/></svg>