<svg width="25" height="25" viewBox="0 0 25 25" fill="none" xmlns="http://www.w3.org/2000/svg">
<path d="M23.8773 11.8537C23.2298 11.0731 22.3161 10.5142 21.2783 10.3102C21.3315 9.99088 21.367 9.6627 21.367 9.3256C21.367 5.98155 18.6527 3.26709 15.3085 3.26709C12.7805 3.26709 10.625 4.80164 9.71125 6.99263C9.06373 6.36282 8.18555 5.97253 7.20093 5.97253C5.23172 5.97253 3.62612 7.56919 3.62612 9.54734C3.62612 9.81345 3.6616 10.0618 3.71482 10.3102C1.63916 10.7182 0.078125 12.5455 0.078125 14.7366C0.078125 15.9784 0.58372 17.1049 1.39979 17.9211C2.21586 18.7372 3.34241 19.2427 4.58431 19.2427H7.19661V14.0625C7.19661 12.8627 8.17235 11.887 9.37207 11.887H15.6213C16.8211 11.887 17.7968 12.8627 17.7968 14.0625V19.2427H20.4091C22.8928 19.2427 24.9152 17.2203 24.9152 14.7366C24.9152 13.6367 24.5248 12.6342 23.8773 11.8537Z" fill="white"/>
<path d="M15.616 12.6406H9.36678C8.58176 12.6406 7.94531 13.2771 7.94531 14.0621V20.3113C7.94531 21.0964 8.58176 21.7328 9.36678 21.7328H15.616C16.401 21.7328 17.0375 21.0964 17.0375 20.3113V14.0621C17.0375 13.2771 16.401 12.6406 15.616 12.6406ZM14.393 16.7953C14.2511 16.9495 14.0127 16.9572 13.8597 16.8164L12.8673 15.8983V19.3366C12.8673 19.544 12.6988 19.7136 12.4904 19.7136C12.2819 19.7136 12.1134 19.5451 12.1134 19.3366V15.8983L11.121 16.8164C10.9691 16.9561 10.7307 16.9484 10.5877 16.7953C10.4469 16.6423 10.4557 16.4051 10.6076 16.262L12.2331 14.7596C12.3063 14.6931 12.3972 14.6598 12.4893 14.6598C12.5813 14.6598 12.6733 14.6931 12.7454 14.7596L14.3709 16.262C14.525 16.4051 14.5339 16.6435 14.393 16.7953Z" fill="white"/>
</svg>
