<svg width="122" height="52" viewBox="0 0 122 52" fill="none" xmlns="http://www.w3.org/2000/svg">
<g filter="url(#filter0_d_1959_1430)">
<rect x="37.0684" y="10" width="74.3353" height="32" rx="10.5" fill="url(#paint0_linear_1959_1430)"/>
</g>
<path d="M4.72101 15.3184V36.4449H0V15.3184H4.72101ZM8.60521 15.3184H14.4275L20.5768 29.5128H20.8383L26.9877 15.3184H32.81V36.4449H28.2306V22.6941H28.0453L22.2668 36.3418H19.1485L13.3698 22.6425H13.1845V36.4449H8.60521V15.3184Z" fill="#F9F9F9"/>
<path d="M47.1191 36.1637V15.5995H53.9949C55.4115 15.5995 56.6248 15.8673 57.6344 16.4028C58.6515 16.9383 59.4324 17.6713 59.9773 18.6018C60.5221 19.5323 60.7944 20.5933 60.7944 21.7848C60.7944 22.963 60.5221 24.0173 59.9773 24.9478C59.4324 25.8783 58.6515 26.6147 57.6344 27.1568C56.6248 27.6923 55.4152 27.9603 54.0058 27.9603H48.0781V26.7953H53.9732C55.121 26.7953 56.1016 26.5811 56.9153 26.1527C57.7288 25.7176 58.3536 25.1252 58.7894 24.3754C59.2253 23.6191 59.4434 22.7555 59.4434 21.7848C59.4434 20.8075 59.2253 19.9406 58.7894 19.1842C58.3536 18.4278 57.7252 17.8353 56.9044 17.4069C56.0907 16.9785 55.1101 16.7643 53.9622 16.7643H48.4812V36.1637H47.1191ZM66.0275 36.1637V15.5995H72.9033C74.3127 15.5995 75.5256 15.8539 76.5426 16.3626C77.5598 16.8714 78.3406 17.5776 78.8854 18.4813C79.4303 19.3783 79.7028 20.4226 79.7028 21.6142C79.7028 22.7923 79.4303 23.8299 78.8854 24.7269C78.3406 25.6172 77.5598 26.3134 76.5426 26.8155C75.5329 27.3175 74.3236 27.5686 72.9142 27.5686H66.7577V26.3937H72.8816C74.0291 26.3937 75.01 26.1963 75.8235 25.8013C76.6372 25.4064 77.2618 24.854 77.6977 24.1445C78.1337 23.4282 78.3515 22.5848 78.3515 21.6142C78.3515 20.6368 78.1337 19.7866 77.6977 19.0636C77.2618 18.334 76.6336 17.7684 75.8128 17.3667C74.999 16.9651 74.0185 16.7643 72.8706 16.7643H67.3896V36.1637H66.0275ZM75.1916 26.8455L80.6834 36.1637H79.1144L73.6552 26.8455H75.1916ZM102.896 25.8816C102.896 28.0037 102.497 29.8579 101.697 31.4443C100.899 33.0242 99.787 34.2526 98.3632 35.1296C96.9467 36.0064 95.3122 36.4449 93.4598 36.4449C91.6001 36.4449 89.9582 36.0064 88.5344 35.1296C87.118 34.2459 86.01 33.0142 85.211 31.4345C84.412 29.8478 84.0123 27.9969 84.0123 25.8816C84.0123 23.7596 84.412 21.9087 85.211 20.3289C86.0174 18.7491 87.1288 17.5207 88.5454 16.6438C89.9619 15.7602 91.6001 15.3184 93.4598 15.3184C95.3122 15.3184 96.9467 15.7568 98.3632 16.6337C99.787 17.5107 100.899 18.7424 101.697 20.3289C102.497 21.9087 102.896 23.7596 102.896 25.8816ZM101.567 25.8816C101.567 23.9738 101.218 22.3204 100.521 20.9213C99.8305 19.5222 98.8753 18.4411 97.655 17.678C96.4344 16.9082 95.036 16.5233 93.4598 16.5233C91.8833 16.5233 90.4849 16.9049 89.2646 17.668C88.0441 18.4244 87.0852 19.5055 86.3879 20.9113C85.6977 22.3103 85.3527 23.9671 85.3527 25.8816C85.3527 27.7761 85.6941 29.4261 86.3769 30.8319C87.067 32.231 88.0222 33.3154 89.2427 34.0853C90.4632 34.8551 91.8688 35.24 93.4598 35.24C95.036 35.24 96.4344 34.8585 97.655 34.0952C98.8753 33.3254 99.8305 32.241 100.521 30.8419C101.218 29.443 101.567 27.7895 101.567 25.8816Z" fill="#F9F9F9"/>
<defs>
<filter id="filter0_d_1959_1430" x="27.2833" y="0.214922" width="93.9061" height="51.5702" filterUnits="userSpaceOnUse" color-interpolation-filters="sRGB">
<feFlood flood-opacity="0" result="BackgroundImageFix"/>
<feColorMatrix in="SourceAlpha" type="matrix" values="0 0 0 0 0 0 0 0 0 0 0 0 0 0 0 0 0 0 127 0" result="hardAlpha"/>
<feOffset/>
<feGaussianBlur stdDeviation="4.89254"/>
<feComposite in2="hardAlpha" operator="out"/>
<feColorMatrix type="matrix" values="0 0 0 0 0.0583333 0 0 0 0 0.0583333 0 0 0 0 0.0583333 0 0 0 0.2 0"/>
<feBlend mode="normal" in2="BackgroundImageFix" result="effect1_dropShadow_1959_1430"/>
<feBlend mode="normal" in="SourceGraphic" in2="effect1_dropShadow_1959_1430" result="shape"/>
</filter>
<linearGradient id="paint0_linear_1959_1430" x1="93.0938" y1="122.934" x2="23.0851" y2="4.24826" gradientUnits="userSpaceOnUse">
<stop stop-color="#3325CD"/>
<stop offset="1" stop-color="#5A69F7"/>
</linearGradient>
</defs>
</svg>
