<svg width="90" height="36" viewBox="0 0 90 36" fill="none" xmlns="http://www.w3.org/2000/svg">
<g filter="url(#filter0_d_2348_7261)">
<rect x="27.7969" y="5.59155" width="55.7519" height="24" rx="6" fill="url(#paint0_linear_2348_7261)"/>
</g>
<path d="M3.54078 9.58081V25.4257H0V9.58081H3.54078ZM6.45396 9.58081H10.8207L15.4327 20.2266H15.6288L20.2409 9.58081H24.6077V25.4257H21.1731V15.1126H21.0341L16.7002 25.3484H14.3615L10.0274 15.0739H9.88842V25.4257H6.45396V9.58081Z" fill="#F9F9F9"/>
<path d="M35.3438 25.2149V9.79168H40.5006C41.5631 9.79168 42.473 9.99249 43.2303 10.3941C43.9931 10.7958 44.5788 11.3455 44.9874 12.0434C45.3961 12.7413 45.6003 13.537 45.6003 14.4306C45.6003 15.3143 45.3961 16.105 44.9874 16.8029C44.5788 17.5007 43.9931 18.053 43.2303 18.4597C42.473 18.8613 41.5659 19.0622 40.5088 19.0622H36.063V18.1886H40.4843C41.3452 18.1886 42.0806 18.0279 42.6909 17.7066C43.3011 17.3802 43.7697 16.936 44.0965 16.3736C44.4234 15.8063 44.587 15.1587 44.587 14.4306C44.587 13.6977 44.4234 13.0475 44.0965 12.4802C43.7697 11.9129 43.2984 11.4685 42.6827 11.1472C42.0724 10.8259 41.337 10.6652 40.4761 10.6652H36.3653V25.2149H35.3438ZM49.5251 25.2149V9.79168H54.682C55.739 9.79168 56.6488 9.98246 57.4115 10.364C58.1744 10.7456 58.76 11.2752 59.1686 11.953C59.5773 12.6258 59.7817 13.409 59.7817 14.3027C59.7817 15.1862 59.5773 15.9645 59.1686 16.6372C58.76 17.305 58.1744 17.8271 57.4115 18.2036C56.6542 18.5802 55.7472 18.7685 54.6902 18.7685H50.0728V17.8873H54.6657C55.5264 17.8873 56.262 17.7393 56.8722 17.443C57.4825 17.1468 57.9509 16.7326 58.2778 16.2004C58.6048 15.6632 58.7682 15.0306 58.7682 14.3027C58.7682 13.5696 58.6048 12.932 58.2778 12.3898C57.9509 11.8426 57.4798 11.4183 56.8641 11.1171C56.2538 10.8159 55.5184 10.6652 54.6575 10.6652H50.5467V25.2149H49.5251ZM56.3982 18.2262L60.5171 25.2149H59.3404L55.2459 18.2262H56.3982ZM77.1769 17.5033C77.1769 19.0948 76.8772 20.4855 76.2778 21.6753C75.6786 22.8602 74.8449 23.7815 73.777 24.4392C72.7147 25.0969 71.4888 25.4257 70.0995 25.4257C68.7047 25.4257 67.4733 25.0969 66.4054 24.4392C65.3431 23.7765 64.5121 22.8527 63.9128 21.6679C63.3136 20.4779 63.0138 19.0897 63.0138 17.5033C63.0138 15.9118 63.3136 14.5236 63.9128 13.3387C64.5176 12.1538 65.3512 11.2326 66.4137 10.5749C67.4761 9.91217 68.7047 9.58081 70.0995 9.58081C71.4888 9.58081 72.7147 9.90965 73.777 10.5673C74.8449 11.225 75.6786 12.1488 76.2778 13.3387C76.8772 14.5236 77.1769 15.9118 77.1769 17.5033ZM76.1797 17.5033C76.1797 16.0724 75.9182 14.8323 75.3952 13.783C74.8776 12.7337 74.1611 11.9229 73.2459 11.3505C72.3305 10.7732 71.2816 10.4845 70.0995 10.4845C68.9171 10.4845 67.8683 10.7707 66.9531 11.343C66.0377 11.9103 65.3185 12.7211 64.7955 13.7755C64.2778 14.8248 64.0191 16.0674 64.0191 17.5033C64.0191 18.9241 64.2751 20.1616 64.7873 21.216C65.3049 22.2653 66.0213 23.0786 66.9366 23.656C67.852 24.2334 68.9062 24.522 70.0995 24.522C71.2816 24.522 72.3305 24.2359 73.2459 23.6634C74.1611 23.0861 74.8776 22.2728 75.3952 21.2235C75.9182 20.1743 76.1797 18.9342 76.1797 17.5033Z" fill="#F9F9F9"/>
<defs>
<filter id="filter0_d_2348_7261" x="22.2054" y="9.15527e-05" width="66.9329" height="35.1829" filterUnits="userSpaceOnUse" color-interpolation-filters="sRGB">
<feFlood flood-opacity="0" result="BackgroundImageFix"/>
<feColorMatrix in="SourceAlpha" type="matrix" values="0 0 0 0 0 0 0 0 0 0 0 0 0 0 0 0 0 0 127 0" result="hardAlpha"/>
<feOffset/>
<feGaussianBlur stdDeviation="2.79573"/>
<feComposite in2="hardAlpha" operator="out"/>
<feColorMatrix type="matrix" values="0 0 0 0 0.0583333 0 0 0 0 0.0583333 0 0 0 0 0.0583333 0 0 0 0.2 0"/>
<feBlend mode="normal" in2="BackgroundImageFix" result="effect1_dropShadow_2348_7261"/>
<feBlend mode="normal" in="SourceGraphic" in2="effect1_dropShadow_2348_7261" result="shape"/>
</filter>
<linearGradient id="paint0_linear_2348_7261" x1="69.8162" y1="90.2921" x2="17.3099" y2="1.27742" gradientUnits="userSpaceOnUse">
<stop stop-color="#3325CD"/>
<stop offset="1" stop-color="#5A69F7"/>
</linearGradient>
</defs>
</svg>
