<svg width="18" height="15" viewBox="0 0 18 15" fill="none" xmlns="http://www.w3.org/2000/svg">
<path d="M1.51313 6.53695C1.51313 6.53695 9.0613 3.2588 11.6791 2.10449C12.6827 1.6428 16.0859 0.16527 16.0859 0.16527C16.0859 0.16527 17.6566 -0.481093 17.5257 1.08871C17.4821 1.73514 17.133 3.9975 16.784 6.44461C16.2604 9.9075 15.6932 13.6935 15.6932 13.6935C15.6932 13.6935 15.6059 14.7555 14.8642 14.9402C14.1225 15.1249 12.9008 14.2938 12.6827 14.1091C12.5081 13.9706 9.41033 11.8929 8.27593 10.8771C7.9705 10.6001 7.62147 10.046 8.31953 9.39961C9.89028 7.87594 11.7664 5.98292 12.9008 4.78247C13.4244 4.22838 13.9479 2.93559 11.7664 4.50539C8.66862 6.76782 5.61444 8.89172 5.61444 8.89172C5.61444 8.89172 4.91633 9.35341 3.60741 8.93785C2.29844 8.52237 0.771351 7.96828 0.771351 7.96828C0.771351 7.96828 -0.275733 7.27571 1.51313 6.53695Z" fill="white"/>
</svg>
