<svg width="16" height="17" viewBox="0 0 16 17" fill="none" xmlns="http://www.w3.org/2000/svg">
<path d="M0.429107 15.9546C0.393121 16.1052 0.437883 16.2645 0.552858 16.3736C0.637993 16.4558 0.750336 16.5 0.867057 16.5C0.905676 16.5 0.943414 16.4957 0.979399 16.487L4.63501 15.5494C5.69348 16.0351 6.82306 16.281 8.00079 16.281C12.4111 16.281 16 12.7417 16 8.39048C16 4.0401 12.4095 0.5 7.99921 0.5C3.58888 0.5 0 4.0401 0 8.39048C0 9.8934 0.426541 11.347 1.23839 12.6083L0.429107 15.9546ZM4.44444 4.8775L5.0237 4.33469C5.244 4.12864 5.59242 4.1373 5.80131 4.3546L7.10641 5.71122C7.3153 5.92852 7.30652 6.27221 7.08622 6.47826L6.51573 7.01503C6.51573 7.01503 5.76092 7.46261 7.3425 8.96987L7.40745 9.03827C8.8521 10.6737 9.34447 9.95336 9.34447 9.95336L9.91497 9.41659C10.1353 9.21054 10.4837 9.2192 10.6926 9.4365L11.9757 10.7689C12.1846 10.9862 12.1758 11.3299 11.9555 11.5359L11.3763 12.0787C10.9339 12.4934 10.3134 12.6839 9.71573 12.5618C8.90476 12.3982 7.69094 11.8303 6.06192 10.232C6.09351 10.2675 6.12511 10.3004 6.1567 10.3385L5.95923 10.1342C5.99258 10.1697 6.02681 10.2009 6.06016 10.2338C4.52599 8.54903 4.01342 7.32399 3.88966 6.51704C3.8019 5.91708 4.00208 5.2922 4.44444 4.8775Z" fill="white"/>
</svg>
