<svg width="23" height="15" viewBox="0 0 23 15" fill="none" xmlns="http://www.w3.org/2000/svg"><path d="M20.922 2.341h-6.45V.501h6.45v1.84zm1.59 9.2c-.407 1.193-1.869 2.76-4.7 2.76-2.833 0-5.127-1.59-5.127-5.221 0-3.597 2.142-5.446 5.037-5.446 2.84 0 4.574 1.639 4.953 4.072.072.465.1 1.092.087 1.968h-7.397c.12 2.954 3.21 3.047 4.228 1.867h2.92zm-7.082-3.68h4.575c-.096-1.423-1.047-2.042-2.282-2.042-1.351 0-2.099.707-2.293 2.042zM6.607 14.29H.648V.52h6.408c5.046.075 5.142 5.009 2.506 6.354 3.19 1.159 3.297 7.416-2.955 7.416zM3.413 6.02h3.303c2.311 0 2.678-2.76-.288-2.76H3.413v2.76zm3.125 2.76H3.413v2.775h3.079c2.815 0 2.643-2.775.046-2.775z" fill="#fff"/></svg>