<svg width="17" height="15" viewBox="0 0 17 15" fill="none" xmlns="http://www.w3.org/2000/svg"><path d="M1.001 6.267s7.224-3.158 9.73-4.27c.96-.445 4.217-1.869 4.217-1.869s1.504-.623 1.378.89c-.041.623-.376 2.802-.71 5.16-.5 3.336-1.043 6.984-1.043 6.984s-.084 1.023-.794 1.201c-.71.178-1.879-.622-2.088-.8-.167-.134-3.132-2.136-4.217-3.114-.293-.267-.627-.801.042-1.424A164.41 164.41 0 0011.9 4.577c.501-.534 1.002-1.78-1.086-.267a355.982 355.982 0 01-5.887 4.226s-.669.445-1.921.044C1.753 8.18.292 7.646.292 7.646s-1.003-.667.71-1.379z" fill="#fff"/></svg>