<svg width="17" height="18" viewBox="0 0 17 18" fill="none" xmlns="http://www.w3.org/2000/svg"><path d="M.687 16.655a.458.458 0 00.563.551l3.738-.97a8.102 8.102 0 003.442.756c4.51 0 8.18-3.663 8.18-8.166S12.94.659 8.428.659C3.918.66.248 4.323.248 8.826c0 1.555.436 3.06 1.266 4.365l-.827 3.464zM4.793 5.19l.592-.562a.563.563 0 01.796.02l1.334 1.405a.561.561 0 01-.02.794l-.584.555s-.772.463.846 2.023l.066.071c1.478 1.693 1.981.947 1.981.947l.583-.555a.564.564 0 01.796.02l1.312 1.38a.561.561 0 01-.02.793l-.593.562a1.916 1.916 0 01-1.698.5c-.83-.17-2.07-.757-3.737-2.411.032.037.065.07.097.11l-.202-.211c.034.036.07.069.103.103-1.569-1.744-2.093-3.012-2.22-3.847-.089-.621.116-1.268.568-1.697z" fill="#fff"/></svg>