<svg width="19" height="23" viewBox="0 0 19 23" fill="none" xmlns="http://www.w3.org/2000/svg"><path d="M7.486.36H6.23l-.852 3.247L4.498.36H3.216l.795 2.3c.303.837.55 1.693.74 2.563v3.344h1.256V5.223L7.486.36zm3.321 6.257V4.485a2.407 2.407 0 00-.348-1.394 1.66 1.66 0 00-2.03-.466 1.66 1.66 0 00-.58.466 2.393 2.393 0 00-.35 1.394v2.132c-.03.489.093.975.35 1.393a1.66 1.66 0 002.61 0c.255-.418.377-.904.348-1.393zm-1.116.209c0 .571-.168.85-.53.85-.363 0-.53-.279-.53-.85V4.262c0-.571.167-.85.53-.85.362 0 .53.279.53.85v2.564zm5.262 1.783V2.437h-1.117v4.71c-.251.348-.488.529-.712.529-.223 0-.237-.084-.265-.265a2.618 2.618 0 010-.432V2.436h-1.116v4.877c-.014.31.02.62.097.92a.683.683 0 00.726.46 1.802 1.802 0 001.256-.683v.669l1.13-.07zm-3.517 6.243a.797.797 0 00-.559.264v3.72a.783.783 0 00.559.265c.32 0 .474-.264.474-.822v-2.605c0-.544-.153-.822-.474-.822zm4.103 0c-.377 0-.558.278-.558.85v.557h1.102v-.557c.014-.572-.181-.85-.544-.85z" fill="#fff"/><path d="M18.25 11.74a2.299 2.299 0 00-1.982-1.797 61.513 61.513 0 00-6.853-.251 61.512 61.512 0 00-6.852.25A2.305 2.305 0 00.567 11.74a19.572 19.572 0 00-.321 4.32 19.56 19.56 0 00.32 4.32 2.312 2.312 0 001.983 1.797c2.282.21 4.575.294 6.867.25 2.287.044 4.575-.04 6.852-.25a2.32 2.32 0 001.982-1.798c.267-1.423.375-2.872.321-4.32a19.573 19.573 0 00-.32-4.319zM5.48 12.98H4.084v6.967H2.91V12.98H1.613v-1.156H5.48v1.156zm3.35 6.967H7.726v-.668a1.772 1.772 0 01-1.27.752.684.684 0 01-.712-.46 3.07 3.07 0 01-.098-.906v-4.737H6.75v4.487c-.01.143-.01.288 0 .432 0 .167.111.264.265.264.153 0 .46-.167.698-.515v-4.668H8.8l.028 6.02zm4.186-1.825c.015.412-.022.824-.111 1.226a.879.879 0 01-.88.683 1.51 1.51 0 01-1.144-.669v.585H9.778v-8.11h1.103v2.676a1.493 1.493 0 011.144-.655.88.88 0 01.88.683c.09.402.128.814.111 1.226v2.355zm4.188-1.017h-2.206v1.087c0 .571.182.85.559.85a.475.475 0 00.488-.446c.014-.25.014-.502 0-.753h1.13v.878a1.56 1.56 0 01-.25.669 1.535 1.535 0 01-1.396.655 1.594 1.594 0 01-1.396-.627 2.366 2.366 0 01-.349-1.393v-2.118c-.03-.49.091-.977.349-1.394a1.577 1.577 0 011.396-.627 1.538 1.538 0 011.312.627c.255.418.377.904.349 1.393l.014 1.199z" fill="#fff"/></svg>