<svg width="36" height="36" viewBox="0 0 36 36" fill="none" xmlns="http://www.w3.org/2000/svg">
<path d="M16.1696 5.146H24.9911C26.6083 5.146 27.9315 5.88112 27.9315 8.08647V9.55671V11.0269C27.9315 13.2323 26.6083 13.9674 24.9911 13.9674H16.1696C14.5524 13.9674 13.2292 13.2323 13.2292 11.0269V9.55671V8.08647C13.2292 5.88112 14.5524 5.146 16.1696 5.146Z" fill="white"/>
<path d="M10.2887 21.3186H19.1101C20.7274 21.3186 22.0506 22.0537 22.0506 24.2591V25.7293V27.1996C22.0506 29.4049 20.7274 30.14 19.1101 30.14H10.2887C8.67143 30.14 7.34821 29.4049 7.34821 27.1996V25.7293V24.2591C7.34821 22.0537 8.67143 21.3186 10.2887 21.3186Z" fill="white"/>
<path d="M32.3423 25.7293H22.0506M22.0506 25.7293V24.2591M22.0506 25.7293V27.1996M7.34821 25.7293H2.9375M7.34821 25.7293V27.1996M7.34821 25.7293V24.2591M32.3423 9.55671H27.9315M27.9315 9.55671V8.08647M27.9315 9.55671V11.0269M13.2292 9.55671H2.9375M13.2292 9.55671V11.0269M13.2292 9.55671V8.08647M22.0506 24.2591C22.0506 22.0537 20.7274 21.3186 19.1101 21.3186H10.2887C8.67143 21.3186 7.34821 22.0537 7.34821 24.2591M22.0506 24.2591V27.1996M22.0506 27.1996C22.0506 29.4049 20.7274 30.14 19.1101 30.14H10.2887C8.67143 30.14 7.34821 29.4049 7.34821 27.1996M7.34821 27.1996V24.2591M27.9315 8.08647C27.9315 5.88112 26.6083 5.146 24.9911 5.146H16.1696C14.5524 5.146 13.2292 5.88112 13.2292 8.08647M27.9315 8.08647V11.0269M27.9315 11.0269C27.9315 13.2323 26.6083 13.9674 24.9911 13.9674H16.1696C14.5524 13.9674 13.2292 13.2323 13.2292 11.0269M13.2292 11.0269V8.08647" stroke="white" stroke-width="2.03571" stroke-miterlimit="10" stroke-linecap="round" stroke-linejoin="round"/>
</svg>
