<svg width="23" height="23" viewBox="0 0 23 23" fill="none" xmlns="http://www.w3.org/2000/svg">
<path d="M21.014 6.47826L17.7844 19.4445C17.6723 19.9134 17.4049 20.3306 17.0255 20.6281C16.6462 20.9257 16.1773 21.0861 15.6952 21.0833H3.10274C1.65565 21.0833 0.620654 19.6649 1.0519 18.2753L5.08649 5.31867C5.2213 4.87927 5.49299 4.49445 5.86192 4.22034C6.23085 3.94623 6.67771 3.79718 7.13732 3.79492H18.9248C19.8352 3.79492 20.5923 4.35076 20.9086 5.11742C21.0907 5.52951 21.129 5.99909 21.014 6.47826Z" fill="white" stroke="white" stroke-width="0.71875" stroke-miterlimit="10"/>
<path d="M7.38021 11.5H15.0469M6.42188 15.3333H14.0885" stroke="#0F0F0F" stroke-width="0.71875" stroke-miterlimit="10" stroke-linecap="round" stroke-linejoin="round"/>
<path d="M15.3301 21.0836H19.9109C21.1472 21.0836 22.1151 20.039 22.0289 18.8028L21.0801 5.75026M9.27344 6.11443L10.2701 1.97443M15.6943 6.12401L16.5951 1.96484" stroke="white" stroke-width="0.71875" stroke-miterlimit="10" stroke-linecap="round" stroke-linejoin="round"/>
</svg>
