<svg width="18" height="19" viewBox="0 0 18 19" fill="none" xmlns="http://www.w3.org/2000/svg">
<path fill-rule="evenodd" clip-rule="evenodd" d="M12.6921 2.05721L16.3201 5.6791C18.349 7.70459 18.349 10.9886 16.3201 13.0141L12.6921 16.636C10.6633 18.6615 7.37378 18.6615 5.34491 16.636L1.71697 13.0141C-0.311907 10.9886 -0.311907 7.70459 1.71697 5.6791L5.34491 2.05721C7.37378 0.0317118 10.6633 0.0317118 12.6921 2.05721ZM2.62169 11.4576V7.23559C2.62169 4.87448 4.53894 2.96042 6.90399 2.96042H11.1331C13.4981 2.96042 15.4153 4.87448 15.4153 7.23559V11.4576C15.4153 13.8187 13.4981 15.7327 11.1331 15.7327H6.90399C4.53894 15.7327 2.62169 13.8187 2.62169 11.4576Z" fill="white"/>
</svg>
