<svg width="23" height="15" viewBox="0 0 23 15" fill="none" xmlns="http://www.w3.org/2000/svg">
<path d="M20.9222 2.34098H14.4715V0.500977H20.9222V2.34098ZM22.5128 11.541C22.1055 12.7342 20.643 14.301 17.812 14.301C14.9792 14.301 12.6846 12.7103 12.6846 9.07998C12.6846 5.48278 14.8272 3.63358 17.7217 3.63358C20.5619 3.63358 22.2962 5.27302 22.675 7.7055C22.7469 8.17102 22.7754 8.79846 22.7625 9.6743H15.3654C15.4852 12.6284 18.5751 12.7213 19.5934 11.541H22.5128ZM15.4299 7.86098H20.0053C19.9085 6.43774 18.9584 5.8195 17.7227 5.8195C16.3717 5.8195 15.6243 6.52606 15.4299 7.86098ZM6.60709 14.2899H0.648438V0.520296H7.05588C12.1022 0.594816 12.198 5.52878 9.56245 6.87382C12.7519 8.03302 12.8588 14.2899 6.60709 14.2899ZM3.41304 6.02098H6.71583C9.02704 6.02098 9.39381 3.26098 6.42831 3.26098H3.41304V6.02098ZM6.53797 8.78098H3.41304V11.5557H6.4919C9.30719 11.5557 9.13486 8.78098 6.53797 8.78098Z" fill="white"/>
</svg>
