<svg width="12" height="14" viewBox="0 0 12 14" fill="none" xmlns="http://www.w3.org/2000/svg">
<path d="M6.90821 0H0.966811C0.433605 0 0 0.516939 0 1.15171V7.98179C0 8.61656 0.433605 9.1335 0.966811 9.1335H3.11333V5.35162C3.11333 4.41802 3.78977 3.66027 4.61987 3.66027H7.87507V1.15175C7.87507 0.516972 7.44141 0 6.90821 0Z" fill="white"/>
<path d="M3.65625 5.35142V12.1815C3.65625 12.8163 4.08985 13.3332 4.62306 13.3332H10.5665C11.0997 13.3332 11.5333 12.8163 11.5333 12.1815V5.35142C11.5333 4.71665 11.0997 4.19971 10.5665 4.19971H4.62306C4.08985 4.19971 3.65625 4.71665 3.65625 5.35142Z" fill="white"/>
</svg>
