<svg width="17" height="15" viewBox="0 0 17 15" fill="none" xmlns="http://www.w3.org/2000/svg">
<path d="M1.00145 6.26699C1.00145 6.26699 8.22542 3.10855 10.7308 1.99639C11.6913 1.55156 14.9483 0.127985 14.9483 0.127985C14.9483 0.127985 16.4516 -0.494774 16.3263 1.0177C16.2845 1.64053 15.9505 3.82028 15.6164 6.17802C15.1153 9.51445 14.5725 13.1622 14.5725 13.1622C14.5725 13.1622 14.489 14.1854 13.7791 14.3634C13.0692 14.5413 11.9 13.7406 11.6913 13.5626C11.5242 13.4292 8.55946 11.4273 7.47378 10.4486C7.18147 10.1817 6.84744 9.64793 7.51551 9.02511C9.01879 7.55708 10.8143 5.73319 11.9 4.57658C12.4011 4.04272 12.9022 2.79714 10.8143 4.30962C7.8496 6.48943 4.92661 8.53577 4.92661 8.53577C4.92661 8.53577 4.25848 8.9806 3.00578 8.58022C1.75303 8.1799 0.291534 7.64605 0.291534 7.64605C0.291534 7.64605 -0.710577 6.97878 1.00145 6.26699Z" fill="white"/>
</svg>
