<svg width="19" height="12" viewBox="0 0 19 12" fill="none" xmlns="http://www.w3.org/2000/svg">
<path fill-rule="evenodd" clip-rule="evenodd" d="M18.454 0.752922C18.5869 0.310027 18.454 0 17.8339 0H15.7671C15.2356 0 14.9994 0.280501 14.8665 0.590527C14.8665 0.590527 13.8183 3.15932 12.3273 4.8128C11.8401 5.29998 11.6334 5.44762 11.3677 5.44762C11.2348 5.44762 11.0429 5.29998 11.0429 4.85709V0.752922C11.0429 0.221448 10.8952 0 10.4523 0H7.20444C6.87965 0 6.67296 0.250974 6.67296 0.472422C6.67296 0.97437 7.41112 1.09248 7.4997 2.48022V5.52143C7.4997 6.18578 7.38159 6.30388 7.11586 6.30388C6.42199 6.30388 4.70946 3.73509 3.70556 0.782449C3.49888 0.236211 3.30695 0 2.77548 0H0.708633C0.118105 0 0 0.280501 0 0.590527C0 1.13677 0.69387 3.85319 3.26266 7.44065C4.97519 9.89134 7.38159 11.22 9.56655 11.22C10.8805 11.22 11.0429 10.9248 11.0429 10.4228V8.56265C11.0429 7.97212 11.161 7.85402 11.5891 7.85402C11.8991 7.85402 12.4158 8.00165 13.6412 9.1827C15.0437 10.5852 15.2799 11.22 16.0623 11.22H18.1292C18.7197 11.22 19.015 10.9248 18.8378 10.349C18.6459 9.77323 17.9816 8.93173 17.0958 7.92783C16.6086 7.35207 15.8852 6.74678 15.6785 6.43675C15.3685 6.03814 15.4571 5.86099 15.6785 5.52143C15.6785 5.50667 18.203 1.9635 18.454 0.752922Z" fill="white"/>
</svg>
