<svg width="17" height="18" viewBox="0 0 17 18" fill="none" xmlns="http://www.w3.org/2000/svg">
<path d="M0.686867 16.6547C0.650067 16.8106 0.695842 16.9755 0.813419 17.0884C0.900482 17.1735 1.01537 17.2192 1.13473 17.2192C1.17422 17.2192 1.21282 17.2147 1.24962 17.2057L4.98798 16.2353C6.0704 16.738 7.22555 16.9925 8.42994 16.9925C12.9401 16.9925 16.6102 13.3294 16.6102 8.82583C16.6102 4.32318 12.9385 0.65918 8.42833 0.65918C3.91817 0.65918 0.248047 4.32318 0.248047 8.82583C0.248047 10.3813 0.684242 11.8859 1.51447 13.1913L0.686867 16.6547ZM4.79309 5.1899L5.38546 4.62808C5.61074 4.41482 5.96706 4.42378 6.18067 4.64869L7.51532 6.05279C7.72893 6.2777 7.71996 6.63342 7.49467 6.84668L6.91126 7.40223C6.91126 7.40223 6.13937 7.86548 7.75675 9.4255L7.82317 9.49629C9.30052 11.1889 9.80404 10.4434 9.80404 10.4434L10.3874 9.88785C10.6127 9.67459 10.969 9.68355 11.1827 9.90846L12.4949 11.2875C12.7085 11.5124 12.6995 11.8681 12.4742 12.0814L11.8818 12.6432C11.4295 13.0724 10.7949 13.2695 10.1837 13.1432C9.35437 12.9738 8.11308 12.386 6.44718 10.7318C6.47949 10.7686 6.5118 10.8026 6.54411 10.8421L6.34217 10.6306C6.37627 10.6673 6.41128 10.6996 6.44538 10.7336C4.87649 8.98993 4.35231 7.72201 4.22576 6.88681C4.136 6.26586 4.34072 5.6191 4.79309 5.1899Z" fill="white"/>
</svg>
