<svg width="19" height="23" viewBox="0 0 19 23" fill="none" xmlns="http://www.w3.org/2000/svg">
<path d="M7.48574 0.360352H6.22959L5.3782 3.60695L4.4989 0.360352H3.21484L4.0104 2.65944C4.31322 3.49688 4.56033 4.35335 4.75013 5.22328V8.56742H6.00628V5.22328L7.48574 0.360352ZM10.8075 6.61667V4.48479C10.8358 3.99572 10.714 3.50967 10.4586 3.0914C10.3032 2.8943 10.105 2.73498 9.87893 2.62543C9.65288 2.51588 9.40489 2.45897 9.15362 2.45897C8.90234 2.45897 8.65435 2.51588 8.4283 2.62543C8.20226 2.73498 8.00405 2.8943 7.84862 3.0914C7.59236 3.50933 7.47058 3.99563 7.49969 4.48479V6.61667C7.46967 7.10591 7.59152 7.59248 7.84862 8.01006C8.00405 8.20716 8.20226 8.36648 8.4283 8.47603C8.65435 8.58557 8.90234 8.64249 9.15362 8.64249C9.40489 8.64249 9.65288 8.58557 9.87893 8.47603C10.105 8.36648 10.3032 8.20716 10.4586 8.01006C10.714 7.59178 10.8358 7.10574 10.8075 6.61667ZM9.69097 6.82568C9.69097 7.39697 9.52348 7.67565 9.16059 7.67565C8.79771 7.67565 8.63022 7.39697 8.63022 6.82568V4.26184C8.63022 3.69055 8.79771 3.41188 9.16059 3.41188C9.52348 3.41188 9.69097 3.69055 9.69097 4.26184V6.82568ZM14.9528 8.60922V2.4365H13.8362V7.14616C13.585 7.49451 13.3477 7.67565 13.1244 7.67565C12.9011 7.67565 12.8872 7.59204 12.8592 7.4109C12.8473 7.26717 12.8473 7.12269 12.8592 6.97895V2.4365H11.7427V7.31337C11.7293 7.62306 11.7622 7.933 11.8404 8.233C11.8904 8.38095 11.9898 8.5073 12.1219 8.59097C12.2539 8.67465 12.4107 8.7106 12.5661 8.69282C12.8111 8.67072 13.049 8.59874 13.265 8.48131C13.4811 8.36388 13.6707 8.2035 13.8223 8.01006V8.67889L14.9528 8.60922ZM11.4356 14.8516C11.3296 14.8563 11.2255 14.8822 11.1297 14.9276C11.0338 14.9731 10.948 15.0373 10.8773 15.1164V18.8367C10.9475 18.9164 11.0332 18.981 11.1291 19.0265C11.2251 19.072 11.3294 19.0975 11.4356 19.1014C11.7566 19.1014 11.9102 18.8367 11.9102 18.2793V15.6737C11.9102 15.1303 11.7566 14.8516 11.4356 14.8516ZM15.539 14.8516C15.1622 14.8516 14.9807 15.1303 14.9807 15.7016V16.2589H16.0833V15.7016C16.0973 15.1303 15.9019 14.8516 15.539 14.8516Z" fill="white"/>
<path d="M18.2504 11.7403C18.1489 11.2718 17.9033 10.8467 17.548 10.5244C17.1926 10.2021 16.7453 9.99878 16.2685 9.9428C13.9906 9.73183 11.7027 9.6481 9.4155 9.69199C7.12828 9.6481 4.84039 9.73183 2.56253 9.9428C2.08322 9.99604 1.63275 10.1982 1.27466 10.5207C0.916567 10.8432 0.668925 11.2698 0.566661 11.7403C0.300177 13.1638 0.192514 14.6125 0.245646 16.0598C0.192399 17.507 0.300063 18.9557 0.566661 20.3793C0.670032 20.8468 0.916195 21.2708 1.27119 21.5928C1.62618 21.9147 2.0725 22.1188 2.54858 22.1768C4.83111 22.3876 7.12364 22.4714 9.4155 22.4276C11.7027 22.4708 13.9906 22.3871 16.2685 22.1768C16.7445 22.1188 17.1909 21.9147 17.5459 21.5928C17.9008 21.2708 18.147 20.8468 18.2504 20.3793C18.5169 18.9557 18.6245 17.507 18.5714 16.0598C18.6245 14.6125 18.5169 13.1638 18.2504 11.7403ZM5.47958 12.9804H4.08386V19.9473H2.91146V12.9804H1.61345V11.8239H5.47958V12.9804ZM8.8293 19.9473H7.72668V19.2785C7.58161 19.4877 7.39305 19.6632 7.17387 19.7931C6.95468 19.9229 6.71003 20.0041 6.45658 20.0309C6.30342 20.0454 6.14985 20.0079 6.02069 19.9244C5.89153 19.841 5.79432 19.7165 5.74477 19.5711C5.66741 19.2757 5.63448 18.9705 5.64707 18.6654V13.9279H6.74968V18.4146C6.73982 18.5584 6.73982 18.7027 6.74968 18.8466C6.74968 19.0138 6.86134 19.1113 7.01487 19.1113C7.1684 19.1113 7.47546 18.9441 7.71273 18.5957V13.9279H8.80138L8.8293 19.9473ZM13.0164 18.122C13.0311 18.5338 12.9936 18.9458 12.9048 19.3482C12.8597 19.5458 12.7475 19.7218 12.5873 19.8463C12.427 19.9708 12.2285 20.036 12.0255 20.0309C11.7963 20.0139 11.574 19.9448 11.3756 19.8289C11.1772 19.713 11.0081 19.5533 10.881 19.3621V19.9473H9.77839V11.8378H10.881V14.5131C11.0088 14.3238 11.1785 14.1662 11.3769 14.0527C11.5753 13.9391 11.7972 13.8726 12.0255 13.8582C12.2285 13.8532 12.427 13.9184 12.5873 14.0429C12.7475 14.1673 12.8597 14.3433 12.9048 14.541C12.9953 14.9431 13.0328 15.3553 13.0164 15.7672V18.122ZM17.2036 17.1048H14.9984V18.1917C14.9984 18.763 15.1798 19.0416 15.5567 19.0416C15.6802 19.0455 15.8004 19.001 15.8916 18.9178C15.9829 18.8345 16.0379 18.7189 16.0452 18.5957C16.059 18.3451 16.059 18.0939 16.0452 17.8433H17.1757V18.7212C17.1449 18.9605 17.0589 19.1894 16.9245 19.39C16.7703 19.6123 16.5601 19.7901 16.3149 19.9051C16.0698 20.0201 15.7986 20.0683 15.5287 20.0449C15.2621 20.0659 14.9944 20.0195 14.7504 19.9099C14.5064 19.8003 14.2941 19.6311 14.133 19.4178C13.8751 19.0006 13.7532 18.5138 13.7841 18.0245V15.9065C13.7532 15.4172 13.8751 14.9303 14.133 14.5131C14.2932 14.2989 14.5054 14.129 14.7496 14.0193C14.9938 13.9096 15.2619 13.8637 15.5287 13.8861C15.7823 13.8742 16.0349 13.9252 16.2638 14.0346C16.4928 14.1441 16.691 14.3085 16.8407 14.5131C17.0961 14.9314 17.2179 15.4174 17.1896 15.9065L17.2036 17.1048Z" fill="white"/>
</svg>
