<svg width="136" height="136" viewBox="0 0 136 136" fill="none" xmlns="http://www.w3.org/2000/svg">
<path d="M23.1893 54.5225C22.2523 54.2455 21.2649 54.78 21.0225 55.7265C18.6588 64.9581 19.0846 74.6985 22.2677 83.7087C25.6475 93.2757 31.9631 101.531 40.3131 107.295C48.663 113.06 58.6206 116.039 68.7645 115.808C78.9084 115.578 88.7201 112.148 96.7993 106.01C104.878 99.8714 110.812 91.3378 113.753 81.6269C116.694 71.9159 116.492 61.5241 113.177 51.9347C109.861 42.3452 103.601 34.0482 95.2896 28.228C87.4621 22.7465 78.1922 19.7257 68.6648 19.5287C67.688 19.5085 66.9084 20.3166 66.9241 21.2936L67.0314 27.9705C67.0471 28.9474 67.8522 29.7223 68.8288 29.7522C76.2028 29.9776 83.3655 32.3496 89.4294 36.5961C95.9773 41.1815 100.909 47.7182 103.522 55.2731C106.134 62.828 106.293 71.015 103.976 78.6656C101.658 86.3162 96.9838 93.0393 90.6188 97.8753C84.2538 102.711 76.5238 105.413 68.5321 105.595C60.5404 105.777 52.6955 103.429 46.1171 98.888C39.5387 94.3465 34.563 87.843 31.9003 80.3057C29.4344 73.3255 29.0689 65.7891 30.828 58.6246C31.061 57.6757 30.5302 56.6923 29.5932 56.4153L23.1893 54.5225Z" fill="url(#paint0_linear_1905_1716)"/>
<path d="M37.5054 81.9628C36.6288 82.3943 36.264 83.4572 36.7392 84.3109C39.4728 89.2213 43.3543 93.4089 48.0624 96.5095C53.2638 99.9349 59.2855 101.909 65.5054 102.229C71.7252 102.549 77.9175 101.202 83.4426 98.3272C88.9677 95.4528 93.6251 91.1554 96.9337 85.8788C100.242 80.6022 102.082 74.538 102.263 68.3126C102.443 62.0872 100.958 55.9264 97.9615 50.4668C94.9646 45.0072 90.5643 40.4469 85.2152 37.2569C80.3734 34.3695 74.9133 32.6996 69.3025 32.3779C68.327 32.322 67.5291 33.1134 67.5226 34.0904L67.4776 40.7993C67.4711 41.7763 68.2589 42.5671 69.233 42.6435C73.0179 42.9402 76.6922 44.1053 79.9666 46.058C83.7485 48.3134 86.8597 51.5377 88.9786 55.3978C91.0975 59.2579 92.1473 63.6137 92.0196 68.0153C91.8918 72.4168 90.5911 76.7044 88.2519 80.4351C85.9127 84.1658 82.6197 87.2042 78.7133 89.2365C74.8069 91.2688 70.4287 92.2211 66.0311 91.9952C61.6335 91.7692 57.376 90.3732 53.6984 87.9513C50.5145 85.8545 47.8652 83.0546 45.9494 79.7768C45.4564 78.9332 44.4014 78.5685 43.5248 79L37.5054 81.9628Z" fill="url(#paint1_linear_1905_1716)"/>
<path d="M67.8743 87.3488C67.8816 88.3258 68.6809 89.1194 69.6541 89.0327C71.8999 88.8325 74.1045 88.2835 76.1876 87.4024C78.8149 86.2911 81.1975 84.6733 83.1995 82.6412C85.2015 80.6091 86.7837 78.2026 87.8556 75.5591C88.9276 72.9156 89.4684 70.0868 89.4471 67.2343C89.4258 64.3817 88.8429 61.5613 87.7317 58.9341C86.6204 56.3068 85.0025 53.9242 82.9705 51.9222C80.9384 49.9202 78.5319 48.3381 75.8884 47.2661C73.7923 46.4161 71.5797 45.9001 69.3312 45.7334C68.3568 45.6612 67.5694 46.4667 67.5767 47.4437L67.6212 53.409C67.6285 54.386 68.4304 55.159 69.3983 55.2928C70.3975 55.4309 71.378 55.6925 72.317 56.0732C73.804 56.6762 75.1576 57.5661 76.3006 58.6922C77.4437 59.8184 78.3537 61.1586 78.9788 62.6364C79.6038 64.1142 79.9317 65.7006 79.9437 67.3051C79.9556 68.9096 79.6515 70.5008 79.0485 71.9878C78.4455 73.4747 77.5556 74.8283 76.4295 75.9714C75.3034 77.1144 73.9632 78.0244 72.4854 78.6495C71.5522 79.0442 70.5756 79.3204 69.5786 79.4734C68.6128 79.6216 67.8225 80.4065 67.8298 81.3835L67.8743 87.3488Z" fill="url(#paint2_linear_1905_1716)"/>
<defs>
<linearGradient id="paint0_linear_1905_1716" x1="166.295" y1="-14.5952" x2="194.539" y2="180.992" gradientUnits="userSpaceOnUse">
<stop stop-color="#4314E9"/>
<stop offset="0.755" stop-color="#595CFF"/>
</linearGradient>
<linearGradient id="paint1_linear_1905_1716" x1="-277.483" y1="138.807" x2="83.269" y2="471.231" gradientUnits="userSpaceOnUse">
<stop stop-color="#5C78FA"/>
<stop offset="0.15" stop-color="#3A2DDE"/>
<stop offset="0.33" stop-color="#7413BD"/>
<stop offset="0.5" stop-color="#A72579"/>
<stop offset="0.67" stop-color="#C95453"/>
<stop offset="0.83" stop-color="#B16E5C"/>
<stop offset="1" stop-color="#E0966D"/>
</linearGradient>
<linearGradient id="paint2_linear_1905_1716" x1="-214.436" y1="37.6256" x2="-130.486" y2="225.399" gradientUnits="userSpaceOnUse">
<stop stop-color="#5C78FA"/>
<stop offset="0.15" stop-color="#3A2DDE"/>
<stop offset="0.33" stop-color="#7413BD"/>
<stop offset="0.5" stop-color="#A72579"/>
<stop offset="0.67" stop-color="#C95453"/>
<stop offset="0.83" stop-color="#B16E5C"/>
<stop offset="1" stop-color="#E0966D"/>
</linearGradient>
</defs>
</svg>
