<svg width="45" height="45" viewBox="0 0 45 45" fill="none" xmlns="http://www.w3.org/2000/svg">
<rect width="45" height="45" rx="22.5" fill="white"/>
<path fill-rule="evenodd" clip-rule="evenodd" d="M27.1659 17.9024C26.7709 17.5204 26.2029 17.5291 25.877 17.6401C26.0905 17.3509 26.5877 17.1137 26.7343 17.0849C26.8459 17.1311 27.1659 17.4939 27.1659 17.9024ZM28.4269 16.3205C28.1672 14.7877 24.9382 15.8033 23.312 15.1522C23.2809 15.5991 23.8126 16.3151 24.3213 16.5801C23.4518 17.4125 22.6712 19.0899 22.5137 21.1391C22.3567 19.0899 21.576 17.4125 20.7066 16.5801C21.2152 16.3151 21.7474 15.5991 21.7158 15.1522C20.0897 15.8033 16.8606 14.7877 16.6004 16.3205C16.5457 16.6449 16.6872 17.1393 16.8401 17.2814C16.8674 17.1786 17.0101 16.8423 17.4602 16.7669C19.7352 16.3877 21.6345 20.2559 19.9201 21.8199C19.894 21.8437 19.9086 21.8876 19.944 21.8876H25.0842C25.1191 21.8876 25.1339 21.8437 25.1082 21.8199C23.3932 20.2559 25.2926 16.3877 27.5675 16.7669C28.0181 16.8423 28.1603 17.1786 28.1878 17.2814C28.3406 17.1393 28.4821 16.645 28.4269 16.3205ZM28.9802 12.8023C28.9394 12.6575 30.2733 12.6539 30.2733 13.5749C30.2733 14.1923 29.4754 14.4847 29.4754 15.1253C29.4754 15.4236 29.7663 15.6425 29.8556 15.6425C29.6501 14.614 30.4999 15.1522 30.7293 15.3446C30.2733 13.9615 31.2999 13.9702 31.1988 13.336C31.1285 12.8928 30.2363 13.0267 29.9133 12.8023C29.3403 12.4044 28.6624 10.8559 28.2156 12.4044C29.0485 13.2575 28.5639 14.513 27.5066 14.513C27.5066 14.513 27.5007 14.6971 27.5104 14.7117C28.7714 14.6436 29.211 13.6211 28.9802 12.8023ZM14.2678 15.3446C14.4973 15.1522 15.347 14.614 15.142 15.6425C15.2308 15.6425 15.5217 15.4236 15.5217 15.1253C15.5217 14.4847 14.7238 14.1923 14.7238 13.5749C14.7238 12.6538 16.0577 12.6575 16.0169 12.8023C15.7865 13.6211 16.2262 14.6437 17.4872 14.7117C17.4964 14.6971 17.4906 14.513 17.4906 14.513C16.4337 14.513 15.9491 13.2574 16.7815 12.4044C16.3347 10.8559 15.6569 12.4044 15.0838 12.8023C14.7609 13.0267 13.8687 12.8928 13.7984 13.336C13.6977 13.9702 14.7238 13.9615 14.2678 15.3446ZM17.8484 17.9024C18.2438 17.5203 18.8118 17.5291 19.1373 17.6401C18.9247 17.3508 18.4266 17.1137 18.2805 17.0849C18.1689 17.131 17.8484 17.4939 17.8484 17.9024ZM23.1137 9.32747L22.4985 8.5L21.8834 9.32747L22.4986 10.1983L23.1137 9.32747ZM26.6253 11.8296L26.1878 11.2415L25.7508 11.8296L26.1878 12.4043L26.6253 11.8296ZM30.1735 28.8275L29.619 28.18L29.0644 28.8275L29.619 29.3954L30.1735 28.8275ZM19.2468 11.8295L18.8092 11.2414L18.3722 11.8295L18.8092 12.4043L19.2468 11.8295ZM17.9937 14.7116H19.6253C20.997 14.7116 21.6143 13.7828 21.8008 12.9772H23.1966C23.3832 13.7828 24 14.7117 25.3722 14.7117H27.0038C27.0038 14.7117 27.2892 14.2845 27.3608 14.073C27.6185 13.3117 27.2892 12.9567 26.8088 12.9567L26.1878 13.5776L25.5667 12.9567C25.0863 12.9567 24.757 13.3117 25.0147 14.073C25.0476 14.1703 25.1263 14.3133 25.2008 14.4389C24.6219 14.3512 23.8829 13.914 23.7208 12.9772C23.7208 12.9772 24.1486 12.2275 24.256 11.9241C24.6417 10.833 24.149 10.387 23.4286 10.387L22.4985 11.5933L21.5685 10.387C20.848 10.387 20.3554 10.833 20.7415 11.9241C20.8485 12.2275 21.2767 12.9773 21.2767 12.9773C21.1142 13.914 20.3752 14.3512 19.7963 14.4389C19.8712 14.3133 19.9495 14.1703 19.9824 14.073C20.2396 13.3118 19.9112 12.9567 19.4303 12.9567L18.8093 13.5777L18.1883 12.9567C17.7075 12.9567 17.379 13.3118 17.6363 14.073C17.7079 14.2845 17.9937 14.7116 17.9937 14.7116ZM34.8623 20.2915C34.5473 20.4674 32.6998 21.4223 30.333 21.0691C30.3575 20.9445 30.3783 20.8191 30.3953 20.6931C31.9705 20.4852 33.2509 20.1905 34.0669 19.6897C34.997 19.1186 35.4038 17.7552 34.9343 16.7408C34.9221 16.7152 34.8884 16.7107 34.8716 16.7321C34.6144 17.0588 32.9966 19.0002 30.448 19.6038C30.4415 19.4582 30.4294 19.3129 30.4118 19.1684C31.6496 18.3939 32.8581 17.5015 33.4337 16.6855C34.3036 15.4518 34.2236 13.8782 33.3958 13.0759C33.3872 13.0677 33.3759 13.0641 33.3647 13.0658C33.3535 13.0676 33.3435 13.0746 33.3373 13.085C33.0754 13.5616 30.6241 17.9328 27.9327 19.8199C27.8998 19.843 27.8667 19.8657 27.8334 19.888C27.7563 19.9396 27.7479 20.0502 27.8136 20.1159C28.1238 20.4262 28.3167 20.858 28.3167 21.3373C28.3167 22.1707 27.7344 22.8638 26.9647 23.0141C26.5735 23.0977 26.0089 23.0735 25.4665 22.8757C25.4421 22.867 25.4169 22.8848 25.4169 22.9118V25.5514C25.4169 25.5938 25.4754 25.6043 25.4893 25.5636C25.8189 24.6001 26.8059 24.3953 27.2375 24.3953C27.3929 25.4252 27.6703 26.2783 28.0307 26.7375C28.6176 27.4836 29.576 27.4731 29.9916 26.9572C29.9984 26.9487 30.0014 26.9372 29.9996 26.9259C29.9978 26.9147 29.9914 26.905 29.9823 26.8996C29.7381 26.7448 28.341 25.7985 28.0614 24.2478C28.1718 24.2057 28.2795 24.1582 28.3827 24.1019C28.8337 24.9254 29.4901 25.6587 30.0185 25.9388C30.9061 26.4085 31.7187 26.18 32.0791 25.4924C32.0922 25.4682 32.0762 25.438 32.0496 25.4353C31.5006 25.3868 29.8156 24.8541 29.0981 23.556C29.1802 23.4728 29.2606 23.386 29.3356 23.2937C30.0863 23.9242 31.1478 24.4816 31.9078 24.5954C32.797 24.7288 33.8046 24.4159 33.8291 23.275C33.8295 23.2521 33.811 23.2334 33.7891 23.2348C33.4728 23.2558 31.3798 23.3563 29.8884 22.4118C29.9402 22.3032 29.9885 22.1925 30.0333 22.0801C30.0333 22.0801 32.2868 22.6678 33.3545 22.473C34.4156 22.2798 35.0371 21.4071 34.9171 20.3215C34.9137 20.2945 34.885 20.2787 34.8623 20.2915ZM14.9638 22.0802C15.0086 22.1927 15.0571 22.3033 15.109 22.412C13.6181 23.356 11.5259 23.2563 11.2084 23.2349C11.1861 23.2335 11.1676 23.2531 11.168 23.2755C11.1929 24.416 12.2001 24.7289 13.0893 24.5956C13.8489 24.4818 14.9108 23.9243 15.6615 23.2938C15.7369 23.3861 15.8169 23.4729 15.8989 23.5561C15.1811 24.8541 13.4965 25.3869 12.9474 25.4353C12.9209 25.438 12.9053 25.4682 12.9179 25.4924C13.2784 26.1801 14.091 26.4085 14.979 25.9388C15.507 25.6587 16.1634 24.9254 16.6144 24.1021C16.7179 24.1582 16.8257 24.2058 16.9356 24.2478C16.656 25.7986 15.259 26.7448 15.0148 26.8996C15.0057 26.9051 14.9995 26.9148 14.9977 26.926C14.9959 26.9372 14.9987 26.9487 15.0055 26.9573C15.4211 27.4732 16.3799 27.4836 16.9667 26.7375C17.3272 26.2783 17.6042 25.4252 17.7596 24.3954C18.1916 24.3954 19.1781 24.6001 19.5078 25.5637C19.5221 25.6044 19.5806 25.5938 19.5806 25.5514V22.9118C19.5806 22.8848 19.5549 22.867 19.5305 22.8757C18.9882 23.0735 18.4236 23.0978 18.0329 23.0141C17.2628 22.8638 16.6805 22.1707 16.6805 21.3373C16.6805 20.8579 16.8737 20.4257 17.1836 20.1155C17.2497 20.0501 17.2408 19.9395 17.1642 19.8879C17.1305 19.8657 17.0971 19.843 17.064 19.8198C14.3743 17.9337 11.9242 13.5657 11.6602 13.0859C11.6479 13.0635 11.6185 13.0589 11.6004 13.0763C10.7738 13.8791 10.6934 15.4522 11.5633 16.6854C12.1389 17.5014 13.3473 18.3938 14.5848 19.1683C14.5673 19.3128 14.5554 19.458 14.549 19.6037C12.0025 19.0006 10.3861 17.0623 10.1263 16.7333C10.109 16.711 10.0744 16.7155 10.0627 16.7411C9.59414 17.7559 10.0008 19.1184 10.9301 19.6896C11.7461 20.1903 13.0265 20.485 14.6017 20.6929C14.6187 20.819 14.6395 20.9444 14.664 21.069C12.2998 21.4217 10.453 20.4691 10.1356 20.2918C10.112 20.2785 10.0833 20.295 10.0804 20.3224C9.9609 21.408 10.5819 22.2798 11.6429 22.473C12.7103 22.6678 14.9638 22.0802 14.9638 22.0802ZM29.6189 30.2292L28.7979 29.5165C28.4703 29.7317 28.2294 30.0736 28.136 30.4742C27.6421 30.5505 26.2955 30.2206 26.4264 30.0018C27.9023 27.7117 26.7734 26.3483 25.4168 26.4242V27.9622C25.4168 28.4561 25.0261 28.8563 24.5448 28.8563H23.608C22.936 28.8563 22.4985 29.6016 22.4985 29.6016C22.4985 29.6016 22.0611 28.8563 21.3891 28.8563H20.4522C19.9706 28.8563 19.5807 28.4561 19.5807 27.9622V26.4242C18.2241 26.3484 17.0943 27.7118 18.5706 30.0019C18.7003 30.2184 17.3163 30.5652 16.667 30.4775C16.4961 30.2819 16.2493 30.1586 15.9731 30.1586C15.8557 30.1586 15.7392 30.1817 15.6291 30.2267C15.6291 30.2267 13.078 27.562 13.0312 27.5359L13.0523 27.482C13.1975 27.1823 12.9752 26.8556 12.8346 26.8784C12.998 26.6623 13.0056 25.716 12.0995 25.4972C12.126 25.6872 12.1394 26.0752 12.1394 26.0752C12.1394 26.0752 11.4401 25.658 11.0889 26.018C10.7803 26.4211 11.2086 27.1521 11.2086 27.1521C11.2086 27.1521 10.8507 27.1617 10.6742 27.1452C10.9336 28.113 11.8035 28.0444 11.9917 27.8535C11.9795 28.0074 12.2941 28.2267 12.5606 28.0508L12.6776 27.9882C12.6983 28.0188 15.1829 30.6086 15.1829 30.6086C15.0688 30.7955 15.0145 31.0249 15.0519 31.2693C15.1109 31.6513 15.3994 31.968 15.7678 32.0502C16.0279 32.1078 16.2726 32.052 16.4688 31.9254L17.1265 32.599C17.185 32.6575 17.2642 32.694 17.3526 32.6871C17.5134 32.6752 17.6338 32.5313 17.6217 32.3664C17.6166 32.2919 17.5821 32.228 17.5345 32.1795C17.524 32.1667 16.8646 31.4914 16.8646 31.4914C17.4085 31.0705 18.422 30.7741 19.2633 30.7741C19.4111 30.7741 19.4805 30.6361 19.4296 30.5008C19.0485 29.4896 19.8679 28.7572 20.7155 29.3535C21.0852 29.6135 21.4608 30.1257 21.7437 30.9801C20.353 31.3516 18.6069 32.375 18.2536 33.4922C18.1176 33.9236 18.5669 34.5116 19.1126 34.63C19.1222 34.6323 19.1323 34.6303 19.1406 34.6244C19.1489 34.6184 19.1548 34.6091 19.1568 34.5984C19.4418 32.9306 21.0675 31.6878 21.9134 31.4767C21.956 31.6024 21.942 31.5617 21.9846 31.6869C21.0633 32.1676 20.1698 33.1814 19.9147 34.3867C19.7976 34.9387 20.3555 35.4363 20.8161 35.5725C20.8393 35.5793 20.862 35.5615 20.8633 35.5368C20.9509 34.0126 21.561 32.7181 22.1075 32.1292C22.1224 32.2443 22.1337 32.36 22.1412 32.476C22.1412 32.476 21.5816 34.1963 21.5816 35.4514C21.5816 36.0353 22.3681 36.4429 22.4844 36.5C22.6296 36.4429 23.4157 36.0353 23.4157 35.4514C23.4157 34.1962 22.8562 32.476 22.8562 32.476C22.8638 32.36 22.8752 32.2443 22.8903 32.1292C23.4364 32.7181 24.0469 34.0121 24.134 35.5363C24.1353 35.561 24.1585 35.5793 24.1811 35.5725C24.6422 35.4363 25.1997 34.9388 25.0831 34.3868C24.8274 33.1815 23.9344 32.1676 23.0131 31.687C23.0552 31.5618 23.0414 31.6024 23.0839 31.4767C23.9302 31.6878 25.5555 32.9306 25.8405 34.5984C25.8426 34.609 25.8484 34.6183 25.8567 34.6243C25.865 34.6302 25.8751 34.6322 25.8848 34.6299C26.43 34.5116 26.8801 33.9235 26.7433 33.4923C26.3909 32.375 24.6443 31.3517 23.2536 30.9801C23.537 30.1257 23.9125 29.6135 24.2822 29.3535C25.1294 28.7573 25.9487 29.4897 25.5677 30.5009C25.5167 30.6361 25.5858 30.7741 25.734 30.7741C26.6855 30.7741 27.8577 31.1533 28.3217 31.6619C28.6182 32.1526 29.1659 32.4665 29.7841 32.3993C30.4864 32.3235 31.059 31.7413 31.1382 31.0217C31.2072 30.3912 30.9116 29.8251 30.4405 29.5166L29.6189 30.2292ZM23.5671 25.6359C23.8598 25.5163 24.3183 25.6131 24.3027 26.0791C24.2989 26.1846 24.4333 26.1846 24.443 26.0768C24.5305 25.3791 24.1031 25.1781 23.656 25.2599C23.6004 25.02 23.555 24.8103 23.5032 24.6024C23.4619 24.4343 23.4467 24.1185 23.6232 24.1185C23.7184 24.1185 23.6801 24.4123 23.6712 24.5388C23.6632 24.6499 23.6994 24.7171 23.7811 24.7202C23.8321 24.7225 23.8957 24.6508 23.9336 24.6032C24.1896 24.2839 24.249 23.7895 23.9492 23.5511C23.6983 23.3509 23.07 23.4999 22.8973 23.7849C22.8713 23.6775 22.7466 23.5003 22.6868 23.423C22.6287 23.3477 22.6136 23.2961 22.694 23.2298C22.7319 23.1978 22.8464 23.0722 22.8464 22.9424C22.8464 22.8657 22.7925 22.724 22.6212 22.724C22.486 22.724 22.3357 22.8273 22.3357 23.0575C22.3357 23.1088 22.3471 23.1636 22.3769 23.2226C22.2915 23.207 22.0595 23.2134 21.9403 23.2458L23.5879 28.2339C24.0595 27.9771 24.4052 27.5705 24.4052 27.1342C24.4052 26.7622 23.9087 26.8856 23.6674 27.1757C23.59 26.7042 23.5209 26.2688 23.4456 25.8347C23.425 25.715 23.48 25.672 23.5671 25.6359ZM21.2375 22.2475L21.5836 23.3085C21.2872 23.3862 20.8106 23.6246 20.8106 23.9403C20.8106 24.3608 21.4846 24.6344 21.8746 24.6015C21.8552 24.6975 21.8775 24.7829 21.9381 24.861C21.7967 24.861 21.5298 24.9336 21.4421 25.0378C21.2354 24.8254 20.912 24.7481 20.7583 24.8775C20.6038 25.0077 20.5992 25.2284 20.7605 25.4779C20.8728 25.6506 20.915 25.821 20.7887 26.0211C21.2586 26.0211 21.0855 25.3472 21.2695 25.3472C21.2455 25.4779 21.2602 25.6291 21.3137 25.7968C21.3491 25.9082 21.3491 25.9873 21.2885 26.0947C21.1369 26.362 20.9011 26.9761 20.9331 27.5312C20.779 27.5303 20.7007 27.4886 20.755 27.2566C20.7752 27.1702 20.7268 27.1085 20.6628 27.215C20.5921 27.3324 20.558 27.533 20.558 27.6188C20.558 28.1133 21.0918 28.2129 21.2956 28.1083C21.8851 28.7376 23.043 28.5697 23.4308 28.3586L21.3921 22.1871C21.3504 22.0706 21.2009 22.1264 21.2375 22.2475ZM21.1667 27.3311C21.1246 27.077 21.445 26.6229 21.8526 26.1847C21.7659 26.4702 21.8198 26.9623 21.9899 27.1319C21.6943 27.1319 21.3431 27.1931 21.1667 27.3311Z" fill="#0F0F0F"/>
</svg>
