<svg width="14" height="14" viewBox="0 0 14 14" fill="none" xmlns="http://www.w3.org/2000/svg">
<path d="M13.9682 3.23248C13.9154 2.81555 13.7877 2.42354 13.6023 2.04854C13.4218 1.6845 13.1866 1.35933 12.8991 1.0743C12.6159 0.792898 12.2938 0.563779 11.9328 0.386299C11.5456 0.194847 11.139 0.0702678 10.7099 0.0240736C10.0906 -0.0446047 9.49195 0.0331901 8.91145 0.26354C8.42887 0.454991 8.00768 0.73516 7.6418 1.0974C7.03158 1.70273 6.42503 2.31233 5.81671 2.92074C5.7687 2.96875 5.7219 3.02041 5.66902 3.07633H5.72798C5.91943 3.06053 6.11087 3.04047 6.30354 3.02953C6.57764 3.01555 6.84993 3.04169 7.12039 3.08727C7.42367 3.13711 7.72088 3.21186 8.00714 3.32977C8.03996 3.34375 8.05698 3.33281 8.07703 3.31093C8.21378 3.1675 8.34932 3.02468 8.4891 2.88488C8.64773 2.72444 8.8094 2.56885 8.96803 2.409C9.15036 2.22363 9.36004 2.0808 9.60254 1.98903C9.94959 1.85654 10.3045 1.82251 10.6698 1.9003C11.1275 1.99815 11.4927 2.24126 11.7729 2.60957C12.0513 2.97666 12.168 3.39845 12.1321 3.85913C12.095 4.33805 11.8926 4.73796 11.5505 5.07588C10.7288 5.88968 9.91365 6.70769 9.09804 7.5264C8.94731 7.67712 8.79476 7.82542 8.60939 7.93542C8.35716 8.08615 8.08366 8.17366 7.79253 8.19373C7.42058 8.22047 7.06745 8.14086 6.74229 7.95731C6.34116 7.73001 6.06706 7.39695 5.91754 6.95996C5.9066 6.92896 5.89079 6.89918 5.87074 6.85421C5.782 6.92593 5.6963 6.98306 5.6252 7.05478C5.25628 7.41882 4.89099 7.78592 4.52512 8.1518C4.51114 8.16578 4.49108 8.17976 4.48622 8.1986C4.48014 8.22048 4.47711 8.24844 4.48622 8.26728C4.50628 8.308 4.53728 8.34325 4.56219 8.38397C4.80955 8.78388 5.12985 9.11816 5.51762 9.38436C5.98439 9.70465 6.49492 9.92101 7.05956 10.0116C7.3519 10.0584 7.64485 10.0723 7.9384 10.0505C8.3365 10.0207 8.72244 9.92891 9.08953 9.77333C9.46453 9.61592 9.80974 9.40744 10.1088 9.1291C10.3312 8.92246 10.5476 8.70731 10.7621 8.49277C11.4283 7.82849 12.0907 7.16115 12.7599 6.49984C13.048 6.21541 13.3124 5.91456 13.5111 5.56145C13.7306 5.17248 13.8861 4.76042 13.953 4.31675C14.0077 3.95755 14.015 3.59472 13.9688 3.23248L13.9682 3.23248Z" fill="white"/>
<path d="M8.16549 10.9412C7.90902 10.9631 7.65192 10.9783 7.39362 10.9631C6.93597 10.9382 6.49107 10.8555 6.06198 10.6926C5.9933 10.6659 5.95318 10.6708 5.89727 10.7285C5.6341 11.0026 5.36364 11.27 5.09439 11.5374C4.92299 11.7088 4.73519 11.8577 4.51274 11.9592C4.03806 12.1737 3.55427 12.1987 3.0644 12.0182C2.61768 11.8535 2.28341 11.5544 2.06521 11.1326C1.87984 10.7735 1.8148 10.3887 1.88166 9.98761C1.94548 9.61261 2.09802 9.27956 2.36849 9.00728C2.51192 8.86263 2.65292 8.71919 2.79636 8.57455C3.06562 8.30409 3.33485 8.03303 3.6041 7.76257C3.79556 7.5699 3.98822 7.37845 4.17966 7.18702C4.2763 7.08916 4.37112 6.9895 4.46897 6.89286C4.61666 6.74639 4.768 6.60356 4.91266 6.45284C5.13692 6.21764 5.39037 6.02801 5.69547 5.91314C6.02367 5.78854 6.36158 5.76241 6.70378 5.83534C7.32311 5.96601 7.76617 6.31913 8.02934 6.8965C8.06216 6.96943 8.09011 7.04601 8.12597 7.13474C8.20194 7.077 8.28338 7.02899 8.34842 6.96518C8.73132 6.58714 9.11057 6.20426 9.49227 5.82501C9.53116 5.78611 9.52934 5.75329 9.50321 5.71136C9.35065 5.47797 9.18899 5.2525 8.99268 5.05193C8.63045 4.6818 8.20864 4.39979 7.72911 4.20713C7.4398 4.09044 7.13956 4.01446 6.8296 3.97192C6.56644 3.93789 6.30387 3.92695 6.04253 3.94883C5.63471 3.98286 5.23965 4.0795 4.86344 4.2442C4.52127 4.39371 4.20218 4.58212 3.92686 4.83556C3.69651 5.04707 3.47224 5.26646 3.25163 5.48769C2.53749 6.19878 1.82334 6.91108 1.11224 7.62517C0.958477 7.77893 0.815034 7.94425 0.689223 8.12293C0.497768 8.39521 0.343997 8.68754 0.227303 9.00054C0.0747508 9.4126 0 9.83743 0 10.2762C0 10.6263 0.0449752 10.9685 0.141613 11.3034C0.253444 11.6893 0.424836 12.0503 0.652139 12.3834C0.85878 12.6866 1.10311 12.9547 1.3912 13.1832C1.85615 13.5533 2.37945 13.7976 2.96298 13.9192C3.22615 13.9739 3.49174 14.0019 3.75978 14C4.06611 13.997 4.37121 13.9563 4.66658 13.8803C4.94798 13.8086 5.21418 13.6907 5.4725 13.557C5.69373 13.4421 5.90341 13.3078 6.08575 13.1413C6.38296 12.8708 6.66739 12.5858 6.95365 12.3044C7.32075 11.9434 7.68662 11.5775 8.05191 11.2134C8.14672 11.1198 8.23728 11.022 8.33027 10.9272C8.33027 10.9223 8.32724 10.9193 8.32541 10.915C8.27254 10.9229 8.21966 10.9351 8.16497 10.9399L8.16549 10.9412Z" fill="white"/>
</svg>
