<svg width="40" height="40" viewBox="0 0 40 40" fill="none" xmlns="http://www.w3.org/2000/svg">
<rect width="40" height="40" rx="20" fill="white"/>
<path d="M18.3544 18.4194C18.83 18.7011 19.3172 18.9674 19.8162 19.2161C20.46 19.5352 20.4502 20.5609 19.8045 20.8778C19.3153 21.1199 18.8358 21.3774 18.3662 21.6503C17.6363 22.0729 17.0512 22.7574 16.7263 23.6048C16.4269 24.3839 16.1941 25.1982 16.0238 25.9972C15.8379 26.8688 16.7831 27.4762 17.3604 26.86C19.6068 24.4631 22.2584 22.3678 25.2935 20.8712C25.9392 20.5521 25.9392 19.533 25.2935 19.2139C22.2682 17.7173 19.6773 15.5251 17.3799 13.1327C16.8046 12.5318 15.8771 13.1261 16.0532 13.9867C16.2234 14.823 16.4524 15.6616 16.7537 16.4671C17.0668 17.3079 17.6382 17.9924 18.3544 18.4194Z" fill="#0F0F0F"/>
</svg>
