<svg width="46" height="45" viewBox="0 0 46 45" fill="none" xmlns="http://www.w3.org/2000/svg">
<path d="M20.5584 1.53864C21.1327 -0.512881 24.0412 -0.512882 24.6155 1.53864C25.0865 3.22127 27.2833 3.63193 28.3304 2.23309C29.6071 0.527566 32.3191 1.57821 32.1135 3.69867C31.9449 5.43784 33.8451 6.61435 35.3268 5.68822C37.1333 4.55904 39.2827 6.51844 38.325 8.42145C37.5395 9.98228 38.8863 11.7657 40.6025 11.4374C42.695 11.0371 43.9914 13.6406 42.4109 15.0691C41.1146 16.2408 41.7262 18.3904 43.4452 18.7042C45.5409 19.0868 45.8093 21.9828 43.8195 22.7439C42.1875 23.3682 41.9813 25.5936 43.4708 26.5071C45.2868 27.6209 44.4909 30.4184 42.3605 30.4093C40.6132 30.4019 39.617 32.4025 40.6759 33.7924C41.967 35.4871 40.2143 37.808 38.231 37.03C36.6044 36.3919 34.9528 37.8976 35.4381 39.5761C36.0298 41.6227 33.557 43.1538 31.9887 41.7119C30.7024 40.5293 28.6184 41.3366 28.4646 43.0772C28.277 45.1993 25.4181 45.7337 24.4766 43.8226C23.7044 42.2552 21.4695 42.2552 20.6973 43.8226C19.7558 45.7337 16.8969 45.1993 16.7093 43.0772C16.5554 41.3366 14.4715 40.5293 13.1852 41.7119C11.6169 43.1538 9.1441 41.6227 9.7358 39.5761C10.2211 37.8976 8.5695 36.3919 6.94286 37.03C4.9596 37.808 3.20688 35.4871 4.49792 33.7924C5.55682 32.4025 4.56065 30.4019 2.81335 30.4093C0.682966 30.4184 -0.112968 27.6209 1.70307 26.5071C3.19256 25.5936 2.98635 23.3682 1.35436 22.7439C-0.63542 21.9828 -0.367062 19.0868 1.7287 18.7042C3.44762 18.3904 4.05922 16.2408 2.76296 15.0691C1.1825 13.6406 2.47891 11.0371 4.57135 11.4374C6.28755 11.7657 7.63436 9.98228 6.84889 8.42145C5.89121 6.51844 8.04058 4.55904 9.84711 5.68822C11.3288 6.61435 13.2289 5.43784 13.0603 3.69867C12.8548 1.57821 15.5668 0.527566 16.8434 2.23309C17.8905 3.63193 20.0873 3.22128 20.5584 1.53864Z" fill="white"/>
<path fill-rule="evenodd" clip-rule="evenodd" d="M19.5289 23.4682L19.5297 23.4703H19.5309L19.5289 23.4682Z" fill="black"/>
<path fill-rule="evenodd" clip-rule="evenodd" d="M29.6907 11.8115L29.4829 13.848C30.1957 14.0416 30.7075 13.3794 31.3009 13.29C33.0519 13.0251 33.4358 14.5737 33.327 15.9287C33.1467 18.1735 31.7 19.6271 30.127 21.0965C29.324 21.8459 26.8918 23.493 26.893 24.5469C26.893 24.9352 27.1435 25.1435 27.1376 25.508C26.9703 25.5397 26.7935 25.414 26.7303 25.2805C26.577 24.9601 26.8602 24.4099 26.4377 24.4903C26.4962 25.2193 25.1302 26.2642 25.0155 26.6378C24.9207 26.9468 24.9805 27.2932 24.9114 27.5819C24.8904 27.6724 24.6984 27.6124 24.6703 27.8219C24.5662 28.5894 24.8389 30.3712 25.1736 31.0878C25.5084 31.8044 26.0545 32.187 26.9035 32.1881V33.785C26.1477 33.785 19.89 33.785 19.7626 33.785C19.7521 33.4023 19.7626 32.7123 19.7626 32.187C20.7736 32.1881 21.0408 31.9594 21.4223 31.2451C21.8039 30.5308 22.2847 28.5147 22.0026 27.8219C21.9511 27.694 21.7358 27.6589 21.6681 27.5241C21.6482 27.4845 21.6869 26.9049 21.5792 26.6378C21.427 26.2608 21.008 26.0423 20.7681 25.7253C20.4965 25.3665 20.335 24.9544 20.0541 24.6046C19.7533 24.5831 19.9382 24.951 19.7697 25.2329C19.7123 25.328 19.3904 25.5974 19.2956 25.508C20.39 23.8088 17.8782 22.4832 16.7757 21.4372C15.1862 19.9248 13.4516 18.4566 13.2257 16.154C13.1204 15.074 13.1578 13.4779 14.567 13.2922C15.7047 13.1428 15.9561 13.7261 17.0107 13.6298L16.7757 11.8115L29.6907 11.8115ZM17.4405 14.1152C17.3667 13.5684 17.2368 12.7919 17.238 12.2677H29.2444C29.0548 15.545 28.3104 18.606 27.257 21.7179C26.8755 22.8477 25.9356 25.5986 24.8623 26.194C24.558 26.3627 22.0017 26.3706 21.6646 26.2178C20.3013 24.9518 19.7217 23.1698 19.1684 21.4689L19.1482 21.4066C18.3979 19.0973 17.7647 16.5174 17.4405 14.1152ZM14.4114 13.5945C15.487 13.1632 16.0509 14.1097 17.0107 14.1097C17.4647 17.2843 18.415 20.461 19.5289 23.4682L19.5309 23.4703H19.5297L19.5289 23.4682C17.6301 21.4189 14.1782 19.4529 13.5897 16.5955C13.4036 15.6944 13.3357 14.0258 14.4114 13.5945ZM27.0241 23.356C28.0986 20.3471 29.0209 17.2589 29.365 14.0733C30.4746 14.5997 31.0949 13.119 32.2045 13.6477C32.7851 13.925 32.9489 14.5771 32.9957 15.1454C33.3047 18.8952 29.3967 21.0527 27.0241 23.356ZM22.1065 26.64H24.5638H24.565L24.5638 27.3849C24.5638 27.3849 22.9399 27.3702 22.1065 27.3849V26.64ZM22.3388 27.6589L24.3359 27.6589C24.5736 29.9459 24.5736 31.3855 25.8104 32.187H25.499L21.02 32.1881C21.02 32.1881 22.3388 31.4559 22.3388 27.6589ZM26.5916 33.4399H20.0757V32.5698L26.5916 32.5698V33.4399Z" fill="black"/>
<path d="M25.9512 21.2672L27.763 13.7969C28.0041 13.9452 27.9307 13.9311 27.9307 13.9311C27.8172 15.3462 26.9709 19.6897 26.3105 20.9921C26.2321 21.163 26.1888 21.3091 25.9512 21.266V21.2672Z" fill="black"/>
<path d="M25.6009 22.7394C25.5998 22.8102 24.8753 25.3798 24.4316 24.7748C24.7219 24.1839 24.9876 23.5318 25.3083 22.959C25.3961 22.8005 25.4088 22.7394 25.6009 22.7383V22.7394Z" fill="black"/>
</svg>
