<svg width="14" height="14" viewBox="0 0 14 14" fill="none" xmlns="http://www.w3.org/2000/svg">
<path d="M12.3295 8.05954C12.3518 7.93226 12.4504 7.83362 12.5777 7.80817L13.4884 7.62481C13.786 7.56491 14 7.3035 14 7C14 6.6965 13.786 6.43509 13.4884 6.37519L12.5777 6.19183C12.4505 6.16638 12.3518 6.06774 12.3295 5.94046C12.2818 5.71455 12.2214 5.48228 12.1418 5.25319C12.1004 5.1291 12.1386 4.99547 12.2341 4.90955L12.9314 4.29763C13.1603 4.09672 13.2151 3.7619 13.0621 3.49853C12.9098 3.2365 12.5941 3.11792 12.3071 3.21495L11.4259 3.51274C11.305 3.5541 11.1682 3.5191 11.0823 3.42046C10.9264 3.24228 10.7577 3.07365 10.5795 2.91773C10.4841 2.83182 10.4459 2.69819 10.4873 2.57409L10.7851 1.69295C10.8821 1.40586 10.7635 1.09015 10.5015 0.937918C10.2381 0.784906 9.90328 0.839664 9.70237 1.0686L9.09044 1.76592C9.00453 1.86138 8.8709 1.89956 8.74681 1.85819C8.51772 1.77865 8.28545 1.71819 8.05954 1.67047C7.93226 1.64819 7.83362 1.54956 7.80817 1.42227L7.62481 0.511552C7.56491 0.214018 7.3035 0 7 0C6.6965 0 6.43509 0.214018 6.37519 0.511552L6.19183 1.42227C6.16638 1.54955 6.06774 1.64819 5.94046 1.67047C5.71455 1.71819 5.48228 1.77865 5.25319 1.85819C5.1291 1.89956 4.99547 1.86138 4.90956 1.76592L4.29763 1.0686C4.09673 0.839665 3.7619 0.784906 3.49853 0.937918C3.2365 1.09015 3.11792 1.40586 3.21495 1.69295L3.51273 2.57409C3.5541 2.69818 3.51592 2.83181 3.42046 2.91773C3.24228 3.07364 3.07365 3.24228 2.91773 3.42046C2.83182 3.5191 2.69499 3.5541 2.57409 3.51274L1.69295 3.21495C1.40586 3.11792 1.09015 3.2365 0.937918 3.49853C0.784906 3.7619 0.839664 4.09672 1.0686 4.29763L1.76592 4.90955C1.86138 4.99546 1.89956 5.12909 1.85819 5.25319C1.77865 5.48228 1.71819 5.71455 1.67047 5.94046C1.64819 6.06773 1.54956 6.16638 1.42227 6.19183L0.511552 6.37519C0.214018 6.43509 0 6.6965 0 7C0 7.3035 0.214018 7.56491 0.511552 7.62481L1.42227 7.80817C1.54955 7.83362 1.64819 7.93226 1.67047 8.05954C1.71819 8.28545 1.77865 8.51772 1.85819 8.74681C1.89956 8.8709 1.86138 9.00453 1.76592 9.09044L1.0686 9.70237C0.839664 9.90327 0.784906 10.2381 0.937918 10.5015C1.09015 10.7635 1.40586 10.8821 1.69295 10.7851L2.57409 10.4873C2.695 10.4459 2.83181 10.4809 2.91773 10.5795C3.07364 10.7577 3.24228 10.9263 3.42046 11.0823C3.51592 11.1682 3.5541 11.3018 3.51273 11.4259L3.21495 12.3071C3.11792 12.5941 3.2365 12.9098 3.49853 13.0621C3.7619 13.2151 4.09673 13.1603 4.29763 12.9314L4.90956 12.2341C4.99547 12.1386 5.1291 12.1004 5.25319 12.1418C5.48228 12.2214 5.71455 12.2818 5.94046 12.3295C6.06773 12.3518 6.16638 12.4504 6.19183 12.5777L6.37519 13.4884C6.43509 13.786 6.6965 14 7 14C7.3035 14 7.56491 13.786 7.62481 13.4884L7.80817 12.5777C7.83362 12.4505 7.93226 12.3518 8.05954 12.3295C8.28545 12.2818 8.51772 12.2214 8.74681 12.1418C8.8709 12.1004 9.00453 12.1386 9.09044 12.2341L9.70237 12.9314C9.90328 13.1603 10.2381 13.2151 10.5015 13.0621C10.7635 12.9098 10.8821 12.5941 10.7851 12.3071L10.4873 11.4259C10.4459 11.3018 10.4841 11.1682 10.5795 11.0823C10.7577 10.9264 10.9263 10.7577 11.0823 10.5795C11.1682 10.4809 11.305 10.4459 11.4259 10.4873L12.3071 10.7851C12.5941 10.8821 12.9098 10.7635 13.0621 10.5015C13.2151 10.2381 13.1603 9.90327 12.9314 9.70237L12.2341 9.09044C12.1386 9.00453 12.1004 8.8709 12.1418 8.74681C12.2214 8.51772 12.2818 8.28545 12.3295 8.05954ZM6.99998 11.4992C4.51806 11.4992 2.50084 9.48189 2.50084 7.00002C2.50084 4.51815 4.5181 2.50089 6.99998 2.50089C9.48185 2.50089 11.4991 4.51815 11.4991 7.00002C11.4991 9.48189 9.48185 11.4992 6.99998 11.4992Z" fill="white"/>
<path d="M6.99949 3.1377C4.86762 3.1377 3.13672 4.8686 3.13672 7.00046C3.13672 9.13233 4.86762 10.8632 6.99949 10.8632C9.13135 10.8632 10.8623 9.13233 10.8623 7.00046C10.8623 4.8686 9.13135 3.1377 6.99949 3.1377ZM6.99949 9.40907C5.67268 9.40907 4.59088 8.32725 4.59088 7.00046C4.59088 5.67368 5.6727 4.59186 6.99949 4.59186C8.32628 4.59186 9.40809 5.67368 9.40809 7.00046C9.40809 8.32725 8.32628 9.40907 6.99949 9.40907Z" fill="white"/>
</svg>
