<svg width="56" height="56" viewBox="0 0 56 56" fill="none" xmlns="http://www.w3.org/2000/svg">
<foreignObject x="-40" y="-40" width="136" height="136"><div xmlns="http://www.w3.org/1999/xhtml" style="backdrop-filter:blur(20px);clip-path:url(#bgblur_0_2322_7494_clip_path);height:100%;width:100%"></div></foreignObject><g filter="url(#filter0_i_2322_7494)" data-figma-bg-blur-radius="40">
<rect width="56" height="56" rx="10" fill="white" fill-opacity="0.05"/>
<rect x="0.5" y="0.5" width="55" height="55" rx="9.5" stroke="url(#paint0_linear_2322_7494)"/>
</g>
<path d="M37.014 23.4783L33.7844 36.4445C33.6723 36.9134 33.4049 37.3306 33.0255 37.6281C32.6462 37.9257 32.1773 38.0861 31.6952 38.0833H19.1027C17.6557 38.0833 16.6207 36.6649 17.0519 35.2753L21.0865 22.3187C21.2213 21.8793 21.493 21.4945 21.8619 21.2203C22.2308 20.9462 22.6777 20.7972 23.1373 20.7949H34.9248C35.8352 20.7949 36.5923 21.3508 36.9086 22.1174C37.0907 22.5295 37.129 22.9991 37.014 23.4783Z" fill="white" stroke="white" stroke-width="0.71875" stroke-miterlimit="10"/>
<path d="M23.3802 28.5H31.0469M22.4219 32.3333H30.0885" stroke="#0F0F0F" stroke-width="0.71875" stroke-miterlimit="10" stroke-linecap="round" stroke-linejoin="round"/>
<path d="M31.3301 38.0836H35.9109C37.1472 38.0836 38.1151 37.039 38.0289 35.8028L37.0801 22.7503M25.2734 23.1144L26.2701 18.9744M31.6943 23.124L32.5951 18.9648" stroke="white" stroke-width="0.71875" stroke-miterlimit="10" stroke-linecap="round" stroke-linejoin="round"/>
<defs>
<filter id="filter0_i_2322_7494" x="-40" y="-40" width="136" height="136" filterUnits="userSpaceOnUse" color-interpolation-filters="sRGB">
<feFlood flood-opacity="0" result="BackgroundImageFix"/>
<feBlend mode="normal" in="SourceGraphic" in2="BackgroundImageFix" result="shape"/>
<feColorMatrix in="SourceAlpha" type="matrix" values="0 0 0 0 0 0 0 0 0 0 0 0 0 0 0 0 0 0 127 0" result="hardAlpha"/>
<feOffset/>
<feGaussianBlur stdDeviation="0.5"/>
<feComposite in2="hardAlpha" operator="arithmetic" k2="-1" k3="1"/>
<feColorMatrix type="matrix" values="0 0 0 0 0.641667 0 0 0 0 0.641667 0 0 0 0 0.641667 0 0 0 1 0"/>
<feBlend mode="normal" in2="shape" result="effect1_innerShadow_2322_7494"/>
</filter>
<clipPath id="bgblur_0_2322_7494_clip_path" transform="translate(40 40)"><rect width="56" height="56" rx="10"/>
</clipPath><linearGradient id="paint0_linear_2322_7494" x1="62.2533" y1="63.6273" x2="-13.5669" y2="47.8335" gradientUnits="userSpaceOnUse">
<stop stop-color="#A97055"/>
<stop offset="0.135" stop-color="#5F2E4F"/>
<stop offset="0.34" stop-color="#843978"/>
<stop offset="1" stop-color="#5D6AF0"/>
</linearGradient>
</defs>
</svg>
