<svg width="107" height="84" viewBox="0 0 107 84" fill="none" xmlns="http://www.w3.org/2000/svg">
<rect width="106.148" height="83.4019" rx="6.49885" fill="url(#paint0_linear_1905_1756)"/>
<rect x="5.41406" y="33.0352" width="8.12356" height="43.3256" fill="#EEF1FA"/>
<rect x="5.41406" y="33.0352" width="8.12356" height="43.3256" fill="url(#paint1_linear_1905_1756)"/>
<rect x="16.2422" y="23.8291" width="8.12356" height="52.5324" fill="#EEF1FA"/>
<rect x="16.2422" y="23.8291" width="8.12356" height="52.5324" fill="url(#paint2_linear_1905_1756)"/>
<rect x="27.0781" y="36.8252" width="8.12356" height="39.5347" fill="#EEF1FA"/>
<rect x="27.0781" y="36.8252" width="8.12356" height="39.5347" fill="url(#paint3_linear_1905_1756)"/>
<rect x="37.9102" y="33.0352" width="8.12356" height="43.3256" fill="#EEF1FA"/>
<rect x="37.9102" y="33.0352" width="8.12356" height="43.3256" fill="url(#paint4_linear_1905_1756)"/>
<rect x="48.7422" y="16.2451" width="8.12356" height="60.1143" fill="#EEF1FA"/>
<rect x="48.7422" y="16.2451" width="8.12356" height="60.1143" fill="url(#paint5_linear_1905_1756)"/>
<rect x="59.5703" y="42.7832" width="8.12356" height="33.5774" fill="#EEF1FA"/>
<rect x="59.5703" y="42.7832" width="8.12356" height="33.5774" fill="url(#paint6_linear_1905_1756)"/>
<rect x="70.4062" y="51.4482" width="8.12356" height="24.9122" fill="#EEF1FA"/>
<rect x="70.4062" y="51.4482" width="8.12356" height="24.9122" fill="url(#paint7_linear_1905_1756)"/>
<rect x="81.2383" y="60.6553" width="8.12356" height="15.7055" fill="#EEF1FA"/>
<rect x="81.2383" y="60.6553" width="8.12356" height="15.7055" fill="url(#paint8_linear_1905_1756)"/>
<rect x="92.0625" y="29.2432" width="8.12356" height="47.1166" fill="#EEF1FA"/>
<rect x="92.0625" y="29.2432" width="8.12356" height="47.1166" fill="url(#paint9_linear_1905_1756)"/>
<defs>
<linearGradient id="paint0_linear_1905_1756" x1="57.4065" y1="-2.70785" x2="56.8649" y2="102.898" gradientUnits="userSpaceOnUse">
<stop stop-color="#716EED"/>
<stop offset="0.969884" stop-color="#6441C6"/>
</linearGradient>
<linearGradient id="paint1_linear_1905_1756" x1="9.47584" y1="33.0352" x2="9.47584" y2="76.3608" gradientUnits="userSpaceOnUse">
<stop stop-color="#5D54BB" stop-opacity="0.3"/>
<stop offset="0.995" stop-color="#674BCF"/>
</linearGradient>
<linearGradient id="paint2_linear_1905_1756" x1="20.304" y1="23.8291" x2="20.304" y2="76.3615" gradientUnits="userSpaceOnUse">
<stop stop-color="#5D54BB" stop-opacity="0.3"/>
<stop offset="0.995" stop-color="#674BCF"/>
</linearGradient>
<linearGradient id="paint3_linear_1905_1756" x1="31.1399" y1="36.8252" x2="31.1399" y2="76.3599" gradientUnits="userSpaceOnUse">
<stop stop-color="#5D54BB" stop-opacity="0.3"/>
<stop offset="0.995" stop-color="#674BCF"/>
</linearGradient>
<linearGradient id="paint4_linear_1905_1756" x1="41.9719" y1="33.0352" x2="41.9719" y2="76.3608" gradientUnits="userSpaceOnUse">
<stop stop-color="#5D54BB" stop-opacity="0.3"/>
<stop offset="0.995" stop-color="#674BCF"/>
</linearGradient>
<linearGradient id="paint5_linear_1905_1756" x1="52.804" y1="16.2451" x2="52.804" y2="76.3594" gradientUnits="userSpaceOnUse">
<stop stop-color="#5D54BB" stop-opacity="0.3"/>
<stop offset="0.995" stop-color="#674BCF"/>
</linearGradient>
<linearGradient id="paint6_linear_1905_1756" x1="63.6321" y1="42.7832" x2="63.6321" y2="76.3606" gradientUnits="userSpaceOnUse">
<stop stop-color="#5D54BB" stop-opacity="0.3"/>
<stop offset="0.995" stop-color="#674BCF"/>
</linearGradient>
<linearGradient id="paint7_linear_1905_1756" x1="74.468" y1="51.4482" x2="74.468" y2="76.3605" gradientUnits="userSpaceOnUse">
<stop stop-color="#5D54BB" stop-opacity="0.3"/>
<stop offset="0.995" stop-color="#674BCF"/>
</linearGradient>
<linearGradient id="paint8_linear_1905_1756" x1="85.3001" y1="60.6553" x2="85.3001" y2="76.3608" gradientUnits="userSpaceOnUse">
<stop stop-color="#5D54BB" stop-opacity="0.3"/>
<stop offset="0.995" stop-color="#674BCF"/>
</linearGradient>
<linearGradient id="paint9_linear_1905_1756" x1="96.1243" y1="29.2432" x2="96.1243" y2="76.3598" gradientUnits="userSpaceOnUse">
<stop stop-color="#5D54BB" stop-opacity="0.3"/>
<stop offset="0.995" stop-color="#674BCF"/>
</linearGradient>
</defs>
</svg>
