<svg width="14" height="14" viewBox="0 0 14 14" fill="none" xmlns="http://www.w3.org/2000/svg">
<path d="M7.33893 6.21225V11.0656H6.43359V5.87158L7.33893 6.21225Z" fill="white"/>
<path d="M3.72266 5.75833C3.72266 4.517 4.39932 3.84033 5.19266 3.84033C5.98599 3.84033 6.09799 3.95233 6.99866 4.405C7.89932 4.85767 8.12799 4.96967 8.58066 4.96967C9.03332 4.96967 9.25732 4.629 9.25732 3.95233H10.046C10.158 5.30567 9.36932 5.87033 8.57599 5.87033C7.78266 5.87033 7.55866 5.75833 6.76999 5.30567C5.98132 4.853 5.75266 4.741 5.29999 4.741C4.84732 4.741 4.62332 5.08167 4.51132 5.87033L3.72266 5.75833Z" fill="white"/>
<path d="M7 14C3.14067 14 0 10.8593 0 7C0 3.14067 3.14067 0 7 0C10.8593 0 14 3.14067 14 7C14 10.8593 10.8593 14 7 14ZM7 0.452667C3.388 0.452667 0.452667 3.388 0.452667 7C0.452667 10.612 3.388 13.5473 7 13.5473C10.612 13.5473 13.5473 10.612 13.5473 7C13.5473 3.388 10.612 0.452667 7 0.452667Z" fill="white"/>
</svg>
