<svg width="40" height="40" viewBox="0 0 40 40" fill="none" xmlns="http://www.w3.org/2000/svg"><rect width="40" height="40" rx="20" fill="#fff"/><path d="M18.354 18.42c.476.281.963.547 1.462.796.644.32.634 1.345-.011 1.662-.49.242-.97.5-1.439.772a3.828 3.828 0 00-1.64 1.955c-.3.779-.532 1.593-.702 2.392-.186.872.76 1.48 1.336.863 2.247-2.397 4.898-4.492 7.934-5.989.645-.319.645-1.338 0-1.657-3.026-1.497-5.617-3.689-7.914-6.081-.575-.601-1.503-.007-1.327.854.17.836.4 1.675.7 2.48.314.84.885 1.525 1.601 1.952z" fill="#0F0F0F"/></svg>