<svg width="46" height="45" viewBox="0 0 46 45" fill="none" xmlns="http://www.w3.org/2000/svg"><path d="M20.558 1.539c.575-2.052 3.483-2.052 4.058 0 .47 1.682 2.667 2.093 3.714.694 1.277-1.705 3.99-.655 3.784 1.466-.17 1.739 1.731 2.915 3.213 1.99 1.806-1.13 3.956.83 2.998 2.732-.786 1.561.561 3.345 2.277 3.016 2.093-.4 3.39 2.204 1.809 3.632-1.296 1.172-.685 3.321 1.034 3.635 2.096.383 2.364 3.279.374 4.04-1.632.624-1.838 2.85-.348 3.763 1.816 1.114 1.02 3.911-1.11 3.902-1.748-.007-2.744 1.994-1.685 3.383 1.291 1.695-.462 4.016-2.445 3.238-1.627-.638-3.278.868-2.793 2.546.592 2.047-1.881 3.578-3.45 2.136-1.286-1.183-3.37-.375-3.523 1.365-.188 2.122-3.047 2.657-3.988.746-.773-1.568-3.008-1.568-3.78 0-.941 1.91-3.8 1.376-3.988-.746-.154-1.74-2.237-2.548-3.524-1.365-1.568 1.442-4.04-.09-3.45-2.136.486-1.678-1.165-3.184-2.792-2.546-1.983.778-3.736-1.543-2.445-3.238 1.059-1.39.063-3.39-1.685-3.383-2.13.01-2.926-2.788-1.11-3.902 1.49-.913 1.283-3.139-.349-3.763-1.99-.761-1.721-3.657.375-4.04 1.719-.314 2.33-2.463 1.034-3.635-1.58-1.428-.284-4.032 1.808-3.632 1.717.329 3.063-1.455 2.278-3.016C5.89 6.518 8.04 4.56 9.847 5.688c1.482.926 3.382-.25 3.213-1.99-.205-2.12 2.507-3.17 3.783-1.465 1.047 1.399 3.244.988 3.715-.694z" fill="#fff"/><path fill-rule="evenodd" clip-rule="evenodd" d="M19.529 23.468v.002h.002l-.002-.002z" fill="#000"/><path fill-rule="evenodd" clip-rule="evenodd" d="M29.69 11.812l-.207 2.036c.713.194 1.224-.469 1.818-.558 1.75-.265 2.135 1.284 2.026 2.639-.18 2.245-1.627 3.698-3.2 5.167-.803.75-3.235 2.397-3.234 3.45 0 .39.25.598.245.962-.168.032-.345-.094-.408-.227-.153-.32.13-.871-.292-.79.058.728-1.308 1.773-1.422 2.147-.095.309-.035.655-.105.944-.02.09-.213.03-.24.24-.105.767.168 2.55.503 3.266.334.716.88 1.099 1.73 1.1v1.597h-7.141c-.01-.383 0-1.073 0-1.598 1.01.001 1.278-.228 1.66-.942.38-.714.862-2.73.58-3.423-.052-.128-.267-.163-.335-.298-.02-.04.019-.62-.089-.886-.152-.377-.571-.596-.81-.913-.272-.359-.434-.77-.715-1.12-.3-.022-.116.346-.284.628-.058.095-.38.364-.474.275 1.094-1.7-1.418-3.025-2.52-4.07-1.59-1.513-3.324-2.981-3.55-5.284-.106-1.08-.068-2.676 1.341-2.862 1.138-.15 1.39.434 2.444.338l-.235-1.819H29.69zm-12.25 2.303c-.073-.547-.203-1.323-.202-1.847h12.006c-.19 3.277-.934 6.338-1.987 9.45-.382 1.13-1.321 3.88-2.395 4.476-.304.169-2.86.177-3.197.024-1.364-1.266-1.943-3.048-2.497-4.75l-.02-.061c-.75-2.31-1.383-4.89-1.707-7.292zm-3.029-.52c1.076-.432 1.64.515 2.6.515.454 3.174 1.404 6.351 2.518 9.358l.002.002h-.001l-.001-.002c-1.899-2.05-5.35-4.015-5.94-6.872-.185-.902-.253-2.57.822-3.002zm12.613 9.761c1.075-3.009 1.997-6.097 2.341-9.283 1.11.527 1.73-.954 2.84-.425.58.277.744.93.79 1.497.31 3.75-3.598 5.908-5.97 8.211zm-4.918 3.284h2.459l-.001.745s-1.624-.015-2.457 0v-.745zm.233 1.019h1.997c.238 2.287.238 3.727 1.474 4.528h-.31l-4.479.001s1.319-.732 1.319-4.53zm4.253 5.78h-6.516v-.87h6.516v.87z" fill="#000"/><path d="M25.951 21.267l1.812-7.47c.241.148.168.134.168.134-.114 1.415-.96 5.759-1.62 7.061-.079.171-.122.317-.36.274v.001zM25.6 22.74c0 .07-.725 2.64-1.168 2.035.29-.591.556-1.243.876-1.816.088-.159.1-.22.293-.22z" fill="#000"/></svg>