<svg width="122" height="52" viewBox="0 0 122 52" fill="none" xmlns="http://www.w3.org/2000/svg"><g filter="url(#filter0_d_1959_1430)"><rect x="37.068" y="10" width="74.335" height="32" rx="10.5" fill="url(#paint0_linear_1959_1430)"/></g><path d="M4.721 15.318v21.127H0V15.318h4.721zm3.884 0h5.822l6.15 14.195h.261l6.15-14.195h5.822v21.127h-4.58v-13.75h-.185l-5.778 13.647h-3.119l-5.778-13.7h-.185v13.803h-4.58V15.318zM47.12 36.164V15.599h6.875c1.416 0 2.63.268 3.64.804 1.017.535 1.797 1.268 2.342 2.199.545.93.817 1.991.817 3.183 0 1.178-.272 2.232-.817 3.163-.545.93-1.325 1.667-2.343 2.209-1.01.535-2.219.803-3.628.803h-5.928v-1.165h5.895c1.148 0 2.129-.214 2.942-.642.814-.435 1.439-1.028 1.874-1.778.436-.756.654-1.62.654-2.59 0-.977-.218-1.844-.654-2.6-.435-.757-1.064-1.35-1.885-1.778-.813-.428-1.794-.643-2.942-.643h-5.48v19.4h-1.363zm18.908 0V15.599h6.875c1.41 0 2.623.255 3.64.764 1.017.508 1.798 1.215 2.342 2.118.545.897.818 1.942.818 3.133 0 1.178-.273 2.216-.818 3.113-.544.89-1.325 1.586-2.342 2.088-1.01.502-2.22.754-3.629.754h-6.156v-1.175h6.124c1.147 0 2.128-.198 2.941-.593.814-.395 1.439-.947 1.875-1.656.436-.717.654-1.56.654-2.53 0-.978-.218-1.828-.654-2.551-.436-.73-1.064-1.296-1.885-1.697-.814-.402-1.794-.603-2.942-.603H67.39v19.4h-1.362zm9.164-9.319l5.491 9.319h-1.569l-5.459-9.319h1.537zm27.704-.963c0 2.122-.399 3.976-1.199 5.562-.798 1.58-1.91 2.809-3.334 3.686-1.416.876-3.05 1.315-4.903 1.315-1.86 0-3.502-.439-4.926-1.315-1.416-.884-2.524-2.116-3.323-3.696-.799-1.586-1.199-3.437-1.199-5.552 0-2.122.4-3.973 1.199-5.553.806-1.58 1.918-2.808 3.334-3.685 1.417-.884 3.055-1.326 4.915-1.326 1.852 0 3.487.439 4.903 1.316 1.424.877 2.536 2.108 3.334 3.695.8 1.58 1.199 3.43 1.199 5.553zm-1.329 0c0-1.908-.349-3.562-1.046-4.96-.69-1.4-1.646-2.48-2.866-3.244-1.22-.77-2.619-1.155-4.195-1.155-1.577 0-2.975.382-4.195 1.145-1.22.756-2.18 1.838-2.877 3.243-.69 1.4-1.035 3.056-1.035 4.97 0 1.895.341 3.545 1.024 4.95.69 1.4 1.645 2.484 2.866 3.254 1.22.77 2.626 1.155 4.217 1.155 1.576 0 2.974-.382 4.195-1.145 1.22-.77 2.175-1.854 2.866-3.253.697-1.399 1.046-3.052 1.046-4.96z" fill="#F9F9F9"/><defs><linearGradient id="paint0_linear_1959_1430" x1="93.094" y1="122.934" x2="23.085" y2="4.248" gradientUnits="userSpaceOnUse"><stop stop-color="#3325CD"/><stop offset="1" stop-color="#5A69F7"/></linearGradient><filter id="filter0_d_1959_1430" x="27.283" y=".215" width="93.906" height="51.57" filterUnits="userSpaceOnUse" color-interpolation-filters="sRGB"><feFlood flood-opacity="0" result="BackgroundImageFix"/><feColorMatrix in="SourceAlpha" values="0 0 0 0 0 0 0 0 0 0 0 0 0 0 0 0 0 0 127 0" result="hardAlpha"/><feOffset/><feGaussianBlur stdDeviation="4.893"/><feComposite in2="hardAlpha" operator="out"/><feColorMatrix values="0 0 0 0 0.0583333 0 0 0 0 0.0583333 0 0 0 0 0.0583333 0 0 0 0.2 0"/><feBlend in2="BackgroundImageFix" result="effect1_dropShadow_1959_1430"/><feBlend in="SourceGraphic" in2="effect1_dropShadow_1959_1430" result="shape"/></filter></defs></svg>