<svg width="18" height="15" viewBox="0 0 18 15" fill="none" xmlns="http://www.w3.org/2000/svg"><path d="M1.513 6.537S9.061 3.259 11.68 2.104c1.004-.461 4.407-1.939 4.407-1.939s1.57-.646 1.44.924c-.044.646-.393 2.909-.742 5.356-.524 3.463-1.09 7.248-1.09 7.248s-.088 1.063-.83 1.247c-.742.185-1.963-.646-2.181-.83-.175-.14-3.273-2.217-4.407-3.233-.305-.277-.655-.831.044-1.477a171.147 171.147 0 004.58-4.618c.524-.554 1.048-1.846-1.134-.277C8.67 6.768 5.614 8.892 5.614 8.892s-.698.461-2.007.046c-1.309-.416-2.836-.97-2.836-.97s-1.047-.692.742-1.431z" fill="#fff"/></svg>