<svg width="16" height="17" viewBox="0 0 16 17" fill="none" xmlns="http://www.w3.org/2000/svg"><path d="M.43 15.955c-.037.15.008.31.123.419a.45.45 0 00.426.113l3.656-.938a8.004 8.004 0 003.366.732c4.41 0 7.999-3.54 7.999-7.89S12.41.5 8 .5C3.588.5 0 4.04 0 8.39a7.77 7.77 0 001.238 4.218L.43 15.955zM4.443 4.878l.58-.543a.556.556 0 01.777.02L7.106 5.71c.21.218.2.561-.02.767l-.57.537s-.755.448.827 1.955l.064.068c1.445 1.636 1.937.915 1.937.915l.571-.536a.556.556 0 01.778.02l1.283 1.332c.209.217.2.56-.02.767l-.58.543a1.889 1.889 0 01-1.66.483c-.811-.164-2.025-.732-3.654-2.33.032.036.063.068.095.107l-.198-.205c.034.036.068.067.101.1-1.534-1.685-2.047-2.91-2.17-3.717-.088-.6.112-1.225.554-1.64z" fill="#fff"/></svg>