<svg width="16" height="16" viewBox="0 0 16 16" fill="none" xmlns="http://www.w3.org/2000/svg">
<path d="M6.8952 2.19385H10.6561C11.3456 2.19385 11.9097 2.50725 11.9097 3.44747V4.07428V4.70109C11.9097 5.64131 11.3456 5.95471 10.6561 5.95471H6.8952C6.20571 5.95471 5.64158 5.64131 5.64158 4.70109V4.07428V3.44747C5.64158 2.50725 6.20571 2.19385 6.8952 2.19385Z" fill="white"/>
<path d="M4.38796 9.08876H8.14882C8.83831 9.08876 9.40244 9.40217 9.40244 10.3424V10.9692V11.596C9.40244 12.5362 8.83831 12.8496 8.14882 12.8496H4.38796C3.69847 12.8496 3.13434 12.5362 3.13434 11.596V10.9692V10.3424C3.13434 9.40217 3.69847 9.08876 4.38796 9.08876Z" fill="white"/>
<path d="M13.7901 10.9692H9.40244M9.40244 10.9692V10.3424M9.40244 10.9692V11.596M3.13434 10.9692H1.25391M3.13434 10.9692V11.596M3.13434 10.9692V10.3424M13.7901 4.07428H11.9097M11.9097 4.07428V3.44747M11.9097 4.07428V4.70109M5.64158 4.07428H1.25391M5.64158 4.07428V4.70109M5.64158 4.07428V3.44747M9.40244 10.3424C9.40244 9.40217 8.83831 9.08876 8.14882 9.08876H4.38796C3.69847 9.08876 3.13434 9.40217 3.13434 10.3424M9.40244 10.3424V11.596M9.40244 11.596C9.40244 12.5362 8.83831 12.8496 8.14882 12.8496H4.38796C3.69847 12.8496 3.13434 12.5362 3.13434 11.596M3.13434 11.596V10.3424M11.9097 3.44747C11.9097 2.50725 11.3456 2.19385 10.6561 2.19385H6.8952C6.20571 2.19385 5.64158 2.50725 5.64158 3.44747M11.9097 3.44747V4.70109M11.9097 4.70109C11.9097 5.64131 11.3456 5.95471 10.6561 5.95471H6.8952C6.20571 5.95471 5.64158 5.64131 5.64158 4.70109M5.64158 4.70109V3.44747" stroke="white" stroke-width="0.867891" stroke-miterlimit="10" stroke-linecap="round" stroke-linejoin="round"/>
</svg>
