<svg width="81" height="42" viewBox="0 0 81 42" fill="none" xmlns="http://www.w3.org/2000/svg">
<g opacity="0.6">
<path d="M19.0435 0.355303L19.0032 0.348633H18.9965H18.9897C18.6939 0.355303 18.3038 0.488707 18.129 1.08236C18.0349 1.38251 18.0349 1.72936 18.0416 2.04953L18.2366 8.08606C18.2433 8.29949 18.3711 8.47294 18.5527 8.50628C18.5863 8.51294 18.6199 8.51294 18.6535 8.50628C18.714 8.49961 18.7678 8.47961 18.8149 8.43957C18.909 8.37286 18.9763 8.25948 18.9965 8.12607L19.8101 2.16292L19.8168 2.13624C19.8572 1.83608 19.8841 1.48924 19.8236 1.17574C19.7025 0.568751 19.3327 0.395324 19.0435 0.355303Z" fill="#fff"/>
<path d="M0.594451 24.2197L0.6079 24.2597L0.614624 24.2664C0.742387 24.5265 1.03154 24.82 1.65018 24.7333C1.96622 24.6866 2.28227 24.5465 2.57142 24.4065L8.00472 21.685C8.19972 21.5916 8.30058 21.4049 8.2535 21.2248C8.2468 21.1914 8.23333 21.1581 8.21315 21.1314C8.17954 21.0847 8.1392 21.0447 8.08541 21.0113C7.98455 20.9513 7.85004 20.9446 7.7223 20.978L1.92588 22.7656L1.89898 22.7789C1.60983 22.8723 1.28034 22.9924 1.01808 23.1792C0.507034 23.5393 0.507034 23.9462 0.594451 24.2197Z" fill="#fff"/>
<path d="M7.73466 4.13291L7.70105 4.15291V4.15958L7.69431 4.16625C7.47241 4.3597 7.25724 4.70654 7.49932 5.28018C7.62035 5.57368 7.84226 5.84048 8.05069 6.08061L12.0719 10.6163C12.2131 10.7764 12.4216 10.8298 12.5829 10.7431C12.6166 10.7231 12.6435 10.7031 12.6636 10.683C12.704 10.643 12.7309 10.5896 12.751 10.5296C12.7847 10.4162 12.7578 10.2828 12.6905 10.1761L9.48972 5.06005L9.47628 5.03338C9.3149 4.77992 9.11317 4.49309 8.86435 4.28633C8.3802 3.87945 7.98347 3.97949 7.73466 4.13291Z" fill="#FFF"/>
<path d="M1.0947 13.0259L1.08125 13.066V13.0727V13.0793C1.01401 13.3662 1.05435 13.773 1.5923 14.0865C1.868 14.2466 2.20422 14.34 2.51354 14.4067L8.46461 15.6807C8.67308 15.7274 8.87481 15.6474 8.9555 15.4806C8.96894 15.4472 8.98238 15.4139 8.98238 15.3805C8.98911 15.3205 8.98238 15.2671 8.9555 15.2071C8.90842 15.1004 8.81429 15.007 8.69325 14.9536L3.05149 12.7325L3.02459 12.7191C2.74217 12.6124 2.40595 12.499 2.08318 12.479C1.46454 12.4456 1.20229 12.7591 1.0947 13.0259Z" fill="#FFF"/>
<path d="M24.1469 24.1624H18.4043L23.7098 15.8047H24.1536V24.1624H24.1469ZM29.4524 24.1624V8.47412H23.7905L12.5742 24.3425V28.7115H23.7367V33.1271H29.4524V28.7115H30.8645V24.1624H29.4524Z" fill="#FFF"/>
<path d="M36.8508 27.9711L36.9181 10.4018C36.9181 9.02109 36.528 8.53416 35.2168 8.50079L30.8594 8.47412V24.1624H32.258V28.7115H30.8594V33.1271H44.3484V27.9644H36.8508V27.9711Z" fill="#FFF"/>
<path d="M45.6211 33.1271H50.8258C50.8258 33.1271 50.8258 17.5189 50.8258 16.5717C50.8258 15.6246 50.7317 14.7374 49.1381 14.7574C47.5512 14.7775 45.6211 14.7574 45.6211 14.7574V33.1271ZM45.6211 12.2761H50.8258V8.47412H45.6211V12.2761Z" fill="#FFF"/>
<path d="M61.3366 11.7599H61.7469V7.99121H61.1687C58.1561 7.99121 54.1485 8.56485 54.1485 13.5275V14.7548H52.0234V18.5568H54.1485V33.1245H59.3531V18.5568H61.7469V14.7548H59.3531V13.7676C59.3531 12.2868 60.3751 11.7599 61.3366 11.7599Z" fill="#FFF"/>
<path d="M66.5533 22.0931L66.6138 21.8063C66.8826 20.5389 68.147 18.3911 71.1661 18.3911C74.1788 18.3911 75.4428 20.5389 75.7184 21.8063L75.7789 22.0931H66.5533ZM80.9166 24.1608C80.9166 18.4312 76.7069 14.1089 71.1258 14.1089C65.7666 14.1089 61.4023 18.5445 61.4023 23.9941C61.4023 29.3703 65.8069 33.7392 71.2267 33.7392C73.1564 33.7392 74.9789 33.1656 76.4987 32.0851C78.0048 31.0645 79.2556 29.5571 80.1363 27.6961H74.8041C74.0441 28.6232 73.0692 29.4637 71.2335 29.4637C68.7724 29.4637 66.8894 27.9495 66.5465 25.695L66.5061 25.4215H80.8222C80.8694 25.0747 80.9166 24.7745 80.9166 24.1608Z" fill="#FFF"/>
<path d="M78.8066 32.8405C78.8066 32.6537 78.847 32.4802 78.9346 32.3267C79.0218 32.1666 79.1429 32.0399 79.2909 31.9531C79.4455 31.8597 79.607 31.813 79.7886 31.813C79.9702 31.813 80.1317 31.8597 80.2866 31.9531C80.4412 32.0465 80.5623 32.1666 80.643 32.3267C80.7305 32.4869 80.7709 32.6604 80.7709 32.8405C80.7709 33.0273 80.7237 33.2008 80.6361 33.361C80.5489 33.5211 80.4278 33.6479 80.2729 33.7346C80.1183 33.828 79.9569 33.8681 79.7821 33.8681C79.6005 33.8681 79.439 33.8214 79.2841 33.7279C79.1295 33.6345 79.0153 33.5078 78.9277 33.3543C78.8538 33.2008 78.8066 33.0273 78.8066 32.8405ZM78.9814 32.8405C78.9814 32.994 79.0153 33.1341 79.0823 33.2676C79.1497 33.401 79.2506 33.5011 79.3785 33.5812C79.5061 33.6612 79.6473 33.7012 79.7954 33.7012C79.95 33.7012 80.0848 33.6612 80.2124 33.5812C80.3403 33.5011 80.4343 33.3943 80.5086 33.2676C80.5756 33.1341 80.6095 32.994 80.6095 32.8405C80.6095 32.6871 80.5756 32.5469 80.5086 32.4135C80.4412 32.2801 80.3403 32.1799 80.2124 32.0999C80.0848 32.0198 79.95 31.9798 79.7954 31.9798C79.6473 31.9798 79.5129 32.0198 79.385 32.0932C79.2574 32.1666 79.1565 32.2734 79.0892 32.4068C79.0153 32.5403 78.9814 32.6871 78.9814 32.8405ZM79.5936 32.9473V33.4144H79.385V32.2467H79.7753C79.9165 32.2467 80.0308 32.2801 80.105 32.3401C80.1857 32.4068 80.2261 32.4935 80.2261 32.607C80.2261 32.7071 80.1789 32.7871 80.078 32.8405C80.1317 32.8672 80.172 32.9072 80.1922 32.9606C80.2124 33.014 80.2261 33.074 80.2261 33.1541C80.2261 33.2275 80.2261 33.2809 80.2325 33.3142C80.2325 33.3476 80.2394 33.3743 80.2527 33.3943V33.4144H80.0376C80.0243 33.381 80.0174 33.2942 80.0174 33.1474C80.0174 33.0807 80.0041 33.0274 79.9702 32.994C79.9367 32.9606 79.8895 32.9473 79.8156 32.9473H79.5936ZM79.5936 32.7605H79.7684C79.8358 32.7605 79.8963 32.7471 79.9435 32.7204C79.9904 32.6937 80.0106 32.6537 80.0106 32.607C80.0106 32.5403 79.9972 32.5002 79.9637 32.4669C79.9299 32.4402 79.8693 32.4268 79.7886 32.4268H79.5936V32.7605Z" fill="#FFF"/>
<path d="M24.5956 37.6611V39.8494H24.3686V37.6611H24.5956ZM25.1923 37.6611V37.864H23.7734V37.6611H25.1923Z" fill="#FFF"/>
<path d="M27.2602 38.6198V38.8213H26.1704V38.6198H27.2602ZM26.211 37.6611V39.8494H25.9766V37.6611H26.211ZM27.4615 37.6611V39.8494H27.2271V37.6611H27.4615Z" fill="#FFF"/>
<path d="M29.5599 39.648V39.8494H28.5784V39.648H29.5599ZM28.6265 37.6611V39.8494H28.3965V37.6611H28.6265ZM29.4321 38.6185V38.8213H28.5784V38.6185H29.4321ZM29.5478 37.6611V37.864H28.5784V37.6611H29.5478Z" fill="#FFF"/>
<path d="M31.728 37.6611V39.8494H31.498V37.6611H31.728Z" fill="#FFF"/>
<path d="M32.7739 37.6611H33.0114L33.7704 39.5098L34.528 37.6611H34.7668L33.8621 39.8494H33.6772L32.7739 37.6611ZM32.6973 37.6611H32.9077L32.9392 38.9506V39.8494H32.6973V37.6611ZM34.6332 37.6611H34.8434V39.8494H34.6016V38.9506L34.6332 37.6611Z" fill="#FFF"/>
<path d="M35.8852 37.6611H36.1229L36.8819 39.5098L37.6395 37.6611H37.8782L36.9735 39.8494H36.7885L35.8852 37.6611ZM35.8086 37.6611H36.0189L36.0507 38.9506V39.8494H35.8086V37.6611ZM37.7445 37.6611H37.9551V39.8494H37.713V38.9506L37.7445 37.6611Z" fill="#FFF"/>
<path d="M39.9605 37.6611H40.189V39.2016C40.189 39.3658 40.1585 39.4978 40.0973 39.597C40.0361 39.6962 39.955 39.7684 39.8538 39.8135C39.7536 39.8573 39.6445 39.8795 39.5261 39.8795C39.4009 39.8795 39.2881 39.8573 39.1879 39.8135C39.0887 39.7684 39.0097 39.6962 38.9505 39.597C38.8924 39.4978 38.8633 39.3658 38.8633 39.2016V37.6611H39.0918V39.2016C39.0918 39.3227 39.1099 39.4181 39.1458 39.4872C39.1831 39.5553 39.234 39.6045 39.299 39.6346C39.3643 39.6637 39.4399 39.6781 39.5261 39.6781C39.6123 39.6781 39.6879 39.6637 39.7532 39.6346C39.8182 39.6045 39.8688 39.5553 39.9047 39.4872C39.942 39.4181 39.9605 39.3227 39.9605 39.2016V37.6611Z" fill="#FFF"/>
<path d="M42.7435 37.6611V39.8494H42.5L41.3275 38.0805V39.8494H41.084V37.6611H41.3275L42.5027 39.4332V37.6611H42.7435Z" fill="#FFF"/>
<path d="M44.8449 39.648V39.8494H43.8633V39.648H44.8449ZM43.9115 37.6611V39.8494H43.6816V37.6611H43.9115ZM44.717 38.6185V38.8213H43.8633V38.6185H44.717ZM44.8329 37.6611V37.864H43.8633V37.6611H44.8329Z" fill="#FFF"/>
<path d="M47.7655 39.3015C47.7655 39.2464 47.7583 39.1979 47.7443 39.1558C47.7313 39.1127 47.7077 39.0741 47.6738 39.0402C47.6406 39.005 47.5952 38.9725 47.537 38.9424C47.4789 38.9113 47.4057 38.8801 47.3174 38.8494C47.2261 38.8182 47.144 38.7837 47.0708 38.7454C46.9976 38.7064 46.935 38.6623 46.8831 38.6134C46.8311 38.5631 46.7907 38.5056 46.7627 38.4403C46.7356 38.3743 46.7223 38.2987 46.7223 38.2135C46.7223 38.1284 46.7367 38.05 46.7657 37.9789C46.7958 37.9078 46.8386 37.8462 46.8937 37.7942C46.9487 37.7419 47.0144 37.7019 47.0903 37.6738C47.1666 37.6447 47.2514 37.6304 47.3444 37.6304C47.4819 37.6304 47.5986 37.6608 47.6947 37.722C47.7908 37.7829 47.864 37.8636 47.9143 37.9638C47.9652 38.063 47.9909 38.1715 47.9909 38.2884H47.7624C47.7624 38.2005 47.7467 38.1222 47.7159 38.0541C47.6848 37.9861 47.6386 37.9324 47.5774 37.8934C47.5165 37.8534 47.4392 37.8332 47.3462 37.8332C47.2569 37.8332 47.183 37.8503 47.1252 37.8842C47.0671 37.9173 47.0233 37.9625 46.9942 38.0196C46.9662 38.0757 46.9521 38.1386 46.9521 38.2091C46.9521 38.258 46.9604 38.3031 46.9761 38.3442C46.9932 38.3842 47.0192 38.4215 47.0544 38.4553C47.0896 38.4895 47.1344 38.5217 47.1899 38.5518C47.2459 38.5805 47.313 38.6089 47.391 38.6359C47.4943 38.6688 47.5839 38.706 47.6601 38.7471C47.7364 38.7881 47.799 38.8353 47.8479 38.8883C47.8982 38.9403 47.9351 39.0005 47.9594 39.0686C47.9844 39.136 47.9967 39.2126 47.9967 39.2988C47.9967 39.3877 47.9813 39.4684 47.9502 39.5406C47.9201 39.6117 47.877 39.6723 47.8209 39.7225C47.7648 39.7725 47.6971 39.8111 47.6181 39.8381C47.5397 39.8652 47.4529 39.8788 47.3564 39.8788C47.2723 39.8788 47.1892 39.8659 47.1071 39.8399C47.025 39.8128 46.9501 39.7715 46.8831 39.7164C46.817 39.6613 46.7633 39.5926 46.7223 39.5105C46.6823 39.4274 46.6621 39.3296 46.6621 39.2174H46.8937C46.8937 39.2998 46.906 39.3699 46.9313 39.4281C46.9573 39.4859 46.9918 39.5337 47.0349 39.5707C47.079 39.6076 47.1286 39.635 47.1837 39.6517C47.2398 39.6688 47.2973 39.6774 47.3564 39.6774C47.4436 39.6774 47.5179 39.662 47.5791 39.6309C47.64 39.5998 47.6861 39.5563 47.7173 39.4999C47.7494 39.4438 47.7655 39.3778 47.7655 39.3015Z" fill="#FFF"/>
<path d="M48.8685 37.6611L49.4503 38.8004L50.0348 37.6611H50.3084L49.5703 39.0289V39.8494H49.3299V39.0289L48.5918 37.6611H48.8685Z" fill="#FFF"/>
<path d="M52.0194 39.3015C52.0194 39.2464 52.0122 39.1979 51.9982 39.1558C51.9852 39.1127 51.9616 39.0741 51.9277 39.0402C51.8945 39.005 51.8491 38.9725 51.7909 38.9424C51.7328 38.9113 51.6596 38.8801 51.5713 38.8494C51.4804 38.8182 51.3979 38.7837 51.3251 38.7454C51.2519 38.7064 51.1893 38.6623 51.137 38.6134C51.085 38.5631 51.045 38.5056 51.0169 38.4403C50.9899 38.3743 50.9762 38.2987 50.9762 38.2135C50.9762 38.1284 50.9909 38.05 51.02 37.9789C51.0497 37.9078 51.0925 37.8462 51.1476 37.7942C51.2026 37.7419 51.2683 37.7019 51.3446 37.6738C51.4205 37.6447 51.5053 37.6304 51.5984 37.6304C51.7358 37.6304 51.8525 37.6608 51.9486 37.722C52.045 37.7829 52.1179 37.8636 52.1682 37.9638C52.2191 38.063 52.2448 38.1715 52.2448 38.2884H52.0163C52.0163 38.2005 52.0009 38.1222 51.9698 38.0541C51.9387 37.9861 51.8925 37.9324 51.8316 37.8934C51.7704 37.8534 51.6931 37.8332 51.6001 37.8332C51.5108 37.8332 51.4373 37.8503 51.3791 37.8842C51.321 37.9173 51.2772 37.9625 51.2481 38.0196C51.2201 38.0757 51.2061 38.1386 51.2061 38.2091C51.2061 38.258 51.2143 38.3031 51.2303 38.3442C51.2474 38.3842 51.2734 38.4215 51.3083 38.4553C51.3435 38.4895 51.3887 38.5217 51.4438 38.5518C51.4999 38.5805 51.5669 38.6089 51.6452 38.6359C51.7482 38.6688 51.8381 38.706 51.914 38.7471C51.9903 38.7881 52.0529 38.8353 52.1022 38.8883C52.1521 38.9403 52.189 39.0005 52.2133 39.0686C52.2383 39.136 52.2509 39.2126 52.2509 39.2988C52.2509 39.3877 52.2352 39.4684 52.2041 39.5406C52.1743 39.6117 52.1312 39.6723 52.0748 39.7225C52.0187 39.7725 51.9513 39.8111 51.872 39.8381C51.794 39.8652 51.7068 39.8788 51.6107 39.8788C51.5262 39.8788 51.4431 39.8659 51.361 39.8399C51.2789 39.8128 51.2043 39.7715 51.137 39.7164C51.071 39.6613 51.0173 39.5926 50.9762 39.5105C50.9362 39.4274 50.916 39.3296 50.916 39.2174H51.1476C51.1476 39.2998 51.1602 39.3699 51.1852 39.4281C51.2112 39.4859 51.2457 39.5337 51.2888 39.5707C51.3329 39.6076 51.3825 39.635 51.4376 39.6517C51.4937 39.6688 51.5515 39.6774 51.6107 39.6774C51.6975 39.6774 51.7718 39.662 51.833 39.6309C51.8942 39.5998 51.94 39.5563 51.9712 39.4999C52.0033 39.4438 52.0194 39.3778 52.0194 39.3015Z" fill="#FFF"/>
<path d="M53.7265 37.6611V39.8494H53.4994V37.6611H53.7265ZM54.323 37.6611V37.864H52.9043V37.6611H54.323Z" fill="#FFF"/>
<path d="M56.2926 39.648V39.8494H55.2693V39.648H56.2926ZM55.3189 37.6611V39.8494H55.0859V37.6611H55.3189ZM56.1606 38.6198V38.8213H55.2693V38.6198H56.1606ZM56.2806 37.6611V37.864H55.2693V37.6611H56.2806Z" fill="#FFF"/>
<path d="M57.1782 37.6611H57.4159L58.1748 39.5098L58.9324 37.6611H59.1712L58.2665 39.8494H58.0815L57.1782 37.6611ZM57.1016 37.6611H57.3119L57.3437 38.9506V39.8494H57.1016V37.6611ZM59.0374 37.6611H59.2478V39.8494H59.006V38.9506L59.0374 37.6611Z" fill="#FFF"/>
<path d="M80.0275 37.6025V38.1382H79.9086V37.6025H80.0275ZM80.1587 37.6025V37.6981H79.7812V37.6025H80.1587Z" fill="#FFF"/>
<path d="M80.3226 37.6025H80.4219L80.5161 37.9721L80.6103 37.6025H80.7045L80.5572 38.1382H80.475L80.3226 37.6025ZM80.2695 37.6025H80.3695L80.387 37.9899V38.1382H80.2695V37.6025ZM80.6627 37.6025H80.7624V38.1382H80.6449V37.9899L80.6627 37.6025Z" fill="#FFF"/>
<path d="M62.0956 38.612C61.9889 38.7392 61.8904 38.8746 61.8001 39.0182C61.714 39.1577 61.6463 39.3054 61.597 39.4613C61.5806 39.5188 61.5663 39.5783 61.554 39.6398C61.5416 39.6973 61.5355 39.7567 61.5355 39.8183C61.5355 39.8798 61.5457 39.9373 61.5663 39.9906C61.5868 40.0481 61.6196 40.0993 61.6647 40.1445C61.755 40.2306 61.8637 40.286 61.9909 40.3107C62.1181 40.3353 62.2412 40.3476 62.3602 40.3476C62.5202 40.3517 62.6782 40.3414 62.8341 40.3168C62.9941 40.2922 63.1521 40.2594 63.308 40.2183C63.4475 40.1855 63.5849 40.1445 63.7203 40.0952C63.8557 40.0501 63.987 39.9927 64.1142 39.9229C64.1388 39.9106 64.1614 39.9086 64.1819 39.9168C64.2024 39.925 64.2189 39.9373 64.2312 39.9537C64.2435 39.9742 64.2476 39.9968 64.2435 40.0214C64.2394 40.046 64.225 40.0645 64.2004 40.0768C64.1676 40.0932 64.1368 40.1076 64.1081 40.1199C64.0793 40.1363 64.0486 40.1506 64.0158 40.1629C63.7121 40.2983 63.39 40.3968 63.0495 40.4584C62.8854 40.4912 62.7192 40.5138 62.551 40.5261C62.3828 40.5384 62.2145 40.5302 62.0463 40.5014C61.915 40.4809 61.7899 40.4378 61.6709 40.3722C61.556 40.3107 61.4698 40.2163 61.4124 40.0891C61.3796 40.0193 61.3611 39.9455 61.357 39.8675C61.3529 39.7937 61.357 39.7178 61.3693 39.6398C61.3816 39.5619 61.4001 39.4859 61.4247 39.4121C61.4534 39.3382 61.4821 39.2664 61.5109 39.1967C61.5888 39.0244 61.6832 38.8623 61.794 38.7105C61.9089 38.5546 62.032 38.4069 62.1632 38.2674C62.3069 38.1114 62.4587 37.9637 62.6187 37.8242C62.7828 37.6847 62.951 37.5514 63.1234 37.4242C63.4598 37.1739 63.8086 36.9544 64.1696 36.7657C64.3214 36.6836 64.4753 36.6097 64.6312 36.5441C64.7871 36.4743 64.9471 36.4169 65.1113 36.3718C65.1892 36.3513 65.2672 36.3348 65.3451 36.3225C65.4231 36.3061 65.5031 36.2959 65.5852 36.2918C65.6549 36.2877 65.7288 36.2938 65.8067 36.3102C65.8847 36.3266 65.9483 36.3636 65.9975 36.421C66.0549 36.4908 66.0816 36.5687 66.0775 36.6549C66.0734 36.7369 66.0529 36.821 66.016 36.9072C65.979 36.9934 65.9339 37.0775 65.8806 37.1595C65.8272 37.2375 65.7821 37.3031 65.7452 37.3565C65.7288 37.3811 65.7082 37.3955 65.6836 37.3996C65.659 37.3996 65.6364 37.3955 65.6159 37.3873C65.5995 37.375 65.5872 37.3585 65.579 37.338C65.5708 37.3175 65.5749 37.2949 65.5913 37.2703C65.657 37.176 65.7164 37.0857 65.7698 36.9995C65.8026 36.9421 65.8334 36.8805 65.8621 36.8149C65.8949 36.7451 65.9072 36.6754 65.899 36.6056C65.8908 36.5482 65.8601 36.5113 65.8067 36.4949C65.7534 36.4784 65.7021 36.4682 65.6529 36.4641C65.5092 36.4559 65.3656 36.4723 65.222 36.5133C65.0784 36.5544 64.941 36.6015 64.8097 36.6549C64.6374 36.7246 64.4302 36.8272 64.1881 36.9626C63.9501 37.098 63.7039 37.2539 63.4495 37.4303C63.1993 37.6068 62.9531 37.7976 62.711 38.0027C62.473 38.2079 62.2679 38.411 62.0956 38.612Z" fill="#FFF"/>
<path d="M67.481 39.1344C67.5056 39.1221 67.5261 39.12 67.5425 39.1282C67.559 39.1364 67.5713 39.1508 67.5795 39.1713C67.5877 39.1877 67.5897 39.2082 67.5856 39.2329C67.5815 39.2534 67.5672 39.2719 67.5425 39.2883C67.4769 39.3334 67.4009 39.3786 67.3148 39.4237C67.2286 39.4689 67.1362 39.5099 67.0377 39.5468C66.9433 39.5838 66.8489 39.6166 66.7545 39.6453C66.6601 39.6741 66.5739 39.6925 66.4959 39.7008C66.3769 39.7131 66.2579 39.7172 66.1389 39.7131C66.0239 39.709 65.9131 39.6782 65.8064 39.6207C65.7736 39.6536 65.7366 39.6843 65.6956 39.7131C65.6546 39.7377 65.6156 39.7603 65.5786 39.7808C65.5417 39.8013 65.5006 39.8177 65.4555 39.83C65.4104 39.8424 65.3652 39.8485 65.3201 39.8485C65.2749 39.8485 65.2339 39.8383 65.1969 39.8177C65.16 39.7972 65.1333 39.7623 65.1169 39.7131C65.0964 39.6597 65.0923 39.6043 65.1046 39.5468C65.1169 39.4894 65.1395 39.436 65.1723 39.3868C65.201 39.3334 65.238 39.2862 65.2831 39.2452C65.3242 39.2 65.3652 39.1631 65.4062 39.1344C65.4883 39.081 65.5745 39.0605 65.6648 39.0728C65.7592 39.0851 65.8372 39.1282 65.8988 39.2021C65.9152 39.2185 65.9234 39.239 65.9234 39.2636C65.9562 39.3088 65.9665 39.356 65.9542 39.4052C65.9501 39.4217 65.9398 39.4463 65.9234 39.4791C65.9809 39.512 66.0465 39.5325 66.1204 39.5407C66.1943 39.5448 66.2661 39.5468 66.3359 39.5468C66.4385 39.5468 66.5411 39.5345 66.6437 39.5099C66.7504 39.4812 66.851 39.4483 66.9454 39.4114C67.0439 39.3704 67.1383 39.3252 67.2286 39.276C67.3189 39.2267 67.403 39.1795 67.481 39.1344ZM65.3816 39.6761C65.435 39.6597 65.4863 39.6371 65.5355 39.6084C65.5848 39.5756 65.6299 39.5386 65.671 39.4976C65.6464 39.4607 65.634 39.4176 65.634 39.3683C65.634 39.3273 65.6464 39.2903 65.671 39.2575C65.6176 39.2411 65.5643 39.2513 65.5109 39.2883C65.4576 39.3211 65.4124 39.3601 65.3755 39.4052C65.3508 39.4381 65.3262 39.475 65.3016 39.5161C65.277 39.5571 65.2688 39.5982 65.277 39.6392C65.2811 39.672 65.2934 39.6884 65.3139 39.6884C65.3344 39.6884 65.357 39.6843 65.3816 39.6761Z" fill="#FFF"/>
<path d="M70.928 39.1451C70.9567 39.1287 70.9813 39.1225 71.0019 39.1266C71.0265 39.1307 71.0449 39.141 71.0572 39.1574C71.0696 39.1697 71.0737 39.1861 71.0696 39.2066C71.0654 39.2271 71.0511 39.2436 71.0265 39.2559C70.8541 39.3502 70.6777 39.4344 70.4972 39.5082C70.3167 39.578 70.1402 39.6354 69.9679 39.6805C69.7997 39.7257 69.6376 39.7564 69.4817 39.7728C69.3299 39.7893 69.1924 39.7872 69.0693 39.7667C68.9996 39.7585 68.9339 39.7359 68.8724 39.699C68.815 39.658 68.778 39.6005 68.7616 39.5267C68.7493 39.4733 68.7493 39.422 68.7616 39.3728C68.7739 39.3195 68.7924 39.2702 68.817 39.2251C68.7965 39.2374 68.778 39.2518 68.7616 39.2682C68.7452 39.2805 68.7267 39.2948 68.7062 39.3113C68.6365 39.3646 68.5688 39.4179 68.5031 39.4713C68.4416 39.5246 68.3759 39.5759 68.3062 39.6251C68.2692 39.6539 68.2241 39.6846 68.1708 39.7175C68.1174 39.7462 68.0682 39.7462 68.0231 39.7175C67.9902 39.701 67.9697 39.6785 67.9615 39.6498C67.9574 39.6169 67.9574 39.5841 67.9615 39.5513C67.9697 39.5185 67.98 39.4877 67.9923 39.459C68.0087 39.4261 68.0231 39.3974 68.0354 39.3728C68.0518 39.3482 68.0682 39.3236 68.0846 39.299C68.101 39.2743 68.1154 39.2477 68.1277 39.2189C68.0703 39.2395 68.0128 39.2702 67.9554 39.3113C67.902 39.3482 67.8507 39.3831 67.8015 39.4159C67.74 39.461 67.6784 39.5062 67.6169 39.5513C67.5594 39.5923 67.4979 39.6333 67.4322 39.6744C67.4117 39.6867 67.3892 39.699 67.3645 39.7113C67.3358 39.7195 67.3091 39.7236 67.2845 39.7236C67.2599 39.7236 67.2394 39.7175 67.223 39.7051C67.2025 39.6887 67.1902 39.6621 67.1861 39.6251C67.182 39.5677 67.2025 39.5082 67.2476 39.4467C67.2886 39.381 67.3256 39.3256 67.3584 39.2805C67.3748 39.26 67.3851 39.2456 67.3892 39.2374C67.3933 39.2292 67.3974 39.223 67.4015 39.2189C67.4056 39.2148 67.4117 39.2087 67.4199 39.2005C67.424 39.1923 67.4343 39.1779 67.4507 39.1574C67.4671 39.1369 67.4856 39.1266 67.5061 39.1266C67.5307 39.1266 67.5492 39.1348 67.5615 39.1512C67.5779 39.1636 67.5882 39.182 67.5923 39.2066C67.6005 39.2271 67.5964 39.2497 67.5799 39.2743C67.5635 39.299 67.5512 39.3174 67.543 39.3297C67.5348 39.3379 67.5266 39.3461 67.5184 39.3543C67.5143 39.3625 67.5081 39.3749 67.4999 39.3913C67.4958 39.4036 67.4856 39.4241 67.4692 39.4528C67.5635 39.3872 67.6579 39.3195 67.7523 39.2497C67.8466 39.18 67.9472 39.1225 68.0538 39.0774C68.0785 39.0692 68.1051 39.061 68.1339 39.0528C68.1626 39.0446 68.1892 39.0425 68.2139 39.0466C68.2426 39.0466 68.2672 39.0548 68.2877 39.0712C68.3082 39.0835 68.3226 39.1061 68.3308 39.1389C68.3431 39.1964 68.3287 39.26 68.2877 39.3297C68.2467 39.3954 68.2098 39.4651 68.1769 39.539C68.2262 39.5062 68.2734 39.4713 68.3185 39.4344C68.3677 39.3974 68.4149 39.3605 68.46 39.3236C68.5175 39.2784 68.5729 39.2333 68.6262 39.1882C68.6837 39.143 68.7431 39.102 68.8047 39.0651C68.8457 39.0446 68.8929 39.024 68.9462 39.0035C68.9996 38.983 69.0488 38.9892 69.094 39.022C69.1473 39.063 69.1534 39.1102 69.1124 39.1636C69.0796 39.2087 69.0406 39.2661 68.9955 39.3359C68.9545 39.4056 68.9442 39.4692 68.9647 39.5267C68.9811 39.5718 69.018 39.6026 69.0755 39.619C69.137 39.6354 69.1883 39.6436 69.2294 39.6436C69.4673 39.6436 69.732 39.6046 70.0233 39.5267C70.3146 39.4446 70.6162 39.3174 70.928 39.1451Z" fill="#FFF"/>
<path d="M73.2291 39.127C73.2578 39.1229 73.2804 39.1291 73.2968 39.1455C73.3132 39.1578 73.3214 39.1742 73.3214 39.1947C73.3214 39.2111 73.3153 39.2296 73.303 39.2501C73.2906 39.2665 73.2701 39.2768 73.2414 39.2809C72.9706 39.3178 72.6937 39.3732 72.4106 39.4471C72.1315 39.5168 71.8607 39.5927 71.5982 39.6748C71.5612 39.724 71.5079 39.7794 71.4381 39.841C71.3684 39.8984 71.3089 39.9394 71.2597 39.964C71.2227 39.9846 71.1817 39.9948 71.1366 39.9948C71.0955 39.9989 71.0607 39.9805 71.0319 39.9394C71.0114 39.9066 71.0032 39.8717 71.0073 39.8348C71.0155 39.7979 71.034 39.7671 71.0627 39.7425C71.0996 39.7097 71.1427 39.683 71.192 39.6625C71.2412 39.642 71.2884 39.6235 71.3335 39.6071L71.4258 39.5702C71.4422 39.5455 71.4566 39.5209 71.4689 39.4963C71.4853 39.4676 71.4874 39.443 71.4751 39.4224C71.4669 39.4019 71.4504 39.3958 71.4258 39.404C71.4012 39.4081 71.3745 39.4204 71.3458 39.4409C71.3171 39.4573 71.2904 39.4758 71.2658 39.4963C71.2412 39.5168 71.2166 39.5373 71.192 39.5578C71.1222 39.6153 71.0566 39.6768 70.995 39.7425C70.9335 39.8081 70.874 39.8758 70.8165 39.9456C70.6852 40.0933 70.5601 40.2451 70.4411 40.401C70.3221 40.5569 70.2031 40.7149 70.0841 40.8749L69.8441 41.2073L69.7703 41.3057C69.7498 41.3262 69.7292 41.3406 69.7087 41.3488C69.6882 41.357 69.6677 41.3529 69.6472 41.3365C69.6226 41.3242 69.6061 41.3078 69.5979 41.2873C69.5897 41.2462 69.6041 41.2031 69.641 41.158C69.6779 41.1129 69.7067 41.0739 69.7272 41.0411C69.838 40.8852 69.9487 40.7293 70.0595 40.5733C70.1662 40.4215 70.2729 40.2677 70.3796 40.1118C70.4821 39.9599 70.5847 39.8081 70.6873 39.6563C70.7899 39.5004 70.8781 39.3383 70.9519 39.1701C70.9642 39.1455 70.9807 39.1311 71.0012 39.127C71.0217 39.1229 71.0401 39.127 71.0566 39.1393C71.0771 39.1516 71.0935 39.1701 71.1058 39.1947C71.1181 39.2152 71.1181 39.2378 71.1058 39.2624C71.0648 39.3568 71.0217 39.4409 70.9766 39.5148L71.0504 39.4409C71.1037 39.3958 71.1612 39.3506 71.2227 39.3055C71.2843 39.2563 71.3499 39.2255 71.4197 39.2132C71.4976 39.1968 71.5612 39.2193 71.6105 39.2809C71.6638 39.3383 71.6802 39.4183 71.6597 39.5209C71.9346 39.4265 72.1931 39.3506 72.4352 39.2932C72.6772 39.2317 72.9419 39.1763 73.2291 39.127Z" fill="#FFF"/>
<path d="M75.5678 39.1393C75.5883 39.127 75.6088 39.1249 75.6293 39.1331C75.6498 39.1372 75.6663 39.1475 75.6786 39.1639C75.6909 39.1803 75.695 39.2009 75.6909 39.2255C75.6909 39.246 75.6786 39.2624 75.6539 39.2747C75.4816 39.3773 75.3256 39.4635 75.1861 39.5333C75.0465 39.6031 74.9193 39.6626 74.8044 39.7118C74.6935 39.757 74.5909 39.7919 74.4965 39.8165C74.4021 39.837 74.3139 39.8493 74.2318 39.8534C74.1866 39.8575 74.1374 39.8596 74.084 39.8596C74.0348 39.8596 73.9835 39.8534 73.9301 39.8411C73.8809 39.8247 73.8337 39.8001 73.7885 39.7673C73.7434 39.7344 73.7023 39.6852 73.6654 39.6195C73.6408 39.5702 73.6223 39.5169 73.61 39.4594C73.5402 39.5333 73.4663 39.6051 73.3884 39.6749C73.3145 39.7406 73.2303 39.7919 73.1359 39.8288C73.0867 39.8493 73.0354 39.8596 72.982 39.8596C72.9246 39.8596 72.8794 39.8309 72.8466 39.7734C72.8343 39.7488 72.8281 39.718 72.8281 39.6811C72.8281 39.6441 72.8343 39.6072 72.8466 39.5702C72.8548 39.5333 72.8671 39.4984 72.8835 39.4656C72.8999 39.4287 72.9143 39.3999 72.9266 39.3794C72.9595 39.326 73.0046 39.2747 73.0621 39.2255C73.1195 39.1762 73.1811 39.1393 73.2468 39.1147C73.3165 39.09 73.3843 39.0798 73.4499 39.0839C73.5197 39.088 73.5833 39.1167 73.6408 39.1701C73.6695 39.1578 73.6982 39.1598 73.727 39.1762C73.7598 39.1927 73.7742 39.2173 73.7701 39.2501C73.7619 39.2912 73.7619 39.3363 73.7701 39.3856C73.7824 39.4348 73.8008 39.482 73.8255 39.5272C73.8542 39.5682 73.8891 39.6051 73.9301 39.638C73.9753 39.6667 74.0286 39.6852 74.0902 39.6934C74.1641 39.7057 74.2646 39.6954 74.3919 39.6626C74.5232 39.6257 74.6607 39.5785 74.8044 39.521C74.948 39.4635 75.0875 39.402 75.223 39.3363C75.3584 39.2665 75.4734 39.2009 75.5678 39.1393ZM73.0128 39.6872C73.0374 39.6872 73.0723 39.6729 73.1175 39.6441C73.1585 39.6154 73.2037 39.5826 73.2529 39.5456C73.3022 39.5046 73.3514 39.4615 73.4007 39.4163C73.4499 39.3712 73.491 39.3301 73.5238 39.2932L73.4869 39.2747C73.4458 39.2583 73.3986 39.2542 73.3453 39.2624C73.296 39.2706 73.2529 39.2912 73.216 39.324C73.1708 39.3609 73.1257 39.4143 73.0805 39.4841C73.0354 39.5497 73.0087 39.6113 73.0005 39.6688C73.0005 39.6811 73.0046 39.6872 73.0128 39.6872Z" fill="#FFF"/>
<path d="M77.9439 39.1488C77.9686 39.1324 77.9911 39.1283 78.0117 39.1365C78.0322 39.1406 78.0465 39.1529 78.0548 39.1734C78.063 39.1899 78.063 39.2104 78.0548 39.235C78.0507 39.2596 78.0363 39.2802 78.0117 39.2966C77.9419 39.3417 77.8639 39.3869 77.7777 39.432C77.6956 39.4772 77.6094 39.5223 77.5191 39.5675C77.433 39.6126 77.3447 39.6557 77.2544 39.6967C77.1682 39.7337 77.0861 39.7645 77.0082 39.7891C76.9056 39.8219 76.7988 39.8507 76.688 39.8753C76.5772 39.8999 76.4684 39.904 76.3617 39.8876C76.3002 39.8794 76.2427 39.8589 76.1893 39.826C76.136 39.7932 76.1011 39.7439 76.0847 39.6783C76.0724 39.6331 76.0724 39.5859 76.0847 39.5367C76.097 39.4874 76.1134 39.4402 76.1339 39.3951L75.9308 39.5121C75.8651 39.5531 75.7994 39.5941 75.7338 39.6352C75.6722 39.6721 75.6065 39.707 75.5368 39.7398C75.4998 39.7604 75.4567 39.7829 75.4075 39.8076C75.3541 39.8281 75.3049 39.8322 75.2597 39.8199C75.2187 39.8076 75.1941 39.787 75.1858 39.7583C75.1776 39.7296 75.1776 39.6988 75.1858 39.666C75.1899 39.6331 75.2023 39.6023 75.2228 39.5736C75.2392 39.5408 75.2556 39.5141 75.272 39.4936C75.2967 39.4607 75.3315 39.4197 75.3767 39.3705C75.4177 39.3212 75.4731 39.2535 75.5429 39.1673C75.5634 39.1427 75.5881 39.1303 75.6168 39.1303C75.6455 39.1303 75.6702 39.1488 75.6907 39.1858C75.7071 39.2145 75.703 39.2432 75.6784 39.2719C75.6578 39.3007 75.6394 39.3253 75.623 39.3458C75.5942 39.3787 75.5675 39.4115 75.5429 39.4443C75.5142 39.4772 75.4875 39.51 75.4629 39.5428L75.4075 39.6167C75.5183 39.5716 75.6271 39.5141 75.7338 39.4443C75.8446 39.3746 75.9513 39.3089 76.0539 39.2473C76.0991 39.2227 76.1421 39.1981 76.1832 39.1734C76.2283 39.1447 76.2735 39.1201 76.3186 39.0996C76.3392 39.0914 76.3597 39.0852 76.3802 39.0811C76.4007 39.0729 76.4212 39.0749 76.4418 39.0873C76.4664 39.1037 76.4808 39.1262 76.4849 39.155C76.489 39.1796 76.4849 39.2042 76.4725 39.2289C76.4356 39.2945 76.3884 39.3602 76.3309 39.4259C76.2735 39.4915 76.2468 39.5654 76.2509 39.6475C76.2509 39.6762 76.2653 39.6988 76.294 39.7152C76.3186 39.7275 76.3453 39.7357 76.374 39.7398C76.4028 39.7398 76.4315 39.7398 76.4602 39.7398C76.5587 39.7398 76.6552 39.7275 76.7496 39.7029C76.8481 39.6742 76.9445 39.6434 77.0389 39.6106C77.1046 39.5859 77.1785 39.5551 77.2606 39.5182C77.3427 39.4813 77.4247 39.4423 77.5068 39.4012C77.5889 39.3602 77.6669 39.3191 77.7408 39.2781C77.8188 39.233 77.8865 39.1899 77.9439 39.1488Z" fill="#FFF"/>
<path d="M80.5885 39.1329C80.6213 39.1246 80.6459 39.1267 80.6623 39.139C80.6828 39.1513 80.6951 39.1677 80.6992 39.1882C80.7033 39.2088 80.6992 39.2293 80.6869 39.2498C80.6787 39.2703 80.6623 39.2847 80.6377 39.2929L80.3423 39.3852C80.0263 39.4919 79.7145 39.6067 79.4068 39.7298C79.0991 39.8529 78.7975 39.9883 78.5021 40.136C78.4816 40.173 78.461 40.2099 78.4405 40.2468C78.4241 40.2837 78.4057 40.3186 78.3851 40.3514C78.299 40.5074 78.2046 40.6571 78.102 40.8007C77.9995 40.9443 77.8887 41.0818 77.7697 41.2131C77.6876 41.2992 77.5953 41.3854 77.4927 41.4716C77.3902 41.5618 77.2794 41.6193 77.1604 41.6439C77.0619 41.6644 76.9737 41.6439 76.8957 41.5823C76.8178 41.5249 76.7747 41.4449 76.7665 41.3423C76.7624 41.2849 76.7727 41.2295 76.7973 41.1762C76.8178 41.1228 76.8465 41.0715 76.8834 41.0223C76.9163 40.9772 76.9552 40.9341 77.0004 40.893C77.0414 40.852 77.0804 40.8151 77.1173 40.7823C77.2568 40.6633 77.4045 40.5545 77.5604 40.4561C77.7163 40.3576 77.8743 40.2653 78.0343 40.1791L78.3605 40.0129C78.4057 39.9432 78.4426 39.8652 78.4713 39.7791C78.5041 39.6929 78.5349 39.5965 78.5636 39.4898C78.5062 39.5226 78.4508 39.5575 78.3974 39.5944C78.3441 39.6273 78.2887 39.6601 78.2313 39.6929C78.1738 39.7257 78.1123 39.7524 78.0466 39.7729C77.9851 39.7893 77.9236 39.7811 77.862 39.7483C77.8046 39.7155 77.7717 39.6744 77.7635 39.6252C77.7553 39.5719 77.7615 39.5165 77.782 39.459C77.7984 39.4016 77.823 39.3462 77.8558 39.2929C77.8887 39.2395 77.9174 39.1964 77.942 39.1636C77.9584 39.1431 77.9789 39.1329 78.0036 39.1329C78.0282 39.1288 78.0487 39.1329 78.0651 39.1452C78.0856 39.1534 78.1 39.1677 78.1082 39.1882C78.1164 39.2088 78.1123 39.2313 78.0959 39.2559L78.0405 39.3421C78.0323 39.3544 78.02 39.3749 78.0036 39.4037C77.9871 39.4283 77.9728 39.4549 77.9605 39.4837C77.9482 39.5083 77.94 39.5329 77.9359 39.5575C77.9318 39.5821 77.94 39.5985 77.9605 39.6067C77.981 39.615 78.0036 39.6129 78.0282 39.6006C78.0569 39.5883 78.0815 39.578 78.102 39.5698C78.139 39.5493 78.1738 39.5288 78.2067 39.5083C78.2436 39.4878 78.2785 39.4672 78.3113 39.4467C78.3564 39.4139 78.4057 39.379 78.459 39.3421C78.5123 39.3011 78.5677 39.2744 78.6252 39.2621C78.6703 39.2539 78.7011 39.26 78.7175 39.2806C78.7339 39.3011 78.7442 39.3298 78.7483 39.3667C78.7524 39.3995 78.7503 39.4344 78.7421 39.4714C78.7339 39.5083 78.7277 39.539 78.7236 39.5637C78.7154 39.6047 78.7072 39.6375 78.699 39.6621C78.6908 39.6868 78.6826 39.7114 78.6744 39.736C78.6662 39.7565 78.6559 39.7811 78.6436 39.8098C78.6354 39.8345 78.6231 39.8652 78.6067 39.9022C78.9267 39.7504 79.2529 39.6109 79.5853 39.4837C79.9176 39.3565 80.252 39.2395 80.5885 39.1329ZM77.9112 40.7761C78.0261 40.6161 78.1287 40.4581 78.219 40.3022L77.942 40.4499C77.8025 40.532 77.6651 40.6161 77.5297 40.7023C77.3943 40.7925 77.2671 40.8951 77.1481 41.01C77.1112 41.0428 77.0763 41.0797 77.0435 41.1208C77.0065 41.1618 76.9778 41.2049 76.9573 41.25C76.9327 41.3074 76.9347 41.3608 76.9634 41.41C76.9963 41.4634 77.0414 41.488 77.0988 41.4839C77.1317 41.4798 77.1706 41.4654 77.2158 41.4408C77.2568 41.4203 77.2937 41.3977 77.3266 41.3731C77.4456 41.291 77.5543 41.1946 77.6528 41.0838C77.7471 40.9772 77.8353 40.8664 77.9174 40.7515L77.9112 40.7761Z" fill="#FFF"/>
</g>
</svg>
