<svg width="83" height="38" viewBox="0 0 83 38" fill="none" xmlns="http://www.w3.org/2000/svg">
<path d="M0.162109 37.3107V19.927C0.162109 19.8325 0.238743 19.7559 0.333276 19.7559H2.32344C2.49328 19.7559 2.57719 20.0005 2.45624 20.1197C1.83131 20.7357 1.0614 21.8995 1.0614 23.4384C1.0614 25.264 1.86982 25.5605 3.1893 25.5605H6.60442C10.9199 25.5605 12.1462 22.9078 12.1462 21.8936C12.1462 21.0651 11.6195 20.4577 11.183 20.0713C11.0608 19.9632 11.1316 19.7559 11.2947 19.7559H15.9969C16.0914 19.7559 16.1671 19.8324 16.1625 19.9268C16.1215 20.7794 15.7518 22.184 14.04 23.6568C13.0623 24.498 11.5965 25.1053 10.4907 25.493C10.3058 25.5578 10.3502 25.8414 10.5461 25.8414H12.9922C16.1589 25.8414 15.1295 28.345 14.692 29.1962C14.2107 30.1324 13.683 31.2169 13.1785 32.239C11.9525 34.7226 13.4191 35.2817 15.1732 35.8123C16.4531 36.1994 16.5736 36.7806 16.6177 37.2964C16.6262 37.3963 16.5471 37.4819 16.447 37.4819H13.062C9.7401 37.4819 10.7336 34.9696 11.1837 34.0802C11.6339 33.1908 11.6727 33.0815 12.7127 31.1467C13.7528 29.2118 12.7127 28.9465 11.696 28.9465L1.24699 28.9466C1.15246 28.9466 1.07814 29.0225 1.07814 29.117V32.8163C1.07814 35.2901 2.03579 36.5262 2.74986 37.1452C2.87707 37.2555 2.8037 37.4819 2.63536 37.4819H0.333277C0.238744 37.4819 0.162109 37.4053 0.162109 37.3107Z" fill="#666562"/>
<path d="M19.84 37.4865H17.5969C17.5024 37.4865 17.4258 37.4098 17.4258 37.3153V19.9286C17.4258 19.8353 17.5001 19.7592 17.5934 19.7582C18.1185 19.753 19.0513 19.7578 19.8446 19.7597C20.0103 19.7601 20.0856 19.9813 19.9638 20.0935C18.7062 21.2512 18.3262 22.8959 18.3262 23.9735V25.3967C18.3262 25.4912 18.4029 25.5677 18.4974 25.5677H32.157C32.2515 25.5677 32.3282 25.6686 32.3282 25.5741V23.9735C32.3282 22.3184 31.3117 20.8376 30.6064 20.0727C30.5004 19.9578 30.5803 19.7605 30.7367 19.7605H32.9642C33.0587 19.7605 33.1353 19.8372 33.1353 19.9317V37.3153C33.1353 37.4098 33.0587 37.4865 32.9642 37.4865H30.7132C30.559 37.4865 30.4837 37.2994 30.5929 37.1906C31.3166 36.4699 32.3282 35.2622 32.3282 33.1486V29.1326C32.3282 29.0381 32.2515 28.9622 32.157 28.9622H18.4974C18.4029 28.9622 18.3262 29.0384 18.3262 29.1329V33.1486C18.3262 34.9683 19.2777 36.4234 19.9711 37.1604C20.0808 37.2771 20.0002 37.4865 19.84 37.4865Z" fill="#666562"/>
<path d="M36.2563 19.7559H34.448C34.343 19.7559 34.2578 19.8373 34.2578 19.9423V37.2937C34.2578 37.3987 34.345 37.4819 34.45 37.481C38.8451 37.4431 40.4971 36.0644 42.5782 29.4847C44.2035 24.346 47.2051 23.06 48.6555 23.1481C48.7499 23.1539 48.8185 23.2324 48.8185 23.3269V34.0499C48.8185 35.3669 48.0954 36.4868 47.5217 37.115C47.4014 37.2466 47.4925 37.4818 47.6708 37.4818H49.4977C49.6027 37.4818 49.6879 37.4004 49.6879 37.2954V19.9457C49.6879 19.8406 49.6026 19.7556 49.4977 19.7579C46.8606 19.8155 44.2442 21.1254 42.3298 28.1623C40.9935 33.0745 38.2775 34.0684 35.3485 34.1083C35.2434 34.1097 35.1581 34.0256 35.1581 33.9206V24.0693C35.1581 22.2287 35.8137 20.874 36.4203 20.1618C36.5401 20.0211 36.4411 19.7559 36.2563 19.7559Z" fill="#666562"/>
<path d="M68.674 19.7559H66.8659C66.7609 19.7559 66.6758 19.8373 66.6758 19.9423V37.2937C66.6758 37.3987 66.7631 37.4819 66.8681 37.481C71.263 37.4431 72.9152 36.0644 74.9959 29.4847C76.6214 24.346 79.6227 23.0636 81.0736 23.152C81.1679 23.1578 81.2364 23.2363 81.2364 23.3308V34.0499C81.2364 35.3669 80.5134 36.4868 79.9393 37.115C79.8193 37.2466 79.9103 37.4818 80.0887 37.4818H81.9155C82.0205 37.4818 82.1057 37.4004 82.1057 37.2954V19.9457C82.1057 19.8406 82.0205 19.7556 81.9155 19.7579C79.2784 19.8155 76.6621 21.1254 74.7474 28.1623C73.4112 33.0745 70.6953 34.0684 67.7662 34.1083C67.6612 34.1097 67.5761 34.0256 67.5761 33.9206V24.0693C67.5761 22.2287 68.2316 20.874 68.8379 20.1618C68.9579 20.0211 68.8588 19.7559 68.674 19.7559Z" fill="#666562"/>
<path d="M50.6777 19.946V37.2917C50.6777 37.3967 50.7628 37.4819 50.8679 37.4819H52.6906C52.8669 37.4819 52.9569 37.2537 52.8408 37.1211C52.2403 36.4349 51.5559 35.1861 51.5559 33.1693V23.0518C51.5559 22.9468 51.639 22.8635 51.7441 22.8635H62.3443C63.7357 22.8635 64.7715 23.3407 65.3376 23.736C65.4779 23.834 65.7002 23.736 65.7002 23.5648V19.946C65.7002 19.841 65.615 19.7559 65.5101 19.7559H50.8679C50.7628 19.7559 50.6777 19.841 50.6777 19.946Z" fill="#666562"/>
<path fill-rule="evenodd" clip-rule="evenodd" d="M28.912 15.6949V4.58663C28.912 1.05581 26.8421 0.535645 25.3681 0.535645C21.2283 0.535645 17.0571 3.5463 16.1163 7.9283C15.4064 11.2344 14.7616 14.6048 14.5502 15.5507C14.5312 15.6362 14.4552 15.6949 14.3676 15.6949H12.198C12.093 15.6949 12.0078 15.78 12.0078 15.8851V18.5627C12.0078 18.6677 12.093 18.7528 12.198 18.7528H30.4512C30.5562 18.7528 30.6413 18.6677 30.6413 18.5627V15.8851C30.6413 15.78 30.5562 15.6949 30.4512 15.6949H28.912ZM27.9085 15.6949H15.6298C15.5089 15.6949 15.4182 15.5851 15.4429 15.4667C15.6838 14.3118 16.3755 10.914 16.7318 9.38287C17.2522 7.14626 19.0956 4.12952 25.8385 4.12952C27.1558 4.12952 27.9085 4.60239 27.9085 5.98952V15.6949Z" fill="#666562"/>
<path fill-rule="evenodd" clip-rule="evenodd" d="M49.0818 9.22449C49.0817 9.24972 49.0816 9.27253 49.0816 9.29283C49.0816 9.33825 49.0828 9.3977 49.0842 9.46989C49.116 11.0519 49.2707 18.7504 39.6729 18.7504C30.8606 18.7504 30.6406 11.2159 30.6406 9.63956C30.6406 8.06331 31.3619 0.528809 39.6729 0.528809C49.1135 0.528809 49.0864 7.95443 49.0818 9.22449ZM48.3921 9.29283C48.3921 6.32945 45.9459 3.71285 39.6729 3.71285C33.8705 3.71285 31.3311 6.80231 31.3311 9.63956C31.3311 12.4769 32.8992 15.5663 39.6729 15.5663C46.4467 15.5663 48.3921 12.2562 48.3921 9.29283Z" fill="#666562"/>
<path d="M55.5183 18.7512H49.3113C49.1953 18.7512 49.1063 18.6482 49.1232 18.5334L51.1297 4.86631C51.3492 3.42667 51.851 0.547363 54.4541 0.547363C56.9044 0.547363 57.2772 2.07087 58.0296 4.07819L60.5179 10.77L63.063 4.07819C63.4288 2.90125 64.2701 0.547363 66.4344 0.547363C68.897 0.547363 69.4138 2.90125 69.696 4.07819L71.8282 18.5333C71.8448 18.6481 71.7559 18.7512 71.6396 18.7512H65.586C65.4955 18.7512 65.4163 18.6876 65.4157 18.5972C65.412 18.1352 65.7403 17.3219 67.1242 16.8281C68.6801 16.2733 70.5187 15.796 70.1663 13.4234L69.0689 6.00122C68.9746 5.25513 68.5456 3.76293 66.4344 3.76293C64.3232 3.76293 63.606 5.43303 63.2713 6.24217L61.0171 12.1125L63.0405 17.5543C63.2563 18.1342 62.8273 18.7512 62.2087 18.7512H58.7693C58.148 18.7512 57.719 18.129 57.9397 17.5481L60.0086 12.1084L57.8084 6.00122C57.5578 5.25513 56.7984 3.76293 54.4541 3.76293C52.472 3.76293 51.8929 5.25513 51.851 6.00122L50.722 13.4234C50.6279 14.2641 50.9666 16.0716 53.0741 16.576C54.9533 17.0257 55.5756 17.9933 55.6886 18.5628C55.709 18.6658 55.6233 18.7512 55.5183 18.7512Z" fill="#666562"/>
</svg>
