<svg width="98" height="50" viewBox="0 0 98 50" fill="none" xmlns="http://www.w3.org/2000/svg">
<path d="M22.3869 0.00807505L22.3381 0H22.3299H22.3217C21.9636 0.00807464 21.4914 0.169569 21.2798 0.888221C21.1658 1.25158 21.1658 1.67147 21.174 2.05905L21.4101 9.36668C21.4182 9.62505 21.5728 9.83503 21.7926 9.87538C21.8333 9.88346 21.8741 9.88346 21.9147 9.87538C21.988 9.86731 22.0531 9.8431 22.1101 9.79463C22.2241 9.71387 22.3055 9.57662 22.3299 9.41511L23.3149 2.19632L23.323 2.16402C23.3718 1.80066 23.4044 1.38078 23.3312 1.00127C23.1846 0.266468 22.7369 0.0565233 22.3869 0.00807505Z" fill="#A5A5A5"/>
<path d="M0.0528653 28.8975L0.0691458 28.9459L0.0772863 28.954C0.231952 29.2689 0.581988 29.6242 1.3309 29.5192C1.71349 29.4627 2.09609 29.2931 2.44612 29.1236L9.02353 25.8291C9.25958 25.716 9.38169 25.4899 9.32469 25.2719C9.31658 25.2315 9.30027 25.1912 9.27585 25.1589C9.23516 25.1024 9.18632 25.0539 9.12121 25.0135C8.99911 24.9408 8.83627 24.9328 8.68163 24.9731L1.66465 27.1372L1.63209 27.1533C1.28206 27.2664 0.883178 27.4117 0.565704 27.6378C-0.0529592 28.0738 -0.0529592 28.5664 0.0528653 28.8975Z" fill="#A5A5A5"/>
<path d="M8.69536 4.58102L8.65467 4.60524V4.61331L8.64652 4.62138C8.37789 4.85557 8.11741 5.27545 8.41046 5.96987C8.55699 6.32518 8.82562 6.64815 9.07794 6.93884L13.9459 12.4297C14.1168 12.6234 14.3692 12.688 14.5646 12.5831C14.6052 12.5588 14.6378 12.5346 14.6622 12.5104C14.7111 12.462 14.7436 12.3973 14.768 12.3247C14.8088 12.1874 14.7762 12.0259 14.6948 11.8967L10.82 5.70339L10.8037 5.67111C10.6084 5.36427 10.3641 5.01704 10.0629 4.76675C9.47683 4.27419 8.99657 4.3953 8.69536 4.58102Z" fill="#A5A5A5"/>
<path d="M0.658379 15.3465L0.642095 15.3949V15.403V15.4111C0.560695 15.7583 0.609537 16.2509 1.26076 16.6303C1.59451 16.8241 2.00153 16.9372 2.37599 17.0179L9.58018 18.5602C9.83255 18.6168 10.0768 18.5199 10.1744 18.318C10.1907 18.2776 10.207 18.2372 10.207 18.1968C10.2151 18.1242 10.207 18.0596 10.1744 17.9869C10.1174 17.8577 10.0035 17.7447 9.85697 17.6801L3.02722 14.9912L2.99465 14.9751C2.65276 14.8458 2.24574 14.7086 1.85501 14.6844C1.10609 14.644 0.788621 15.0235 0.658379 15.3465Z" fill="#A5A5A5"/>
<path d="M28.5652 28.8279H21.6133L28.0361 18.7103H28.5733V28.8279H28.5652ZM34.9879 28.8279V9.83618H28.1337L14.5557 29.0459V34.3349H28.0686V39.6803H34.9879V34.3349H36.6974V28.8279H34.9879Z" fill="#A5A5A5"/>
<path d="M43.9444 33.4386L44.026 12.1698C44.026 10.4983 43.5537 9.90886 41.9663 9.86847L36.6914 9.83618V28.8279H38.3846V34.3349H36.6914V39.6803H53.0208V33.4305H43.9444V33.4386Z" fill="#A5A5A5"/>
<path d="M54.5596 39.6803H60.8602C60.8602 39.6803 60.8602 20.7855 60.8602 19.6389C60.8602 18.4923 60.7464 17.4183 58.8171 17.4426C56.8961 17.4668 54.5596 17.4426 54.5596 17.4426V39.6803ZM54.5596 14.4388H60.8602V9.83618H54.5596V14.4388Z" fill="#A5A5A5"/>
<path d="M73.5828 13.8142H74.0795V9.25195H73.3796C69.7326 9.25195 64.8811 9.94638 64.8811 15.954V17.4397H62.3086V22.0423H64.8811V39.6775H71.1817V22.0423H74.0795V17.4397H71.1817V16.2447C71.1817 14.4521 72.4189 13.8142 73.5828 13.8142Z" fill="#A5A5A5"/>
<path d="M79.9026 26.3231L79.9759 25.9759C80.3012 24.4417 81.8319 21.8417 85.4868 21.8417C89.1338 21.8417 90.664 24.4417 90.9976 25.9759L91.0709 26.3231H79.9026ZM97.2904 28.8263C97.2904 21.8901 92.1943 16.6577 85.4379 16.6577C78.9502 16.6577 73.667 22.0274 73.667 28.6244C73.667 35.1327 78.9991 40.4216 85.56 40.4216C87.8962 40.4216 90.1023 39.7272 91.9422 38.4191C93.7655 37.1836 95.2796 35.3588 96.3458 33.1059H89.8908C88.9707 34.2283 87.7906 35.2457 85.5683 35.2457C82.5889 35.2457 80.3095 33.4128 79.8943 30.6835L79.8455 30.3524H97.1761C97.2333 29.9326 97.2904 29.5692 97.2904 28.8263Z" fill="#A5A5A5"/>
<path d="M94.7344 39.3326C94.7344 39.1065 94.7832 38.8966 94.8892 38.7109C94.9947 38.5171 95.1413 38.3637 95.3205 38.2587C95.5076 38.1456 95.7029 38.0891 95.9227 38.0891C96.1425 38.0891 96.3379 38.1456 96.5254 38.2587C96.7125 38.3717 96.859 38.5171 96.9567 38.7109C97.0626 38.9046 97.1115 39.1146 97.1115 39.3326C97.1115 39.5587 97.0544 39.7687 96.9484 39.9624C96.8429 40.1562 96.6963 40.3096 96.5088 40.4146C96.3217 40.5277 96.1264 40.5761 95.9149 40.5761C95.6951 40.5761 95.4997 40.5196 95.3122 40.4065C95.1251 40.2935 94.9869 40.1401 94.8809 39.9544C94.7915 39.7687 94.7344 39.5587 94.7344 39.3326ZM94.9459 39.3326C94.9459 39.5183 94.9869 39.6879 95.068 39.8494C95.1495 40.0109 95.2716 40.132 95.4264 40.2289C95.5808 40.3258 95.7518 40.3742 95.931 40.3742C96.1181 40.3742 96.2812 40.3258 96.4356 40.2289C96.5904 40.132 96.7042 40.0028 96.794 39.8494C96.8751 39.6879 96.9161 39.5183 96.9161 39.3326C96.9161 39.1469 96.8751 38.9773 96.794 38.8158C96.7125 38.6544 96.5904 38.5332 96.4356 38.4363C96.2812 38.3394 96.1181 38.291 95.931 38.291C95.7518 38.291 95.5891 38.3394 95.4343 38.4282C95.2799 38.5171 95.1578 38.6463 95.0763 38.8077C94.9869 38.9693 94.9459 39.1469 94.9459 39.3326ZM95.6868 39.4618V40.0271H95.4343V38.614H95.9066C96.0775 38.614 96.2158 38.6544 96.3056 38.727C96.4033 38.8077 96.4521 38.9127 96.4521 39.05C96.4521 39.1711 96.395 39.268 96.2729 39.3326C96.3379 39.3649 96.3867 39.4133 96.4112 39.478C96.4356 39.5426 96.4521 39.6152 96.4521 39.7121C96.4521 39.8009 96.4521 39.8655 96.46 39.9059C96.46 39.9463 96.4683 39.9786 96.4844 40.0028V40.0271H96.2241C96.2079 39.9867 96.1996 39.8817 96.1996 39.704C96.1996 39.6233 96.1835 39.5587 96.1425 39.5183C96.102 39.478 96.0448 39.4618 95.9554 39.4618H95.6868ZM95.6868 39.2357H95.8983C95.9798 39.2357 96.0531 39.2196 96.1102 39.1873C96.1669 39.155 96.1914 39.1065 96.1914 39.05C96.1914 38.9693 96.1752 38.9208 96.1347 38.8804C96.0937 38.8481 96.0204 38.832 95.9227 38.832H95.6868V39.2357Z" fill="#A5A5A5"/>
<path d="M29.1092 45.1692V47.8174H28.8346V45.1692H29.1092ZM29.8313 45.1692V45.4146H28.1143V45.1692H29.8313Z" fill="#A5A5A5"/>
<path d="M32.3337 46.3294V46.5732H31.0149V46.3294H32.3337ZM31.064 45.1692V47.8174H30.7803V45.1692H31.064ZM32.5774 45.1692V47.8174H32.2936V45.1692H32.5774Z" fill="#A5A5A5"/>
<path d="M35.1159 47.5736V47.8174H33.9281V47.5736H35.1159ZM33.9863 45.1692V47.8174H33.708V45.1692H33.9863ZM34.9613 46.3277V46.5732H33.9281V46.3277H34.9613ZM35.1013 45.1692V45.4146H33.9281V45.1692H35.1013Z" fill="#A5A5A5"/>
<path d="M37.7412 45.1692V47.8174H37.4629V45.1692H37.7412Z" fill="#A5A5A5"/>
<path d="M39.0078 45.1692H39.2952L40.2138 47.4064L41.1305 45.1692H41.4196L40.3247 47.8174H40.101L39.0078 45.1692ZM38.915 45.1692H39.1697L39.2079 46.7296V47.8174H38.915V45.1692ZM41.2578 45.1692H41.5123V47.8174H41.2196V46.7296L41.2578 45.1692Z" fill="#A5A5A5"/>
<path d="M42.7734 45.1692H43.0611L43.9795 47.4064L44.8964 45.1692H45.1853L44.0905 47.8174H43.8665L42.7734 45.1692ZM42.6807 45.1692H42.9352L42.9737 46.7296V47.8174H42.6807V45.1692ZM45.0234 45.1692H45.2784V47.8174H44.9853V46.7296L45.0234 45.1692Z" fill="#A5A5A5"/>
<path d="M47.7087 45.1692H47.9852V47.0335C47.9852 47.2321 47.9484 47.3919 47.8743 47.5119C47.8002 47.632 47.7021 47.7193 47.5796 47.774C47.4583 47.8269 47.3262 47.8538 47.183 47.8538C47.0315 47.8538 46.8949 47.8269 46.7737 47.774C46.6536 47.7193 46.558 47.632 46.4864 47.5119C46.416 47.3919 46.3809 47.2321 46.3809 47.0335V45.1692H46.6574V47.0335C46.6574 47.18 46.6793 47.2955 46.7228 47.3791C46.7679 47.4614 46.8295 47.5211 46.9082 47.5575C46.9872 47.5927 47.0787 47.61 47.183 47.61C47.2873 47.61 47.3788 47.5927 47.4579 47.5575C47.5365 47.5211 47.5978 47.4614 47.6412 47.3791C47.6863 47.2955 47.7087 47.18 47.7087 47.0335V45.1692Z" fill="#A5A5A5"/>
<path d="M51.0777 45.1692V47.8174H50.7829L49.364 45.6767V47.8174H49.0693V45.1692H49.364L50.7863 47.3137V45.1692H51.0777Z" fill="#A5A5A5"/>
<path d="M53.6196 47.5736V47.8174H52.4317V47.5736H53.6196ZM52.4901 45.1692V47.8174H52.2119V45.1692H52.4901ZM53.4648 46.3277V46.5732H52.4317V46.3277H53.4648ZM53.6052 45.1692V45.4146H52.4317V45.1692H53.6052Z" fill="#A5A5A5"/>
<path d="M57.1556 47.1542C57.1556 47.0876 57.1469 47.0288 57.1299 46.9779C57.1142 46.9257 57.0856 46.879 57.0447 46.838C57.0045 46.7954 56.9495 46.756 56.8791 46.7196C56.8087 46.6819 56.7202 46.6443 56.6134 46.607C56.5029 46.5694 56.4035 46.5276 56.3149 46.4812C56.2264 46.434 56.1506 46.3806 56.0877 46.3214C56.0248 46.2606 55.9759 46.191 55.942 46.112C55.9093 46.0321 55.8932 45.9406 55.8932 45.8376C55.8932 45.7345 55.9105 45.6397 55.9457 45.5536C55.9822 45.4675 56.0339 45.393 56.1005 45.3301C56.1672 45.2668 56.2466 45.2183 56.3385 45.1844C56.4308 45.1492 56.5335 45.1318 56.6461 45.1318C56.8125 45.1318 56.9536 45.1687 57.0699 45.2428C57.1862 45.3164 57.2748 45.4141 57.3357 45.5354C57.3973 45.6554 57.4284 45.7866 57.4284 45.9282H57.1519C57.1519 45.8218 57.1328 45.727 57.0956 45.6447C57.0579 45.5623 57.002 45.4973 56.9279 45.4501C56.8543 45.4017 56.7607 45.3773 56.6481 45.3773C56.5401 45.3773 56.4507 45.398 56.3808 45.439C56.3104 45.4791 56.2574 45.5337 56.2222 45.6029C56.1883 45.6708 56.1713 45.7469 56.1713 45.8322C56.1713 45.8914 56.1812 45.946 56.2003 45.9957C56.221 46.0441 56.2524 46.0892 56.2951 46.1302C56.3377 46.1716 56.3919 46.2105 56.459 46.2469C56.5269 46.2817 56.608 46.316 56.7024 46.3487C56.8274 46.3885 56.9358 46.4336 57.0281 46.4833C57.1204 46.5329 57.1962 46.5901 57.2554 46.6542C57.3162 46.7171 57.3609 46.79 57.3903 46.8723C57.4205 46.9539 57.4354 47.0466 57.4354 47.1509C57.4354 47.2585 57.4168 47.3562 57.3791 47.4435C57.3427 47.5296 57.2905 47.6029 57.2227 47.6637C57.1548 47.7242 57.0728 47.771 56.9772 47.8037C56.8824 47.8364 56.7773 47.8529 56.6606 47.8529C56.5587 47.8529 56.4582 47.8372 56.3588 47.8057C56.2595 47.773 56.1688 47.7229 56.0877 47.6563C56.0078 47.5897 55.9428 47.5065 55.8932 47.4071C55.8447 47.3065 55.8203 47.1882 55.8203 47.0524H56.1005C56.1005 47.1522 56.1154 47.237 56.1461 47.3074C56.1775 47.3773 56.2193 47.4353 56.2715 47.48C56.3249 47.5247 56.3849 47.5578 56.4515 47.5781C56.5194 47.5988 56.589 47.6091 56.6606 47.6091C56.7661 47.6091 56.8559 47.5905 56.93 47.5528C57.0037 47.5152 57.0596 47.4626 57.0972 47.3943C57.1361 47.3264 57.1556 47.2465 57.1556 47.1542Z" fill="#A5A5A5"/>
<path d="M58.4921 45.1692L59.1962 46.5479L59.9035 45.1692H60.2347L59.3414 46.8244V47.8174H59.0505V46.8244L58.1572 45.1692H58.4921Z" fill="#A5A5A5"/>
<path d="M62.305 47.1542C62.305 47.0876 62.2963 47.0288 62.2794 46.9779C62.2636 46.9257 62.2351 46.879 62.1941 46.838C62.1539 46.7954 62.0989 46.756 62.0285 46.7196C61.9582 46.6819 61.8696 46.6443 61.7628 46.607C61.6527 46.5694 61.5529 46.5276 61.4648 46.4812C61.3762 46.434 61.3004 46.3806 61.2371 46.3214C61.1742 46.2606 61.1258 46.191 61.0918 46.112C61.0591 46.0321 61.0426 45.9406 61.0426 45.8376C61.0426 45.7345 61.0604 45.6397 61.0956 45.5536C61.1316 45.4675 61.1833 45.393 61.2499 45.3301C61.3166 45.2668 61.3961 45.2183 61.4884 45.1844C61.5802 45.1492 61.6829 45.1318 61.7955 45.1318C61.9619 45.1318 62.103 45.1687 62.2193 45.2428C62.3361 45.3164 62.4242 45.4141 62.4851 45.5354C62.5467 45.6554 62.5778 45.7866 62.5778 45.9282H62.3013C62.3013 45.8218 62.2827 45.727 62.245 45.6447C62.2073 45.5623 62.1515 45.4973 62.0778 45.4501C62.0037 45.4017 61.9101 45.3773 61.7976 45.3773C61.6895 45.3773 61.6005 45.398 61.5302 45.439C61.4598 45.4791 61.4068 45.5337 61.3716 45.6029C61.3377 45.6708 61.3207 45.7469 61.3207 45.8322C61.3207 45.8914 61.3307 45.946 61.3501 45.9957C61.3708 46.0441 61.4023 46.0892 61.4445 46.1302C61.4871 46.1716 61.5418 46.2105 61.6084 46.2469C61.6763 46.2817 61.7574 46.316 61.8522 46.3487C61.9768 46.3885 62.0856 46.4336 62.1775 46.4833C62.2698 46.5329 62.3456 46.5901 62.4052 46.6542C62.4656 46.7171 62.5103 46.79 62.5397 46.8723C62.5699 46.9539 62.5852 47.0466 62.5852 47.1509C62.5852 47.2585 62.5662 47.3562 62.5285 47.4435C62.4925 47.5296 62.4404 47.6029 62.3721 47.6637C62.3042 47.7242 62.2226 47.771 62.1266 47.8037C62.0322 47.8364 61.9267 47.8529 61.8104 47.8529C61.7081 47.8529 61.6076 47.8372 61.5082 47.8057C61.4089 47.773 61.3187 47.7229 61.2371 47.6563C61.1572 47.5897 61.0922 47.5065 61.0426 47.4071C60.9941 47.3065 60.9697 47.1882 60.9697 47.0524H61.2499C61.2499 47.1522 61.2653 47.237 61.2955 47.3074C61.3269 47.3773 61.3687 47.4353 61.4209 47.48C61.4743 47.5247 61.5343 47.5578 61.6009 47.5781C61.6688 47.5988 61.7388 47.6091 61.8104 47.6091C61.9155 47.6091 62.0053 47.5905 62.0794 47.5528C62.1535 47.5152 62.209 47.4626 62.2467 47.3943C62.2856 47.3264 62.305 47.2465 62.305 47.1542Z" fill="#A5A5A5"/>
<path d="M64.372 45.1692V47.8174H64.0972V45.1692H64.372ZM65.0939 45.1692V45.4146H63.377V45.1692H65.0939Z" fill="#A5A5A5"/>
<path d="M67.4788 47.5736V47.8174H66.2404V47.5736H67.4788ZM66.3004 45.1692V47.8174H66.0186V45.1692H66.3004ZM67.3191 46.3294V46.5732H66.2404V46.3294H67.3191ZM67.4644 45.1692V45.4146H66.2404V45.1692H67.4644Z" fill="#A5A5A5"/>
<path d="M68.5507 45.1692H68.8384L69.7569 47.4064L70.6737 45.1692H70.9626L69.8678 47.8174H69.6439L68.5507 45.1692ZM68.458 45.1692H68.7126L68.7511 46.7296V47.8174H68.458V45.1692ZM70.8008 45.1692H71.0553V47.8174H70.7627V46.7296L70.8008 45.1692Z" fill="#A5A5A5"/>
<path d="M96.2121 45.0979V45.7461H96.0682V45.0979H96.2121ZM96.3708 45.0979V45.2135H95.9141V45.0979H96.3708Z" fill="#A5A5A5"/>
<path d="M96.5691 45.0979H96.6893L96.8033 45.5451L96.9173 45.0979H97.0312L96.853 45.7461H96.7536L96.5691 45.0979ZM96.5049 45.0979H96.6259L96.647 45.5667V45.7461H96.5049V45.0979ZM96.9807 45.0979H97.1013V45.7461H96.9591V45.5667L96.9807 45.0979Z" fill="#A5A5A5"/>
<path d="M74.5053 46.3198C74.3762 46.4738 74.2569 46.6377 74.1477 46.8116C74.0434 46.9804 73.9614 47.1593 73.9018 47.348C73.8819 47.4175 73.8646 47.4896 73.8497 47.5641C73.8348 47.6336 73.8273 47.7056 73.8273 47.7801C73.8273 47.8546 73.8397 47.9242 73.8646 47.9887C73.8894 48.0583 73.9291 48.1204 73.9838 48.175C74.093 48.2793 74.2247 48.3464 74.3786 48.3762C74.5326 48.406 74.6816 48.4209 74.8257 48.4209C75.0194 48.4258 75.2106 48.4134 75.3993 48.3836C75.5931 48.3538 75.7843 48.3141 75.973 48.2644C76.1419 48.2247 76.3083 48.175 76.4722 48.1154C76.6361 48.0608 76.7951 47.9912 76.949 47.9068C76.9789 47.8919 77.0062 47.8894 77.031 47.8993C77.0558 47.9093 77.0757 47.9242 77.0906 47.944C77.1055 47.9689 77.1105 47.9962 77.1055 48.026C77.1005 48.0558 77.0832 48.0781 77.0534 48.093C77.0136 48.1129 76.9764 48.1303 76.9416 48.1452C76.9068 48.1651 76.8696 48.1824 76.8298 48.1973C76.4623 48.3613 76.0724 48.4805 75.6601 48.555C75.4614 48.5947 75.2603 48.622 75.0566 48.6369C74.853 48.6518 74.6493 48.6419 74.4457 48.6071C74.2867 48.5823 74.1353 48.5301 73.9912 48.4507C73.8521 48.3762 73.7478 48.2619 73.6783 48.1079C73.6386 48.0235 73.6162 47.9341 73.6112 47.8397C73.6063 47.7503 73.6112 47.6584 73.6261 47.5641C73.641 47.4697 73.6634 47.3778 73.6932 47.2884C73.728 47.199 73.7627 47.1121 73.7975 47.0276C73.8919 46.819 74.0061 46.6228 74.1402 46.439C74.2793 46.2503 74.4283 46.0715 74.5873 45.9026C74.7611 45.7139 74.9449 45.5351 75.1386 45.3662C75.3373 45.1973 75.5409 45.0359 75.7495 44.8819C76.1568 44.5789 76.579 44.3132 77.0161 44.0847C77.1999 43.9854 77.3861 43.896 77.5749 43.8165C77.7636 43.732 77.9573 43.6625 78.156 43.6079C78.2504 43.583 78.3448 43.5632 78.4391 43.5483C78.5335 43.5284 78.6304 43.516 78.7297 43.511C78.8142 43.506 78.9036 43.5135 78.9979 43.5334C79.0923 43.5532 79.1693 43.5979 79.2289 43.6675C79.2984 43.7519 79.3307 43.8463 79.3258 43.9506C79.3208 44.0499 79.2959 44.1518 79.2512 44.2561C79.2065 44.3604 79.1519 44.4622 79.0873 44.5615C79.0228 44.6559 78.9681 44.7354 78.9234 44.7999C78.9036 44.8297 78.8787 44.8471 78.8489 44.8521C78.8191 44.8521 78.7918 44.8471 78.767 44.8372C78.7471 44.8223 78.7322 44.8024 78.7223 44.7776C78.7123 44.7528 78.7173 44.7254 78.7372 44.6956C78.8166 44.5814 78.8887 44.4721 78.9532 44.3678C78.993 44.2983 79.0302 44.2238 79.065 44.1443C79.1047 44.0599 79.1196 43.9754 79.1097 43.891C79.0998 43.8214 79.0625 43.7767 78.9979 43.7569C78.9334 43.737 78.8713 43.7246 78.8117 43.7196C78.6378 43.7097 78.464 43.7296 78.2901 43.7792C78.1163 43.8289 77.9499 43.886 77.791 43.9506C77.5823 44.035 77.3315 44.1592 77.0385 44.3231C76.7504 44.487 76.4524 44.6758 76.1444 44.8893C75.8414 45.1029 75.5434 45.3339 75.2503 45.5822C74.9623 45.8306 74.7139 46.0765 74.5053 46.3198Z" fill="#A5A5A5"/>
<path d="M81.021 46.9525C81.0508 46.9376 81.0756 46.9351 81.0955 46.945C81.1154 46.955 81.1303 46.9723 81.1402 46.9972C81.1501 47.017 81.1526 47.0419 81.1476 47.0717C81.1427 47.0965 81.1253 47.1189 81.0955 47.1387C81.016 47.1934 80.9241 47.248 80.8198 47.3026C80.7155 47.3573 80.6038 47.407 80.4846 47.4517C80.3703 47.4964 80.2561 47.5361 80.1418 47.5709C80.0276 47.6056 79.9233 47.628 79.8289 47.6379C79.6849 47.6528 79.5408 47.6578 79.3968 47.6528C79.2577 47.6478 79.1236 47.6106 78.9945 47.5411C78.9547 47.5808 78.91 47.618 78.8603 47.6528C78.8107 47.6826 78.7635 47.7099 78.7188 47.7348C78.6741 47.7596 78.6244 47.7795 78.5698 47.7944C78.5151 47.8093 78.4605 47.8167 78.4059 47.8167C78.3512 47.8167 78.3016 47.8043 78.2569 47.7795C78.2122 47.7546 78.1799 47.7124 78.16 47.6528C78.1352 47.5882 78.1302 47.5212 78.1451 47.4517C78.16 47.3821 78.1873 47.3175 78.2271 47.2579C78.2618 47.1934 78.3065 47.1363 78.3612 47.0866C78.4108 47.0319 78.4605 46.9872 78.5102 46.9525C78.6095 46.8879 78.7138 46.8631 78.8231 46.878C78.9373 46.8929 79.0317 46.945 79.1062 47.0344C79.1261 47.0543 79.136 47.0791 79.136 47.1089C79.1758 47.1636 79.1882 47.2207 79.1733 47.2803C79.1683 47.3002 79.1559 47.33 79.136 47.3697C79.2056 47.4094 79.285 47.4343 79.3744 47.4442C79.4638 47.4492 79.5508 47.4517 79.6352 47.4517C79.7594 47.4517 79.8835 47.4368 80.0077 47.407C80.1369 47.3722 80.2586 47.3324 80.3728 47.2877C80.492 47.2381 80.6062 47.1834 80.7155 47.1238C80.8248 47.0642 80.9266 47.0071 81.021 46.9525ZM78.4804 47.6081C78.5449 47.5882 78.607 47.5609 78.6666 47.5262C78.7262 47.4864 78.7809 47.4417 78.8305 47.3921C78.8007 47.3473 78.7858 47.2952 78.7858 47.2356C78.7858 47.1859 78.8007 47.1412 78.8305 47.1015C78.766 47.0816 78.7014 47.094 78.6368 47.1387C78.5723 47.1785 78.5176 47.2257 78.4729 47.2803C78.4431 47.32 78.4133 47.3647 78.3835 47.4144C78.3537 47.4641 78.3438 47.5137 78.3537 47.5634C78.3587 47.6031 78.3736 47.623 78.3984 47.623C78.4233 47.623 78.4506 47.618 78.4804 47.6081Z" fill="#A5A5A5"/>
<path d="M85.1965 46.9655C85.2313 46.9456 85.2611 46.9382 85.2859 46.9431C85.3157 46.9481 85.3381 46.9605 85.353 46.9804C85.3679 46.9953 85.3728 47.0151 85.3679 47.04C85.3629 47.0648 85.3455 47.0847 85.3157 47.0996C85.1071 47.2138 84.8935 47.3156 84.675 47.4051C84.4564 47.4895 84.2429 47.559 84.0342 47.6137C83.8306 47.6683 83.6344 47.7056 83.4457 47.7254C83.2619 47.7453 83.0955 47.7428 82.9465 47.718C82.862 47.708 82.7826 47.6807 82.7081 47.636C82.6385 47.5863 82.5938 47.5168 82.574 47.4274C82.5591 47.3628 82.5591 47.3007 82.574 47.2411C82.5889 47.1766 82.6112 47.117 82.641 47.0623C82.6162 47.0772 82.5938 47.0946 82.574 47.1145C82.5541 47.1294 82.5317 47.1468 82.5069 47.1666C82.4225 47.2312 82.3405 47.2958 82.261 47.3603C82.1865 47.4249 82.1071 47.487 82.0226 47.5466C81.9779 47.5814 81.9233 47.6186 81.8587 47.6584C81.7941 47.6931 81.7345 47.6931 81.6799 47.6584C81.6402 47.6385 81.6153 47.6112 81.6054 47.5764C81.6004 47.5367 81.6004 47.4969 81.6054 47.4572C81.6153 47.4175 81.6277 47.3802 81.6426 47.3454C81.6625 47.3057 81.6799 47.2709 81.6948 47.2411C81.7147 47.2113 81.7345 47.1815 81.7544 47.1517C81.7743 47.1219 81.7917 47.0896 81.8066 47.0549C81.737 47.0797 81.6675 47.117 81.5979 47.1666C81.5334 47.2113 81.4713 47.2536 81.4117 47.2933C81.3372 47.3479 81.2627 47.4026 81.1882 47.4572C81.1186 47.5069 81.0441 47.5565 80.9646 47.6062C80.9398 47.6211 80.9125 47.636 80.8827 47.6509C80.8479 47.6608 80.8156 47.6658 80.7858 47.6658C80.756 47.6658 80.7312 47.6584 80.7113 47.6435C80.6865 47.6236 80.6716 47.5913 80.6666 47.5466C80.6617 47.4771 80.6865 47.4051 80.7411 47.3305C80.7908 47.2511 80.8355 47.184 80.8752 47.1294C80.8951 47.1046 80.9075 47.0872 80.9125 47.0772C80.9175 47.0673 80.9224 47.0598 80.9274 47.0549C80.9324 47.0499 80.9398 47.0425 80.9498 47.0325C80.9547 47.0226 80.9671 47.0052 80.987 46.9804C81.0069 46.9555 81.0292 46.9431 81.0541 46.9431C81.0839 46.9431 81.1062 46.9531 81.1211 46.9729C81.141 46.9878 81.1534 47.0102 81.1584 47.04C81.1683 47.0648 81.1633 47.0921 81.1435 47.1219C81.1236 47.1517 81.1087 47.1741 81.0988 47.189C81.0888 47.1989 81.0789 47.2089 81.069 47.2188C81.064 47.2287 81.0565 47.2436 81.0466 47.2635C81.0416 47.2784 81.0292 47.3032 81.0094 47.338C81.1236 47.2585 81.2378 47.1766 81.3521 47.0921C81.4663 47.0077 81.588 46.9382 81.7172 46.8835C81.747 46.8736 81.7792 46.8637 81.814 46.8537C81.8488 46.8438 81.8811 46.8413 81.9109 46.8463C81.9456 46.8463 81.9754 46.8562 82.0003 46.8761C82.0251 46.891 82.0425 46.9183 82.0524 46.958C82.0673 47.0276 82.0499 47.1045 82.0003 47.189C81.9506 47.2685 81.9059 47.3529 81.8662 47.4423C81.9258 47.4026 81.9829 47.3603 82.0375 47.3156C82.0971 47.2709 82.1542 47.2262 82.2089 47.1815C82.2784 47.1269 82.3455 47.0723 82.41 47.0176C82.4796 46.963 82.5516 46.9133 82.6261 46.8686C82.6758 46.8438 82.7329 46.8189 82.7975 46.7941C82.862 46.7693 82.9216 46.7767 82.9763 46.8165C83.0408 46.8661 83.0483 46.9233 82.9986 46.9878C82.9589 47.0425 82.9117 47.112 82.8571 47.1964C82.8074 47.2809 82.795 47.3579 82.8198 47.4274C82.8397 47.482 82.8844 47.5193 82.9539 47.5392C83.0284 47.559 83.0905 47.569 83.1402 47.569C83.4283 47.569 83.7486 47.5218 84.1013 47.4274C84.454 47.3281 84.819 47.1741 85.1965 46.9655Z" fill="#A5A5A5"/>
<path d="M87.9805 46.9442C88.0153 46.9393 88.0426 46.9467 88.0625 46.9666C88.0823 46.9815 88.0923 47.0014 88.0923 47.0262C88.0923 47.0461 88.0848 47.0684 88.0699 47.0933C88.055 47.1131 88.0302 47.1255 87.9954 47.1305C87.6676 47.1752 87.3323 47.2423 86.9896 47.3317C86.6519 47.4161 86.324 47.508 86.0061 47.6073C85.9614 47.6669 85.8969 47.734 85.8124 47.8085C85.728 47.878 85.656 47.9277 85.5964 47.9575C85.5517 47.9823 85.502 47.9948 85.4474 47.9948C85.3977 47.9997 85.3555 47.9774 85.3207 47.9277C85.2959 47.888 85.2859 47.8458 85.2909 47.801C85.3008 47.7563 85.3232 47.7191 85.358 47.6893C85.4027 47.6496 85.4548 47.6173 85.5144 47.5924C85.574 47.5676 85.6311 47.5452 85.6858 47.5254L85.7975 47.4807C85.8174 47.4509 85.8348 47.4211 85.8497 47.3913C85.8696 47.3565 85.872 47.3267 85.8571 47.3019C85.8472 47.277 85.8273 47.2696 85.7975 47.2795C85.7677 47.2845 85.7354 47.2994 85.7007 47.3242C85.6659 47.3441 85.6336 47.3664 85.6038 47.3913C85.574 47.4161 85.5442 47.4409 85.5144 47.4658C85.43 47.5353 85.3505 47.6098 85.276 47.6893C85.2015 47.7688 85.1295 47.8507 85.0599 47.9352C84.901 48.114 84.7495 48.2977 84.6055 48.4865C84.4614 48.6752 84.3174 48.8665 84.1733 49.0602L83.8828 49.4625L83.7934 49.5817C83.7685 49.6065 83.7437 49.6239 83.7188 49.6339C83.694 49.6438 83.6692 49.6388 83.6443 49.619C83.6145 49.6041 83.5947 49.5842 83.5847 49.5594C83.5748 49.5097 83.5922 49.4575 83.6369 49.4029C83.6816 49.3483 83.7164 49.3011 83.7412 49.2613C83.8753 49.0726 84.0094 48.8838 84.1435 48.6951C84.2727 48.5113 84.4018 48.3251 84.5309 48.1363C84.6551 47.9525 84.7793 47.7688 84.9035 47.585C85.0276 47.3962 85.1344 47.2 85.2238 46.9964C85.2387 46.9666 85.2586 46.9492 85.2834 46.9442C85.3083 46.9393 85.3306 46.9442 85.3505 46.9591C85.3753 46.974 85.3952 46.9964 85.4101 47.0262C85.425 47.051 85.425 47.0784 85.4101 47.1082C85.3604 47.2224 85.3083 47.3242 85.2536 47.4136L85.343 47.3242C85.4076 47.2696 85.4772 47.2149 85.5517 47.1603C85.6262 47.1007 85.7056 47.0635 85.7901 47.0486C85.8844 47.0287 85.9614 47.056 86.021 47.1305C86.0856 47.2 86.1055 47.2969 86.0806 47.4211C86.4134 47.3068 86.7264 47.2149 87.0194 47.1454C87.3125 47.0709 87.6328 47.0038 87.9805 46.9442Z" fill="#A5A5A5"/>
<path d="M90.8116 46.9585C90.8364 46.9436 90.8612 46.9411 90.8861 46.9511C90.9109 46.956 90.9308 46.9684 90.9457 46.9883C90.9606 47.0082 90.9655 47.033 90.9606 47.0628C90.9606 47.0876 90.9457 47.1075 90.9159 47.1224C90.7072 47.2466 90.5185 47.3509 90.3496 47.4353C90.1807 47.5198 90.0268 47.5918 89.8877 47.6514C89.7536 47.706 89.6294 47.7483 89.5152 47.7781C89.4009 47.8029 89.2941 47.8178 89.1948 47.8228C89.1402 47.8277 89.0806 47.8302 89.016 47.8302C88.9564 47.8302 88.8943 47.8228 88.8297 47.8079C88.7701 47.788 88.713 47.7582 88.6584 47.7184C88.6037 47.6787 88.5541 47.6191 88.5094 47.5396C88.4796 47.48 88.4572 47.4155 88.4423 47.3459C88.3579 47.4353 88.2685 47.5223 88.1741 47.6067C88.0847 47.6862 87.9829 47.7482 87.8686 47.793C87.809 47.8178 87.7469 47.8302 87.6824 47.8302C87.6128 47.8302 87.5582 47.7954 87.5184 47.7259C87.5035 47.6961 87.4961 47.6588 87.4961 47.6141C87.4961 47.5694 87.5035 47.5247 87.5184 47.48C87.5284 47.4353 87.5433 47.3931 87.5631 47.3534C87.583 47.3087 87.6004 47.2739 87.6153 47.2491C87.655 47.1845 87.7097 47.1224 87.7792 47.0628C87.8487 47.0032 87.9233 46.9585 88.0027 46.9287C88.0872 46.8989 88.1691 46.8865 88.2486 46.8914C88.333 46.8964 88.41 46.9312 88.4796 46.9958C88.5143 46.9809 88.5491 46.9833 88.5839 47.0032C88.6236 47.0231 88.641 47.0529 88.636 47.0926C88.6261 47.1423 88.6261 47.1969 88.636 47.2565C88.6509 47.3161 88.6733 47.3732 88.7031 47.4279C88.7378 47.4775 88.7801 47.5223 88.8297 47.562C88.8844 47.5968 88.9489 47.6191 89.0234 47.629C89.1128 47.6439 89.2345 47.6315 89.3885 47.5918C89.5475 47.5471 89.7139 47.49 89.8877 47.4204C90.0615 47.3509 90.2304 47.2764 90.3943 47.1969C90.5582 47.1125 90.6973 47.033 90.8116 46.9585ZM87.7196 47.6216C87.7494 47.6216 87.7916 47.6042 87.8463 47.5694C87.8959 47.5347 87.9506 47.4949 88.0102 47.4502C88.0698 47.4006 88.1294 47.3484 88.189 47.2938C88.2486 47.2391 88.2983 47.1895 88.338 47.1448L88.2933 47.1224C88.2436 47.1025 88.1865 47.0976 88.1219 47.1075C88.0623 47.1174 88.0102 47.1423 87.9655 47.182C87.9108 47.2267 87.8562 47.2913 87.8016 47.3757C87.7469 47.4552 87.7146 47.5297 87.7047 47.5992C87.7047 47.6141 87.7097 47.6216 87.7196 47.6216Z" fill="#A5A5A5"/>
<path d="M93.69 46.9702C93.7198 46.9504 93.7471 46.9454 93.7719 46.9553C93.7968 46.9603 93.8142 46.9752 93.8241 47C93.834 47.0199 93.834 47.0447 93.8241 47.0745C93.8191 47.1043 93.8018 47.1292 93.7719 47.149C93.6875 47.2037 93.5931 47.2583 93.4888 47.313C93.3895 47.3676 93.2852 47.4222 93.1759 47.4769C93.0716 47.5315 92.9648 47.5837 92.8555 47.6333C92.7512 47.678 92.6519 47.7153 92.5575 47.7451C92.4333 47.7848 92.3042 47.8196 92.1701 47.8494C92.036 47.8792 91.9044 47.8842 91.7752 47.8643C91.7007 47.8544 91.6312 47.8295 91.5666 47.7898C91.502 47.7501 91.4598 47.6905 91.4399 47.611C91.425 47.5563 91.425 47.4992 91.4399 47.4396C91.4548 47.38 91.4747 47.3229 91.4996 47.2683L91.2537 47.4098C91.1742 47.4595 91.0947 47.5092 91.0153 47.5588C90.9408 47.6035 90.8613 47.6457 90.7769 47.6855C90.7322 47.7103 90.68 47.7376 90.6204 47.7674C90.5558 47.7923 90.4962 47.7972 90.4416 47.7823C90.3919 47.7674 90.3621 47.7426 90.3522 47.7078C90.3422 47.6731 90.3422 47.6358 90.3522 47.5961C90.3571 47.5563 90.372 47.5191 90.3969 47.4843C90.4167 47.4446 90.4366 47.4123 90.4565 47.3875C90.4863 47.3477 90.5285 47.2981 90.5831 47.2385C90.6328 47.1789 90.6999 47.0969 90.7843 46.9926C90.8091 46.9628 90.8389 46.9479 90.8737 46.9479C90.9085 46.9479 90.9383 46.9702 90.9631 47.0149C90.983 47.0497 90.978 47.0845 90.9482 47.1192C90.9234 47.154 90.901 47.1838 90.8812 47.2087C90.8464 47.2484 90.8141 47.2881 90.7843 47.3279C90.7495 47.3676 90.7172 47.4073 90.6874 47.4471L90.6204 47.5365C90.7545 47.4818 90.8861 47.4123 91.0153 47.3279C91.1494 47.2434 91.2785 47.164 91.4027 47.0894C91.4573 47.0596 91.5095 47.0298 91.5592 47C91.6138 46.9653 91.6684 46.9355 91.7231 46.9106C91.7479 46.9007 91.7727 46.8933 91.7976 46.8883C91.8224 46.8784 91.8472 46.8808 91.8721 46.8957C91.9019 46.9156 91.9193 46.9429 91.9242 46.9777C91.9292 47.0075 91.9242 47.0373 91.9093 47.0671C91.8646 47.1466 91.8075 47.226 91.738 47.3055C91.6684 47.385 91.6361 47.4744 91.6411 47.5737C91.6411 47.6085 91.6585 47.6358 91.6933 47.6557C91.7231 47.6706 91.7553 47.6805 91.7901 47.6855C91.8249 47.6855 91.8597 47.6855 91.8944 47.6855C92.0136 47.6855 92.1304 47.6706 92.2446 47.6408C92.3638 47.606 92.4805 47.5688 92.5948 47.529C92.6742 47.4992 92.7636 47.462 92.863 47.4173C92.9623 47.3726 93.0617 47.3254 93.161 47.2757C93.2603 47.226 93.3547 47.1764 93.4441 47.1267C93.5385 47.0721 93.6205 47.0199 93.69 46.9702Z" fill="#A5A5A5"/>
<path d="M96.8895 46.9508C96.9293 46.9409 96.9591 46.9433 96.9789 46.9582C97.0038 46.9731 97.0187 46.993 97.0236 47.0178C97.0286 47.0427 97.0236 47.0675 97.0087 47.0923C96.9988 47.1172 96.9789 47.1346 96.9491 47.1445L96.5915 47.2563C96.209 47.3854 95.8316 47.5245 95.459 47.6735C95.0865 47.8225 94.7214 47.9864 94.3638 48.1652C94.339 48.2099 94.3141 48.2546 94.2893 48.2993C94.2694 48.344 94.2471 48.3862 94.2223 48.426C94.1179 48.6147 94.0037 48.796 93.8795 48.9699C93.7554 49.1437 93.6212 49.3101 93.4772 49.469C93.3779 49.5733 93.2661 49.6777 93.1419 49.782C93.0178 49.8912 92.8837 49.9608 92.7396 49.9906C92.6204 50.0154 92.5136 49.9906 92.4192 49.9161C92.3249 49.8465 92.2727 49.7497 92.2628 49.6255C92.2578 49.556 92.2702 49.4889 92.3 49.4243C92.3249 49.3598 92.3596 49.2977 92.4043 49.2381C92.4441 49.1834 92.4913 49.1313 92.5459 49.0816C92.5956 49.0319 92.6428 48.9872 92.6875 48.9475C92.8563 48.8035 93.0351 48.6718 93.2239 48.5526C93.4126 48.4334 93.6039 48.3217 93.7976 48.2174L94.1925 48.0162C94.2471 47.9318 94.2918 47.8374 94.3266 47.7331C94.3663 47.6288 94.4036 47.5121 94.4383 47.3829C94.3688 47.4226 94.3017 47.4649 94.2372 47.5096C94.1726 47.5493 94.1055 47.589 94.036 47.6288C93.9665 47.6685 93.8919 47.7008 93.8125 47.7256C93.738 47.7455 93.6635 47.7356 93.589 47.6958C93.5194 47.6561 93.4797 47.6064 93.4698 47.5468C93.4598 47.4822 93.4673 47.4152 93.4921 47.3457C93.512 47.2761 93.5418 47.2091 93.5815 47.1445C93.6212 47.0799 93.656 47.0278 93.6858 46.988C93.7057 46.9632 93.7305 46.9508 93.7603 46.9508C93.7901 46.9458 93.815 46.9508 93.8348 46.9657C93.8597 46.9756 93.8771 46.993 93.887 47.0178C93.8969 47.0427 93.892 47.07 93.8721 47.0998L93.805 47.2041C93.7951 47.219 93.7802 47.2438 93.7603 47.2786C93.7405 47.3084 93.7231 47.3407 93.7082 47.3755C93.6933 47.4053 93.6833 47.4351 93.6784 47.4649C93.6734 47.4947 93.6833 47.5145 93.7082 47.5245C93.733 47.5344 93.7603 47.5319 93.7901 47.517C93.8249 47.5021 93.8547 47.4897 93.8795 47.4798C93.9242 47.4549 93.9665 47.4301 94.0062 47.4053C94.0509 47.3804 94.0931 47.3556 94.1328 47.3308C94.1875 47.291 94.2471 47.2488 94.3117 47.2041C94.3762 47.1544 94.4433 47.1221 94.5128 47.1072C94.5675 47.0973 94.6047 47.1048 94.6246 47.1296C94.6444 47.1544 94.6569 47.1892 94.6618 47.2339C94.6668 47.2736 94.6643 47.3159 94.6544 47.3606C94.6445 47.4053 94.637 47.4425 94.632 47.4723C94.6221 47.522 94.6122 47.5617 94.6022 47.5915C94.5923 47.6213 94.5824 47.6511 94.5724 47.6809C94.5625 47.7058 94.5501 47.7356 94.5352 47.7703C94.5252 47.8001 94.5103 47.8374 94.4905 47.8821C94.8779 47.6983 95.2728 47.5294 95.6751 47.3755C96.0774 47.2215 96.4822 47.0799 96.8895 46.9508ZM93.6486 48.9401C93.7876 48.7463 93.9118 48.5551 94.0211 48.3664L93.6858 48.5452C93.5169 48.6445 93.3506 48.7463 93.1866 48.8506C93.0227 48.9599 92.8688 49.0841 92.7247 49.2232C92.68 49.2629 92.6378 49.3076 92.5981 49.3573C92.5534 49.4069 92.5186 49.4591 92.4937 49.5137C92.4639 49.5833 92.4664 49.6478 92.5012 49.7075C92.5409 49.772 92.5956 49.8018 92.6651 49.7969C92.7048 49.7919 92.752 49.7745 92.8067 49.7447C92.8563 49.7199 92.901 49.6926 92.9408 49.6627C93.0848 49.5634 93.2164 49.4467 93.3356 49.3126C93.4499 49.1834 93.5567 49.0493 93.656 48.9103L93.6486 48.9401Z" fill="#A5A5A5"/>
</svg>
