<svg width="83" height="42" viewBox="0 0 83 42" fill="none" xmlns="http://www.w3.org/2000/svg">
<mask id="mask0_4917_5807" style="mask-type:luminance" maskUnits="userSpaceOnUse" x="0" y="0" width="83" height="42">
<path d="M82.2203 0H0V42H82.2203V0Z" fill="white"/>
</mask>
<g mask="url(#mask0_4917_5807)">
<path d="M0.388672 42.007V38.3032L1.95358 36.7047H5.09167V42.007H4.05025V40.4197H1.43701V42.007H0.388672ZM1.43701 39.367H4.05025V37.7644H2.47705L1.43701 38.8296V39.367ZM5.83891 42.007V36.7047H6.88724V38.8296H8.45076L9.50049 37.7699V36.7034H10.5419V38.3004L9.50049 39.3559L10.5419 40.417V42.007H9.50049V40.9461L8.45076 39.8961H6.88724V42.007H5.83891ZM11.2146 42.007V36.7047H15.3996L15.9176 37.2435V38.8296L15.3996 39.3559L15.9176 39.8878V41.4779L15.3996 42.007H11.2146ZM12.2629 40.9474H14.8761V39.8961H12.2629V40.9474ZM12.2629 38.8378H14.8761V37.7713H12.2629V38.8378ZM16.5875 42.007V38.3032L18.1523 36.7047H21.2905V42.007H20.249V40.4197H17.6358V42.007H16.5875ZM17.6358 39.367H20.249V37.7644H18.6759L17.6358 38.8296V39.367ZM22.0377 42.007V36.7047H23.086L24.9147 39.2716L26.7724 36.7047H27.7807V42.007H26.7324V38.4289L25.365 40.4639H24.4866L23.086 38.4289V42.007H22.0377ZM28.4533 42.007V38.3032L30.0196 36.7047H33.1495V42.007H32.1094V40.4197H29.5003V42.007H28.4533ZM29.5017 39.367H32.1163V37.7644H30.5417L29.5003 38.8296L29.5017 39.367ZM33.9022 42.007V36.7047H38.0873L38.6052 37.2435V39.8905L38.0873 40.4197H34.945V42.007H33.9022ZM34.945 39.36H37.5693V37.7644H34.945V39.36ZM39.2779 42.007V36.7047H40.3317V40.2318L42.945 36.7047H43.9864V42.007H42.945V38.4704L40.3317 42.007H39.2779ZM44.7253 42.007V36.7047H45.7737V38.8296H48.3883V36.7047H49.4283V42.007H48.3883V39.8892H45.7737V42.007H44.7253ZM50.1742 42.007V36.7047H54.8703V42.007H53.8302V37.7644H51.2225V42.007H50.1742ZM55.6216 42.007V36.7047H59.8067L60.3246 37.2435V39.8905L59.8067 40.4197H56.67V42.007H55.6216ZM56.67 39.367H59.2832V37.7644H56.67V39.367ZM60.9973 41.4862V37.2435L61.5153 36.7047H65.181L65.6989 37.2435V41.4793L65.181 42.007H61.5153L60.9973 41.4862ZM62.0457 40.9474H64.6589V37.7699H62.0457V40.9474ZM66.4448 42.007V36.7047H70.892V37.7644H67.4931V38.8296H70.6298V39.8878H67.4931V40.9392H70.892V42.007H66.4448ZM71.5632 42.007V36.7047H72.6115V38.8296H74.1709L75.2199 37.7699V36.7034H76.2611V38.3004L75.2199 39.3559L76.2611 40.417V42.007H75.2199V40.9461L74.1709 39.8961H72.6115V42.007H71.5632ZM76.7226 37.7713V36.7116H81.4098V37.7713H79.5982V42.007H78.5498V37.7644L76.7226 37.7713Z" fill="#A4A4A4"/>
<path d="M0.552063 31.8894L4.15701 32.9946C4.67969 33.1628 5.24144 33.1663 5.76611 33.0043L9.10035 32.0206C9.6245 31.8586 10.1859 31.862 10.708 32.0303L14.0326 33.0485C14.5551 33.2157 15.1162 33.2185 15.6403 33.0568L18.9759 32.0745C19.5001 31.9128 20.0612 31.9157 20.5837 32.0828L21.9829 32.5125L22.6458 33.6716L20.574 33.0388C20.0518 32.8706 19.4904 32.8673 18.9663 33.0291L15.6307 34.0128C15.1065 34.1747 14.5452 34.1713 14.0229 34.0031L10.6984 32.9849C10.176 32.8172 9.61472 32.8143 9.09064 32.9767L5.75506 33.9589C5.23086 34.1209 4.66955 34.1174 4.14734 33.9492L0.279967 32.7653C0.175171 32.7334 0.0872789 32.6613 0.0355117 32.5647C-0.0162552 32.4681 -0.0276837 32.3549 0.00372555 32.25L0.0285872 32.1657C0.0443341 32.1128 0.070462 32.0637 0.10544 32.0211C0.140419 31.9785 0.183545 31.9433 0.232294 31.9176C0.281043 31.8918 0.334435 31.8761 0.389342 31.8712C0.44425 31.8664 0.49957 31.8726 0.552063 31.8894Z" fill="#A4A4A4"/>
<path d="M2.15274 29.798L5.16101 30.7195C5.59797 30.8569 6.06658 30.8569 6.50354 30.7195L9.28529 29.9003C9.72227 29.7628 10.1909 29.7628 10.6278 29.9003L13.3972 30.7637C13.8332 30.9039 14.3019 30.9068 14.7397 30.772L17.5228 29.9514C17.9593 29.8139 18.4274 29.8139 18.864 29.9514L20.0311 30.3092L20.5835 31.2762L18.8598 30.7471C18.4235 30.6074 17.9549 30.605 17.5172 30.7402L14.7342 31.5595C14.2969 31.6947 13.8287 31.6922 13.393 31.5526L10.6181 30.7029C10.1823 30.5632 9.71419 30.5608 9.277 30.696L6.49387 31.5153C6.0562 31.6505 5.58759 31.648 5.15134 31.5084L1.93313 30.5288C1.84607 30.5014 1.77332 30.4409 1.73065 30.3601C1.68798 30.2795 1.67885 30.1852 1.70523 30.0978L1.72595 30.0273C1.73891 29.9843 1.76024 29.9441 1.7887 29.9093C1.81717 29.8744 1.85222 29.8455 1.89186 29.8242C1.93148 29.803 1.97493 29.7896 2.01969 29.7852C2.06445 29.7807 2.10966 29.785 2.15274 29.798Z" fill="#A4A4A4"/>
<path fill-rule="evenodd" clip-rule="evenodd" d="M30.8129 22.1374L35.734 11.8035L40.8335 1.09521L18.4648 22.1374H30.8129Z" fill="#A4A4A4"/>
<path fill-rule="evenodd" clip-rule="evenodd" d="M46.4725 11.8035L51.3937 22.1374H63.7568L41.373 1.09521L46.4725 11.8035Z" fill="#A4A4A4"/>
<path fill-rule="evenodd" clip-rule="evenodd" d="M41.2564 0.579346L46.6252 11.8541L51.9953 23.1287H41.2564H30.5176L35.8863 11.8541L41.2564 0.579346Z" fill="#A4A4A4"/>
<path d="M18.131 21.9067H64.4814C62.1011 26.0781 59.7181 30.2479 57.3323 34.4165H24.8961C22.5103 30.2461 20.124 26.0762 17.7373 21.9067H18.131ZM63.6955 22.3667H18.5301L25.1599 33.9565H57.0712L63.6955 22.3667Z" fill="#A4A4A4"/>
<path d="M41.3063 0.423882C44.9388 8.04993 48.5705 15.676 52.2012 23.3021H30.0039L41.1032 -0.00439453L41.3063 0.423882ZM46.2676 11.8906L41.1032 1.04557L30.7249 22.849H51.4802L46.2676 11.8906Z" fill="#A4A4A4"/>
<path fill-rule="evenodd" clip-rule="evenodd" d="M18.1309 22.137H64.0891L57.2024 34.1853H25.0272L18.1309 22.137Z" fill="#A4A4A4" stroke="#E4E4E5" stroke-width="0.132881" stroke-miterlimit="10"/>
<path fill-rule="evenodd" clip-rule="evenodd" d="M41.1016 14.6821L42.3199 17.0142L43.5367 19.3476H41.1016H38.668L39.8848 17.0142L41.1016 14.6821Z" fill="#E4E4E5"/>
<path fill-rule="evenodd" clip-rule="evenodd" d="M31.1723 21.9061L41.1031 1.05598L46.2702 11.901L51.0354 21.9061H31.1723ZM64.4814 21.9061L41.1031 0.000488281C33.3946 7.25218 25.4444 14.653 17.7373 21.9061C20.124 26.0756 22.5103 30.2455 24.8961 34.4159H57.3323C59.7181 30.2464 62.1011 26.0764 64.4814 21.9061ZM51.7536 22.3661H63.6955L57.0657 33.9558H45.0272V34.1327H41.6597L41.7634 33.9503H40.4843L40.6156 34.181H37.1957V33.9503H25.1571L18.5273 22.3606H51.7536V22.3661ZM42.1929 2.21923L63.1029 21.8771H51.5547L42.1929 2.21923ZM19.1158 21.8771L40.012 2.21923L30.6516 21.8771H19.1158Z" fill="#A4A4A4"/>
<path d="M18.131 21.9067H64.4814C62.1011 26.0781 59.7181 30.2479 57.3323 34.4165H24.8961C22.5103 30.2461 20.124 26.0762 17.7373 21.9067H18.131ZM63.6955 22.3667H18.5301L25.1599 33.9565H57.0712L63.6955 22.3667Z" fill="#A4A4A4"/>
<path fill-rule="evenodd" clip-rule="evenodd" d="M46.268 11.9012L41.1023 1.05615L31.1729 21.9063H34.4933L41.1148 8.04117L47.7376 21.9063H51.0332L46.268 11.9012Z" fill="#E4E4E5"/>
<path fill-rule="evenodd" clip-rule="evenodd" d="M30.4511 22.366H18.5244L20.2676 25.4122H30.8199V33.9556H34.3641V25.4122H38.6459L41.1044 30.0777L43.5422 25.4122H47.8405V33.9556H51.3847V25.4122H61.9495L63.6898 22.366H30.4511ZM40.6168 33.9528L38.7466 30.6676L37.0368 27.6752V33.9543L40.6168 33.9528ZM41.603 33.9528L43.4731 30.6676L45.1831 27.6752V33.9543L41.603 33.9528Z" fill="#E4E4E5"/>
<path fill-rule="evenodd" clip-rule="evenodd" d="M30.0793 20.8752L37.1277 6.07349L21.3916 20.8752H30.0793Z" fill="#E4E4E5"/>
<path fill-rule="evenodd" clip-rule="evenodd" d="M52.113 20.8756H60.8132L45.0605 6.06836L52.113 20.8756Z" fill="#E4E4E5"/>
<path d="M81.6667 31.8903L78.0603 32.9955C77.5379 33.1637 76.9766 33.1671 76.452 33.0052L73.1165 32.0215C72.5927 31.8596 72.0313 31.863 71.5089 32.0312L68.1859 33.0494C67.6629 33.2165 67.1014 33.2194 66.5767 33.0577L63.2425 32.0754C62.7184 31.9137 62.1573 31.9166 61.6348 32.0837L60.2356 32.5134L59.5713 33.6725L61.6431 33.0397C62.1653 32.8716 62.7266 32.8681 63.2508 33.03L66.5865 34.0137C67.1106 34.1756 67.6719 34.1722 68.1942 34.0041L71.5174 32.9858C72.0405 32.8181 72.6019 32.8152 73.1264 32.9776L76.4606 33.9599C76.9851 34.1218 77.5464 34.1185 78.0681 33.9502L81.936 32.7662C82.0402 32.7342 82.1288 32.6621 82.1805 32.5655C82.2323 32.469 82.2436 32.3558 82.2117 32.2509L82.1869 32.1666C82.1713 32.1141 82.1451 32.0652 82.1104 32.0228C82.0756 31.9804 82.0331 31.9454 81.9842 31.9197C81.936 31.894 81.8828 31.8782 81.8283 31.8731C81.7737 31.868 81.7184 31.8739 81.6667 31.8903Z" fill="#A4A4A4"/>
<path d="M80.0666 29.7965L77.0585 30.718C76.6219 30.8555 76.1533 30.8555 75.716 30.718L72.9276 29.9056C72.491 29.7683 72.0225 29.7683 71.5866 29.9056L68.8114 30.7553C68.3758 30.8954 67.9076 30.8983 67.4703 30.7636L64.6871 29.9429C64.2502 29.8055 63.7816 29.8055 63.3446 29.9429L62.1775 30.3008L61.625 31.2679L63.3501 30.7387C63.786 30.5991 64.2541 30.5966 64.6913 30.7318L67.4744 31.551C67.9121 31.6863 68.3807 31.6839 68.8169 31.5441L71.5901 30.6945C72.0267 30.5548 72.4952 30.5524 72.9333 30.6876L75.716 31.5068C76.1533 31.642 76.6211 31.6396 77.0571 31.4999L80.2821 30.5121C80.3693 30.4847 80.4423 30.4242 80.4848 30.3434C80.5273 30.2628 80.5365 30.1685 80.5103 30.0811L80.4897 30.0106C80.46 29.9274 80.3997 29.8586 80.3211 29.8187C80.2424 29.7788 80.1517 29.7709 80.0666 29.7965Z" fill="#A4A4A4"/>
</g>
</svg>
