<svg width="239" height="28" viewBox="0 0 239 28" fill="none" xmlns="http://www.w3.org/2000/svg">
<path d="M234.555 0.463867H238.074V27.5357H234.555V0.463867Z" fill="#A5A5A5"/>
<path d="M205.371 27.5357V0.463867H214.266C216.406 0.463867 218.366 0.811934 220.145 1.50807C221.924 2.17842 223.445 3.11948 224.708 4.33127C225.997 5.51727 226.99 6.93532 227.686 8.58541C228.408 10.2355 228.769 12.0145 228.769 13.9224C228.769 15.9077 228.395 17.7383 227.647 19.4141C226.925 21.0642 225.92 22.4952 224.631 23.707C223.367 24.9187 221.885 25.8598 220.183 26.5302C218.482 27.2005 216.664 27.5357 214.73 27.5357H205.371ZM208.89 25.834H213.145C215.259 25.834 217.051 25.486 218.52 24.7898C220.016 24.0679 221.24 23.1397 222.194 22.0053C223.148 20.8709 223.844 19.6075 224.283 18.2152C224.721 16.7972 224.94 15.392 224.94 13.9998C224.94 12.4528 224.682 10.9703 224.167 9.55226C223.651 8.10843 222.89 6.84508 221.885 5.76221C220.905 4.65355 219.68 3.77694 218.211 3.13238C216.741 2.48781 215.052 2.16553 213.145 2.16553H208.89V25.834Z" fill="#A5A5A5"/>
<path d="M178.771 0.463867H187.55C189.277 0.463867 190.708 0.708802 191.842 1.19867C192.977 1.66276 193.866 2.25576 194.511 2.97768C195.181 3.67381 195.645 4.4344 195.903 5.25945C196.187 6.08449 196.329 6.84508 196.329 7.54122C196.329 8.3147 196.2 9.11396 195.942 9.93901C195.684 10.7383 195.271 11.486 194.704 12.1821C194.137 12.8782 193.402 13.4583 192.5 13.9224C191.623 14.3865 190.566 14.6572 189.329 14.7346V14.8893L189.715 15.0827C190.025 15.2373 190.282 15.4307 190.489 15.6628C190.721 15.8948 191.004 16.2687 191.34 16.7843C191.701 17.3 192.178 18.0348 192.771 18.9887C193.364 19.9169 194.201 21.1674 195.284 22.7401C195.645 23.2815 195.993 23.7714 196.329 24.2097C196.664 24.6222 197.012 24.9832 197.373 25.2926C197.734 25.5762 198.12 25.7954 198.533 25.9501C198.945 26.1048 199.422 26.1821 199.964 26.1821C200.093 26.1821 200.222 26.1821 200.351 26.1821C200.48 26.1563 200.608 26.1305 200.737 26.1048V27.5357C200.376 27.742 200.015 27.8709 199.654 27.9224C199.294 27.974 198.829 27.9998 198.262 27.9998C197.489 27.9998 196.818 27.8966 196.251 27.6904C195.71 27.4841 195.22 27.2134 194.782 26.8782C194.343 26.5173 193.931 26.0919 193.544 25.602C193.183 25.1121 192.809 24.5707 192.422 23.9777L189.367 19.4528C188.903 18.7309 188.503 18.125 188.168 17.6351C187.833 17.1453 187.472 16.7456 187.085 16.4362C186.699 16.1269 186.26 15.9077 185.771 15.7788C185.306 15.6499 184.713 15.5854 183.991 15.5854H182.29V27.5357H178.771V0.463867ZM182.29 2.16553V13.8451H186.273C187.305 13.8451 188.207 13.6646 188.98 13.3036C189.78 12.9427 190.45 12.4786 190.991 11.9114C191.533 11.3184 191.933 10.6738 192.19 9.97768C192.474 9.25576 192.616 8.54674 192.616 7.85061C192.616 7.02556 192.461 6.26497 192.152 5.56884C191.868 4.87271 191.443 4.27971 190.875 3.78983C190.308 3.27418 189.625 2.87455 188.826 2.59094C188.052 2.30733 187.176 2.16553 186.196 2.16553H182.29Z" fill="#A5A5A5"/>
<path d="M157.055 0.463867H174.535V2.59094H160.574V12.2981H172.563V14.0771H160.574V25.4086H174.535V27.5357H157.055V0.463867Z" fill="#A5A5A5"/>
<path d="M128.153 0.463867H132.33L141.612 22.7401H141.767L150.778 0.463867H152.789L141.805 27.5357H139.485L128.153 0.463867Z" fill="#A5A5A5"/>
<path d="M107.925 19.5688H94.5827L91.1794 27.5357H89.4004L100.848 0.463867H102.782L115.389 27.5357H111.638L107.925 19.5688ZM107.113 17.8285L101.041 4.79536H100.887L95.3175 17.8285H107.113Z" fill="#A5A5A5"/>
<path d="M83.3834 0.464087H85.1624V28H84.9691L63.505 6.8453H63.3503V27.5359H61.5713V0H61.7647L83.2288 21.1547H83.3834V0.464087Z" fill="#A5A5A5"/>
<path d="M52.0719 0.464087H53.8509V28H53.6576L32.1935 6.8453H32.0388V27.5359H30.2598V0H30.4531L51.9172 21.1547H52.0719V0.464087Z" fill="#A5A5A5"/>
<path d="M18.5249 19.5688H5.18232L1.77901 27.5357H0L11.4475 0.463867H13.3812L25.9889 27.5357H22.2376L18.5249 19.5688ZM17.7127 17.8285L11.6409 4.79536H11.4862L5.91713 17.8285H17.7127Z" fill="#A5A5A5"/>
</svg>
