<svg width="136" height="35" viewBox="0 0 136 35" fill="none" xmlns="http://www.w3.org/2000/svg">
<g clip-path="url(#clip0_4914_5506)">
<path fill-rule="evenodd" clip-rule="evenodd" d="M77.4865 0.251877C76.0687 0.620032 75.1294 1.1746 74.1417 2.22666C73.0708 3.36744 72.5653 4.47059 72.2823 6.28535L72.0713 7.63725L72.2751 8.86244C72.7175 11.5234 74.1504 13.5159 76.3594 14.5429L77.4865 15.067H79.5528C80.6893 15.067 81.9668 14.9616 82.3917 14.8327C83.4389 14.5152 85.1575 13.3623 85.5364 12.7233L85.8456 12.2017V10.0605V7.91912L85.5021 7.60936L85.1587 7.2996H82.3087H79.4589L79.0832 7.67394C78.8766 7.87982 78.7075 8.1746 78.7075 8.32902C78.7075 8.48343 78.8766 8.77821 79.0832 8.9841L79.4589 9.35843H81.6191H83.7793V10.5655V11.7725L83.1688 12.2267C82.2843 12.885 81.2357 13.1742 79.7407 13.1719L78.4257 13.1701L77.4382 12.7379C76.3619 12.267 75.4345 11.3467 75.0056 10.324C74.2745 8.58075 74.3356 6.06038 75.1469 4.47565C75.6054 3.58025 76.8187 2.55177 77.7416 2.27626C78.7235 1.98316 80.6481 2.0015 81.3903 2.31107C81.994 2.563 83.4036 3.95626 83.4036 4.30121C83.4036 4.40153 83.6144 4.62107 83.8719 4.78915C84.4385 5.15899 85.1872 5.01861 85.4716 4.48912L85.6719 4.11629L85.4587 3.32158C85.1716 2.2523 83.9435 1.09543 82.529 0.562197C81.1786 0.0529192 78.8133 -0.0925081 77.4865 0.251877ZM93.3594 0.267973C90.5327 1.05164 88.7743 3.06666 88.2562 6.11597L88.028 7.45907L88.2508 8.88602C88.6721 11.5872 89.9647 13.4046 92.2324 14.4853L93.4534 15.067L95.6136 15.0623L97.7738 15.0574L98.8778 14.6187C99.5407 14.3554 100.348 13.8287 100.897 13.3009L101.812 12.422V10.1705V7.91912L101.469 7.60936L101.126 7.2996H98.2755H95.4257L95.05 7.67394C94.8434 7.87982 94.6744 8.1746 94.6744 8.32902C94.6744 8.48343 94.8434 8.77821 95.05 8.9841L95.4257 9.35843H97.586H99.7462V10.546V11.7336L99.4105 12.0362C99.226 12.2026 98.6554 12.5247 98.1425 12.7519L97.2103 13.165L95.8014 13.1695L94.3926 13.174L93.3981 12.737C91.4436 11.8779 90.4375 10.0446 90.4659 7.39319L90.4818 5.89586L90.9137 4.90613C91.4427 3.69367 92.6721 2.5688 93.8176 2.24931C94.2806 2.12017 95.2448 2.04886 95.9737 2.08984L97.2922 2.16415L97.8148 2.54934C98.1022 2.76121 98.6531 3.34816 99.0389 3.85369C99.8771 4.9518 100.322 5.19324 100.969 4.89976L101.437 4.68733V3.86904V3.05094L100.881 2.28674C99.5476 0.452519 96.0652 -0.482188 93.3594 0.267973ZM128.447 0.250566C127.084 0.634817 126.119 1.40276 125.554 2.55196L125.06 3.55816L125.14 4.66188L125.22 5.76559L125.737 6.4407C126.412 7.3215 127.185 7.69658 129.976 8.49728C132.75 9.29311 133.373 9.6287 133.709 10.5073L133.963 11.1728L133.674 11.8625L133.385 12.5522L132.579 12.9164C131.68 13.323 130.113 13.3991 128.998 13.0905C128.203 12.8706 127.139 12.0182 126.669 11.225C126.498 10.9366 126.15 10.6063 125.896 10.491L125.435 10.2813L124.966 10.5874L124.497 10.8934L124.594 11.6145C124.873 13.6812 127.303 15.1606 130.42 15.1606C132.424 15.1606 133.742 14.7707 134.725 13.8867C135.686 13.0224 136.001 12.2883 135.999 10.9085L135.998 9.82634L135.577 9.13196C134.926 8.06174 134.029 7.52832 131.68 6.81466C127.593 5.57319 127.359 5.42439 127.359 4.06182V3.3403L127.888 2.8138C128.247 2.45594 128.762 2.21562 129.497 2.06364L130.577 1.84017L131.511 2.06345L132.445 2.28674L133.419 3.38952L134.393 4.49212H134.919H135.445L135.656 4.02963L135.868 3.56733L135.545 2.7249C134.932 1.12519 133.265 0.183562 130.85 0.0716368C129.936 0.0293373 128.98 0.100459 128.447 0.250566ZM28.5312 0.46824C29.3297 0.716422 30.4587 1.61538 30.8338 2.3019L31.0175 2.63824L30.114 2.1823C28.8979 1.56877 27.3361 1.12295 26.4054 1.12388C24.9218 1.12519 23.9035 2.22049 24.3924 3.28939C24.6526 3.85819 24.8941 3.87297 24.9353 3.32233C24.973 2.81717 25.6262 2.24613 26.1662 2.24613C26.6511 2.24613 27.9076 2.85928 28.6208 3.4438L29.1582 3.88439L28.3099 4.66356C27.4066 5.49327 26.8988 6.36827 26.7343 7.37896C26.5874 8.28092 26.934 8.36327 28.027 7.68629C28.5494 7.36268 29.0006 7.12236 29.0297 7.15212C29.0589 7.18169 28.9734 7.52196 28.8398 7.90827C28.1916 9.78161 26.7371 10.6927 23.5388 11.2284C22.4212 11.4158 20.9999 11.7549 20.3806 11.9823C18.2824 12.7529 17.4106 12.9146 15.3567 12.9146C13.9662 12.9146 13.1102 13.004 12.6436 13.1983C11.7831 13.5566 11.4621 13.4514 10.635 12.5391C9.60015 11.398 9.45721 12.4006 10.4411 13.8991L10.9031 14.6026L10.6316 15.1258C10.4825 15.4132 10.2326 16.3187 10.0767 17.1378C9.59471 19.6696 9.11476 20.5008 7.56147 21.4939C7.00751 21.8482 6.4746 22.3917 6.20579 22.877C4.76502 25.4781 2.22854 28.3537 0.879437 28.9152C0.52441 29.0631 0.181217 29.3204 0.116974 29.4872C-0.123281 30.111 0.000697632 31.4028 0.340885 31.8215L0.681261 32.2406L1.37403 31.4343C1.75498 30.9909 2.06662 30.4801 2.06662 30.2997C2.06662 29.772 4.18608 27.2638 5.58008 26.1414C7.24683 24.7996 8.41147 24.2465 10.144 23.9735C10.9188 23.8514 11.7429 23.6274 11.9755 23.4758C12.6108 23.0614 12.4898 23.3728 11.5545 24.5598C10.7086 25.6334 9.3877 26.7677 8.2873 27.3655C7.96346 27.5412 7.60806 27.9202 7.49723 28.2077C7.28553 28.757 7.38377 29.8916 7.6676 30.1744C7.95895 30.4647 9.45589 29.1634 9.65801 28.4439C9.9456 27.4194 12.0234 25.4884 13.8464 24.5516C16.1514 23.367 17.8105 22.7859 18.8053 22.8145L19.6711 22.8394L19.995 21.9946C20.173 21.53 20.377 21.1499 20.4482 21.1499C20.5196 21.1499 20.5264 21.7183 20.4634 22.4132C20.4003 23.1082 20.4351 24.54 20.5403 25.5951L20.7319 27.5137L20.3988 28.5897C20.2157 29.1817 19.6446 30.4587 19.1297 31.4277L18.1937 33.1893L18.5048 34.0012C18.6759 34.4476 18.9282 34.813 19.0655 34.813C19.4145 34.813 20.2649 33.7617 20.4016 33.1609C21.0888 30.1445 21.7179 28.1821 22.358 27.0593C22.5384 26.7429 22.7364 26.0209 22.7978 25.4547C22.8594 24.8885 23.0354 24.0042 23.1889 23.4894L23.4682 22.5536L24.2729 22.3099C24.7155 22.1761 25.5503 21.7789 26.1281 21.4278L27.1785 20.789L28.1243 21.1471C28.6447 21.3442 29.4924 21.5611 30.0084 21.6292C30.5244 21.6975 31.0521 21.8182 31.181 21.8976L31.4154 22.0419L31.0883 23.0464C30.5216 24.7884 28.8795 27.1392 28.2295 27.1392C27.6805 27.1392 27.3968 29.0181 27.8521 29.6386L28.0907 29.9637L28.9858 28.9307C29.4781 28.3625 30.008 27.5375 30.1636 27.0973C30.4829 26.1929 31.6776 24.1069 32.6195 22.8093C32.9657 22.3322 33.2489 21.7686 33.2489 21.5568C33.2489 21.3097 32.8622 20.8727 32.1688 20.3366C31.5749 19.8773 30.7786 19.1775 30.3995 18.7815L29.7103 18.0616L30.722 16.0028C31.6654 14.0827 32.6854 10.8659 32.6854 9.81062C32.6854 9.51434 32.5101 9.27776 32.1551 9.0949C31.5942 8.80573 31.0237 8.23375 31.3006 8.23787C31.3906 8.23918 32.0003 8.40763 32.6552 8.6122C33.3102 8.81677 34.088 8.9841 34.3839 8.9841H34.9219L35.2379 9.64741C35.4116 10.0122 35.7959 10.4356 36.092 10.5881C36.7186 10.911 36.7154 10.9177 36.3484 10.0423C35.9759 9.15404 35.9684 9.17126 36.7241 9.17126C37.3928 9.17126 38.1393 8.64813 38.1263 8.18864C38.1126 7.7065 37.6081 7.06602 36.7107 6.39166C36.2015 6.00891 35.38 5.10976 34.8851 4.39348C34.3903 3.6772 33.7563 2.9757 33.4762 2.83476C33.1963 2.69383 32.5868 2.21768 32.1219 1.77653C30.9437 0.658775 29.9147 0.184497 28.7012 0.199845L27.7075 0.212385L28.5312 0.46824ZM63.7133 0.505673C63.2112 0.921555 58.6081 13.2247 58.6081 14.1512C58.6081 14.5745 58.7241 14.8349 58.9713 14.9668C59.9575 15.4928 60.4508 14.9876 61.2317 12.6524L61.8356 10.8464L64.7483 10.8979L67.6613 10.9493L68.3473 12.8143L69.0335 14.6792L69.5284 14.9556L70.0234 15.2319L70.5146 14.9111C70.8043 14.722 71.0043 14.4194 71.0019 14.1736C70.9965 13.585 66.4042 1.33894 65.9716 0.759096L65.6147 0.280887L64.8673 0.224924C64.3588 0.186742 63.99 0.276582 63.7133 0.505673ZM105.137 0.520459L104.818 0.871769V7.64193V14.4119L105.194 14.7862C105.706 15.2968 106.218 15.256 106.683 14.6674L107.072 14.1742L107.069 7.69546L107.067 1.21672L106.83 0.748802C106.525 0.143695 105.593 0.0181064 105.137 0.520459ZM110.952 0.529631L110.641 0.871769V7.72204V14.5723L110.936 14.8665C111.52 15.4482 112.393 15.0737 112.628 14.1401C112.688 13.9021 112.709 11.5075 112.675 8.81883C112.641 6.13019 112.629 3.93043 112.647 3.93043C112.665 3.93062 114.208 6.36265 116.074 9.33522L119.468 14.74L120.044 14.9779L120.621 15.2158L121.126 14.8405L121.63 14.4652L121.679 7.58222L121.729 0.699203L121.516 0.44316C121.221 0.0901649 120.322 0.121984 120.009 0.496502L119.752 0.805513L119.658 6.04878L119.564 11.292L116.392 6.20038C114.647 3.4 113.056 0.901342 112.856 0.648106C112.409 0.082117 111.415 0.0203531 110.952 0.529631ZM46.144 0.654284L45.8346 0.962732V7.68292V14.4033L46.2991 14.7067L46.7638 15.0099L50.103 14.9403L53.4423 14.8706L54.3746 14.4469C54.8874 14.2139 55.4671 13.879 55.6626 13.7029C56.1154 13.2951 56.6413 12.25 56.7931 11.4575C57.0871 9.92049 56.0303 7.73289 54.7753 7.2807L54.1152 7.04281L54.6727 6.70498C55.5507 6.17305 55.9767 5.31059 55.9775 4.06351C55.9784 2.59051 55.4827 1.66311 54.335 0.990807L53.4423 0.468053L49.9478 0.407038L46.4535 0.346021L46.144 0.654284ZM47.9414 4.25816L47.9948 6.27019L50.0611 6.25391L52.1274 6.23762L52.7264 5.92749C54.3408 5.09161 54.3107 3.18907 52.6723 2.50704C52.2645 2.33728 51.3197 2.24613 49.9668 2.24613H47.8881L47.9414 4.25816ZM63.6455 5.8865C63.0767 7.48509 62.6546 8.83586 62.7072 8.88845C62.8607 9.04118 66.8733 8.99888 66.8733 8.84447C66.8733 8.61706 64.9486 3.28883 64.8083 3.12787C64.7376 3.04664 64.2143 4.28811 63.6455 5.8865ZM47.9912 8.27062C47.9347 8.41773 47.9123 9.54372 47.9416 10.773L47.9948 13.0082L50.3429 12.9949L52.6909 12.9814L53.2548 12.6864C53.5652 12.5242 53.9878 12.2054 54.1941 11.9782L54.5694 11.5651V10.575V9.5849L54.1941 9.17182C53.4525 8.35522 52.8025 8.16918 50.3926 8.0842L48.0944 8.00335L47.9912 8.27062ZM49.9428 20.1326C47.9959 20.7299 46.1937 22.4846 45.5594 24.4002C45.132 25.6909 44.988 27.9361 45.2515 29.198C45.7589 31.6276 47.0449 33.3106 49.1407 34.2876L50.3432 34.8484L51.7989 34.9474L53.2545 35.0466L54.4693 34.736C55.1372 34.5654 56.0909 34.1654 56.5882 33.8474C58.1413 32.8545 58.8949 30.9942 58.052 30.2342C57.4748 29.7136 56.8387 30.0026 55.9632 31.1835C55.0112 32.4676 54.0923 32.9314 52.4896 32.9372C50.9981 32.9426 49.79 32.5161 48.9248 31.6791C47.9679 30.753 47.5056 29.6167 47.3877 27.9013L47.2889 26.4654L47.5964 25.4111C48.0008 24.0251 48.9057 22.8739 50.053 22.2856L50.9806 21.8098L52.3994 21.8166C54.3701 21.8261 54.6049 21.9661 56.538 24.2849C56.9233 24.747 57.8212 24.8537 58.1948 24.4814C58.8083 23.8701 58.2574 22.2693 57.0906 21.2743C55.5629 19.9713 52.2127 19.4362 49.9428 20.1326ZM65.529 20.0903C64.3888 20.5131 63.2033 21.2826 62.5506 22.0232C60.2833 24.5962 60.115 29.3971 62.191 32.2774C64.2376 35.1171 68.852 35.8544 71.8782 33.8253C72.9921 33.0783 73.8481 31.9746 74.4098 30.5609L74.8398 29.4788V27.3263V25.1739L74.4122 24.0983C73.8485 22.6796 72.4096 21.1252 71.044 20.4594L69.9774 19.9395L68.0967 19.8874C66.8524 19.8532 65.9834 19.9217 65.529 20.0903ZM78.1539 20.3913L77.7683 20.7755V27.5002V34.2247L78.0634 34.5189C78.4128 34.8669 79.29 34.9064 79.6092 34.5884C79.7666 34.4315 79.8346 33.4182 79.8346 31.2319V28.1003L82.9496 28.0408L86.0645 27.9814L86.3308 27.6181C86.6919 27.1253 86.6658 26.8333 86.2213 26.3905L85.8456 26.0162H82.8401H79.8346V24.0509V22.0857H83.2738H86.7131L87.0542 21.8371C87.4384 21.5573 87.5096 20.6743 87.175 20.3404C87.023 20.1886 85.6508 20.1029 82.7471 20.0637L78.5396 20.007L78.1539 20.3913ZM90.1661 20.4012L89.7904 20.7755V27.3782V33.981L90.0829 34.3969C90.2701 34.6634 90.5701 34.813 90.9174 34.813C91.2648 34.813 91.5648 34.6634 91.752 34.3969L92.0445 33.981V31.0279V28.075H94.9142H97.7841L98.2015 27.7836C98.4346 27.6209 98.6191 27.2951 98.6191 27.0456C98.6191 26.7961 98.4346 26.4702 98.2015 26.3076L97.7841 26.0162H94.9142H92.0445V24.0509V22.0857H95.4257H98.8069L99.1826 21.7114C99.3893 21.5055 99.5583 21.2107 99.5583 21.0563C99.5583 20.9019 99.3893 20.6071 99.1826 20.4012L98.8069 20.0269H94.6744H90.5418L90.1661 20.4012ZM102.418 20.3183L102 20.6095V27.3932V34.1766L102.226 34.4012L102.451 34.6258H106.884H111.317L111.543 34.4012C111.667 34.2777 111.768 33.9576 111.768 33.69C111.768 33.4223 111.667 33.1023 111.543 32.9788L111.317 32.7542H107.692H104.067V30.4269V28.0997L107.276 28.0406L110.484 27.9814L110.751 27.6181C111.112 27.1253 111.086 26.8333 110.641 26.3905L110.266 26.0162H107.166H104.067V24.0509V22.0857H107.542H111.017L111.393 21.7114C111.599 21.5055 111.768 21.2107 111.768 21.0563C111.768 20.9019 111.599 20.6071 111.393 20.4012L111.017 20.0269H106.926H102.835L102.418 20.3183ZM114.816 20.3183L114.398 20.6095V27.3235V34.0375L114.693 34.3318L114.989 34.6258H119.36H123.732L124.043 34.2835C124.446 33.8401 124.437 33.4485 124.015 33.0682L123.676 32.7628L120.117 32.7117L116.558 32.6606L116.506 30.3678L116.453 28.075H119.516H122.58L122.997 27.7836C123.23 27.6209 123.415 27.2951 123.415 27.0456C123.415 26.7961 123.23 26.4702 122.997 26.3076L122.58 26.0162H119.522H116.464V24.0509V22.0857H119.898H123.331L123.748 21.7943C123.982 21.6316 124.166 21.3058 124.166 21.0563C124.166 20.8068 123.982 20.4809 123.748 20.3183L123.331 20.0269H119.282H115.233L114.816 20.3183ZM66.4436 21.9775C65.2168 22.3064 64.2577 23.1295 63.586 24.4303L63.0224 25.5215L63.0232 27.3131L63.0237 29.1044L63.4671 30.0827C64.0032 31.2662 65.2574 32.4663 66.243 32.739C66.6413 32.849 67.4366 32.9396 68.0105 32.9402L69.0536 32.9413L70.0236 32.4597C71.8637 31.546 72.8127 29.5654 72.6548 26.9679C72.496 24.3573 71.3047 22.5982 69.2923 22.0026C68.1296 21.6586 67.6498 21.6545 66.4436 21.9775Z" fill="#A5A5A5"/>
</g>
<defs>
<clipPath id="clip0_4914_5506">
<rect width="136" height="35" fill="white"/>
</clipPath>
</defs>
</svg>
