<svg width="122" height="35" viewBox="0 0 122 35" fill="none" xmlns="http://www.w3.org/2000/svg">
<g clip-path="url(#clip0_4914_5476)">
<path d="M121.406 20.1904H118.325V23.2487H121.406V20.1904Z" fill="#A5A5A5"/>
<path d="M4.56466 33.5559H0.200195V16.2258H4.56466C6.96081 16.2258 8.92912 18.1797 8.92912 20.5584V22.0025C8.92912 23.0503 8.70091 23.9564 7.81661 24.8909C8.52974 25.6554 8.92912 26.7315 8.92912 27.7792V29.2234C8.92912 31.602 6.98936 33.5559 4.56466 33.5559ZM6.04802 20.5584C6.04802 19.7655 5.39191 19.1142 4.56466 19.1142H3.13836V23.4467H4.56466C5.36338 23.4467 6.04802 22.7954 6.04802 21.9742V20.5584ZM6.04802 27.7792C6.04802 26.9864 5.39191 26.3068 4.56466 26.3068H3.13836V30.6393H4.56466C5.36338 30.6393 6.04802 30.0163 6.04802 29.1951V27.7792Z" fill="#A5A5A5"/>
<path d="M14.7482 33.5559C12.352 33.5559 10.3838 31.602 10.3838 29.2234V20.5584C10.3838 18.1797 12.352 16.2258 14.7482 16.2258C17.1444 16.2258 19.1127 18.1797 19.1127 20.5584H16.203C16.203 19.7655 15.5755 19.1142 14.7482 19.1142C13.9495 19.1142 13.2934 19.7372 13.2934 20.5584V29.2234C13.2934 30.0163 13.921 30.6676 14.7482 30.6676C15.5469 30.6676 16.203 30.0446 16.203 29.2234H19.1127C19.1127 31.602 17.1444 33.5559 14.7482 33.5559Z" fill="#A5A5A5"/>
<path d="M24.9319 33.5559C22.5357 33.5559 20.5674 31.602 20.5674 29.2234V20.5584C20.5674 18.1797 22.5357 16.2258 24.9319 16.2258C27.3281 16.2258 29.2963 18.1797 29.2963 20.5584V26.6183H23.477V29.2234C23.477 30.0163 24.1046 30.6676 24.9319 30.6676C25.7306 30.6676 26.3867 30.0446 26.3867 29.2234H29.2963C29.2963 31.602 27.3281 33.5559 24.9319 33.5559ZM26.3582 20.5584C26.3582 19.7655 25.7306 19.1142 24.9033 19.1142C24.1046 19.1142 23.4485 19.7372 23.4485 20.5584V23.7582H26.3296V20.5584H26.3582Z" fill="#A5A5A5"/>
<path d="M45.1569 35.0001V33.5559H39.2806V35.0001H36.3994V30.6676H37.8828V20.5584C37.8828 18.1797 39.8511 16.2258 42.2473 16.2258H48.0666V19.1142H46.6117V30.6393H48.0666V34.9718H45.1569V35.0001ZM43.6736 19.1142H42.2187C41.4486 19.1142 40.7354 19.7371 40.7354 20.5584V30.6676H43.645V19.1142H43.6736Z" fill="#A5A5A5"/>
<path d="M53.4865 33.5559C51.0904 33.5559 49.1221 31.602 49.1221 29.2234V20.5584C49.1221 18.1797 51.0904 16.2258 53.4865 16.2258C55.8828 16.2258 57.851 18.1797 57.851 20.5584V29.2234C57.851 31.602 55.9112 33.5559 53.4865 33.5559ZM54.9411 20.5584C54.9411 19.7655 54.3138 19.1142 53.4865 19.1142C52.6878 19.1142 52.0317 19.7372 52.0317 20.5584V29.2234C52.0317 30.0163 52.6593 30.6676 53.4865 30.6676C54.2853 30.6676 54.9411 30.0446 54.9411 29.2234V20.5584Z" fill="#A5A5A5"/>
<path d="M69.8604 33.5559V21.2097L66.0377 27.7792L62.2156 21.2097V33.5559H59.3057V16.2258H62.6717L66.0377 22.0025L69.4037 16.2258H72.7413V33.5559H69.8604Z" fill="#A5A5A5"/>
<path d="M81.4986 32.4516C80.728 33.1595 79.6726 33.5559 78.5887 33.5559C76.1928 33.5559 74.2246 31.602 74.2246 29.2234V26.3351C74.2246 23.9564 76.1928 22.0025 78.5887 22.0025H80.0439V20.5584C80.0439 19.7655 79.4161 19.1142 78.5887 19.1142C77.7902 19.1142 77.134 19.7372 77.134 20.5584H74.2246C74.2246 18.1797 76.1928 16.2258 78.5887 16.2258C80.9851 16.2258 82.9533 18.1797 82.9533 20.5584V29.2234C82.9533 30.0163 83.5811 30.6676 84.408 30.6676V33.5559C83.2956 33.5559 82.2686 33.1595 81.4986 32.4516ZM80.0149 24.8909H78.5602C77.7618 24.8909 77.1055 25.5138 77.1055 26.3351V29.2234C77.1055 30.0163 77.7328 30.6676 78.5602 30.6676C79.3592 30.6676 80.0149 30.0446 80.0149 29.2234V24.8909Z" fill="#A5A5A5"/>
<path d="M12.7507 6.00326H12.3514C12.1232 6.00326 11.952 6.17317 11.952 6.39974V6.8245C12.0661 6.79617 12.2087 6.76785 12.3514 6.76785C13.0075 6.76785 13.5495 7.30586 13.5495 7.95719V9.99599C13.5495 10.6473 13.0075 11.1853 12.3514 11.1853C11.6953 11.1853 11.1533 10.6473 11.1533 9.99599V6.39974C11.1533 5.74842 11.6953 5.21041 12.3514 5.21041H12.7507C12.979 5.21041 13.1501 5.0405 13.1501 4.81396H13.9488C13.9488 5.46526 13.4068 6.00326 12.7507 6.00326ZM12.7507 7.95719C12.7507 7.73062 12.5796 7.5607 12.3514 7.5607C12.1517 7.5607 11.952 7.73062 11.952 7.92886V9.99599C11.952 10.2226 12.1232 10.3924 12.3514 10.3924C12.5796 10.3924 12.7507 10.2226 12.7507 9.99599V7.95719Z" fill="#A5A5A5"/>
<path d="M20.3672 12.7994H19.1406V12.0065H20.3958C20.624 12.0065 20.7666 11.8366 20.7666 11.6101V11.157C20.6525 11.1853 20.5098 11.2136 20.3672 11.2136C19.7111 11.2136 19.1691 10.6756 19.1691 10.0243V6.39966H19.9679V9.99596C19.9679 10.2225 20.139 10.3924 20.3672 10.3924C20.5669 10.3924 20.7666 10.2225 20.7666 10.0243V6.39966H21.5653V11.5817C21.5653 12.2613 21.0518 12.7994 20.3672 12.7994Z" fill="#A5A5A5"/>
<path d="M29.8384 7.19257V11.1853H29.0397V7.19257H28.8115C28.6403 7.19257 28.4406 7.30583 28.4121 7.50407L27.8701 11.1853H26.7861V10.4207L27.1855 10.449L27.6419 7.36249C27.7275 6.79614 28.241 6.39966 28.8115 6.39966H30.2663V7.19257H29.8384Z" fill="#A5A5A5"/>
<path d="M36.7127 11.1853C36.0567 11.1853 35.5146 10.6472 35.5146 9.99596V7.589C35.5146 6.93773 36.0567 6.39966 36.7127 6.39966C37.3688 6.39966 37.9108 6.93773 37.9108 7.589V9.99596C37.9108 10.6472 37.3688 11.1853 36.7127 11.1853ZM37.1121 7.589C37.1121 7.36249 36.941 7.19257 36.7127 7.19257C36.4845 7.19257 36.3134 7.36249 36.3134 7.589V9.99596C36.3134 10.2225 36.4845 10.3924 36.7127 10.3924C36.941 10.3924 37.1121 10.2225 37.1121 9.99596V7.589Z" fill="#A5A5A5"/>
<path d="M44.9285 11.1853V9.48623C44.8144 9.51456 44.6433 9.54283 44.5292 9.54283C43.8731 9.54283 43.3311 9.00481 43.3311 8.35354V6.37134H44.1298V8.35354C44.1298 8.58006 44.3009 8.74997 44.5292 8.74997C44.7289 8.74997 44.9285 8.58006 44.9285 8.38187V6.37134H45.7272V11.1569H44.9285V11.1853Z" fill="#A5A5A5"/>
<path d="M52.7441 11.1853V9.17478H51.9169V11.1853H51.1182V6.39966H51.9169V8.41019H52.7156V6.39966H53.5144V11.1853H52.7441Z" fill="#A5A5A5"/>
<path d="M60.9595 10.9021C60.7315 11.1003 60.4466 11.2136 60.1611 11.2136C59.5048 11.2136 58.9629 10.6755 58.9629 10.0242V9.23136C58.9629 8.58009 59.5048 8.04202 60.1611 8.04202H60.5603V7.64559C60.5603 7.41907 60.3891 7.24916 60.1611 7.24916C59.933 7.24916 59.7619 7.41907 59.7619 7.64559H58.9629C58.9629 6.99431 59.5048 6.4563 60.1611 6.4563C60.8173 6.4563 61.3593 6.99431 61.3593 7.64559V10.0525C61.3593 10.2791 61.5305 10.449 61.7585 10.449V11.2419C61.4446 11.1852 61.1597 11.1003 60.9595 10.9021ZM60.5319 8.8066H60.1327C59.9041 8.8066 59.7329 8.97652 59.7329 9.20303V9.99595C59.7329 10.2225 59.9041 10.3924 60.1327 10.3924C60.3607 10.3924 60.5319 10.2225 60.5319 9.99595V8.8066Z" fill="#A5A5A5"/>
<path d="M69.8598 7.19257V11.1853H69.0614V9.5712C68.9187 9.5712 68.8044 9.5712 68.6616 9.5712L67.7205 11.1853H66.7793L67.8632 9.28803C67.5777 9.06152 67.435 8.72169 67.435 8.38186V7.589C67.435 6.93773 67.977 6.39966 68.6332 6.39966H70.2306V7.19257H69.8598ZM69.0614 7.19257H68.6616C68.4336 7.19257 68.2624 7.36249 68.2624 7.589V8.38186C68.2624 8.60843 68.4336 8.77835 68.6616 8.77835H69.0614V7.19257Z" fill="#A5A5A5"/>
<path d="M114.303 21.7192H95.4473V30.4692H114.303V21.7192Z" fill="#1E1E1E"/>
<path d="M97.3594 11.8932C97.3594 7.78723 101.439 7.67397 101.439 5.80502C101.439 4.41748 99.0711 3.25647 98.2152 2.60518L100.212 0C102.408 1.6424 104.719 2.77508 104.719 5.80502C104.719 9.91102 100.697 9.96762 100.697 11.8366C100.697 13.2241 103.008 14.3851 103.863 15.0364L101.866 17.6982C99.6984 16.0558 97.3594 14.9231 97.3594 11.8932Z" fill="#A5A5A5"/>
<path d="M104.747 11.8932C104.747 7.78723 108.826 7.67397 108.826 5.80502C108.826 4.41748 106.458 3.25647 105.602 2.60518L107.6 0C109.796 1.6424 112.106 2.77508 112.106 5.80502C112.106 9.91102 108.085 9.96762 108.085 11.8366C108.085 13.2241 110.395 14.3851 111.251 15.0364L109.254 17.6982C107.058 16.0558 104.747 14.9231 104.747 11.8932Z" fill="#A5A5A5"/>
<path d="M92.3096 23.5881V18.5759H95.6756V20.275H114.104V18.5759H117.47V23.5881C117.47 29.1099 112.962 33.584 107.4 33.584H102.351C96.8169 33.584 92.3096 29.1099 92.3096 23.5881ZM107.4 30.2709C111.108 30.2709 114.104 27.241 114.104 23.5881H95.6756C95.6756 27.241 98.6708 30.2709 102.379 30.2709H107.4Z" fill="#A5A5A5"/>
<path d="M0.814637 7.33228L0.0078125 8.13317L2.54932 10.6561L3.35615 9.85517L0.814637 7.33228Z" fill="#A5A5A5"/>
<path d="M2.54932 7.33228L0.0078125 9.85517L0.814637 10.6561L3.35615 8.13317L2.54932 7.33228Z" fill="#A5A5A5"/>
<path d="M80.4898 7.33838L79.6826 8.13928L82.2245 10.6622L83.0311 9.86128L80.4898 7.33838Z" fill="#A5A5A5"/>
<path d="M82.2245 7.33838L79.6826 9.86128L80.4898 10.6622L83.0311 8.13933L82.2245 7.33838Z" fill="#A5A5A5"/>
</g>
<defs>
<clipPath id="clip0_4914_5476">
<rect width="121.406" height="35" fill="white"/>
</clipPath>
</defs>
</svg>
