<svg width="82" height="37" viewBox="0 0 82 37" fill="none" xmlns="http://www.w3.org/2000/svg">
<path d="M0 36.7931V19.4039C0 19.3093 0.0766575 19.2327 0.171221 19.2327H2.16202C2.33191 19.2327 2.41585 19.4774 2.29486 19.5967C1.66973 20.2129 0.899578 21.377 0.899578 22.9164C0.899578 24.7426 1.70826 25.0392 3.02815 25.0392H6.44436C10.7612 25.0392 11.9879 22.3856 11.9879 21.3711C11.9879 20.5423 11.4611 19.9347 11.0244 19.5482C10.9022 19.4401 10.973 19.2327 11.1361 19.2327H15.8398C15.9344 19.2327 16.0101 19.3092 16.0055 19.4037C15.9644 20.2565 15.5946 21.6616 13.8823 23.1349C12.9043 23.9764 11.438 24.5838 10.3319 24.9716C10.1469 25.0364 10.1913 25.3201 10.3873 25.3201H12.8342C16.0019 25.3201 14.9721 27.8246 14.5345 28.676C14.0531 29.6125 13.5252 30.6973 13.0205 31.7197C11.7941 34.2042 13.2612 34.7635 15.0158 35.2942C16.2962 35.6814 16.4167 36.2628 16.4608 36.7788C16.4694 36.8787 16.3902 36.9643 16.29 36.9643H12.904C9.58103 36.9643 10.5748 34.4513 11.0251 33.5616C11.4754 32.6719 11.5143 32.5626 12.5546 30.6271C13.595 28.6916 12.5546 28.4262 11.5376 28.4262L1.08523 28.4263C0.990666 28.4263 0.916326 28.5023 0.916326 28.5968V32.2973C0.916326 34.7719 1.87428 36.0084 2.58858 36.6275C2.71583 36.7378 2.64243 36.9643 2.47403 36.9643H0.171222C0.0766585 36.9643 0 36.8877 0 36.7931Z" fill="#A5A5A5"/>
<path d="M19.6836 36.9689H17.4397C17.3452 36.9689 17.2686 36.8922 17.2686 36.7977V19.4054C17.2686 19.3121 17.3429 19.236 17.4362 19.235C17.9615 19.2298 18.8946 19.2346 19.6882 19.2365C19.8539 19.2369 19.9292 19.4582 19.8073 19.5704C18.5494 20.7285 18.1693 22.3737 18.1693 23.4517V24.8753C18.1693 24.9698 18.246 25.0463 18.3405 25.0463H32.0045C32.099 25.0463 32.1757 25.1473 32.1757 25.0528V23.4517C32.1757 21.796 31.1589 20.3147 30.4533 19.5496C30.3473 19.4346 30.4273 19.2373 30.5837 19.2373H32.8119C32.9064 19.2373 32.9831 19.314 32.9831 19.4085V36.7977C32.9831 36.8922 32.9064 36.9689 32.8119 36.9689H30.5602C30.406 36.9689 30.3306 36.7818 30.4399 36.6729C31.1638 35.952 32.1757 34.7439 32.1757 32.6297V28.6124C32.1757 28.5179 32.099 28.4419 32.0045 28.4419H18.3405C18.246 28.4419 18.1693 28.5182 18.1693 28.6127V32.6297C18.1693 34.4499 19.1211 35.9055 19.8147 36.6428C19.9245 36.7595 19.8438 36.9689 19.6836 36.9689Z" fill="#A5A5A5"/>
<path d="M36.1056 19.2327H34.2967C34.1916 19.2327 34.1064 19.3141 34.1064 19.4192V36.7761C34.1064 36.8811 34.1937 36.9643 34.2987 36.9634C38.6952 36.9255 40.3478 35.5464 42.4295 28.9646C44.0553 23.8243 47.0578 22.5379 48.5087 22.626C48.6031 22.6317 48.6718 22.7103 48.6718 22.8048V33.5313C48.6718 34.8486 47.9485 35.9689 47.3745 36.5973C47.2542 36.729 47.3453 36.9642 47.5237 36.9642H49.3511C49.4562 36.9642 49.5414 36.8828 49.5414 36.7777V19.4225C49.5414 19.3175 49.4562 19.2324 49.3511 19.2347C46.7132 19.2923 44.096 20.6027 42.181 27.6418C40.8443 32.5555 38.1274 33.5497 35.1974 33.5896C35.0924 33.591 35.007 33.507 35.007 33.4019V23.5474C35.007 21.7063 35.6628 20.3512 36.2696 19.6387C36.3895 19.498 36.2905 19.2327 36.1056 19.2327Z" fill="#A5A5A5"/>
<path d="M68.533 19.2327H66.7244C66.6194 19.2327 66.5342 19.3141 66.5342 19.4192V36.7761C66.5342 36.8811 66.6215 36.9643 66.7265 36.9634C71.1228 36.9255 72.7756 35.5464 74.857 28.9646C76.4829 23.8243 79.4853 22.5415 80.9366 22.6299C81.0309 22.6357 81.0994 22.7142 81.0994 22.8088V33.5313C81.0994 34.8486 80.3762 35.9689 79.8019 36.5973C79.6819 36.729 79.7729 36.9642 79.9513 36.9642H81.7788C81.8838 36.9642 81.969 36.8828 81.969 36.7777V19.4225C81.969 19.3175 81.8838 19.2324 81.7788 19.2347C79.1408 19.2923 76.5237 20.6027 74.6084 27.6418C73.2717 32.5555 70.5549 33.5497 67.625 33.5896C67.5199 33.591 67.4348 33.507 67.4348 33.4019V23.5474C67.4348 21.7063 68.0905 20.3512 68.697 19.6387C68.817 19.498 68.7179 19.2327 68.533 19.2327Z" fill="#A5A5A5"/>
<path d="M50.5312 19.4229V36.774C50.5312 36.8792 50.6164 36.9643 50.7215 36.9643H52.5448C52.7211 36.9643 52.8112 36.7361 52.695 36.6034C52.0943 35.917 51.4097 34.6678 51.4097 32.6504V22.5297C51.4097 22.4246 51.4928 22.3413 51.5979 22.3413H62.2015C63.5934 22.3413 64.6295 22.8186 65.1958 23.214C65.3362 23.3121 65.5585 23.2141 65.5585 23.0428V19.4229C65.5585 19.3179 65.4733 19.2327 65.3683 19.2327H50.7215C50.6164 19.2327 50.5312 19.3179 50.5312 19.4229Z" fill="#A5A5A5"/>
<path fill-rule="evenodd" clip-rule="evenodd" d="M28.7592 15.1709V4.05911C28.7592 0.527167 26.6886 0.00683594 25.2142 0.00683594C21.073 0.00683594 16.9005 3.01845 15.9594 7.40184C15.2493 10.709 14.6043 14.0805 14.3928 15.0267C14.3738 15.1122 14.2977 15.1709 14.2101 15.1709H12.0399C11.9348 15.1709 11.8496 15.2561 11.8496 15.3611V18.0396C11.8496 18.1446 11.9348 18.2298 12.0399 18.2298H30.2988C30.4039 18.2298 30.4891 18.1446 30.4891 18.0396V15.3611C30.4891 15.2561 30.4039 15.1709 30.2988 15.1709H28.7592ZM27.7553 15.1709H15.4727C15.3518 15.1709 15.2611 15.0611 15.2858 14.9427C15.5267 13.7873 16.2187 10.3885 16.5751 8.85687C17.0957 6.61955 18.9397 3.60185 25.6847 3.60185C27.0024 3.60185 27.7553 4.07488 27.7553 5.46245V15.1709Z" fill="#A5A5A5"/>
<path fill-rule="evenodd" clip-rule="evenodd" d="M48.9343 8.69845C48.9342 8.72368 48.9341 8.7465 48.9341 8.76681C48.9341 8.81224 48.9353 8.87171 48.9368 8.94392C48.9686 10.5265 49.1233 18.2273 39.5225 18.2273C30.7074 18.2273 30.4873 10.6904 30.4873 9.11365C30.4873 7.5369 31.2088 0 39.5225 0C48.9661 0 48.9389 7.42798 48.9343 8.69845ZM48.2444 8.76681C48.2444 5.80248 45.7974 3.18506 39.5225 3.18506C33.7182 3.18506 31.178 6.27549 31.178 9.11365C31.178 11.9519 32.7466 15.0423 39.5225 15.0423C46.2984 15.0423 48.2444 11.7311 48.2444 8.76681Z" fill="#A5A5A5"/>
<path d="M55.3739 18.2282H49.1649C49.0488 18.2282 48.9598 18.1251 48.9767 18.0103L50.9838 4.33888C51.2034 2.89877 51.7054 0.0185547 54.3094 0.0185547C56.7604 0.0185547 57.1333 1.54254 57.886 3.5505L60.375 10.2445L62.9209 3.5505C63.2868 2.37319 64.1285 0.0185547 66.2934 0.0185547C68.7568 0.0185547 69.2738 2.37319 69.5561 3.5505L71.6889 18.0102C71.7055 18.125 71.6166 18.2282 71.5003 18.2282H65.4448C65.3543 18.2282 65.275 18.1645 65.2744 18.0741C65.2707 17.612 65.5991 16.7984 66.9835 16.3045C68.5398 15.7495 70.379 15.272 70.0265 12.8987L68.9287 5.47414C68.8344 4.72781 68.4053 3.23514 66.2934 3.23514C64.1815 3.23514 63.4641 4.90578 63.1293 5.71517L60.8744 11.5874L62.8984 17.0309C63.1143 17.6109 62.6852 18.2282 62.0664 18.2282H58.6258C58.0044 18.2282 57.5753 17.6057 57.796 17.0247L59.8656 11.5833L57.6647 5.47414C57.414 4.72781 56.6543 3.23514 54.3094 3.23514C52.3266 3.23514 51.7473 4.72781 51.7054 5.47414L50.576 12.8987C50.4819 13.7397 50.8207 15.5477 52.9289 16.0522C54.8087 16.5021 55.4312 17.47 55.5442 18.0397C55.5646 18.1427 55.4789 18.2282 55.3739 18.2282Z" fill="#A5A5A5"/>
</svg>
