<svg width="78" height="78" viewBox="0 0 78 78" fill="none" xmlns="http://www.w3.org/2000/svg">
<path fill-rule="evenodd" clip-rule="evenodd" d="M35.058 18.0698C29.0917 19.009 23.7533 21.8217 19.3965 26.3219L18.3171 27.4367L17.6785 27.4622C16.874 27.4943 16.8201 27.5535 17.2118 27.974C17.6728 28.4688 17.6154 28.6845 17.0381 28.6277C16.7681 28.6011 16.547 28.5667 16.547 28.5511C16.547 28.5357 16.2187 28.5058 15.8173 28.4848C15.3096 28.4583 15.0633 28.5099 15.0078 28.6545C14.9155 28.8949 14.4179 28.9337 14.2804 28.7111C14.1262 28.4618 13.8804 28.5407 13.9271 28.8245C13.9511 28.97 13.9201 29.1692 13.8586 29.2674C13.6962 29.5261 14.0279 29.6763 14.287 29.4613L14.507 29.2786V29.459C14.507 29.5583 14.6601 29.627 14.847 29.6119C15.034 29.5968 15.425 29.5929 15.7159 29.6034L16.2448 29.6225L16.0194 29.765C15.8954 29.8433 15.6404 29.8689 15.4527 29.8218C14.9867 29.7048 15.0228 29.9782 15.516 30.3014L15.9207 30.5665L15.2516 30.9164C14.52 31.2991 13.3802 31.4119 13.487 31.0911C13.5215 30.9873 13.6802 30.8796 13.8396 30.8518C14.1368 30.7999 14.507 30.4249 14.507 30.1757C14.507 30.0988 14.371 30.0714 14.205 30.1148C14.0389 30.1583 13.8627 30.129 13.8137 30.0497C13.7603 29.9631 13.6326 29.9817 13.4951 30.0959L13.2655 30.2865L13.0576 30.0021L12.8497 29.7177L12.5576 29.982L12.2655 30.2463L11.9607 30.0832C11.4999 29.8366 11.0599 29.8868 10.8893 30.2055L10.7365 30.4911L9.56181 30.5858C8.91566 30.6379 8.234 30.6801 8.04708 30.6798C6.78607 30.6769 6.45619 30.683 6.12043 30.715C5.91265 30.735 5.74265 30.7975 5.74265 30.8543C5.74265 30.9112 5.55573 30.9547 5.3271 30.951C5.09847 30.9474 4.70755 31.0251 4.45821 31.1236L4.00488 31.3025L4.29819 31.518C4.65995 31.7837 4.94162 31.7939 5.02548 31.5445L5.0891 31.3556L5.36351 31.5822C5.63733 31.8084 5.96282 31.8709 6.94035 31.8845C7.22519 31.8884 7.55114 31.9689 7.66492 32.0632L7.87164 32.2347L8.09377 31.9175C8.31455 31.6025 8.41851 31.5963 9.29374 31.8462C9.54307 31.9175 9.98507 31.9723 10.276 31.9679L10.8048 31.96L10.8526 31.5445C10.9023 31.1129 11.3597 30.9554 11.571 31.2971C11.6281 31.3897 11.9625 31.5927 12.3141 31.7482L12.9533 32.0309L14.2851 31.5807C15.0175 31.3331 15.6325 31.1472 15.6517 31.1674C15.6709 31.1878 15.2488 32.0885 14.7135 33.1689C13.2274 36.1687 12.2628 39.5453 11.9761 42.7499L11.8626 44.02L10.5782 44.4636L9.29374 44.9074L8.31152 44.8471C7.63349 44.8056 6.99399 44.6376 6.24615 44.3045C4.53498 43.5425 4.47514 43.6544 4.99919 46.6405C5.18702 47.711 5.31743 49.1298 5.32362 50.1688L5.3339 51.9066L5.00599 53.0917C4.82556 53.7436 4.57532 54.4757 4.4496 54.7189L4.22112 55.1607L4.79292 55.0885C5.10753 55.0487 5.90887 54.9791 6.57376 54.9334C8.60679 54.7943 12.1695 53.7471 12.6726 53.141C12.8247 52.9577 12.612 51.5288 12.4326 51.5288C12.3855 51.5288 11.3094 51.8348 10.0411 52.2088C8.77301 52.5828 7.66099 52.8888 7.57018 52.8888C7.3015 52.8888 7.38159 52.05 7.67565 51.7839C7.82465 51.6491 8.55557 51.2941 9.30009 50.9949C10.9688 50.3246 11.8211 49.8365 12.2294 49.3174C12.5941 48.8537 12.634 48.2347 12.3259 47.8177L12.1092 47.5244L11.6837 47.7935C11.4496 47.9416 10.4496 48.4739 9.46117 48.9765L7.66417 49.8904L7.53678 49.6896C7.42541 49.5139 7.38431 49.1007 7.34004 47.7145L7.32931 47.3757L8.23597 47.2116C10.049 46.8837 11.172 46.3833 12.1798 45.4545C12.8394 44.8465 13.0419 44.264 12.673 44.0361C12.2825 43.7948 12.8997 39.6858 13.6924 37.2489C14.5323 34.6668 16.2599 31.0514 16.7433 30.8646C16.8512 30.8229 17.3952 30.9956 17.9522 31.2486C18.509 31.5015 19.1008 31.7349 19.267 31.7672L19.5692 31.826L19.068 32.1392C18.7922 32.3116 18.2233 32.4983 17.8037 32.5539C17.384 32.6095 17.0794 32.694 17.127 32.7414C17.1744 32.7889 17.5897 32.7807 18.0497 32.7231L18.8862 32.6187L19.5299 32.0776C20.9693 30.8676 22.6643 30.5807 25.5391 31.0603C26.4523 31.2126 27.283 31.3888 27.3848 31.4518L27.5702 31.5664L27.1964 31.9679L26.8225 32.3695L25.9914 32.2922C25.5343 32.2495 25.0243 32.1702 24.8581 32.1158C24.6919 32.0616 24.778 32.1426 25.0494 32.2959L25.5429 32.5747L25.3516 32.7807L25.1603 32.9867L25.4504 32.8837C25.61 32.8272 26.0408 32.7136 26.4079 32.6314C26.7749 32.549 27.3386 32.3475 27.6606 32.1832C28.3613 31.8257 28.9072 31.8071 29.7692 32.1111C30.6015 32.4049 31.3298 32.3972 32.8781 32.0785L34.1379 31.8192L34.5338 32.1918L34.9299 32.5645L36.1651 32.64L37.4002 32.7156L37.4444 34.3022C37.4685 35.1749 37.4524 36.0333 37.4084 36.2097C37.3055 36.6231 36.9996 36.7369 34.0003 37.4776C30.9842 38.2226 30.2938 38.4704 29.9233 38.9416L29.6388 39.3032L29.795 39.7513C29.8808 39.9977 29.9124 40.3004 29.865 40.4241C29.7349 40.7629 29.0644 40.6969 28.7998 40.3191L28.5689 39.9894L28.7534 39.7525L28.9381 39.5155L28.6736 39.7228C27.8827 40.3432 29.1564 41.4393 30.0147 40.877L30.3964 40.6269L30.3018 40.0669L30.2072 39.5069L30.5549 39.1858C30.7461 39.009 31.1745 38.7903 31.5069 38.6997C32.6693 38.383 32.7936 38.5415 31.879 39.174C31.0485 39.7485 31.0909 40.6488 31.9486 40.6488H32.2542L31.9184 40.4136C31.4649 40.0961 31.4956 39.8422 32.0428 39.3818C32.5458 38.9585 34.2169 38.3822 34.9414 38.3822H35.3973L35.2091 38.6089C35.1056 38.7335 34.9104 38.8358 34.7752 38.8361C34.4206 38.8369 33.5935 39.3729 33.4059 39.7231C33.3178 39.8879 33.2876 40.1313 33.3385 40.2643C33.4705 40.6082 33.9954 40.8652 34.1828 40.6779C34.2822 40.5784 34.2257 40.4937 34.0155 40.427C33.4372 40.2436 33.7524 39.5346 34.4914 39.3563L34.9069 39.2561V39.5513C34.9069 39.8898 35.3528 40.3466 35.6833 40.3466C35.8063 40.3466 36.0318 40.4379 36.1843 40.5494L36.4617 40.7522L36.1116 40.9975L35.7614 41.2427L36.036 41.3482C36.3675 41.4754 36.7202 41.0591 36.7202 40.5407V40.188L36.3047 40.0408C35.1514 39.632 35.1597 39.3384 36.337 38.8824C36.8327 38.6905 37.2576 38.5333 37.2815 38.5333C37.3052 38.5333 37.3247 38.705 37.3247 38.9149V39.2964L37.7703 39.3856C38.657 39.5628 38.8993 40.2809 38.1848 40.6136L37.8536 40.7679L38.118 40.8757C38.5071 41.0342 38.814 40.864 38.9231 40.429C39.0609 39.88 38.9186 39.6257 38.3116 39.3362L37.778 39.0818V38.6828C37.778 38.4503 37.9391 38.1324 38.1638 37.9215L38.5494 37.5589L38.6903 37.7817C38.7678 37.9042 38.8322 38.1211 38.8335 38.2637C38.8373 38.69 39.3246 39.582 39.6018 39.67C39.7437 39.715 40.1022 39.6089 40.3984 39.4341C41.0251 39.0645 41.7557 39.0859 41.8297 39.4761C41.881 39.7464 41.5494 39.9441 40.7624 40.1124L40.3469 40.2013V40.5577C40.3469 41.0374 40.6973 41.3074 41.133 41.1635L41.4802 41.0488L41.1024 40.9553C40.5105 40.8089 40.6314 40.4299 41.2874 40.3755L41.85 40.3288L42.1691 39.9232L42.4883 39.5175L42.7019 39.8099C42.9844 40.196 42.9733 40.2891 42.601 40.6614C42.1681 41.0943 42.3734 41.2287 42.8804 40.8442L43.2935 40.531L43.2698 40.048C43.2388 39.4165 42.7107 38.8707 41.9434 38.6772C40.7162 38.3677 40.6842 38.2347 41.858 38.3225C44.2106 38.4984 45.1005 39.1244 44.268 40.0178C44.0976 40.2008 44.0024 40.4222 44.0565 40.5097C44.1106 40.5973 44.0452 40.7495 43.9111 40.8479L43.6672 41.0266L44.4896 41.0552C45.0493 41.0747 45.3693 41.0144 45.4922 40.8663C45.7098 40.6043 45.4697 40.5731 45.2126 40.8302L45.0313 41.0115L44.8673 40.8476L44.7034 40.6836L44.9468 40.2129C45.0807 39.954 45.3109 39.7422 45.4583 39.7422C45.827 39.7422 46.0891 39.4472 46.0891 39.032C46.0891 38.8408 46.1126 38.6844 46.1414 38.6844C46.3023 38.6844 47.1468 39.1775 47.1468 39.2715C47.1468 39.3328 46.9428 39.534 46.6935 39.7183C46.4442 39.9027 46.2402 40.1769 46.2402 40.3277C46.2402 40.8589 47.1284 41.3477 47.3734 40.9512C47.4265 40.8652 47.3261 40.8166 47.1393 40.8379C46.9592 40.8586 46.7381 40.7622 46.648 40.6238L46.4844 40.372L46.6912 40.1227C46.805 39.9856 47.0946 39.7718 47.3345 39.6477L47.7708 39.4221L48.518 39.6704C48.929 39.8069 49.3325 40.0441 49.4147 40.1976L49.564 40.4767L49.3269 40.714C49.0536 40.9873 49.1536 41.02 49.5746 40.7947C49.7618 40.6945 49.8668 40.4785 49.8668 40.1937C49.8668 39.6952 49.4918 39.3821 48.6957 39.2162L48.2046 39.1137V38.8289C48.2046 38.512 47.6591 38.13 47.5734 38.3867C47.5415 38.4824 47.2473 38.4463 46.7905 38.2906C46.3293 38.1335 46.1273 37.9987 46.2443 37.9263C46.546 37.7398 45.0966 37.6081 43.2824 37.657L41.6088 37.7022L41.0746 37.2951C40.7809 37.0713 40.4265 36.6478 40.287 36.354L40.0336 35.82L40.077 34.3433L40.1202 32.8667L40.8038 32.7879C41.1798 32.7447 41.701 32.5572 41.9621 32.3712L42.4367 32.0333L43.2329 32.2041C44.6694 32.512 45.7743 32.2872 47.5026 31.335C47.7397 31.2043 48.3263 31.0618 48.8059 31.0183L49.6781 30.9393L50.246 31.4597L50.8138 31.9801L50.6336 32.3169L50.4533 32.6538L50.736 32.4773L51.0189 32.3006L51.4931 32.5459C51.7539 32.6808 52.0558 32.7893 52.1637 32.7872C52.2718 32.7849 52.1081 32.666 51.8001 32.5227C51.3364 32.307 50.3466 31.188 50.5016 31.0546C50.5264 31.0331 51.2268 31.1074 52.0579 31.2196C52.889 31.3318 53.846 31.3855 54.1847 31.3386C54.9209 31.2371 55.7204 31.5345 56.4626 32.1862C56.7469 32.4359 57.1301 32.6379 57.3143 32.6355L57.649 32.6308L57.3468 32.4637C56.9551 32.2471 56.3646 31.7113 56.3646 31.5726C56.3646 31.5132 56.9255 31.4993 57.6112 31.5417C58.3 31.5842 59.1196 31.5461 59.4425 31.4567L60.0272 31.2944L60.2576 31.5248C60.3917 31.6588 60.6212 31.7196 60.8063 31.6699C60.9813 31.623 61.264 31.5457 61.4346 31.4981L61.7447 31.4115L62.5148 32.8946C64.1868 36.1151 65.1169 39.4167 65.5182 43.5548L65.6169 44.572L65.2533 44.7102C65.0534 44.7862 64.7906 44.9682 64.6694 45.1146L64.449 45.3807L64.462 46.7548C64.486 49.3152 64.9086 50.403 66.0835 50.929L66.6842 51.1978L66.085 51.5035C65.1349 51.9883 63.9846 52.9674 63.3001 53.8742C62.9528 54.3338 62.7044 54.7456 62.7478 54.7891C62.7913 54.8325 63.2928 54.76 63.8624 54.6279C65.3993 54.2714 67.4168 53.1241 68.855 51.7885L69.3321 51.3455L69.4808 51.6259C69.5625 51.7802 69.7756 52.3989 69.9541 53.0006C70.1325 53.6023 70.429 54.2695 70.6129 54.4833C71.0068 54.9413 72.0048 55.1361 72.5266 54.8568L72.8657 54.6754L72.7919 54.3487C72.7514 54.1691 72.5066 53.4272 72.2481 52.7002C71.9894 51.973 71.7783 51.1231 71.7789 50.8113C71.7801 50.1972 72.7136 45.4069 73.06 44.2377L73.2726 43.5199L73.0919 43.5216C72.9924 43.5225 72.6051 43.6157 72.2311 43.7289C71.4877 43.9539 66.3931 44.5322 66.267 44.4061C66.2239 44.3631 66.1196 43.6192 66.0349 42.7529C65.7215 39.5454 64.816 36.2518 63.477 33.4489L62.7426 31.9115L63.0613 31.8281C63.2416 31.7809 63.4902 31.8444 63.6334 31.9741C63.9042 32.2192 64.6799 32.2102 64.8598 31.96C64.931 31.861 65.0678 31.8704 65.2557 31.9868L65.5429 32.1646L66.124 31.9648C66.7031 31.7657 66.9977 31.4397 66.6148 31.4216C66.5041 31.4163 66.5751 31.3473 66.7726 31.2682C67.1371 31.1224 68.9415 31.4666 69.2978 31.75C69.3882 31.8219 69.7281 31.8987 70.0533 31.9204C70.3785 31.9422 70.6903 32.0236 70.7463 32.1015C70.8071 32.1858 70.9384 32.1679 71.0717 32.0573L71.2952 31.8719L71.3567 32.0564C71.397 32.1778 71.5188 32.1983 71.7113 32.1166C71.8726 32.0483 72.1916 32.007 72.42 32.0253C72.6485 32.0434 72.8356 31.9874 72.8356 31.9006C72.8356 31.8139 72.9468 31.7855 73.0828 31.8378C73.2528 31.9029 73.3081 31.866 73.2594 31.7196C73.2205 31.6025 72.9902 31.4477 72.7476 31.3755C72.5051 31.3034 72.1903 31.1856 72.0483 31.1136C71.9061 31.0416 71.685 31.0228 71.5572 31.0719C71.4292 31.121 71.3245 31.086 71.3245 30.994C71.3245 30.8995 71.0612 30.8267 70.72 30.8267C70.3876 30.8267 70.1156 30.7628 70.1156 30.6845C70.1156 30.4643 70.3855 30.3499 70.4934 30.5245C70.6463 30.7718 70.8711 30.5417 70.8711 30.1378C70.8711 29.7308 70.7279 29.6704 70.4417 29.9566C70.322 30.0763 70.2155 30.09 70.147 29.9944C69.9811 29.7621 69.0933 29.4857 68.778 29.5681C68.6045 29.6136 68.4582 29.5462 68.3997 29.3937C68.2643 29.0409 67.9677 29.2777 68.0844 29.6455L68.1809 29.9498L67.8639 29.8492L67.5467 29.7485V29.9855C67.5467 30.1157 67.4715 30.2222 67.3796 30.2222C67.2877 30.2222 67.0898 30.3783 66.9397 30.569C66.7897 30.7597 66.4203 31.0485 66.1189 31.2108L65.5708 31.5061L65.4632 31.3321C65.404 31.2366 65.0836 31.1369 64.7512 31.1106C63.6564 31.024 62.7254 30.2301 63.4105 29.9673C63.5671 29.9072 63.7508 29.998 63.9158 30.2167L64.1752 30.5603L64.5177 30.377C64.706 30.2762 65.1247 30.2189 65.448 30.2497C65.7712 30.2806 66.0356 30.2529 66.0356 30.1884C66.0356 30.1239 65.9487 30.0711 65.8427 30.0711C65.7364 30.0711 65.4292 29.8697 65.1598 29.6237C64.8902 29.3775 64.576 29.2122 64.4614 29.2562C64.3467 29.3002 64.2123 29.2707 64.1628 29.1905C64.1078 29.1013 63.8528 29.0947 63.5053 29.1735L62.9379 29.3021L62.7283 29.0939C62.4274 28.7949 62.6152 28.4574 63.2547 28.1487C63.8018 27.8844 63.9761 27.5308 63.5119 27.6269L63.2745 27.676L63.3725 27.4213L63.4702 27.1663L63.2437 27.2534C63.119 27.3011 62.6705 27.3862 62.2468 27.4424C61.8009 27.5017 61.4422 27.6345 61.3947 27.7579C61.3385 27.9045 61.1815 27.9423 60.893 27.879C60.6623 27.8282 60.4332 27.8516 60.3843 27.931C60.3353 28.0103 59.3257 27.1125 58.141 25.936C55.5391 23.3523 53.8505 22.1233 50.849 20.6286C46.9023 18.6631 44.0193 17.972 39.4402 17.8941L36.4936 17.8438L35.058 18.0698ZM35.6625 18.5908C29.9712 19.3749 24.4079 22.1342 20.4952 26.1133C19.4558 27.1703 19.3197 27.5225 20.0013 27.3923C20.4381 27.3087 20.5584 27.4654 20.3931 27.9027L20.2701 28.2277L19.6552 28.3316L19.0403 28.4355V28.8532C19.0403 29.3682 19.6014 30.2286 20.1027 30.4823C20.308 30.5861 20.8094 30.6721 21.2171 30.6733L21.9583 30.6756L21.6879 30.377C21.5394 30.2127 21.3588 30.1147 21.2868 30.1592C21.2148 30.2037 21.071 30.1869 20.967 30.1218C20.8632 30.0568 20.7101 29.998 20.627 29.9913C20.3499 29.9688 19.6755 29.6385 19.575 29.4761C19.5177 29.3833 19.6034 29.3156 19.7781 29.3156C19.9443 29.3156 20.1223 29.2476 20.1737 29.1645C20.2251 29.0814 20.4714 29.0134 20.721 29.0134H21.1749L21.148 28.7489C21.1007 28.2846 21.1503 28.2163 21.3903 28.4153L21.6245 28.6097L21.71 28.2826L21.7955 27.9556H22.2224C22.4571 27.9556 22.6894 27.8906 22.7383 27.8113C22.8595 27.6153 23.6894 27.696 24.3014 27.9634C24.6358 28.1094 24.8294 28.3142 24.8832 28.5789L24.9639 28.9756H25.3217H25.6797L25.5391 28.73C25.4619 28.5949 25.1697 28.2181 24.8897 27.8924L24.3806 27.3002L23.826 27.3211C23.5211 27.3326 23.2714 27.3179 23.2714 27.2884C23.2714 27.259 23.4481 27.119 23.664 26.9776C24.0924 26.6968 25.3407 26.5497 25.4733 26.7641C25.5187 26.8377 25.6878 26.8978 25.8492 26.8978C26.2693 26.8978 26.2111 27.1815 25.7557 27.3546C25.2702 27.5391 25.4047 27.7978 25.9561 27.7401C26.245 27.7097 26.3837 27.5994 26.4174 27.3732L26.4658 27.0495L26.7415 27.1972L27.0175 27.3448L27.1976 27.1277C27.3129 26.9888 27.5296 26.941 27.7996 26.995C28.035 27.0421 28.2668 27.0059 28.3243 26.9131C28.4674 26.6814 28.7114 26.705 28.7114 26.9504C28.7114 27.0663 28.8903 27.1638 29.127 27.1766C29.3554 27.189 29.6445 27.21 29.7692 27.2233C30.4217 27.2933 30.8127 27.1808 30.9027 26.8975L30.9986 26.5948L31.4324 26.6713C31.9086 26.7552 32.0867 26.6021 31.9446 26.2314C31.8356 25.9476 31.4158 25.9161 31.1594 26.1725L30.9781 26.3538L30.8017 26.1775L30.6254 26.0011L30.915 25.9096C31.0743 25.8592 31.3407 25.7432 31.5069 25.6518C32.2723 25.2306 33.8155 25.0878 34.0202 25.4191L34.1385 25.6105L34.5838 25.3476C35.1635 25.005 35.2091 25.0135 35.2091 25.4623C35.2091 25.8482 35.4154 25.9665 35.5914 25.6815C35.6517 25.5841 35.7569 25.5761 35.8648 25.6608C36.2044 25.9271 36.8316 25.9945 37.0067 25.7834C37.1003 25.6707 37.4923 25.5353 37.8777 25.4824C38.2632 25.4295 38.6697 25.3107 38.7809 25.2184L38.9833 25.0505L39.0783 25.298L39.1734 25.5455L39.3722 25.3805L39.5711 25.2154L39.8358 25.6193L40.1004 26.0233L39.7326 26.3061L39.3647 26.589L39.7122 26.5923C39.9032 26.5941 40.2432 26.5024 40.4678 26.3884C40.8838 26.177 41.4665 26.1536 41.6534 26.3407C41.7105 26.3978 41.9459 26.4445 42.1765 26.4445C42.4071 26.4445 42.6385 26.5135 42.6906 26.598C42.8103 26.7917 43.0669 26.6429 43.0669 26.3798C43.0669 26.2496 42.9141 26.1997 42.6202 26.234C42.3745 26.2626 42.1324 26.2196 42.0824 26.1385C42.0322 26.0575 41.8423 25.989 41.6602 25.9863L41.3291 25.9815L41.5691 25.7974C41.701 25.6962 41.7803 25.5285 41.7453 25.4245C41.7104 25.3207 41.7554 25.2356 41.8454 25.2356C41.9354 25.2356 42.0091 25.34 42.0091 25.4676V25.6995L42.3013 25.5431C42.4621 25.4571 42.7727 25.3867 42.9913 25.3867C43.21 25.3867 43.5205 25.3163 43.6813 25.2303C43.883 25.1223 44.0646 25.1226 44.2677 25.2312L44.5618 25.3887L44.7164 25.1233C44.809 24.9642 44.8728 24.9361 44.8757 25.0534C44.8781 25.1608 44.9955 25.2288 45.1363 25.2045C45.2855 25.1786 45.4716 25.3157 45.5822 25.5331L45.7722 25.9062L45.921 25.5331C46.0147 25.2983 46.0735 25.2521 46.0796 25.4083C46.0847 25.5449 46.2081 25.7051 46.3535 25.7645L46.618 25.8725L46.3157 25.9967C46.1495 26.0651 45.7506 26.1258 45.4292 26.1317L44.845 26.1423L44.9361 26.4823C44.9861 26.6693 45.0281 26.8733 45.0292 26.9356C45.0342 27.2065 45.4846 27.0196 45.4846 26.7467C45.4846 26.5805 45.5526 26.4445 45.6357 26.4445C45.7189 26.4445 45.7869 26.5465 45.7869 26.6712C45.7869 26.9926 46.0002 26.9528 46.493 26.5398L46.9202 26.1819L47.4057 26.2539C47.7285 26.3018 47.9728 26.2446 48.1343 26.083C48.4502 25.7672 48.5191 25.7745 49.1279 26.1873C49.4097 26.3785 49.7592 26.5802 49.9046 26.6359C50.05 26.6917 50.169 26.7994 50.169 26.8755C50.169 27.0831 49.5305 27.2087 49.3281 27.0408C49.21 26.9427 49.0922 26.9654 48.9729 27.1092C48.8613 27.2436 48.8497 27.3584 48.9417 27.4154C49.1235 27.5276 51.2268 27.3434 51.2268 27.2153C51.2268 27.1644 51.0228 27.0325 50.7735 26.922C50.1588 26.65 50.1799 26.2947 50.8113 26.2885C51.0815 26.286 51.4344 26.184 51.5957 26.0619C51.7571 25.9399 52.148 25.84 52.4646 25.84H53.0401V25.5832V25.3263L53.2133 25.4994C53.3096 25.5957 53.5778 25.6342 53.8178 25.5863L54.249 25.5001V25.8373C54.249 26.0626 54.3185 26.1479 54.4583 26.0942C54.5735 26.0501 54.8146 26.1169 54.9943 26.2428C55.1738 26.3685 55.4253 26.4313 55.5531 26.3824C55.6983 26.3266 55.7618 26.3641 55.7225 26.4821C55.6879 26.5861 55.5292 26.6838 55.3698 26.6993C55.2105 26.7147 54.8592 26.7487 54.5893 26.7748C54.3194 26.801 54.0984 26.9073 54.0982 27.0112C54.0981 27.1151 53.9619 27.2 53.7957 27.2C53.6295 27.2 53.4935 27.268 53.4935 27.3512C53.4935 27.4343 53.3915 27.5023 53.2668 27.5023C53.1421 27.5023 53.0401 27.4249 53.0401 27.3303V27.1585L52.1732 27.2603C51.133 27.3826 50.8636 27.5802 51.4387 27.7989C51.9716 28.0015 53.8806 28.0017 54.259 27.7992L54.5512 27.6428V27.8849V28.1271L54.8724 28.0251C55.0697 27.9625 55.24 27.9985 55.3142 28.1186L55.4349 28.3139L55.6353 28.151C55.7455 28.0614 55.9717 27.9576 56.1379 27.9201C56.3485 27.8728 56.2227 27.7938 55.7224 27.6593C55.3275 27.5532 55.0046 27.4065 55.0046 27.3332C55.0046 27.1653 55.0481 27.1666 55.5264 27.3484L55.9167 27.4968L56.2012 27.2123C56.5238 26.8897 57.1201 26.6594 57.1201 26.8573C57.1201 26.9292 57.3581 26.9605 57.649 26.9265C58.2521 26.8561 58.2734 26.8211 57.9255 26.4715C54.0932 22.6203 49.3254 20.0135 44.0491 18.8844L42.538 18.5611L39.5913 18.5082C37.9707 18.4792 36.2027 18.5163 35.6625 18.5908ZM40.6799 25.6821C40.8883 26.0159 41.0352 25.9744 40.8992 25.6199C40.8499 25.4916 40.739 25.3867 40.6526 25.3867C40.5532 25.3867 40.5631 25.4951 40.6799 25.6821ZM40.1958 25.9912C40.1958 26.0743 40.2638 26.1423 40.3469 26.1423C40.43 26.1423 40.498 26.0743 40.498 25.9912C40.498 25.908 40.43 25.84 40.3469 25.84C40.2638 25.84 40.1958 25.908 40.1958 25.9912ZM35.9815 26.3018C35.7757 26.4732 35.5049 26.566 35.3519 26.5173C35.2043 26.4705 35.0426 26.4983 34.9927 26.579C34.8359 26.8328 35.1668 26.9088 35.8048 26.7654C36.2033 26.676 36.4528 26.6807 36.5134 26.7789C36.567 26.8655 36.8579 26.8903 37.1926 26.8368C37.5483 26.7798 37.778 26.8031 37.778 26.896C37.778 26.9802 37.71 27.0489 37.6269 27.0489C37.5438 27.0489 37.4758 27.1169 37.4758 27.2C37.4758 27.2832 37.5982 27.3512 37.7478 27.3512C37.8974 27.3512 38.0937 27.425 38.184 27.5154C38.2939 27.6253 38.3799 27.6287 38.4434 27.5258C38.4956 27.4412 38.4653 27.3268 38.3758 27.2715C38.2709 27.2067 38.3083 27.1015 38.481 26.9752L38.7489 26.7794L38.5485 26.538C38.4384 26.4054 38.2894 26.3331 38.2173 26.3775C38.1454 26.4221 37.9447 26.3825 37.7715 26.2899L37.4565 26.1213L37.2586 26.2855C37.0472 26.461 36.5691 26.3505 36.5691 26.1261C36.5691 25.9161 36.3751 25.9741 35.9815 26.3018ZM33.4856 26.2703C33.436 26.3505 33.2606 26.3809 33.0957 26.3377C32.9309 26.2946 32.6759 26.3056 32.5292 26.3621L32.2625 26.4647L32.5532 26.6279C32.7133 26.7177 33.0307 26.7858 33.2589 26.7794C33.4883 26.7729 33.7107 26.8643 33.7567 26.9838C33.8927 27.338 34.3307 27.2481 34.2753 26.8774C34.2195 26.5057 33.6234 26.0474 33.4856 26.2703ZM43.7623 26.5342C43.7083 26.6749 43.703 26.8288 43.7505 26.8764C43.8675 26.9933 44.3589 26.6725 44.3215 26.5036C44.2662 26.2541 43.8613 26.2763 43.7623 26.5342ZM40.0782 26.9229C40.1563 27.1571 40.6311 27.1964 40.6869 26.9734C40.7076 26.8903 40.564 26.7996 40.3679 26.7718C40.1232 26.7372 40.0321 26.7846 40.0782 26.9229ZM46.6935 26.8978C46.6935 26.9809 46.7955 27.0489 46.9202 27.0489C47.0448 27.0489 47.1468 26.9809 47.1468 26.8978C47.1468 26.8147 47.0448 26.7467 46.9202 26.7467C46.7955 26.7467 46.6935 26.8147 46.6935 26.8978ZM38.8381 27.1533C38.8394 27.3037 38.8988 27.519 38.9703 27.6318L39.1002 27.8368V27.4402C39.1002 27.222 39.0407 27.0066 38.968 26.9617C38.8953 26.9167 38.8368 27.003 38.8381 27.1533ZM48.1387 27.2443C48.1955 27.3933 48.28 27.4772 48.3266 27.4306C48.3731 27.3842 48.3267 27.2623 48.2234 27.1597L48.0357 26.9734L48.1387 27.2443ZM30.1469 27.6534C30.1983 27.7365 30.3083 27.8045 30.3914 27.8045C30.4746 27.8045 30.5005 27.7365 30.4492 27.6534C30.3978 27.5703 30.2878 27.5023 30.2047 27.5023C30.1216 27.5023 30.0956 27.5703 30.1469 27.6534ZM16.2401 27.812C16.0966 28.0444 16.2932 28.1943 16.4872 28.0003C16.5957 27.8918 16.5983 27.8074 16.495 27.7436C16.4104 27.6913 16.2957 27.7221 16.2401 27.812ZM34.1514 27.8045C34.1514 27.8876 33.9557 27.9556 33.7165 27.9556C33.3231 27.9556 32.8033 28.3201 32.9653 28.4822C33.0017 28.5185 33.4194 28.4051 33.8936 28.2305C34.7626 27.9104 35.0119 27.6534 34.4536 27.6534C34.2874 27.6534 34.1514 27.7214 34.1514 27.8045ZM28.5225 27.9086C28.1863 27.9965 28.188 28.1475 28.5286 28.4558L28.799 28.7006L29.1747 28.5058C29.3814 28.3985 29.6311 28.3377 29.7297 28.3705C29.8283 28.4035 30.0304 28.3619 30.179 28.2784L30.4492 28.1263L30.0714 27.9832C29.8487 27.8989 29.5889 27.895 29.4384 27.9739C29.2821 28.0556 29.1467 28.0487 29.0895 27.956C28.9919 27.7981 28.9568 27.7951 28.5225 27.9086ZM30.957 28.1117C31.3362 28.4275 31.7336 28.505 31.7336 28.2631C31.7336 28.0726 31.2235 27.8031 30.8747 27.8095L30.6003 27.8146L30.957 28.1117ZM58.5516 28.0133C58.2524 28.2228 58.1555 28.2578 57.8757 28.2578C57.5565 28.2578 57.7575 28.4954 58.2868 28.7438C58.6696 28.9235 58.896 28.9561 59.024 28.8499C59.2329 28.6764 59.4646 28.9164 59.3177 29.154C59.1672 29.3973 59.4809 29.4661 59.7716 29.2535L60.05 29.0499L59.7786 28.6357C59.6293 28.4079 59.3788 28.1878 59.2219 28.1469C59.0652 28.1059 58.9741 28.0121 59.0196 27.9384C59.1444 27.7366 58.888 27.7776 58.5516 28.0133ZM56.9089 28.1968C56.8063 28.4638 56.9122 28.7111 57.129 28.7111C57.3101 28.7111 57.316 28.1522 57.136 28.041C57.0615 27.9949 56.9593 28.0651 56.9089 28.1968ZM25.387 28.2394C25.387 28.6592 26.91 29.0147 27.3049 28.6871C27.4114 28.5987 27.6864 28.5685 27.9161 28.6199L28.3336 28.7136L27.9634 28.502C27.7599 28.3857 27.5117 28.3217 27.4122 28.36C27.3124 28.3982 27.1859 28.3569 27.1311 28.2681C26.993 28.0444 26.3341 28.065 26.2495 28.2956L26.1803 28.4845L25.9801 28.2956C25.7496 28.0781 25.387 28.0437 25.387 28.2394ZM44.4571 28.4391C44.191 28.7052 44.2337 28.8562 44.6157 28.9992C45.0358 29.1565 45.2215 28.9209 44.9811 28.5357C44.7773 28.2095 44.701 28.1953 44.4571 28.4391ZM49.3479 28.3928C49.2965 28.4759 49.0014 28.5378 48.6918 28.5306C48.0954 28.5167 47.298 28.7722 47.298 28.9772C47.298 29.1525 48.981 29.053 49.1673 28.8666C49.2529 28.7811 49.451 28.7111 49.6074 28.7111C49.7639 28.7111 49.8652 28.6305 49.8322 28.5318C49.7514 28.2892 49.4631 28.2066 49.3479 28.3928ZM18.3344 28.5702C18.237 28.6679 18.1932 28.8417 18.2372 28.9562C18.2887 29.0904 18.2095 29.1645 18.0149 29.1645C17.7647 29.1645 17.5292 29.427 17.5292 29.7057C17.5292 29.7405 17.8393 29.7689 18.2182 29.7689H18.9071L18.7934 29.5852C18.731 29.4841 18.642 29.1744 18.5956 28.8969L18.5115 28.3925L18.3344 28.5702ZM51.0071 28.7332L51.1102 29.0576L50.8022 28.9771C50.6023 28.9248 50.32 29.0421 49.9974 29.3115L49.5004 29.7263L49.7546 29.9805L50.0089 30.2348L50.429 30.0161C50.66 29.896 51.0079 29.6276 51.202 29.4197L51.5549 29.0419L51.3855 28.7253C51.1617 28.3071 50.8738 28.313 51.0071 28.7332ZM61.9049 28.7377L61.8198 29.0631L61.6046 28.8845C61.3559 28.6781 60.8577 28.8174 60.9418 29.0697C60.9731 29.1634 61.078 29.2332 61.1749 29.2249C61.2719 29.2166 61.5552 29.1997 61.8045 29.1871L62.2579 29.1645V28.8712C62.2579 28.4491 62.0054 28.3536 61.9049 28.7377ZM54.249 28.832C54.249 29.0661 54.6155 29.3156 54.9592 29.3156C55.3437 29.3156 55.4014 29.1684 55.1255 28.8925C54.9231 28.6901 54.249 28.6436 54.249 28.832ZM32.8137 29.1847L32.6125 29.5072L32.7977 29.6217C32.8996 29.6847 33.0892 29.7207 33.219 29.7015C33.488 29.6621 33.658 29.3156 33.4084 29.3156C33.3184 29.3156 33.2447 29.2136 33.2447 29.0889C33.2447 28.7654 33.0484 28.8089 32.8137 29.1847ZM51.8319 29.2394C51.6369 29.4469 51.5133 29.6524 51.5571 29.6964C51.6974 29.8365 52.1335 29.5932 52.1335 29.375C52.1335 29.2592 52.2015 29.1645 52.2846 29.1645C52.3677 29.1645 52.4357 29.0965 52.4357 29.0134C52.4357 28.7574 52.2027 28.8447 51.8319 29.2394ZM28.2013 29.3969C28.0849 29.7002 28.5473 29.8816 28.7244 29.6021C28.9285 29.2795 28.8897 29.1645 28.5765 29.1645C28.4192 29.1645 28.2502 29.269 28.2013 29.3969ZM48.5215 29.5246L48.348 29.7336L48.5977 29.8294C48.8509 29.9267 49.2624 29.6906 49.2624 29.4483C49.2624 29.2376 48.7125 29.2944 48.5215 29.5246ZM27.0492 29.6178C27.0492 29.7009 26.9448 29.7689 26.8172 29.7689H26.5853L26.7414 30.0606C26.9729 30.4933 27.6542 30.9222 28.2958 31.0393L28.8625 31.1427V30.909C28.8625 30.7806 28.7605 30.6756 28.6358 30.6756C28.5112 30.6756 28.4092 30.6076 28.4092 30.5245C28.4092 30.4414 28.3072 30.3734 28.1825 30.3734C28.0578 30.3734 27.9559 30.2398 27.9559 30.0764C27.9559 29.9132 27.8244 29.7092 27.6636 29.6231C27.294 29.4253 27.0492 29.4232 27.0492 29.6178ZM34.9069 29.5926C34.9069 29.8055 35.0771 29.9033 35.2995 29.8179C35.6149 29.6968 35.5556 29.4667 35.2091 29.4667C35.0429 29.4667 34.9069 29.5234 34.9069 29.5926ZM21.6092 29.7363C21.6092 29.8016 21.7963 29.9625 22.0248 30.0941C22.5254 30.3823 24.4803 30.6079 24.4803 30.3776C24.4803 30.2164 24.291 30.1683 23.8381 30.2144C23.6926 30.2292 23.5737 30.1689 23.5737 30.0807C23.5737 29.9923 23.3737 29.92 23.1292 29.92C22.8847 29.92 22.6428 29.852 22.5914 29.7689C22.4817 29.5915 21.6092 29.5625 21.6092 29.7363ZM42.0847 29.92C42.0333 30.0031 42.0973 30.0711 42.2268 30.0711C42.3563 30.0711 42.4624 30.0031 42.4624 29.92C42.4624 29.8369 42.3985 29.7689 42.3202 29.7689C42.242 29.7689 42.136 29.8369 42.0847 29.92ZM43.7922 29.9502L43.9735 30.1316L44.1549 29.9502L44.3362 29.7689H43.9735H43.6109L43.7922 29.9502ZM47.4491 30.0382C47.4491 30.2164 47.5769 30.318 47.8271 30.3387L48.2051 30.37L48.0174 30.0695C47.7842 29.6959 47.4491 29.6775 47.4491 30.0382ZM51.7287 30.0631C51.2152 30.1922 50.7519 30.3418 50.699 30.3956C50.5097 30.5887 52.1001 30.6963 52.711 30.5317C53.3661 30.3554 53.5739 30.1722 53.4134 29.9126C53.3463 29.8043 53.2565 29.8031 53.1288 29.9091C53.0262 29.9942 52.8794 30.011 52.8023 29.9462C52.7254 29.8813 52.2423 29.9339 51.7287 30.0631ZM56.0623 30.1688C55.7715 30.3744 55.5129 30.6 55.488 30.6701C55.412 30.8827 56.6154 31.016 56.9577 30.8327C57.3157 30.6411 57.3882 30.338 57.0446 30.4698L56.8179 30.5568V30.1629C56.8179 29.6872 56.7425 29.6878 56.0623 30.1688ZM25.6892 30.0658L25.3114 30.1816L26.0417 30.5168C26.4434 30.7011 26.8121 30.812 26.8609 30.7632C26.954 30.67 26.3045 29.909 26.154 29.9351C26.1061 29.9434 25.897 30.0022 25.6892 30.0658ZM31.9752 30.1624C31.9231 30.2978 31.785 30.3675 31.6617 30.32C31.1822 30.1361 31.3049 30.5302 31.8403 30.8941C32.3214 31.2211 33.3958 31.4403 33.3958 31.2116C33.3958 30.9157 32.9596 30.3119 32.6184 30.1354C32.0991 29.8668 32.0884 29.8673 31.9752 30.1624ZM40.344 30.3013C40.2339 30.4341 40.0344 30.4936 39.8722 30.4421C39.5694 30.346 39.463 30.7295 39.7443 30.9033C39.8981 30.9983 40.7762 30.3959 40.7919 30.1845C40.8061 29.9913 40.5447 30.0595 40.344 30.3013ZM54.6371 30.2056C54.5845 30.2905 54.4588 30.3303 54.3575 30.2939C54.2563 30.2575 54.0035 30.3608 53.7957 30.5239L53.4179 30.82L53.8856 30.8234C54.3311 30.8265 55.0084 30.3267 54.8173 30.1357C54.7707 30.0891 54.6897 30.1205 54.6371 30.2056ZM18.3093 30.4556C17.8773 30.6825 18.0414 30.799 18.9727 30.9267L19.6856 31.0245L19.6171 30.8191C19.5794 30.7061 19.3492 30.5364 19.1056 30.4418L18.6626 30.2698L18.3093 30.4556ZM38.1088 30.3261L37.9107 30.4046L38.17 30.6913C38.5139 31.0713 38.7169 31.0541 38.6575 30.6496C38.6061 30.3008 38.4317 30.1979 38.1088 30.3261ZM59.5949 30.4429C59.543 30.578 59.5332 30.7212 59.5731 30.7613C59.7011 30.8892 60.1571 30.6443 60.1015 30.4775C60.0107 30.2052 59.6943 30.1836 59.5949 30.4429ZM61.8045 30.3549C61.8045 30.607 62.255 30.8601 62.5203 30.7572L62.7868 30.6537L62.409 30.4433C61.965 30.1961 61.8045 30.1725 61.8045 30.3549ZM34.3326 30.5295C33.7376 30.662 33.6317 30.7483 33.7768 30.9829C33.8414 31.0877 34.0628 31.1239 34.3211 31.0722C34.7244 30.9917 36.4485 31.159 37.3247 31.3637L37.7025 31.4521L37.2245 31.026C36.7387 30.5931 36.0655 30.4861 35.4663 30.7464C35.2903 30.8231 35.1307 30.786 35.013 30.6414L34.8314 30.4182L34.3326 30.5295ZM46.8797 30.6756C47.0914 31.0145 47.1358 31.028 47.4306 30.8412C47.7244 30.6553 47.5017 30.3734 47.0612 30.3734H46.6909L46.8797 30.6756ZM68.0897 30.5018C68.0443 30.5751 67.8437 30.6038 67.6436 30.5656C67.4435 30.5273 67.2359 30.5672 67.1821 30.6543C67.0583 30.8546 68.1616 31.1798 69.0125 31.1939C69.9234 31.209 70.3746 30.6869 69.4905 30.6407C69.294 30.6305 69.045 30.555 68.9368 30.4729L68.7403 30.3236L68.6548 30.6508C68.6077 30.8306 68.5019 30.9778 68.4195 30.9778C68.3373 30.9778 68.3083 30.8779 68.355 30.756C68.4495 30.5101 68.2202 30.2905 68.0897 30.5018ZM30.5992 30.6772C30.4599 30.9028 30.6281 31.0845 31.0513 31.1655C31.5338 31.2577 31.5384 31.0827 31.0615 30.7702C30.8347 30.6216 30.6559 30.5857 30.5992 30.6772ZM45.0313 30.8933C45.0313 31.2876 44.711 31.6034 44.6121 31.3068C44.5304 31.0615 44.1991 31.0837 43.9787 31.3494L43.7957 31.5698L44.155 31.6599C44.3525 31.7095 44.6986 31.68 44.9239 31.5943L45.3335 31.4387V30.9816C45.3335 30.7301 45.2655 30.5245 45.1824 30.5245C45.0993 30.5245 45.0313 30.6904 45.0313 30.8933ZM57.7259 30.7495L57.5576 30.9524L57.8808 31.055C58.2819 31.1822 59.3239 31.0012 59.142 30.8358C58.8807 30.5984 57.9009 30.5385 57.7259 30.7495ZM60.5837 30.806L60.236 31.0875L60.5461 31.2534L60.8562 31.4195L61.1282 31.2205C61.2935 31.0996 61.3628 30.9239 61.305 30.773C61.1817 30.4516 61.0118 30.4593 60.5837 30.806ZM8.91596 30.8412L8.6893 31.0023L9.09231 30.9148C9.33802 30.8614 9.51859 30.8968 9.55471 31.0053C9.62437 31.214 10.1248 31.0614 10.1248 30.8314C10.1248 30.6271 9.207 30.6345 8.91596 30.8412ZM62.885 30.8191C62.95 31.0139 63.1571 31.049 63.1759 30.8682C63.1821 30.8079 63.1056 30.7315 63.0059 30.6982C62.9061 30.665 62.8517 30.7194 62.885 30.8191ZM29.1567 30.9828C28.8732 31.1579 28.9801 31.2333 29.6936 31.3621C30.3448 31.4796 30.3482 31.4651 29.7568 31.0963C29.5124 30.9439 29.2882 30.9015 29.1567 30.9828ZM46.0135 31.1289C45.8632 31.2951 45.8154 31.4311 45.9074 31.4311C46.1781 31.4311 46.8446 31.0914 46.8446 30.9535C46.8446 30.7106 46.2852 30.8286 46.0135 31.1289ZM11.7871 31.1077C11.7871 31.3016 12.6183 31.6197 12.9462 31.5513L13.2226 31.4935L12.9204 31.3321C12.4639 31.0883 11.7871 30.9544 11.7871 31.1077ZM40.9513 31.28C41.2443 31.4694 41.4047 31.4694 41.4047 31.28C41.4047 31.1969 41.2517 31.13 41.0647 31.1312L40.7247 31.1336L40.9513 31.28ZM41.7069 31.28L41.4802 31.4264L42.1135 31.4289C42.4618 31.4301 42.7888 31.3631 42.8402 31.28C42.9612 31.0843 42.0099 31.0843 41.7069 31.28ZM43.218 31.4311C43.218 31.5142 43.3241 31.5822 43.4536 31.5822C43.5831 31.5822 43.6471 31.5142 43.5958 31.4311C43.5444 31.348 43.4384 31.28 43.3602 31.28C43.2819 31.28 43.218 31.348 43.218 31.4311ZM34.6047 31.7185C34.6047 31.9431 35.4938 32.1826 35.9721 32.0869C36.5827 31.9648 36.5315 31.7917 35.8514 31.6792C35.0479 31.5464 34.6047 31.5605 34.6047 31.7185ZM40.3469 32.0356C40.3469 32.1187 40.5808 32.1867 40.8669 32.1867C41.1529 32.1867 41.4288 32.1187 41.4802 32.0356C41.5366 31.9443 41.3306 31.8845 40.9602 31.8845C40.623 31.8845 40.3469 31.9525 40.3469 32.0356ZM58.2545 32.4872C58.2016 32.5728 58.2622 32.5982 58.3967 32.5466C58.6584 32.4461 58.7063 32.3378 58.489 32.3378C58.4108 32.3378 58.3053 32.405 58.2545 32.4872ZM39.2891 37.6481C39.2891 38.0754 39.5457 38.449 39.9313 38.583C40.2777 38.7035 40.2674 38.6522 39.8094 37.9772C39.2958 37.2206 39.2891 37.2164 39.2891 37.6481ZM36.6361 37.6898C36.4748 37.8077 36.3957 37.957 36.4602 38.0215C36.5247 38.086 36.7267 37.9895 36.9091 37.8071C37.2787 37.4375 37.0912 37.3569 36.6361 37.6898ZM44.2939 38.2465C44.591 38.5289 44.8698 38.862 44.9133 38.9866L44.9925 39.2133L45.2763 39.046C45.9617 38.6421 45.5476 38.0022 44.4992 37.845L43.7535 37.7332L44.2939 38.2465ZM49.2624 43.9308L48.5824 44.1608L46.1136 44.1804L43.6449 44.1999L43.3419 44.5738L43.0391 44.9478L43.1272 45.4804C43.1757 45.7734 43.2872 46.2683 43.3748 46.5799L43.5344 47.1466H43.8267C43.9874 47.1466 44.8728 46.9698 45.7941 46.7537C46.7156 46.5378 47.5069 46.3986 47.5529 46.4445C47.8129 46.7044 47.317 47.4846 46.2421 48.5066C45.5865 49.1299 44.9823 49.8199 44.8994 50.0397L44.7486 50.4394L45.1419 50.5147C45.3583 50.5561 46.085 50.4285 46.7567 50.2313C47.4284 50.0343 48.063 49.8716 48.1668 49.8697C48.2877 49.8678 48.3557 50.0895 48.3557 50.486V51.1054L47.9149 51.517C47.6306 51.7826 46.7966 52.1595 45.5634 52.5795L43.6526 53.2303L43.4199 53.5854C43.1743 53.9601 42.8579 55.148 42.973 55.263C43.0102 55.3003 43.8795 55.1246 44.9048 54.8725C49.1685 53.8244 49.8494 53.52 50.152 52.5266C50.2304 52.2686 50.3387 51.2199 50.3927 50.196L50.4908 48.3343L50.3114 48.1182C50.2127 47.9993 50.0043 47.9021 49.8484 47.9021C49.6923 47.9021 49.5646 47.8335 49.5646 47.7497C49.5646 47.6658 49.8706 46.8808 50.2446 46.0051C50.6186 45.1296 50.9246 44.2462 50.9246 44.042V43.6711L50.4335 43.686C50.1633 43.6942 49.6364 43.8043 49.2624 43.9308ZM28.417 44.6534L23.967 45.3064L23.8042 45.529C23.5415 45.8883 23.7728 48.3598 24.1186 48.8877L24.4048 49.3244L24.402 51.1444L24.3992 52.9643L23.926 53.9718L23.4529 54.9792L23.8042 55.0673C24.3652 55.2082 26.1777 54.7671 26.4573 54.4218C26.5921 54.2554 26.7439 53.7673 26.795 53.337C26.8459 52.9066 26.9576 52.4704 27.043 52.3673C27.1285 52.2644 27.7041 51.9303 28.3221 51.6247L29.4459 51.0694L30.2007 50.1659C31.1692 49.0069 31.7474 47.9884 32.392 46.3058C32.9644 44.8118 33.1834 43.9662 32.9922 43.9869C32.9233 43.9944 30.8644 44.2944 28.417 44.6534ZM61.1913 44.1165C59.5472 44.6155 58.2805 46.043 56.7206 49.1551C56.1876 50.2182 55.6856 51.0472 55.6048 50.9973C55.5239 50.9473 55.4576 50.6895 55.4571 50.4243C55.4552 49.2652 54.8335 45.6973 54.5701 45.3333C54.1221 44.7142 53.3531 44.2755 52.7156 44.2755H52.1335V44.5643C52.1335 44.7232 52.3104 45.5902 52.5265 46.4909C52.7428 47.3918 52.9564 48.7261 53.0012 49.4563L53.0826 50.784L52.7347 52.5705C52.5434 53.5532 52.4298 54.4688 52.4821 54.6052C52.6343 55.0016 53.6015 54.9096 54.599 54.4037C55.8129 53.788 56.7844 52.9371 57.8234 51.5794L58.7068 50.4251L58.8107 51.6639C58.9417 53.2259 59.1237 53.7746 59.7094 54.3737C60.4958 55.1781 61.9815 55.4274 62.0755 54.7708C62.0998 54.6008 61.9097 53.9685 61.6531 53.3654C61.3964 52.7623 61.1078 51.7287 61.0115 51.0685L60.8365 49.8679L61.0147 48.4696C61.1637 47.3013 61.682 45.1646 62.0477 44.2116C62.1489 43.9477 61.855 43.9151 61.1913 44.1165ZM20.7781 44.5017L19.7203 44.8491L17.1515 45.0291C14.3494 45.2254 13.7293 45.4011 13.3671 46.1017C13.0762 46.6642 13.0846 47.8968 13.3823 48.3218C13.657 48.7141 14.0466 48.7473 14.6588 48.4307L15.0977 48.2038L15.173 48.6952C15.5329 51.0461 15.3493 52.9427 14.5882 54.7362L14.4774 54.9971L15.7389 54.9138C20.4287 54.6037 20.7908 54.5312 21.33 53.7954C21.4821 53.5877 21.6151 53.1457 21.6252 52.8132C21.6354 52.4808 21.712 51.4996 21.7952 50.633L21.9468 49.0572L21.6647 48.849C21.4833 48.7153 21.202 48.6743 20.8772 48.7343L20.3719 48.8278L20.7768 48.1761C21.4309 47.123 22.5159 44.7965 22.5159 44.4469V44.1244L22.1759 44.1393C21.9888 44.1475 21.3599 44.3106 20.7781 44.5017ZM34.7946 44.4644C34.7126 44.5683 34.4695 45.2739 34.2544 46.0325C33.6226 48.2625 32.5028 51.1567 31.4877 53.1827C30.9673 54.2216 30.5554 55.0853 30.5723 55.1022C30.6027 55.1326 31.4574 54.9496 32.5029 54.6886C33.368 54.4727 34.035 53.9268 34.616 52.9584L35.1566 52.0577L36.1273 51.7287C36.6612 51.5478 37.2401 51.3947 37.4138 51.3887L37.7297 51.3777L37.9143 52.4108C38.141 53.6795 38.5189 54.3399 39.0892 54.4635C39.6444 54.5838 41.5558 54.8115 41.5558 54.7574C41.5558 54.7343 41.3888 54.4694 41.1846 54.1685C40.7405 53.5142 40.1934 52.1157 40.0879 51.3659L40.0119 50.8252L40.7875 50.2679C41.7838 49.5523 42.1588 48.9363 42.1596 48.0155C42.1599 47.6206 42.1241 47.2977 42.08 47.2977C42.036 47.2977 41.7862 47.541 41.5251 47.8384C41.118 48.302 39.7069 49.2564 39.4221 49.2608C39.3706 49.2615 39.1738 48.4631 38.9849 47.4866C38.796 46.5101 38.5824 45.595 38.5101 45.4531C38.4325 45.3008 37.7912 45.0069 36.9433 44.7353C35.3587 44.2277 35.0159 44.1845 34.7946 44.4644ZM68.9974 46.3114C68.038 46.7058 67.1316 47.4704 66.9996 47.9969C66.8826 48.4629 67.3314 49.2402 67.7828 49.3536C68.1898 49.4557 69.3788 49.0748 69.6419 48.7579C69.7968 48.5713 70.1123 46.9151 70.1144 46.2777C70.1159 45.859 70.0964 45.8596 68.9974 46.3114ZM18.6588 46.7197L17.907 47.2221L17.8706 48.2799L17.8342 49.3377L18.3591 48.7488C18.8572 48.1902 19.5591 46.663 19.4579 46.359C19.4319 46.281 19.0722 46.4435 18.6588 46.7197ZM29.6181 46.5452C29.4103 46.6168 28.7474 46.8184 28.1447 46.9929L27.0492 47.3105V48.664C27.0492 49.5167 27.1084 50.0177 27.2094 50.0177C27.506 50.0177 29.0555 48.4384 29.6413 47.5387C30.4069 46.3634 30.4047 46.2739 29.6181 46.5452ZM36.1926 48.7397C35.8804 49.6159 35.6542 50.3619 35.6897 50.3974C35.7252 50.4331 36.1076 50.3492 36.5395 50.2111C37.0414 50.0506 37.325 49.875 37.3257 49.7244C37.328 49.1925 36.9625 47.1466 36.8652 47.1466C36.8074 47.1466 36.5048 47.8635 36.1926 48.7397ZM19.0251 51.5711C18.5595 51.8387 18.0664 52.1511 17.9295 52.265C17.6816 52.4714 17.5708 53.4932 17.7964 53.4932C18.2118 53.4932 19.869 52.1075 20.1911 51.491L20.408 51.0755L20.1398 51.08C19.9922 51.0826 19.4905 51.3035 19.0251 51.5711ZM46.8446 56.8479C46.8446 56.9144 47.0445 56.9688 47.289 56.9688C47.5335 56.9688 47.767 56.9144 47.8081 56.8479C47.8492 56.7814 47.6493 56.727 47.3637 56.727C47.0782 56.727 46.8446 56.7814 46.8446 56.8479ZM4.46894 57.5084C4.16022 57.8172 4.16808 58.1592 4.49206 58.5173L4.75273 58.8052L4.49916 59.247L4.2456 59.6887H4.46139C4.58001 59.6887 4.78265 59.4847 4.91154 59.2354C5.20243 58.6728 5.55558 58.6482 5.61934 59.186C5.64564 59.4081 5.75217 59.6177 5.85598 59.6519L6.04487 59.714V58.4924V57.271H5.3756C4.96881 57.271 4.6134 57.3641 4.46894 57.5084ZM6.80042 58.4799V59.6887H7.02709H7.25375V58.631V57.5732H7.84807H8.44223L8.53925 57.8786C8.59259 58.0466 8.61677 58.5009 8.59289 58.888C8.56524 59.3388 8.61541 59.6138 8.73282 59.6529L8.91596 59.714V58.4924V57.271H7.85819H6.80042V58.4799ZM10.2004 57.4515C9.77503 57.6927 9.6765 57.8795 9.67378 58.4489C9.67121 59.0196 10.2332 59.6887 10.7152 59.6887C11.8529 59.6887 12.3935 58.4551 11.6175 57.6291C11.2556 57.2439 10.6914 57.1732 10.2004 57.4515ZM12.6937 58.3954C12.6937 59.0139 12.7617 59.5618 12.8448 59.6132C12.9347 59.6688 12.9959 59.4888 12.9959 59.1688V58.631H13.6759H14.3559V59.1598C14.3559 59.4507 14.4239 59.6887 14.507 59.6887C14.5951 59.6887 14.6582 59.1851 14.6582 58.4799C14.6582 57.7746 14.5951 57.271 14.507 57.271C14.4239 57.271 14.3559 57.5129 14.3559 57.8085V58.3461L13.7137 58.2996L13.0715 58.2532L13.0242 57.7621C12.9334 56.8202 12.6937 57.2794 12.6937 58.3954ZM15.7847 57.6419C15.3602 58.0663 15.3188 58.4625 15.6348 59.0734C15.8707 59.5298 16.1413 59.6887 16.6817 59.6887C17.0856 59.6887 17.6515 59.3072 17.4887 59.1444C17.4251 59.081 17.2926 59.1094 17.1942 59.2077C16.7235 59.6785 15.867 59.1837 15.867 58.441C15.867 57.7311 16.727 57.2847 17.1942 57.752C17.2926 57.8503 17.4251 57.8787 17.4887 57.8153C17.669 57.6348 17.0659 57.271 16.5868 57.271C16.3303 57.271 16.0051 57.4213 15.7847 57.6419ZM18.2848 58.4799C18.2848 59.1851 18.3478 59.6887 18.4359 59.6887C18.519 59.6887 18.587 59.4888 18.587 59.2443C18.587 58.5803 18.8079 58.5663 19.3149 59.1978C19.5652 59.5094 19.821 59.7132 19.8837 59.651C19.9463 59.5885 19.7911 59.2807 19.5389 58.9669L19.0802 58.3961L19.5174 57.8725C20.1214 57.1492 19.7494 57.1028 19.1138 57.8222L18.5996 58.4043L18.5934 57.8376C18.5899 57.526 18.519 57.271 18.4359 57.271C18.3478 57.271 18.2848 57.7746 18.2848 58.4799ZM21.4072 57.3822C21.3637 57.4526 21.1526 57.9768 20.9378 58.5471C20.5525 59.5707 20.5445 60.0138 20.9205 59.4995C21.0454 59.3288 21.3155 59.2354 21.6848 59.2354C22.0541 59.2354 22.3241 59.3288 22.4491 59.4995C22.834 60.0259 22.8001 59.573 22.3722 58.4717C21.9751 57.4493 21.6162 57.0442 21.4072 57.3822ZM23.5088 57.5084C23.1874 57.8299 23.2102 58.2264 23.5688 58.551L23.8664 58.8203L23.6444 59.137C23.3885 59.5023 23.3618 59.6887 23.565 59.6887C23.6435 59.6887 23.8281 59.4847 23.9755 59.2354C24.1228 58.9861 24.3646 58.7821 24.513 58.7821H24.7825V59.2354C24.7825 59.4847 24.8505 59.6887 24.9336 59.6887C25.0217 59.6887 25.0848 59.1851 25.0848 58.4799V57.271H24.4155C24.0087 57.271 23.6533 57.3641 23.5088 57.5084ZM27.6119 57.4423C27.4687 57.5226 27.3514 57.7665 27.3514 57.9844C27.3514 58.2023 27.2432 58.5 27.1111 58.6461C26.6027 59.2079 27.3662 59.934 28.0698 59.5576L28.3629 59.4007L28.5372 59.5749L28.7114 59.7492V59.5768C28.7114 59.4819 28.6432 59.3622 28.5598 59.3107C28.4607 59.2495 28.4693 59.1027 28.5846 58.8862L28.7608 58.5554L28.502 58.7691L28.243 58.9827L27.9945 58.7345L27.7463 58.486L28.0776 58.1332C28.479 57.7062 28.4862 57.6252 28.1408 57.4402C27.9707 57.3491 27.7772 57.3498 27.6119 57.4423ZM30.8269 58.4873V59.7037L31.5825 59.6692C32.4674 59.6289 32.5907 59.4256 31.7714 59.3578L31.2047 59.311L31.1564 58.971L31.1082 58.631H31.723C32.4957 58.631 32.5348 58.3632 31.7714 58.3L31.2047 58.2532L31.1564 57.9132L31.1082 57.5732H31.723C32.0614 57.5732 32.338 57.5052 32.338 57.4221C32.338 57.339 31.998 57.271 31.5825 57.271H30.8269V58.4873ZM33.0936 58.4799V59.6887H33.6127C34.6845 59.6887 35.2401 59.1757 34.7256 58.6612L34.5443 58.4799L34.7256 58.2985C35.2412 57.7829 34.7344 57.271 33.708 57.271H33.0936V58.4799ZM35.6916 58.4043L35.7114 59.5376H35.9136C36.0375 59.5376 36.1158 59.3622 36.1158 59.0843V58.631H36.6394C37.1375 58.631 37.4758 58.3337 37.4758 57.8961C37.4758 57.5467 36.9732 57.271 36.3364 57.271H35.6718L35.6916 58.4043ZM38.4618 57.5972L38.0468 57.9236L38.1296 58.5401C38.2244 59.2469 38.664 59.6887 39.2722 59.6887C40.1967 59.6887 40.7268 58.7562 40.2864 57.9047C39.9123 57.1812 39.1533 57.0534 38.4618 57.5972ZM41.1339 58.43C41.1627 59.1896 41.2431 59.6105 41.3669 59.6514L41.5558 59.714V58.6349V57.5558L42.198 57.6024L42.8402 57.6487L42.8849 58.6687C42.9476 60.0998 43.218 59.9464 43.218 58.4799V57.271H42.1539H41.0897L41.1339 58.43ZM43.9735 58.4799V59.6887H44.7291C45.6063 59.6887 45.7556 59.4272 44.918 59.3578L44.3513 59.311L44.303 58.971L44.2547 58.631H44.8696C45.6422 58.631 45.6814 58.3632 44.918 58.3L44.3513 58.2532L44.303 57.9132L44.2547 57.5732H44.8696C45.208 57.5732 45.4846 57.5052 45.4846 57.4221C45.4846 57.339 45.1446 57.271 44.7291 57.271H43.9735V58.4799ZM46.3913 58.4924V59.714L46.5802 59.6529C46.6841 59.6194 47.0071 59.2422 47.298 58.8147C47.5888 58.3872 47.8778 58.035 47.9402 58.032C48.0026 58.0289 48.0535 58.4005 48.0535 58.8576C48.0535 59.3333 48.1209 59.6887 48.211 59.6887C48.4257 59.6887 48.3332 57.3884 48.1156 57.3165C48.0251 57.2865 47.6851 57.6551 47.3601 58.1353L46.7691 59.0087L46.7237 58.1399C46.655 56.8216 46.3913 57.1013 46.3913 58.4924ZM49.5095 57.5842L49.1113 57.8973V58.4799V59.0624L49.5095 59.3755C49.978 59.7442 50.6576 59.7838 50.9276 59.4584C51.1721 59.1638 51.0027 58.9824 50.7099 59.2254C50.3661 59.5107 49.8256 59.3543 49.5696 58.8954L49.3379 58.4799L49.5696 58.0643C49.8256 57.6054 50.3661 57.449 50.7099 57.7343C51.0027 57.9773 51.1721 57.7959 50.9276 57.5013C50.6576 57.1759 49.978 57.2155 49.5095 57.5842ZM51.8313 58.4799C51.8313 59.1851 51.8943 59.6887 51.9824 59.6887C52.0655 59.6887 52.1345 59.5358 52.1357 59.3487C52.1371 59.1617 52.2031 58.9067 52.2826 58.7821L52.4272 58.5554L52.6615 58.888C52.9931 59.3589 53.3404 59.6887 53.5042 59.6887C53.7396 59.6887 53.6617 59.4488 53.3283 59.1472C53.1544 58.9898 52.9442 58.734 52.8611 58.5787L52.71 58.2964L53.207 57.7837L53.7038 57.271H53.4552C53.3185 57.271 53.025 57.509 52.8032 57.7999C52.5814 58.0907 52.3399 58.3287 52.2666 58.3287C52.1935 58.3287 52.1335 58.0907 52.1335 57.7999C52.1335 57.509 52.0655 57.271 51.9824 57.271C51.8943 57.271 51.8313 57.7746 51.8313 58.4799ZM54.9061 57.5242C54.8524 57.6758 54.6487 58.2023 54.4535 58.6941C54.0978 59.5902 54.1046 59.9952 54.4669 59.4995C54.5919 59.3288 54.8619 59.2354 55.2312 59.2354C55.6006 59.2354 55.8706 59.3288 55.9956 59.4995C56.3883 60.0366 56.3682 59.54 55.9537 58.4607C55.52 57.3316 55.1055 56.961 54.9061 57.5242ZM57.1503 57.4523C56.8886 57.714 56.9275 58.4416 57.2114 58.6004L57.4538 58.7361L57.2076 59.2124L56.9613 59.6887L57.154 59.6878C57.26 59.6872 57.4627 59.4832 57.6041 59.2345C57.9452 58.6352 58.329 58.6356 58.329 59.2354C58.329 59.4847 58.397 59.6887 58.4801 59.6887C58.5682 59.6887 58.6312 59.1851 58.6312 58.4799V57.271H57.9814C57.6241 57.271 57.2501 57.3526 57.1503 57.4523ZM60.7468 58.4799C60.7468 59.1851 60.8098 59.6887 60.8979 59.6887C60.981 59.6887 61.049 59.4961 61.049 59.2606C61.049 58.5997 61.2045 58.5859 61.7373 59.1994C62.3748 59.9338 62.5871 59.7304 61.9813 58.9655L61.5171 58.3795L61.9741 57.8252C62.5843 57.085 62.1805 57.0966 61.5458 57.8376L61.0603 58.4043L61.0547 57.8376C61.0516 57.526 60.981 57.271 60.8979 57.271C60.8098 57.271 60.7468 57.7746 60.7468 58.4799ZM63.0134 57.3721C63.0134 57.4277 63.2197 57.8385 63.4717 58.2852C63.929 59.0953 63.9452 59.3865 63.5334 59.3865C63.4136 59.3865 63.3156 59.4545 63.3156 59.5376C63.3156 59.6207 63.4509 59.6887 63.6162 59.6887H63.9168L64.5245 58.4799C64.9428 57.6478 65.0676 57.271 64.9245 57.271C64.8103 57.271 64.5998 57.577 64.457 57.951C64.3142 58.325 64.1484 58.631 64.0889 58.631C64.0292 58.631 63.8317 58.325 63.6499 57.951C63.3666 57.3675 63.0134 57.0464 63.0134 57.3721ZM65.5823 57.3566C65.5823 57.4036 65.758 57.6726 65.9729 57.9543L66.3635 58.4664L65.9518 59.0062C65.4242 59.6978 65.6216 59.9278 66.1681 59.2582L66.5796 58.754L66.9717 59.2591C67.1875 59.537 67.4145 59.7152 67.4765 59.655C67.5383 59.595 67.4059 59.306 67.1824 59.0128L66.7758 58.4799L67.1824 57.9469C67.7095 57.2557 67.5026 57.0378 66.9556 57.708L66.5388 58.2187L66.2014 57.7449C65.9007 57.3225 65.5823 57.1229 65.5823 57.3566ZM68.3023 58.4799C68.3023 59.1851 68.3653 59.6887 68.4534 59.6887C68.5365 59.6887 68.6045 59.4507 68.6045 59.1598V58.631H69.2845H69.9645V59.1598C69.9645 59.4507 70.0325 59.6887 70.1156 59.6887C70.2037 59.6887 70.2667 59.1851 70.2667 58.4799C70.2667 57.7746 70.2037 57.271 70.1156 57.271C70.0325 57.271 69.9645 57.5129 69.9645 57.8085V58.3461L69.3223 58.2996L68.68 58.2532L68.6328 57.7621C68.5386 56.7859 68.3023 57.2991 68.3023 58.4799ZM71.2867 57.4342C70.9493 57.6308 70.9475 58.1467 71.2828 58.5173L71.5434 58.8052L71.2899 59.247L71.0363 59.6887H71.2521C71.3707 59.6887 71.5734 59.4847 71.7023 59.2354C71.9931 58.6728 72.3463 58.6482 72.41 59.186C72.4363 59.4081 72.5429 59.6177 72.6467 59.6519L72.8356 59.714V58.4924V57.271L72.1934 57.2755C71.8402 57.2781 71.4321 57.3494 71.2867 57.4342ZM27.6914 57.5306C27.4344 57.6229 27.4508 58.1776 27.7108 58.1776C27.8251 58.1776 27.996 58.0847 28.0903 57.9711L28.2618 57.7643L28.071 57.6135C27.9661 57.5306 27.7954 57.4933 27.6914 57.5306ZM4.73958 57.7999C4.59482 58.1769 4.8041 58.4799 5.20908 58.4799H5.59154V58.0265V57.5732H5.20908C4.99858 57.5732 4.78733 57.6752 4.73958 57.7999ZM10.2111 57.8106C9.89062 58.1312 9.91103 58.8297 10.2501 59.1364C10.5821 59.437 11.0836 59.4612 11.3108 59.1876C11.5553 58.893 11.576 58.0918 11.3463 57.815C11.0901 57.5064 10.5177 57.5041 10.2111 57.8106ZM23.9137 57.6705C23.5682 57.815 23.7021 58.3173 24.1136 58.4206C24.5654 58.5339 24.8336 58.3293 24.7575 57.9292C24.7043 57.6507 24.2754 57.5191 23.9137 57.6705ZM33.4532 57.7926C33.3301 58.1134 33.5156 58.3287 33.9152 58.3287C34.3102 58.3287 34.681 57.9702 34.5332 57.7309C34.3859 57.4926 33.5501 57.5404 33.4532 57.7926ZM36.1158 58.0265V58.4799H36.4751C36.6726 58.4799 36.919 58.3779 37.0225 58.2532L37.2106 58.0265L37.0225 57.7999C36.919 57.6752 36.6726 57.5732 36.4751 57.5732H36.1158V58.0265ZM38.678 57.8079C38.5709 57.9371 38.4832 58.2394 38.4832 58.4799C38.4832 58.7203 38.5709 59.0226 38.678 59.1518C39.1265 59.6924 40.0447 59.2233 40.0447 58.4536C40.0447 57.7308 39.1088 57.2887 38.678 57.8079ZM57.4223 57.7999L57.2342 58.0265L57.4223 58.2532C57.5258 58.3779 57.7722 58.4799 57.9697 58.4799H58.329V58.0265V57.5732H57.9697C57.7722 57.5732 57.5258 57.6752 57.4223 57.7999ZM71.6497 57.7069C71.3074 57.9239 71.5105 58.3993 71.9681 58.452L72.3822 58.4999V58.0365V57.5732L72.1178 57.5755C71.9724 57.5768 71.7616 57.6359 71.6497 57.7069ZM21.4179 58.1814C21.1565 58.8058 21.2032 58.9332 21.6937 58.9332C22.1179 58.9332 22.1704 58.6186 21.8448 58.0303L21.6378 57.6565L21.4179 58.1814ZM55.0307 58.1051C54.7611 58.6967 54.8112 58.9332 55.206 58.9332C55.6936 58.9332 55.7671 58.8159 55.5702 58.3514C55.3051 57.726 55.221 57.6876 55.0307 58.1051ZM27.2281 59.0452C27.2778 59.4763 27.5823 59.6319 27.9333 59.4059L28.1373 59.2744L27.8619 58.9527C27.4696 58.4945 27.1695 58.5383 27.2281 59.0452ZM33.5469 59.0087V59.4057L34.038 59.3583L34.5291 59.311V59.0087V58.7065L34.038 58.6592L33.5469 58.6118V59.0087Z" fill="#A5A5A5"/>
</svg>
