<svg width="126" height="43" viewBox="0 0 126 43" fill="none" xmlns="http://www.w3.org/2000/svg">
<path fill-rule="evenodd" clip-rule="evenodd" d="M74.245 34.0855C74.245 34.3254 74.2255 34.5718 74.2353 34.8068C74.2854 36.1117 74.3437 37.4166 74.3971 38.7231C74.4166 39.1011 74.4166 39.4799 74.3971 39.8578C74.3831 40.1327 74.3358 40.4049 74.2563 40.6683C74.2158 40.8348 74.1428 40.9916 74.0414 41.1296C73.9401 41.2676 73.8124 41.3841 73.6658 41.4725C73.5192 41.5608 73.3566 41.6191 73.1873 41.6442C73.0181 41.6692 72.8456 41.6604 72.6797 41.6182C72.3509 41.5873 72.0471 41.429 71.8331 41.1771C71.619 40.9252 71.5117 40.5996 71.5338 40.2696C71.5241 38.9371 71.5451 37.603 71.5338 36.2722C71.5338 33.3544 71.5192 30.4366 71.4949 27.5188C71.4949 26.9158 71.3929 26.3177 71.3703 25.7146C71.3396 25.2127 71.3488 24.7092 71.3978 24.2088C71.4072 24.0374 71.4553 23.8704 71.5385 23.7204C71.6217 23.5704 71.7377 23.4412 71.878 23.3426C72.0182 23.2439 72.1789 23.1784 72.3481 23.151C72.5172 23.1236 72.6904 23.135 72.8546 23.1843C73.0969 23.2451 73.3319 23.3321 73.5555 23.4436C73.7346 23.5044 73.8904 23.6198 74.0009 23.7735C74.1115 23.9272 74.1713 24.1117 74.1721 24.3012C74.1851 24.8021 74.279 25.3013 74.2806 25.8022C74.2806 27.4362 74.2612 29.0701 74.2563 30.7041C74.2563 30.944 74.1576 31.2066 74.4182 31.4692C74.4896 31.351 74.5482 31.2254 74.593 31.0947C74.7387 30.4074 74.8503 29.7137 75.0154 29.0312C75.3151 27.7594 75.8397 26.5516 76.5645 25.465C77.0252 24.7898 77.6161 24.2137 78.3024 23.7705C78.9887 23.3273 79.7567 23.026 80.561 22.8844C82.3985 22.5582 84.2914 22.7838 86.0012 23.5328C86.5971 23.777 87.1334 24.147 87.5736 24.6175C88.0138 25.088 88.3476 25.648 88.5522 26.2593C89.2594 28.0355 89.6659 29.9173 89.7549 31.8274C89.8193 32.73 89.829 33.6356 89.784 34.5393C89.6736 36.3055 89.0142 37.9929 87.8983 39.3651C87.2248 40.1469 86.3912 40.7744 85.4541 41.2049C84.5169 41.6659 83.4956 41.9306 82.4528 41.9827C81.4099 42.0348 80.3674 41.8733 79.3891 41.508C78.433 41.1833 77.5676 40.6358 76.8641 39.9107C76.1606 39.1856 75.6391 38.3036 75.3424 37.3372C75.0862 36.4984 74.8766 35.6461 74.7144 34.7841C74.6561 34.528 74.6788 34.2443 74.4651 34.0579L74.245 34.0855ZM87.0744 33.4193H87.0112C87.0303 33.144 87.0303 32.8678 87.0112 32.5926C86.8769 31.6508 86.7749 30.6992 86.5532 29.7769C86.331 28.8525 86.0372 27.9468 85.6743 27.0682C85.5441 26.6815 85.2935 26.3468 84.9593 26.1134C84.6251 25.88 84.225 25.7601 83.8177 25.7714C83.6171 25.7614 83.4177 25.7337 83.222 25.6887C82.2118 25.4263 81.1397 25.5582 80.223 26.0579C79.3063 26.5575 78.6136 27.3875 78.2851 28.3796C77.9455 29.2683 77.7076 30.1928 77.5761 31.1352C77.428 31.743 77.3423 32.3644 77.3204 32.9897C77.3343 34.1959 77.6169 35.3838 78.1476 36.4667C78.5829 37.413 79.3362 38.1763 80.276 38.6233C81.2158 39.0704 82.2825 39.1728 83.29 38.9128C84.201 38.6672 85.0236 38.1674 85.6621 37.4718C86.3005 36.7762 86.7286 35.9133 86.8963 34.9835C86.9757 34.4664 87.0161 33.9412 87.076 33.4193H87.0744Z" fill="#A5A5A5"/>
<path fill-rule="evenodd" clip-rule="evenodd" d="M65.4315 25.8848L61.6552 25.7778C61.4115 26.7895 61.3566 27.8375 61.4933 28.869C61.6 30.0947 61.5691 31.3284 61.4011 32.5471C61.3121 33.4711 61.181 34.3918 61.147 35.3158C61.1243 36.3692 60.971 37.4158 60.6905 38.4313C60.6052 38.7452 60.497 39.0524 60.3668 39.3504C60.0388 40.1637 59.4417 40.8394 58.6756 41.2643C57.9094 41.6893 57.0207 41.8377 56.1583 41.6847C55.9081 41.6688 55.6602 41.627 55.4186 41.5598C55.252 41.5245 55.0956 41.452 54.9608 41.3477C54.8261 41.2435 54.7165 41.1101 54.6403 40.9577C54.5641 40.8052 54.5232 40.6375 54.5206 40.467C54.5181 40.2965 54.5539 40.1276 54.6255 39.9729C54.7382 39.5572 55.008 39.2016 55.3777 38.9814C55.7474 38.7612 56.1881 38.6936 56.6067 38.7928C56.8678 38.8446 57.1389 38.7975 57.3673 38.6607C57.5958 38.5238 57.7654 38.3069 57.8433 38.052C58.1699 37.2613 58.3614 36.4213 58.4098 35.567C58.5053 34.4664 58.6057 33.3657 58.6785 32.265C58.7206 31.6166 58.7206 30.9602 58.7271 30.3053C58.739 29.1252 58.7465 27.944 58.7498 26.7618C58.7498 26.209 58.732 25.6563 58.7498 25.1051C58.7373 24.7049 58.7671 24.3044 58.8388 23.9104C58.8583 23.7533 58.9114 23.6022 58.9946 23.4675C59.0778 23.3329 59.1891 23.2178 59.3209 23.1302C59.4526 23.0426 59.6017 22.9846 59.7579 22.96C59.9141 22.9355 60.0738 22.9451 60.226 22.9881C61.4926 23.1579 62.7736 23.1926 64.0476 23.0918C65.0932 22.9929 66.1519 23.0351 67.2072 23.0254C67.3262 23.0069 67.4476 23.0134 67.5639 23.0443C67.6802 23.0752 67.7889 23.1299 67.8831 23.205C67.9772 23.2801 68.0548 23.3739 68.1109 23.4806C68.1671 23.5872 68.2005 23.7043 68.2091 23.8245C68.2665 24.2934 68.293 24.7656 68.2885 25.238C68.2885 25.3872 68.269 25.5395 68.2658 25.6886C68.227 27.4977 68.1687 29.3051 68.159 31.1141C68.159 32.62 68.2092 34.1244 68.2318 35.6303C68.2448 36.5607 68.2561 37.4895 68.2512 38.4216C68.231 39.2251 68.0767 40.0195 67.7947 40.772C67.7611 40.8665 67.7222 40.9591 67.6782 41.0492C67.611 41.2402 67.4901 41.4077 67.3301 41.5316C67.1701 41.6555 66.9778 41.7305 66.7763 41.7476C66.5748 41.7647 66.3727 41.7232 66.1941 41.6281C66.0156 41.5329 65.8683 41.3883 65.7699 41.2113C65.5776 40.9299 65.4428 40.6131 65.3733 40.2792C65.3039 39.9454 65.3011 39.601 65.3652 39.2661C65.5068 37.4386 65.4917 35.6023 65.3198 33.7774C65.2891 32.8292 65.4299 31.8744 65.4428 30.9228C65.4477 29.2678 65.4315 27.616 65.4315 25.8848Z" fill="#A5A5A5"/>
<path fill-rule="evenodd" clip-rule="evenodd" d="M110.192 34.9414C110.135 34.9037 110.073 34.8738 110.009 34.8522C109.021 34.755 109.009 34.7485 108.562 35.6368C107.65 37.4491 106.746 39.2667 105.851 41.0898C105.819 41.2072 105.765 41.3173 105.691 41.4136C105.617 41.5099 105.525 41.5905 105.419 41.6508C105.314 41.7111 105.197 41.7499 105.077 41.7649C104.957 41.7799 104.834 41.7709 104.717 41.7382C104.463 41.7577 104.207 41.7068 103.979 41.5911C103.752 41.4755 103.56 41.2995 103.424 41.0823C103.289 40.8651 103.216 40.615 103.213 40.3592C103.21 40.1033 103.277 39.8514 103.406 39.6309C103.442 39.5369 103.481 39.4445 103.525 39.3537C103.9 38.5595 104.279 37.7668 104.658 36.9709C105.036 36.175 105.412 35.3369 105.791 34.5005C105.629 34.374 105.528 34.2752 105.409 34.1957C105.069 33.9755 104.788 33.6773 104.586 33.326C104.385 32.9747 104.271 32.5804 104.253 32.176C104.164 30.7479 104.091 29.3182 104.091 27.8884C104.103 26.7243 104.484 25.5941 105.179 24.661C105.422 24.3076 105.737 24.01 106.104 23.7878C106.471 23.5657 106.88 23.424 107.306 23.3723C108.762 23.1827 110.248 23.113 111.723 23.0173C112.626 22.959 112.945 23.6528 113.099 24.4989C113.111 24.624 113.111 24.75 113.099 24.875C113.06 26.757 113.015 28.6406 112.982 30.5209C112.926 33.7629 112.875 37.0049 112.829 40.2469C112.858 40.4989 112.808 40.7537 112.684 40.9754C112.561 41.1971 112.372 41.3743 112.142 41.4821C111.869 41.6382 111.56 41.7225 111.246 41.727C110.931 41.7316 110.62 41.6562 110.342 41.508C110.152 41.362 110.007 41.1639 109.926 40.9375C109.846 40.7112 109.832 40.4662 109.887 40.2323C109.988 38.5562 110.109 36.8801 110.221 35.2072C110.221 35.1178 110.211 35.0287 110.192 34.9414ZM110.221 25.8022C109.603 25.746 108.981 25.7705 108.369 25.8752C108.104 25.89 107.85 25.9915 107.648 26.1643C107.446 26.337 107.306 26.5714 107.249 26.8315C107.036 27.4231 106.938 28.0495 106.958 28.6779C107.016 29.4025 107.055 30.1368 107.108 30.8565C107.17 31.7075 107.469 32.0041 108.338 32.0447C108.814 32.0657 109.292 32.056 109.769 32.0447C109.924 32.0215 110.076 31.9829 110.223 31.9296L110.221 25.8022Z" fill="#A5A5A5"/>
<path fill-rule="evenodd" clip-rule="evenodd" d="M95.7918 25.7519C95.7303 26.9141 95.6737 28.0067 95.6122 29.1787C96.2596 29.1916 96.831 29.1786 97.3927 29.224C98.364 29.2458 99.3039 29.5735 100.079 30.1608C100.853 30.748 101.423 31.5649 101.708 32.4952C101.851 33.0016 101.931 33.5237 101.946 34.0497C101.988 35.1844 101.975 36.3094 101.977 37.4409C101.987 37.7423 101.969 38.044 101.923 38.3421C101.836 39.1791 101.448 39.9557 100.831 40.5265C100.213 41.0973 99.4094 41.4231 98.5694 41.4431C97.6078 41.6249 96.6221 41.6386 95.6559 41.4836C95.2399 41.4123 94.8045 41.4723 94.3804 41.4415C94.0806 41.4351 93.7838 41.3804 93.5015 41.2794C93.2504 41.1935 93.034 41.0281 92.8851 40.8082C92.7362 40.5882 92.6627 40.3258 92.6759 40.0604C92.6889 37.3501 92.6598 34.6398 92.6759 31.9295C92.6889 30.1723 92.7601 28.4151 92.8168 26.658C92.841 25.9058 92.8912 25.1553 92.9333 24.4032C92.9383 24.0389 93.0847 23.6908 93.3415 23.4327C93.5983 23.1746 93.9454 23.0268 94.3092 23.0205C95.6364 22.9881 96.9621 22.9994 98.2894 23.001C98.9174 23.001 99.5422 23.0189 100.17 23.0334C100.447 23.0148 100.721 23.0986 100.941 23.2689C101.16 23.4392 101.309 23.6842 101.36 23.9574C101.472 24.2692 101.465 24.6117 101.339 24.9183C101.213 25.2249 100.978 25.4735 100.679 25.6157C100.397 25.7209 100.1 25.7758 99.7996 25.7778C99.0486 25.7924 98.2959 25.7648 97.5432 25.7583C96.9993 25.7486 96.449 25.7519 95.7918 25.7519ZM95.4973 38.7069C96.1026 38.7587 96.5996 38.8268 97.0949 38.8317C97.4441 38.8253 97.7915 38.7801 98.1308 38.6971C98.3171 38.6571 98.4899 38.5691 98.6318 38.4418C98.7738 38.3144 98.88 38.1521 98.9401 37.9709C99.0494 37.6913 99.107 37.3942 99.1101 37.094C99.0858 35.9155 99.0291 34.7403 98.9757 33.5634C98.9778 33.3342 98.9093 33.11 98.7795 32.9211C98.6497 32.7323 98.4651 32.5881 98.2506 32.5082C97.7429 32.3022 97.2134 32.1548 96.6724 32.0689C95.7724 31.9505 95.5911 32.1435 95.5393 33.0755C95.5296 33.2263 95.5296 33.377 95.5296 33.5278C95.521 34.9834 95.5129 36.4391 95.5053 37.8947C95.5037 38.1379 95.5037 38.3843 95.5037 38.7052L95.4973 38.7069Z" fill="#A5A5A5"/>
<path fill-rule="evenodd" clip-rule="evenodd" d="M118.214 25.875C117.516 25.875 116.869 25.8912 116.223 25.875C115.873 25.871 115.526 25.8164 115.192 25.7129C114.969 25.6428 114.77 25.5105 114.62 25.3315C114.469 25.1525 114.372 24.9342 114.341 24.7022C114.31 24.4702 114.345 24.2341 114.443 24.0215C114.541 23.8089 114.697 23.6287 114.894 23.5019C115.316 23.1836 115.832 23.0159 116.36 23.0253C117.787 23.0771 119.216 23.1258 120.643 23.1371C121.419 23.1371 122.196 23.0301 122.971 23.0528C123.444 23.0726 123.909 23.1746 124.347 23.3543C124.623 23.4807 124.845 23.7007 124.974 23.9754C125.104 24.2501 125.132 24.5618 125.054 24.8554C125.019 25.16 124.868 25.4395 124.633 25.6363C124.399 25.8332 124.097 25.9326 123.792 25.9139C123.067 25.9139 122.335 25.8604 121.613 25.8328C121.443 25.8328 121.273 25.8328 121.051 25.8328C121.02 26.032 121.001 26.2328 120.993 26.4342C121.035 28.7441 121.004 31.059 121.155 33.3624C121.289 35.374 121.202 37.3792 121.257 39.386C121.275 39.9153 121.155 40.4401 120.907 40.9081C120.737 41.2349 120.448 41.4837 120.099 41.6029C119.751 41.7221 119.37 41.7025 119.036 41.5484C118.847 41.4774 118.682 41.3517 118.564 41.1872C118.446 41.0228 118.379 40.8269 118.372 40.6244C118.364 40.4992 118.364 40.3736 118.372 40.2484C118.499 38.4912 118.39 36.7341 118.363 34.9769C118.316 32.038 118.28 29.1008 118.24 26.1619C118.246 26.0857 118.23 26.0063 118.214 25.875Z" fill="#A5A5A5"/>
<path fill-rule="evenodd" clip-rule="evenodd" d="M78.1068 19.5435C76.4383 19.5764 74.8127 19.0132 73.5212 17.9549C72.2928 16.9075 71.4003 15.5204 70.9556 13.9673C70.54 12.671 70.3329 11.3168 70.3421 9.95534C70.2917 7.32899 71.0712 4.75383 72.5694 2.59764C73.0295 1.95355 73.6123 1.40708 74.2843 0.98975C74.9564 0.572422 75.7043 0.292499 76.4849 0.166143C78.3151 -0.110386 80.1856 0.092929 81.9139 0.756207C82.5641 1.0089 83.1266 1.44606 83.5325 2.0141C84.5377 3.24467 85.1815 4.73072 85.3923 6.30647C85.5979 7.89342 85.7727 9.48689 85.8779 11.0836C85.9012 11.9535 85.7776 12.821 85.5121 13.6496C85.2282 14.7981 84.7053 15.8736 83.9776 16.8057C83.7299 17.1194 83.4451 17.4019 83.1294 17.647C82.2348 18.3497 81.2225 18.8876 80.1398 19.2355C79.4702 19.3859 78.7908 19.4888 78.1068 19.5435ZM82.9919 10.7902C82.9654 9.31767 82.7516 7.85455 82.3557 6.43617C82.1946 5.83547 81.9716 5.25313 81.6905 4.69848C81.5244 4.35544 81.2863 4.05236 80.9924 3.81007C80.6985 3.56778 80.3558 3.39195 79.9877 3.29465C79.5225 3.14382 79.0462 3.02946 78.5633 2.95262C77.6317 2.81857 76.682 2.99638 75.8617 3.45839C74.9854 3.96817 74.3299 4.78644 74.023 5.75375C73.5218 7.18328 73.2572 8.68515 73.2395 10.2001C73.2069 11.8115 73.6042 13.4024 74.3904 14.8086C74.6556 15.3287 75.091 15.7418 75.6238 15.979C76.665 16.4459 77.8226 16.5871 78.9453 16.3842C79.788 16.2679 80.5805 15.9147 81.2309 15.3656C81.8812 14.8164 82.3627 14.0938 82.6196 13.2816C82.9031 12.4836 83.0295 11.6364 82.9919 10.7902Z" fill="#A5A5A5"/>
<path fill-rule="evenodd" clip-rule="evenodd" d="M112.126 6.93872C112.712 6.2806 113.177 5.7408 113.659 5.21884C114.355 4.46832 115.046 3.71453 115.763 2.99318C116.237 2.55215 116.626 2.02807 116.911 1.44679C117.103 1.03082 117.43 0.69162 117.838 0.483528C118.246 0.275437 118.712 0.210486 119.161 0.299109C119.289 0.310225 119.414 0.347288 119.527 0.408088C119.64 0.468889 119.74 0.552161 119.821 0.652811C119.901 0.753461 119.96 0.869431 119.995 0.993651C120.029 1.11787 120.038 1.24775 120.02 1.37545C120.004 2.468 119.97 3.56055 119.949 4.65148C119.909 6.5675 119.871 8.48405 119.836 10.4011C119.795 12.8521 119.74 15.3047 119.734 17.7556C119.734 18.6974 119.455 19.1383 118.293 19.0735C117.957 19.063 117.635 18.9365 117.382 18.7155C117.129 18.4946 116.959 18.1926 116.903 17.861C116.849 17.446 116.84 17.0265 116.875 16.6096C116.914 15.8769 117.021 15.1507 117.037 14.4131C117.068 13.1666 117.037 11.9152 117.06 10.6686C117.086 9.15299 117.141 7.63895 117.181 6.12981C117.181 5.97581 117.181 5.82023 117.181 5.57546C117.085 5.64057 116.994 5.7132 116.909 5.79268C115.452 7.44933 114.01 9.11572 112.539 10.761C112.269 11.0544 112.117 11.4371 112.112 11.8357C112.061 12.8359 111.922 13.8312 111.874 14.8297C111.828 15.7407 111.848 16.6566 111.856 17.5692C111.908 17.9125 111.827 18.2629 111.628 18.5475C111.43 18.8322 111.129 19.0292 110.789 19.0978C110.446 19.2081 110.074 19.1806 109.751 19.0212C109.428 18.8618 109.18 18.5829 109.059 18.2435C108.972 18.0624 108.922 17.8656 108.913 17.6649C108.913 16.8625 108.939 16.0633 108.983 15.2625C109.022 14.5736 109.132 13.8895 109.145 13.2006C109.179 12.0432 109.157 10.881 109.177 9.72357C109.217 7.20454 109.268 4.68712 109.314 2.16809C109.314 1.98978 109.324 1.80987 109.34 1.63318C109.374 1.36776 109.475 1.11544 109.634 0.900353C109.793 0.685268 110.005 0.514609 110.248 0.404675C110.492 0.294741 110.759 0.24921 111.026 0.272445C111.292 0.29568 111.547 0.386918 111.768 0.5374C111.962 0.683521 112.098 0.893717 112.152 1.13068C112.225 1.43338 112.254 1.74518 112.238 2.05624C112.204 3.41464 112.15 4.77304 112.107 6.13144C112.121 6.35027 112.126 6.57075 112.126 6.93872Z" fill="#A5A5A5"/>
<path fill-rule="evenodd" clip-rule="evenodd" d="M90.4267 9.28583C90.4721 10.8242 90.4963 12.3657 90.574 13.8992C90.6061 14.4311 90.7057 14.9567 90.8703 15.4635C90.9415 15.7106 91.0751 15.9352 91.2582 16.1156C91.4414 16.296 91.6679 16.426 91.9159 16.4931C92.1638 16.5602 92.4249 16.5622 92.6739 16.4988C92.9228 16.4355 93.1512 16.3089 93.3371 16.1313C93.7242 15.791 94.0183 15.3575 94.1917 14.8718C94.3196 14.5476 94.4378 14.2023 94.5867 13.8798C94.7744 13.468 94.9282 13.374 95.3717 13.4242C95.7329 13.4172 96.0835 13.5468 96.3535 13.7871C96.6235 14.0275 96.7931 14.361 96.8285 14.721C96.8854 15.0506 96.8827 15.3877 96.8204 15.7163C96.6689 16.5568 96.2713 17.3332 95.6782 17.9468C95.0851 18.5604 94.3231 18.9836 93.4892 19.1625C92.7341 19.3637 91.9423 19.3843 91.1778 19.2225C90.575 19.1017 90.0089 18.841 89.5251 18.4612C89.0413 18.0814 88.6532 17.5932 88.3921 17.0358C87.9981 16.2819 87.7837 15.4469 87.7657 14.5962C87.7204 11.8405 87.6653 9.07021 87.6459 6.30642C87.6406 5.34821 87.687 4.39044 87.7851 3.43727C87.8382 2.78747 88.0694 2.16496 88.4533 1.63839C88.8371 1.11181 89.3587 0.701601 89.9606 0.453012C91.0278 -0.047613 92.2419 -0.136719 93.3707 0.2027C94.4995 0.542119 95.4637 1.28626 96.0791 2.29286C96.2539 2.60247 96.44 2.90722 96.6019 3.22332C96.8652 3.79427 96.9521 4.43104 96.8512 5.05179C96.8111 5.29095 96.698 5.51183 96.5274 5.684C96.3767 5.82258 96.1988 5.92815 96.005 5.99397C95.8112 6.05979 95.6059 6.0844 95.4021 6.06624C95.1983 6.04809 95.0004 5.98754 94.8213 5.8885C94.6422 5.78947 94.4856 5.65411 94.3617 5.49107C94.2393 5.30531 94.1383 5.10629 94.0606 4.89779C93.9603 4.64978 93.8842 4.39205 93.8065 4.13755C93.7648 3.8824 93.665 3.64028 93.5149 3.4299C93.3649 3.21952 93.1685 3.0465 92.941 2.92428C92.7135 2.80206 92.461 2.73388 92.203 2.72502C91.9449 2.71615 91.6883 2.76686 91.453 2.87318C91.2598 2.93017 91.0836 3.03393 90.9399 3.17528C90.7962 3.31664 90.6894 3.49123 90.6291 3.68368C90.5272 3.97795 90.4726 4.28651 90.4672 4.59791C90.4527 6.16055 90.4672 7.71996 90.4672 9.28098L90.4267 9.28583Z" fill="#A5A5A5"/>
<path fill-rule="evenodd" clip-rule="evenodd" d="M101.194 3.23628C100.952 3.23628 100.732 3.23628 100.514 3.23628L98.845 3.2622C98.4169 3.27465 98.0013 3.1167 97.6893 2.82292C97.5649 2.71273 97.4648 2.57761 97.3957 2.42632C97.3267 2.27504 97.29 2.11094 97.2882 1.9446C97.2863 1.77825 97.3194 1.61337 97.3851 1.46059C97.4509 1.30782 97.5478 1.17057 97.6699 1.05767C97.8703 0.848302 98.1119 0.682615 98.3792 0.571043C98.6466 0.459471 98.9342 0.404379 99.2238 0.40923C101.538 0.423819 103.851 0.417363 106.165 0.448162C106.562 0.454571 106.955 0.535393 107.323 0.686454C107.49 0.763432 107.64 0.872799 107.764 1.00825C107.889 1.1437 107.985 1.30252 108.047 1.47548C108.11 1.64845 108.137 1.83211 108.128 2.01583C108.12 2.19955 108.074 2.37969 107.995 2.54574C107.916 2.76842 107.769 2.9604 107.574 3.0943C107.38 3.2282 107.148 3.29718 106.912 3.29139C106.427 3.28166 105.941 3.27033 105.444 3.26546C105.002 3.26546 104.56 3.26546 104.072 3.26546C104.04 3.40619 104.02 3.5493 104.012 3.69337C104.042 5.87685 103.991 8.07006 104.138 10.2406C104.29 12.51 104.195 14.7794 104.25 17.0488C104.273 17.5183 104.166 17.9851 103.941 18.3974C103.818 18.65 103.623 18.8604 103.381 19.0021C103.139 19.1438 102.861 19.2104 102.581 19.1933C102.403 19.1996 102.225 19.1669 102.061 19.0974C101.897 19.028 101.749 18.9235 101.629 18.7913C101.51 18.659 101.42 18.5022 101.367 18.3318C101.314 18.1613 101.298 17.9812 101.322 17.8042C101.368 16.4928 101.449 15.1765 101.385 13.8684C101.223 10.6847 101.179 7.50109 101.194 4.31584C101.195 3.99326 101.194 3.6626 101.194 3.23628Z" fill="#A5A5A5"/>
<path fill-rule="evenodd" clip-rule="evenodd" d="M63.0081 3.12599C62.9887 3.39021 62.9628 3.58472 62.9612 3.77438C62.9525 8.29804 62.9472 12.8217 62.945 17.3454C62.9837 17.7927 62.8479 18.2377 62.5662 18.587C62.4386 18.7575 62.2701 18.893 62.0763 18.981C61.8825 19.069 61.6698 19.1066 61.4576 19.0905C61.2454 19.0743 61.0408 19.0049 60.8625 18.8886C60.6843 18.7722 60.5381 18.6128 60.4377 18.4249C60.119 17.9877 59.9669 17.4507 60.0088 16.9109C60.0492 16.1993 60.1399 15.4893 60.135 14.7793C60.135 13.5101 60.0508 12.2441 60.033 10.9748C60.0152 9.70558 60.0185 8.39097 60.033 7.09903C60.0541 5.31594 60.1091 3.53286 60.122 1.74977C60.1318 0.61507 60.1933 0.516195 61.328 0.367063C61.6364 0.325 61.9474 0.305479 62.2587 0.30869C63.9922 0.334626 65.7258 0.363811 67.4594 0.407578C68.2105 0.42703 68.3934 0.636148 68.395 1.38019C68.395 1.46934 68.395 1.55846 68.395 1.64761C68.3545 2.60076 67.9709 3.04006 67.0256 3.12273C66.4281 3.1627 65.8289 3.17084 65.2305 3.14706C64.5021 3.15193 63.777 3.1033 63.0081 3.12599Z" fill="#A5A5A5"/>
<path d="M3.71055 21.2861C2.54382 20.1425 1.61514 18.7785 0.978254 17.2731C0.341373 15.7676 0.00893689 14.1507 0.000177725 12.5158C-0.00858144 10.8808 0.306512 9.26039 0.927227 7.74822C1.54794 6.23604 2.46195 4.86216 3.61636 3.70607C4.77077 2.54998 6.14267 1.63465 7.65265 1.01303C9.16264 0.391417 10.7807 0.0758788 12.4133 0.0846506C14.0458 0.0934225 15.6605 0.426328 17.1637 1.06413C18.6669 1.70194 20.0289 2.63198 21.1709 3.80041L24.5458 7.17858L7.08543 24.6659L3.71055 21.2861Z" fill="#A5A5A5"/>
<path d="M45.2575 3.78753C43.0312 1.53682 40.0165 0.243912 36.8536 0.183378C33.6908 0.122843 30.6289 1.29944 28.3184 3.46331L27.9526 3.82483C27.8644 3.90759 27.7938 4.00722 27.7449 4.11783C27.696 4.22845 27.6698 4.3478 27.6678 4.46877C27.6659 4.58973 27.6882 4.70982 27.7335 4.82197C27.7788 4.93413 27.8461 5.03603 27.9315 5.12161L31.1542 8.54352C31.3237 8.71508 31.5524 8.81508 31.7933 8.82292C32.0342 8.83076 32.2689 8.74585 32.4492 8.58566L32.4654 8.56944L32.4912 8.54841L32.7923 8.25012L32.8231 8.21287L32.8457 8.19016C33.8623 7.22151 35.2169 6.68959 36.62 6.70817C38.023 6.72676 39.3632 7.29436 40.3538 8.28959C41.3444 9.28482 41.9069 10.6287 41.921 12.0338C41.935 13.439 41.3996 14.7939 40.4291 15.8088C39.9431 16.3101 39.3629 16.7102 38.7219 16.9861C38.0809 17.2619 37.3917 17.408 36.6941 17.416C35.9965 17.424 35.3041 17.2937 34.657 17.0326C34.0099 16.7715 33.4207 16.3848 32.9234 15.8947C32.891 15.8639 32.8603 15.8299 32.8312 15.7975L24.5113 7.12193L24.487 7.14459L7.08496 24.5914L24.4886 42.0203L45.2575 21.2229C46.4011 20.0788 47.3082 18.7202 47.9271 17.2248C48.5461 15.7294 48.8646 14.1264 48.8646 12.5077C48.8646 10.8889 48.5461 9.28597 47.9271 7.79055C47.3082 6.29513 46.4011 4.9365 45.2575 3.79238V3.78753Z" fill="#A5A5A5"/>
</svg>
