<svg width="106" height="35" viewBox="0 0 106 35" fill="none" xmlns="http://www.w3.org/2000/svg">
<g clip-path="url(#clip0_4915_5513)">
<mask id="mask0_4915_5513" style="mask-type:luminance" maskUnits="userSpaceOnUse" x="0" y="0" width="106" height="35">
<path d="M105.479 0H0V35H105.479V0Z" fill="white"/>
</mask>
<g mask="url(#mask0_4915_5513)">
<path d="M49.2828 10.4712C47.654 10.4712 46.351 10.7969 45.1643 11.4485C44.3266 12.0302 43.6286 12.7981 43.1166 13.8219V10.6806H38.4629V34.0656V34.182H43.233V20.6396C43.233 18.8014 43.7682 17.382 44.7454 16.4047C45.7228 15.4274 47.0258 14.8922 48.6547 14.8922H50.7025V10.4712H49.2828Z" fill="#A5A5A5"/>
<path d="M74.4126 16.9631C73.9706 15.6601 73.226 14.4734 72.2489 13.3798C71.3878 12.2861 70.2011 11.5415 68.782 10.89C67.3623 10.3548 65.7571 10.0291 64.0119 10.0291C61.8476 10.0291 59.8934 10.5642 58.1712 11.6578C56.4495 12.7515 55.0298 14.1476 54.0527 15.9858C53.0756 17.8241 52.54 19.895 52.54 22.2684C52.54 24.6418 53.0756 26.7127 54.0527 28.5509C55.0298 30.3891 56.426 31.9016 58.2877 32.9952C60.0094 34.0889 62.0807 34.624 64.4539 34.624C66.9902 34.624 69.9916 33.5071 72.1324 31.4828C73.0865 30.5986 73.8546 29.6445 74.2966 28.5509L70.2941 26.5964C69.6426 27.69 68.875 28.4346 67.9209 29.0861C66.9437 29.7376 65.7571 30.0634 64.3374 30.0634C62.9183 30.0634 61.7316 29.7376 60.661 29.0861C59.5674 28.3182 58.7063 27.4573 58.1712 26.2706C57.7991 25.4562 57.5896 24.572 57.5196 23.5714H74.9482C75.0642 23.2457 75.1572 21.6168 75.1572 21.2911C75.1572 19.7786 74.9482 18.3825 74.4126 16.9631ZM60.5445 15.0085C61.5221 14.357 62.7087 14.0313 64.0119 14.0313C65.3146 14.0313 66.3852 14.357 67.3623 15.0085C68.3399 15.6601 69.0845 16.521 69.5265 17.6147C69.8291 18.2429 69.9916 18.941 70.0151 19.6623H57.5896C57.7061 18.9875 57.8922 18.3825 58.1247 17.8241C58.7063 16.6373 59.5674 15.6601 60.5445 15.0085Z" fill="#A5A5A5"/>
<path d="M80.3467 34.0892V10.6809H85.2098V34.0659H80.3467V34.0892Z" fill="#A5A5A5"/>
<path d="M102.335 34.2977C99.8455 34.2977 98.0073 33.6462 96.5881 32.2501C95.1684 30.8306 94.5404 28.8994 94.5404 26.4096V15.008H90.4219V10.5869H91.0734C92.1671 10.5869 93.0277 10.2611 93.6793 9.60961C94.3309 8.95808 94.5404 8.09713 94.5404 7.0035V5.16528H99.4035V10.5869H104.709V15.0312H99.4035V26.1769C99.4035 26.9448 99.52 27.6894 99.8455 28.2246C100.055 28.7597 100.497 29.2018 101.149 29.5276C101.684 29.8534 102.452 29.9697 103.429 29.9697C103.638 29.9697 103.964 29.9697 104.197 29.9697C104.43 29.9697 104.732 29.8534 105.058 29.8534V34.0883C104.616 34.2046 104.197 34.2046 103.754 34.2977C103.08 34.2977 102.661 34.2977 102.335 34.2977Z" fill="#A5A5A5"/>
<path d="M0.325195 34.0892V10.6809H5.18837V34.0659H0.325195V34.0892Z" fill="#5F5F5F"/>
<path d="M31.9711 14.264C31.2032 12.9609 30.1329 11.8905 28.8298 11.1227C27.5268 10.3548 26.0143 10.0291 24.2924 10.0291C22.5706 10.0291 21.1279 10.4712 19.8481 11.239C18.8941 11.7975 18.1262 12.5188 17.5678 13.4496V10.6806H12.9141V33.9725H17.7772V20.1044C17.7772 18.9177 17.9866 17.9404 18.4287 17.0794C18.8708 16.2185 19.5224 15.567 20.2669 15.1249C21.0348 14.6828 21.9888 14.4734 22.9661 14.4734C23.9434 14.4734 24.9207 14.5897 25.6653 15.1249C26.4332 15.6601 27.0847 16.2185 27.5035 17.0794C27.9456 17.9404 28.155 18.9177 28.155 20.1044V33.9725H33.0415V18.8013C33.0415 17.0794 32.7157 15.567 31.9711 14.264Z" fill="#5F5F5F"/>
<path d="M16.1937 0H10.5859L12.1217 1.53573L16.1937 5.60777L17.7294 7.1435V1.53573C17.7527 0.698058 17.0547 0 16.1937 0Z" fill="#5F5F5F"/>
<path d="M1.53573 0H7.1435L5.60777 1.53573L1.53573 5.60777L0 7.16675V1.53573C0 0.698058 0.698058 0 1.53573 0Z" fill="#5F5F5F"/>
</g>
</g>
<defs>
<clipPath id="clip0_4915_5513">
<rect width="105.479" height="35" fill="white"/>
</clipPath>
</defs>
</svg>
