<svg width="134" height="27" viewBox="0 0 134 27" fill="none" xmlns="http://www.w3.org/2000/svg">
<path fill-rule="evenodd" clip-rule="evenodd" d="M2.42657 0.83111L0 1.64798V13.3663V25.0845L2.519 25.9223C3.90455 26.3833 5.06794 26.7603 5.10431 26.7603C5.14078 26.7603 5.17063 26.3725 5.17063 25.8985V25.0367L7.18898 25.0159L9.20734 24.9951L7.23507 24.9688L5.2627 24.9425L5.23939 13.3807L5.21598 1.81879L5.35205 1.78169L5.48812 1.74459L5.32937 1.73406L5.17063 1.72354V0.861771V0L5.01188 0.00716652C4.92452 0.0110672 3.76122 0.381901 2.42657 0.83111ZM81.3693 1.18344C77.8476 1.6204 75.2615 3.43484 74.3275 6.12402L74.0758 6.84881L74.0714 8.11879C74.0685 8.94001 74.1116 9.54906 74.1934 9.84233C74.5209 11.0174 75.4893 12.3349 76.5587 13.0603C77.777 13.8867 79.0787 14.3651 82.5032 15.245C85.5589 16.0301 86.4598 16.3733 87.1847 17.0283C87.3861 17.2103 87.6374 17.5252 87.7431 17.7282L87.9353 18.0972L87.9282 18.7322C87.9197 19.4975 87.7511 19.925 87.2667 20.4094C86.5231 21.1529 85.5186 21.4934 83.8606 21.5637L82.678 21.6139L81.9102 21.4614C80.5636 21.1939 79.507 20.5831 78.9233 19.7346C78.6285 19.3063 78.3098 18.391 78.2345 17.757L78.1832 17.3261H75.6812H73.1791L73.2415 18.0741C73.5367 21.6132 75.6073 24.0012 79.3116 25.0747C81.4702 25.7002 84.4687 25.752 86.7667 25.2033C90.2951 24.3609 92.4087 22.2626 92.9009 19.1136C93.0106 18.4116 92.9576 17.1455 92.7891 16.44C92.4836 15.1613 91.3861 13.7057 90.0662 12.8282C89.0943 12.1821 88.1355 11.8425 85.0769 11.0611C80.6805 9.93794 79.6782 9.54942 79.2411 8.79914L79.0562 8.48164V7.75594V7.03024L79.3113 6.59609C79.6357 6.04419 80.2544 5.587 81.0065 5.34316L81.5961 5.15203L82.73 5.15856C83.9604 5.16555 84.6379 5.2959 85.4245 5.67689C86.3087 6.10524 86.9603 7.06788 87.1233 8.18682L87.1861 8.61771H89.6886H92.1911L92.1358 7.86933C92.0625 6.87603 91.8748 6.18452 91.4403 5.3067C90.403 3.21087 88.2675 1.81888 85.3153 1.31425C84.2925 1.13935 82.2658 1.07222 81.3693 1.18344ZM9.31321 1.69333C9.27991 1.72654 9.2527 6.99241 9.2527 13.3953V25.0367H11.7496H14.2464L14.2215 17.2354C14.2078 12.9447 14.217 9.43603 14.2419 9.43839C14.2668 9.44075 14.9988 10.594 15.8685 12.001C17.589 14.7848 22.3088 22.3766 23.3383 24.0162L23.9791 25.0367H26.5946H29.2102L29.1872 13.3575L29.1641 1.67819L26.7381 1.65406L24.312 1.62984L24.2889 9.48955L24.2657 17.3493L20.8248 11.8269C18.9324 8.78961 16.7281 5.25336 15.9263 3.96868L14.4688 1.63283H11.9212C10.52 1.63283 9.34641 1.66004 9.31321 1.69333ZM31.1145 1.76418C31.1145 1.83639 31.4033 2.78552 31.7563 3.87325C32.5786 6.40759 34.1864 11.3664 35.5077 15.4438C36.0776 17.2025 37.0076 20.0702 37.5743 21.8164L38.6047 24.9914H41.5448H44.4848L48.3612 13.3348L52.2376 1.67819L49.5996 1.65415C48.1488 1.6409 46.9454 1.64635 46.9254 1.66639C46.9055 1.68635 45.7239 5.33019 44.2997 9.76387C42.8756 14.1975 41.6762 17.8863 41.6345 17.9611L41.5586 18.0972L41.5112 17.9611C41.485 17.8863 40.9347 16.1514 40.2881 14.1058C39.1957 10.6498 38.0363 6.99305 36.8742 3.33859C36.6093 2.50558 36.366 1.78105 36.3334 1.72844C36.2943 1.66503 35.4046 1.63283 33.6944 1.63283H31.1145V1.76418ZM54.1258 1.69288C54.0922 1.72635 54.0648 6.99241 54.0648 13.3953V25.0367H63H71.9352V22.9056V20.7745L65.608 20.7512L59.2808 20.7279V17.8704V15.013L64.9276 14.9896L70.5745 14.9662V12.9712V10.9762H64.905H59.2354V8.48164V5.98704H65.4509H71.6663L71.642 3.83261L71.6177 1.67819L62.9022 1.65505C58.1087 1.64235 54.1592 1.65932 54.1258 1.69288ZM93.9784 3.80994V5.98704H97.4708H100.963V15.5119V25.0367H103.548H106.133L106.156 15.5346L106.179 6.0324L109.694 6.00863L113.21 5.98495V3.80885V1.63283H103.594H93.9784V3.80994ZM119.48 1.79348C119.432 1.88184 117.794 6.17817 115.839 11.341C113.884 16.5037 111.921 21.681 111.477 22.8458C111.033 24.0108 110.67 24.9808 110.67 25.0017C110.67 25.0225 111.838 25.0286 113.266 25.0154L115.862 24.9914L116.108 24.311C116.244 23.9368 116.652 22.7837 117.016 21.7484L117.677 19.8661H122.057H126.438L126.889 21.2041C127.137 21.9401 127.533 23.1034 127.769 23.7894L128.198 25.0367H130.873H133.549L133.509 24.9233C133.487 24.861 131.517 19.5951 129.13 13.2214L124.791 1.63283H122.178H119.566L119.48 1.79348ZM6.41793 1.79112C6.87938 1.80763 7.63457 1.80763 8.09611 1.79112C8.55766 1.7747 8.18002 1.76119 7.25702 1.76119C6.33402 1.76119 5.95638 1.7747 6.41793 1.79112ZM8.81347 2.17711C8.81347 2.30184 8.83406 2.35291 8.85919 2.2905C8.88441 2.22818 8.88441 2.12613 8.85919 2.06371C8.83406 2.0014 8.81347 2.05238 8.81347 2.17711ZM120.571 11.6793C119.758 13.9619 119.086 15.8702 119.077 15.9201C119.057 16.0281 124.913 16.0965 125.005 15.9894C125.038 15.9513 124.849 15.3078 124.586 14.5594C124.323 13.811 123.67 11.9231 123.136 10.3639C122.601 8.80485 122.138 7.52916 122.106 7.52916C122.074 7.52916 121.383 9.39666 120.571 11.6793Z" fill="#A5A5A5"/>
</svg>
