<svg width="36" height="42" viewBox="0 0 36 42" fill="none" xmlns="http://www.w3.org/2000/svg">
<g clip-path="url(#clip0_4917_5790)">
<path d="M8.74653 0.350586L7.01458 1.45007L5.28259 0.350586H0.0859375V31.837L3.55059 33.8306V3.80619H5.28259V34.8294L8.74653 36.8229V3.80619H10.4792V37.8218L13.9432 39.8153V0.350586H8.74653Z" fill="#A5A5A5"/>
<path d="M15.6755 0.34981H15.6748V40.8133L17.4075 41.8122L19.1395 40.8133V3.80472H20.8715V39.8179L24.3361 37.821L24.3368 0.349121H15.6755V0.34981Z" fill="#A5A5A5"/>
<path d="M34.7291 0.3505H34.7263V0.349121L26.0678 0.3505V0.352568H26.0664V10.3637L29.5304 8.37012V3.8061H31.2624V9.06085L26.0678 12.0525V16.043L31.2624 13.052V29.8344L29.5338 30.8291L29.5304 30.8326V15.8135L26.0664 17.8112V36.8173L34.7263 31.8245V12.4434L33.6876 10.6498L34.7263 8.85612L34.7291 0.3505Z" fill="#A5A5A5"/>
<path d="M26.0664 39.8053V39.3924C26.1334 39.3924 26.2005 39.3806 26.2634 39.3531C26.3228 39.3255 26.3774 39.2903 26.4251 39.2469C26.4721 39.2035 26.5122 39.1566 26.5399 39.1015C26.5675 39.0505 26.5792 38.9953 26.5792 38.9402H27.1515V41.6947H26.5399V39.8059H26.0664V39.8053Z" fill="#A5A5A5"/>
<path d="M29.6846 40.0878C29.6646 40.1622 29.6411 40.2291 29.6176 40.2884C29.5899 40.3552 29.5547 40.418 29.5187 40.4731L28.6507 41.6932H27.9602L28.5913 40.8274C28.4219 40.8274 28.2678 40.7999 28.1337 40.7489C27.9955 40.6978 27.8773 40.6227 27.7785 40.5324C27.6797 40.4421 27.6009 40.3394 27.5497 40.2215C27.4944 40.1036 27.4668 39.9775 27.4668 39.8438C27.4668 39.7018 27.4944 39.568 27.5497 39.4426C27.6009 39.3206 27.6797 39.2103 27.7785 39.1158C27.8773 39.0255 27.9955 38.9504 28.1337 38.8994C28.2719 38.8484 28.4219 38.8208 28.5913 38.8208C28.7606 38.8208 28.9147 38.8484 29.0529 38.8994C29.1912 38.9504 29.3094 39.0255 29.4082 39.1158C29.507 39.2103 29.5817 39.3206 29.6369 39.4426C29.6881 39.5687 29.7158 39.7025 29.7158 39.8438C29.7164 39.9306 29.704 40.0133 29.6846 40.0878ZM29.0495 39.6632C29.0218 39.6039 28.9866 39.5529 28.943 39.5094C28.8995 39.466 28.8442 39.435 28.7855 39.4074C28.726 39.384 28.659 39.3723 28.5919 39.3723C28.5249 39.3723 28.4579 39.384 28.3984 39.4074C28.339 39.435 28.2844 39.4667 28.2408 39.5094C28.1973 39.5529 28.1621 39.6039 28.1379 39.6632C28.1102 39.7225 28.0985 39.781 28.0985 39.8445C28.0985 39.9113 28.1102 39.974 28.1379 40.0333C28.1614 40.0926 28.1973 40.1395 28.2408 40.1829C28.2844 40.2263 28.3397 40.2574 28.3984 40.2815C28.4579 40.3049 28.5207 40.3166 28.5919 40.3166C28.6631 40.3166 28.7302 40.3049 28.7896 40.2815C28.8491 40.2581 28.9002 40.2263 28.943 40.1829C28.9866 40.1395 29.0218 40.0926 29.0495 40.0333C29.073 39.974 29.0848 39.9113 29.0848 39.8445C29.0848 39.781 29.073 39.7218 29.0495 39.6632Z" fill="#A5A5A5"/>
<path d="M31.4205 39.597C31.4005 39.5535 31.3687 39.5184 31.3334 39.4826C31.294 39.4474 31.2464 39.4198 31.1952 39.3998C31.1399 39.3798 31.0812 39.3723 31.0176 39.3723C30.8676 39.3723 30.7529 39.4074 30.6699 39.4784C30.587 39.5529 30.5241 39.648 30.4847 39.7659L29.873 39.7066C29.8966 39.5921 29.9401 39.4826 30.0071 39.3757C30.0742 39.2695 30.1571 39.1751 30.2559 39.0924C30.3548 39.0097 30.4654 38.947 30.5953 38.8959C30.7252 38.8449 30.8635 38.8208 31.0176 38.8208C31.1717 38.8208 31.3092 38.8442 31.4399 38.8959C31.5664 38.947 31.6769 39.0138 31.7716 39.0965C31.8628 39.1792 31.9375 39.2778 31.9886 39.384C32.0398 39.4943 32.0633 39.608 32.0633 39.7266C32.0633 39.8837 32.028 40.0175 31.9527 40.1243C31.878 40.2305 31.7868 40.3249 31.6728 40.4C31.558 40.4745 31.4357 40.542 31.3058 40.5965C31.1717 40.6517 31.0452 40.7068 30.9312 40.7578C30.813 40.8088 30.7107 40.8681 30.6312 40.9267C30.5483 40.986 30.4972 41.0604 30.4854 41.1431H32.0557V41.6939H29.8737V41.2217C29.8737 41.0645 29.9131 40.9308 29.9919 40.8164C30.0673 40.7061 30.1654 40.6082 30.2843 40.5255C30.399 40.4428 30.5248 40.3718 30.663 40.309C30.8013 40.2498 30.927 40.1912 31.0459 40.1319C31.1606 40.0726 31.2588 40.014 31.3376 39.9506C31.4122 39.8879 31.4516 39.8127 31.4516 39.7266C31.4523 39.6831 31.4405 39.6397 31.4205 39.597Z" fill="#A5A5A5"/>
<path d="M33.0041 41.7374C32.8583 41.6822 32.736 41.6153 32.6371 41.5326C32.5383 41.4499 32.4595 41.3513 32.4042 41.2451C32.349 41.139 32.3213 41.0328 32.3213 40.9267C32.3213 40.7888 32.349 40.6751 32.4042 40.5841C32.4554 40.4972 32.5189 40.4269 32.586 40.3759C32.6648 40.3166 32.756 40.2698 32.8542 40.2381V40.1988C32.7754 40.167 32.7042 40.1243 32.6448 40.0726C32.5936 40.0292 32.5459 39.9665 32.503 39.8913C32.4595 39.8169 32.4402 39.7224 32.4402 39.608C32.4402 39.5094 32.4637 39.415 32.5114 39.3206C32.559 39.2261 32.6302 39.1393 32.7208 39.0648C32.8113 38.9904 32.9177 38.9311 33.0484 38.8877C33.1783 38.8442 33.3248 38.8208 33.4865 38.8208C33.6483 38.8208 33.7941 38.8442 33.9247 38.8877C34.0546 38.9311 34.1653 38.9904 34.2565 39.0648C34.347 39.1399 34.4141 39.2261 34.4617 39.3206C34.5087 39.415 34.5322 39.5094 34.5322 39.608C34.5322 39.7224 34.5129 39.8169 34.4693 39.8913C34.4258 39.9665 34.3746 40.0292 34.3235 40.0726C34.2641 40.1236 34.1936 40.167 34.1183 40.1988V40.2381C34.2171 40.2698 34.3035 40.3166 34.383 40.3759C34.45 40.4269 34.5129 40.4979 34.5682 40.5841C34.6235 40.6744 34.6511 40.7888 34.6511 40.9267C34.6511 41.0328 34.6235 41.139 34.5682 41.2451C34.5129 41.3513 34.4341 41.4499 34.3353 41.5326C34.2364 41.6153 34.1141 41.6822 33.9683 41.7374C33.8224 41.7883 33.6642 41.8118 33.4873 41.8118C33.3103 41.8118 33.1458 41.7883 33.0041 41.7374ZM33.7098 41.2259C33.7768 41.2059 33.8321 41.1748 33.8798 41.139C33.9233 41.1039 33.9586 41.0638 33.9821 41.0211C34.0056 40.9777 34.018 40.9308 34.018 40.8874C34.018 40.844 34.0063 40.7971 33.9821 40.7537C33.9586 40.7103 33.9227 40.6668 33.8798 40.6317C33.8321 40.5965 33.7768 40.5689 33.7098 40.5448C33.6428 40.5248 33.5681 40.5131 33.4852 40.5131C33.4022 40.5131 33.3269 40.5248 33.2606 40.5448C33.1935 40.5683 33.1382 40.5958 33.0947 40.6317C33.0477 40.6668 33.0118 40.7103 32.9882 40.7537C32.9648 40.7971 32.9523 40.844 32.9523 40.8874C32.9523 40.9308 32.964 40.9777 32.9882 41.0211C33.0118 41.0646 33.0477 41.1039 33.0947 41.139C33.1382 41.1742 33.1935 41.2059 33.2606 41.2259C33.3276 41.2493 33.4022 41.261 33.4852 41.261C33.5681 41.261 33.6434 41.2493 33.7098 41.2259ZM33.7893 39.9037C33.8639 39.8369 33.8998 39.7659 33.8998 39.6873C33.8998 39.6087 33.8646 39.5377 33.7893 39.4708C33.7139 39.404 33.6158 39.3723 33.4852 39.3723C33.3552 39.3723 33.2564 39.404 33.181 39.4708C33.1064 39.5377 33.0705 39.6087 33.0705 39.6873C33.0705 39.7659 33.1057 39.8369 33.181 39.9037C33.2564 39.9706 33.3545 40.0023 33.4852 40.0023C33.6151 40.0023 33.7139 39.9706 33.7893 39.9037Z" fill="#A5A5A5"/>
</g>
<defs>
<clipPath id="clip0_4917_5790">
<rect width="35.1273" height="41.9814" fill="white"/>
</clipPath>
</defs>
</svg>
