<svg width="200" height="35" viewBox="0 0 200 35" fill="none" xmlns="http://www.w3.org/2000/svg">
<mask id="mask0_4915_5542" style="mask-type:luminance" maskUnits="userSpaceOnUse" x="0" y="0" width="200" height="35">
<path d="M199.437 0H0V35H199.437V0Z" fill="white"/>
</mask>
<g mask="url(#mask0_4915_5542)">
<path d="M110.516 31.3289H96.9443V34.9999H110.516V31.3289Z" fill="#A5A5A5"/>
<path d="M158.155 5.87595C159.852 5.87595 161.228 4.56049 161.228 2.93785C161.228 1.31521 159.852 -0.000244141 158.155 -0.000244141C156.458 -0.000244141 155.082 1.31521 155.082 2.93785C155.082 4.56049 156.458 5.87595 158.155 5.87595Z" fill="#A5A5A5"/>
<path d="M176.472 9.19344C172.447 9.19344 170.467 11.5208 169.811 12.4916L167.085 10.0292H166.275V31.1617H170.93V18.5478C170.936 15.9826 172.145 13.3338 175.758 13.3338C179.371 13.3338 180.567 15.9826 180.567 18.5478L180.58 31.1681H185.241V17.7634C185.235 13.2695 182.457 9.18701 176.466 9.18701L176.472 9.19344Z" fill="#A5A5A5"/>
<path d="M19.8852 9.19344C16.7671 9.19344 15.1855 10.8136 14.4719 11.9194C13.4818 10.3571 11.746 9.19344 9.05217 9.19344C5.52902 9.19344 3.8896 11.1672 3.25955 12.2408L0.810066 10.0292H0V31.1617H4.65467V17.5834C4.66109 15.0182 5.48402 13.3338 7.88207 13.3338C10.2801 13.3338 11.0773 15.0182 11.0773 17.5834V31.1617H15.7063V17.5834C15.7063 15.0182 16.5163 13.3338 18.9208 13.3338C21.3253 13.3338 22.1161 15.0182 22.1161 17.5834V31.1617H26.745V16.7733C26.745 12.2794 24.5399 9.18701 19.8916 9.18701L19.8852 9.19344Z" fill="#A5A5A5"/>
<path d="M71.6847 12.4401C71.0546 11.5401 68.9716 9.18701 64.4455 9.18701C57.7207 9.18701 54.1396 14.2917 54.1396 20.5922C54.1396 26.8927 57.5021 31.9974 64.2269 31.9974C68.8108 31.9974 70.8553 29.5351 71.4854 28.5643L74.3592 31.1617H75.1692V10.0292H74.3592L71.6847 12.4401ZM64.8441 27.8635C60.9223 27.8635 59.0322 24.6104 59.0322 20.5987C59.0322 16.5869 60.9223 13.3338 64.8441 13.3338C68.7658 13.3338 70.656 16.5869 70.656 20.5987C70.656 24.6104 68.7658 27.8635 64.8441 27.8635Z" fill="#A5A5A5"/>
<path d="M192.757 -0.000244141C188.372 -0.000244141 186.077 2.96357 186.077 6.62172C186.077 10.2799 188.379 13.2437 192.757 13.2437C197.135 13.2437 199.437 10.2799 199.437 6.62172C199.437 2.96357 197.135 -0.000244141 192.757 -0.000244141ZM192.757 11.6428C189.459 11.6428 187.729 9.39267 187.729 6.6153C187.729 3.83793 189.459 1.58774 192.757 1.58774C196.055 1.58774 197.785 3.83793 197.785 6.6153C197.785 9.39267 196.055 11.6428 192.757 11.6428Z" fill="#A5A5A5"/>
<path d="M189.922 6.62153C189.922 8.29952 191.15 9.66249 192.976 9.66249C193.831 9.66249 194.48 9.30246 195.2 8.87814V7.59875H194.827C194.036 8.02307 193.548 8.15165 193.233 8.15165C192.127 8.15165 191.542 7.46374 191.542 6.62153C191.542 5.77932 192.127 5.0914 193.233 5.0914C193.548 5.0914 194.036 5.21999 194.827 5.64431H195.2V4.36492C194.48 3.9406 193.831 3.58057 192.976 3.58057C191.15 3.58057 189.922 4.94353 189.922 6.62153Z" fill="#A5A5A5"/>
<path d="M160.65 10.0293H155.828V31.1617H160.65V10.0293Z" fill="#A5A5A5"/>
<path d="M89.8983 27.735C87.6031 27.735 86.2594 26.5456 86.2594 24.3726V13.9703H94.508V10.0293H86.2594V5.6189H85.9123L77.3809 13.321V13.9639H81.4312V24.9383C81.4312 29.5673 85.0893 31.9975 89.3068 31.9975C91.2613 31.9975 93.4022 31.2838 95.1316 30.1395V25.8448H94.688C92.9328 27.0214 91.3513 27.7286 89.8983 27.7286V27.735Z" fill="#A5A5A5"/>
<path d="M41.2558 9.19336C34.1709 9.19336 30.3135 14.0023 30.3135 20.5986C30.3135 27.1948 34.7624 32.0038 41.9373 32.0038C43.911 32.0038 46.2641 31.4316 49.0157 30.3901V26.3269H48.4821C46.0198 27.2334 43.9239 27.7606 41.9501 27.7606C38.4977 27.7606 35.5403 25.9862 35.0903 22.373H51.2723C51.3366 21.7687 51.3752 21.1772 51.3752 20.5986C51.3752 14.2016 48.0964 9.19336 41.2558 9.19336ZM35.1739 18.3613C35.6561 15.3782 37.5269 12.9994 40.9151 12.9994C44.3032 12.9994 46.4184 15.481 46.4184 18.3613H35.1739Z" fill="#A5A5A5"/>
<path d="M141.028 9.19336C133.892 9.19336 130.317 14.2981 130.317 20.5986C130.317 26.8991 133.892 32.0038 141.028 32.0038C148.165 32.0038 151.739 26.8991 151.739 20.5986C151.739 14.2981 148.165 9.19336 141.028 9.19336ZM141.028 27.8635C137.107 27.8635 135.049 24.6103 135.049 20.5986C135.049 16.5868 137.107 13.3337 141.028 13.3337C144.95 13.3337 147.007 16.5868 147.007 20.5986C147.007 24.6103 144.95 27.8635 141.028 27.8635Z" fill="#A5A5A5"/>
<path d="M110.297 20.5985C110.297 26.899 113.659 32.0037 121.419 32.0037C123.432 32.0037 125.11 31.5151 127.938 30.3772V26.1211H127.385C123.914 27.5934 123.033 27.8569 121.561 27.8569C117.285 27.8569 115.157 24.6038 115.157 20.5921C115.157 16.5803 117.285 13.3272 121.561 13.3272C123.033 13.3272 123.914 13.5908 127.385 15.063H127.938V10.807C125.11 9.66903 123.432 9.18042 121.419 9.18042C113.659 9.18042 110.297 14.2851 110.297 20.5856V20.5985Z" fill="#A5A5A5"/>
</g>
</svg>
