<svg width="102" height="42" viewBox="0 0 102 42" fill="none" xmlns="http://www.w3.org/2000/svg">
<path d="M76.895 14.1122C76.7821 15.5856 76.5564 17.059 76.2179 18.5324C75.2588 18.589 74.2996 18.3057 73.679 17.4557C73.3405 16.9456 73.1148 16.4356 73.0019 15.8689C73.4533 14.6222 73.9611 13.3755 74.8638 12.3554C75.1459 12.0154 75.428 11.732 75.8794 11.732C76.2743 11.6754 76.5564 11.8454 76.7257 12.2421C76.9514 12.8088 76.9514 13.4321 76.895 14.1122ZM75.2023 21.7059C74.8638 22.5559 74.4689 23.3493 73.9611 24.086C73.7354 24.4827 73.284 24.8227 72.8891 25.0494C72.212 25.3894 71.4786 25.0494 71.14 24.3127C70.6887 23.4059 70.6323 22.4426 70.7451 21.4225C70.8015 20.5158 70.9708 19.6091 71.0272 18.7024C71.0836 18.7024 71.0836 18.7024 71.14 18.7591C72.0992 20.2891 73.6226 21.1958 75.3152 21.3658C75.2588 21.4792 75.2588 21.5925 75.2023 21.7059ZM55.7935 16.4356C55.85 16.4356 55.9064 16.4923 56.0192 16.5489C55.9064 17.0023 55.85 17.4557 55.6807 17.8523C55.0037 20.0625 54.2138 22.1592 53.0289 24.1426C52.8032 24.5393 52.4647 24.936 52.1262 25.2194C51.6748 25.6161 51.2799 25.5027 51.2234 24.8794C51.167 24.1993 51.1106 23.5193 51.167 22.8959C51.4491 20.2325 52.0133 17.6823 52.9725 15.1889C53.311 14.2255 53.7624 13.3188 54.383 12.5254C54.6651 12.1854 55.0037 11.8454 55.455 11.732C55.7935 11.6187 56.0192 11.732 56.0756 12.1287C56.0756 12.6388 56.0757 13.2054 55.9628 13.7155C55.85 14.3388 55.5679 14.9055 55.3986 15.4722C55.2293 15.9822 55.2858 16.2656 55.7935 16.4356ZM37.5696 17.229C38.021 15.3589 38.698 13.5455 39.4879 11.7887C39.6007 11.562 39.8264 11.2787 39.9393 11.3354C40.5035 11.4487 40.447 12.4121 40.447 12.6954C40.2778 14.3388 39.9957 15.5289 39.4879 16.889C39.3186 17.2856 39.0365 17.6823 38.7544 18.0224C38.5287 18.3057 38.2466 18.3057 37.9645 18.1924C37.626 17.9657 37.5132 17.569 37.5696 17.229ZM100.535 11.392C100.93 11.222 101.043 10.9953 100.987 10.542C100.817 9.52193 100.253 8.89857 99.2941 8.61522C97.9964 8.21854 96.6987 8.50188 95.5139 9.06858C93.8777 9.86195 92.5236 10.9953 91.1695 12.1854C90.4924 12.8088 89.8154 13.4321 89.0819 14.1122C89.3076 12.9788 89.5897 11.9587 89.8154 10.9387C90.4924 8.04853 91.1695 5.21505 91.8465 2.32491C92.0158 1.58821 91.9594 1.4182 91.2823 1.19152C90.0975 0.851507 88.9126 0.51149 87.7278 0.228143C87.4457 0.171473 87.0507 0.114804 86.7686 0.228143C86.2609 0.341482 86.148 0.794837 86.0352 1.24819C85.6966 2.66493 85.3581 4.025 85.076 5.44173C84.5118 8.38854 83.9476 11.392 83.3834 14.3388C83.0449 14.7922 82.6499 15.1889 82.1985 15.5856C82.1985 14.6789 82.1421 13.8288 81.9729 12.9221C81.6343 11.222 80.7316 9.97529 79.2082 9.23858C78.3619 8.8419 77.4028 8.67189 76.4436 8.61522C75.5973 8.55855 74.8074 8.50188 74.0175 8.89857C73.7354 9.01191 73.6226 9.01191 73.3969 8.78523C72.8891 8.2752 72.2685 7.93519 71.535 8.33187C70.8579 8.72856 70.1809 9.12525 69.6167 9.63527C67.8676 11.222 66.7956 13.2054 65.9493 15.4156C65.3287 17.059 64.9337 18.7591 64.9902 20.5158C64.9902 21.0258 64.9902 21.5359 64.8209 21.9892C64.5388 22.9526 64.2003 23.8593 63.4668 24.5393C63.1283 24.8227 62.7897 24.936 62.3948 24.766C62.0563 24.6527 61.887 24.3127 61.887 23.916C61.887 23.1226 61.8306 22.2726 61.9999 21.4792C62.4512 18.8157 62.9026 16.1523 63.4104 13.4888C64.0874 9.86195 64.7645 6.29177 65.4979 2.66493C65.6672 1.87156 65.4979 1.47487 64.7645 1.02151C64.5952 0.908176 64.4259 0.851507 64.2567 0.738168C63.1847 0.284812 62.0563 0.0581343 60.8714 0.00146484C60.5329 0.00146484 60.1944 0.114804 60.0251 0.51149C59.7994 0.964846 59.5737 1.47487 59.4609 1.9849C59.1224 3.85499 58.8403 5.66841 58.5018 7.5385C58.3889 8.33187 58.2196 9.18192 58.0504 9.97529C57.994 9.97529 57.994 9.97529 57.9375 9.97529C57.8811 9.91862 57.8247 9.91862 57.7683 9.86195C56.2449 8.61522 54.5523 8.21854 52.634 8.61522C51.0542 8.95524 49.8694 9.91862 48.8538 11.1653C47.3304 13.0921 46.4841 15.4156 45.9763 17.8523C45.807 18.7024 45.6942 19.5524 45.5814 20.3458C45.0736 20.4025 44.6222 20.4591 44.1708 20.5158C43.9451 20.5725 43.8323 20.6858 43.7759 20.9692C43.2681 23.0093 42.3089 24.7093 40.5599 25.8994C39.7136 26.4661 38.8108 26.6928 37.7953 26.5794C36.8361 26.4661 36.1591 25.6161 36.1591 24.4827C36.1591 23.5193 36.2719 22.4992 36.3847 21.5359C36.4412 20.9125 36.6668 20.3458 36.8925 19.6658C37.0054 19.8358 37.0618 19.8924 37.1182 20.0058C38.0209 21.2525 39.9957 21.9325 41.4626 20.9125C42.1961 20.4025 42.8167 19.7791 43.2681 18.9857C44.3965 17.229 44.8479 15.3022 44.8479 13.2054C44.8479 12.4121 44.735 11.6754 44.3965 10.9953C43.6066 9.35192 42.3089 8.44521 40.6727 7.93519C38.9801 7.42516 37.1182 7.48183 35.7077 8.55855C34.6357 9.40859 33.7894 10.372 33.1687 11.562C31.194 15.2455 30.3477 18.7024 30.6862 22.8959C30.6298 23.9726 29.9528 24.256 29.9528 24.256C29.2193 24.6527 28.5986 24.4827 28.2601 24.3693C27.7523 24.1993 27.5266 23.5193 27.5266 23.5193C27.0753 22.7259 28.7115 14.7922 28.7115 14.7922C29.2757 12.3554 30.8555 6.0651 31.4761 3.68498C31.7018 2.83494 31.3633 2.26824 30.7426 1.81489C29.8963 1.13485 28.8808 0.794837 27.8652 0.51149C26.7368 0.228143 25.3827 0.00146484 24.1978 0.398151C22.9001 0.794837 21.3768 5.72508 21.3768 5.72508C20.4176 8.33187 18.2172 15.0755 17.0324 18.419C16.8067 18.9857 16.6938 18.6457 16.6938 18.5324C16.6938 18.5324 16.6938 18.419 16.6938 18.3057C16.8067 17.3423 16.9759 16.4356 17.1452 15.5289C17.5401 13.4321 19.0071 6.8018 19.402 4.64836C19.7406 3.91166 19.3456 3.34496 18.7814 2.94828C17.1452 1.87156 15.0012 1.64488 13.1393 1.70155C12.0109 1.75822 11.3903 3.4583 11.3903 3.4583C10.2054 6.74513 6.93301 17.2856 5.74817 20.5725C5.69174 20.7425 5.63532 20.8558 5.52248 20.9125C5.40964 21.0258 5.24038 20.9692 5.12754 20.8558L5.40964 19.8358L5.63532 18.9857C5.01469 17.5123 0.670281 17.399 0.162492 18.4757C0.162492 18.4757 -0.853085 23.6326 2.19365 26.0694C3.9427 27.4295 5.52248 27.8828 7.55364 27.0895C7.83574 26.9761 8.23069 26.7494 8.23069 26.4094C8.23069 26.4094 9.18984 22.3292 9.58479 21.0825C10.2618 18.7591 10.6568 17.569 11.3338 15.4156C11.3338 15.4156 11.6159 14.6789 11.7288 15.1889C11.6724 15.9256 11.6159 16.3223 11.5031 16.889C11.3338 18.419 11.221 19.9491 11.1082 21.4792C10.9953 22.7826 10.8825 24.1426 10.9389 25.446C10.9953 27.0895 11.7288 28.3362 13.1957 28.9029C13.9856 29.2429 14.8319 29.4129 15.6783 29.4696C16.4681 29.5262 17.2016 29.4696 17.9351 29.1862C18.1608 29.1296 18.4429 28.9029 18.5557 28.6195C19.0071 26.9195 19.4585 25.106 19.9098 23.4059C20.6433 20.5725 21.2075 18.3624 22.0538 15.6989C22.1667 15.4156 22.4488 15.3022 22.7873 15.5289C22.5616 16.5489 22.3923 17.4557 22.1667 18.589C21.7717 20.4025 21.4332 22.2159 21.546 24.0293C21.6589 26.0694 22.2231 27.2028 23.8593 28.0528C25.7212 29.0162 28.373 29.4129 30.6298 28.6195C30.8555 28.5629 31.0812 28.4495 31.3069 28.3362C31.3069 28.3362 31.3069 28.3362 31.3633 28.3362C31.8146 28.1095 32.2096 27.8262 32.661 27.5995C34.7485 29.5829 37.2875 30.3763 40.1085 30.1496C42.986 29.9229 45.2993 28.6195 46.879 26.0694C47.7818 27.4861 48.9666 28.5062 50.49 28.9029C52.0133 29.2996 53.5367 29.2996 54.8908 28.3362C55.9064 27.6562 56.5834 26.6928 57.2041 25.6161C57.3169 25.446 57.3733 25.276 57.4862 25.106C57.599 25.2194 57.6554 25.276 57.6554 25.3894C57.8247 26.6928 58.5018 27.5995 59.6866 28.0528C61.21 28.6195 62.6769 28.2795 64.0874 27.6562C65.103 27.2028 65.9493 26.5228 66.6828 25.7294C66.7392 25.7294 66.7392 25.7861 66.7392 25.7861C68.6011 28.3929 71.14 29.1862 74.1304 28.7895C76.5565 28.4495 78.3619 26.9761 79.6596 24.8227C80.6188 23.2359 81.2958 21.5359 81.6908 19.7791C82.0857 19.5524 82.4242 19.3257 82.8192 19.0424C82.7628 19.3257 82.7628 19.5524 82.7063 19.8358C82.5371 21.1392 82.4242 22.3859 82.3678 23.6893C82.3114 24.766 82.3114 25.8427 82.3114 26.8628C82.3114 27.7128 82.4806 27.9962 83.2141 28.1662C84.4554 28.5062 85.7531 28.8462 86.9943 29.1296C87.615 29.2996 87.9535 28.9596 88.0099 28.2795C88.0099 28.1095 88.0099 27.8828 88.0099 27.7128C88.0099 26.0127 88.0663 24.3693 88.0663 22.6692C88.0663 22.3292 88.1227 21.9892 88.1792 21.5359C88.4613 21.8192 88.687 22.0459 88.8562 22.2726C90.1539 24.0293 91.508 25.7294 92.8057 27.4861C93.5392 28.4495 94.2726 29.4696 95.0625 30.433C95.6267 31.1697 96.1909 31.283 96.9808 30.8863C97.545 30.603 98.1657 30.3196 98.7299 30.0363C99.2941 29.7529 99.8583 29.4129 100.423 29.0729C100.874 28.7895 100.93 28.4495 100.648 27.9962C100.423 27.6562 100.197 27.3161 99.9147 26.9761C97.8271 24.4827 95.796 21.9325 93.7084 19.4391C93.0878 18.7024 92.4672 18.0224 91.8465 17.2856C92.2415 16.9456 92.58 16.6056 92.9749 16.2656C95.2882 14.2255 97.8271 12.6954 100.535 11.392Z" fill="#A5A5A5"/>
<path d="M3.03117 40.8865C3.22349 40.8865 3.39626 40.849 3.54947 40.7741C3.70593 40.6958 3.83143 40.5883 3.92596 40.4514C4.02376 40.3144 4.07754 40.1564 4.08732 39.9771H5.19726C5.19074 40.3193 5.08969 40.6306 4.8941 40.911C4.69852 41.1913 4.43937 41.4146 4.11666 41.5809C3.79394 41.7438 3.437 41.8253 3.04584 41.8253C2.64163 41.8253 2.28958 41.7569 1.98969 41.62C1.68979 41.4798 1.44042 41.2875 1.24158 41.043C1.04274 40.7985 0.892788 40.5166 0.791736 40.1971C0.693944 39.8776 0.645048 39.5354 0.645048 39.1703V38.9991C0.645048 38.6341 0.693944 38.2918 0.791736 37.9723C0.892788 37.6496 1.04274 37.366 1.24158 37.1215C1.44042 36.8771 1.68979 36.6864 1.98969 36.5495C2.28958 36.4093 2.64 36.3392 3.04095 36.3392C3.46471 36.3392 3.83632 36.424 4.15577 36.5935C4.47523 36.7597 4.72623 36.9928 4.90877 37.2927C5.09458 37.5893 5.19074 37.9348 5.19726 38.3293H4.08732C4.07754 38.1337 4.02864 37.9577 3.94063 37.8012C3.85588 37.6415 3.73527 37.5143 3.5788 37.4198C3.4256 37.3253 3.24142 37.278 3.02628 37.278C2.78832 37.278 2.59111 37.3269 2.43464 37.4247C2.27817 37.5192 2.15593 37.6496 2.06792 37.8159C1.97991 37.9789 1.91634 38.163 1.87723 38.3684C1.84137 38.5705 1.82344 38.7807 1.82344 38.9991V39.1703C1.82344 39.3887 1.84137 39.6006 1.87723 39.8059C1.91308 40.0113 1.97502 40.1955 2.06303 40.3585C2.1543 40.5182 2.27817 40.6469 2.43464 40.7447C2.59111 40.8393 2.78995 40.8865 3.03117 40.8865ZM8.43417 41.8253C8.043 41.8253 7.68932 41.7618 7.37312 41.6346C7.06019 41.5042 6.79289 41.3233 6.57123 41.0919C6.35283 40.8605 6.18495 40.5883 6.0676 40.2753C5.95025 39.9624 5.89158 39.625 5.89158 39.2632V39.0676C5.89158 38.6536 5.95188 38.2787 6.07249 37.943C6.1931 37.6072 6.36098 37.3204 6.57612 37.0824C6.79126 36.8412 7.04552 36.657 7.3389 36.5299C7.63227 36.4028 7.9501 36.3392 8.29237 36.3392C8.6705 36.3392 9.00136 36.4028 9.28495 36.5299C9.56855 36.657 9.80325 36.8363 9.98906 37.0678C10.1781 37.2959 10.3183 37.5681 10.4096 37.8843C10.5041 38.2005 10.5514 38.5493 10.5514 38.9307V39.4343H6.46366V38.5884H9.38764V38.4955C9.38112 38.2836 9.33874 38.0848 9.26051 37.899C9.18553 37.7132 9.06981 37.5632 8.91335 37.4491C8.75688 37.3351 8.54826 37.278 8.28748 37.278C8.09189 37.278 7.9175 37.3204 7.76429 37.4051C7.61434 37.4866 7.48884 37.6056 7.38779 37.7621C7.28674 37.9185 7.20851 38.1076 7.15309 38.3293C7.10094 38.5477 7.07486 38.7938 7.07486 39.0676V39.2632C7.07486 39.4946 7.10583 39.7098 7.16776 39.9086C7.23296 40.1042 7.32749 40.2753 7.45136 40.422C7.57523 40.5687 7.72518 40.6844 7.9012 40.7692C8.07723 40.8507 8.2777 40.8914 8.50262 40.8914C8.78622 40.8914 9.03885 40.8344 9.26051 40.7203C9.48217 40.6062 9.67449 40.4448 9.83748 40.2362L10.4585 40.8376C10.3444 41.0039 10.196 41.1636 10.0135 41.3168C9.83096 41.4668 9.60767 41.589 9.34363 41.6835C9.08285 41.7781 8.7797 41.8253 8.43417 41.8253ZM13.8763 36.437V41.7275H12.693V36.437H13.8763ZM15.6121 36.437V37.366H10.9865V36.437H15.6121ZM17.2745 38.119H18.8343C19.2907 38.119 19.6786 38.1956 19.998 38.3488C20.3175 38.502 20.5603 38.7156 20.7266 38.9894C20.8961 39.2599 20.9809 39.5696 20.9809 39.9184C20.9809 40.1759 20.9336 40.4155 20.8391 40.6372C20.7445 40.8556 20.6044 41.0463 20.4186 41.2092C20.236 41.3722 20.0111 41.4994 19.7438 41.5906C19.4798 41.6819 19.1766 41.7275 18.8343 41.7275H16.4922V36.437H17.6755V40.7936H18.8343C19.069 40.7936 19.2565 40.7529 19.3966 40.6714C19.5368 40.5899 19.6378 40.484 19.6998 40.3536C19.765 40.2232 19.7976 40.0846 19.7976 39.9379C19.7976 39.788 19.765 39.6462 19.6998 39.5126C19.6378 39.3789 19.5368 39.2697 19.3966 39.185C19.2565 39.1002 19.069 39.0578 18.8343 39.0578H17.2745V38.119ZM26.1736 39.5908L24.0613 36.437H25.5086L26.7408 38.52H27.7725L27.6209 39.5908H26.1736ZM26.7701 39.4197L25.4157 41.7275H23.9684L25.8851 38.7498L26.7701 39.4197ZM28.4815 36.437V41.7275H27.308V36.437H28.4815ZM31.7428 36.437L29.6305 39.5908H28.1783L28.0219 38.52H29.0585L30.2906 36.437H31.7428ZM30.3835 41.7275L29.0242 39.4197L29.9386 38.7498L31.8455 41.7275H30.3835ZM34.8282 41.8253C34.437 41.8253 34.0833 41.7618 33.7671 41.6346C33.4542 41.5042 33.1869 41.3233 32.9652 41.0919C32.7468 40.8605 32.579 40.5883 32.4616 40.2753C32.3443 39.9624 32.2856 39.625 32.2856 39.2632V39.0676C32.2856 38.6536 32.3459 38.2787 32.4665 37.943C32.5871 37.6072 32.755 37.3204 32.9701 37.0824C33.1853 36.8412 33.4395 36.657 33.7329 36.5299C34.0263 36.4028 34.3441 36.3392 34.6864 36.3392C35.0645 36.3392 35.3954 36.4028 35.679 36.5299C35.9626 36.657 36.1973 36.8363 36.3831 37.0678C36.5721 37.2959 36.7123 37.5681 36.8036 37.8843C36.8981 38.2005 36.9454 38.5493 36.9454 38.9307V39.4343H32.8577V38.5884H35.7816V38.4955C35.7751 38.2836 35.7327 38.0848 35.6545 37.899C35.5795 37.7132 35.4638 37.5632 35.3074 37.4491C35.1509 37.3351 34.9423 37.278 34.6815 37.278C34.4859 37.278 34.3115 37.3204 34.1583 37.4051C34.0084 37.4866 33.8829 37.6056 33.7818 37.7621C33.6808 37.9185 33.6025 38.1076 33.5471 38.3293C33.4949 38.5477 33.4689 38.7938 33.4689 39.0676V39.2632C33.4689 39.4946 33.4998 39.7098 33.5618 39.9086C33.627 40.1042 33.7215 40.2753 33.8454 40.422C33.9692 40.5687 34.1192 40.6844 34.2952 40.7692C34.4712 40.8507 34.6717 40.8914 34.8966 40.8914C35.1802 40.8914 35.4329 40.8344 35.6545 40.7203C35.8762 40.6062 36.0685 40.4448 36.2315 40.2362L36.8525 40.8376C36.7384 41.0039 36.5901 41.1636 36.4075 41.3168C36.225 41.4668 36.0017 41.589 35.7376 41.6835C35.4769 41.7781 35.1737 41.8253 34.8282 41.8253ZM41.478 38.6471V39.5761H38.7398V38.6471H41.478ZM39.0821 36.437V41.7275H37.9037V36.437H39.0821ZM42.3288 36.437V41.7275H41.1504V36.437H42.3288ZM45.7466 40.8865C45.939 40.8865 46.1117 40.849 46.2649 40.7741C46.4214 40.6958 46.5469 40.5883 46.6414 40.4514C46.7392 40.3144 46.793 40.1564 46.8028 39.9771H47.9127C47.9062 40.3193 47.8051 40.6306 47.6096 40.911C47.414 41.1913 47.1548 41.4146 46.8321 41.5809C46.5094 41.7438 46.1525 41.8253 45.7613 41.8253C45.3571 41.8253 45.005 41.7569 44.7051 41.62C44.4053 41.4798 44.1559 41.2875 43.957 41.043C43.7582 40.7985 43.6082 40.5166 43.5072 40.1971C43.4094 39.8776 43.3605 39.5354 43.3605 39.1703V38.9991C43.3605 38.6341 43.4094 38.2918 43.5072 37.9723C43.6082 37.6496 43.7582 37.366 43.957 37.1215C44.1559 36.8771 44.4053 36.6864 44.7051 36.5495C45.005 36.4093 45.3555 36.3392 45.7564 36.3392C46.1802 36.3392 46.5518 36.424 46.8712 36.5935C47.1907 36.7597 47.4417 36.9928 47.6242 37.2927C47.81 37.5893 47.9062 37.9348 47.9127 38.3293H46.8028C46.793 38.1337 46.7441 37.9577 46.6561 37.8012C46.5713 37.6415 46.4507 37.5143 46.2943 37.4198C46.1411 37.3253 45.9569 37.278 45.7417 37.278C45.5038 37.278 45.3066 37.3269 45.1501 37.4247C44.9936 37.5192 44.8714 37.6496 44.7834 37.8159C44.6954 37.9789 44.6318 38.163 44.5927 38.3684C44.5568 38.5705 44.5389 38.7807 44.5389 38.9991V39.1703C44.5389 39.3887 44.5568 39.6006 44.5927 39.8059C44.6285 40.0113 44.6905 40.1955 44.7785 40.3585C44.8698 40.5182 44.9936 40.6469 45.1501 40.7447C45.3066 40.8393 45.5054 40.8865 45.7466 40.8865ZM50.0886 36.437V41.7275H48.9102V36.437H50.0886ZM53.5406 36.437L51.1594 39.6201H49.8148L49.6583 38.5542H50.6411L52.0689 36.437H53.5406ZM52.1618 41.7275L50.5678 39.4197L51.4968 38.7498L53.7118 41.7275H52.1618ZM55.5698 40.0064L57.6479 36.437H58.8263V41.7275H57.6479V38.1532L55.5698 41.7275H54.3914V36.437H55.5698V40.0064ZM60.9728 36.437L61.9801 38.1924L63.0069 36.437H64.3026L62.6988 39.0334L64.3662 41.7275H63.0704L61.9947 39.8988L60.919 41.7275H59.6184L61.2809 39.0334L59.682 36.437H60.9728ZM68.8744 36.437V41.7275H67.696V36.437H68.8744ZM72.3264 36.437L69.9452 39.6201H68.6006L68.4441 38.5542H69.4269L70.8547 36.437H72.3264ZM70.9476 41.7275L69.3536 39.4197L70.2826 38.7498L72.4976 41.7275H70.9476ZM76.6928 36.437V37.3758H74.1111V36.437H76.6928ZM77.617 36.437V41.7275H76.4386V36.437H77.617ZM73.8227 36.437H74.9864L74.8446 39.0529C74.825 39.4408 74.7859 39.7831 74.7272 40.0797C74.6718 40.3731 74.5968 40.6258 74.5023 40.8376C74.4078 41.0463 74.2921 41.2158 74.1551 41.3462C74.0182 41.4765 73.8585 41.5727 73.676 41.6346C73.4934 41.6966 73.2881 41.7275 73.0599 41.7275H72.6932L72.6883 40.7594L72.8741 40.7447C72.9947 40.735 73.099 40.704 73.187 40.6518C73.275 40.5964 73.35 40.5182 73.4119 40.4171C73.4771 40.3161 73.5293 40.1857 73.5684 40.026C73.6108 39.8662 73.6434 39.6772 73.6662 39.4588C73.6923 39.2404 73.7118 38.9861 73.7249 38.696L73.8227 36.437ZM80.0862 40.0064L82.1643 36.437H83.3427V41.7275H82.1643V38.1532L80.0862 41.7275H78.9078V36.437H80.0862V40.0064ZM88.2029 38.6471V39.5761H85.4648V38.6471H88.2029ZM85.807 36.437V41.7275H84.6287V36.437H85.807ZM89.0537 36.437V41.7275H87.8753V36.437H89.0537ZM91.5279 40.0064L93.6059 36.437H94.7843V41.7275H93.6059V38.1532L91.5279 41.7275H90.3495V36.437H91.5279V40.0064ZM97.3025 36.437V41.7275H96.1241V36.437H97.3025ZM100.755 36.437L98.3733 39.6201H97.0287L96.8722 38.5542H97.855L99.2828 36.437H100.755ZM99.3757 41.7275L97.7816 39.4197L98.7107 38.7498L100.926 41.7275H99.3757Z" fill="#A5A5A5"/>
</svg>
