<svg width="78" height="50" viewBox="0 0 78 50" fill="none" xmlns="http://www.w3.org/2000/svg">
<g clip-path="url(#clip0_4915_5543)">
<mask id="mask0_4915_5543" style="mask-type:luminance" maskUnits="userSpaceOnUse" x="0" y="0" width="78" height="50">
<path d="M78 0H0V50H78V0Z" fill="white"/>
</mask>
<g mask="url(#mask0_4915_5543)">
<path d="M60.8331 42.4526C60.5243 42.4526 60.2663 42.3562 60.0616 42.1635C59.8569 41.9671 59.7539 41.7188 59.7539 41.4213C59.7539 41.1236 59.8557 40.8716 60.0591 40.6777C60.2638 40.485 60.5218 40.3887 60.8331 40.3887C61.0267 40.3887 61.2028 40.4307 61.3603 40.5135V40.9248C61.2065 40.8223 61.0317 40.7716 60.8369 40.7716C60.6422 40.7716 60.4908 40.8334 60.3618 40.9556C60.2365 41.0766 60.1732 41.2311 60.1732 41.4213C60.1732 41.6114 60.2377 41.7658 60.3668 41.8893C60.4945 42.0104 60.6558 42.071 60.8542 42.071C61.0726 42.071 61.2549 42.0128 61.4012 41.8979V42.3092C61.2401 42.4056 61.0515 42.4537 60.8344 42.4537L60.8331 42.4526Z" fill="#A5A5A5"/>
<path d="M63.4577 42.413H61.9629V40.4282H63.4268V40.794H62.3735V41.1767H63.222V41.5373H62.3735V42.0474H63.459V42.413H63.4577Z" fill="#A5A5A5"/>
<path d="M64.4096 42.413H63.999V40.4282H64.406L64.9841 41.2509L65.5622 40.4282H65.9665V42.413H65.5622V41.0545L65.1032 41.693H64.8748L64.4071 41.0545V42.413H64.4096Z" fill="#A5A5A5"/>
<path d="M68.1169 42.413H66.6221V40.4282H68.0858V40.794H67.0327V41.1767H67.8812V41.5373H67.0327V42.0474H68.118V42.413H68.1169Z" fill="#A5A5A5"/>
<path d="M69.0031 42.4131H68.6582V40.4283H69.0688V41.7214L70.0339 40.4283H70.3875V42.4131H69.9805V41.1113L69.0043 42.4131H69.0031ZM69.0006 39.8354H69.302C69.302 39.8985 69.3219 39.9479 69.3604 39.9861C69.3988 40.0245 69.4522 40.0431 69.5179 40.0431C69.5836 40.0431 69.6369 40.0245 69.6779 39.9861C69.7176 39.9479 69.7387 39.8985 69.7412 39.8354H70.0426C70.0401 39.9825 69.9917 40.101 69.8951 40.1888C69.7983 40.2763 69.6742 40.3209 69.5215 40.3209C69.369 40.3209 69.2449 40.2763 69.1482 40.1888C69.0515 40.101 69.0018 39.9838 69.0006 39.8354Z" fill="#A5A5A5"/>
<path d="M71.4526 42.413H71.042V40.4282H71.4526V41.1706H72.352V40.4282H72.7588V42.413H72.352V41.5423H71.4526V42.413Z" fill="#A5A5A5"/>
<path d="M74.1952 42.413H73.415V40.4282H73.8255V41.0829H74.1952C74.4322 41.0829 74.6208 41.1459 74.7597 41.2706C74.8985 41.3916 74.9681 41.5509 74.9681 41.7497C74.9681 41.9486 74.8985 42.108 74.7597 42.2291C74.6195 42.3512 74.4309 42.413 74.1952 42.413ZM73.8255 41.4287V42.0524H74.1729C74.292 42.0524 74.3863 42.0252 74.4533 41.9721C74.5202 41.9178 74.5538 41.8425 74.5538 41.7436C74.5538 41.6448 74.5202 41.5658 74.4533 41.5115C74.3863 41.457 74.292 41.4287 74.1729 41.4287H73.8255ZM75.6168 42.413H75.2062V40.4282H75.6168V42.413Z" fill="#A5A5A5"/>
<path d="M76.6162 42.4131H76.2715V40.4283H76.6819V41.7214L77.647 40.4283H78.0006V42.4131H77.5938V41.1113L76.6176 42.4131H76.6162ZM76.6138 39.8354H76.9153C76.9153 39.8985 76.9351 39.9479 76.9735 39.9861C77.0119 40.0245 77.0653 40.0431 77.131 40.0431C77.1968 40.0431 77.2502 40.0245 77.2911 39.9861C77.3307 39.9479 77.3518 39.8985 77.3543 39.8354H77.6559C77.6534 39.9825 77.605 40.101 77.5082 40.1888C77.4114 40.2763 77.2873 40.3209 77.1348 40.3209C76.9821 40.3209 76.8582 40.2763 76.7614 40.1888C76.6646 40.101 76.6151 39.9838 76.6138 39.8354Z" fill="#A5A5A5"/>
<path d="M60.2309 45.6034H59.8203V43.6187H60.6924C60.907 43.6187 61.0758 43.6743 61.1999 43.7854C61.3251 43.8953 61.3883 44.0385 61.3883 44.2165C61.3883 44.3943 61.3251 44.5412 61.1999 44.6499C61.077 44.761 60.907 44.8167 60.6924 44.8167H60.2309V45.6021V45.6034ZM60.2309 43.9756V44.4683H60.6638C60.7631 44.4683 60.8401 44.4473 60.8947 44.4041C60.9492 44.3622 60.9777 44.3004 60.9777 44.2213C60.9777 44.1423 60.9504 44.0806 60.8947 44.0385C60.8401 43.9966 60.7631 43.9743 60.6638 43.9743H60.2309V43.9756Z" fill="#A5A5A5"/>
<path d="M63.4067 45.6034H61.9121V43.6187H63.3758V43.9842H62.3226V44.3672H63.1711V44.7278H62.3226V45.2379H63.4081V45.6034H63.4067Z" fill="#A5A5A5"/>
<path d="M64.9171 45.6426C64.6082 45.6426 64.3501 45.5462 64.1456 45.3535C63.9408 45.1572 63.8379 44.909 63.8379 44.6113C63.8379 44.3136 63.9395 44.0616 64.1431 43.8678C64.3476 43.6752 64.6058 43.5789 64.9171 43.5789C65.1105 43.5789 65.2868 43.6207 65.4443 43.7035V44.1148C65.2905 44.0123 65.1155 43.9616 64.9207 43.9616C64.726 43.9616 64.5746 44.0234 64.4458 44.1457C64.3204 44.2668 64.2572 44.4211 64.2572 44.6113C64.2572 44.8015 64.3217 44.9558 64.4506 45.0794C64.5785 45.2004 64.7396 45.261 64.9382 45.261C65.1564 45.261 65.3389 45.2029 65.4852 45.0881V45.4994C65.3239 45.5956 65.1355 45.6438 64.9182 45.6438L64.9171 45.6426Z" fill="#A5A5A5"/>
<path d="M65.9131 43.9842V43.6187H67.5854V43.9842H66.9527V45.6034H66.5421V43.9842H65.9131Z" fill="#A5A5A5"/>
<path d="M67.8867 44.6101C67.8867 44.3186 67.9848 44.0754 68.1796 43.8789C68.3755 43.6789 68.6225 43.5789 68.9202 43.5789C69.2179 43.5789 69.4622 43.6789 69.6583 43.8789C69.8553 44.079 69.9546 44.3236 69.9546 44.6101C69.9546 44.8966 69.8553 45.1399 69.6583 45.3413C69.4622 45.5413 69.2165 45.6413 68.9202 45.6413C68.6236 45.6413 68.3755 45.5413 68.1796 45.3413C67.9835 45.1411 67.8867 44.8966 67.8867 44.6101ZM68.4798 45.0757C68.5975 45.1979 68.7452 45.2596 68.9213 45.2596C69.0975 45.2596 69.2427 45.1979 69.3604 45.0757C69.4783 44.9534 69.5367 44.7979 69.5367 44.6101C69.5367 44.4224 69.4783 44.2679 69.3604 44.1444C69.2427 44.0222 69.0963 43.9605 68.9213 43.9605C68.7464 43.9605 68.5975 44.0222 68.4798 44.1444C68.3644 44.2654 68.3062 44.4199 68.3062 44.6101C68.3062 44.8002 68.3644 44.9547 68.4798 45.0757Z" fill="#A5A5A5"/>
<path d="M70.9477 45.6034H70.5371V43.6187H71.4091C71.6238 43.6187 71.7924 43.6743 71.9165 43.7854C72.0417 43.8953 72.1051 44.0385 72.1051 44.2165C72.1051 44.3943 72.0417 44.5412 71.9165 44.6499C71.7938 44.761 71.6238 44.8167 71.4091 44.8167H70.9477V45.6021V45.6034ZM70.9477 43.9756V44.4683H71.3806C71.4799 44.4683 71.5568 44.4473 71.6113 44.4041C71.6659 44.3622 71.6945 44.3004 71.6945 44.2213C71.6945 44.1423 71.6672 44.0806 71.6113 44.0385C71.5568 43.9966 71.4799 43.9743 71.3806 43.9743H70.9477V43.9756Z" fill="#A5A5A5"/>
<path d="M72.6638 45.603H72.2334L73.0881 43.6072H73.4814L74.3361 45.603H73.9007L73.7046 45.1436H72.8611L72.6651 45.603H72.6638ZM73.2817 44.1173L72.989 44.8065H73.5732L73.2828 44.1173H73.2817Z" fill="#A5A5A5"/>
<path d="M75.2241 45.6034H74.8135V43.6187H75.2241V44.3609H76.1233V43.6187H76.5303V45.6034H76.1233V44.7327H75.2241V45.6034Z" fill="#A5A5A5"/>
<path d="M60.1652 48.7921H59.8203V46.8074H60.2309V48.1004L61.196 46.8074H61.5496V48.7921H61.1427V47.4903L60.1664 48.7921H60.1652Z" fill="#A5A5A5"/>
<path d="M63.5581 48.7921H63.1475V46.8074H63.5581V47.5903L64.2925 46.8074H64.7936L63.9476 47.7176L64.9388 48.7921H64.4152L63.5581 47.8756V48.7921Z" fill="#A5A5A5"/>
<path d="M65.2295 48.7761V48.408C65.2716 48.4228 65.32 48.4302 65.3747 48.4302C65.4813 48.4302 65.5533 48.3574 65.5904 48.2115C65.629 48.0622 65.6499 47.788 65.6562 47.389L65.6649 46.8074H67.0716V48.7921H66.6648V47.1729H66.0605L66.0494 47.5756C66.0346 48.0423 65.9812 48.3623 65.8894 48.5363C65.7964 48.7118 65.6326 48.8007 65.397 48.8007C65.325 48.8007 65.2692 48.7921 65.2295 48.7748V48.7761Z" fill="#A5A5A5"/>
<path d="M68.0115 48.8329C67.875 48.8329 67.7745 48.8143 67.71 48.7761V48.4153C67.7745 48.4512 67.8515 48.4698 67.9408 48.4698C68.0238 48.4698 68.0909 48.4512 68.1404 48.4128C68.1877 48.3771 68.2397 48.3042 68.2943 48.1943L67.54 46.8074H67.9929L68.4965 47.783L68.9381 46.8074H69.3736L68.6392 48.361C68.4915 48.6748 68.282 48.8315 68.0127 48.8315L68.0115 48.8329Z" fill="#A5A5A5"/>
<path d="M70.6888 48.792H69.8291V46.8074H71.2755V47.1729H70.2386V47.4903H70.6888C70.9219 47.4903 71.1055 47.5507 71.2383 47.6718C71.3748 47.7941 71.443 47.9522 71.443 48.1425C71.443 48.3325 71.376 48.4906 71.2408 48.613C71.1055 48.7315 70.9219 48.792 70.6888 48.792ZM70.2386 47.8312V48.4327H70.6565C70.7756 48.4327 70.8687 48.4067 70.9331 48.356C70.9976 48.3054 71.0299 48.2314 71.0299 48.135C71.0299 48.0387 70.9976 47.9633 70.9319 47.9115C70.8662 47.8584 70.7744 47.8324 70.6565 47.8324H70.2386V47.8312Z" fill="#A5A5A5"/>
<path d="M16.2387 24.9308V31.7904C16.2387 32.6226 16.1196 33.5082 15.8802 34.447C15.6408 35.3856 15.2823 36.192 14.8047 36.8652H18.0299C17.5388 36.1908 17.174 35.388 16.9346 34.4567C16.6952 33.5256 16.5761 32.6364 16.5761 31.7904V25.8028L21.0108 36.8652H24.3961C24.0909 36.3761 23.9383 35.0014 23.9383 35.0014C23.9383 35.0014 24.045 33.7652 24.2571 33.1576L27.3894 23.7995V33.5935C27.3894 34.4654 27.3199 35.1471 27.1797 35.6351C27.0408 36.1241 26.8174 36.5379 26.5123 36.8677H31.1728C31.1728 36.8677 30.1768 36.2094 30.1768 33.5688V26.0387C30.1768 25.2594 30.2027 24.69 30.2561 24.3331C30.3095 23.9761 30.4558 23.5142 30.694 22.9448H27.3485L23.2599 34.7804L19.4231 25.0654L19.2642 24.6097C19.0657 24.0675 18.902 23.671 18.7768 23.4203L18.5361 22.9448H15.3815" fill="#A5A5A5"/>
<path d="M51.5127 36.281C51.772 36.6712 52.1863 36.8664 52.7569 36.8664H54.4092C54.2765 36.6416 54.1599 36.2945 54.0606 35.8252C53.9613 35.356 53.9118 34.8705 53.9118 34.3679V26.1003C52.9032 26.6426 51.7409 26.9798 50.4272 27.1119C50.6667 27.4157 50.8453 27.7394 50.9644 28.084C51.0835 28.4273 51.1405 28.7409 51.133 29.0263C51.1269 29.3103 51.1232 29.4722 51.1232 29.5116V30.6022C50.911 31.6063 50.6319 32.4758 50.2872 33.2094C49.9422 33.9431 49.58 34.505 49.2016 34.894C48.8233 35.2843 48.4686 35.4795 48.1361 35.4795C47.8036 35.4795 47.558 35.2843 47.3596 34.894C47.1598 34.5038 47.0606 33.9392 47.0606 33.1995V26.1017C46.052 26.6439 44.8897 26.981 43.5762 27.1131C43.9073 27.5368 44.107 27.9295 44.1741 28.2927C44.2398 28.6558 44.2732 29.0633 44.2732 29.5116V32.0892C44.2732 33.2527 44.3093 34.1604 44.3824 34.8149C44.4556 35.4695 44.6615 36.0278 45.0001 36.4897C45.3387 36.9517 45.8797 37.1838 46.6227 37.1838C47.3657 37.1838 48.027 36.88 48.6435 36.2724C49.2612 35.6647 49.7748 34.9237 50.1865 34.0517C50.5985 33.1798 50.9098 32.3263 51.1219 31.4939V34.705C51.1219 35.3657 51.2509 35.8919 51.5102 36.281H51.5127Z" fill="#A5A5A5"/>
<path d="M60.4781 25.962C60.2922 25.9362 60.0924 25.9163 59.8802 25.9028L59.363 25.8831C58.2479 25.8831 57.3423 26.0819 56.6451 26.4784C55.948 26.8748 55.5994 27.4898 55.5994 28.3223C55.5994 28.7718 55.7521 29.2079 56.0571 29.6302C56.3623 30.0539 56.727 30.4428 57.1524 30.7998C57.5767 31.1567 58.1486 31.5927 58.8644 32.1077C59.7005 32.6895 60.3343 33.1847 60.766 33.5948C61.1978 34.0047 61.4396 34.4345 61.493 34.8829C61.5325 35.041 61.5525 35.2003 61.5525 35.3584C61.5525 35.8475 61.3564 36.2377 60.9644 36.5279C60.5724 36.8195 60.1111 36.964 59.58 36.964C59.0492 36.964 58.5915 36.8158 58.2056 36.5182C57.8211 36.2205 57.6289 35.8018 57.6289 35.2595C57.6289 34.9162 57.728 34.6051 57.9277 34.3284C58.1275 34.0504 58.3656 33.8986 58.6447 33.8726C58.5256 33.6084 58.3259 33.4033 58.0468 33.2576C57.7677 33.1119 57.4564 33.039 57.1115 33.039C56.634 33.039 56.2159 33.1811 55.8575 33.465C55.4989 33.7491 55.3203 34.1493 55.3203 34.6643C55.3203 35.2324 55.5126 35.7092 55.8984 36.092C56.2829 36.4761 56.7617 36.7528 57.3323 36.9244C57.903 37.0961 58.4736 37.1826 59.0442 37.1826C60.0006 37.1826 60.8428 37.0405 61.5736 36.7564C62.3029 36.4725 62.871 36.0859 63.2755 35.5968C63.6799 35.1077 63.8833 34.5655 63.8833 33.9715C63.8833 33.5218 63.7345 33.0859 63.4355 32.6635C63.1366 32.2412 62.7755 31.8571 62.3501 31.5137C61.9245 31.1703 61.3539 30.7405 60.6383 30.2254C59.7488 29.5907 59.0914 29.072 58.6672 28.6693C58.2416 28.2667 58.0295 27.8529 58.0295 27.4306C58.0295 27.0082 58.1622 26.7069 58.4277 26.4895C58.6931 26.2708 59.038 26.1622 59.4635 26.1622C60.2065 26.1622 60.8776 26.4031 61.4743 26.8859C62.0722 27.3688 62.4767 28.0124 62.6887 28.8188L63.7643 26.1029C63.4714 26.1696 63.1737 26.2018 62.8685 26.2018C62.3513 26.2018 61.7336 26.1425 61.0166 26.0238C60.8442 26.0102 60.6642 25.9905 60.4795 25.9645L60.4781 25.962Z" fill="#A5A5A5"/>
<path d="M74.9024 32.7426C74.6095 33.6147 74.1493 34.3458 73.5178 34.9337C72.8877 35.5216 72.2068 35.8155 71.4774 35.8155C70.4416 35.8155 69.6055 35.4252 68.9679 34.6459C68.3303 33.8665 67.9519 32.9007 67.8328 31.7509C68.51 32.0683 69.2792 32.2264 70.1426 32.2264C71.006 32.2264 71.7453 32.088 72.4425 31.8102C73.1396 31.5324 73.6903 31.1395 74.0948 30.6307C74.4991 30.1219 74.7026 29.5501 74.7026 28.9151C74.7026 28.4002 74.5599 27.9173 74.2746 27.4678C73.9893 27.0181 73.5576 26.6587 72.9808 26.387C72.4027 26.1166 71.6969 25.9807 70.8595 25.9807C69.6651 25.9807 68.6093 26.2512 67.694 26.7935C66.7784 27.3355 66.0737 28.0494 65.5826 28.935C65.0913 29.8204 64.8457 30.7592 64.8457 31.7496C64.8457 32.7401 65.0418 33.5898 65.4338 34.4161C65.8258 35.2425 66.41 35.9094 67.1865 36.4181C67.963 36.9271 68.902 37.1814 70.0037 37.1814C70.6934 37.1814 71.3942 37.0234 72.105 36.7059C72.8145 36.3885 73.4398 35.9032 73.9769 35.2486C74.514 34.594 74.8763 33.7986 75.0624 32.86L74.9035 32.7415L74.9024 32.7426ZM67.7931 30.958C67.7931 30.2046 67.9097 29.4648 68.1417 28.7373C68.3737 28.0112 68.7161 27.4122 69.1676 26.9428C69.6192 26.4734 70.1562 26.2388 70.7802 26.2388C71.2181 26.2388 71.5828 26.4476 71.8755 26.8638C72.1671 27.2801 72.3134 27.8382 72.3134 28.5385C72.3134 29.5166 72.048 30.3195 71.5171 30.9469C70.9861 31.5743 70.2889 31.888 69.4256 31.888C68.9343 31.888 68.3973 31.762 67.813 31.5113C67.7994 31.3928 67.7931 31.2075 67.7931 30.9567V30.958Z" fill="#A5A5A5"/>
<path d="M31.6168 31.8694C31.6453 32.76 31.86 33.5961 32.2681 34.3767C32.706 35.2165 33.356 35.8933 34.2193 36.4083C35.0828 36.9234 36.1247 37.1815 37.3453 37.1815C38.566 37.1815 39.5658 36.9209 40.4217 36.3984C41.2777 35.8761 41.9215 35.1931 42.3531 34.3471C42.7848 33.5011 43.0007 32.5958 43.0007 31.6312C43.0007 30.6666 42.7848 29.7477 42.3531 28.8757C41.9215 28.0037 41.2777 27.2936 40.4217 26.7439C39.5658 26.1956 38.5399 25.9214 37.3453 25.9214C36.1508 25.9214 35.1012 26.1994 34.2392 26.7539C34.1797 26.7921 36.4013 26.0795 36.3442 26.1191C38.1331 23.5304 41.0952 20.8552 41.4886 20.4254C42.0392 19.8216 42.7811 19.1521 43.5788 19.1867C44.9432 19.3337 45.7495 19.1954 46.3114 19.0607C48.7961 18.4655 49.8085 17.433 50.2239 16.892C50.5564 16.4597 50.797 15.8138 50.6631 15.3272C50.8354 15.2419 51.0849 14.9641 51.1258 14.8591C51.416 14.1069 50.7884 13.4684 50.1941 14.1267C49.9548 14.3922 49.9462 14.78 49.9374 14.8356C48.9959 14.8455 48.3348 14.6503 47.5967 14.328C47.5967 14.328 47.5408 14.7393 47.5445 14.7417C48.4091 15.1086 49.0133 15.137 49.9398 15.0715C49.9646 15.2185 50.0801 15.4223 50.198 15.4593C50.3082 15.4939 50.3927 15.4828 50.4137 15.4741C50.4286 15.7088 50.3145 16.0027 50.2264 16.1929C49.5963 17.5405 47.851 18.1122 46.7443 18.2716C45.9244 18.3888 45.055 18.4333 44.2362 18.2789C44.0128 18.237 43.8381 18.1924 43.6072 18.0974C43.0702 17.8751 42.7128 17.4588 42.5826 16.8784C42.4399 16.2411 42.7017 15.0987 42.8989 14.5973C43.1582 13.9365 43.6358 13.072 44.8105 12.279C45.7347 11.6553 46.8932 11.5281 47.9526 11.8949C48.9177 12.2296 49.4585 13.0188 49.5144 14.3243C49.5144 14.3403 49.7972 14.3576 49.7985 14.3403C49.8283 13.298 49.5256 12.6125 48.8643 11.9925C48.8434 10.792 48.9698 9.70518 49.1361 8.95551C49.3183 8.13667 49.8544 6.78429 50.7052 7.04982C51.5649 7.31906 51.7039 9.01727 51.287 10.6475C51.0601 11.5331 50.7872 12.263 50.5068 12.757C50.4845 12.7965 50.6879 12.904 50.7052 12.8694C51.5153 11.3058 51.7262 10.2091 51.8539 9.48906C52.1418 7.87608 51.7051 6.71387 50.6407 6.53356C49.9462 6.415 49.2043 6.91025 48.8434 7.48455C48.3162 8.32316 47.7951 9.91886 47.7542 11.4293C46.964 11.1996 46.0894 11.2379 45.3415 11.5454C44.8998 11.727 44.4818 11.9789 44.101 12.2815C43.7438 11.0452 43.0702 9.63603 42.2217 9.05061C41.7788 8.74555 41.0804 8.57758 40.4342 8.68132C39.3388 8.91351 38.107 9.63849 37.2337 11.0884C36.152 12.8842 36.1297 14.4947 36.8094 16.0423C37.091 16.6832 37.9061 17.3206 38.5485 17.5848C39.1266 17.8232 39.8672 17.8764 40.5098 17.5948C40.7901 17.4724 41.2268 17.1847 41.424 16.903C41.4452 16.8723 41.424 16.8476 41.3843 16.8376C40.521 16.6239 38.8228 15.4741 38.7942 12.9015C38.7867 12.1963 38.9394 11.102 39.2271 10.5623C40.0472 9.0222 41.2491 8.55535 42.2465 9.6743C42.9461 10.4586 43.1284 11.932 43.2909 13.0349C43.1557 13.1819 43.0218 13.3523 42.8369 13.5981C42.8369 13.5981 42.6446 13.918 42.4946 14.2477C41.7863 15.8101 41.8433 17.1426 41.8619 17.6095C41.7701 17.9479 41.6758 18.2666 41.4786 18.5729C41.2616 18.9075 40.9886 19.2016 40.7219 19.4979C40.1983 20.0797 31.1851 26.0981 31.6082 31.8694C31.6082 31.8694 31.6094 31.867 31.6105 31.867L31.6168 31.8694ZM34.7576 28.9646C34.9835 28.1261 35.3146 27.4418 35.7538 26.9131C36.1917 26.3847 36.7164 26.1203 37.3266 26.1203C37.937 26.1203 38.4617 26.3847 38.8996 26.9131C39.3375 27.4418 39.67 28.1261 39.8958 28.9646C40.1215 29.8045 40.2344 30.6863 40.2344 31.6113C40.2344 32.5365 40.1215 33.4097 39.8958 34.2284C39.67 35.0486 39.3388 35.7118 38.8996 36.2206C38.4617 36.7294 37.937 36.9838 37.3266 36.9838C36.7164 36.9838 36.1917 36.7294 35.7538 36.2206C35.3159 35.7118 34.9835 35.0473 34.7576 34.2284C34.5319 33.4097 34.419 32.5365 34.419 31.6113C34.419 30.6863 34.5319 29.8045 34.7576 28.9646ZM48.8036 11.9357C48.8036 11.9357 48.8036 11.9394 48.8036 11.9419C48.8024 11.9406 48.8 11.9394 48.7986 11.9382C48.8 11.9382 48.8011 11.9382 48.8024 11.9369L48.8036 11.9357Z" fill="#A5A5A5"/>
<path d="M51.414 14.1339C51.434 14.155 51.4947 14.2068 51.5356 14.213C51.5976 14.2216 51.646 14.2105 51.6808 14.1833C52.4313 13.5967 52.7452 13.4164 53.0329 13.3015C53.6507 13.057 54.1643 12.9421 54.9594 13.0817L55.0399 13.0953L55.0438 13.0138C55.0499 12.8557 54.9917 12.8359 54.9718 12.8297C53.621 12.3728 52.1796 13.1434 51.4117 14.0524C51.3819 14.0882 51.3819 14.0994 51.414 14.1327V14.1339Z" fill="#A5A5A5"/>
<path d="M51.7408 14.7552C51.7483 14.7552 51.7546 14.7552 51.7608 14.7552C51.8414 14.7392 51.9146 14.7231 51.9803 14.7096C52.2805 14.6453 52.448 14.6083 52.7345 14.6527C53.1663 14.717 53.4378 14.8318 53.7542 14.964C53.8137 14.9887 53.8746 15.0146 53.9378 15.0405C53.9887 15.0615 54.001 15.0183 54.0282 14.9677C54.0532 14.9195 54.0866 14.8837 54.0407 14.8541C53.3883 14.428 52.3921 14.1649 51.633 14.5428L51.5771 14.5725C51.5771 14.5725 51.6751 14.7466 51.7396 14.7565L51.7408 14.7552Z" fill="#A5A5A5"/>
<path d="M45.5637 24.742C45.5514 24.8408 47.1218 24.2257 47.1453 24.0319C47.3054 22.7004 47.1528 21.915 47.0076 21.4666C46.8017 20.8294 46.5351 20.3218 46.0897 19.6857C46.0811 19.6782 45.9495 19.6882 45.9595 19.7006C45.9595 19.7017 45.9606 19.7042 45.9595 19.7055C45.9222 19.7375 46.3949 21.0133 46.1554 22.5721C46.0363 23.3489 45.5811 24.5913 45.5625 24.7433L45.5637 24.742Z" fill="#A5A5A5"/>
<path d="M27.3896 19.6831H30.6956C30.6956 19.6831 30.1845 18.9272 30.1784 18.0293C30.1536 13.9994 30.1361 10.8166 30.5728 8.09209C31.2675 3.75704 34.6094 1.39067 37.1225 1.39067C40.5637 1.39067 42.8721 3.57548 43.661 6.23704C44.1821 7.99328 43.9849 8.51078 43.9849 8.51078L44.5864 8.48977C44.5864 8.48977 44.5641 7.16086 44.3905 6.01596C43.6883 1.3845 39.7536 0 37.1609 0C32.0861 0 27.3896 2.76281 27.3896 11.6145V19.6831Z" fill="#A5A5A5"/>
<path d="M42.7498 38.7784C42.5637 38.7524 42.3639 38.7327 42.1519 38.7189L41.6345 38.6992C40.5194 38.6992 39.6138 38.8981 38.9166 39.2946C38.2195 39.6909 37.8709 40.306 37.8709 41.1385C37.8709 41.588 38.0235 42.0241 38.3287 42.4464C38.6339 42.8701 38.9985 43.259 39.424 43.6159C39.8483 43.9729 40.4201 44.409 41.1359 44.9239C41.9719 45.5057 42.6059 46.0009 43.0375 46.411C43.4692 46.8209 43.7111 47.2507 43.7644 47.6991C43.8042 47.8572 43.824 48.0164 43.824 48.1746C43.824 48.6636 43.6281 49.054 43.2361 49.3443C42.8441 49.6356 42.3826 49.7802 41.8517 49.7802C41.3207 49.7802 40.863 49.632 40.4771 49.3343C40.0926 49.0366 39.9004 48.6179 39.9004 48.0757C39.9004 47.7325 39.9997 47.4212 40.1994 47.1446C40.399 46.8666 40.6373 46.7148 40.9164 46.6888C40.7973 46.4246 40.5975 46.2194 40.3185 46.0737C40.0392 45.928 39.7279 45.8552 39.3831 45.8552C38.9055 45.8552 38.4874 45.9972 38.129 46.2812C37.7704 46.5653 37.5918 46.9654 37.5918 47.4805C37.5918 48.0486 37.7841 48.5254 38.1699 48.9082C38.5544 49.2923 39.0332 49.5689 39.6038 49.7406C40.1744 49.9123 40.7451 49.9987 41.3157 49.9987C42.2721 49.9987 43.1145 49.8567 43.8451 49.5727C44.5745 49.2886 45.1427 48.902 45.547 48.413C45.9514 47.9239 46.1548 47.3817 46.1548 46.7876C46.1548 46.3381 46.006 45.902 45.7071 45.4797C45.4081 45.0573 45.047 44.6732 44.6216 44.3298C44.1962 43.9865 43.6256 43.5567 42.9098 43.0418C42.0203 42.4068 41.3629 41.8881 40.9386 41.4855C40.5132 41.0828 40.301 40.6691 40.301 40.2467C40.301 39.8244 40.4337 39.5231 40.6992 39.3057C40.9648 39.0871 41.3095 38.9784 41.7351 38.9784C42.478 38.9784 43.1493 39.2193 43.7458 39.702C44.3437 40.185 44.7482 40.8285 44.9602 41.635L46.0358 38.9191C45.743 38.9858 45.4453 39.0179 45.1402 39.0179C44.6229 39.0179 44.0051 38.9587 43.2881 38.8401C43.1157 38.8265 42.9359 38.8067 42.7509 38.7807L42.7498 38.7784Z" fill="#A5A5A5"/>
<path d="M22.6099 39.5615C21.754 39.0129 20.7281 38.7388 19.5336 38.7388C18.339 38.7388 17.2896 39.0167 16.4274 39.5712C15.564 40.1259 14.9103 40.8434 14.4662 41.7227C14.0209 42.602 13.7988 43.5234 13.7988 44.4879C13.7988 45.4527 14.0184 46.3555 14.4563 47.1941C14.8942 48.0338 15.5442 48.7106 16.4076 49.2257C17.271 49.7408 18.3129 49.9989 19.5336 49.9989C20.7542 49.9989 21.754 49.7383 22.6099 49.2158C23.4659 48.6934 24.1097 48.0105 24.5414 47.1644C24.973 46.3184 25.1889 45.4131 25.1889 44.4485C25.1889 43.484 24.973 42.5651 24.5414 41.6931C24.1097 40.8212 23.4659 40.111 22.6099 39.5615ZM22.0827 47.0459C21.857 47.8659 21.5257 48.5292 21.0866 49.0379C20.6487 49.5469 20.124 49.8012 19.5137 49.8012C18.9035 49.8012 18.3786 49.5469 17.9409 49.0379C17.503 48.5292 17.1705 47.8646 16.9447 47.0459C16.719 46.227 16.606 45.3538 16.606 44.4287C16.606 43.5037 16.719 42.6219 16.9447 41.782C17.1705 40.9434 17.503 40.2591 17.9409 39.7307C18.3786 39.202 18.9035 38.9376 19.5137 38.9376C20.124 38.9376 20.6487 39.202 21.0866 39.7307C21.5245 40.2591 21.857 40.9434 22.0827 41.782C22.3085 42.6219 22.4215 43.5037 22.4215 44.4287C22.4215 45.3538 22.3085 46.2257 22.0827 47.0459Z" fill="#A5A5A5"/>
<path d="M36.0953 47.1841V38.9167C35.0868 39.459 33.9245 39.7961 32.6108 39.9282C32.8503 40.232 33.0289 40.5557 33.148 40.9002C33.2671 41.2436 33.3241 41.5573 33.3166 41.8426C33.3105 42.1267 33.3068 42.2884 33.3068 42.3278V43.4184C33.0946 44.4225 32.8155 45.2921 32.4708 46.0257C32.1258 46.7593 31.7636 47.3212 31.3852 47.7103C31.0069 48.1005 30.651 48.2957 30.3197 48.2957C29.9886 48.2957 29.7429 48.1005 29.5432 47.7103C29.3434 47.3201 29.2442 46.7557 29.2442 46.0158V38.9179C28.2356 39.4601 27.0735 39.7972 25.7598 39.9295C26.0909 40.353 26.2906 40.7459 26.3577 41.109C26.4233 41.472 26.4568 41.8797 26.4568 42.3278V44.9055C26.4568 46.0689 26.4929 46.9767 26.566 47.6313C26.6392 48.2858 26.8451 48.8441 27.1837 49.306C27.5225 49.7679 28.0633 50 28.8063 50C29.5493 50 30.2106 49.6962 30.8271 49.0886C31.4448 48.481 31.9584 47.7399 32.3701 46.8679C32.7821 45.9961 33.0934 45.1426 33.3068 44.3101V47.5214C33.3068 48.1821 33.4359 48.7081 33.695 49.0972C33.9543 49.4876 34.3687 49.6826 34.9393 49.6826H36.5916C36.4589 49.458 36.3422 49.1108 36.243 48.6416C36.1437 48.1722 36.0942 47.6868 36.0942 47.1841H36.0953Z" fill="#A5A5A5"/>
<path d="M55.6959 47.7499C55.0658 48.3376 54.3847 48.6316 53.6553 48.6316C52.6195 48.6316 51.7835 48.2414 51.1458 47.4621C50.5082 46.6826 50.1298 45.7169 50.0107 44.5671C50.6881 44.8845 51.4572 45.0426 52.3206 45.0426C53.184 45.0426 53.9232 44.9042 54.6204 44.6263C55.3176 44.3485 55.8684 43.9557 56.2727 43.4469C56.6772 42.9381 56.8806 42.3662 56.8806 41.7313C56.8806 41.2164 56.7379 40.7335 56.4526 40.284C56.1673 39.8343 55.7357 39.4749 55.1576 39.2032C54.5808 38.9328 53.8737 38.7969 53.0363 38.7969C51.8418 38.7969 50.7861 39.0674 49.8707 39.6096C48.954 40.1517 48.2505 40.8656 47.7594 41.7512C47.2681 42.6366 47.0225 43.5754 47.0225 44.5658C47.0225 45.5563 47.2185 46.406 47.6105 47.2323C48.0025 48.0586 48.5868 48.7255 49.3633 49.2343C50.1398 49.7432 51.0788 49.9975 52.1804 49.9975C52.8701 49.9975 53.571 49.8396 54.2818 49.522C54.9913 49.2047 55.6166 48.7194 56.1536 48.0648C56.6908 47.4101 57.053 46.6148 57.2391 45.6762L57.0803 45.5576C56.7876 46.4295 56.3272 47.1606 55.6959 47.7485V47.7499ZM49.9712 43.7754C49.9712 43.022 50.0877 42.2821 50.3198 41.5548C50.5516 40.8285 50.894 40.2295 51.3456 39.7603C51.7971 39.2909 52.3343 39.0563 52.9581 39.0563C53.396 39.0563 53.7607 39.2649 54.0536 39.6811C54.345 40.0974 54.4913 40.6556 54.4913 41.356C54.4913 42.3341 54.2259 43.1369 53.695 43.7643C53.1642 44.3917 52.467 44.7053 51.6048 44.7053C51.1136 44.7053 50.5765 44.5795 49.9923 44.3287C49.9785 44.2101 49.9723 44.0249 49.9723 43.7742L49.9712 43.7754Z" fill="#A5A5A5"/>
<path d="M12.4854 47.184V47.1754C12.4854 47.1754 12.4854 47.1754 12.4854 47.1742V38.8573C12.4854 38.078 12.5115 37.5087 12.5648 37.1517C12.6181 36.7948 12.7645 36.3328 13.0027 35.7635H9.17954C9.4053 36.239 9.54797 36.6391 9.6075 36.9626C9.66704 37.2863 9.69681 37.7062 9.69681 38.2213V42.3254H3.30835V38.856C3.30835 38.7386 3.30835 38.6275 3.31084 38.5189C3.32075 38.1323 3.34184 37.5865 3.37161 37.2838C3.37659 37.2368 3.38279 37.1924 3.38899 37.1517C3.44233 36.7948 3.5887 36.3328 3.82687 35.7635C3.82687 35.7635 3.82315 35.7646 3.82192 35.766C3.82192 35.7646 3.82315 35.7623 3.82439 35.761H0C0.225768 36.2501 0.368421 36.6564 0.427966 36.98C0.487508 37.3035 0.51728 37.7297 0.51728 38.2583L0.519759 38.6658V47.1828C0.519759 47.7113 0.489988 48.1375 0.430445 48.4612C0.370903 48.7847 0.228247 49.191 0.00248095 49.68H3.82563C3.58622 49.112 3.43985 48.6464 3.38774 48.282C3.33441 47.9189 3.30835 47.3532 3.30835 46.5875V42.8009H9.69806V46.4875C9.68688 46.9345 9.65588 48.03 9.61866 48.2832C9.56533 48.6464 9.41894 49.1131 9.18078 49.6814H13.0039C12.7782 49.1923 12.6355 48.7858 12.576 48.4623C12.5164 48.1388 12.4867 47.7126 12.4867 47.184H12.4854Z" fill="#A5A5A5"/>
</g>
</g>
<defs>
<clipPath id="clip0_4915_5543">
<rect width="78" height="50" fill="white"/>
</clipPath>
</defs>
</svg>
