<svg width="179" height="29" viewBox="0 0 179 29" fill="none" xmlns="http://www.w3.org/2000/svg">
<path fill-rule="evenodd" clip-rule="evenodd" d="M47.5187 17.7872C48.4164 16.3552 48.8634 14.7167 48.8634 12.8771C48.8634 11.0374 48.4164 9.39892 47.5187 7.9669C46.6215 6.53562 45.3615 5.42632 43.744 4.63883C42.1262 3.85125 40.2734 3.45972 38.1895 3.45972C36.1056 3.45972 34.2529 3.85127 32.6352 4.63883C31.0176 5.42632 29.7575 6.5356 28.8603 7.9669C27.9626 9.39892 27.5156 11.0374 27.5156 12.8771C27.5156 14.7167 27.9626 16.3552 28.8603 17.7872C29.7575 19.2185 31.0176 20.328 32.6352 21.1154C34.2529 21.903 36.1057 22.2944 38.1895 22.2944C40.2734 22.2944 42.1262 21.903 43.744 21.1154C45.3615 20.328 46.6215 19.2185 47.5187 17.7872ZM44.6754 9.34944C45.2759 10.3571 45.5789 11.5311 45.5789 12.8771C45.5789 14.2338 45.2758 15.4131 44.6754 16.4205C44.075 17.4176 43.2201 18.1921 42.1055 18.7443C41.0018 19.2858 39.6981 19.5596 38.1895 19.5596C36.7279 19.5596 35.4534 19.3026 34.3618 18.7938L34.2568 18.7438C33.1877 18.2089 32.357 17.4654 31.7603 16.5129L31.7033 16.4199C31.1031 15.4126 30.8003 14.2335 30.8003 12.8771C30.8003 11.5311 31.1031 10.3571 31.7036 9.34944C32.3042 8.34162 33.1539 7.56737 34.2573 7.02588L34.2578 7.02556C35.3721 6.47349 36.6812 6.19468 38.1895 6.19467C39.6979 6.19467 41.0015 6.47362 42.105 7.02539L42.1066 7.0262C43.2205 7.56782 44.075 8.34204 44.6754 9.34944Z" fill="#A5A5A5"/>
<path d="M4.58661 4.30268L12.1186 19.0443L19.6506 4.21289H24.1901V22.2311H21.1255V11.9878L21.9483 7.7603H21.1255L13.617 22.2311H10.573L10.5274 22.1413L3.06461 7.78974H2.26828L3.06461 12.1497V22.2311H0V4.21289H4.53951L4.58661 4.30268Z" fill="#A5A5A5"/>
<path fill-rule="evenodd" clip-rule="evenodd" d="M130.013 18.9707C129.091 19.5279 128.019 19.8091 126.791 19.8091C125.017 19.8091 123.694 19.2824 122.793 18.2512C121.889 17.2056 121.424 15.6625 121.424 13.5951V4.21289H118.208V14.0811C118.208 15.8545 118.504 17.3844 119.101 18.6654L119.102 18.6669C119.711 19.9385 120.596 20.9152 121.754 21.5912L121.755 21.5916C122.924 22.2673 124.323 22.6012 125.945 22.6012C127.637 22.6012 129.143 22.159 130.457 21.2719C131.634 20.478 132.744 19.4021 133.429 18.0492H133.805L133.523 22.1938H137.146L136.126 16.4481V4.21289H132.911V13.0466C132.911 14.3941 132.654 15.5805 132.144 16.6096L132.144 16.6101C131.645 17.628 130.935 18.4132 130.013 18.9707Z" fill="#A5A5A5"/>
<path d="M153.78 4.36084V6.81494H143.396V22.145H140.422V4.36084H153.78Z" fill="#A5A5A5" stroke="#A5A5A5" stroke-width="0.0791643"/>
<path d="M107.462 3.64941C109.028 3.64941 110.366 3.98589 111.478 4.65884C112.59 5.33178 113.437 6.30916 114.02 7.59097C114.603 8.86209 114.894 10.3949 114.894 12.1894V22.1074H111.915V12.7022C111.915 10.5551 111.462 8.93152 110.555 7.8313C109.659 6.7204 108.342 6.16496 106.604 6.16496C105.384 6.16496 104.316 6.46404 103.398 7.06222C102.481 7.64971 101.768 8.47755 101.261 9.54572C100.764 10.6139 100.516 11.8476 100.516 13.2469V22.1074H97.5367V12.7022C97.5367 10.5551 97.0834 8.93152 96.1766 7.8313C95.2807 6.7204 93.9637 6.16496 92.2258 6.16496C91.006 6.16496 89.9373 6.46404 89.0198 7.06222C88.1023 7.64971 87.3898 8.47755 86.8825 9.54572C86.3859 10.6139 86.1377 11.8476 86.1377 13.2469V22.1074H83.1584V9.77003L82.1221 4.066H86.1346L85.8624 8.55232C86.5317 7.00347 87.4924 5.80178 88.7445 4.94724C90.0075 4.08202 91.4594 3.64941 93.1002 3.64941C94.9137 3.64941 96.4195 4.09805 97.6177 4.99531C98.8159 5.89257 99.6471 7.18506 100.111 8.87277C100.748 7.22779 101.709 5.94598 102.993 5.02735C104.289 4.10873 105.778 3.64941 107.462 3.64941Z" fill="#A5A5A5"/>
<path d="M168.9 4.5208C170.624 4.5208 172.163 4.91488 173.519 5.70304C174.875 6.48069 175.931 7.5736 176.687 8.98177C177.455 10.3899 177.838 11.9978 177.838 13.8053C177.838 15.6128 177.455 17.2207 176.687 18.6288C175.931 20.037 174.875 21.1352 173.519 21.9233C172.163 22.701 170.624 23.0898 168.9 23.0898C167.04 23.0898 165.354 22.5854 163.84 21.5765C162.327 20.5677 161.098 19.17 160.152 17.3835V27.8818H157.251V4.93064H160.152V10.2113C161.098 8.42481 162.327 7.0324 163.84 6.03406C165.354 5.02522 167.04 4.5208 168.9 4.5208ZM168.412 20.6465C169.652 20.6465 170.761 20.3575 171.738 19.7795C172.726 19.2016 173.493 18.3976 174.039 17.3678C174.596 16.3274 174.875 15.1399 174.875 13.8053C174.875 12.4812 174.596 11.299 174.039 10.2586C173.493 9.21822 172.726 8.40905 171.738 7.83106C170.761 7.25308 169.652 6.96409 168.412 6.96409C166.583 6.96409 164.939 7.58411 163.478 8.82414C162.028 10.0642 160.893 11.7246 160.073 13.8053C160.893 15.8965 162.028 17.5622 163.478 18.8022C164.928 20.0317 166.573 20.6465 168.412 20.6465Z" fill="#A5A5A5"/>
<path d="M177.838 13.8053C177.838 11.9978 177.455 10.3899 176.687 8.98177C175.931 7.5736 174.875 6.48069 173.519 5.70304C172.333 5.01369 171.006 4.62581 169.538 4.5396L168.9 4.5208C167.04 4.5208 165.354 5.02522 163.84 6.03406C162.327 7.0324 161.098 8.42481 160.152 10.2113V4.93064H157.251V27.8818H160.152V17.3835C161.098 19.17 162.327 20.5677 163.84 21.5765C165.259 22.5223 166.83 23.0241 168.554 23.0833L168.9 23.0898C170.408 23.0897 171.776 22.7924 173.002 22.1972L173.519 21.9233C174.875 21.1352 175.931 20.037 176.687 18.6288C177.359 17.3967 177.736 16.0117 177.819 14.4738L177.838 13.8053ZM174.686 13.8056C174.686 12.5088 174.414 11.3577 173.873 10.3479C173.343 9.33811 172.599 8.55394 171.643 7.99428L171.642 7.99281C170.696 7.43376 169.621 7.15239 168.412 7.15232C166.631 7.15232 165.029 7.75493 163.6 8.96724C162.193 10.1704 161.085 11.7811 160.277 13.8056C161.085 15.8403 162.194 17.4556 163.6 18.6586L163.868 18.8764C165.219 19.9322 166.732 20.4588 168.412 20.4588L168.412 20.6465L168.069 20.6398C166.481 20.5726 165.042 20.0338 163.752 19.0251L163.478 18.8022C162.028 17.5622 160.893 15.8965 160.073 13.8053C160.842 11.8544 161.888 10.2733 163.21 9.06144L163.478 8.82414C164.939 7.58411 166.583 6.96409 168.412 6.96409L168.87 6.97716C169.926 7.04028 170.883 7.32537 171.738 7.83106C172.726 8.40905 173.493 9.21822 174.039 10.2586C174.596 11.299 174.875 12.4812 174.875 13.8053L174.862 14.2987C174.801 15.4343 174.527 16.4574 174.039 17.3678L173.825 17.743C173.298 18.595 172.602 19.2737 171.738 19.7795L171.365 19.9833C170.481 20.4257 169.496 20.6465 168.412 20.6465L168.412 20.4588C169.622 20.4587 170.696 20.176 171.642 19.6168C172.599 19.0569 173.343 18.2788 173.873 17.2794L174.063 16.8937C174.477 15.9781 174.686 14.9498 174.686 13.8056ZM160.34 9.4942C161.182 8.08831 162.218 6.94587 163.45 6.07191L163.737 5.87614C165.282 4.84682 167.005 4.33206 168.901 4.33206C170.653 4.33213 172.225 4.73357 173.611 5.53906C174.998 6.33461 176.081 7.45381 176.854 8.89217C177.638 10.3313 178.027 11.9707 178.027 13.8056C178.027 15.6397 177.637 17.2787 176.854 18.7175C176.081 20.1557 175 21.2807 173.614 22.0868C172.227 22.8823 170.654 23.2775 168.901 23.2776C167.005 23.2776 165.281 22.7635 163.736 21.7335C162.377 20.8274 161.246 19.6141 160.34 18.0992V28.0703H157.063V4.33203L160.34 4.33206V9.4942Z" fill="#A5A5A5"/>
<path d="M55.4268 4.25586V13.6738C55.4268 15.7362 55.8904 17.2699 56.7871 18.3066C57.6798 19.3283 58.9925 19.8525 60.7588 19.8525C61.9809 19.8525 63.0462 19.572 63.9619 19.0186C64.8783 18.4647 65.5842 17.6849 66.0801 16.6729C66.5868 15.6493 66.8437 14.468 66.8438 13.125V4.25586H70.1289V16.5205L71.1484 22.2656L71.1553 22.3076H67.4531L67.4551 22.2695L67.7354 18.1631H67.417C66.7278 19.5134 65.6185 20.5866 64.4443 21.3789C63.1235 22.2702 61.6106 22.7148 59.9121 22.7148C58.3875 22.7148 57.0575 22.4198 55.9287 21.8232L55.7051 21.7002C54.6126 21.0629 53.7625 20.1594 53.1562 18.9961L53.0381 18.7607V18.7598L53.0371 18.7588C52.4367 17.4721 52.1406 15.9364 52.1406 14.1592V4.25586H55.4268ZM60.4932 0.124023C60.8034 0.024629 61.1167 -0.00102881 61.4307 0.0996094C61.7417 0.19939 62.0282 0.373784 62.3135 0.670898C62.5758 0.944115 62.7433 1.24296 62.8389 1.56641C62.9352 1.89247 62.9107 2.21742 62.8154 2.54004C62.7193 2.86533 62.5039 3.18834 62.2197 3.48438C61.9356 3.7803 61.6254 4.00517 61.3125 4.10547C61.0023 4.20485 60.689 4.23052 60.375 4.12988C60.0638 4.03008 59.7767 3.85501 59.4912 3.55762V3.55664C59.2059 3.28362 59.0378 2.98487 58.9658 2.66016V2.65918C58.8707 2.33415 58.8952 2.01007 58.9902 1.68848C59.0863 1.36326 59.3018 1.04011 59.5859 0.744141C59.87 0.448374 60.1803 0.224284 60.4932 0.124023Z" fill="#A5A5A5" stroke="#A5A5A5" stroke-width="0.0701986"/>
</svg>
