<svg width="87" height="42" viewBox="0 0 87 42" fill="none" xmlns="http://www.w3.org/2000/svg">
<g clip-path="url(#clip0_4916_5645)">
<mask id="mask0_4916_5645" style="mask-type:luminance" maskUnits="userSpaceOnUse" x="0" y="0" width="87" height="42">
<path d="M87 0H0V42H87V0Z" fill="white"/>
</mask>
<g mask="url(#mask0_4916_5645)">
<path d="M38.0406 22.494L38.4238 23.0471C38.9128 23.7522 39.6305 24.6278 40.5582 25.6487C40.8389 25.9579 41.0943 26.2352 41.3196 26.4809C41.9397 27.1543 42.822 27.5419 43.7413 27.5419C44.6607 27.5419 45.5431 27.1543 46.1631 26.4809C46.3903 26.2352 46.6437 25.9579 46.9246 25.6487C47.854 24.6278 48.5867 23.7489 49.1044 23.0371L49.4959 22.5007L49.8758 23.0455C50.9062 24.5192 52.1064 25.8476 53.4437 26.9922C53.5462 27.0808 53.6772 27.1192 53.812 27.1008C53.9498 27.0841 54.0672 27.0122 54.148 26.8986L56.4858 23.54C56.6188 23.3495 56.5902 23.0905 56.4187 22.9234C55.4636 21.9961 54.7144 20.9066 54.1915 19.6835C53.5713 18.2281 53.133 16.0542 52.8908 13.2253C52.6588 10.5183 52.5365 6.54988 52.5293 1.42341H46.4071C46.4036 6.03521 46.3395 9.61274 46.2169 12.0623C46.0891 14.6489 45.874 16.5237 45.5616 17.7886L45.553 17.8237C45.3448 18.6692 44.6155 19.2374 43.7413 19.2374C42.8674 19.2374 42.1397 18.6692 41.9296 17.8254L41.9212 17.7886C41.6119 16.5371 41.3918 14.6105 41.2658 12.0623C41.143 9.6294 41.0792 6.05022 41.0758 1.42341H34.9532C34.9465 6.54317 34.8254 10.5133 34.5935 13.2253C34.3498 16.0576 33.9112 18.2298 33.291 19.6835C32.7683 20.9066 32.0188 21.9961 31.0641 22.9234C30.8927 23.0905 30.8641 23.3495 30.9969 23.54L33.3364 26.9003C33.4154 27.0139 33.5347 27.0858 33.6725 27.1025C33.807 27.1192 33.938 27.0824 34.0389 26.9939C35.3649 25.8643 36.5784 24.5326 37.6473 23.0404L38.0406 22.494ZM43.7413 28.4827C42.5565 28.4827 41.4203 27.9847 40.6204 27.1175C40.3935 26.8702 40.1381 26.5895 39.8556 26.2804C39.1196 25.4683 38.5078 24.7431 38.0305 24.1132C37.0136 25.4566 35.8809 26.663 34.6557 27.709C34.3532 27.968 33.9498 28.085 33.5515 28.0365C33.1498 27.9864 32.7885 27.7659 32.5583 27.4367L30.2188 24.0747C29.8221 23.5066 29.9012 22.7397 30.4037 22.2501C31.2675 21.4113 31.9448 20.4237 32.4188 19.3142C33.0002 17.9541 33.4154 15.8788 33.649 13.1451C33.8876 10.378 34.007 6.27418 34.007 0.952202V0.482666H42.022V0.952202C42.022 5.79296 42.0859 9.5158 42.2103 12.0155C42.3346 14.5035 42.5464 16.37 42.8405 17.5647L42.8489 17.6015C42.9767 18.1128 43.3936 18.2949 43.7413 18.2949C44.0893 18.2949 44.5062 18.1128 44.6336 17.6015L44.6422 17.5664C44.9365 16.375 45.1481 14.5069 45.2725 12.0155C45.3968 9.49905 45.4605 5.77621 45.4605 0.952202V0.482666H53.4756V0.952202C53.4756 6.28084 53.597 10.383 53.8338 13.1451C54.0672 15.8754 54.4805 17.9507 55.0639 19.3142C55.538 20.4237 56.2152 21.4113 57.0789 22.2501C57.583 22.7397 57.6608 23.5066 57.2655 24.0747L54.9242 27.435C54.6941 27.7659 54.3326 27.9847 53.9314 28.0349C53.5312 28.0867 53.1296 27.9664 52.8256 27.7057C51.5887 26.6463 50.464 25.4399 49.4775 24.1098C48.9869 24.7397 48.3649 25.4666 47.6273 26.2804C47.3446 26.5895 47.0894 26.8702 46.8605 27.1175C46.0624 27.9847 44.9261 28.4827 43.7413 28.4827Z" fill="#A5A5A5"/>
<path d="M13.2917 6.62866C11.6438 6.62866 10.353 7.07811 9.45622 7.96856C8.56104 8.85394 8.10845 10.1299 8.10845 11.7575V17.208C8.10845 18.8593 8.54935 20.0981 9.45622 20.997C10.353 21.8875 11.6438 22.3385 13.2917 22.3385C14.9395 22.3385 16.2286 21.8875 17.1254 20.997C18.0206 20.1099 18.4749 18.8356 18.4749 17.208V11.7575C18.4749 10.1299 18.0206 8.85563 17.1254 7.96856C16.2286 7.07811 14.9395 6.62866 13.2917 6.62866ZM13.2917 23.2862C11.3856 23.2862 9.87363 22.7425 8.79406 21.672C7.71115 20.6014 7.163 19.1 7.163 17.208V11.7575C7.163 9.86725 7.71115 8.36408 8.79406 7.29357C9.87363 6.223 11.3856 5.67932 13.2917 5.67932C15.196 5.67932 16.7097 6.223 17.7893 7.29357C18.8705 8.36582 19.4187 9.86725 19.4187 11.7575V17.208C19.4187 19.0983 18.8705 20.5997 17.7893 21.672C16.7097 22.7442 15.196 23.2862 13.2917 23.2862ZM13.2917 0.949359C9.41765 0.949359 6.35835 2.03674 4.19755 4.18122C2.03842 6.32568 0.943776 9.37073 0.943776 13.2338V15.6947C0.943776 18.255 1.43998 20.4853 2.4156 22.3234C3.38452 24.1481 4.8027 25.567 6.63158 26.5383C8.47723 27.5196 10.7169 28.0179 13.2917 28.0179C15.8649 28.0179 18.1061 27.5196 19.9518 26.5383C21.7806 25.567 23.1988 24.1481 24.1677 22.3234C25.1433 20.4853 25.6379 18.255 25.6379 15.6947V13.2708C25.6379 10.7123 25.1433 8.48197 24.1677 6.64218C23.1988 4.8175 21.7806 3.40018 19.9518 2.42726C18.1061 1.44592 15.8649 0.949359 13.2917 0.949359ZM13.2917 28.9655C10.5609 28.9655 8.17215 28.4303 6.18904 27.3765C4.19084 26.3144 2.64023 24.7641 1.58246 22.7695C0.533078 20.7916 0 18.4115 0 15.6947V13.2338C0 9.10811 1.18852 5.83588 3.53372 3.50791C5.87724 1.17996 9.1595 0 13.2917 0C16.0207 0 18.4112 0.535278 20.3926 1.589C22.3909 2.65114 23.9414 4.20141 25.0009 6.19606C26.0503 8.17561 26.5833 10.5557 26.5833 13.2708V15.6947C26.5833 18.4115 26.0503 20.7916 25.0009 22.7695C23.9414 24.7641 22.3925 26.3144 20.3926 27.3765C18.4112 28.4303 16.0224 28.9655 13.2917 28.9655Z" fill="#A5A5A5"/>
<path d="M73.7087 6.62866C72.0629 6.62866 70.7719 7.07811 69.8749 7.96856C68.9797 8.85563 68.5259 10.1299 68.5259 11.7575V17.208C68.5259 18.8356 68.9797 20.1116 69.8749 20.997C70.7719 21.8875 72.0629 22.3385 73.7087 22.3385C75.3568 22.3385 76.6478 21.8875 77.5439 20.997C78.4395 20.1099 78.8939 18.8356 78.8939 17.208V11.7575C78.8939 10.1299 78.4395 8.85563 77.5439 7.96856C76.6478 7.07811 75.3568 6.62866 73.7087 6.62866ZM73.7087 23.2862C71.8043 23.2862 70.2905 22.7425 69.2112 21.672C68.13 20.6014 67.5814 19.1 67.5814 17.208V11.7575C67.5814 9.86725 68.13 8.36408 69.2112 7.29357C70.2905 6.223 71.8043 5.67932 73.7087 5.67932C75.6149 5.67932 77.1287 6.223 78.2061 7.29357C79.2892 8.36582 79.8373 9.86725 79.8373 11.7575V17.208C79.8373 19.0983 79.2892 20.5997 78.2061 21.672C77.1287 22.7442 75.613 23.2862 73.7087 23.2862ZM73.7087 0.949359C69.8347 0.949359 66.7757 2.03674 64.6162 4.18122C62.4571 6.32568 61.3624 9.37073 61.3624 13.2338V15.6947C61.3624 18.255 61.8573 20.4853 62.8327 22.3234C63.8018 24.1481 65.2199 25.567 67.0483 26.5383C68.8942 27.5196 71.1359 28.0179 73.7087 28.0179C76.2839 28.0179 78.5246 27.5196 80.369 26.5383C82.1979 25.567 83.618 24.1481 84.5851 22.3234C85.5624 20.4853 86.0569 18.255 86.0569 15.6947V13.2708C86.0569 10.7123 85.5624 8.48197 84.5851 6.64218C83.618 4.8175 82.1979 3.40018 80.369 2.42726C78.5246 1.44592 76.2839 0.949359 73.7087 0.949359ZM73.7087 28.9655C70.9793 28.9655 68.5892 28.4303 66.6061 27.3765C64.6099 26.3144 63.0589 24.7641 62.0014 22.7695C60.9501 20.7916 60.417 18.4115 60.417 15.6947V13.2338C60.417 9.10811 61.6074 5.83588 63.9521 3.50791C66.2943 1.17996 69.5786 0 73.7087 0C76.4395 0 78.8286 0.535278 80.8117 1.589C82.8098 2.65114 84.3584 4.20141 85.4198 6.19606C86.4691 8.17561 87.0003 10.5557 87.0003 13.2708V15.6947C87.0003 18.4115 86.4691 20.7916 85.4198 22.7695C84.3604 24.7641 82.8098 26.3144 80.8117 27.3765C78.8286 28.4303 76.4395 28.9655 73.7087 28.9655Z" fill="#A5A5A5"/>
<path d="M14.5931 41.9022L12.0093 39.1399C11.9106 39.026 11.9106 38.9104 12.0093 38.7965L14.4944 36.2963C14.5552 36.2361 14.6211 36.2068 14.6934 36.2068C14.7427 36.2068 14.7855 36.2263 14.8217 36.2638C14.8562 36.3028 14.8743 36.3467 14.8743 36.3956C14.8743 36.4558 14.8496 36.5095 14.8003 36.5584L12.3826 38.9349L14.9253 41.6401C14.9631 41.6776 14.9829 41.7297 14.9829 41.7948C14.9829 41.8501 14.9631 41.8974 14.9253 41.9397C14.8858 41.9803 14.8381 41.9999 14.7838 41.9999C14.723 41.9999 14.6589 41.9674 14.5931 41.9022ZM11.5718 36.42V41.7785C11.5718 41.8404 11.5487 41.8908 11.5043 41.9348C11.46 41.9787 11.4073 41.9999 11.3481 41.9999C11.2807 41.9999 11.2264 41.9787 11.182 41.9348C11.1376 41.8908 11.1162 41.8404 11.1162 41.7785V36.42C11.1162 36.3598 11.1376 36.3093 11.182 36.2686C11.2264 36.2263 11.284 36.2068 11.3563 36.2068C11.4106 36.2068 11.46 36.2279 11.5043 36.2719C11.5487 36.3158 11.5718 36.3647 11.5718 36.42Z" fill="#A5A5A5"/>
<path d="M16.4293 38.8629C16.4293 39.6268 16.6639 40.2639 17.1315 40.7778C17.5942 41.2899 18.1668 41.5452 18.8494 41.5452C19.5549 41.5452 20.1324 41.2899 20.5853 40.7778C21.0413 40.2588 21.2711 39.6199 21.2711 38.8629C21.2711 38.0991 21.0397 37.4585 20.577 36.9411C20.1078 36.4325 19.5335 36.1807 18.8494 36.1807C18.1619 36.1807 17.586 36.4325 17.1233 36.9411C16.6606 37.4585 16.4293 38.0991 16.4293 38.8629ZM15.9502 38.8629C15.9502 37.9706 16.2258 37.2258 16.7771 36.6251C17.3268 36.0245 18.0192 35.7241 18.8494 35.7241C19.6763 35.7241 20.367 36.0193 20.9233 36.6078C21.4746 37.1963 21.7502 37.948 21.7502 38.8629C21.7502 39.7657 21.4746 40.5122 20.9233 41.1007C20.372 41.7014 19.6812 42 18.8494 42C18.0241 42 17.3349 41.7031 16.7853 41.1094C16.2291 40.5209 15.9502 39.7726 15.9502 38.8629Z" fill="#A5A5A5"/>
<path d="M24.6205 36.6479V39.1237H25.6174C25.9972 39.1237 26.341 39.0032 26.6487 38.7623C26.945 38.5231 27.094 38.2219 27.094 37.8622C27.094 37.0418 26.5718 36.6333 25.5274 36.6333C25.4063 36.6333 25.105 36.6381 24.6205 36.6479ZM27.613 41.8941L25.7418 39.5501H24.6205V41.7785C24.6205 41.8404 24.5992 41.8908 24.555 41.9348C24.5107 41.9787 24.4568 41.9999 24.3897 41.9999C24.3291 41.9999 24.2767 41.9787 24.2341 41.9348C24.1899 41.8908 24.167 41.8404 24.167 41.7785V36.4607C24.167 36.3956 24.1915 36.3386 24.2374 36.2931C24.2849 36.2458 24.3406 36.2231 24.4076 36.2231C25.1099 36.2117 25.4914 36.2068 25.5519 36.2068C26.8992 36.2068 27.572 36.7586 27.572 37.8622C27.572 38.261 27.4427 38.6045 27.184 38.8942C26.9319 39.1904 26.6045 39.3776 26.2035 39.4606L27.9829 41.6565C28.0173 41.6939 28.0337 41.7378 28.0337 41.7883C28.0337 41.842 28.0124 41.8908 27.9715 41.9348C27.9305 41.9787 27.8765 41.9999 27.811 41.9999C27.734 41.9999 27.667 41.9657 27.613 41.8941Z" fill="#A5A5A5"/>
<path d="M30.4356 39.2776V41.5692H33.1369C33.1995 41.5692 33.2503 41.5906 33.2892 41.6316C33.3298 41.6727 33.3501 41.727 33.3501 41.7927C33.3501 41.9308 33.2791 41.9999 33.1369 41.9999H30.2139C30.1445 41.9999 30.087 41.9769 30.0396 41.9292C29.9905 41.8832 29.9668 41.8273 29.9668 41.7599V36.4468C29.9668 36.3811 29.9905 36.3235 30.0396 36.2775C30.087 36.2298 30.1445 36.2068 30.2139 36.2068H33.0523C33.1132 36.2068 33.1656 36.2282 33.2046 36.2693C33.2452 36.3103 33.2638 36.3646 33.2638 36.4304C33.2638 36.5685 33.1927 36.6375 33.0523 36.6375H30.4356V38.8469H32.795C32.8576 38.8469 32.9101 38.8682 32.949 38.9077C32.988 38.9505 33.0083 39.0047 33.0083 39.0705C33.0083 39.1247 32.988 39.174 32.949 39.2151C32.9101 39.2562 32.8576 39.2776 32.795 39.2776" fill="#A5A5A5"/>
<path d="M38.1945 39.5895L36.9664 36.8268L35.7383 39.5895H38.1945ZM39.2037 41.8781L38.38 40.0148H35.5528L34.7291 41.8781C34.684 41.9593 34.6188 41.9999 34.5353 41.9999C34.4734 41.9999 34.4216 41.9804 34.3799 41.9382C34.3381 41.8976 34.3164 41.8473 34.3164 41.7889C34.3164 41.7775 34.3214 41.75 34.3331 41.7061L36.7392 36.3707C36.7893 36.2604 36.8678 36.2068 36.9747 36.2068C37.0867 36.2068 37.1686 36.2604 37.2187 36.3707L39.6164 41.698C39.628 41.7418 39.6331 41.7694 39.6331 41.7792C39.6331 41.8344 39.608 41.8847 39.5613 41.9317C39.5128 41.9772 39.4626 41.9999 39.4059 41.9999C39.3157 41.9999 39.2488 41.9593 39.2037 41.8781Z" fill="#A5A5A5"/>
<path d="M42.0457 36.3614L45.9641 41.173V36.4119C45.9641 36.3516 45.9837 36.3012 46.0273 36.2638C46.0692 36.2263 46.1227 36.2068 46.1911 36.2068C46.3313 36.2068 46.3997 36.2751 46.3997 36.4119V41.7883C46.3997 41.9299 46.333 41.9999 46.1992 41.9999C46.109 41.9999 46.0256 41.951 45.947 41.8534L42.004 37.0093V41.7948C42.004 41.8567 41.9823 41.9055 41.9405 41.9429C41.8987 41.9803 41.8436 41.9999 41.7769 41.9999C41.72 41.9999 41.6716 41.9803 41.6299 41.9397C41.5864 41.8974 41.5664 41.8501 41.5664 41.7948V36.4119C41.5664 36.3516 41.5864 36.3012 41.6299 36.2638C41.6716 36.2263 41.7234 36.2068 41.7835 36.2068C41.8737 36.2068 41.9605 36.2589 42.0457 36.3614Z" fill="#A5A5A5"/>
<path d="M54.1406 39.4274H51.7095V41.7779C51.7095 41.84 51.6853 41.8905 51.6389 41.9346C51.5925 41.9786 51.5393 41.9999 51.4741 41.9999C51.405 41.9999 51.3484 41.9786 51.302 41.9346C51.2556 41.8905 51.2334 41.84 51.2334 41.7779V36.4451C51.2334 36.3798 51.2571 36.3227 51.3073 36.277C51.3552 36.2296 51.4137 36.2068 51.4842 36.2068H54.4002C54.4635 36.2068 54.5157 36.228 54.5563 36.2672C54.5959 36.3096 54.6167 36.3635 54.6167 36.4288C54.6167 36.5659 54.5447 36.6329 54.4002 36.6329H51.7095V39.0013H54.1406C54.2044 39.0013 54.2557 39.0209 54.2972 39.0617C54.3364 39.1042 54.3572 39.1564 54.3572 39.2234C54.3572 39.3605 54.2847 39.4274 54.1406 39.4274Z" fill="#A5A5A5"/>
<path d="M56.062 38.8629C56.062 39.6268 56.2969 40.2639 56.7643 40.7778C57.2273 41.2899 57.8015 41.5452 58.484 41.5452C59.1877 41.5452 59.7672 41.2899 60.2182 40.7778C60.6759 40.2588 60.904 39.6199 60.904 38.8629C60.904 38.0991 60.6725 37.4585 60.21 36.9411C59.7421 36.4325 59.1664 36.1807 58.484 36.1807C57.7947 36.1807 57.2186 36.4325 56.7561 36.9411C56.295 37.4585 56.062 38.0991 56.062 38.8629ZM55.583 38.8629C55.583 37.9706 55.8604 37.2258 56.4095 36.6251C56.961 36.0245 57.6517 35.7241 58.484 35.7241C59.309 35.7241 59.9997 36.0193 60.556 36.6078C61.1075 37.1963 61.383 37.948 61.383 38.8629C61.383 39.7657 61.1075 40.5122 60.556 41.1007C60.0065 41.7014 59.3139 42 58.484 42C57.657 42 56.9692 41.7031 56.4182 41.1094C55.8619 40.5209 55.583 39.7726 55.583 38.8629Z" fill="#A5A5A5"/>
<path d="M63.7973 38.8629C63.7973 39.6268 64.0298 40.2639 64.4977 40.7778C64.9602 41.2899 65.533 41.5452 66.2169 41.5452C66.9211 41.5452 67.5001 41.2899 67.9511 40.7778C68.4074 40.2588 68.6369 39.6199 68.6369 38.8629C68.6369 38.0991 68.4059 37.4585 67.9434 36.9411C67.4755 36.4325 66.8994 36.1807 66.2169 36.1807C65.5281 36.1807 64.952 36.4325 64.4895 36.9411C64.0284 37.4585 63.7973 38.0991 63.7973 38.8629ZM63.3164 38.8629C63.3164 37.9706 63.5919 37.2258 64.1434 36.6251C64.6944 36.0245 65.3856 35.7241 66.2169 35.7241C67.0424 35.7241 67.7331 36.0193 68.2894 36.6078C68.8404 37.1963 69.1164 37.948 69.1164 38.8629C69.1164 39.7657 68.8404 40.5122 68.2894 41.1007C67.7394 41.7014 67.0492 42 66.2169 42C65.3899 42 64.7031 41.7031 64.1516 41.1094C63.5953 40.5209 63.3164 39.7726 63.3164 38.8629Z" fill="#A5A5A5"/>
<path d="M71.5148 36.6573V41.5559C71.6994 41.5559 71.8744 41.5575 72.0387 41.5608C72.2016 41.5641 72.319 41.5657 72.393 41.569C72.4669 41.5722 72.5056 41.5722 72.5104 41.5722C73.4355 41.5722 74.1456 41.3339 74.641 40.8573C75.1432 40.3871 75.393 39.7767 75.393 39.0258C75.393 38.319 75.1548 37.7428 74.6748 37.3004C74.191 36.8564 73.481 36.6345 72.5457 36.6345C72.4215 36.6345 72.2403 36.6377 72 36.6459C71.7603 36.654 71.5989 36.6573 71.5148 36.6573ZM71.2953 36.2313C71.4007 36.2313 71.6124 36.2264 71.9246 36.2182C72.2369 36.2101 72.45 36.2068 72.5626 36.2068C73.1368 36.2068 73.6424 36.2819 74.075 36.432C74.5081 36.5822 74.8561 36.7912 75.1142 37.0573C75.3747 37.3233 75.5675 37.622 75.6937 37.9534C75.8213 38.2847 75.8831 38.6423 75.8831 39.0258C75.8831 39.8909 75.5912 40.6026 75.0049 41.1625C74.4128 41.7208 73.5767 41.9999 72.494 41.9999L71.2953 41.9836C71.2262 41.9836 71.1692 41.9607 71.1204 41.9134C71.0735 41.8677 71.0498 41.8122 71.0498 41.7452V36.4696C71.0498 36.4043 71.0735 36.3472 71.1204 36.3015C71.1692 36.2541 71.2262 36.2313 71.2953 36.2313Z" fill="#A5A5A5"/>
</g>
</g>
<defs>
<clipPath id="clip0_4916_5645">
<rect width="87" height="42" fill="white"/>
</clipPath>
</defs>
</svg>
