<svg width="128" height="37" viewBox="0 0 128 37" fill="none" xmlns="http://www.w3.org/2000/svg">
<g clip-path="url(#clip0_4915_5511)">
<path d="M29.4191 10.6194C32.6593 10.6194 35.5852 12.0793 37.6951 14.4387C39.759 16.746 41.036 19.915 41.036 23.398C41.036 26.8809 39.7593 30.0499 37.6955 32.3572C35.5852 34.7166 32.6589 36.1765 29.4191 36.1765C26.1794 36.1765 23.2536 34.7166 21.1431 32.3572C19.0794 30.0499 17.8027 26.8809 17.8027 23.398C17.8027 19.915 19.0798 16.7456 21.1431 14.4387C23.2536 12.0793 26.1794 10.6194 29.4191 10.6194ZM111.269 35.6675L100.719 10.1222L90.1584 35.6675H93.8805L96.4124 29.3417H105.056L107.527 35.6675H111.269ZM103.806 26.0067H97.7244L100.75 17.6176L103.806 26.0067ZM116.758 27.632V35.6675H120.266V24.4193L125.647 14.8601L127.771 11.0853H125.647H124.227L118.575 21.0485L113.133 11.0853H109.406L115.995 23.0358L116.758 24.4193V27.632ZM70.1087 11.0853V35.6675H74.8827H75.8391C78.4118 35.6675 80.3081 35.4901 81.5234 35.1407C82.7434 34.7851 83.8263 34.1948 84.7825 33.3698C86.0433 32.2697 86.9991 30.8773 87.65 29.1927C88.3012 27.5078 88.6263 25.5768 88.6263 23.3939C88.6263 21.2103 88.3012 19.2679 87.65 17.5659C86.9991 15.8643 86.0433 14.4716 84.7825 13.3832C83.8263 12.5579 82.7184 11.9675 81.4522 11.6123C80.1813 11.2628 77.9944 11.0853 74.8827 11.0853H70.1087ZM73.6475 32.0577V14.6609H74.9286H76.2101C78.0405 14.6609 79.3879 14.7812 80.2475 15.0277C81.106 15.274 81.8437 15.6921 82.4589 16.2709C83.2827 17.0676 83.9028 18.0532 84.3147 19.2394C84.7266 20.4197 84.9354 21.7892 84.9354 23.3591C84.9354 24.9236 84.7266 26.2988 84.3147 27.4793C83.9028 28.6654 83.2827 29.6509 82.4589 30.4474C81.8537 31.0261 81.1418 31.4444 80.3184 31.6907C79.4997 31.9373 78.2698 32.0577 76.6322 32.0577H73.6475ZM61.8997 11.0853V35.6675H65.4388V11.0853H61.8997ZM45.7435 11.0853V35.6675H57.2139V32.0921H49.2822V11.0853H45.7435ZM11.6167 15.7137L10.4665 15.1647C9.90398 14.882 9.22038 14.5888 8.57662 14.4234C8.16694 14.318 7.78325 14.2624 7.49114 14.3002C7.38735 14.3208 7.25751 14.3283 7.15013 14.3401C6.54867 14.4231 6.00354 14.6054 5.54684 14.8703C5.13634 15.1086 4.80005 15.4188 4.5656 15.7883C4.39188 16.0611 4.26279 16.3634 4.21508 16.6768C4.17366 16.948 4.18632 17.2377 4.27468 17.5364C4.43059 18.0634 4.61375 18.4423 4.8482 18.7534C5.10393 19.0916 5.45369 19.4015 5.9107 19.7547C6.39585 20.1293 6.96704 20.5114 7.56692 20.8863C8.27627 21.3296 8.87269 21.6774 9.41852 21.9907C10.1847 22.4316 10.8482 22.8358 11.4513 23.3229C12.1238 23.8656 12.7116 24.4913 13.2492 25.3248C13.9818 26.4616 14.4582 27.8092 14.4747 29.2302C14.4893 30.4996 14.1338 31.8005 13.2646 33.028C12.5071 34.098 11.6123 34.8105 10.667 35.2862C9.75563 35.7447 8.81466 35.9749 7.91549 36.0949C7.24996 36.1838 6.61136 36.1789 6.01934 36.1083C5.34789 36.0274 4.71357 35.8605 4.15075 35.6469C2.83007 35.1452 1.92108 34.6668 0.654836 34.0001L0 33.6564L1.70909 30.4111L2.36393 30.7549C3.51883 31.3627 4.34807 31.7993 5.44305 32.2153C5.73944 32.3278 6.0809 32.417 6.45029 32.4612C6.77916 32.5002 7.11577 32.5054 7.4418 32.4621C7.97629 32.3905 8.52136 32.261 9.01551 32.0125C9.47655 31.7804 9.91191 31.4346 10.2782 30.9171C10.6622 30.3748 10.8198 29.8068 10.8134 29.2586C10.8059 28.5915 10.5521 27.9118 10.1618 27.3063C9.85702 26.8334 9.52784 26.4822 9.15404 26.1806C8.71119 25.8229 8.19532 25.5099 7.595 25.1642C6.8995 24.7648 6.18903 24.3527 5.62816 24.0022C4.95759 23.5835 4.29124 23.1346 3.67039 22.655C2.96149 22.1076 2.39666 21.5972 1.91862 20.9645C1.42051 20.3038 1.0491 19.5563 0.757053 18.5706C0.503276 17.7133 0.465384 16.8939 0.582202 16.1313C0.714063 15.2716 1.03645 14.4933 1.464 13.8211C2.01694 12.9508 2.78544 12.2332 3.70903 11.6968C4.58649 11.188 5.60915 10.8466 6.71955 10.7002C6.82806 10.6824 6.94331 10.6729 7.05339 10.6603C7.83814 10.5667 8.67254 10.6681 9.48127 10.8766C10.4409 11.1233 11.3648 11.5136 12.0963 11.8767L12.7179 12.1748C12.9492 12.2836 13.1442 12.376 13.3684 12.4976L11.6167 15.7137ZM32.1802 0L25.4882 5.74234L27.0879 7.54773L33.7795 1.80577L32.1802 0ZM35.0687 16.7884C33.6161 15.1641 31.6174 14.1586 29.4191 14.1586C27.2214 14.1586 25.2226 15.1641 23.7695 16.7884C22.2701 18.4649 21.3418 20.8015 21.3418 23.398C21.3418 25.9947 22.2701 28.3309 23.7695 30.0074C25.2226 31.6318 27.2214 32.6372 29.4191 32.6372C31.617 32.6372 33.6161 31.6318 35.0691 30.0074C36.5686 28.3309 37.4968 25.9947 37.4968 23.398C37.4968 20.8015 36.5686 18.4653 35.0687 16.7884Z" fill="#A5A5A5"/>
</g>
<defs>
<clipPath id="clip0_4915_5511">
<rect width="128" height="37" fill="white"/>
</clipPath>
</defs>
</svg>
