<svg width="34" height="42" viewBox="0 0 34 42" fill="none" xmlns="http://www.w3.org/2000/svg">
<path d="M0 14.5306C0.119766 14.442 0.0792816 14.316 0.0843421 14.204C0.143382 12.4867 0.305318 10.7757 0.495932 9.06785C0.588708 8.24345 0.676424 7.41906 0.775947 6.49512C1.35959 7.08619 1.87577 7.61038 2.39194 8.13613C2.45773 8.20301 2.50665 8.29167 2.58424 8.343C3.40742 8.88275 3.512 9.65114 3.49514 10.5129C3.47152 11.6577 3.62334 12.7978 3.84263 13.9271C4.08384 15.1684 4.80581 16.1934 5.61718 17.1687C6.22782 17.9013 6.87388 18.609 7.49126 19.3354C8.70916 20.768 9.29619 22.465 9.83766 24.1776C9.99116 24.6644 10.1194 25.156 10.2543 25.6475C10.3117 25.859 10.315 26.0006 9.97598 25.999C7.26017 25.9866 4.54435 25.9897 1.82854 25.9959C1.59913 25.9959 1.50466 25.9135 1.449 25.7237C0.861976 23.7 0.403155 21.6562 0.16025 19.5703C0.116392 19.1939 0.180492 18.8019 0.00168684 18.441V14.5291L0 14.5306Z" fill="#A5A5A5"/>
<path d="M13.625 29.1619C13.1763 28.9581 13.0194 28.6112 12.9098 28.2472C12.4037 26.586 11.9246 24.917 11.4068 23.2589C10.7236 21.075 9.49896 19.224 7.7126 17.6701C7.12726 17.1599 6.6229 16.5782 6.09998 16.0136C5.06763 14.8983 4.7387 13.5559 4.58857 12.1545C4.45531 10.907 4.47049 9.6564 4.54471 8.40737C4.55652 8.19427 4.44181 8.11027 4.27819 8.01695C3.61526 7.64364 2.97763 7.23922 2.38724 6.77102C0.884263 5.57954 0.391706 3.54345 1.26886 1.98643C1.86769 0.924054 2.93715 0.43564 4.12975 0.146325C5.77273 -0.253428 7.13739 0.169657 8.10732 1.45447C9.55463 3.36924 11.8521 3.47345 13.3129 3.09859C13.9522 2.93371 14.4566 2.54484 14.9745 2.18398C16.0473 1.43736 17.1994 1.4218 18.2891 2.16531C19.0178 2.66306 19.7364 3.16858 20.6878 3.23236C22.3274 3.34279 23.8051 3.06437 24.883 1.778C25.2018 1.39847 25.5375 1.02671 25.9355 0.709401C27.1147 -0.228541 28.4169 -0.0761059 29.7697 0.297204C31.1361 0.675181 31.7029 1.68312 32.1802 2.77816C32.7487 4.0863 32.241 5.71487 30.9472 6.74147C30.3348 7.22677 29.6736 7.6483 28.9837 8.0325C28.8167 8.12583 28.7543 8.22227 28.761 8.4027C28.7981 9.33909 28.842 10.2755 28.7796 11.2119C28.6918 12.5122 28.5906 13.8141 27.9176 14.9978C27.4014 15.9062 26.639 16.6466 25.8816 17.3855C24.9791 18.2659 24.026 19.1074 23.3311 20.1464C22.4168 21.5137 21.9546 23.0473 21.4755 24.5701C21.0876 25.8052 20.7468 27.0527 20.3656 28.2892C20.256 28.6439 20.1058 29.0016 19.6251 29.1587C19.4193 27.6671 19.2118 26.2127 19.0229 24.7552C18.8609 23.5031 18.7243 22.2478 18.5691 20.9957C18.4156 19.7544 18.338 18.507 18.257 17.2595C18.1828 16.1038 18.1457 14.945 18.0782 13.7893C18.0614 13.5077 18.166 13.2915 18.3498 13.0815C19.8697 11.3534 21.8281 10.8883 24.1188 11.3705C24.8425 11.523 25.5341 11.7609 26.2611 12.0596C25.6505 10.8588 24.2841 10.1215 22.9566 10.1853C21.4975 10.2537 20.1396 10.6954 18.7918 11.145C17.4541 11.5914 16.1637 11.5836 14.8294 11.1341C13.5744 10.7126 12.2974 10.3439 10.9615 10.1728C9.26618 9.9566 7.71428 10.8899 7.04461 12.0611C7.78345 11.764 8.49023 11.5276 9.22401 11.3627C11.5316 10.8479 13.7043 11.5183 15.0014 13.1515C15.1549 13.3459 15.2157 13.5342 15.2106 13.7908C15.1752 15.4707 15.0504 17.1459 14.9357 18.8212C14.8328 20.3144 14.6607 21.8014 14.4566 23.2853C14.2407 24.8595 14.0501 26.4351 13.8341 28.0093C13.7835 28.381 13.7819 28.7637 13.6284 29.1634L13.625 29.1619ZM8.98448 14.4239C8.96592 15.2156 9.58837 15.8409 10.4183 15.8611C11.2836 15.8829 11.9567 15.3167 11.9837 14.5483C12.0107 13.7364 11.3865 13.1064 10.533 13.0862C9.68789 13.066 9.00303 13.657 8.98616 14.4239H8.98448ZM23.3328 13.1235C22.4809 13.122 21.823 13.713 21.8163 14.4892C21.8095 15.2825 22.4792 15.9047 23.3344 15.9C24.1728 15.8953 24.8256 15.2856 24.829 14.5063C24.8324 13.7286 24.1795 13.1251 23.3328 13.1235ZM28.5147 6.04618C29.2755 5.63554 29.9148 5.12224 30.3028 4.39428C30.7245 3.601 30.6233 2.84194 30.0042 2.17464C29.3582 1.48091 28.5383 1.16671 27.5431 1.40158C26.8329 1.56801 25.7449 2.38774 25.3333 3.04881C25.4885 2.95548 25.6016 2.88549 25.7163 2.81705C26.2375 2.50751 26.7115 2.12642 27.2935 1.91022C28.0542 1.62712 28.7256 1.778 29.3194 2.28975C29.9182 2.80616 30.1122 3.40034 29.8153 4.12363C29.6179 4.60427 29.3244 5.02891 29.0039 5.44266C28.8454 5.64643 28.6784 5.84397 28.5147 6.04462V6.04618ZM4.40133 6.19395C4.38446 5.97618 4.25457 5.90308 4.17529 5.80664C3.72322 5.25601 3.27621 4.70226 3.04679 4.03186C2.83594 3.4159 2.97595 2.8746 3.46344 2.41263C3.96612 1.93666 4.54808 1.6769 5.29198 1.83711C5.9043 1.96932 6.36313 2.35041 6.87761 2.64128C7.06654 2.74861 7.21835 2.92904 7.55572 2.96326C6.95858 2.32397 6.36819 1.80444 5.5973 1.50424C4.12806 0.933387 2.32651 2.05021 2.37206 3.52167C2.41086 4.78626 3.40947 5.45511 4.40302 6.1955L4.40133 6.19395Z" fill="#A5A5A5"/>
<path d="M32.6032 6.47974C32.6926 7.20769 32.7854 7.83765 32.8478 8.47072C32.9845 9.88308 33.116 11.2954 33.2307 12.7093C33.2932 13.4886 33.3454 14.2695 33.3556 15.0488C33.3758 16.6618 33.4163 18.2748 33.1953 19.8816C32.9237 21.8554 32.5121 23.8013 31.9386 25.7208C31.8796 25.9183 31.7767 25.9556 31.5827 25.9556C28.8517 25.9525 26.1224 25.951 23.3914 25.9556C23.167 25.9556 23.0557 25.9401 23.1249 25.6788C23.5516 24.0875 24.0307 22.515 24.7695 21.0171C25.3515 19.838 26.2776 18.8861 27.1396 17.8921C28.0741 16.8142 29.0356 15.7394 29.4286 14.3737C29.766 13.2009 29.8452 11.9892 29.8942 10.779C29.9144 10.2984 29.9481 9.81775 29.9616 9.33556C29.965 9.2049 30.0207 9.11313 30.1067 9.02602C30.9096 8.2063 31.7143 7.38657 32.6032 6.47974Z" fill="#A5A5A5"/>
<path d="M4.0431 30.0348C3.40041 29.5495 2.95003 29.0425 2.57723 28.4794C2.32927 28.103 2.16396 27.6877 2.00033 27.2708C1.88563 26.9815 1.92274 26.8959 2.28035 26.8975C4.24552 26.9115 6.21069 26.9037 8.17586 26.9037C8.86915 26.9037 9.56076 26.9021 10.2541 26.9053C10.3856 26.9053 10.5543 26.857 10.6032 27.0406C10.7803 27.7079 10.9254 28.3783 10.7972 29.1669C10.3435 28.6023 9.89981 28.1418 9.43256 27.7001C9.18965 27.4699 9.10194 27.5119 9.01254 27.7965C8.8759 28.2336 8.71396 28.6629 8.54865 29.1342C7.90091 28.6971 7.36955 28.1916 6.84494 27.5943C6.63578 28.2445 6.44516 28.8418 6.24443 29.4655C5.38077 28.9056 4.63349 28.2803 3.89466 27.4979C3.86936 28.3705 4.00768 29.1451 4.04141 30.0348H4.0431Z" fill="#A5A5A5"/>
<path d="M31.4789 26.8927C31.1753 28.0733 30.5191 29.0081 29.615 29.8076C29.5576 29.859 29.5003 29.9445 29.4058 29.9025C29.3046 29.8574 29.3603 29.7672 29.3653 29.6941C29.4142 28.9817 29.4615 28.2677 29.5104 27.5507C29.3316 27.5569 29.2725 27.6969 29.1865 27.7871C28.6535 28.3502 28.0226 28.8106 27.3968 29.2788C27.2011 29.425 27.1083 29.4328 27.0358 29.1777C26.889 28.655 26.7136 28.1386 26.5331 27.5662C26.0338 28.1651 25.4957 28.655 24.8361 29.1092C24.6354 28.5524 24.4431 28.0204 24.239 27.4542C23.6267 27.9411 23.1139 28.4855 22.591 29.1341C22.4695 28.361 22.591 27.6938 22.7698 27.0296C22.8119 26.8725 22.9519 26.8927 23.0768 26.8927C25.8634 26.8927 28.6501 26.8927 31.4772 26.8927H31.4789Z" fill="#A5A5A5"/>
<path d="M16.635 29.3558C15.9703 29.3558 15.3074 29.3589 14.6428 29.3527C14.523 29.3527 14.3122 29.4134 14.3746 29.1785C14.5989 28.3386 14.8621 27.5064 15.6498 26.9495C16.4815 26.3616 17.5172 26.5358 18.1683 27.3508C18.5883 27.875 18.7722 28.4863 18.9189 29.1132C18.9763 29.3621 18.811 29.3574 18.6288 29.3574C17.9642 29.3558 17.3013 29.3574 16.6366 29.3574L16.635 29.3558Z" fill="#A5A5A5"/>
<path d="M10.5024 15.231C10.084 15.2419 9.75171 14.9401 9.75003 14.5466C9.74665 14.1562 10.0756 13.8435 10.4889 13.8435C10.8802 13.8435 11.2075 14.1422 11.2193 14.5139C11.2328 14.9121 10.9241 15.2201 10.5024 15.231Z" fill="#A5A5A5"/>
<path d="M24.0641 14.5203C24.0573 14.9076 23.7166 15.2047 23.2982 15.1923C22.8917 15.1783 22.583 14.8874 22.583 14.5141C22.583 14.1221 22.9018 13.8266 23.3286 13.8281C23.757 13.8281 24.0725 14.1252 24.0657 14.5219L24.0641 14.5203Z" fill="#A5A5A5"/>
<path d="M30.9208 35.0863C30.5948 35.0863 30.3029 35.1508 30.0452 35.2797C29.795 35.4085 29.5827 35.5943 29.4084 35.8369C29.234 36.0719 29.1013 36.3599 29.0104 36.7011C28.927 37.0422 28.8853 37.425 28.8853 37.8496C28.8853 38.4257 28.9535 38.9185 29.09 39.3278C29.234 39.7296 29.4576 40.0367 29.7609 40.2489C30.0641 40.4612 30.4507 40.5673 30.9208 40.5673C31.2543 40.5673 31.5841 40.5294 31.9101 40.4536C32.2436 40.3778 32.6037 40.2717 32.9904 40.1352V41.5794C32.6341 41.7234 32.2815 41.8295 31.9328 41.8978C31.5841 41.966 31.1937 42.0001 30.7616 42.0001C29.9277 42.0001 29.2378 41.8295 28.692 41.4884C28.1537 41.1397 27.7557 40.6545 27.498 40.0329C27.2402 39.4037 27.1113 38.6721 27.1113 37.8382C27.1113 37.2242 27.1947 36.6632 27.3615 36.1553C27.5283 35.6398 27.7709 35.1963 28.0893 34.8248C28.4153 34.4533 28.8133 34.1653 29.2833 33.9606C29.7609 33.7559 30.3067 33.6536 30.9208 33.6536C31.3226 33.6536 31.7243 33.7066 32.1261 33.8128C32.5355 33.9113 32.9259 34.0478 33.2974 34.2221L32.7402 35.6208C32.437 35.4768 32.1299 35.3517 31.8191 35.2455C31.5159 35.1394 31.2164 35.0863 30.9208 35.0863Z" fill="#A5A5A5"/>
<path d="M26.1268 41.8855H21.4531V33.7664H26.1268V35.1764H23.1702V36.9617H25.9221V38.3717H23.1702V40.4641H26.1268V41.8855Z" fill="#A5A5A5"/>
<path d="M19.746 41.8855H18.0289V35.1991H16.0389C15.9934 35.5479 15.9441 35.9269 15.8911 36.3363C15.8456 36.7456 15.7925 37.1626 15.7319 37.5871C15.6788 38.0041 15.6219 38.4021 15.5613 38.7811C15.5007 39.1526 15.44 39.4823 15.3794 39.7704C15.2808 40.2404 15.1481 40.6422 14.9814 40.9758C14.8222 41.3093 14.5985 41.5633 14.3104 41.7376C14.0299 41.912 13.6623 41.9992 13.2074 41.9992C13.0558 41.9992 12.9118 41.9878 12.7753 41.9651C12.6388 41.9423 12.51 41.912 12.3887 41.8741V40.4641C12.4872 40.4944 12.582 40.5209 12.673 40.5437C12.7715 40.5664 12.8776 40.5778 12.9914 40.5778C13.143 40.5778 13.2681 40.5285 13.3666 40.4299C13.4652 40.3314 13.5523 40.1646 13.6282 39.9296C13.704 39.687 13.7798 39.3535 13.8556 38.9289C13.8935 38.747 13.939 38.4892 13.992 38.1557C14.0451 37.8145 14.1058 37.4165 14.174 36.9617C14.2498 36.4993 14.3256 35.9989 14.4014 35.4607C14.4772 34.9149 14.5492 34.3501 14.6175 33.7664H19.746V41.8855Z" fill="#A5A5A5"/>
<path d="M11.9735 41.8855H7.2998V33.7664H11.9735V35.1764H9.01689V36.9617H11.7688V38.3717H9.01689V40.4641H11.9735V41.8855Z" fill="#A5A5A5"/>
<path d="M2.52446 33.7664C3.24465 33.7664 3.84733 33.8346 4.33252 33.971C4.82528 34.0999 5.19295 34.316 5.43554 34.6192C5.68572 34.9149 5.8108 35.3166 5.8108 35.8246C5.8108 36.1278 5.76153 36.4045 5.66297 36.6547C5.56442 36.9048 5.42038 37.1095 5.23086 37.2687C5.04892 37.4279 4.82528 37.5303 4.55994 37.5757V37.6326C4.83286 37.6857 5.07924 37.7804 5.29909 37.9169C5.51894 38.0533 5.6933 38.2504 5.82217 38.5082C5.95105 38.7659 6.01549 39.1071 6.01549 39.5316C6.01549 40.0244 5.89419 40.4489 5.6516 40.8052C5.41659 41.1539 5.07545 41.423 4.62817 41.6126C4.1809 41.7945 3.65023 41.8855 3.03617 41.8855H0V33.7664H2.52446ZM2.71777 36.9844C3.21812 36.9844 3.56305 36.9048 3.75257 36.7456C3.94968 36.5864 4.04823 36.3552 4.04823 36.052C4.04823 35.7412 3.93452 35.5175 3.70709 35.3811C3.47966 35.2446 3.11956 35.1764 2.6268 35.1764H1.71709V36.9844H2.71777ZM1.71709 38.349V40.4641H2.84286C3.35836 40.4641 3.71846 40.3655 3.92314 40.1684C4.12783 39.9637 4.23017 39.6946 4.23017 39.361C4.23017 39.1564 4.18469 38.9782 4.09372 38.8266C4.01032 38.675 3.8625 38.5575 3.65023 38.4741C3.43796 38.3907 3.14989 38.349 2.786 38.349H1.71709Z" fill="#A5A5A5"/>
</svg>
