<svg width="82" height="50" viewBox="0 0 82 50" fill="none" xmlns="http://www.w3.org/2000/svg">
<g clip-path="url(#clip0_4917_5737)">
<path d="M29.2652 47.6968C29.2538 47.7927 29.2424 47.8673 29.2264 47.9185C29.2082 47.9718 29.1876 48.057 29.158 48.1742C29.1306 48.2914 29.0849 48.3873 29.021 48.4598C28.9595 48.5344 28.8842 48.6239 28.7929 48.7305C28.7016 48.837 28.5898 48.9223 28.446 48.9904C28.3046 49.0587 28.1448 49.129 27.9691 49.1972C27.7934 49.2654 27.5767 49.3186 27.328 49.3507C27.0792 49.3826 26.8054 49.3975 26.5111 49.3975H24.7175V40.9517H26.1597V40.8345H22.0547V40.9517H23.4283V49.3975H22.0547V49.519H29.4067V47.5413H29.2812C29.2834 47.5477 29.2789 47.6009 29.2652 47.6968Z" fill="#A5A5A5"/>
<path d="M34.4591 42.4478L36.1468 46.7805H32.7374L34.4591 42.4478ZM32.7261 46.8337V46.8977H36.1922L36.4122 47.456C36.5574 47.1662 36.7615 46.8614 37.0269 46.5396C37.1018 46.448 37.1766 46.3627 37.2515 46.2839L35.092 40.8345H34.9559L31.5692 49.3975H30.3896V49.519H32.9075V49.3975H31.7053L32.7261 46.8337Z" fill="#A5A5A5"/>
<path d="M21.4253 47.6968C21.4139 47.7927 21.4026 47.8673 21.3866 47.9185C21.3683 47.9718 21.3477 48.057 21.3181 48.1742C21.2907 48.2914 21.2451 48.3873 21.1812 48.4598C21.1196 48.5344 21.0443 48.6239 20.953 48.7305C20.8617 48.837 20.7477 48.9223 20.6062 48.9904C20.4647 49.0587 20.305 49.129 20.1293 49.1972C19.9536 49.2654 19.7368 49.3186 19.4881 49.3507C19.2394 49.3826 18.9656 49.3975 18.6712 49.3975H16.8777V40.9517H18.3198V40.8345H14.2148V40.9517H15.5885V49.3975H14.2148V49.519H21.5668V47.5413H21.4413C21.4436 47.5477 21.4367 47.6009 21.4253 47.6968Z" fill="#A5A5A5"/>
<path d="M9.80371 40.9517H11.1158V49.4039H9.80371V49.519H13.7248V49.4039H12.3581V40.9517H13.7248V40.8345H9.80371V40.9517Z" fill="#A5A5A5"/>
<path d="M6.41254 40.9518H7.5642L4.9262 47.9105L2.3251 40.9518H3.4768V40.8345H0V40.9518H1.07562L4.31993 49.519H4.43945L7.69241 40.9518H8.82236V40.8345H6.41254V40.9518Z" fill="#A5A5A5"/>
<path d="M37.8024 48.5549C37.4614 48.9366 37.1441 49.1498 36.8353 49.2118L36.9167 49.4094H35.7803V49.5199H39.2112V49.4094H38.154L37.8024 48.5549Z" fill="#A5A5A5"/>
<path d="M66.6583 40.8345H64.1128V40.9518H65.3279L62.5444 47.9105L59.7992 40.9518H61.015V40.8345H57.3457V40.9518H58.4811L61.9048 49.519H62.0305L65.4659 40.9518H66.6583V40.8345Z" fill="#A5A5A5"/>
<path d="M81.1979 45.6741C81.0105 45.3551 80.7632 45.1201 80.4629 44.9648C80.1608 44.8074 79.832 44.6772 79.4741 44.5681C79.1168 44.459 78.7548 44.3645 78.3928 44.2806C78.0308 44.1966 77.702 44.098 77.4 43.9826C77.0974 43.8671 76.857 43.6908 76.669 43.4558C76.4816 43.2207 76.3891 42.9227 76.3891 42.568C76.3891 42.2553 76.4927 41.9615 76.7069 41.6907C76.921 41.42 77.1788 41.2269 77.4861 41.1115C77.7661 41.0066 78.0617 40.9541 78.3707 40.9541C79.7389 40.9541 80.5228 41.7264 80.7259 43.2732H80.8516V40.8345H80.7259C80.7259 41.0632 80.5449 41.1787 80.187 41.1787C79.9333 41.1787 79.6749 41.1262 79.4124 41.0171C79.1215 40.8974 78.7857 40.8345 78.4126 40.8345C77.9849 40.8345 77.6008 40.9184 77.2539 41.08C76.8192 41.2836 76.4793 41.5753 76.2326 41.9573C75.9852 42.3393 75.8595 42.7464 75.8595 43.1787C75.8595 43.6111 75.952 44.0098 76.1394 44.3163C76.3274 44.6248 76.5678 44.8535 76.8634 45.0046C77.1591 45.1557 77.4902 45.2817 77.8458 45.3866C78.2031 45.4915 78.5651 45.5902 78.9271 45.6846C79.2891 45.7791 79.6179 45.8882 79.9158 46.0141C80.2138 46.1401 80.4542 46.3373 80.6398 46.6038C80.8272 46.8704 80.9197 47.2041 80.9197 47.6071C80.9267 48.2325 80.6509 48.7089 80.0968 49.0279C79.6464 49.2797 79.0528 49.4035 78.3178 49.4035C77.5827 49.4035 76.9781 49.1748 76.4729 48.7194C75.9672 48.266 75.7158 47.7435 75.7158 47.1579V46.8977H75.5947V49.519H75.7158V49.4455L75.7268 49.519C75.7268 49.263 75.9363 49.1329 76.3472 49.1329C76.6207 49.1329 76.9012 49.1853 77.1882 49.2944C77.5391 49.4455 77.9185 49.519 78.3247 49.519C79.5317 49.519 80.3768 49.1895 80.8668 48.5263C81.273 48.0415 81.4761 47.477 81.4761 46.8347C81.4784 46.3793 81.3836 45.9931 81.1979 45.6741Z" fill="#A5A5A5"/>
<path d="M52.9336 40.9517H54.2457V49.4039H52.9336V49.519H56.8547V49.4039H55.4881V40.9517H56.8547V40.8345H52.9336V40.9517Z" fill="#A5A5A5"/>
<path d="M51.5858 42.1093C50.6896 41.2594 49.5951 40.8345 48.2999 40.8345H44.1133V40.9412H45.4974V42.1349C45.7255 41.9086 45.9467 41.7463 46.1678 41.6416C46.3867 41.5306 46.5965 41.4687 46.7903 41.4516V40.9476H48.1015C48.6738 40.9476 49.1687 41.0331 49.5883 41.1975C50.0078 41.3619 50.3316 41.5754 50.5642 41.8296C50.7968 42.0858 50.9792 42.4082 51.1092 42.8011C51.2391 43.1941 51.3258 43.572 51.3577 43.9329C51.392 44.2938 51.4033 44.7144 51.3965 45.1928C51.401 45.8462 51.3577 46.4142 51.2597 46.9032C51.1639 47.3922 50.9997 47.832 50.7671 48.225C50.5346 48.6178 50.1993 48.9211 49.757 49.1282C49.3146 49.3354 48.7765 49.4357 48.1403 49.4357L48.1585 49.4186H46.7903V44.1699C46.5555 44.4966 46.2705 44.8554 45.9353 45.2483C45.787 45.4212 45.6411 45.5899 45.4974 45.7522V46.9907C45.5658 46.9352 45.6365 46.9075 45.6912 46.8946L45.7346 46.884H45.7779C46.0264 46.884 46.2066 47.0569 46.2066 47.2961C46.2066 47.3965 46.1815 47.4883 46.129 47.5651C46.0014 47.768 45.8555 47.9666 45.6912 48.1524C45.6297 48.225 45.5658 48.2976 45.4974 48.368V49.408H44.1133V49.519H48.2999C49.5769 49.519 50.6645 49.0983 51.5744 48.2549C52.4819 47.4093 52.9357 46.3907 52.9357 45.1949L52.9288 45.1842C52.9288 43.9841 52.4819 42.9592 51.5858 42.1093Z" fill="#A5A5A5"/>
<path d="M73.1633 45.4451C73.1633 45.8433 73.1569 46.1606 73.1458 46.3991C73.1353 46.6376 73.1027 46.9294 73.0544 47.268C73.005 47.6066 72.9351 47.8835 72.8374 48.0943C72.739 48.3051 72.5999 48.5181 72.4154 48.7247C72.2304 48.9312 72.004 49.0909 71.7386 49.2017C71.3533 49.3337 70.964 49.404 70.5706 49.404C70.2074 49.4104 69.8286 49.3401 69.4282 49.2017C69.1628 49.0909 68.9347 48.9376 68.7519 48.7353C68.5669 48.533 68.4278 48.3264 68.33 48.1156C68.2322 47.9026 68.156 47.6279 68.1036 47.2893C68.0495 46.9507 68.0163 46.659 68.0059 46.4162C67.9948 46.1734 67.9884 45.854 67.9884 45.4621L67.9995 45.4515V45.049C67.9995 44.5357 68.0163 44.0906 68.0536 43.7073C68.0926 43.3261 68.1624 42.9492 68.2712 42.5744C68.3801 42.1995 68.5407 41.8865 68.7583 41.6416C68.976 41.3988 69.2454 41.2221 69.5696 41.1113C69.9159 41.0112 70.2505 40.958 70.577 40.958C70.9401 40.958 71.2905 41.0112 71.6321 41.122C71.9516 41.2391 72.217 41.418 72.4282 41.6629C72.6395 41.9057 72.796 42.2145 72.8979 42.585C73.0003 42.9556 73.0719 43.3325 73.1091 43.7073C73.1458 44.0843 73.1633 44.5293 73.1633 45.0426V45.4451ZM72.6133 41.4542C72.0017 41.041 71.3254 40.8345 70.5793 40.8345C70.0003 40.8345 69.4631 40.9623 68.9649 41.2157C68.4668 41.4712 68.0512 41.7992 67.7143 42.2059C67.3791 42.6148 67.1184 43.0748 66.9356 43.5944C66.7505 44.1141 66.6592 44.6443 66.6592 45.1789C66.6592 45.9264 66.8221 46.6249 67.1463 47.2829C67.4704 47.9409 67.936 48.4755 68.543 48.8929C69.15 49.3124 69.8263 49.519 70.5729 49.519L70.5793 49.4934C71.1642 49.4934 71.706 49.3657 72.2019 49.1122C72.7 48.8567 73.1115 48.5287 73.442 48.122C73.7726 47.7131 74.0316 47.2531 74.2207 46.7398C74.4098 46.2266 74.5012 45.7006 74.5012 45.1661C74.5012 44.4186 74.3383 43.7201 74.0141 43.062C73.6899 42.4019 73.2244 41.8673 72.6133 41.4542Z" fill="#A5A5A5"/>
<path d="M38.3927 46.6253C38.336 46.7587 38.2356 46.9401 38.0981 47.1674C37.9737 47.3717 37.8689 47.5448 37.7773 47.6845C37.6943 47.8179 37.6245 47.9159 37.5678 47.9784C37.2885 48.3329 37.0528 48.5081 36.8651 48.5081C36.7407 48.5081 36.6796 48.4205 36.6796 48.2495C36.6796 47.9201 36.8738 47.5114 37.2601 47.0235C37.6463 46.5356 38.0042 46.2938 38.3338 46.2938C38.4167 46.2938 38.4604 46.3063 38.4691 46.3292L38.4822 46.3417C38.4909 46.3417 38.4953 46.3501 38.4953 46.3667C38.4909 46.4063 38.4582 46.4918 38.3927 46.6253ZM39.6257 44.0461C40.1277 42.7659 40.5838 42.1258 40.994 42.1258C41.1425 42.1258 41.2167 42.2134 41.2167 42.3843C41.2167 43.1078 40.4179 44.5006 38.8248 46.5669C39.0212 45.735 39.2897 44.8926 39.6257 44.0461ZM40.9722 46.6962C41.2014 46.3355 41.3825 46.1541 41.5156 46.1541C41.6138 46.1541 41.6641 46.202 41.6641 46.2958C41.6641 46.4835 41.5288 46.7045 41.2559 46.9568C41.0268 47.1757 40.8042 47.33 40.5903 47.4155C40.6383 47.2341 40.7649 46.9964 40.9722 46.6962ZM43.4164 46.4251C43.5409 46.079 43.746 45.6432 44.0319 45.1178C44.2784 44.6633 44.5338 44.2421 44.7957 43.8564C45.0597 43.4623 45.2889 43.1412 45.4875 42.891C45.8323 42.4511 46.1247 42.2301 46.3626 42.2301C46.4696 42.2301 46.5219 42.3051 46.5219 42.4532C46.5219 42.5637 46.4848 42.7325 46.4106 42.9598C46.2535 43.431 45.7777 44.1921 44.979 45.2471C44.6255 45.7266 44.2872 46.1457 43.9685 46.5085C43.6565 46.863 43.3859 47.134 43.1545 47.3217C43.2157 47.0694 43.3008 46.7712 43.4164 46.4251ZM44.7477 48.4643C44.9288 48.3079 45.0881 48.1411 45.2278 47.9701C45.3762 47.7971 45.5072 47.6156 45.6228 47.428C45.6403 47.403 45.649 47.3738 45.649 47.3342C45.649 47.28 45.6228 47.2508 45.5748 47.2508C45.542 47.2591 45.5137 47.282 45.4875 47.3217C45.158 47.7846 44.8371 48.1453 44.5251 48.4059C44.2218 48.6582 43.9533 48.7833 43.7242 48.7833C43.495 48.7833 43.3335 48.7165 43.2441 48.5831C43.1524 48.4413 43.1087 48.237 43.1087 47.9701V47.7825C43.1175 47.7116 43.1262 47.6448 43.1327 47.5823C43.495 47.2591 43.8682 46.8984 44.2545 46.4981C44.6407 46.0894 45.0445 45.6349 45.4635 45.1303C46.5241 43.8585 47.0544 42.9515 47.0544 42.4094C47.0544 42.3072 47.0086 42.2009 46.9191 42.0904C46.8361 41.9882 46.7423 41.9381 46.6354 41.9381C46.4783 41.9381 46.3015 41.9882 46.1051 42.0904C45.9087 42.1842 45.7014 42.3468 45.4897 42.5741C45.3588 42.7159 45.1973 42.8993 45.0096 43.1287C44.8197 43.356 44.6276 43.6082 44.4291 43.8835C44.2392 44.1504 44.0668 44.4214 43.9118 44.6966C43.7482 44.9948 43.567 45.3221 43.3684 45.6745C43.172 46.029 43.0018 46.3897 42.8622 46.7587C42.7661 47.0298 42.705 47.2946 42.6788 47.5573C42.5566 47.7074 42.4213 47.87 42.2663 48.0452C42.094 48.2328 41.9041 48.3954 41.699 48.5289C41.4938 48.6623 41.2668 48.7291 41.0202 48.7291C40.8238 48.7291 40.6798 48.654 40.5881 48.5059C40.4965 48.3579 40.4528 48.1911 40.4528 48.0118C40.4528 47.8784 40.4703 47.7595 40.503 47.6573C40.6427 47.6094 40.7955 47.5323 40.9591 47.4218C41.1316 47.3113 41.2974 47.1861 41.4523 47.0444C41.8387 46.6982 42.0329 46.4043 42.0329 46.1603C42.0329 46.0498 42.0001 45.9685 41.9346 45.9122C41.8779 45.858 41.8081 45.8288 41.7252 45.8288C41.5113 45.8288 41.3018 45.8997 41.0966 46.0415C40.8915 46.1833 40.7016 46.3646 40.5292 46.5836C40.3655 46.8025 40.2346 47.0381 40.1342 47.2904C40.0578 47.478 40.012 47.6553 39.9946 47.8242C39.9422 47.8825 39.8854 47.9472 39.8243 48.0201C39.4948 48.3975 39.2438 48.5852 39.0714 48.5852C38.8074 48.5852 38.6764 48.287 38.6764 47.6907C38.6764 47.4384 38.7004 47.1799 38.7506 46.913C40.7169 44.705 41.699 43.1892 41.699 42.3656C41.699 41.9882 41.5265 41.8005 41.1817 41.8005C40.6471 41.8005 40.1015 42.351 39.5406 43.4498C39.3682 43.7876 39.2067 44.1524 39.0605 44.5465C38.9121 44.9406 38.7681 45.3638 38.6284 45.8184C38.5978 45.8163 38.5673 45.8142 38.5367 45.8142C38.3119 45.8142 38.0828 45.8893 37.8515 46.0415C37.5874 46.2062 37.3212 46.4585 37.0506 46.7962C36.5312 47.4322 36.2715 47.9952 36.2715 48.481C36.2715 48.7478 36.3981 48.8813 36.6534 48.8813C37.0898 48.8813 37.6289 48.335 38.2683 47.2445C38.2181 47.5031 38.1941 47.7324 38.1941 47.9284C38.1941 48.5498 38.408 48.8604 38.8358 48.8604C39.2176 48.8604 39.6039 48.6227 39.9946 48.1494C40.0229 48.4142 40.1233 48.6081 40.2935 48.7311C40.4987 48.8813 40.7365 48.9543 41.0094 48.9543C41.3127 48.9543 41.5811 48.875 41.8103 48.7186C42.0394 48.5623 42.2467 48.3725 42.4257 48.1536C42.5086 48.0514 42.5872 47.9535 42.6635 47.8596C42.6635 47.9263 42.6679 47.993 42.6745 48.0598C42.6919 48.1306 42.7028 48.2016 42.7116 48.2724C42.8185 48.7833 43.0934 49.0376 43.5386 49.0376C43.7351 49.0376 43.9336 48.9876 44.13 48.8855C44.3374 48.777 44.5447 48.6394 44.7477 48.4643Z" fill="#A5A5A5"/>
</g>
<path d="M40.5898 0.000244143C36.7808 0.000177644 32.3115 1.31396 31.4794 6.31584C26.4775 7.14791 25.461 11.619 25.4609 15.4253C25.461 19.4711 26.9513 23.2903 31.6775 24.3364C32.7236 29.0626 36.6845 30.5536 40.5899 30.5536C44.3969 30.5536 48.8661 29.5364 49.6981 24.5345C54.7001 23.7024 56.0143 19.2316 56.0143 15.4252C56.0143 11.2224 54.2262 7.56007 49.5 6.51396C48.4539 1.78777 44.7425 0.000316155 40.5898 0.000244143ZM40.5899 2.96665C45.085 2.96665 47.4122 2.96665 48.812 6.38531C48.106 6.27267 47.3356 6.20982 46.4891 6.20607L41.3152 6.18302L41.3176 6.7229L42.9823 6.73031L42.9983 10.3047L38.1339 10.2831L38.1207 6.72235L39.808 6.73007L39.8056 6.19018L34.0016 6.16434C33.5604 6.16238 32.5455 6.18508 32.14 6.22653C33.2186 2.51104 37.0272 2.96665 40.5899 2.96665ZM49.0155 6.99848C49.1841 7.62529 49.2629 8.31823 49.2661 9.07249L49.2717 10.3323L45.6972 10.3164L45.6813 6.74195L46.9411 6.74757C47.6956 6.75129 48.3885 6.83013 49.0155 6.99848ZM43.0101 13.0039L43.0318 17.8682L38.1674 17.8465L38.1458 12.9822L43.0101 13.0039ZM35.4344 10.2709L31.8513 10.2576L31.8466 9.20018C31.8436 8.53636 31.8981 7.35743 31.9971 6.83399C32.5208 6.73472 33.6995 6.68049 34.3634 6.68345L35.4207 6.68814L35.4344 10.2709ZM28.1306 15.4252C28.1306 11.8614 27.6744 8.05526 31.3899 6.97632C31.3484 7.38176 31.3259 8.39651 31.3277 8.83792L31.3536 14.6418L31.8934 14.6443L31.8857 12.957L35.4464 12.9702L35.4681 17.8345L31.8936 17.8186L31.8862 16.1539L31.3464 16.1514L31.3694 21.3253C31.3732 22.1718 31.436 22.9422 31.5486 23.6482C27.5377 22.5445 28.1306 19.9953 28.1306 15.4252ZM35.4801 20.5338L35.496 24.1082L34.2362 24.1026C33.4822 24.0993 32.789 24.0203 32.1622 23.8521C31.9936 23.2253 31.9148 22.5323 31.9117 21.7781L31.906 20.5183L35.4801 20.5338ZM40.5893 27.8839C36.0167 27.8839 33.7673 27.2906 32.3655 24.4651C33.0715 24.5777 33.8419 24.6405 34.6884 24.6443L39.8623 24.6673L39.8599 24.1275L38.1952 24.1201L38.1793 20.5457L43.0436 20.5673L43.0568 24.128L41.3695 24.1203L41.3719 24.6602L47.1759 24.686C47.6171 24.688 48.632 24.6653 49.0375 24.6238C47.7089 28.1805 43.8529 27.8839 40.5893 27.8839ZM45.7431 20.5795L49.3262 20.5928L49.3309 21.6502C49.3339 22.314 49.2796 23.4927 49.1804 24.0164C48.6567 24.1157 47.478 24.1699 46.8142 24.1669L45.7568 24.1622L45.7431 20.5795ZM53.0479 15.4252C53.0479 18.9891 53.5031 22.7951 49.7876 23.874C49.8291 23.4686 49.8516 22.4538 49.8498 22.0125L49.824 16.2085L49.2841 16.2061L49.2918 17.8934L45.7311 17.8802L45.7094 13.0159L49.2839 13.0318L49.2913 14.6965L49.8311 14.6989L49.8081 9.52506C49.8043 8.6786 49.7415 7.90814 49.6289 7.20221C53.0479 8.30606 53.0479 10.9298 53.0479 15.4252Z" fill="#A5A5A5"/>
<defs>
<clipPath id="clip0_4917_5737">
<rect width="81.4756" height="9.16601" fill="white" transform="translate(0 40.8342)"/>
</clipPath>
</defs>
</svg>
