<svg width="51" height="50" viewBox="0 0 51 50" fill="none" xmlns="http://www.w3.org/2000/svg">
<g clip-path="url(#clip0_4917_5672)">
<path d="M19.902 47.7778H19.288V48.7456H19.902C20.191 48.7456 20.4077 48.5664 20.4077 48.2797C20.4438 47.9569 20.2271 47.7778 19.902 47.7778ZM19.9381 48.9963H19.288V50.0001H19.0352V47.563H19.9381C20.3715 47.563 20.6966 47.8497 20.6966 48.2797C20.6966 48.71 20.3715 48.9963 19.9381 48.9963Z" fill="#5F5F5F"/>
<path d="M3.57578 36.9535L0 31.1829H1.30028L4.15368 35.7348L6.93486 31.1829H8.23513L4.69546 36.9535V42.2224H3.57578V36.9535Z" fill="#5F5F5F"/>
<path d="M17.0839 33.5485L15.1696 37.5628H18.9982L17.0839 33.5485ZM17.1922 31.1829L22.3934 42.2224H21.2014L19.4316 38.6023H14.6639L12.9302 42.2224H11.7021L16.9394 31.1829H17.1922Z" fill="#5F5F5F"/>
<path d="M29.1842 32.2581V36.0216C29.7982 36.0216 30.4483 36.0216 31.0262 36.0216C32.0014 36.0216 32.7238 35.9141 33.2295 35.5556C33.6268 35.233 33.8796 34.6954 33.8796 34.122C33.8796 33.0467 33.1211 32.2581 31.4596 32.2581H29.1842ZM28.0645 31.1829H30.6289C31.7847 31.1829 32.6877 31.2546 33.2295 31.4696C34.3853 31.8997 35.0716 32.9033 35.0716 34.122C35.0716 34.6596 34.9993 34.9821 34.7465 35.484C34.1686 36.6309 33.0489 37.0968 31.2068 37.0968L35.216 42.2224H33.8435L29.8343 37.0968H29.1842V42.2224H28.0645V31.1829Z" fill="#5F5F5F"/>
<path d="M44.3542 41.147C46.449 41.147 47.858 40.9679 48.8331 39.7493C49.4832 38.9966 49.8082 37.9929 49.8082 36.8101C49.8082 35.699 49.4832 34.6954 48.8693 33.871C47.8219 32.509 46.2325 32.2223 43.8127 32.2223H42.6929V41.111H44.3542V41.147ZM41.6094 31.1829H44.3542C45.5824 31.1829 46.7021 31.2546 47.8219 31.6847C49.8082 32.4732 51.0002 34.4087 51.0002 36.8101C51.0002 39.9641 49.0858 42.2224 45.5101 42.2224H41.6094V31.1829Z" fill="#5F5F5F"/>
<path d="M31.4598 0L20.5519 9.96417L19.7573 23.1183L19.0349 9.96417L8.12695 0L19.7934 8.38708L31.4598 0Z" fill="#5F5F5F"/>
<path d="M19.8291 23.1183L30.8815 13.2975L31.5678 0L32.1457 13.2975L43.1979 23.1183L31.4955 14.5878L19.8291 23.1183Z" fill="#A5A5A5"/>
<path d="M2.13152 50C1.77033 50 1.5175 49.8924 1.30078 49.6772L1.48138 49.4981C1.69809 49.7132 1.87869 49.7492 2.13152 49.7492C2.49271 49.7492 2.70942 49.5697 2.70942 49.2833C2.70942 49.1397 2.67331 49.0322 2.60106 48.9966C2.52883 48.9246 2.45659 48.9246 2.276 48.889L1.98704 48.853C1.80645 48.817 1.62585 48.7454 1.55362 48.6738C1.44526 48.5662 1.37302 48.4231 1.37302 48.2079C1.37302 47.8136 1.66197 47.5269 2.16764 47.5269C2.49271 47.5269 2.67331 47.5984 2.89002 47.7776L2.70942 47.9568C2.56495 47.8136 2.38435 47.742 2.13152 47.742C1.80645 47.742 1.62585 47.9212 1.62585 48.2079C1.62585 48.3155 1.66197 48.4231 1.73421 48.4947C1.80645 48.5662 1.95092 48.6022 2.05928 48.6378L2.31212 48.6738C2.52883 48.7098 2.67331 48.7454 2.74554 48.853C2.89002 48.9606 2.96225 49.1397 2.96225 49.3189C2.96225 49.7492 2.63719 50 2.13152 50Z" fill="#5F5F5F"/>
<path d="M5.41757 47.9213L4.94803 49.2115H5.851L5.41757 47.9213ZM6.13995 50.0001L5.95935 49.4626H4.87579L4.6952 50.0001H4.40625L5.30922 47.563H5.52593L6.42889 50.0001H6.13995Z" fill="#5F5F5F"/>
<path d="M8.27139 47.563H8.01855V50.0001H8.27139V47.563Z" fill="#5F5F5F"/>
<path d="M11.7386 50.0001L10.4384 48.0289V50.0001H10.1855V47.563H10.4384L11.7386 49.4982V47.563H11.9915V50.0001H11.7386Z" fill="#5F5F5F"/>
<path d="M14.5924 47.7778V50.0001H14.3396V47.7778H13.6533V47.563H15.3148V47.7778H14.5924Z" fill="#5F5F5F"/>
<path d="M22.3936 50.0001V47.563H23.9106V47.7778H22.6464V48.638H23.7299V48.8891H22.6464V49.7494H23.9106V50.0001H22.3936Z" fill="#5F5F5F"/>
<path d="M26.3668 47.7778V50.0001H26.114V47.7778H25.3916V47.563H27.0892V47.7778H26.3668Z" fill="#5F5F5F"/>
<path d="M28.751 50.0001V47.563H30.268V47.7778H29.0038V48.638H30.0512V48.8891H29.0038V49.7494H30.268V50.0001H28.751Z" fill="#5F5F5F"/>
<path d="M32.904 47.7778H32.2538V48.674H32.904C33.1929 48.674 33.3735 48.5304 33.3735 48.2437C33.4096 47.9569 33.1929 47.7778 32.904 47.7778ZM33.4096 50.0001L32.8678 48.9247H32.2899V50.0001H32.0371V47.563H32.9762C33.4096 47.563 33.6986 47.8137 33.6986 48.2437C33.6986 48.6024 33.4819 48.8172 33.1568 48.8891L33.7347 50.0001H33.4096Z" fill="#5F5F5F"/>
<path d="M36.0827 50C35.7215 50 35.4687 49.8924 35.252 49.6772L35.4325 49.4981C35.6493 49.7132 35.8299 49.7492 36.0827 49.7492C36.4439 49.7492 36.6606 49.5697 36.6606 49.2833C36.6606 49.1397 36.6245 49.0322 36.5522 48.9966C36.48 48.9246 36.4078 48.9246 36.2272 48.889L35.9382 48.853C35.7576 48.817 35.577 48.7454 35.5048 48.6738C35.3964 48.5662 35.3242 48.4231 35.3242 48.2079C35.3242 47.8136 35.6131 47.5269 36.1188 47.5269C36.4439 47.5269 36.6245 47.5984 36.8412 47.7776L36.6606 47.9568C36.5161 47.8136 36.3355 47.742 36.0827 47.742C35.7576 47.742 35.577 47.9212 35.577 48.2079C35.577 48.3155 35.6131 48.4231 35.6854 48.4947C35.7576 48.5662 35.9021 48.6022 36.0104 48.6378L36.2633 48.6738C36.48 48.7098 36.6245 48.7454 36.6967 48.853C36.8412 48.9606 36.9134 49.1397 36.9134 49.3189C36.9134 49.7492 36.5883 50 36.0827 50Z" fill="#5F5F5F"/>
<path d="M39.5864 48.8531H38.9363V49.7494H39.5864C39.8756 49.7494 40.0922 49.5698 40.0922 49.319C40.0922 49.0323 39.9114 48.8531 39.5864 48.8531ZM39.5502 47.7778H38.9002V48.6024H39.5502C39.8395 48.6024 40.0199 48.4588 40.0199 48.1721C40.0561 47.9213 39.8395 47.7778 39.5502 47.7778ZM39.6226 50.0001H38.6475V47.563H39.5502C39.9837 47.563 40.2726 47.8137 40.2726 48.2081C40.2726 48.4588 40.1284 48.674 39.9114 48.7456C40.1284 48.8172 40.3088 49.0323 40.3088 49.319C40.3449 49.7493 40.0561 50.0001 39.6226 50.0001Z" fill="#5F5F5F"/>
<path d="M42.9813 50.0001C42.4754 50.0001 42.1143 49.6774 42.1143 49.1759V47.563H42.3674V49.1759C42.3674 49.5342 42.5839 49.785 42.9451 49.785C43.3063 49.785 43.5228 49.5342 43.5228 49.1759V47.563H43.7759V49.1759C43.8121 49.6774 43.4509 50.0001 42.9813 50.0001Z" fill="#5F5F5F"/>
<path d="M46.6293 47.7778H45.9793V48.674H46.6293C46.9182 48.674 47.099 48.5304 47.099 48.2437C47.099 47.9569 46.9182 47.7778 46.6293 47.7778ZM47.099 50.0001L46.557 48.9247H45.9793V50.0001H45.7266V47.563H46.6655C47.099 47.563 47.3879 47.8137 47.3879 48.2437C47.3879 48.6024 47.1713 48.8172 46.8459 48.8891L47.424 50.0001H47.099Z" fill="#5F5F5F"/>
<path d="M50.5668 49.7134C50.3864 49.8925 50.1695 50.0001 49.9168 50.0001C49.6641 50.0001 49.4471 49.9285 49.3029 49.7494C49.0859 49.5342 49.0859 49.2831 49.0859 48.7815C49.0859 48.2797 49.0859 48.0289 49.3029 47.8137C49.4833 47.6346 49.7002 47.563 49.9168 47.563C50.3864 47.563 50.7115 47.8497 50.7838 48.2797H50.5307C50.4584 47.9569 50.2418 47.7778 49.9529 47.7778C49.8083 47.7778 49.6279 47.8497 49.5194 47.9569C49.3748 48.1005 49.339 48.2797 49.339 48.7815C49.339 49.2831 49.339 49.4626 49.5194 49.6058C49.6279 49.7134 49.7722 49.785 49.9529 49.785C50.1333 49.785 50.3141 49.7134 50.4226 49.5698C50.5307 49.4626 50.5668 49.319 50.5668 49.1399V48.9607H49.9529V48.7456H50.8196V49.1399C50.7838 49.3906 50.7115 49.5698 50.5668 49.7134Z" fill="#5F5F5F"/>
</g>
<defs>
<clipPath id="clip0_4917_5672">
<rect width="51" height="50" fill="white"/>
</clipPath>
</defs>
</svg>
