<svg width="81" height="42" viewBox="0 0 81 42" fill="none" xmlns="http://www.w3.org/2000/svg"><g opacity=".6"><path d="M19.044.355l-.04-.006h-.014c-.296.006-.686.14-.861.733-.094.3-.094.647-.087.968l.195 6.036c.006.213.134.387.316.42a.257.257 0 00.1 0 .29.29 0 00.162-.066.467.467 0 00.181-.314l.814-5.963.007-.027c.04-.3.067-.647.007-.96-.122-.607-.491-.78-.78-.82zM.594 24.22l.014.04.007.006c.127.26.417.554 1.035.467.316-.046.632-.186.921-.326l5.434-2.722c.195-.093.296-.28.248-.46a.232.232 0 00-.04-.094.44.44 0 00-.128-.12.482.482 0 00-.363-.033l-5.796 1.788-.027.013c-.29.093-.619.213-.88.4-.512.36-.512.767-.425 1.04z" fill="#fff"/><path d="M7.735 4.133l-.034.02v.007l-.007.006c-.222.194-.437.54-.195 1.114.121.294.343.56.552.8l4.02 4.536c.142.16.35.214.512.127a.41.41 0 00.08-.06.382.382 0 00.088-.153.445.445 0 00-.06-.354L9.49 5.06l-.014-.027c-.161-.253-.363-.54-.612-.747-.484-.407-.88-.307-1.13-.153zm-6.64 8.893l-.014.04v.013c-.067.287-.027.694.511 1.007.276.16.612.254.922.32l5.95 1.275c.21.046.41-.034.492-.2.013-.034.026-.067.026-.1a.315.315 0 00-.026-.174.51.51 0 00-.263-.253l-5.642-2.222-.026-.013c-.283-.107-.62-.22-.942-.24-.618-.033-.88.28-.988.547zm23.052 11.136h-5.743l5.306-8.357h.444v8.357h-.007zm5.305 0V8.474H23.79L12.575 24.343v4.369h11.163v4.415h5.715v-4.416h1.412v-4.549h-1.412z" fill="#FFF"/><path d="M36.85 27.971l.068-17.57c0-1.38-.39-1.867-1.701-1.9l-4.358-.027v15.688h1.399v4.55h-1.399v4.415h13.49v-5.163H36.85v.007zm8.771 5.156h5.205V16.572c0-.947-.094-1.835-1.688-1.815-1.587.02-3.517 0-3.517 0v18.37zm0-20.85h5.205V8.473H45.62v3.802zm15.716-.517h.41V7.99h-.578c-3.013 0-7.02.574-7.02 5.537v1.227h-2.126v3.802h2.125v14.567h5.205V18.557h2.394v-3.802h-2.394v-.987c0-1.481 1.022-2.008 1.984-2.008zm5.216 10.333l.06-.287c.27-1.267 1.534-3.415 4.553-3.415 3.013 0 4.277 2.148 4.552 3.415l.06.287h-9.225zm14.364 2.068c0-5.73-4.21-10.052-9.791-10.052-5.36 0-9.724 4.435-9.724 9.885 0 5.376 4.405 9.745 9.825 9.745 1.93 0 3.752-.573 5.272-1.654 1.506-1.02 2.757-2.528 3.637-4.389h-5.332c-.76.927-1.735 1.768-3.57 1.768-2.462 0-4.345-1.514-4.688-3.769l-.04-.273h14.316c.047-.347.095-.648.095-1.261zm-2.11 8.679a1.022 1.022 0 01.484-.887.935.935 0 01.498-.14c.181 0 .343.047.498.14a.912.912 0 01.356.374c.088.16.128.333.128.514 0 .186-.047.36-.135.52a.926.926 0 01-.363.374.922.922 0 01-.49.133.936.936 0 01-.499-.14 1.005 1.005 0 01-.356-.374 1.182 1.182 0 01-.121-.514zm.174 0c0 .154.034.294.101.428a.785.785 0 00.297.313c.127.08.268.12.416.12a.76.76 0 00.417-.12.887.887 0 00.297-.313.933.933 0 00.1-.428.932.932 0 00-.1-.427.784.784 0 00-.297-.313.76.76 0 00-.417-.12.808.808 0 00-.41.113.744.744 0 00-.296.314.884.884 0 00-.108.434zm.613.107v.467h-.209v-1.167h.39c.141 0 .256.033.33.093.08.067.121.153.121.267 0 .1-.047.18-.148.233a.222.222 0 01.114.12c.02.054.034.114.034.194 0 .073 0 .127.007.16 0 .034.006.06.02.08v.02h-.215a.992.992 0 01-.02-.267c0-.066-.014-.12-.048-.153-.033-.033-.08-.047-.154-.047h-.222zm0-.187h.174a.357.357 0 00.175-.04.124.124 0 00.068-.113c0-.067-.014-.107-.047-.14-.034-.027-.095-.04-.175-.04h-.195v.334zm-54.998 4.901v2.188h-.227v-2.188h.227zm.596 0v.203h-1.419v-.203h1.42zm2.068.959v.201h-1.09v-.201h1.09zm-1.049-.959v2.188h-.234v-2.188h.234zm1.25 0v2.188h-.234v-2.188h.235zm2.099 1.987v.201h-.982v-.201h.982zm-.933-1.987v2.188h-.23v-2.188h.23zm.805.957v.203h-.854v-.203h.854zm.116-.957v.203h-.97v-.203h.97zm2.18 0v2.188h-.23v-2.188h.23zm1.046 0h.237l.76 1.849.757-1.849h.239l-.905 2.188h-.185l-.903-2.188zm-.077 0h.21l.032 1.29v.898h-.242v-2.188zm1.936 0h.21v2.188h-.241v-.898l.031-1.29zm1.252 0h.238l.759 1.849.758-1.849h.238l-.904 2.188h-.185l-.904-2.188zm-.076 0h.21l.032 1.29v.898h-.242v-2.188zm1.936 0h.21v2.188h-.242v-.898l.032-1.29zm2.215 0h.229v1.54a.74.74 0 01-.092.396.54.54 0 01-.243.216.809.809 0 01-.328.066.836.836 0 01-.338-.066.527.527 0 01-.238-.216.78.78 0 01-.087-.395v-1.54h.229v1.54c0 .12.018.216.054.285a.332.332 0 00.153.148.55.55 0 00.227.043.553.553 0 00.227-.043.322.322 0 00.152-.148.607.607 0 00.056-.285v-1.54zm2.783 0v2.188H42.5l-1.172-1.768v1.768h-.244v-2.188h.243l1.176 1.772v-1.772h.24zm2.102 1.987v.201h-.982v-.201h.982zm-.934-1.987v2.188h-.23v-2.188h.23zm.806.957v.203h-.854v-.203h.854zm.116-.957v.203h-.97v-.203h.97zm2.933 1.64a.461.461 0 00-.022-.145.274.274 0 00-.07-.116.505.505 0 00-.137-.098 1.551 1.551 0 00-.22-.093 1.759 1.759 0 01-.246-.104.865.865 0 01-.188-.132.53.53 0 01-.12-.173.593.593 0 01-.04-.226.541.541 0 01.368-.54.708.708 0 01.253-.044.6.6 0 01.57.333c.051.1.077.209.077.325h-.229a.564.564 0 00-.046-.234.367.367 0 00-.139-.16.414.414 0 00-.23-.06.433.433 0 00-.222.05.322.322 0 00-.13.136.418.418 0 00-.019.324.33.33 0 00.078.111.61.61 0 00.136.097c.056.029.123.057.201.084.103.033.193.07.27.111a.71.71 0 01.187.141c.05.052.087.113.111.18a.659.659 0 01.038.23c0 .09-.016.17-.047.243a.505.505 0 01-.13.181.585.585 0 01-.202.116.821.821 0 01-.511.002.632.632 0 01-.385-.33.67.67 0 01-.06-.293h.232c0 .083.012.153.037.211a.402.402 0 00.253.224.589.589 0 00.395-.021.319.319 0 00.138-.131.392.392 0 00.049-.199zm1.102-1.64l.582 1.14.585-1.14h.273l-.738 1.368v.82h-.24v-.82l-.738-1.368h.276zm3.152 1.64a.461.461 0 00-.022-.145.274.274 0 00-.07-.116.505.505 0 00-.137-.098 1.551 1.551 0 00-.22-.093 1.753 1.753 0 01-.246-.104.878.878 0 01-.188-.132.53.53 0 01-.12-.173.595.595 0 01-.04-.226c0-.086.014-.164.043-.235a.535.535 0 01.128-.185.565.565 0 01.197-.12.705.705 0 01.253-.044.599.599 0 01.57.333c.051.1.077.209.077.325h-.229a.559.559 0 00-.046-.234.369.369 0 00-.138-.16.415.415 0 00-.232-.06.434.434 0 00-.22.05.322.322 0 00-.132.136.418.418 0 00-.018.324.33.33 0 00.078.111.62.62 0 00.136.097c.056.029.123.057.201.084.103.033.193.07.269.111a.718.718 0 01.188.141.5.5 0 01.111.18.658.658 0 01.038.23c0 .09-.016.17-.047.243a.498.498 0 01-.13.181.583.583 0 01-.202.116.822.822 0 01-.511.002.634.634 0 01-.385-.33.67.67 0 01-.06-.293h.232c0 .083.012.153.037.211a.402.402 0 00.253.224.59.59 0 00.173.025.487.487 0 00.222-.046.317.317 0 00.138-.131.392.392 0 00.048-.199zm1.707-1.64v2.188h-.228v-2.188h.227zm.596 0v.203h-1.419v-.203h1.419zm1.97 1.987v.201h-1.024v-.201h1.024zm-.974-1.987v2.188h-.233v-2.188h.233zm.842.959v.201h-.892v-.201h.892zm.12-.959v.203h-1.012v-.203h1.012zm.897 0h.238l.759 1.849.757-1.849h.24l-.905 2.188h-.186l-.903-2.188zm-.076 0h.21l.032 1.29v.898h-.242v-2.188zm1.935 0h.21v2.188h-.241v-.898l.031-1.29zm20.991-.059v.536h-.12v-.535h.12zm.13 0v.096h-.377v-.096h.378zm.165 0h.099l.094.37.094-.37h.094l-.147.536h-.082l-.152-.535zm-.053 0h.1l.017.388v.148h-.118v-.535zm.393 0h.1v.536h-.118v-.148l.018-.388zm-18.567 1.01a3.675 3.675 0 00-.296.406c-.086.14-.154.287-.203.443-.016.058-.03.117-.043.179a.844.844 0 00-.019.178.474.474 0 00.13.327.64.64 0 00.326.166 2.606 2.606 0 00.843.006 4.6 4.6 0 00.474-.099 3.68 3.68 0 00.412-.123c.136-.045.267-.102.394-.172.025-.012.047-.014.068-.006.02.008.037.02.05.037.011.02.016.043.011.067a.074.074 0 01-.043.056l-.092.043a4.2 4.2 0 01-1.059.338c-.164.033-.33.056-.498.068a2.081 2.081 0 01-.505-.025 1.135 1.135 0 01-.375-.129.58.58 0 01-.259-.283.589.589 0 01-.055-.221c-.004-.074 0-.15.012-.228a1.42 1.42 0 01.056-.228 2.73 2.73 0 01.37-.702 5.81 5.81 0 01.825-.886 8.73 8.73 0 01.503-.4 7.82 7.82 0 011.508-.88 2.79 2.79 0 01.954-.252.837.837 0 01.222.018.334.334 0 01.27.345.733.733 0 01-.061.252c-.037.086-.082.17-.135.253l-.136.197a.091.091 0 01-.061.043.18.18 0 01-.068-.013.112.112 0 01-.037-.049c-.008-.02-.004-.043.012-.068.066-.094.125-.184.179-.27.033-.058.063-.12.092-.185a.38.38 0 00.037-.21.125.125 0 00-.092-.11.724.724 0 00-.154-.03 1.291 1.291 0 00-.431.048 4.056 4.056 0 00-.412.142 5.58 5.58 0 00-.622.308 9.845 9.845 0 00-.739.467c-.25.177-.496.368-.738.573a5.779 5.779 0 00-.615.609zm5.385.522c.025-.012.045-.014.062-.006a.078.078 0 01.036.043.1.1 0 01.007.062c-.004.02-.019.039-.043.055a2.438 2.438 0 01-.505.258 4.19 4.19 0 01-.284.1c-.094.028-.18.047-.258.055-.12.012-.238.016-.357.012a.75.75 0 01-.333-.092.827.827 0 01-.35.209.509.509 0 01-.136.019.249.249 0 01-.123-.031.177.177 0 01-.08-.105.287.287 0 01-.012-.166.46.46 0 01.067-.16.528.528 0 01.111-.142.75.75 0 01.123-.11.37.37 0 01.493.067.083.083 0 01.024.062.164.164 0 01.031.141.407.407 0 01-.03.074.504.504 0 00.196.062c.074.004.146.006.216.006.103 0 .205-.012.308-.037a2.95 2.95 0 00.301-.099c.099-.04.193-.086.284-.135l.252-.142zm-2.1.542a.73.73 0 00.154-.068.887.887 0 00.136-.11.228.228 0 01-.037-.13.18.18 0 01.037-.11.178.178 0 00-.16.03.536.536 0 00-.135.117c-.025.033-.05.07-.074.111a.17.17 0 00-.025.123c.004.033.016.05.037.05.02 0 .043-.005.068-.013z" fill="#FFF"/><path d="M70.928 39.145c.029-.016.053-.023.074-.018a.083.083 0 01.055.03c.013.013.017.03.013.05a.076.076 0 01-.043.049 5.216 5.216 0 01-.53.252 4.79 4.79 0 01-.53.172c-.167.046-.33.076-.485.093-.152.016-.29.014-.413-.006a.49.49 0 01-.197-.068.278.278 0 01-.11-.172.325.325 0 010-.154.579.579 0 01.055-.148.286.286 0 00-.055.043 8.725 8.725 0 00-.258.203 2.515 2.515 0 01-.198.154c-.037.029-.082.06-.135.093-.054.028-.103.028-.148 0a.11.11 0 01-.061-.068.396.396 0 010-.099.61.61 0 01.03-.092l.043-.086.05-.074a.498.498 0 00.043-.08.708.708 0 00-.173.092 11.2 11.2 0 01-.153.105l-.185.135a3.677 3.677 0 01-.185.123.985.985 0 01-.067.037.293.293 0 01-.08.013.099.099 0 01-.062-.019c-.02-.016-.033-.043-.037-.08a.27.27 0 01.062-.178 2.87 2.87 0 01.153-.228l.019-.019a.309.309 0 01.03-.043c.017-.02.036-.03.056-.03.025 0 .043.008.055.024a.083.083 0 01.031.056c.008.02.004.043-.012.067l-.037.056-.025.024-.018.037a.408.408 0 01-.03.062c.094-.066.188-.134.282-.203.095-.07.195-.127.302-.173l.08-.024a.181.181 0 01.08-.006c.029 0 .053.008.074.024.02.013.035.035.043.068a.265.265 0 01-.043.19 1.702 1.702 0 00-.111.21c.05-.033.096-.068.141-.105a5.948 5.948 0 00.308-.246c.058-.045.117-.086.179-.123.04-.02.088-.041.141-.061a.147.147 0 01.148.018c.053.041.06.088.018.142a3.88 3.88 0 00-.116.172c-.041.07-.052.133-.031.19.016.046.053.077.11.093a.62.62 0 00.154.025 3.1 3.1 0 00.794-.117c.292-.082.593-.21.905-.382z" fill="#FFF"/><path d="M73.23 39.127c.028-.004.05.002.067.018a.058.058 0 01.024.05.11.11 0 01-.018.055c-.012.017-.033.027-.062.03a7.07 7.07 0 00-.83.167c-.28.07-.55.146-.813.228a1.172 1.172 0 01-.338.289.249.249 0 01-.123.03c-.041.005-.076-.014-.105-.055a.16.16 0 01-.025-.104.166.166 0 01.056-.093.457.457 0 01.129-.08l.142-.055.092-.037a.7.7 0 00.043-.074c.016-.028.018-.053.006-.074-.008-.02-.025-.026-.05-.018a.197.197 0 00-.08.037.554.554 0 00-.08.055l-.073.062a2.1 2.1 0 00-.197.184 4.22 4.22 0 00-.178.204c-.132.147-.257.3-.376.455-.119.156-.238.314-.357.474l-.24.332-.074.099a.188.188 0 01-.061.043c-.02.008-.041.004-.062-.012a.096.096 0 01-.05-.05c-.007-.04.007-.084.044-.129a1.18 1.18 0 00.086-.117l.332-.468c.107-.151.214-.305.32-.461l.308-.456c.103-.156.191-.318.265-.486.012-.025.029-.039.05-.043.02-.004.038 0 .055.012a.13.13 0 01.049.056c.012.02.012.043 0 .067a2.062 2.062 0 01-.13.253l.074-.074a3.88 3.88 0 01.173-.136.434.434 0 01.197-.092.18.18 0 01.19.068c.054.057.07.137.05.24a10.332 10.332 0 011.57-.394z" fill="#FFF"/><path d="M75.568 39.14a.066.066 0 01.061-.007c.02.004.037.014.05.03.012.017.016.038.012.063 0 .02-.012.036-.037.049a7.392 7.392 0 01-.85.437 2.48 2.48 0 01-.308.104 1.562 1.562 0 01-.264.037 1.641 1.641 0 01-.148.007c-.05 0-.1-.007-.154-.019a.454.454 0 01-.265-.222.671.671 0 01-.055-.16 3.71 3.71 0 01-.222.216.833.833 0 01-.252.154c-.05.02-.1.03-.154.03-.057 0-.103-.028-.135-.086a.206.206 0 01-.019-.092.35.35 0 01.019-.11.831.831 0 01.08-.19.662.662 0 01.32-.266.51.51 0 01.203-.031.3.3 0 01.19.086.092.092 0 01.087.006c.033.017.047.041.043.074a.375.375 0 000 .136c.012.049.03.096.056.141a.536.536 0 00.104.111.39.39 0 00.16.055.77.77 0 00.302-.03 4.1 4.1 0 00.412-.142 3.957 3.957 0 00.763-.382zm-2.555.547c.024 0 .06-.014.105-.043.04-.029.086-.061.135-.098a3.443 3.443 0 00.271-.253l-.037-.018a.268.268 0 00-.271.049.688.688 0 00-.135.16.444.444 0 00-.08.185c0 .012.004.018.012.018z" fill="#FFF"/><path d="M77.944 39.149c.025-.017.047-.02.068-.013.02.005.034.017.043.037.008.017.008.037 0 .062a.091.091 0 01-.043.062 7.463 7.463 0 01-.493.27 5.234 5.234 0 01-.265.13 2.65 2.65 0 01-.246.092 3.4 3.4 0 01-.32.086.878.878 0 01-.326.013.435.435 0 01-.173-.062.232.232 0 01-.104-.148.276.276 0 010-.141.823.823 0 01.049-.142l-.203.117-.197.123a2.236 2.236 0 01-.197.105c-.037.02-.08.043-.13.068a.234.234 0 01-.147.012c-.041-.012-.066-.033-.074-.062a.176.176 0 010-.092.2.2 0 01.037-.092.454.454 0 01.049-.08c.025-.033.06-.074.105-.123l.166-.204a.093.093 0 01.074-.037c.028 0 .053.019.074.056.016.029.012.057-.013.086-.02.029-.039.053-.055.074a1.682 1.682 0 00-.08.098 1.72 1.72 0 00-.08.099l-.055.074c.11-.045.22-.103.326-.173.11-.07.217-.135.32-.197a3.17 3.17 0 00.13-.074c.044-.028.09-.053.135-.073a.354.354 0 01.061-.019.066.066 0 01.062.006.094.094 0 01.043.068c.004.025 0 .05-.013.074a1.179 1.179 0 01-.141.197.303.303 0 00-.08.221c0 .03.014.052.043.068a.26.26 0 00.08.025h.086c.099 0 .195-.013.29-.037a7.53 7.53 0 00.289-.092 6.53 6.53 0 00.702-.332c.078-.046.145-.09.203-.13z" fill="#FFF"/><path d="M80.588 39.133c.033-.008.058-.006.074.006.02.012.033.029.037.05.004.02 0 .04-.012.06a.075.075 0 01-.05.044l-.295.092c-.316.107-.627.222-.935.345-.308.123-.61.258-.905.406l-.061.11a4.574 4.574 0 01-.67.966 3.439 3.439 0 01-.278.26.721.721 0 01-.333.172.307.307 0 01-.264-.062.315.315 0 01-.13-.24.334.334 0 01.031-.166.636.636 0 01.086-.154.86.86 0 01.117-.129c.041-.041.08-.078.117-.11a3.84 3.84 0 01.443-.327c.156-.098.314-.19.474-.277l.326-.166a1.02 1.02 0 00.111-.234 3.02 3.02 0 00.093-.29 5.708 5.708 0 01-.332.203.931.931 0 01-.185.08.246.246 0 01-.185-.024c-.057-.032-.09-.074-.099-.123a.337.337 0 01.019-.166.664.664 0 01.074-.166c.033-.053.061-.097.086-.13a.076.076 0 01.062-.03.077.077 0 01.061.012c.02.008.035.023.043.043.008.02.004.043-.012.068l-.056.086-.036.062a.485.485 0 00-.068.153c-.004.025.004.041.024.05a.083.083 0 00.068-.006l.074-.031c.037-.02.072-.041.105-.062a2.36 2.36 0 00.104-.061l.148-.105a.414.414 0 01.166-.08c.045-.008.076-.002.093.019.016.02.026.049.03.086a.307.307 0 01-.006.104 1.802 1.802 0 00-.018.093.851.851 0 01-.025.098l-.025.074-.03.074c-.009.024-.02.055-.037.092.32-.152.646-.291.978-.418.333-.128.667-.245 1.004-.351zm-2.677 1.643c.115-.16.218-.318.308-.474l-.277.148c-.14.082-.277.166-.412.252a2.67 2.67 0 00-.382.308.893.893 0 00-.105.11.505.505 0 00-.086.13.17.17 0 00.006.16c.033.053.078.078.136.074a.344.344 0 00.117-.043.729.729 0 00.11-.068c.12-.082.228-.178.327-.29a4.09 4.09 0 00.264-.331l-.006.024z" fill="#FFF"/></g></svg>