<svg width="83" height="38" viewBox="0 0 83 38" fill="none" xmlns="http://www.w3.org/2000/svg"><path d="M.162 37.31V19.928a.17.17 0 01.171-.171h1.99c.17 0 .254.244.133.364-.625.616-1.395 1.78-1.395 3.318 0 1.826.809 2.123 2.128 2.123h3.415c4.316 0 5.542-2.653 5.542-3.667 0-.829-.527-1.436-.963-1.823-.122-.108-.051-.315.112-.315h4.702c.094 0 .17.076.166.17-.041.853-.411 2.258-2.123 3.73-.978.842-2.443 1.45-3.55 1.837-.184.065-.14.348.056.348h2.446c3.167 0 2.137 2.504 1.7 3.355-.481.936-1.009 2.02-1.514 3.043-1.226 2.484.241 3.043 1.995 3.573 1.28.387 1.4.969 1.445 1.484.008.1-.07.186-.171.186h-3.385c-3.322 0-2.328-2.512-1.878-3.402.45-.89.489-.998 1.529-2.933 1.04-1.935 0-2.2-1.017-2.2H1.247a.169.169 0 00-.169.17v3.7c0 2.473.958 3.71 1.672 4.328.127.11.054.337-.115.337H.333a.171.171 0 01-.17-.171zm19.678.176h-2.243a.171.171 0 01-.171-.17V19.928a.17.17 0 01.167-.17c.526-.006 1.458-.001 2.252 0 .165.001.24.222.119.334-1.258 1.158-1.638 2.803-1.638 3.88v1.424c0 .094.077.17.171.17h13.66c.095 0 .171.102.171.007v-1.6c0-1.656-1.016-3.136-1.722-3.901-.106-.115-.026-.313.13-.313h2.228c.095 0 .171.077.171.172v17.383a.171.171 0 01-.17.172h-2.252a.173.173 0 01-.12-.296c.724-.721 1.735-1.929 1.735-4.042v-4.016a.17.17 0 00-.171-.17h-13.66a.17.17 0 00-.17.17v4.016c0 1.82.95 3.274 1.644 4.011.11.117.03.327-.131.327zm16.416-17.73h-1.808a.187.187 0 00-.19.186v17.352c0 .105.087.188.192.187 4.395-.038 6.047-1.417 8.128-7.996 1.625-5.139 4.627-6.425 6.078-6.337a.175.175 0 01.163.179V34.05c0 1.317-.724 2.437-1.297 3.065-.12.132-.03.367.149.367h1.827c.105 0 .19-.082.19-.187v-17.35a.187.187 0 00-.19-.187c-2.637.058-5.254 1.367-7.168 8.404-1.337 4.913-4.052 5.906-6.981 5.946a.187.187 0 01-.19-.187v-9.852c0-1.84.655-3.195 1.261-3.907.12-.14.021-.406-.164-.406zm32.418 0h-1.808a.187.187 0 00-.19.186v17.352c0 .105.087.188.192.187 4.395-.038 6.047-1.417 8.128-7.996 1.625-5.139 4.627-6.421 6.078-6.333a.175.175 0 01.162.179V34.05c0 1.317-.723 2.437-1.297 3.065-.12.132-.029.367.15.367h1.826c.105 0 .19-.082.19-.187v-17.35a.187.187 0 00-.19-.187c-2.637.058-5.253 1.367-7.168 8.404-1.336 4.913-4.052 5.906-6.98 5.946a.187.187 0 01-.19-.187v-9.852c0-1.84.655-3.195 1.26-3.907.12-.14.022-.406-.163-.406zm-17.996.19v17.346c0 .105.085.19.19.19h1.823c.176 0 .266-.228.15-.36-.6-.687-1.285-1.936-1.285-3.953V23.052c0-.105.083-.189.188-.189h10.6c1.392 0 2.428.478 2.994.873.14.098.362 0 .362-.171v-3.619a.19.19 0 00-.19-.19H50.868a.19.19 0 00-.19.19z" fill="#666562"/><path fill-rule="evenodd" clip-rule="evenodd" d="M28.912 15.695V4.587c0-3.531-2.07-4.051-3.544-4.051-4.14 0-8.31 3.01-9.252 7.392-.71 3.306-1.354 6.677-1.566 7.623a.185.185 0 01-.182.144h-2.17a.19.19 0 00-.19.19v2.678c0 .105.085.19.19.19h18.253a.19.19 0 00.19-.19v-2.678a.19.19 0 00-.19-.19h-1.539zm-1.003 0h-12.28a.19.19 0 01-.186-.228c.24-1.155.932-4.553 1.289-6.084.52-2.237 2.364-5.253 9.107-5.253 1.317 0 2.07.472 2.07 1.86v9.705zm21.173-6.471v.069c0 .045 0 .105.002.177.032 1.582.187 9.28-9.411 9.28-8.812 0-9.032-7.534-9.032-9.11 0-1.577.72-9.111 9.032-9.111 9.44 0 9.413 7.425 9.409 8.695zm-.69.069c0-2.964-2.446-5.58-8.72-5.58-5.801 0-8.34 3.09-8.34 5.927 0 2.837 1.567 5.926 8.34 5.926 6.775 0 8.72-3.31 8.72-6.273z" fill="#666562"/><path d="M55.518 18.751h-6.207a.19.19 0 01-.188-.218L51.13 4.866c.22-1.44.721-4.319 3.324-4.319 2.45 0 2.823 1.524 3.576 3.531l2.488 6.692 2.545-6.692c.366-1.177 1.207-3.53 3.371-3.53 2.463 0 2.98 2.353 3.262 3.53l2.132 14.455a.19.19 0 01-.188.218h-6.054c-.09 0-.17-.063-.17-.154-.004-.462.324-1.275 1.708-1.769 1.556-.555 3.395-1.032 3.042-3.405L69.07 6.001c-.094-.746-.523-2.238-2.635-2.238-2.11 0-2.828 1.67-3.163 2.48l-2.254 5.87 2.023 5.441a.887.887 0 01-.831 1.197h-3.44a.888.888 0 01-.83-1.203l2.07-5.44-2.2-6.107c-.251-.746-1.01-2.238-3.355-2.238-1.982 0-2.561 1.492-2.603 2.238l-1.129 7.422c-.094.841.245 2.649 2.352 3.153 1.88.45 2.502 1.417 2.615 1.987.02.103-.066.188-.17.188z" fill="#666562"/></svg>