<svg width="20" height="23" viewBox="0 0 20 23" fill="none" xmlns="http://www.w3.org/2000/svg">
<path d="M3.90187 14.3914V8.4888C3.90259 8.39008 3.92931 8.2933 3.97934 8.20819C4.02937 8.12309 4.10093 8.05266 4.18683 8.00401L9.17536 5.12488V0.850586L0.478724 5.87243C0.394479 5.92139 0.324527 5.99157 0.275831 6.07597C0.227136 6.16037 0.201395 6.25606 0.201172 6.3535V16.5304C0.911829 16.1209 3.15531 14.8241 3.90187 14.3914Z" fill="white"/>
<path d="M5.00977 14.2562L9.17318 16.6579V11.8546L5.00977 9.44922V14.2562Z" fill="white"/>
<path d="M14.4525 14.2562V9.44922L10.2891 11.8546V16.6579L14.4525 14.2562Z" fill="white"/>
<path d="M5.5625 8.48799L9.72591 10.8933L13.8893 8.48799L9.72591 6.08594L5.5625 8.48799Z" fill="white"/>
<path d="M14.9964 15.3486C14.9615 15.3295 14.9291 15.3058 14.9002 15.2783L10.0042 18.102C9.91959 18.1499 9.82396 18.1751 9.72668 18.1751C9.62939 18.1751 9.53377 18.1499 9.44912 18.102L4.55313 15.2783C4.52424 15.3058 4.49189 15.3295 4.45691 15.3486L1.97744 16.7808L0.867188 17.421L9.4491 22.3762C9.53365 22.4245 9.62931 22.4498 9.72665 22.4498C9.82399 22.4498 9.91965 22.4245 10.0042 22.3762L18.5861 17.421C17.8804 17.0157 15.7359 15.775 14.9964 15.3486Z" fill="white"/>
<path d="M18.9857 5.87243L10.2891 0.850586V5.12488L15.2665 7.99663C15.3552 8.04482 15.4295 8.11587 15.4815 8.2024C15.5336 8.28894 15.5616 8.38782 15.5625 8.4888V14.3914C16.3146 14.8251 18.5395 16.1154 19.2632 16.5304V6.35351C19.263 6.25607 19.2373 6.16038 19.1886 6.07598C19.1399 5.99158 19.0699 5.9214 18.9857 5.87243Z" fill="white"/>
</svg>
