<svg width="20" height="19" viewBox="0 0 20 19" fill="none" xmlns="http://www.w3.org/2000/svg">
<path fill-rule="evenodd" clip-rule="evenodd" d="M1.76805 5.81806L1.20176 5.81818C0.920789 5.81871 0.662112 5.95002 0.471029 6.16218C0.266857 6.38871 0.13935 6.70436 0.137701 7.05372L0.119082 10.8531L0.119947 10.8532C0.120289 11.1976 0.243101 11.5079 0.442907 11.7307C0.630944 11.941 0.885081 12.0724 1.1629 12.0739L1.16828 12.0741L1.16847 12.0733L1.73754 12.0729L1.76893 5.81817L1.76805 5.81806ZM16.5461 1.09182C16.531 1.15286 16.5038 1.21128 16.4635 1.26323C16.4222 1.37837 16.3974 1.5134 16.3974 1.66744L16.3255 16.0359C16.3232 16.4921 16.5252 16.776 16.7858 16.8943C16.888 16.941 16.9998 16.9644 17.113 16.9645C17.2252 16.9653 17.337 16.9426 17.4394 16.8969C17.7071 16.7784 17.9181 16.4908 17.9206 16.0293L17.9926 1.66084C17.9948 1.20467 17.7929 0.920693 17.5323 0.80244C17.4301 0.755762 17.3183 0.732367 17.205 0.732216C17.0929 0.731389 16.981 0.754186 16.8787 0.799888C16.7494 0.856951 16.6331 0.953998 16.5472 1.09114L16.5461 1.09182ZM8.21846 12.6762L8.25596 5.18893C9.71907 4.97694 11.1972 4.49552 12.5175 3.89009C13.6535 3.36964 14.6777 2.7551 15.4804 2.13867L15.4122 15.7196C14.6148 15.1032 13.5951 14.4883 12.4624 13.9685C11.1509 13.3663 9.67936 12.8869 8.21846 12.6762ZM4.37288 13.5372L4.3671 18.2528C4.3665 18.5806 4.54954 18.7889 4.7835 18.8796C4.88461 18.9188 4.99734 18.9379 5.11316 18.9386C5.22446 18.9393 5.33577 18.9191 5.43854 18.8798C5.67081 18.7907 5.85241 18.5847 5.8533 18.2596L5.85904 13.536L4.37394 13.5366L4.37288 13.5372ZM6.29434 12.6213L4.01354 12.6229C3.9824 12.6161 3.9505 12.6128 3.91699 12.6127C3.88347 12.6127 3.85094 12.6165 3.81956 12.6233L2.85994 12.624C2.80337 12.6216 2.75168 12.5968 2.71377 12.5587C2.69891 12.5437 2.68548 12.5262 2.67521 12.5068C2.67318 12.462 2.66434 12.4193 2.64956 12.3789L2.68348 5.50411C2.69664 5.46439 2.70394 5.42248 2.70604 5.37945C2.71755 5.35568 2.73339 5.33285 2.7528 5.31441C2.79342 5.27342 2.84958 5.24847 2.91104 5.24915L7.34216 5.24655L7.30508 12.6235L6.3392 12.6238C6.33209 12.6231 6.32479 12.6233 6.31749 12.6236C6.30933 12.6236 6.30203 12.6238 6.29387 12.6239L6.29434 12.6213ZM18.86 10.5952L18.8773 7.09799C19.0491 7.21599 19.202 7.36701 19.3295 7.54331C19.5845 7.8959 19.7362 8.34836 19.7342 8.84534C19.7313 9.34212 19.5745 9.7964 19.3154 10.1505C19.1866 10.3264 19.0323 10.4776 18.8598 10.596L18.86 10.5952ZM6.77133 15.1239L7.13277 15.12C7.36516 15.118 7.57674 15.0199 7.72937 14.8638C7.88201 14.7076 7.97552 14.4942 7.97299 14.2599L7.96584 13.5634C7.89099 13.5534 7.81595 13.5444 7.7409 13.5353L6.77311 13.536L6.77114 15.1248L6.77133 15.1239Z" fill="white"/>
</svg>
