<svg width="22" height="21" viewBox="0 0 22 21" fill="none" xmlns="http://www.w3.org/2000/svg">
<path d="M20.615 0.642079C19.7112 -0.261738 17.9343 -0.0864298 15.8945 0.875429C16.2155 1.92495 16.7983 2.88565 17.5553 3.67337C18.3419 4.45992 19.3037 5.01429 20.3532 5.33414C21.3435 3.32278 21.5188 1.54601 20.615 0.642079Z" fill="white"/>
<path d="M18.0096 13.8704C18.2714 13.6086 18.3886 13.2295 18.359 12.8801L17.98 10.0537C17.8923 10.1414 17.8047 10.2575 17.6886 10.3451C15.9402 12.0935 13.9583 13.4346 12.1816 14.1036L12.8521 19.0278L18.0096 13.8704Z" fill="white"/>
<path d="M11.4601 4.10819C9.71165 5.85661 8.40034 7.83845 7.78781 9.58687V9.61646C7.64211 10.0536 7.526 10.4611 7.4668 10.8401L10.3808 13.7542C10.7599 13.6961 11.1674 13.5789 11.6045 13.4331C11.6341 13.4331 11.6341 13.4331 11.6625 13.4036C13.411 12.7911 15.3928 11.4798 17.1412 9.73129C18.3364 8.53607 19.2971 7.25436 19.9972 6.03075C18.8896 5.6517 17.8697 5.04045 17.0252 4.19468C16.1806 3.35008 15.5682 2.33016 15.1891 1.22266C13.937 1.9523 12.6542 2.91414 11.4601 4.10819ZM15.0435 9.03349C14.2569 9.82005 13.0036 9.82005 12.2171 9.03349C11.4305 8.24693 11.4305 6.99367 12.2171 6.20711C13.0036 5.42056 14.2569 5.42056 15.0435 6.20711C15.8312 6.99367 15.8312 8.24693 15.0435 9.03349Z" fill="white"/>
<path d="M12.7758 6.76117C12.3091 7.22788 12.3091 8.01443 12.7758 8.47998C13.2425 8.94669 14.0291 8.94669 14.4946 8.47998C14.9613 8.01327 14.9613 7.22671 14.4946 6.76117C14.0279 6.29445 13.2414 6.29445 12.7758 6.76117Z" fill="white"/>
<path d="M7.37477 3.23543L2.1875 8.4227L7.11163 9.09316C7.81167 7.28669 9.15146 5.30492 10.8999 3.5565L11.1913 3.26509L8.3649 2.88604C8.01545 2.85758 7.63657 2.97363 7.37477 3.23543Z" fill="white"/>
<path d="M6.09412 19.4952L9.12413 16.4652C9.26983 16.3195 9.26983 16.0577 9.12413 15.912C8.97843 15.7663 8.71663 15.7663 8.57093 15.912L5.54092 18.942C5.39522 19.0877 5.39522 19.3495 5.54092 19.4952C5.68662 19.6705 5.94842 19.6705 6.09412 19.4952Z" fill="white"/>
<path d="M0.910058 20.3417C1.05576 20.4874 1.31756 20.4874 1.46326 20.3417L7.23334 14.5717C7.37904 14.426 7.37904 14.1642 7.23334 14.0185C7.08764 13.8728 6.82584 13.8728 6.68014 14.0185L0.910058 19.7874C0.764356 19.9331 0.764356 20.196 0.910058 20.3417Z" fill="white"/>
<path d="M1.75647 15.7081C1.90217 15.8538 2.16397 15.8538 2.30967 15.7081L5.33968 12.6781C5.48539 12.5324 5.48539 12.2706 5.33968 12.1249C5.19398 11.9792 4.93219 11.9792 4.78648 12.1249L1.75647 15.1549C1.58118 15.3006 1.58118 15.5624 1.75647 15.7081Z" fill="white"/>
</svg>
