<svg width="23" height="22" viewBox="0 0 23 22" fill="none" xmlns="http://www.w3.org/2000/svg">
<path d="M4.94279 7.84472C5.89671 7.80192 6.63532 6.99391 6.59251 6.03999C6.54971 5.08606 5.7417 4.34746 4.78778 4.39027C3.83385 4.43307 3.09525 5.24108 3.13805 6.195C3.18086 7.14893 3.98887 7.88753 4.94279 7.84472Z" fill="white"/>
<path d="M11.6829 7.84481C12.6368 7.80205 13.3754 6.99408 13.3327 6.04016C13.2899 5.08624 12.4819 4.34759 11.528 4.39035C10.5741 4.43311 9.83544 5.24108 9.8782 6.195C9.92096 7.14893 10.7289 7.88757 11.6829 7.84481Z" fill="white"/>
<path d="M18.4133 7.84481C19.3672 7.80205 20.1059 6.99408 20.0631 6.04016C20.0204 5.08624 19.2124 4.34759 18.2585 4.39035C17.3046 4.43311 16.5659 5.24108 16.6087 6.195C16.6514 7.14893 17.4594 7.88757 18.4133 7.84481Z" fill="white"/>
<path d="M22.3383 12.8283L20.7458 9.37041C20.4501 8.73342 19.8131 8.34668 19.1306 8.34668H17.5382C16.8557 8.34668 16.2187 8.75617 15.923 9.37041L14.9675 11.4179L14.012 9.37041C13.7163 8.73342 13.0793 8.34668 12.3968 8.34668H10.8043C10.1219 8.34668 9.48487 8.75617 9.18912 9.37041L8.23365 11.4179L7.27817 9.37041C6.98243 8.73342 6.34544 8.34668 5.66296 8.34668H4.0705C3.38801 8.34668 2.75103 8.75617 2.45529 9.37041L0.862824 12.8283C0.703578 13.1923 0.862824 13.6018 1.20407 13.7838C1.56806 13.943 1.97755 13.7838 2.15954 13.4426L3.29702 10.9629V13.6473L2.47803 20.1764C2.40979 20.6314 2.75103 21.0409 3.20602 21.1091C3.25152 21.1091 3.27427 21.1091 3.31976 21.1091C3.72925 21.1091 4.09325 20.8134 4.13875 20.3811L4.88948 14.4208L5.64021 20.3811C5.68571 20.7906 6.0497 21.1091 6.45919 21.1091C6.50469 21.1091 6.52744 21.1091 6.57294 21.1091C7.02793 21.0409 7.34642 20.6314 7.30092 20.1764L6.48194 13.6473V10.9401L7.61941 13.4198C7.73316 13.6701 7.9834 13.8293 8.27915 13.8293C8.57489 13.8293 8.80238 13.6701 8.93888 13.4198L10.0764 10.9401V13.6246L9.25737 20.1536C9.18912 20.6086 9.53037 21.0181 9.98536 21.0864C10.0309 21.0864 10.0536 21.0864 10.0991 21.0864C10.5086 21.0864 10.8726 20.7906 10.9181 20.3584L11.6006 14.398L12.3513 20.3584C12.3968 20.7679 12.7608 21.0864 13.1703 21.0864C13.2158 21.0864 13.2385 21.0864 13.284 21.0864C13.739 21.0181 14.0575 20.6086 14.012 20.1536L13.193 13.6246V10.9401L14.3305 13.4198C14.4442 13.6701 14.6945 13.8293 14.9902 13.8293C15.2632 13.8293 15.5135 13.6701 15.65 13.4198L16.7874 10.9401V13.6246L15.923 20.1764C15.8547 20.6314 16.196 21.0409 16.6509 21.1091C16.6964 21.1091 16.7192 21.1091 16.7647 21.1091C17.1742 21.1091 17.5382 20.8134 17.5837 20.3811L18.3344 14.4208L19.0851 20.3811C19.1306 20.7906 19.4946 21.1091 19.9041 21.1091C19.9496 21.1091 19.9724 21.1091 20.0179 21.1091C20.4729 21.0409 20.7913 20.6314 20.7458 20.1764L19.9269 13.6473V10.9401L21.0643 13.4198C21.1781 13.6701 21.4511 13.8293 21.7241 13.8293C21.8151 13.8293 21.9288 13.8065 22.0198 13.761C22.3383 13.6018 22.4976 13.1923 22.3383 12.8283Z" fill="white"/>
<path d="M8.30787 4.18172C9.26179 4.13895 10.0004 3.33098 9.95767 2.37706C9.91491 1.42314 9.10693 0.684496 8.15301 0.727258C7.19909 0.770021 6.46045 1.57799 6.50321 2.53192C6.54597 3.48584 7.35395 4.22448 8.30787 4.18172Z" fill="white"/>
<path d="M15.0383 4.18172C15.9923 4.13895 16.7309 3.33098 16.6881 2.37706C16.6454 1.42314 15.8374 0.684496 14.8835 0.727258C13.9296 0.770021 13.1909 1.57799 13.2337 2.53192C13.2764 3.48584 14.0844 4.22448 15.0383 4.18172Z" fill="white"/>
</svg>
