<svg width="43" height="48" viewBox="0 0 43 48" fill="none" xmlns="http://www.w3.org/2000/svg">
<path d="M23.4839 1.75095L20.9024 8.01414C20.2501 9.41184 22.4194 10.3116 22.9479 8.86021L25.5338 2.59553C26.198 0.993581 23.9773 0.556753 23.4839 1.75095Z" fill="white"/>
<path d="M16.6973 8.04781e-05C16.0875 0.0120075 15.5978 0.516671 15.6052 1.13017L15.6023 7.7139C15.5583 8.35572 16.0682 8.89915 16.7085 8.89915C17.3488 8.89915 17.8572 8.35572 17.8147 7.7139L17.8177 1.13017C17.8304 0.503998 17.322 -0.00737393 16.6973 8.04781e-05Z" fill="white"/>
<path d="M29.9526 6.18504L25.3167 10.844C24.2716 11.8921 25.8437 13.4561 26.8888 12.4095L31.5247 7.74897C32.6742 6.59577 30.9388 5.19211 29.9526 6.18504Z" fill="white"/>
<path d="M9.08554 8.39201C11.62 11.5676 12.0002 13.4267 12.0584 19.8025C12.0934 20.2102 12.4892 20.4868 12.8821 20.3764L39.0657 13.9836C40.482 13.6369 41.9572 14.5382 42.2994 15.7584C42.614 16.8938 42.1756 18.1871 40.3702 18.7126L18.01 25.1696C16.6242 25.5424 15.5873 26.7172 15.2727 28.1939C14.9626 29.6572 15.3704 31.1756 16.3722 32.2863C16.8687 32.8365 17.4829 33.2413 18.1426 33.4612C17.6842 33.9822 17.3502 34.633 17.1989 35.3613C16.8843 36.8231 17.2921 38.349 18.294 39.4612C18.7718 39.9927 19.3585 40.3759 19.9898 40.6025C19.6141 41.0393 19.3376 41.5753 19.2094 42.1746C18.9343 43.4284 19.2444 44.7777 20.1531 45.6864C20.4483 45.9816 20.4557 46.2611 19.9175 46.4057L18.3245 46.8366C14.399 47.8966 10.6718 48.6421 7.5313 47.1974C4.18129 45.6595 1.7355 41.9517 0.643432 37.7512C0.0657153 33.5111 0.550251 29.0974 1.75414 25.5796L4.40269 17.8457C5.3725 15.0152 4.91108 13.2128 3.68334 9.95147C2.06573 5.64729 7.56708 6.49337 9.08554 8.39201Z" fill="white"/>
<path d="M30.2606 24.7237C30.983 25.5161 31.3818 26.7155 31.0642 27.7375C30.7034 28.9213 30.0579 29.5586 29.0292 29.8344L19.9177 32.2802C19.0395 32.512 18.0615 32.2101 17.3466 31.411C16.6213 30.6059 16.3306 29.5228 16.5542 28.4628C16.7801 27.4147 17.4711 26.6693 18.3478 26.4285L27.6307 23.8776C28.6184 23.6055 29.6852 24.096 30.2606 24.7237Z" fill="white"/>
<path d="M32.1773 31.8995C32.8996 32.6927 33.2052 33.8608 32.9838 34.9089C32.5381 36.0852 31.9439 36.7069 30.919 37.017L21.8343 39.4486C20.9561 39.6842 19.9826 39.3845 19.2633 38.5899C18.5379 37.7863 18.2502 36.6912 18.4753 35.6312C18.6967 34.5831 19.3885 33.8451 20.2644 33.6044L29.6144 31.0348C30.5701 30.7695 31.6323 31.3024 32.1773 31.8995Z" fill="white"/>
<path d="M32.3034 38.9361C32.9632 39.5884 33.1927 40.6573 33.0094 41.5653C32.8349 42.4188 32.3265 43.0733 31.6512 43.2544C28.8282 43.9954 23.1875 45.4818 23.1875 45.4818C22.48 45.6682 21.7085 45.4378 21.1285 44.8064C20.5434 44.1631 20.3056 43.2969 20.4919 42.4449C20.6738 41.6122 21.2374 41.0181 21.9403 40.8303L30.5621 38.4657C31.4111 38.2332 31.8189 38.456 32.3034 38.9361Z" fill="white"/>
</svg>
