<svg width="48" height="49" viewBox="0 0 48 49" fill="none" xmlns="http://www.w3.org/2000/svg">
<path d="M24.0022 0.798828C22.6382 0.798828 21.3301 1.34066 20.3657 2.30512C19.4012 3.26959 18.8594 4.57768 18.8594 5.94164V12.7987C18.8594 14.1627 19.4012 15.4708 20.3657 16.4353C21.3301 17.3997 22.6382 17.9415 24.0022 17.9415C25.3661 17.9415 26.6742 17.3997 27.6387 16.4353C28.6032 15.4708 29.145 14.1627 29.145 12.7987V5.94164C29.145 4.57768 28.6032 3.26959 27.6387 2.30512C26.6742 1.34066 25.3661 0.798828 24.0022 0.798828Z" fill="white"/>
<path d="M11.9999 19.6562H5.14281C3.77886 19.6562 2.47076 20.1981 1.5063 21.1625C0.541831 22.127 0 23.4351 0 24.7991C0 26.163 0.541831 27.4711 1.5063 28.4356C2.47076 29.4001 3.77886 29.9419 5.14281 29.9419H11.9999C13.3639 29.9419 14.672 29.4001 15.6364 28.4356C16.6009 27.4711 17.1427 26.163 17.1427 24.7991C17.1427 23.4351 16.6009 22.127 15.6364 21.1625C14.672 20.1981 13.3639 19.6562 11.9999 19.6562Z" fill="white"/>
<path d="M24.0022 31.6562C22.6382 31.6563 21.3301 32.1981 20.3657 33.1625C19.4012 34.127 18.8594 35.4351 18.8594 36.7991V43.6562C18.8594 45.0201 19.4012 46.3282 20.3657 47.2927C21.3301 48.2571 22.6382 48.799 24.0022 48.799C25.3661 48.799 26.6742 48.2571 27.6387 47.2927C28.6032 46.3282 29.145 45.0201 29.145 43.6562V36.7991C29.145 35.4351 28.6032 34.127 27.6387 33.1625C26.6742 32.1981 25.3661 31.6563 24.0022 31.6562Z" fill="white"/>
<path d="M42.8593 19.6562H36.0022C34.6382 19.6562 33.3301 20.1981 32.3657 21.1625C31.4012 22.127 30.8594 23.4351 30.8594 24.7991C30.8594 26.163 31.4012 27.4711 32.3657 28.4356C33.3301 29.4001 34.6382 29.9419 36.0022 29.9419H42.8593C44.2232 29.9419 45.5313 29.4001 46.4958 28.4356C47.4603 27.4711 48.0021 26.163 48.0021 24.7991C48.0021 23.4351 47.4603 22.127 46.4958 21.1625C45.5313 20.1981 44.2232 19.6562 42.8593 19.6562Z" fill="white"/>
<path d="M34.8637 15.66C35.0893 15.6613 35.313 15.6181 35.5218 15.5328C35.7307 15.4475 35.9206 15.3218 36.0808 15.1629L42.3551 8.88864C42.6756 8.56584 42.8548 8.12892 42.8532 7.67402C42.8516 7.21911 42.6693 6.78348 42.3465 6.46295C42.0237 6.14242 41.5868 5.96325 41.1319 5.96485C40.677 5.96646 40.2413 6.14871 39.9208 6.47152L33.6637 12.7972C33.4452 13.0387 33.3 13.3375 33.2452 13.6585C33.1903 13.9795 33.2281 14.3096 33.354 14.6099C33.4799 14.9103 33.6887 15.1686 33.9561 15.3545C34.2235 15.5405 34.5383 15.6465 34.8637 15.66Z" fill="white"/>
<path d="M11.9987 15.1629C12.3276 15.3545 12.7109 15.4312 13.0882 15.3808C13.4655 15.3305 13.8154 15.156 14.0826 14.8849C14.3498 14.6138 14.5191 14.2615 14.5639 13.8834C14.6087 13.5054 14.5265 13.1233 14.3301 12.7972L8.07299 6.47152C7.75246 6.14871 7.31683 5.96646 6.86192 5.96485C6.40702 5.96325 5.9701 6.14242 5.6473 6.46295C5.3245 6.78348 5.14224 7.21911 5.14064 7.67402C5.13903 8.12892 5.3182 8.56584 5.63873 8.88864L11.9987 15.1629Z" fill="white"/>
<path d="M11.9987 34.4832L5.63873 40.7575C5.3182 41.0803 5.13903 41.5172 5.14064 41.9721C5.14224 42.427 5.3245 42.8626 5.6473 43.1832C5.9701 43.5037 6.40702 43.6829 6.86192 43.6813C7.31683 43.6797 7.75246 43.4974 8.07299 43.1746L14.3301 36.9175C14.5636 36.5925 14.676 36.196 14.6478 35.7967C14.6196 35.3975 14.4527 35.0207 14.1758 34.7317C13.899 34.4426 13.5298 34.2596 13.1321 34.2142C12.7345 34.1688 12.3335 34.264 11.9987 34.4832Z" fill="white"/>
<path d="M36.0781 34.4844C35.7553 34.1639 35.3184 33.9847 34.8635 33.9863C34.4086 33.9879 33.9729 34.1702 33.6524 34.493C33.3319 34.8158 33.1527 35.2527 33.1543 35.7076C33.1559 36.1625 33.3382 36.5982 33.661 36.9187L39.9181 43.1758C40.2444 43.4904 40.682 43.663 41.1352 43.6558C41.4757 43.6578 41.8091 43.5583 42.0928 43.3701C42.3766 43.1818 42.5978 42.9134 42.7284 42.5989C42.859 42.2844 42.8929 41.9382 42.8259 41.6044C42.759 41.2705 42.5941 40.9642 42.3523 40.7244L36.0781 34.4844Z" fill="white"/>
<path d="M27.4274 24.7996C27.4274 23.8903 27.0662 23.0183 26.4232 22.3753C25.7802 21.7323 24.9082 21.3711 23.9989 21.3711C23.0895 21.3711 22.2175 21.7323 21.5745 22.3753C20.9315 23.0183 20.5703 23.8903 20.5703 24.7996C20.5703 25.7089 20.9315 26.581 21.5745 27.224C22.2175 27.867 23.0895 28.2282 23.9989 28.2282C24.9082 28.2282 25.7802 27.867 26.4232 27.224C27.0662 26.581 27.4274 25.7089 27.4274 24.7996Z" fill="white"/>
</svg>
