<svg width="49" height="48" viewBox="0 0 49 48" fill="none" xmlns="http://www.w3.org/2000/svg">
<path d="M45.4036 5.80025L42.2667 6.33292L42.7994 3.19605L45.9954 0L48.5996 2.60419L45.4036 5.80025ZM35.7562 14.5006C38.1828 17.2824 39.6625 20.9519 39.6625 24.9174C39.6625 33.7361 32.501 40.8977 23.6822 40.8977C14.8635 40.8977 7.70195 33.7361 7.70195 24.9174C7.70195 16.0986 14.8635 8.93712 23.6822 8.93712C27.6477 8.93712 31.3172 10.4168 34.099 12.8434L39.1298 7.81258C35.046 4.14303 29.6008 1.83477 23.6822 1.83477C10.9572 1.83477 0.599609 12.1924 0.599609 24.9174C0.599609 37.6424 10.9572 48 23.6822 48C36.4073 48 46.7648 37.6424 46.7648 24.9174C46.7648 18.9988 44.5158 13.5536 40.787 9.46979L35.7562 14.5006ZM23.623 11.3046C16.1064 11.3046 10.0102 17.4007 10.0102 24.9174C10.0102 32.434 16.1064 38.5302 23.623 38.5302C31.1397 38.5302 37.2359 32.434 37.2359 24.9174C37.2359 21.603 36.0521 18.5253 34.0398 16.1578L29.009 21.1887C29.7192 22.254 30.1335 23.4969 30.1335 24.8582C30.1335 28.4686 27.2334 31.3687 23.623 31.3687C20.0127 31.3687 17.1126 28.4686 17.1126 24.8582C17.1126 21.2478 20.0127 18.3477 23.623 18.3477C24.9843 18.3477 26.2864 18.762 27.2926 19.4723L32.3826 14.4414C30.0151 12.4883 26.9375 11.3046 23.623 11.3046ZM25.5762 21.2478C24.9843 20.9519 24.3333 20.7744 23.623 20.7744C21.3148 20.7744 19.48 22.6091 19.48 24.9174C19.48 27.2256 21.3148 29.0604 23.623 29.0604C25.9313 29.0604 27.7661 27.2256 27.7661 24.9174C27.7661 24.2072 27.5885 23.5561 27.2926 22.9642L24.4516 25.746C24.2149 25.9827 23.919 26.1011 23.623 26.1011C23.3271 26.1011 23.0312 25.9827 22.7944 25.746C22.3209 25.2725 22.3209 24.5623 22.7944 24.0888L25.5762 21.2478Z" fill="white"/>
</svg>
