<svg width="49" height="48" viewBox="0 0 49 48" fill="none" xmlns="http://www.w3.org/2000/svg">
<path d="M6.19922 10.5C6.19922 8.01471 8.21393 6 10.6992 6C13.1844 6 15.1992 8.01471 15.1992 10.5C15.1992 12.9852 13.1844 14.9999 10.6992 14.9999C8.21393 14.9999 6.19922 12.9852 6.19922 10.5Z" fill="white"/>
<path fill-rule="evenodd" clip-rule="evenodd" d="M0.199219 10.4999C0.199219 4.70098 4.9002 0 10.6992 0C16.4981 0 21.1991 4.70098 21.1991 10.4999C21.1991 16.2989 16.4981 20.9999 10.6992 20.9999C4.9002 20.9999 0.199219 16.2989 0.199219 10.4999ZM10.6992 2.99998C6.55705 2.99998 3.1992 6.35783 3.1992 10.4999C3.1992 14.642 6.55705 17.9999 10.6992 17.9999C14.8413 17.9999 18.1991 14.642 18.1991 10.4999C18.1991 6.35783 14.8413 2.99998 10.6992 2.99998Z" fill="white"/>
<path d="M0.199219 37.4999C0.199219 31.701 4.9002 27 10.6992 27C16.4981 27 21.1991 31.701 21.1991 37.4999C21.1991 43.2989 16.4981 47.9999 10.6992 47.9999C4.9002 47.9999 0.199219 43.2989 0.199219 37.4999Z" fill="white"/>
<path d="M27.1992 10.4999C27.1992 4.70098 31.9002 0 37.6992 0C43.4981 0 48.1991 4.70098 48.1991 10.4999C48.1991 16.2989 43.4981 20.9999 37.6992 20.9999C31.9002 20.9999 27.1992 16.2989 27.1992 10.4999Z" fill="white"/>
<path d="M27.1992 37.4999C27.1992 31.701 31.9002 27 37.6992 27C43.4981 27 48.1991 31.701 48.1991 37.4999C48.1991 43.2989 43.4981 47.9999 37.6992 47.9999C31.9002 47.9999 27.1992 43.2989 27.1992 37.4999Z" fill="white"/>
</svg>
