<svg width="24" height="24" viewBox="0 0 24 24" fill="none" xmlns="http://www.w3.org/2000/svg">
<path d="M12.1864 2.25488C13.1133 2.30077 13.9929 2.68935 14.6522 3.34863C15.3555 4.05189 15.7509 5.00544 15.7509 6V7.25H17.6708C18.0671 7.24995 18.4591 7.33559 18.8192 7.50098C19.1795 7.66652 19.5005 7.90812 19.7587 8.20898C20.0168 8.50975 20.2064 8.86311 20.3153 9.24414C20.4242 9.62536 20.4498 10.0261 20.3895 10.418L19.1347 18.5703C18.9984 19.4558 18.549 20.2634 17.869 20.8467C17.1892 21.4296 16.3232 21.7501 15.4276 21.75H8.57509C7.6794 21.7499 6.81345 21.4289 6.13368 20.8457C5.45401 20.2625 5.00524 19.4555 4.86903 18.5703L3.61415 10.418C3.5539 10.0261 3.57848 9.62537 3.68739 9.24414C3.79633 8.86302 3.98689 8.50981 4.24501 8.20898C4.50316 7.90819 4.82332 7.66651 5.18349 7.50098C5.54363 7.33548 5.93558 7.25002 6.33192 7.25H8.25087V6C8.25087 5.00553 8.64636 4.05188 9.3495 3.34863C10.0527 2.64546 11.0064 2.2501 12.0009 2.25L12.1864 2.25488ZM6.33192 8.75C6.15192 8.75002 5.97402 8.78915 5.81044 8.86426C5.64689 8.93943 5.50096 9.04901 5.38368 9.18555C5.2664 9.32224 5.1793 9.48308 5.12977 9.65625C5.08032 9.82935 5.06929 10.0115 5.09657 10.1895L6.35145 18.3418C6.43314 18.873 6.70242 19.358 7.11024 19.708C7.51803 20.0578 8.03783 20.2499 8.57509 20.25H15.4276C15.965 20.2501 16.4845 20.0577 16.8925 19.708C17.3005 19.358 17.5705 18.8731 17.6522 18.3418L18.9071 10.1895C18.9344 10.0115 18.9224 9.82935 18.8729 9.65625C18.8234 9.48315 18.7373 9.32218 18.62 9.18555C18.5027 9.04894 18.3569 8.93945 18.1933 8.86426C18.0295 8.78906 17.851 8.74998 17.6708 8.75H15.7509V11C15.7509 11.4142 15.4151 11.75 15.0009 11.75C14.5868 11.7498 14.2509 11.4141 14.2509 11V8.75H9.75087V11C9.75087 11.4142 9.41508 11.75 9.00087 11.75C8.58683 11.7498 8.25087 11.4141 8.25087 11V8.75H6.33192ZM12.0009 3.75C11.4043 3.7501 10.8319 3.98731 10.41 4.40918C9.98821 4.83112 9.75087 5.40335 9.75087 6V7.25H14.2509V6C14.2509 5.40326 14.0136 4.83114 13.5917 4.40918C13.2226 4.04014 12.7384 3.81192 12.2235 3.76074L12.0009 3.75Z" fill="#121212"/>
</svg>
