<svg width="16" height="15" viewBox="0 0 16 15" fill="none" xmlns="http://www.w3.org/2000/svg">
<path d="M3.69886 4.67071C3.72156 5.26712 4.32549 5.59784 4.92233 5.59784C6.81514 5.59784 9.00305 5.59784 10.8959 5.59784C11.4926 5.59784 12.0965 5.26725 12.1193 4.67097C12.1213 4.61845 12.1223 4.56568 12.1223 4.51267C12.1223 3.63989 11.8571 2.82944 11.4028 2.15692C11.1755 1.82077 10.901 1.51904 10.589 1.26142C9.86063 0.660441 8.92711 0.299316 7.90898 0.299316C6.89108 0.299316 5.95733 0.660441 5.22901 1.26142C5.12483 1.34737 5.02516 1.43804 4.92976 1.53344C4.73918 1.72402 4.56683 1.93282 4.41518 2.15692C3.96113 2.82944 3.69586 3.63989 3.69586 4.51267C3.69586 4.56559 3.69687 4.61828 3.69886 4.67071ZM6.00751 10.4862C6.00751 9.69265 5.61177 8.89824 4.97764 8.42116C4.37841 7.97034 3.88582 7.38504 3.54478 6.71044C3.49617 6.61429 3.38154 6.56183 3.28231 6.60382C2.77808 6.81712 2.32426 7.12559 1.94311 7.50674C1.75231 7.69732 1.57996 7.90634 1.42853 8.13044C0.974259 8.80274 0.708984 9.61342 0.708984 10.4862C0.708984 11.5041 1.07011 12.4378 1.67108 13.1662C1.84276 13.3741 2.03423 13.5655 2.24213 13.7372C2.45026 13.9089 2.67526 14.061 2.91398 14.1908C3.03346 14.2556 3.15631 14.315 3.28231 14.3683C3.78631 14.5814 4.34048 14.6993 4.92233 14.6993C5.50396 14.6993 6.05813 14.5814 6.56213 14.3683C6.68813 14.315 6.81098 14.2556 6.93046 14.1908C7.18649 14.0518 7.21102 13.7062 7.0324 13.4761C6.39051 12.649 6.00751 11.6116 6.00751 10.4862ZM5.55346 8.00624C5.62425 8.05407 5.69672 8.09949 5.77071 8.1426C6.13602 8.35539 6.58032 8.15603 6.81296 7.80302C7.08357 7.3924 7.04011 6.81015 6.58865 6.61515C6.57983 6.61134 6.57099 6.60756 6.56213 6.60382C6.05813 6.39074 5.50396 6.27284 4.92233 6.27284C4.85189 6.27284 4.78191 6.27472 4.71239 6.27835C4.41282 6.29401 4.24745 6.61949 4.41518 6.86819C4.71826 7.31662 5.10503 7.70339 5.55346 8.00624ZM14.3894 8.13044C14.1622 7.79429 13.8879 7.49257 13.5758 7.23494C13.2635 6.97732 12.9139 6.76379 12.5357 6.60382C12.4364 6.56182 12.3218 6.61424 12.2732 6.71042C11.932 7.38491 11.4395 7.9703 10.8403 8.42117C10.2062 8.8983 9.81046 9.69265 9.81046 10.4862C9.81046 11.6116 9.42746 12.649 8.78556 13.4761C8.60699 13.7062 8.63155 14.0518 8.88751 14.1908C9.00698 14.2556 9.12961 14.315 9.25583 14.3683C9.75983 14.5814 10.314 14.6993 10.8959 14.6993C11.4775 14.6993 12.0317 14.5814 12.5357 14.3683C12.6484 14.3206 12.7577 14.2664 12.8651 14.2095C12.8779 14.2027 12.8914 14.1976 12.904 14.1908C13.1429 14.061 13.3677 13.9089 13.5758 13.7372C13.6744 13.6558 13.7687 13.5694 13.8593 13.4794C14.015 13.3255 14.1554 13.1572 14.2857 12.9805C14.3685 12.868 14.4461 12.7515 14.5177 12.6307C14.8907 12.0018 15.109 11.2703 15.109 10.4862C15.109 9.61342 14.8437 8.80297 14.3894 8.13044ZM9.25583 6.60382C9.12961 6.65714 9.00698 6.71654 8.88751 6.78134C8.63154 6.92032 8.60697 7.26601 8.78544 7.49619C8.86301 7.59623 8.93678 7.69936 9.00654 7.80534C9.23892 8.15839 9.68184 8.35538 10.0471 8.14273C10.1212 8.09959 10.1938 8.05412 10.2647 8.00624C10.3768 7.93064 10.485 7.84964 10.589 7.76369C10.901 7.50607 11.1755 7.20434 11.4028 6.86819C11.5705 6.61947 11.4052 6.294 11.1056 6.27834C11.0361 6.27471 10.9662 6.27284 10.8959 6.27284C10.314 6.27284 9.75983 6.39074 9.25583 6.60382ZM9.13244 10.3277C9.10969 9.73138 8.50569 9.40079 7.90898 9.40079C7.31227 9.40079 6.70828 9.73138 6.68553 10.3277C6.68352 10.3803 6.68251 10.4331 6.68251 10.4862C6.68251 11.4208 6.99076 12.2817 7.50578 12.9805C7.71018 13.2578 8.10779 13.2578 8.31218 12.9805C8.39521 12.868 8.47238 12.7515 8.54416 12.6307C8.91721 12.0018 9.13546 11.2703 9.13546 10.4862C9.13546 10.4331 9.13444 10.3803 9.13244 10.3277ZM8.41591 8.13044C8.16947 7.76561 7.6485 7.76561 7.40206 8.13044C7.23407 8.37901 7.39954 8.70473 7.69915 8.72031C7.76864 8.72393 7.8386 8.72579 7.90898 8.72579C7.97939 8.72579 8.04934 8.72393 8.11882 8.72032C8.41855 8.70474 8.58397 8.37912 8.41591 8.13044Z" fill="white"/>
</svg>
