<svg width="12" height="15" viewBox="0 0 12 15" fill="none" xmlns="http://www.w3.org/2000/svg">
<path d="M6 0.5C9.53678 0.5 12 1.67726 12 2.72737C12 3.77749 9.53678 4.95475 6 4.95475C2.46322 4.95475 0 3.77749 0 2.72737C0 1.67726 2.46322 0.5 6 0.5ZM6 14.5C2.46322 14.5 0 13.3227 0 12.2726V10.3317C1.04208 11.3181 3.31568 11.9545 6 11.9545C8.68432 11.9545 10.9578 11.2863 12 10.3317V12.2726C12 13.3226 9.53678 14.5 6 14.5ZM6 11.3182C2.46322 11.3182 0 10.1409 0 9.09081V7.14991C1.04208 8.13628 3.31568 8.77265 6 8.77265C8.68432 8.77265 10.9578 8.10447 12 7.14991V9.09081C12 10.1408 9.53678 11.3182 6 11.3182ZM6 8.13636C2.46322 8.13636 0 6.9591 0 5.90899V3.96809C1.04208 4.95446 3.31568 5.59083 6 5.59083C8.68432 5.59083 10.9578 4.92266 12 3.96809V5.90899C12 6.95898 9.53678 8.13636 6 8.13636Z" fill="white"/>
</svg>
