<svg width="15" height="15" viewBox="0 0 15 15" fill="none" xmlns="http://www.w3.org/2000/svg">
<path d="M14.2978 13.463L12.8358 12.001C12.5529 11.7181 12.0942 11.7181 11.8113 12.0009C11.5283 12.2839 11.5283 12.7427 11.8112 13.0256L13.2733 14.4875C13.41 14.6242 13.592 14.6997 13.7857 14.6997C13.9793 14.6997 14.161 14.6242 14.2978 14.4875C14.5802 14.205 14.5802 13.7457 14.2978 13.463Z" fill="white"/>
<path d="M12.4258 10.5716C12.4258 10.3782 12.3501 10.1962 12.2133 10.0592C12.0522 9.89812 11.7824 9.93304 11.654 10.1213C11.426 10.4554 11.1655 10.7709 10.8732 11.0632C10.581 11.3554 10.2657 11.6158 9.93161 11.8437C9.74324 11.9722 9.7083 12.2423 9.86953 12.4035C10.0063 12.5402 10.1883 12.6158 10.3819 12.6158C10.5755 12.6158 10.7573 12.5402 10.894 12.4035L12.2133 11.0842C12.3501 10.9475 12.4258 10.7652 12.4258 10.5716Z" fill="white"/>
<path d="M12.4201 6.45455C12.4201 4.81046 11.7797 3.26463 10.6172 2.10218C9.45477 0.93972 7.90894 0.299316 6.26485 0.299316C4.62076 0.299316 3.07493 0.93972 1.91248 2.10218C0.750021 3.26463 0.109375 4.81022 0.109375 6.45455C0.109375 8.09888 0.749779 9.64447 1.91224 10.8069C3.07469 11.9694 4.62028 12.6098 6.26461 12.6098C7.90894 12.6098 9.45453 11.9694 10.617 10.8069C11.7794 9.64447 12.4201 8.09864 12.4201 6.45455ZM6.26461 11.5214C4.96662 11.5214 3.66814 11.0272 2.67995 10.039C0.703552 8.06258 0.703552 4.84652 2.67995 2.87013C4.65634 0.893493 7.87264 0.893493 9.84903 2.87013C11.8254 4.84652 11.8254 8.06258 9.84903 10.039C8.86083 11.0272 7.5626 11.5214 6.26437 11.5214H6.26461Z" fill="white"/>
<path d="M9.59435 3.12665C8.67683 2.20913 7.47153 1.75049 6.26648 1.75049C5.06143 1.75049 3.85613 2.20913 2.93861 3.12665C1.1038 4.9617 1.1038 7.94711 2.93861 9.78216C4.77341 11.6172 7.75906 11.617 9.59435 9.78216C11.4292 7.94711 11.4292 4.9617 9.59435 3.12665ZM9.14515 5.55636C9.14515 5.65656 9.06383 5.73788 8.96363 5.73788C8.86343 5.73788 8.78211 5.65656 8.78211 5.55636C8.78211 5.46544 8.67218 5.41991 8.60789 5.4842L6.68857 7.40352C6.62056 7.47153 6.50003 7.47153 6.43178 7.40352C5.88736 6.85896 5.00457 6.85888 4.46004 7.40333L3.69784 8.16542C3.66251 8.20075 3.61604 8.21866 3.56957 8.21866C3.5231 8.21866 3.47663 8.20099 3.4413 8.16542C3.37038 8.0945 3.37038 7.97954 3.4413 7.90863L5.31773 6.03243C5.35186 5.99831 5.39784 5.97919 5.44601 5.97919C5.49417 5.97919 5.5404 5.99831 5.57428 6.03243L5.98456 6.44281C6.30239 6.76072 6.81777 6.76077 7.13566 6.44292L8.35109 5.22764C8.41538 5.16336 8.36985 5.05343 8.27893 5.05343C8.17874 5.05343 8.09741 4.97211 8.09741 4.87191C8.09741 4.77171 8.17874 4.69039 8.27893 4.69039H8.96363C9.06383 4.69039 9.14515 4.77171 9.14515 4.87191V5.55636Z" fill="white"/>
</svg>
