<svg width="44" height="48" viewBox="0 0 44 48" fill="none" xmlns="http://www.w3.org/2000/svg">
<path d="M16.0827 6.88266C18.0976 7.36787 20.0739 7.99596 21.9961 8.76197C24.5574 7.73027 27.2197 6.95879 29.9413 6.45961C27.8514 2.31049 25.0564 0 21.9961 0C18.9357 0 16.1408 2.31049 14.0508 6.45961C14.7348 6.56807 15.3731 6.71809 16.0827 6.88266Z" fill="white"/>
<path d="M9.84974 37.5626C9.26322 35.6176 8.82521 33.6324 8.53935 31.6236C6.90372 30.3704 5.36261 29.0028 3.9281 27.5314C3.47079 27.091 2.97539 26.5271 2.53477 26.0264C-0.0694217 29.8745 -0.70803 33.4134 0.809702 36.0005C2.18644 38.3436 5.13068 39.572 9.15308 39.572C9.58435 39.572 10.0322 39.5558 10.4884 39.5314C10.2529 38.8818 10.0437 38.2398 9.84974 37.5626Z" fill="white"/>
<path d="M27.9094 41.1176C25.8945 40.6324 23.9182 40.0043 21.9961 39.2383C19.4348 40.27 16.7724 41.0415 14.0508 41.5406C16.1408 45.6898 18.9357 48.0003 21.9961 48.0003C25.0564 48.0003 27.8514 45.6898 29.9413 41.5406C29.2621 41.4225 28.6159 41.288 27.9094 41.1176Z" fill="white"/>
<path d="M41.117 26.4169C39.3994 28.32 37.5059 30.063 35.4607 31.6236C35.0826 34.3142 34.4297 36.9608 33.5117 39.5232C38.2225 39.8242 41.6643 38.5958 43.1904 36.0005C44.7081 33.4134 44.0695 29.8745 41.4653 26.0264C41.3492 26.1565 41.2331 26.2867 41.117 26.4169Z" fill="white"/>
<path d="M34.1503 10.4379C34.7368 12.3829 35.1749 14.368 35.4607 16.3768C37.0964 17.63 38.6375 18.9977 40.072 20.469C40.5293 20.9094 41.0247 21.4734 41.4653 21.9741C44.0695 18.1259 44.7081 14.587 43.1904 11.9999C41.656 9.40466 38.2225 8.17619 33.5117 8.47721C33.7554 9.1228 33.9535 9.76326 34.1503 10.4379Z" fill="white"/>
<path d="M2.88311 21.5836C4.60067 19.6805 6.49417 17.9374 8.53935 16.3768C8.92204 13.6878 9.57204 11.042 10.4801 8.47721C5.77758 8.18433 2.33573 9.40466 0.809702 11.9999C-0.70803 14.587 -0.0694217 18.126 2.53477 21.9741C2.65088 21.8439 2.76699 21.7137 2.88311 21.5836Z" fill="white"/>
<path d="M38.2615 25.8554C40.2406 23.8125 40.2945 24.2151 38.2613 22.1456C36.6783 20.5257 34.9613 19.0372 33.1277 17.6955C32.7726 14.6438 32.0458 11.6448 30.9631 8.7627C27.8783 9.28797 24.8685 10.1729 21.9977 11.3986C19.4524 10.3196 16.8012 9.49906 14.0856 8.94981C12.4605 8.34969 12.8465 9.73187 12.2359 11.1058C11.5929 13.261 11.1352 15.4653 10.8677 17.6955C8.34757 19.5207 6.06134 21.6377 4.05859 24.0005C6.06129 26.3634 8.34752 28.4804 10.8677 30.3056C11.1352 32.5358 11.593 34.7402 12.2361 36.8954C13.0333 39.5691 12.6985 39.4269 15.5039 38.742C17.7242 38.2031 19.896 37.4876 21.9977 36.6025C24.8685 37.828 27.8783 38.7129 30.9631 39.2384C32.0459 36.3563 32.7726 33.3573 33.1277 30.3056C34.9613 28.9638 36.6784 27.4753 38.2615 25.8554ZM28.0354 24.8629L22.8768 29.9232C22.7615 30.0367 22.6245 30.1267 22.4736 30.1881C22.3227 30.2495 22.161 30.2811 21.9977 30.2811C21.8344 30.2811 21.6726 30.2495 21.5218 30.1881C21.3709 30.1267 21.2339 30.0367 21.1186 29.9232L15.9599 24.8629C15.8437 24.7501 15.7514 24.6158 15.6884 24.4678C15.6254 24.3198 15.593 24.161 15.593 24.0005C15.593 23.8401 15.6254 23.6813 15.6884 23.5333C15.7514 23.3853 15.8437 23.251 15.9599 23.1382L21.1186 18.0779C21.2335 17.9638 21.3705 17.8733 21.5214 17.8115C21.6723 17.7497 21.8342 17.7179 21.9977 17.7179C22.1612 17.7179 22.3231 17.7497 22.474 17.8115C22.6249 17.8733 22.7618 17.9638 22.8768 18.0779L28.0354 23.1382C28.1517 23.251 28.244 23.3853 28.307 23.5333C28.37 23.6813 28.4024 23.8401 28.4024 24.0005C28.4024 24.161 28.37 24.3198 28.307 24.4678C28.244 24.6158 28.1517 24.7501 28.0354 24.8629Z" fill="white"/>
<path d="M22.0019 20.6654L18.6016 24.001L22.0019 27.3365L25.4023 24.001L22.0019 20.6654Z" fill="white"/>
</svg>
