<svg width="45" height="44" viewBox="0 0 45 44" fill="none" xmlns="http://www.w3.org/2000/svg">
<path d="M5.89453 9.62591C5.89453 7.34778 7.74133 5.50098 10.0195 5.50098C12.2976 5.50098 14.1444 7.34778 14.1444 9.62591C14.1444 11.904 12.2976 13.7508 10.0195 13.7508C7.74133 13.7508 5.89453 11.904 5.89453 9.62591Z" fill="white"/>
<path fill-rule="evenodd" clip-rule="evenodd" d="M0.398438 9.62484C0.398438 4.30919 4.70763 0 10.0233 0C15.3389 0 19.6481 4.30919 19.6481 9.62484C19.6481 14.9405 15.3389 19.2497 10.0233 19.2497C4.70763 19.2497 0.398438 14.9405 0.398438 9.62484ZM10.0233 2.74995C6.22639 2.74995 3.14839 5.82795 3.14839 9.62484C3.14839 13.4217 6.22639 16.4997 10.0233 16.4997C13.8202 16.4997 16.8982 13.4217 16.8982 9.62484C16.8982 5.82795 13.8202 2.74995 10.0233 2.74995Z" fill="white"/>
<path d="M0.398438 34.3748C0.398438 29.0592 4.70763 24.75 10.0233 24.75C15.3389 24.75 19.6481 29.0592 19.6481 34.3748C19.6481 39.6905 15.3389 43.9997 10.0233 43.9997C4.70763 43.9997 0.398438 39.6905 0.398438 34.3748Z" fill="white"/>
<path d="M25.1445 9.62484C25.1445 4.30919 29.4537 0 34.7694 0C40.085 0 44.3942 4.30919 44.3942 9.62484C44.3942 14.9405 40.085 19.2497 34.7694 19.2497C29.4537 19.2497 25.1445 14.9405 25.1445 9.62484Z" fill="white"/>
<path d="M25.1445 34.3748C25.1445 29.0592 29.4537 24.75 34.7694 24.75C40.085 24.75 44.3942 29.0592 44.3942 34.3748C44.3942 39.6905 40.085 43.9997 34.7694 43.9997C29.4537 43.9997 25.1445 39.6905 25.1445 34.3748Z" fill="white"/>
</svg>
