<svg width="49" height="48" viewBox="0 0 49 48" fill="none" xmlns="http://www.w3.org/2000/svg">
<path d="M24.5953 0C23.2315 0 21.9236 0.541831 20.9592 1.5063C19.9949 2.47076 19.4531 3.77886 19.4531 5.14282V11.9999C19.4531 13.3639 19.9949 14.672 20.9592 15.6364C21.9236 16.6009 23.2315 17.1427 24.5953 17.1427C25.9591 17.1427 27.267 16.6009 28.2314 15.6364C29.1957 14.672 29.7375 13.3639 29.7375 11.9999V5.14282C29.7375 3.77886 29.1957 2.47076 28.2314 1.5063C27.267 0.541831 25.9591 0 24.5953 0Z" fill="white"/>
<path d="M12.6 18.8584H5.74374C4.37995 18.8584 3.07201 19.4002 2.10767 20.3647C1.14333 21.3292 0.601563 22.6373 0.601562 24.0012C0.601563 25.3652 1.14333 26.6733 2.10767 27.6377C3.07201 28.6022 4.37995 29.144 5.74374 29.144H12.6C13.9638 29.144 15.2717 28.6022 16.236 27.6377C17.2004 26.6733 17.7421 25.3652 17.7421 24.0012C17.7421 22.6373 17.2004 21.3292 16.236 20.3647C15.2717 19.4002 13.9638 18.8584 12.6 18.8584Z" fill="white"/>
<path d="M24.5992 30.8574C23.2354 30.8574 21.9275 31.3993 20.9631 32.3637C19.9988 33.3282 19.457 34.6363 19.457 36.0002V42.8573C19.457 44.2213 19.9988 45.5294 20.9631 46.4938C21.9275 47.4583 23.2354 48.0001 24.5992 48.0001C25.963 48.0001 27.2709 47.4583 28.2353 46.4938C29.1996 45.5294 29.7414 44.2213 29.7414 42.8573V36.0002C29.7414 34.6363 29.1996 33.3282 28.2353 32.3637C27.2709 31.3993 25.963 30.8574 24.5992 30.8574Z" fill="white"/>
<path d="M43.4593 18.8584H36.6031C35.2393 18.8584 33.9314 19.4002 32.967 20.3647C32.0027 21.3292 31.4609 22.6373 31.4609 24.0012C31.4609 25.3652 32.0027 26.6733 32.967 27.6377C33.9314 28.6022 35.2393 29.144 36.6031 29.144H43.4593C44.8231 29.144 46.1311 28.6022 47.0954 27.6377C48.0598 26.6733 48.6015 25.3652 48.6015 24.0012C48.6015 22.6373 48.0598 21.3292 47.0954 20.3647C46.1311 19.4002 44.8231 18.8584 43.4593 18.8584Z" fill="white"/>
<path d="M35.4592 14.8622C35.6848 14.8635 35.9084 14.8202 36.1172 14.7349C36.3261 14.6496 36.516 14.5239 36.6762 14.365L42.9496 8.09079C43.2701 7.76799 43.4493 7.33107 43.4477 6.87617C43.446 6.42126 43.2638 5.98563 42.9411 5.66509C42.6183 5.34456 42.1814 5.1654 41.7266 5.167C41.2717 5.16861 40.8362 5.35086 40.5157 5.67367L34.2594 11.9993C34.0409 12.2409 33.8957 12.5396 33.8409 12.8606C33.786 13.1817 33.8238 13.5117 33.9497 13.8121C34.0755 14.1124 34.2844 14.3707 34.5517 14.5567C34.8191 14.7427 35.1338 14.8486 35.4592 14.8622Z" fill="white"/>
<path d="M12.5955 14.365C12.9243 14.5566 13.3076 14.6333 13.6849 14.583C14.0622 14.5327 14.412 14.3582 14.6791 14.0871C14.9463 13.8159 15.1156 13.4636 15.1604 13.0856C15.2052 12.7076 15.123 12.3254 14.9266 11.9993L8.67028 5.67367C8.34979 5.35086 7.91421 5.16861 7.45936 5.167C7.00451 5.1654 6.56766 5.34456 6.24489 5.66509C5.92213 5.98563 5.7399 6.42126 5.73829 6.87617C5.73668 7.33107 5.91583 7.76799 6.23632 8.09079L12.5955 14.365Z" fill="white"/>
<path d="M12.5955 33.6864L6.23632 39.9606C5.91583 40.2834 5.73668 40.7203 5.73829 41.1752C5.7399 41.6301 5.92213 42.0658 6.24489 42.3863C6.56766 42.7068 7.00451 42.886 7.45936 42.8844C7.91421 42.8828 8.34979 42.7005 8.67028 42.3777L14.9266 36.1206C15.1601 35.7956 15.2724 35.3991 15.2443 34.9998C15.2161 34.6006 15.0491 34.2238 14.7724 33.9348C14.4956 33.6457 14.1264 33.4627 13.7288 33.4173C13.3312 33.3719 12.9303 33.4671 12.5955 33.6864Z" fill="white"/>
<path d="M36.6773 33.6866C36.3546 33.366 35.9177 33.1869 35.4629 33.1885C35.008 33.1901 34.5724 33.3723 34.2519 33.6952C33.9315 34.018 33.7523 34.4549 33.7539 34.9098C33.7555 35.3647 33.9378 35.8003 34.2605 36.1208L40.5168 42.3779C40.8431 42.6926 41.2807 42.8651 41.7338 42.8579C42.0743 42.8599 42.4076 42.7604 42.6913 42.5722C42.975 42.384 43.1962 42.1155 43.3268 41.8011C43.4574 41.4866 43.4913 41.1403 43.4243 40.8065C43.3574 40.4726 43.1925 40.1663 42.9508 39.9265L36.6773 33.6866Z" fill="white"/>
<path d="M28.0251 24.0008C28.0251 23.0915 27.6638 22.2194 27.0209 21.5765C26.3779 20.9335 25.5058 20.5723 24.5965 20.5723C23.6872 20.5723 22.8151 20.9335 22.1722 21.5765C21.5292 22.2194 21.168 23.0915 21.168 24.0008C21.168 24.9101 21.5292 25.7822 22.1722 26.4252C22.8151 27.0681 23.6872 27.4294 24.5965 27.4294C25.5058 27.4294 26.3779 27.0681 27.0209 26.4252C27.6638 25.7822 28.0251 24.9101 28.0251 24.0008Z" fill="white"/>
</svg>
