<svg width="49" height="48" viewBox="0 0 49 48" fill="none" xmlns="http://www.w3.org/2000/svg">
<path d="M45.0032 5.80025L41.8663 6.33292L42.399 3.19605L45.595 0L48.1992 2.60419L45.0032 5.80025ZM35.3558 14.5006C37.7825 17.2824 39.2621 20.9519 39.2621 24.9174C39.2621 33.7361 32.1006 40.8977 23.2818 40.8977C14.4631 40.8977 7.30156 33.7361 7.30156 24.9174C7.30156 16.0986 14.4631 8.93712 23.2818 8.93712C27.2473 8.93712 30.9169 10.4168 33.6986 12.8434L38.7294 7.81258C34.6456 4.14303 29.2005 1.83477 23.2818 1.83477C10.5568 1.83477 0.199219 12.1924 0.199219 24.9174C0.199219 37.6424 10.5568 48 23.2818 48C36.0069 48 46.3644 37.6424 46.3644 24.9174C46.3644 18.9988 44.1154 13.5536 40.3866 9.46979L35.3558 14.5006ZM23.2226 11.3046C15.706 11.3046 9.60982 17.4007 9.60982 24.9174C9.60982 32.434 15.706 38.5302 23.2226 38.5302C30.7393 38.5302 36.8355 32.434 36.8355 24.9174C36.8355 21.603 35.6517 18.5253 33.6394 16.1578L28.6086 21.1887C29.3188 22.254 29.7331 23.4969 29.7331 24.8582C29.7331 28.4686 26.833 31.3687 23.2226 31.3687C19.6123 31.3687 16.7122 28.4686 16.7122 24.8582C16.7122 21.2478 19.6123 18.3477 23.2226 18.3477C24.5839 18.3477 25.886 18.762 26.8922 19.4723L31.9822 14.4414C29.6148 12.4883 26.5371 11.3046 23.2226 11.3046ZM25.1758 21.2478C24.5839 20.9519 23.9329 20.7744 23.2226 20.7744C20.9144 20.7744 19.0796 22.6091 19.0796 24.9174C19.0796 27.2256 20.9144 29.0604 23.2226 29.0604C25.5309 29.0604 27.3657 27.2256 27.3657 24.9174C27.3657 24.2072 27.1881 23.5561 26.8922 22.9642L24.0513 25.746C23.8145 25.9827 23.5186 26.1011 23.2226 26.1011C22.9267 26.1011 22.6308 25.9827 22.394 25.746C21.9206 25.2725 21.9206 24.5623 22.394 24.0888L25.1758 21.2478Z" fill="white"/>
</svg>
