<svg width="55" height="59" viewBox="0 0 55 59" fill="none" xmlns="http://www.w3.org/2000/svg">
<path fill-rule="evenodd" clip-rule="evenodd" d="M37.4373 19.745C36.5825 18.9428 35.3532 18.9611 34.6479 19.1942C35.11 18.5868 36.186 18.0888 36.5032 18.0284C36.7448 18.1253 37.4373 18.8873 37.4373 19.745ZM40.1663 16.4231C39.6043 13.2041 32.6161 15.3369 29.0969 13.9696C29.0294 14.908 30.1803 16.4116 31.2811 16.9681C29.3994 18.7164 27.71 22.2387 27.3691 26.5421C27.0293 22.2387 25.3399 18.7164 23.4582 16.9681C24.559 16.4116 25.7108 14.908 25.6424 13.9696C22.1232 15.3369 15.135 13.2041 14.5719 16.4231C14.4534 17.1043 14.7596 18.1426 15.0904 18.441C15.1495 18.2251 15.4585 17.5189 16.4326 17.3605C21.356 16.5642 25.4665 24.6874 21.7562 27.9718C21.6996 28.0217 21.7313 28.1139 21.808 28.1139H32.932C33.0078 28.1139 33.0397 28.0217 32.9841 27.9718C29.2726 24.6874 33.3832 16.5642 38.3065 17.3605C39.2816 17.5189 39.5894 18.2251 39.6488 18.4409C39.9795 18.1426 40.2857 17.1045 40.1663 16.4231ZM41.3638 9.03486C41.2754 8.73074 44.1621 8.72313 44.1621 10.6574C44.1621 11.9538 42.4354 12.5678 42.4354 13.9131C42.4354 14.5396 43.0651 14.9992 43.2583 14.9992C42.8135 12.8394 44.6525 13.9696 45.1491 14.3736C44.1622 11.4691 46.3839 11.4874 46.1651 10.1556C46.013 9.22482 44.0821 9.50602 43.3831 9.03486C42.143 8.19916 40.676 4.94733 39.7091 8.19916C41.5115 9.99066 40.4627 12.6273 38.1746 12.6273C38.1746 12.6273 38.1618 13.0139 38.1828 13.0446C40.9119 12.9016 41.8632 10.7544 41.3638 9.03486ZM9.52369 14.3736C10.0204 13.9696 11.8592 12.8394 11.4155 14.9992C11.6077 14.9992 12.2374 14.5396 12.2374 13.9131C12.2374 12.5678 10.5106 11.9538 10.5106 10.6574C10.5106 8.72304 13.3974 8.73074 13.3089 9.03486C12.8105 10.7543 13.762 12.9017 16.491 13.0446C16.511 13.0139 16.4982 12.6273 16.4982 12.6273C14.2111 12.6273 13.1622 9.99047 14.9638 8.19916C13.9969 4.94733 12.5298 8.19916 11.2897 9.03486C10.5909 9.50611 8.65991 9.22482 8.50772 10.1556C8.28985 11.4874 10.5106 11.4691 9.52369 14.3736ZM17.2728 19.745C18.1283 18.9427 19.3577 18.9611 20.0621 19.1941C19.6019 18.5867 18.524 18.0887 18.2077 18.0283C17.9662 18.1252 17.2728 18.8872 17.2728 19.745ZM28.6677 1.73768L27.3363 0L26.0051 1.73768L27.3364 3.56649L28.6677 1.73768ZM36.2673 6.99206L35.3205 5.75708L34.3747 6.99206L35.3205 8.19907L36.2673 6.99206ZM43.9462 42.6877L42.7461 41.3281L41.546 42.6877L42.7461 43.8803L43.9462 42.6877ZM20.2989 6.99187L19.3521 5.7569L18.4063 6.99187L19.3521 8.19898L20.2989 6.99187ZM17.5871 13.0444H21.1181C24.0868 13.0444 25.4228 11.0938 25.8264 9.40214H28.8472C29.2509 11.0939 30.5857 13.0445 33.5555 13.0445H37.0865C37.0865 13.0445 37.7042 12.1474 37.859 11.7032C38.4168 10.1046 37.7042 9.35905 36.6645 9.35905L35.3204 10.6631L33.9764 9.35905C32.9367 9.35905 32.2241 10.1046 32.7818 11.7032C32.8529 11.9077 33.0233 12.2078 33.1845 12.4717C31.9316 12.2874 30.3324 11.3693 29.9815 9.40214C29.9815 9.40214 30.9073 7.82766 31.1397 7.19055C31.9745 4.89938 30.9083 3.96274 29.3492 3.96274L27.3363 6.49596L25.3235 3.96274C23.7644 3.96274 22.6982 4.89929 23.5338 7.19055C23.7654 7.82775 24.6921 9.40223 24.6921 9.40223C24.3403 11.3694 22.7411 12.2875 21.4882 12.4718C21.6504 12.2079 21.8199 11.9077 21.891 11.7033C22.4476 10.1047 21.737 9.35914 20.6962 9.35914L19.3523 10.6632L18.0083 9.35914C16.9677 9.35914 16.2569 10.1047 16.8137 11.7033C16.9686 12.1475 17.5871 13.0444 17.5871 13.0444ZM54.0936 24.7621C53.4118 25.1315 49.4135 27.1368 44.2915 26.3951C44.3445 26.1336 44.3895 25.8702 44.4263 25.6055C47.8353 25.1689 50.6063 24.55 52.3722 23.4984C54.3852 22.299 55.2654 19.4359 54.2493 17.3057C54.2231 17.252 54.1502 17.2425 54.1137 17.2874C53.557 17.9735 50.056 22.0505 44.5403 23.3179C44.5262 23.0121 44.5001 22.7071 44.462 22.4036C47.1409 20.7771 49.7562 18.9031 51.0019 17.1896C52.8846 14.5988 52.7113 11.2943 50.9199 9.60934C50.9013 9.59226 50.8767 9.58459 50.8525 9.58827C50.8282 9.59196 50.8066 9.60665 50.7932 9.6286C50.2265 10.6293 44.9214 19.8089 39.0967 23.7717C39.0257 23.8204 38.954 23.868 38.8818 23.9147C38.715 24.0232 38.6968 24.2553 38.839 24.3935C39.5104 25.045 39.9278 25.9517 39.9278 26.9583C39.9278 28.7084 38.6676 30.164 37.0019 30.4796C36.1553 30.6552 34.9332 30.6043 33.7596 30.189C33.7068 30.1706 33.6521 30.2081 33.6521 30.2647V35.8079C33.6521 35.897 33.7789 35.9191 33.8088 35.8336C34.5222 33.8101 36.6582 33.3801 37.5923 33.3801C37.9285 35.5429 38.5289 37.3344 39.309 38.2987C40.579 39.8655 42.6531 39.8435 43.5525 38.7602C43.5674 38.7423 43.5737 38.7181 43.5698 38.6945C43.5659 38.6709 43.5521 38.6505 43.5324 38.6392C43.004 38.3141 39.9805 36.3269 39.3753 33.0703C39.6143 32.982 39.8474 32.8822 40.0708 32.7641C41.0466 34.4932 42.4672 36.0333 43.6108 36.6214C45.5317 37.6079 47.2903 37.128 48.0703 35.684C48.0986 35.6331 48.064 35.5698 48.0065 35.5641C46.8183 35.4623 43.1716 34.3435 41.6188 31.6176C41.7966 31.4428 41.9706 31.2606 42.1328 31.0668C43.7575 32.3909 46.0548 33.5615 47.6996 33.8004C49.624 34.0806 51.8046 33.4233 51.8575 31.0274C51.8584 30.9794 51.8183 30.9401 51.771 30.9431C51.0866 30.9871 46.5569 31.1982 43.3293 29.2148C43.4414 28.9867 43.5459 28.7543 43.6427 28.5182C43.6427 28.5182 48.5197 29.7523 50.8305 29.3434C53.1268 28.9376 54.4718 27.1049 54.2121 24.8252C54.2048 24.7684 54.1428 24.7352 54.0936 24.7621ZM11.0299 28.5185C11.127 28.7546 11.2318 28.987 11.3442 29.2151C8.11762 31.1975 3.58971 30.9883 2.90269 30.9434C2.85439 30.9403 2.81431 30.9816 2.81516 31.0286C2.86912 33.4236 5.04871 34.0808 6.9731 33.8007C8.61709 33.5617 10.9152 32.3911 12.5398 31.067C12.703 31.2609 12.8762 31.4431 13.0537 31.6178C11.5001 34.3435 7.85436 35.4624 6.66607 35.5642C6.60869 35.5699 6.57495 35.6332 6.60235 35.6841C7.38238 37.1281 9.14104 37.6079 11.0629 36.6215C12.2056 36.0333 13.6261 34.4933 14.6021 32.7644C14.8262 32.8823 15.0594 32.9821 15.2973 33.0704C14.6922 36.327 11.6688 38.3142 11.1402 38.6393C11.1207 38.6508 11.1071 38.6712 11.1032 38.6947C11.0993 38.7182 11.1055 38.7423 11.1202 38.7603C12.0196 39.8436 14.0945 39.8656 15.3646 38.2988C16.1448 37.3344 16.7443 35.543 17.0805 33.3803C18.0154 33.3803 20.1504 33.8103 20.8638 35.8337C20.8948 35.9192 21.0214 35.897 21.0214 35.8079V30.2647C21.0214 30.2081 20.9659 30.1707 20.9131 30.189C19.7394 30.6043 18.5175 30.6553 17.6719 30.4796C16.0053 30.164 14.745 28.7085 14.745 26.9583C14.745 25.9516 15.1632 25.044 15.8339 24.3925C15.9769 24.2552 15.9578 24.023 15.7919 23.9146C15.7191 23.8679 15.6468 23.8202 15.5751 23.7716C9.75416 19.8109 4.4517 10.6379 3.88038 9.63034C3.85383 9.58331 3.79012 9.57377 3.75089 9.61017C1.96217 11.296 1.78814 14.5996 3.67073 17.1894C4.9164 18.9029 7.53148 20.7769 10.2097 22.4034C10.1719 22.7069 10.1461 23.0119 10.1323 23.3177C4.62119 22.0512 1.12296 17.9808 0.560717 17.29C0.523376 17.243 0.448525 17.2526 0.423089 17.3064C-0.590915 19.4374 0.28923 22.2987 2.30037 23.4981C4.06631 24.5497 6.83735 25.1686 10.2463 25.6052C10.2831 25.8699 10.328 26.1333 10.3811 26.3948C5.26453 27.1356 1.26786 25.1351 0.580842 24.7627C0.5298 24.7349 0.467795 24.7695 0.461457 24.8271C0.202817 27.1069 1.54672 28.9376 3.84304 29.3434C6.15299 29.7523 11.0299 28.5185 11.0299 28.5185ZM42.746 45.6314L40.9691 44.1346C40.2602 44.5866 39.739 45.3045 39.5367 46.1458C38.4679 46.3061 35.5536 45.6133 35.8369 45.1538C39.0309 40.3447 36.5879 37.4815 33.652 37.6407V40.8706C33.652 41.9078 32.8063 42.7482 31.7647 42.7482H29.7374C28.283 42.7482 27.3363 44.3133 27.3363 44.3133C27.3363 44.3133 26.3897 42.7482 24.9353 42.7482H22.9078C21.8655 42.7482 21.0217 41.9078 21.0217 40.8706V37.6408C18.0857 37.4817 15.6408 40.3449 18.8357 45.1539C19.1163 45.6087 16.1211 46.337 14.716 46.1527C14.346 45.742 13.812 45.483 13.2142 45.483C12.9601 45.4831 12.708 45.5315 12.4697 45.626C12.4697 45.626 6.94869 40.0301 6.84755 39.9754L6.89311 39.8621C7.20741 39.2327 6.72636 38.5467 6.42207 38.5947C6.77552 38.1409 6.79205 36.1536 4.83101 35.694C4.88839 36.0932 4.91751 36.9079 4.91751 36.9079C4.91751 36.9079 3.40404 36.0318 2.64405 36.7878C1.97621 37.6342 2.90295 39.1694 2.90295 39.1694C2.90295 39.1694 2.1284 39.1895 1.74661 39.155C2.30799 41.1872 4.19058 41.0433 4.59789 40.6423C4.57134 40.9656 5.2522 41.4262 5.82892 41.0567L6.08225 40.9253C6.12695 40.9895 11.5041 46.4281 11.5041 46.4281C11.2571 46.8205 11.1396 47.3023 11.2206 47.8156C11.3482 48.6178 11.9726 49.2827 12.7699 49.4553C13.3329 49.5764 13.8623 49.4592 14.2869 49.1934L15.7103 50.6078C15.8371 50.7307 16.0084 50.8073 16.1996 50.793C16.5477 50.768 16.8083 50.4657 16.782 50.1194C16.771 49.963 16.6963 49.8288 16.5933 49.727C16.5705 49.7001 15.1435 48.2819 15.1435 48.2819C16.3207 47.3981 18.5141 46.7755 20.3347 46.7755C20.6545 46.7755 20.8048 46.4858 20.6946 46.2016C19.8699 44.0782 21.6432 42.5402 23.4775 43.7923C24.2776 44.3383 25.0905 45.4139 25.7028 47.2082C22.693 47.9884 18.9142 50.1375 18.1497 52.4836C17.8553 53.3895 18.8276 54.6243 20.0085 54.8729C20.0294 54.8779 20.0513 54.8736 20.0693 54.8612C20.0873 54.8487 20.0998 54.8291 20.1042 54.8066C20.7212 51.3043 24.2394 48.6944 26.07 48.2511C26.1621 48.5149 26.132 48.4296 26.224 48.6924C24.2303 49.7019 22.2966 51.831 21.7444 54.3622C21.4911 55.5213 22.6985 56.5662 23.6954 56.8523C23.7455 56.8666 23.7947 56.8292 23.7974 56.7774C23.987 53.5764 25.3073 50.8581 26.49 49.6213C26.5224 49.863 26.5468 50.1059 26.563 50.3495C26.563 50.3495 25.352 53.9621 25.352 56.5979C25.352 57.8241 27.0542 58.6801 27.3057 58.8C27.62 58.6801 29.3213 57.8241 29.3213 56.5979C29.3213 53.962 28.1103 50.3495 28.1103 50.3495C28.1268 50.1059 28.1514 49.863 28.1841 49.6213C29.366 50.8581 30.6872 53.5754 30.8759 56.7763C30.8786 56.8282 30.9287 56.8666 30.9778 56.8522C31.9757 56.5663 33.1822 55.5214 32.9297 54.3623C32.3765 51.8311 30.4439 49.7021 28.45 48.6926C28.5412 48.4297 28.5111 48.515 28.6032 48.2512C30.4348 48.6945 33.9521 51.3042 34.569 54.8065C34.5735 54.8289 34.5861 54.8485 34.604 54.861C34.622 54.8734 34.6438 54.8777 34.6648 54.8728C35.8447 54.6244 36.8188 53.3894 36.5227 52.4837C35.76 50.1376 31.9802 47.9885 28.9705 47.2083C29.5837 45.414 30.3964 44.3384 31.1965 43.7924C33.0299 42.5403 34.8032 44.0785 33.9785 46.2019C33.8682 46.4858 34.0176 46.7755 34.3385 46.7755C36.3977 46.7755 38.9345 47.572 39.9386 48.6399C40.5802 49.6704 41.7657 50.3296 43.1034 50.1884C44.6233 50.0293 45.8627 48.8068 46.0339 47.2957C46.1834 45.9715 45.5437 44.7826 44.5241 44.135L42.746 45.6314ZM29.6489 35.9854C30.2823 35.7342 31.2746 35.9375 31.2409 36.9162C31.2327 37.1378 31.5235 37.1378 31.5444 36.9113C31.7339 35.4462 30.809 35.0239 29.8413 35.1957C29.7211 34.6919 29.6227 34.2516 29.5105 33.815C29.4213 33.462 29.3884 32.7988 29.7703 32.7988C29.9763 32.7988 29.8934 33.4159 29.8743 33.6816C29.8569 33.9147 29.9352 34.0558 30.1121 34.0625C30.2224 34.0673 30.36 33.9167 30.442 33.8168C30.9961 33.1461 31.1246 32.108 30.4757 31.6072C29.9328 31.1869 28.5731 31.4997 28.1994 32.0984C28.143 31.8728 27.8732 31.5006 27.7437 31.3383C27.6181 31.1802 27.5853 31.0717 27.7593 30.9326C27.8414 30.8654 28.0892 30.6016 28.0892 30.3291C28.0892 30.1679 27.9726 29.8704 27.6018 29.8704C27.3092 29.8704 26.9839 30.0873 26.9839 30.5708C26.9839 30.6784 27.0085 30.7936 27.0732 30.9174C26.8882 30.8847 26.3861 30.8982 26.1283 30.9663L29.6939 41.4413C30.7145 40.902 31.4626 40.0481 31.4626 39.1318C31.4626 38.3506 30.3881 38.6097 29.866 39.2191C29.6984 38.2289 29.5489 37.3144 29.3859 36.4028C29.3413 36.1514 29.4604 36.0612 29.6489 35.9854ZM24.6072 28.8698L25.3562 31.0977C24.7148 31.2609 23.6833 31.7617 23.6833 32.4247C23.6833 33.3076 25.1421 33.8823 25.9859 33.8131C25.944 34.0147 25.9924 34.1941 26.1236 34.3581C25.8174 34.3581 25.2397 34.5107 25.0501 34.7294C24.6027 34.2833 23.9029 34.1211 23.5702 34.3927C23.2359 34.6662 23.2259 35.1296 23.5749 35.6535C23.8181 36.0162 23.9093 36.3741 23.6359 36.7943C24.6528 36.7943 24.2782 35.3791 24.6765 35.3791C24.6246 35.6535 24.6564 35.9711 24.7722 36.3232C24.8488 36.5573 24.8488 36.7234 24.7176 36.9488C24.3896 37.5102 23.8793 38.7997 23.9485 39.9656C23.615 39.9635 23.4455 39.8762 23.5631 39.3889C23.6068 39.2073 23.5021 39.0779 23.3636 39.3015C23.2104 39.5481 23.1366 39.9693 23.1366 40.1496C23.1366 41.1879 24.2919 41.397 24.733 41.1773C26.0088 42.499 28.5147 42.1464 29.3539 41.7031L24.9418 28.743C24.8515 28.4983 24.528 28.6155 24.6072 28.8698ZM24.4541 39.5453C24.3629 39.0117 25.0564 38.058 25.9385 37.1379C25.7508 37.7375 25.8674 38.7709 26.2355 39.1269C25.5958 39.1269 24.8358 39.2555 24.4541 39.5453Z" fill="white"/>
</svg>
