<svg width="59" height="59" viewBox="0 0 59 59" fill="none" xmlns="http://www.w3.org/2000/svg">
<path d="M26.4975 2.38353C27.2377 -0.260656 30.9864 -0.260657 31.7266 2.38353C32.3337 4.55226 35.1652 5.08155 36.5148 3.27859C38.1602 1.08036 41.6557 2.43453 41.3908 5.16757C41.1735 7.40916 43.6225 8.92556 45.5323 7.73187C47.8607 6.27649 50.631 8.80194 49.3966 11.2547C48.3843 13.2664 50.1201 15.5651 52.3321 15.1419C55.0291 14.6259 56.7 17.9816 54.663 19.8228C52.9922 21.333 53.7805 24.1036 55.996 24.508C58.6972 25.0011 59.0431 28.7338 56.4785 29.7148C54.375 30.5195 54.1092 33.3877 56.029 34.5651C58.3697 36.0007 57.3438 39.6063 54.598 39.5946C52.3459 39.5851 51.062 42.1636 52.4268 43.9551C54.0908 46.1393 51.8317 49.1307 49.2755 48.128C47.179 47.3055 45.0502 49.2461 45.6757 51.4096C46.4384 54.0474 43.2512 56.0209 41.2298 54.1624C39.572 52.6381 36.886 53.6787 36.6877 55.9221C36.4459 58.6572 32.7611 59.346 31.5476 56.8829C30.5523 54.8627 27.6718 54.8627 26.6765 56.8829C25.463 59.346 21.7782 58.6572 21.5364 55.9221C21.3381 53.6787 18.6521 52.6381 16.9942 54.1624C14.9729 56.0209 11.7857 54.0474 12.5484 51.4096C13.1739 49.2461 11.0451 47.3055 8.94857 48.128C6.39237 49.1307 4.13331 46.1393 5.79732 43.9551C7.16213 42.1636 5.87817 39.5851 3.62609 39.5946C0.880267 39.6063 -0.145603 36.0007 2.19507 34.5651C4.11486 33.3877 3.84908 30.5195 1.74562 29.7148C-0.818985 28.7338 -0.473103 25.0011 2.22811 24.508C4.4436 24.1036 5.23189 21.333 3.56114 19.8228C1.52412 17.9816 3.19503 14.6259 5.89196 15.1419C8.10395 15.5651 9.83984 13.2664 8.82746 11.2547C7.59312 8.80194 10.3634 6.27649 12.6918 7.73187C14.6016 8.92556 17.0506 7.40917 16.8333 5.16757C16.5684 2.43453 20.0639 1.08037 21.7093 3.27859C23.0589 5.08155 25.8904 4.55226 26.4975 2.38353Z" fill="white"/>
<path fill-rule="evenodd" clip-rule="evenodd" d="M25.1709 30.4246L25.1719 30.4273H25.1734L25.1709 30.4246Z" fill="black"/>
<path fill-rule="evenodd" clip-rule="evenodd" d="M38.2683 15.4004L38.0004 18.0252C38.9192 18.2747 39.5788 17.4212 40.3437 17.3059C42.6005 16.9645 43.0953 18.9605 42.955 20.707C42.7227 23.6003 40.8581 25.4738 38.8306 27.3676C37.7957 28.3335 34.6609 30.4565 34.6624 31.8149C34.6624 32.3153 34.9852 32.5838 34.9777 33.0536C34.7619 33.0945 34.5341 32.9325 34.4527 32.7603C34.255 32.3474 34.6201 31.6383 34.0755 31.7419C34.151 32.6816 32.3903 34.0283 32.2425 34.5098C32.1203 34.9081 32.1974 35.3546 32.1083 35.7266C32.0812 35.8434 31.8338 35.766 31.7976 36.0359C31.6633 37.0252 32.0148 39.3218 32.4463 40.2453C32.8777 41.1689 33.5816 41.6621 34.6759 41.6636V43.7217C33.7017 43.7217 25.6363 43.7217 25.4721 43.7217C25.4585 43.2285 25.4721 42.3391 25.4721 41.6621C26.7751 41.6636 27.1195 41.3688 27.6113 40.4482C28.1031 39.5275 28.7228 36.9289 28.3592 36.0359C28.2929 35.8711 28.0153 35.8258 27.9281 35.6522C27.9024 35.6011 27.9522 34.8541 27.8134 34.5098C27.6173 34.0239 27.0772 33.7423 26.768 33.3338C26.418 32.8712 26.2098 32.3401 25.8477 31.8893C25.46 31.8616 25.6984 32.3358 25.4812 32.6991C25.4072 32.8216 24.9924 33.1689 24.8702 33.0536C26.2807 30.8636 23.0433 29.155 21.6222 27.8068C19.5736 25.8575 17.3379 23.9651 17.0467 20.9974C16.9109 19.6054 16.9592 17.5481 18.7755 17.3088C20.2419 17.1162 20.566 17.868 21.9252 17.744L21.6222 15.4004L38.2683 15.4004ZM22.4791 18.3696C22.3841 17.6649 22.2166 16.6639 22.2181 15.9884H37.6931C37.4487 20.2124 36.4892 24.1577 35.1315 28.1687C34.6397 29.6248 33.4283 33.1703 32.045 33.9378C31.6528 34.1552 28.358 34.1654 27.9236 33.9685C26.1664 32.3367 25.4193 30.0399 24.7062 27.8477L24.6801 27.7674C23.7131 24.7909 22.897 21.4657 22.4791 18.3696ZM18.5749 17.6984C19.9613 17.1425 20.6881 18.3625 21.9252 18.3625C22.5104 22.4542 23.7352 26.5487 25.1709 30.4246L25.1734 30.4273H25.1719L25.1709 30.4246C22.7235 27.7832 18.2744 25.2493 17.5159 21.5664C17.276 20.405 17.1885 18.2543 18.5749 17.6984ZM34.8313 30.2799C36.2162 26.4017 37.405 22.4214 37.8485 18.3156C39.2786 18.9941 40.0782 17.0856 41.5083 17.767C42.2565 18.1245 42.4677 18.9649 42.5281 19.6973C42.9263 24.5304 37.8894 27.3113 34.8313 30.2799ZM28.4931 34.5127H31.6603H31.6618L31.6603 35.4727C31.6603 35.4727 29.5672 35.4538 28.4931 35.4727V34.5127ZM28.7925 35.8258L31.3665 35.8258C31.6729 38.7736 31.6729 40.6291 33.2669 41.6621H32.8656L27.0927 41.6636C27.0927 41.6636 28.7925 40.7199 28.7925 35.8258ZM34.2738 43.277H25.8755V42.1555L34.2738 42.1555V43.277Z" fill="black"/>
<path d="M33.4492 27.8115L35.7845 18.1831C36.0953 18.3742 36.0006 18.3562 36.0006 18.3562C35.8543 20.18 34.7636 25.7784 33.9124 27.4569C33.8113 27.6772 33.7555 27.8655 33.4492 27.81V27.8115Z" fill="black"/>
<path d="M32.9973 29.7095C32.9959 29.8008 32.062 33.1127 31.4902 32.3329C31.8644 31.5712 32.2068 30.7308 32.6202 29.9925C32.7333 29.7883 32.7497 29.7094 32.9973 29.708V29.7095Z" fill="black"/>
</svg>
