<svg width="20" height="22" viewBox="0 0 20 22" fill="none" xmlns="http://www.w3.org/2000/svg">
<path fill-rule="evenodd" clip-rule="evenodd" d="M16.6515 4.05889C16.6858 4.0979 16.707 4.14674 16.7118 4.19844C16.7167 4.25014 16.705 4.30205 16.6785 4.34674C16.4492 4.75396 16.1781 5.13632 15.8695 5.48763C15.5478 5.85671 15.2023 6.20458 14.8354 6.52907C15.1802 7.16611 15.2948 7.902 15.1601 8.61331C16.3288 7.7523 17.3304 6.68604 18.1156 5.46683C18.1338 5.43667 18.1583 5.41075 18.1874 5.39082C18.2165 5.37089 18.2495 5.35742 18.2843 5.35131C18.3191 5.3452 18.3547 5.34659 18.3889 5.3554C18.4231 5.3642 18.455 5.38022 18.4825 5.40235L18.9778 5.76451L19.3992 1.93029L15.8613 3.4825C15.9679 3.55932 16.6077 4.01019 16.6515 4.05889ZM18.6251 21.4466H15.4378V11.2998C16.6826 10.4802 17.7635 9.43671 18.6251 8.22257V21.4466ZM13.7074 21.4466V12.36C12.6818 12.9143 11.6164 13.3924 10.5201 13.7901V21.4466H13.7074ZM8.78978 21.4466V14.3516C7.74285 14.6505 6.67837 14.8844 5.60245 15.0521V21.4466H8.78978ZM3.87281 21.4466V15.2563C2.81258 15.3466 1.7469 15.3542 0.685479 15.2792V21.4466H3.87281ZM6.7132 10.8187L7.39446 11.9951L8.20964 11.5259L7.52837 10.3496L6.7132 10.8187ZM6.96727 12.2408L5.13031 13.2985C4.37206 13.7268 3.47481 13.8389 2.63403 13.6105C1.79324 13.382 1.07704 12.8316 0.641462 12.079C0.205881 11.3265 0.0862086 10.4328 0.308516 9.59262C0.530823 8.75247 1.0771 8.03395 1.82833 7.5936L3.66437 6.53616L4.34563 7.71272L2.52908 8.75735C2.51621 8.76324 2.50387 8.7702 2.49217 8.77816C2.04724 9.03651 1.72347 9.4605 1.59207 9.95687C1.46068 10.4532 1.53242 10.9813 1.79153 11.425C2.05063 11.8686 2.47587 12.1914 2.97369 12.3224C3.47151 12.4534 4.00114 12.3819 4.44607 12.1236L6.28577 11.0647L6.96681 12.2408H6.96727ZM4.0911 6.29014L4.77237 7.46693L5.58754 6.99686L4.90628 5.8203L4.0911 6.28946V6.29014ZM12.0541 4.8758C12.1326 4.8758 12.2101 4.87878 12.2871 4.88426C12.472 4.35895 12.5074 3.79286 12.3894 3.24871C12.2715 2.70456 12.0047 2.20358 11.6188 1.80128C11.2329 1.39898 10.7428 1.11105 10.2028 0.969384C9.66283 0.827722 9.09407 0.837857 8.55953 0.998668C8.02499 1.15948 7.54552 1.46469 7.17424 1.88048C6.80296 2.29628 6.55436 2.80644 6.45598 3.35444C6.3576 3.90245 6.41327 4.46691 6.61684 4.98531C6.8204 5.50371 7.16391 5.9558 7.60932 6.29152V6.00847C7.61029 5.61284 7.76832 5.23368 8.04887 4.95391C8.32942 4.67413 8.70966 4.5165 9.10644 4.51548H9.75652C9.98185 4.51593 10.2042 4.56707 10.4069 4.66508C10.6097 4.7631 10.7877 4.90546 10.9276 5.08158C11.2871 4.94515 11.6686 4.87541 12.0532 4.8758H12.0541ZM9.10828 6.88254C8.75975 6.84562 8.42039 6.7482 8.10553 6.59469V6.00847C8.10644 5.7438 8.21227 5.49022 8.39995 5.30305C8.58762 5.11588 8.84192 5.01029 9.10736 5.00933H9.75744C9.88896 5.00919 10.0192 5.03502 10.1407 5.08532C10.2621 5.13563 10.3724 5.20942 10.4651 5.30244C9.84706 5.66154 9.36893 6.21837 9.10828 6.88254ZM13.9393 6.14816C14.2054 6.41364 14.4122 6.73233 14.5459 7.08325C14.6797 7.43417 14.7373 7.80935 14.7151 8.18409C14.6929 8.55883 14.5914 8.92464 14.4171 9.25741C14.2429 9.59018 13.9999 9.88238 13.7042 10.1148V9.91859C13.7034 9.55913 13.5598 9.21462 13.3049 8.96042C13.05 8.70622 12.7045 8.563 12.344 8.5621H11.7648C11.4042 8.563 11.0587 8.70621 10.8038 8.96041C10.5488 9.2146 10.4052 9.5591 10.4043 9.91859V10.1148C10.1193 9.89044 9.88331 9.61042 9.71074 9.2919C9.53817 8.97337 9.43269 8.62305 9.40077 8.26242C9.36885 7.9018 9.41116 7.53847 9.52511 7.19473C9.63906 6.85099 9.82224 6.53409 10.0634 6.26347C10.3046 5.99284 10.5987 5.7742 10.9276 5.62096C11.2566 5.46771 11.6135 5.3831 11.9764 5.3723C12.3393 5.3615 12.7006 5.42475 13.0382 5.55817C13.3757 5.69159 13.6823 5.89236 13.9393 6.14816ZM10.9001 10.4236C11.2604 10.5959 11.6549 10.6853 12.0545 10.6853C12.4541 10.6853 12.8486 10.5959 13.2089 10.4236V9.91859C13.2081 9.69009 13.1168 9.47116 12.9547 9.30956C12.7927 9.14796 12.5732 9.05679 12.344 9.05595H11.7648C11.5356 9.05679 11.316 9.14795 11.1539 9.30954C10.9919 9.47114 10.9004 9.69006 10.8996 9.91859V10.4234L10.9001 10.4236ZM12.0546 6.3928C11.5538 6.3928 11.2007 6.8599 11.2007 7.36245C11.2007 8.23606 12.1433 8.6627 12.6728 8.03166C13.1876 7.418 12.806 6.3928 12.0537 6.3928H12.0546ZM12.2935 7.01012C12.0592 6.73073 11.696 6.96096 11.696 7.3629C11.696 7.76484 12.0592 7.99508 12.2935 7.71569C12.3712 7.61436 12.4132 7.4904 12.4132 7.3629C12.4132 7.2354 12.3712 7.11144 12.2935 7.01012ZM9.43229 2.07913C10.2502 2.07913 10.665 3.19945 10.1035 3.86958C9.52722 4.55549 8.50383 4.09044 8.50383 3.13795C8.50383 2.58922 8.88723 2.07959 9.43229 2.07959V2.07913ZM9.72419 2.72137C9.81597 2.84061 9.86572 2.98672 9.86572 3.13703C9.86572 3.28734 9.81597 3.43345 9.72419 3.55269C9.44329 3.88764 8.99913 3.61922 8.99913 3.13703C8.99913 2.65484 9.44329 2.38711 9.72419 2.72137Z" fill="white" fill-opacity="0.8"/>
</svg>
