<svg width="20" height="20" viewBox="0 0 20 20" fill="none" xmlns="http://www.w3.org/2000/svg">
<path d="M13.1862 0.981695C13.7564 1.6894 14.2473 2.55967 14.6463 3.54662C15.212 3.3679 15.7399 3.16223 16.2227 2.93231L16.2236 2.93142C15.3507 2.10336 14.323 1.43787 13.1871 0.981625L13.1862 0.981695ZM6.01262 0.981695C4.87675 1.43794 3.84898 2.10343 2.97613 2.93149L2.97703 2.93238C3.45986 3.1623 3.98859 3.36796 4.55426 3.54669C4.95241 2.55967 5.44332 1.68942 6.01349 0.981766L6.01262 0.981695ZM10.0499 0.302734L10.0481 4.2706C11.3965 4.23917 12.6531 4.06853 13.7816 3.78921H13.7825C13.1313 2.23101 12.2449 1.06357 11.2621 0.435671H11.2612C10.8649 0.365618 10.4606 0.321594 10.0499 0.302734ZM9.15003 0.302734C8.73929 0.321594 8.33483 0.365602 7.9385 0.435653C6.95487 1.06343 6.06851 2.23096 5.41717 3.78919H5.41807C6.54672 4.06849 7.80335 4.23913 9.15164 4.27058L9.15003 0.302734ZM14.0961 4.6226H14.0952C12.8368 4.94322 11.4641 5.13181 10.0471 5.16416L10.048 9.42655L14.8942 9.42745C14.8527 7.63483 14.5618 6.00554 14.0961 4.6226ZM16.8704 3.60773H16.8695C16.2804 3.90322 15.6363 4.16187 14.9499 4.37921V4.38011C15.4517 5.8952 15.7489 7.62398 15.7912 9.42651L19.1997 9.4274C19.0979 7.20638 18.2369 5.18196 16.8704 3.60773ZM5.10377 4.6226C4.63898 6.00567 4.34714 7.63494 4.3057 9.42735L9.1519 9.42646L9.1528 5.16499C7.7359 5.13176 6.36397 4.94316 5.10469 4.62253L5.10377 4.6226ZM2.32948 3.60773C0.963013 5.18212 0.101877 7.20636 0 9.42733L3.40935 9.42643C3.45079 7.62485 3.74805 5.89518 4.24976 4.38004V4.37914C3.56337 4.1618 2.91934 3.90315 2.33024 3.60766L2.32948 3.60773ZM14.8932 10.321H10.048V10.3219L10.0498 14.5834C11.4658 14.6157 12.8377 14.8043 14.096 15.1249C14.5608 13.7419 14.8527 12.1126 14.8941 10.3209L14.8932 10.321ZM4.30568 10.321C4.34711 12.1136 4.63896 13.7419 5.10375 15.1251C6.3621 14.8045 7.73392 14.6159 9.15 14.5835L9.15181 10.322V10.3211L4.30568 10.321ZM19.1989 10.321H15.7914V10.3219C15.7491 12.1235 15.4527 13.8541 14.951 15.3692H14.9528C15.6383 15.5866 16.2814 15.8452 16.8705 16.1407C18.237 14.5654 19.0981 12.5421 19.2 10.3211L19.1989 10.321ZM0 10.321C0.101787 12.542 0.96292 14.5655 2.32948 16.1406H2.33038C2.91858 15.8451 3.56171 15.5865 4.2481 15.3691H4.249C3.74727 13.854 3.45093 12.1234 3.40949 10.3218V10.3209L0 10.321ZM4.55334 16.2008H4.55244C3.98676 16.3796 3.46071 16.5852 2.97701 16.8169C3.84986 17.645 4.87942 18.3114 6.01626 18.7676H6.01716C5.44606 18.0599 4.95245 17.1888 4.55341 16.2018L4.55334 16.2008ZM14.6465 16.2008V16.2017C14.2475 17.1888 13.7538 18.0599 13.1836 18.7676C14.3204 18.3113 15.35 17.645 16.2238 16.8169H16.2229C15.7401 16.5852 15.2132 16.3795 14.6475 16.2008L14.6465 16.2008ZM10.0498 15.4771L10.048 19.4459V19.4468C10.4597 19.427 10.8632 19.383 11.2595 19.3138H11.2613C12.245 18.6861 13.1313 17.5176 13.7827 15.9594C12.654 15.6792 11.3983 15.5085 10.0498 15.4771ZM9.14996 15.4771C7.8024 15.5085 6.54677 15.6791 5.41708 15.9594C6.06833 17.5176 6.95559 18.6859 7.93841 19.3138H7.94021C8.33656 19.383 8.7401 19.427 9.15174 19.4467V19.4458L9.14996 15.4771Z" fill="white" fill-opacity="0.8"/>
</svg>
