<svg width="20" height="15" viewBox="0 0 20 15" fill="none" xmlns="http://www.w3.org/2000/svg">
<path d="M12.9537 14.1443C12.961 14.3408 12.888 14.5299 12.7494 14.6682C12.6108 14.8064 12.4211 14.8864 12.224 14.8864H0.929313C0.732297 14.8864 0.542629 14.8064 0.4113 14.6682C0.272668 14.5299 0.192374 14.3408 0.199678 14.1443C0.265364 10.7032 3.12552 7.90234 6.57668 7.90234C10.0279 7.90234 12.888 10.7032 12.9537 14.1443Z" fill="white" fill-opacity="0.8"/>
<path d="M2.99219 3.6245C2.99219 1.75484 4.5244 0.234375 6.39957 0.234375C8.27474 0.234375 9.7997 1.75484 9.7997 3.6245C9.7997 5.50152 8.27474 7.02199 6.39957 7.02199C4.5244 7.02199 2.99219 5.50152 2.99219 3.6245Z" fill="white" fill-opacity="0.8"/>
<path d="M11.1777 5.53572C11.1777 3.94842 12.4737 2.65625 14.0656 2.65625C15.6495 2.65625 16.9455 3.94842 16.9455 5.53572C16.9455 7.11503 15.6495 8.4073 14.0656 8.4073C12.4737 8.4073 11.1777 7.11503 11.1777 5.53572Z" fill="white" fill-opacity="0.8"/>
<path d="M19.4026 14.0683C19.4026 14.2837 19.3226 14.4911 19.1706 14.6427C19.0186 14.7942 18.8186 14.8819 18.6026 14.8819H14.4428C14.5308 14.6267 14.5628 14.3636 14.5548 14.1083C14.5228 12.2498 13.8348 10.5428 12.7148 9.19487C13.1948 9.05125 13.6988 8.97949 14.2028 8.97949C17.0187 8.97949 19.3546 11.2606 19.4026 14.0683Z" fill="white" fill-opacity="0.8"/>
</svg>
