<svg width="23" height="20" viewBox="0 0 23 20" fill="none" xmlns="http://www.w3.org/2000/svg">
<path d="M15.8127 4.62292C16.1675 4.24831 15.9703 3.60556 15.4753 3.52368L13.3167 3.1634C13.1224 3.13065 12.9552 3.00169 12.8662 2.81644L11.8763 0.754063C11.6492 0.281198 11.0121 0.281198 10.7849 0.754063L9.79503 2.81644C9.70609 3.00169 9.53788 3.13065 9.34455 3.1634L7.18591 3.52368C6.69096 3.60658 6.49375 4.24831 6.84853 4.62292L8.39524 6.25747C8.53444 6.40486 8.59825 6.61264 8.56731 6.81835L8.22317 9.10283C8.14391 9.62687 8.66011 10.024 9.10673 9.78246L11.0527 8.7303C11.2277 8.63613 11.4345 8.63613 11.6095 8.7303L13.5555 9.78246C14.0021 10.024 14.5173 9.62688 14.439 9.10283L14.0949 6.81835C14.0639 6.61262 14.1277 6.40486 14.267 6.25747L15.8137 4.62292H15.8127Z" fill="white"/>
<path d="M22.3566 6.50844C22.5944 6.25768 22.462 5.82678 22.1304 5.77152L20.6842 5.52997C20.5547 5.50847 20.4425 5.42148 20.3826 5.29763L19.7194 3.9159C19.5676 3.59965 19.1404 3.59965 18.9886 3.9159L18.3254 5.29763C18.2655 5.42148 18.1534 5.50847 18.0238 5.52997L16.5776 5.77152C16.2461 5.82679 16.1136 6.25667 16.3514 6.50844L17.3877 7.6036C17.4805 7.70186 17.524 7.84208 17.5028 7.97923L17.2727 9.51042C17.2205 9.86147 17.5656 10.1266 17.8643 9.96588L19.1684 9.26069C19.2853 9.19723 19.4245 9.19723 19.5415 9.26069L20.8456 9.96588C21.1443 10.1276 21.4904 9.86148 21.4372 9.51042L21.2071 7.97923C21.1858 7.84208 21.2293 7.70186 21.3221 7.6036L22.3584 6.50844H22.3566Z" fill="white"/>
<path d="M1.23959 9.51042C1.18739 9.86147 1.5325 10.1266 1.8312 9.96588L3.13526 9.26069C3.25223 9.19723 3.39145 9.19723 3.5084 9.26069L4.81247 9.96588C5.11117 10.1276 5.45726 9.86148 5.40408 9.51042L5.174 7.97923C5.1537 7.84208 5.19624 7.70186 5.28904 7.6036L6.32533 6.50844C6.56314 6.25769 6.4307 5.82678 6.09913 5.77152L4.65294 5.52997C4.5234 5.50847 4.41127 5.42148 4.35132 5.29763L3.68817 3.9159C3.5364 3.59965 3.10913 3.59965 2.95735 3.9159L2.2942 5.29763C2.23426 5.42148 2.12213 5.50847 1.99258 5.52997L0.546391 5.77152C0.214826 5.82679 0.0823783 6.25667 0.320186 6.50844L1.35648 7.6036C1.44928 7.70186 1.49278 7.84208 1.47152 7.97923L1.24144 9.51042H1.23959Z" fill="white"/>
<path d="M17.7124 19.5572L18.5476 18.6729C18.5989 18.6186 18.5989 18.5306 18.5476 18.4763L16.39 16.1919C16.3184 16.1161 16.3184 15.9933 16.39 15.9186L18.0739 14.1356C18.1735 14.0302 18.1281 13.8511 17.9918 13.8122L11.6426 12.0108C11.5073 11.9719 11.3825 12.1039 11.4183 12.2483L13.1197 18.9706C13.1564 19.1139 13.3256 19.163 13.4252 19.0576L15.1092 17.2746C15.1807 17.1989 15.2967 17.1989 15.3673 17.2746L17.5249 19.5591C17.5762 19.6134 17.6593 19.6134 17.7106 19.5591L17.7124 19.5572Z" fill="white"/>
<path d="M6.70697 15.5615C6.80558 15.5615 6.90515 15.5216 6.98056 15.4417L7.9163 14.451C8.06711 14.2913 8.06711 14.0324 7.9163 13.8717C7.7655 13.712 7.52091 13.712 7.36916 13.8717L6.43342 14.8624C6.28261 15.0221 6.28261 15.2811 6.43342 15.4417C6.50882 15.5216 6.6074 15.5615 6.70697 15.5615Z" fill="white"/>
<path d="M8.57031 14.7356V16.1368C8.57031 16.363 8.74335 16.5462 8.95699 16.5462C9.17063 16.5462 9.34367 16.363 9.34367 16.1368V14.7356C9.34367 14.5094 9.17063 14.3262 8.95699 14.3262C8.74335 14.3262 8.57031 14.5094 8.57031 14.7356Z" fill="white"/>
<path d="M7.48935 12.7698C7.48935 12.5436 7.31631 12.3604 7.10267 12.3604H5.77926C5.56562 12.3604 5.39258 12.5436 5.39258 12.7698C5.39258 12.996 5.56562 13.1792 5.77926 13.1792H7.10267C7.31631 13.1792 7.48935 12.996 7.48935 12.7698Z" fill="white"/>
</svg>
