<svg width="20" height="21" viewBox="0 0 20 21" fill="none" xmlns="http://www.w3.org/2000/svg">
<path fill-rule="evenodd" clip-rule="evenodd" d="M9.5998 0.599609C9.47001 0.599609 9.34117 0.64666 9.24264 0.740765L6.21114 3.63625C6.06619 3.77469 6.02356 3.9819 6.10125 4.16195C6.17988 4.34201 6.36365 4.45965 6.56829 4.45965H8.08404V8.80287C8.08404 9.06888 8.31046 9.28514 8.58897 9.28514C8.86748 9.28514 9.09389 9.06889 9.09389 8.80287V3.97738C9.09389 3.71137 8.86748 3.49511 8.58897 3.49511H7.78751L9.59979 1.76414L11.4121 3.49511H10.6106C10.3321 3.49511 10.1057 3.71136 10.1057 3.97738V8.80287C10.1057 9.06888 10.3321 9.28514 10.6106 9.28514C10.8891 9.28514 11.1155 9.06889 11.1155 8.80287V4.45965H12.6313C12.835 4.45965 13.0197 4.34202 13.0983 4.16195C13.177 3.98188 13.1334 3.77377 12.9884 3.63625L9.95695 0.740765C9.85842 0.645756 9.72864 0.599609 9.5998 0.599609ZM3.5368 3.97736C3.40701 3.97736 3.27817 4.02441 3.17964 4.11852L0.148138 7.014C0.00319396 7.15244 -0.0394363 7.35965 0.0382477 7.5397C0.116878 7.71976 0.300654 7.8374 0.505293 7.8374H2.02104V12.1806C2.02104 12.4466 2.24746 12.6629 2.52597 12.6629C2.80448 12.6629 3.0309 12.4466 3.0309 12.1806V7.35513C3.0309 7.08912 2.80448 6.87286 2.52597 6.87286H1.72451L3.53679 5.14189L5.34907 6.87286H4.54762C4.26911 6.87286 4.04269 7.08911 4.04269 7.35513V12.1806C4.04269 12.4466 4.2691 12.6629 4.54762 12.6629C4.82613 12.6629 5.05254 12.4466 5.05254 12.1806V7.8374H6.56829C6.77197 7.8374 6.95671 7.71977 7.03534 7.5397C7.11397 7.35964 7.07039 7.15152 6.92545 7.014L3.89395 4.11852C3.79542 4.02351 3.66565 3.97736 3.5368 3.97736ZM15.6628 3.97736C15.533 3.97736 15.4042 4.02441 15.3056 4.11852L12.2741 7.014C12.1292 7.15244 12.0866 7.35965 12.1642 7.5397C12.2429 7.71976 12.4267 7.8374 12.6313 7.8374H14.147V12.1806C14.147 12.4466 14.3735 12.6629 14.652 12.6629C14.9305 12.6629 15.1569 12.4466 15.1569 12.1806V7.35513C15.1569 7.08912 14.9305 6.87286 14.652 6.87286H13.8505L15.6628 5.14189L17.4751 6.87286H16.6736C16.3951 6.87286 16.1687 7.08911 16.1687 7.35513V12.1806C16.1687 12.4466 16.3951 12.6629 16.6736 12.6629C16.9521 12.6629 17.1785 12.4466 17.1785 12.1806V7.8374H18.6943C18.898 7.8374 19.0827 7.71977 19.1613 7.5397C19.24 7.35964 19.1964 7.15152 19.0514 7.014L16.0199 4.11852C15.9214 4.02351 15.7916 3.97736 15.6628 3.97736ZM9.5998 9.76832C8.4772 9.76832 7.48531 10.0425 6.86854 10.4451C6.33897 10.7899 6.0633 11.2387 6.0633 11.6993V15.1511C5.44279 14.8154 4.54282 14.5947 3.53672 14.5947C2.41412 14.5947 1.42224 14.8688 0.805465 15.2715C0.275898 15.6162 0.000225628 16.065 0.000225628 16.5256V18.9388C0.000225628 19.3994 0.275898 19.8473 0.805465 20.1929C1.42219 20.5947 2.415 20.8698 3.53672 20.8698C4.65933 20.8698 5.65024 20.5956 6.26701 20.1929C6.3788 20.1196 6.47922 20.0418 6.56827 19.9604C6.65732 20.0418 6.75679 20.1196 6.86859 20.1929C7.48531 20.5947 8.47812 20.8698 9.59984 20.8698C10.7224 20.8698 11.7134 20.5956 12.3301 20.1929C12.4419 20.1196 12.5423 20.0418 12.6314 19.9604C12.7204 20.0418 12.8199 20.1196 12.9317 20.1929C13.5484 20.5947 14.5412 20.8698 15.663 20.8698C16.7856 20.8698 17.7765 20.5956 18.3933 20.1929C18.9228 19.8482 19.1994 19.3994 19.1994 18.9388V16.5256C19.1994 16.065 18.9228 15.6171 18.3933 15.2715C17.7765 14.8697 16.7847 14.5947 15.663 14.5947C14.6578 14.5947 13.7569 14.8154 13.1364 15.1502V11.6993C13.1364 11.2387 12.8598 10.7908 12.3302 10.4452C11.7135 10.0434 10.7215 9.76832 9.5998 9.76832ZM9.5998 10.7338C10.4856 10.7338 11.2737 10.9256 11.7607 11.2432C11.9682 11.378 12.1264 11.5201 12.1264 11.6993C12.1264 11.8784 11.9682 12.0205 11.7607 12.1553C11.2738 12.472 10.4856 12.6647 9.5998 12.6647C8.71402 12.6647 7.92585 12.4729 7.4389 12.1553C7.23143 12.0205 7.07322 11.8784 7.07322 11.6993C7.07322 11.5201 7.23143 11.378 7.4389 11.2432C7.92583 10.9265 8.71402 10.7338 9.5998 10.7338ZM12.1264 13.0729V14.1125C12.1264 14.2917 11.9682 14.4337 11.7607 14.5686C11.2738 14.8853 10.4856 15.078 9.5998 15.078C8.71402 15.078 7.92585 14.8862 7.4389 14.5686C7.23143 14.4338 7.07322 14.2917 7.07322 14.1125V13.0738C7.69374 13.4086 8.5937 13.6293 9.5998 13.6293C10.6059 13.6293 11.5059 13.4077 12.1264 13.0729ZM12.1264 15.4861V16.5257C12.1264 16.7049 11.9682 16.847 11.7607 16.9818C11.2738 17.2985 10.4856 17.4912 9.5998 17.4912C8.71402 17.4912 7.92585 17.2994 7.4389 16.9818C7.23143 16.847 7.07322 16.7049 7.07322 16.5257V15.487C7.69374 15.8218 8.5937 16.0425 9.5998 16.0425C10.6059 16.0425 11.5059 15.8209 12.1264 15.4861ZM3.5368 15.5603C4.42255 15.5603 5.21074 15.7521 5.6977 16.0697C5.90517 16.2045 6.06337 16.3466 6.06337 16.5257C6.06337 16.7049 5.90516 16.847 5.6977 16.9818C5.21077 17.2985 4.42258 17.4912 3.5368 17.4912C2.65102 17.4912 1.86285 17.2994 1.3759 16.9818C1.16843 16.847 1.01022 16.7049 1.01022 16.5257C1.01022 16.3466 1.16843 16.2045 1.3759 16.0697C1.86283 15.753 2.65102 15.5603 3.5368 15.5603ZM15.6628 15.5603C16.5485 15.5603 17.3367 15.7521 17.8237 16.0697C18.0312 16.2045 18.1894 16.3466 18.1894 16.5257C18.1894 16.7049 18.0312 16.847 17.8237 16.9818C17.3368 17.2985 16.5486 17.4912 15.6628 17.4912C14.777 17.4912 13.9888 17.2994 13.5019 16.9818C13.2944 16.847 13.1362 16.7049 13.1362 16.5257C13.1362 16.3466 13.2944 16.2045 13.5019 16.0697C13.9888 15.753 14.777 15.5603 15.6628 15.5603ZM6.06337 17.8994V18.939C6.06337 19.1182 5.90516 19.2602 5.6977 19.3951C5.21077 19.7118 4.42258 19.9045 3.5368 19.9045C2.65102 19.9045 1.86285 19.7127 1.3759 19.3951C1.16843 19.2603 1.01022 19.1182 1.01022 18.939V17.9003C1.63074 18.2351 2.5307 18.4558 3.5368 18.4558C4.54289 18.4558 5.44286 18.2341 6.06337 17.8994ZM12.1264 17.8994V18.939C12.1264 19.1182 11.9682 19.2602 11.7607 19.3951C11.2738 19.7118 10.4856 19.9045 9.5998 19.9045C8.71402 19.9045 7.92585 19.7127 7.4389 19.3951C7.23143 19.2603 7.07322 19.1182 7.07322 18.939V17.9003C7.69374 18.2351 8.5937 18.4558 9.5998 18.4558C10.6059 18.4558 11.5059 18.2341 12.1264 17.8994ZM18.1894 17.8994V18.939C18.1894 19.1182 18.0312 19.2602 17.8237 19.3951C17.3368 19.7118 16.5486 19.9045 15.6628 19.9045C14.777 19.9045 13.9888 19.7127 13.5019 19.3951C13.2944 19.2603 13.1362 19.1182 13.1362 18.939V17.9003C13.7567 18.2351 14.6567 18.4558 15.6628 18.4558C16.6689 18.4558 17.5689 18.2341 18.1894 17.8994Z" fill="white" fill-opacity="0.8"/>
</svg>
