<svg width="22" height="18" viewBox="0 0 22 18" fill="none" xmlns="http://www.w3.org/2000/svg">
<path d="M8.74708 6.07422V10.9421H3.23875C2.54407 10.9421 1.98047 10.3718 1.98047 9.66547V7.35101C1.98047 6.64804 2.54407 6.0777 3.23875 6.0777H8.74708V6.07422Z" fill="white"/>
<path d="M18.3695 0.599609V16.3038H16.4952L9.42383 10.9983V5.90509L16.4952 0.599609H18.3695Z" fill="white"/>
<path d="M1.30349 7.67969V9.32439H1.0184C0.566217 9.32439 0.199219 8.95631 0.199219 8.50204C0.199219 8.2832 0.284415 8.07429 0.435146 7.91843C0.592431 7.76258 0.798873 7.67969 1.0184 7.67969H1.30349Z" fill="white"/>
<path d="M8.08226 17.1682C7.87582 17.4435 7.56125 17.5993 7.22046 17.5993C6.75188 17.5993 6.34229 17.3009 6.19484 16.8499L4.48438 11.624H7.00429L8.26257 16.2099C8.35432 16.5448 8.2887 16.8897 8.08226 17.1682Z" fill="white"/>
<path d="M21.1663 8.449C21.1663 9.70574 20.239 10.7469 19.043 10.9095V5.98535C20.239 6.14783 21.1663 7.19235 21.1663 8.449Z" fill="white"/>
</svg>
