<svg width="15" height="15" viewBox="0 0 15 15" fill="none" xmlns="http://www.w3.org/2000/svg">
<path fill-rule="evenodd" clip-rule="evenodd" d="M9.04934 14.6984C10.3581 14.3884 11.5319 13.728 12.4676 12.8214C12.1008 12.6374 11.7032 12.4729 11.2801 12.3303C11.1651 12.2918 11.0477 12.2542 10.9294 12.2191C10.8233 12.4601 10.7093 12.6902 10.5886 12.9075C10.1593 13.6772 9.63672 14.2914 9.05029 14.6993L9.04934 14.6984ZM12.9798 12.2709C13.9912 11.069 14.6278 9.53958 14.7088 7.86278H11.8381C11.8026 9.20679 11.5716 10.4624 11.1944 11.5411C11.3004 11.5734 11.405 11.6072 11.5087 11.6419C12.0374 11.8197 12.5301 12.0313 12.9798 12.2709ZM14.7088 7.13538C14.6278 5.45858 13.9912 3.92867 12.9798 2.72729C12.5301 2.9669 12.0374 3.17799 11.5087 3.35627C11.405 3.39097 11.3004 3.42473 11.1944 3.45706C11.5716 4.53579 11.8026 5.79137 11.8381 7.13538H14.7088ZM12.4672 2.17723C11.5319 1.2706 10.3576 0.609766 9.04887 0.300267C9.6353 0.707702 10.1578 1.32195 10.5871 2.09213C10.7083 2.30939 10.8219 2.53902 10.9279 2.78053C11.0467 2.74535 11.1636 2.70779 11.2787 2.66929C11.7018 2.52666 12.0999 2.36216 12.4662 2.17818L12.4672 2.17723ZM5.65945 0.300267C4.35073 0.610241 3.1769 1.2706 2.24115 2.17723C2.60797 2.36121 3.00556 2.52571 3.4287 2.66833C3.54372 2.70684 3.66063 2.7444 3.77943 2.77958C3.88546 2.53855 3.99952 2.30844 4.12022 2.09117C4.54952 1.32147 5.07206 0.707227 5.6585 0.299316L5.65945 0.300267ZM1.72903 2.72776C0.717548 3.92962 0.0809371 5.45905 0 7.13586H2.87066C2.90616 5.79185 3.13714 4.53579 3.51437 3.45753C3.40835 3.4252 3.30375 3.39145 3.20009 3.35674C2.6714 3.17894 2.17868 2.96737 1.72903 2.72776ZM0 7.86325C0.0809371 9.54006 0.717548 11.07 1.72903 12.2713C2.17868 12.0317 2.6714 11.8206 3.20009 11.6424C3.30375 11.6077 3.40835 11.5739 3.51437 11.5416C3.13761 10.4628 2.90616 9.20726 2.87066 7.86325H0ZM2.24163 12.8214C3.1769 13.728 4.3512 14.3889 5.65992 14.6984C5.07348 14.2909 4.55094 13.6767 4.12164 12.9065C4.00047 12.6897 3.88688 12.4596 3.78085 12.2181C3.66205 12.2533 3.54514 12.2908 3.43012 12.3293C3.00698 12.472 2.60892 12.6365 2.24257 12.8205L2.24163 12.8214ZM10.2194 12.0327C9.43982 11.8549 8.59779 11.7479 7.71695 11.7251V14.4982C8.57508 14.3399 9.35794 13.6253 9.95716 12.5518C10.049 12.3869 10.1365 12.2133 10.2194 12.0327ZM6.99278 11.7251C6.11146 11.7479 5.26991 11.8554 4.49035 12.0327C4.57318 12.2133 4.66027 12.3864 4.75257 12.5518C5.35179 13.6258 6.13513 14.3399 6.99278 14.4982V11.7251ZM4.21488 11.3519C5.07963 11.1456 6.01538 11.0219 6.99278 10.9972V7.86278H3.59531C3.63081 9.14641 3.85327 10.3383 4.21441 11.3519H4.21488ZM7.71695 10.9972C8.69482 11.0219 9.63057 11.1456 10.4948 11.3519C10.856 10.3383 11.0784 9.14641 11.1139 7.86278H7.71648V10.9972H7.71695ZM3.59579 7.13586H6.99325V4.00189C6.01538 3.97717 5.07963 3.85308 4.21488 3.64722C3.85374 4.66082 3.63128 5.8527 3.59579 7.13633V7.13586ZM7.71695 7.13586H11.1144C11.0789 5.85222 10.8565 4.66035 10.4953 3.64675C9.63057 3.85308 8.69482 3.97669 7.71695 4.00141V7.13538V7.13586ZM7.71695 0.500419V3.27402C8.59827 3.25072 9.43982 3.14375 10.2194 2.96595C10.1365 2.78529 10.0495 2.61224 9.95716 2.44679C9.35794 1.37282 8.5746 0.658734 7.71695 0.500419ZM6.99278 3.27402V0.500419C6.13466 0.658734 5.35179 1.37329 4.75257 2.44679C4.66075 2.61176 4.57318 2.78529 4.49035 2.96595C5.26991 3.14375 6.11194 3.25072 6.99278 3.27402Z" fill="white"/>
</svg>
