<svg width="15" height="15" viewBox="0 0 15 15" fill="none" xmlns="http://www.w3.org/2000/svg">
<path d="M13.0802 8.58913C13.1032 8.45822 13.2046 8.35676 13.3355 8.33058L14.2723 8.14198C14.5783 8.08036 14.7984 7.81149 14.7984 7.49932C14.7984 7.18714 14.5783 6.91827 14.2723 6.85665L13.3355 6.66806C13.2046 6.64187 13.1032 6.54042 13.0802 6.40951C13.0312 6.17714 12.969 5.93823 12.8872 5.7026C12.8446 5.57496 12.8839 5.43751 12.9821 5.34914L13.6993 4.71973C13.9348 4.51309 13.9911 4.1687 13.8337 3.8978C13.6771 3.62829 13.3524 3.50632 13.0571 3.60612L12.1508 3.91242C12.0264 3.95496 11.8857 3.91896 11.7973 3.81751C11.637 3.63424 11.4635 3.46079 11.2802 3.30041C11.1821 3.21204 11.1428 3.0746 11.1853 2.94695L11.4916 2.04064C11.5914 1.74534 11.4695 1.42062 11.1999 1.26403C10.9291 1.10665 10.5847 1.16297 10.378 1.39845L9.74861 2.11569C9.66024 2.21388 9.5228 2.25315 9.39515 2.2106C9.15952 2.12878 8.92062 2.0666 8.68825 2.01751C8.55734 1.9946 8.45588 1.89315 8.4297 1.76223L8.2411 0.825483C8.17948 0.519449 7.91061 0.299316 7.59844 0.299316C7.28626 0.299316 7.01739 0.519449 6.95578 0.825484L6.76718 1.76223C6.741 1.89314 6.63954 1.9946 6.50863 2.01751C6.27626 2.0666 6.03735 2.12878 5.80172 2.2106C5.67408 2.25315 5.53663 2.21387 5.44827 2.11569L4.81885 1.39845C4.61221 1.16297 4.26782 1.10665 3.99693 1.26403C3.72741 1.42062 3.60545 1.74534 3.70524 2.04064L4.01154 2.94695C4.05408 3.07459 4.01481 3.21204 3.91663 3.30041C3.73336 3.46077 3.55991 3.63424 3.39953 3.81751C3.31116 3.91896 3.17043 3.95496 3.04607 3.91242L2.13976 3.60612C1.84446 3.50632 1.51974 3.62829 1.36315 3.8978C1.20577 4.1687 1.26209 4.51309 1.49757 4.71973L2.21481 5.34914C2.313 5.43751 2.35227 5.57496 2.30972 5.7026C2.22791 5.93823 2.16572 6.17714 2.11663 6.40951C2.09372 6.54041 1.99227 6.64187 1.86135 6.66806L0.924605 6.85665C0.61857 6.91827 0.398438 7.18714 0.398438 7.49932C0.398438 7.81149 0.61857 8.08036 0.924605 8.14198L1.86135 8.33058C1.99226 8.35676 2.09372 8.45821 2.11663 8.58913C2.16572 8.82149 2.2279 9.0604 2.30972 9.29603C2.35227 9.42367 2.313 9.56112 2.21481 9.64949L1.49757 10.2789C1.26209 10.4855 1.20577 10.8299 1.36315 11.1008C1.51974 11.3703 1.84446 11.4923 2.13976 11.3925L3.04607 11.0862C3.17044 11.0437 3.31116 11.0797 3.39953 11.1811C3.55989 11.3644 3.73336 11.5378 3.91663 11.6982C4.01481 11.7866 4.05408 11.924 4.01154 12.0517L3.70524 12.958C3.60545 13.2533 3.72741 13.578 3.99692 13.7346C4.26782 13.892 4.61221 13.8357 4.81886 13.6002L5.44827 12.8829C5.53663 12.7848 5.67408 12.7455 5.80172 12.788C6.03735 12.8698 6.27626 12.932 6.50863 12.9811C6.63954 13.004 6.741 13.1055 6.76718 13.2364L6.95578 14.1731C7.01739 14.4792 7.28626 14.6993 7.59844 14.6993C7.91061 14.6993 8.17948 14.4792 8.2411 14.1731L8.4297 13.2364C8.45588 13.1055 8.55733 13.004 8.68825 12.9811C8.92062 12.932 9.15952 12.8698 9.39515 12.788C9.52279 12.7455 9.66024 12.7848 9.74861 12.8829L10.378 13.6002C10.5847 13.8357 10.9291 13.892 11.2 13.7346C11.4695 13.578 11.5914 13.2533 11.4916 12.958L11.1853 12.0517C11.1428 11.924 11.1821 11.7866 11.2802 11.6982C11.4635 11.5379 11.637 11.3644 11.7973 11.1811C11.8857 11.0797 12.0264 11.0437 12.1508 11.0862L13.0571 11.3925C13.3524 11.4923 13.6771 11.3703 13.8337 11.1008C13.9911 10.8299 13.9348 10.4855 13.6993 10.2789L12.9821 9.64949C12.8839 9.56112 12.8446 9.42367 12.8872 9.29603C12.969 9.0604 13.0312 8.82149 13.0802 8.58913ZM7.59841 12.127C5.04559 12.127 2.97073 10.0521 2.97073 7.49934C2.97073 4.94655 5.04563 2.87166 7.59841 2.87166C10.1512 2.87166 12.2261 4.94655 12.2261 7.49934C12.2261 10.0521 10.1512 12.127 7.59841 12.127Z" fill="white"/>
<path d="M7.59618 3.52686C5.40341 3.52686 3.62305 5.30721 3.62305 7.49999C3.62305 9.69276 5.40341 11.4731 7.59618 11.4731C9.78896 11.4731 11.5693 9.69276 11.5693 7.49999C11.5693 5.30721 9.78896 3.52686 7.59618 3.52686ZM7.59618 9.97741C6.23146 9.97741 5.11876 8.86469 5.11876 7.49999C5.11876 6.13529 6.23148 5.02257 7.59618 5.02257C8.96088 5.02257 10.0736 6.13529 10.0736 7.49999C10.0736 8.86469 8.96088 9.97741 7.59618 9.97741Z" fill="white"/>
</svg>
