<svg width="24" height="17" viewBox="0 0 24 17" fill="none" xmlns="http://www.w3.org/2000/svg">
<path d="M0.544922 0.186523C2.75562 4.46629 6.66187 5.13303 11.4012 5.23214C14.1977 5.29221 20.3499 5.04894 20.3499 6.57764C20.3499 7.72492 16.2523 11.3199 16.2523 12.0557C16.2523 12.0557 19.093 9.60502 20.6796 8.16341C22.2663 6.7218 23.1523 5.86885 23.1523 5.0159C23.1523 3.27997 16.5732 3.59832 11.2599 3.59832C5.94656 3.59832 3.04115 2.57118 0.544922 0.186523ZM6.47936 13.4733C5.5992 13.4733 4.87801 14.1851 4.87801 15.0831C4.87801 15.9811 5.5992 16.7169 6.47936 16.7169C7.35952 16.7169 8.05717 15.9811 8.05717 15.0831C8.05717 14.1851 7.35952 13.4733 6.47936 13.4733ZM13.8268 13.4733C12.9466 13.4733 12.249 14.1851 12.249 15.0831C12.249 15.9811 12.9466 16.7169 13.8268 16.7169C14.7069 16.7169 15.4281 15.9811 15.4281 15.0831C15.4281 14.1851 14.7069 13.4733 13.8268 13.4733Z" fill="white"/>
</svg>
