<svg width="18" height="17" viewBox="0 0 18 17" fill="none" xmlns="http://www.w3.org/2000/svg">
<path d="M7.44341 16.6216C5.99327 16.3226 4.64019 15.6558 3.57795 14.7165C0.850823 12.3052 0.00802606 8.51721 1.44867 5.14681C1.80248 4.31908 2.37763 3.47903 3.09028 2.74925L3.71858 2.1059L3.7629 5.8715C3.80532 9.47599 3.81489 9.65749 3.98606 10.1117C4.32872 11.0204 4.69598 11.5989 5.32833 12.2258C6.96168 13.8453 9.35753 14.2495 11.3943 13.2492C13.3086 12.3089 14.5154 10.2644 14.3752 8.19931C14.2809 6.81213 13.8123 5.79501 12.8008 4.78151C12.0357 4.01516 11.1357 3.51453 10.1559 3.31043C9.15896 3.1028 9.20683 3.07248 9.20683 3.91253V4.6378L9.75334 4.73804C11.87 5.12635 13.2699 7.19559 12.8287 9.28397C12.6878 9.9509 12.3734 10.5399 11.8689 11.0825C11.1022 11.9069 10.0235 12.301 9.08155 12.2993C7.52404 12.2962 6.22353 11.4152 5.59325 10.1121C5.59325 10.1121 5.42819 9.73974 5.37504 9.50951C5.06299 8.1561 5.26255 5.30703 5.26255 5.30703L5.23837 1.14112L5.48538 1.01393C5.62123 0.944005 5.75154 0.886736 5.77498 0.886736C5.79834 0.886736 5.82805 2.80019 5.841 5.13876C5.841 5.13876 5.54101 8.20433 5.91165 9.37912C5.96513 9.54862 6.06672 9.83858 6.06672 9.83858C6.39164 10.4977 6.91249 11.0775 7.58924 11.3966C8.10291 11.6388 8.36156 11.7485 9.12149 11.7485C9.61808 11.7485 10.058 11.5924 10.5641 11.3607C11.1608 11.0875 11.8452 10.3631 12.0982 9.70178C12.7951 7.87961 11.8247 5.91916 9.95529 5.37252C9.19131 5.14911 9.20691 5.13687 9.20691 5.96394V6.68633L9.57359 6.78403C10.8956 7.13602 11.2989 8.90001 10.2611 9.80637C9.89447 10.1267 9.5641 10.2681 8.98623 10.2681C8.36865 10.2681 7.77592 9.89602 7.47114 9.3253C7.28809 8.98243 7.27265 8.6573 7.27265 8.50825C7.27265 7.13249 7.24269 4.65801 7.24269 4.65801L7.21794 0.413631L7.40775 0.366715C7.51207 0.340751 7.93405 0.276909 8.34521 0.224653C9.73997 0.0475054 11.8034 0.501876 13.1896 1.29156C15.0796 2.36808 16.5096 4.21745 17.105 6.35504C17.3099 7.09034 17.3327 7.30405 17.3327 8.48689C17.3327 9.66439 17.3093 9.88533 17.1088 10.6044C16.2991 13.5097 14.239 15.5865 11.2935 16.4673C10.6736 16.6527 10.3832 16.6881 9.28936 16.7113C8.40662 16.7301 7.83444 16.7023 7.44341 16.6216Z" fill="white"/>
</svg>
