<svg width="16" height="17" viewBox="0 0 16 17" fill="none" xmlns="http://www.w3.org/2000/svg">
<path d="M9.0496 5.70162V16.9912H6.9375V4.90918L9.0496 5.70162Z" fill="white"/>
<path d="M0.607422 4.64516C0.607422 1.75763 2.18606 0.183594 4.03687 0.183594C5.88768 0.183594 6.14897 0.444123 8.25019 1.4971C10.3514 2.55007 10.8849 2.8106 11.9409 2.8106C12.997 2.8106 13.5196 2.01815 13.5196 0.444123H15.3595C15.6208 3.59219 13.7809 4.90569 11.93 4.90569C10.0792 4.90569 9.55665 4.64516 7.71672 3.59219C5.87679 2.53921 5.34332 2.27868 4.28727 2.27868C3.23122 2.27868 2.70864 3.07113 2.44735 4.90569L0.607422 4.64516Z" fill="white"/>
</svg>
