<svg width="17" height="17" viewBox="0 0 17 17" fill="none" xmlns="http://www.w3.org/2000/svg">
<path d="M14.5098 2.48999C12.9713 0.951457 10.8464 0 8.49992 0C6.15255 0 4.02719 0.951542 2.48999 2.48999C0.951457 4.02719 0 6.15272 0 8.49991C0 13.1938 3.8062 17 8.50008 17C10.8475 17 12.9716 16.0485 14.51 14.51C16.0472 12.9715 17 10.8466 17 8.50008C17 6.15272 16.0485 4.02855 14.51 2.49016L14.5098 2.48999ZM8.49992 15.9789C4.37566 15.9789 1.02044 12.6237 1.02044 8.4994C1.01977 4.37447 4.37566 1.01993 8.49992 1.01993C12.6242 1.01993 15.9794 4.37515 15.9794 8.4994C15.9794 12.6237 12.6242 15.9789 8.49992 15.9789ZM4.29611 11.5957C4.29611 11.2983 4.53715 11.0572 4.83463 11.0572H12.166C12.4635 11.0572 12.7046 11.2983 12.7046 11.5957C12.7046 11.8932 12.4635 12.1343 12.166 12.1343H4.83463C4.53715 12.1343 4.29611 11.8932 4.29611 11.5957ZM4.29611 8.50008C4.29611 8.20261 4.53715 7.96156 4.83463 7.96156H12.166C12.4635 7.96156 12.7046 8.20261 12.7046 8.50008C12.7046 8.79756 12.4635 9.03861 12.166 9.03861H4.83463C4.53715 9.03861 4.29611 8.79756 4.29611 8.50008ZM4.29611 5.40307C4.29611 5.10559 4.53715 4.86455 4.83463 4.86455H12.166C12.4635 4.86455 12.7046 5.10559 12.7046 5.40307C12.7046 5.70055 12.4635 5.94159 12.166 5.94159H4.83463C4.53715 5.94159 4.29611 5.70055 4.29611 5.40307Z" fill="white"/>
</svg>
