<svg width="29" height="12" viewBox="0 0 29 12" fill="none" xmlns="http://www.w3.org/2000/svg">
<path d="M0.232422 0.402607C0.232422 0.402607 1.37152 0.259343 2.13092 0.930099C2.59965 1.34392 2.73627 2.0034 2.73627 2.0034L4.2871 8.02376L5.57694 3.09643C5.70225 2.5727 5.92884 1.92496 6.28687 1.48718C6.74383 0.929629 7.67141 0.8944 7.77034 0.8944C7.86927 0.8944 8.79637 0.929629 9.25286 1.48718C9.61089 1.92496 9.83748 2.57223 9.96326 3.09643L11.2531 8.02376L12.8035 2.0034C12.8035 2.0034 12.9406 1.34392 13.4093 0.930099C14.1687 0.259343 15.3073 0.402607 15.3073 0.402607L12.3376 11.6537C12.3376 11.6537 11.3582 11.7247 10.8678 11.4743C10.2238 11.1455 9.91804 10.8919 9.52797 9.36057C9.33084 8.57737 9.13612 7.79357 8.94382 7.00917L8.8708 6.71372C8.66494 5.87669 8.45954 5.04294 8.31492 4.46284L8.24425 4.18101C8.17924 3.92548 8.13449 3.75357 8.11847 3.7019C8.07466 3.56051 8.02237 3.22373 7.76986 3.22373C7.52301 3.22373 7.46601 3.56098 7.42126 3.7019C7.40477 3.75357 7.36002 3.92501 7.29548 4.18101L7.22481 4.46284C7.0744 5.06565 6.92522 5.66877 6.77728 6.27219L6.70473 6.56623C6.4766 7.4985 6.24577 8.43011 6.01223 9.36104C5.62216 10.8919 5.31596 11.146 4.67198 11.4743C4.18157 11.7247 3.20217 11.6537 3.20217 11.6537L0.232422 0.402607ZM18.1329 2.26879V2.6751H18.1338V9.46673C18.1287 10.8604 17.9935 11.1699 17.4055 11.4907C16.9486 11.7402 16.2495 11.6457 16.2495 11.6457V4.03774C16.2495 3.65586 16.3682 3.40551 16.8058 3.18098C17.0673 3.04664 17.3109 2.94377 17.5643 2.79159C17.9106 2.58491 18.0863 2.33925 18.1249 2.281L18.1329 2.26879ZM19.076 0.440184C19.076 0.440184 20.6104 0.169158 21.3702 0.886415C21.7975 1.2899 22.27 1.97757 22.377 2.13633L22.3972 2.16639L22.3996 2.17015L23.7375 4.16927C23.802 4.27307 23.8868 4.38627 24.0225 4.38627C24.1577 4.38627 24.2429 4.27354 24.308 4.16927L25.6454 2.17015L25.6477 2.16639L25.668 2.13633C25.7749 1.97757 26.2474 1.2899 26.6752 0.885945C27.4346 0.169158 28.9689 0.439714 28.9689 0.439714L25.3335 6.04625L28.959 11.6345C28.959 11.6345 27.3894 11.844 26.6295 11.1267C26.1433 10.6683 25.6454 9.92189 25.6454 9.92189L24.3075 7.92324C24.2429 7.81896 24.1577 7.70576 24.0225 7.70576C23.8868 7.70576 23.802 7.81849 23.737 7.92324L22.3996 9.92189C22.3996 9.92189 21.929 10.6683 21.4433 11.1267C20.6834 11.844 19.0855 11.6345 19.0855 11.6345L22.711 6.04625L19.076 0.440184ZM18.1291 0.389924H18.1338C18.1338 1.13677 18.0632 1.58066 17.6109 1.92543C17.401 2.08631 17.1695 2.21706 16.9231 2.31388C16.6734 2.41105 16.4447 2.55521 16.2495 2.73851C16.2495 1.37821 16.4488 0.885476 16.9844 0.593781C17.3174 0.412471 17.8644 0.391803 18.0608 0.389924H18.1291Z" fill="white"/>
</svg>
