<svg width="18" height="17" viewBox="0 0 18 17" fill="none" xmlns="http://www.w3.org/2000/svg">
<path d="M14.7453 8.03444C14.7453 7.01279 14.3777 6.30569 14.0625 5.75491C13.6422 5.07408 13.2479 4.49782 13.2479 3.81673C13.2479 3.05679 13.8261 2.34968 14.6404 2.34968C14.677 2.34968 14.7125 2.35424 14.7475 2.35612C13.2729 1.0092 11.3081 0.186523 9.15044 0.186523C6.2543 0.186523 3.70697 1.66778 2.22461 3.91192C2.41905 3.91755 2.60246 3.92184 2.75817 3.92184C3.62521 3.92184 4.96719 3.81673 4.96719 3.81673C5.41389 3.79018 5.4666 4.445 5.02044 4.49756C5.02044 4.49756 4.57132 4.55011 4.07191 4.57612L7.08988 13.5294L8.9041 8.10497L7.61242 4.57693C7.16626 4.55092 6.74322 4.49836 6.74322 4.49836C6.29679 4.47208 6.34897 3.79125 6.79567 3.81753C6.79567 3.81753 8.16453 3.92238 8.9786 3.92238C9.84564 3.92238 11.1882 3.81753 11.1882 3.81753C11.6354 3.79125 11.6873 4.44553 11.2409 4.49836C11.2409 4.49836 10.7907 4.55092 10.2923 4.57693L13.288 13.4615L14.1147 10.7071C14.4729 9.56316 14.7453 8.74182 14.7453 8.03444Z" fill="white"/>
<path d="M0.861328 8.45128C0.861328 11.7227 2.76833 14.5498 5.53323 15.8895L1.57884 5.08789C1.11897 6.11544 0.861328 7.25319 0.861328 8.45128Z" fill="white"/>
<path d="M9.29986 9.1748L6.8125 16.3802C7.55529 16.598 8.34058 16.7173 9.15437 16.7173C10.1196 16.7173 11.0452 16.5508 11.9069 16.2486C11.8843 16.2132 11.8644 16.1759 11.8475 16.1346L9.29986 9.1748Z" fill="white"/>
<path d="M13.3125 15.5945C15.777 14.1618 17.4344 11.4996 17.4344 8.45074C17.4347 7.01373 17.0665 5.66279 16.4189 4.48535C16.455 4.74841 16.4749 5.0313 16.4749 5.33512C16.4749 6.17389 16.3181 7.1167 15.8445 8.29548L13.3125 15.5945Z" fill="white"/>
</svg>
