<svg width="19" height="17" viewBox="0 0 19 17" fill="none" xmlns="http://www.w3.org/2000/svg">
<path d="M7.0274 6.74188C7.0274 5.48841 6.40822 4.88281 5.4651 4.88281C5.09132 4.88281 4.80665 4.9251 4.66016 4.98173V8.67116C4.84667 8.74139 5.08226 8.77008 5.36693 8.77008C6.3984 8.77008 7.0274 8.05122 7.0274 6.74188Z" fill="white"/>
<path d="M0.798828 14.1287L10.89 16.7391V0.203125L0.798828 2.81503V14.1287ZM3.8064 4.09417C4.21869 3.99525 4.75859 3.91068 5.44649 3.91068C6.2922 3.91068 6.90988 4.19233 7.30253 4.69976C7.66649 5.15056 7.88245 5.84072 7.88245 6.68568C7.88245 7.54424 7.70575 8.22156 7.372 8.71389C6.91969 9.40405 6.18347 9.75593 5.34832 9.75593C5.0931 9.75593 4.85751 9.74083 4.66118 9.67061V13.4741H3.8064V4.09417Z" fill="white"/>
<path d="M11.4766 2.14551V15.3945H18.6017V2.14551H11.4766ZM13.8038 3.28722H16.7895V7.31721H16.4467V3.61192H13.8038V3.28722ZM13.2873 3.78484H13.6301H16.273V7.49013V7.81482L13.2873 7.8118V3.78484ZM14.9296 14.0995C13.9707 14.0995 13.1944 13.3225 13.1944 12.3636C13.1944 11.4046 13.9707 10.6276 14.9296 10.6276V12.3636H16.6656C16.6656 13.3225 15.8886 14.0995 14.9296 14.0995ZM15.1471 12.1468V10.4109C16.1061 10.4109 16.8831 11.1879 16.8831 12.1468H15.1471Z" fill="white"/>
</svg>
