<svg width="12" height="18" viewBox="0 0 12 18" fill="none" xmlns="http://www.w3.org/2000/svg">
<path d="M2.88328 0.799805C1.51202 0.799805 0.400391 1.91143 0.400391 3.28269C0.400391 4.65394 1.51202 5.76557 2.88328 5.76557H8.67667C10.048 5.76557 11.1596 4.65394 11.1596 3.28269C11.1596 1.91143 10.048 0.799805 8.67667 0.799805H2.88328Z" fill="white"/>
<path d="M0.400391 9.06785C0.400391 7.69655 1.51202 6.58496 2.88328 6.58496H5.36616V11.5507H2.88328C1.51202 11.5507 0.400391 10.4391 0.400391 9.06785Z" fill="white"/>
<path d="M8.66843 6.58496C7.29713 6.58496 6.18555 7.69655 6.18555 9.06785C6.18555 10.4391 7.29713 11.5507 8.66843 11.5507C10.0397 11.5507 11.1513 10.4391 11.1513 9.06785C11.1513 7.69655 10.0397 6.58496 8.66843 6.58496Z" fill="white"/>
<path d="M2.88328 12.3701C1.51202 12.3701 0.400391 13.4817 0.400391 14.853C0.400391 16.2243 1.51202 17.3359 2.88328 17.3359C4.25457 17.3359 5.36616 16.2243 5.36616 14.853V12.3701H2.88328Z" fill="white"/>
</svg>
