<svg width="21" height="17" viewBox="0 0 21 17" fill="none" xmlns="http://www.w3.org/2000/svg">
<path d="M10.3206 13.0386H4.90086L3.7936 16.4623C3.76446 16.5934 3.64791 16.6808 3.51679 16.6663H0.777784C0.617524 16.6663 0.573816 16.5789 0.617524 16.404L5.30879 2.89842C5.3525 2.75273 5.39621 2.59247 5.45449 2.41764C5.51276 2.11168 5.5419 1.79116 5.5419 1.47064C5.52733 1.3978 5.58561 1.32495 5.65845 1.31038H9.43187C9.54842 1.31038 9.6067 1.35409 9.62127 1.42693L14.939 16.4332C14.9827 16.5934 14.939 16.6663 14.7933 16.6663H11.7484C11.6464 16.6808 11.5444 16.608 11.5153 16.506L10.3206 13.0386ZM5.74587 10.081H9.44644C9.35902 9.77506 9.24247 9.41084 9.11135 9.03204C8.98022 8.63867 8.8491 8.21616 8.71798 7.77909C8.57229 7.32745 8.44116 6.89037 8.29547 6.43873C8.14978 5.98708 8.01866 5.56458 7.90211 5.14207C7.78555 4.73414 7.68357 4.35534 7.58158 4.00568H7.55245C7.42132 4.63215 7.26106 5.25862 7.05709 5.8851C6.83856 6.58442 6.62002 7.31288 6.38691 8.04133C6.18294 8.78436 5.96441 9.46911 5.74587 10.081ZM18.1879 3.85998C17.7072 3.87455 17.2409 3.68515 16.8913 3.35006C16.5562 2.98584 16.3814 2.50505 16.3959 2.0097C16.3814 1.51435 16.5708 1.04814 16.9204 0.713046C17.2701 0.377955 17.7363 0.203125 18.2171 0.203125C18.7853 0.203125 19.2223 0.377955 19.5429 0.713046C19.8634 1.06271 20.0382 1.52892 20.0237 2.0097C20.0382 2.50505 19.8634 2.98584 19.5137 3.35006C19.1786 3.69972 18.6833 3.88912 18.1879 3.85998ZM16.5562 16.506V5.28776C16.5562 5.14207 16.6145 5.08379 16.7456 5.08379H19.6303C19.7614 5.08379 19.8197 5.15664 19.8197 5.28776V16.506C19.8197 16.6663 19.7614 16.7391 19.6303 16.7391H16.7747C16.629 16.7391 16.5562 16.6517 16.5562 16.506Z" fill="white"/>
</svg>
