<svg width="23" height="17" viewBox="0 0 23 17" fill="none" xmlns="http://www.w3.org/2000/svg">
<path d="M0.601562 16.2185V0.463414C0.601562 0.356236 0.647446 0.294991 0.754508 0.294991C1.01451 0.294991 1.25923 0.294992 1.611 0.279681C1.97807 0.264369 2.36043 0.264369 2.77338 0.249058C3.18633 0.233747 3.62988 0.233747 4.104 0.218436C4.57813 0.203125 5.03697 0.203125 5.4958 0.203125C6.74995 0.203125 7.78998 0.356236 8.64647 0.677769C9.4112 0.938058 10.1147 1.36677 10.6959 1.93328C11.1854 2.42324 11.5677 3.02037 11.8124 3.67875C12.0419 4.32181 12.1642 4.98019 12.1642 5.66919C12.1642 6.98595 11.8583 8.07304 11.2465 8.93046C10.6348 9.78788 9.77827 10.4309 8.78412 10.7984C7.7441 11.1812 6.59701 11.319 5.34286 11.319C4.97579 11.319 4.73108 11.319 4.57813 11.3037C4.42519 11.2884 4.21107 11.2884 3.92047 11.2884V16.2032C3.93576 16.3104 3.85929 16.4023 3.75223 16.4176H0.785097C0.662741 16.4176 0.601562 16.3563 0.601562 16.2185ZM3.93577 3.25004V8.39457C4.14989 8.40988 4.34872 8.42519 4.53225 8.42519H5.34286C5.93935 8.42519 6.53583 8.33333 7.10173 8.14959C7.59115 8.01179 8.0194 7.72088 8.35588 7.3381C8.67706 6.95532 8.83001 6.43475 8.83001 5.76106C8.8453 5.28641 8.72295 4.81177 8.47823 4.39837C8.21823 4.00028 7.85116 3.69406 7.40762 3.52564C6.84172 3.29597 6.22994 3.2041 5.60287 3.21941C5.20521 3.21941 4.85344 3.21941 4.56284 3.23473C4.25695 3.21941 4.04283 3.23472 3.93577 3.25004ZM21.708 7.46059C21.2491 7.21561 20.7597 7.04719 20.2397 6.94001C19.6738 6.81752 19.1079 6.74097 18.5267 6.74097C18.2208 6.72566 17.8997 6.77159 17.6091 6.84815C17.4102 6.89408 17.242 7.00126 17.1349 7.15437C17.0585 7.27686 17.0126 7.42997 17.0126 7.56777C17.0126 7.70557 17.0737 7.84337 17.1655 7.96586C17.3032 8.13428 17.4867 8.27208 17.6855 8.37926C18.0373 8.56299 18.4044 8.73141 18.7714 8.88452C19.5973 9.16012 20.3927 9.5429 21.1268 10.0022C21.6315 10.3238 22.0445 10.7525 22.3351 11.2731C22.5798 11.763 22.7021 12.2989 22.6868 12.8501C22.7021 13.5697 22.488 14.2893 22.0903 14.8865C21.6621 15.4989 21.0656 15.9736 20.3774 16.2492C19.6279 16.5707 18.7103 16.7391 17.6091 16.7391C16.9055 16.7391 16.2173 16.6779 15.529 16.5401C14.9937 16.4482 14.4584 16.2798 13.969 16.0501C13.8619 15.9889 13.7854 15.8817 13.8007 15.7592V13.0951C13.8007 13.0491 13.816 12.9879 13.8619 12.9573C13.9078 12.9267 13.9537 12.942 13.9996 12.9726C14.596 13.3247 15.2231 13.5697 15.8961 13.7228C16.4773 13.8759 17.089 13.9525 17.7008 13.9525C18.282 13.9525 18.695 13.8759 18.9703 13.7381C19.215 13.631 19.3832 13.3707 19.3832 13.0951C19.3832 12.8807 19.2609 12.6817 19.0161 12.4826C18.7714 12.2836 18.2667 12.0539 17.5173 11.763C16.7373 11.4874 16.0184 11.1199 15.3455 10.6606C14.8713 10.3238 14.4737 9.87975 14.1831 9.35917C13.9384 8.86921 13.816 8.33332 13.8313 7.79744C13.8313 7.13906 14.0148 6.5113 14.3513 5.94479C14.7337 5.33235 15.2996 4.84239 15.9572 4.53617C16.6761 4.1687 17.5785 4.00028 18.6644 4.00028C19.2915 4.00028 19.9338 4.04621 20.5609 4.13808C21.0197 4.19932 21.4633 4.32181 21.8762 4.49024C21.9374 4.50555 21.9986 4.56679 22.0292 4.62804C22.0445 4.68928 22.0598 4.75052 22.0598 4.81177V7.30748C22.0598 7.36873 22.0292 7.42997 21.9833 7.46059C21.8456 7.49121 21.7692 7.49121 21.708 7.46059Z" fill="white"/>
</svg>
