<svg width="15" height="17" viewBox="0 0 15 17" fill="none" xmlns="http://www.w3.org/2000/svg">
<path d="M14.3989 8.04556C14.3989 7.79892 14.3467 7.56443 14.2527 7.35245C13.8954 6.54629 12.9746 7.16051 12.9746 8.04229C12.9746 8.92356 13.8956 9.53917 14.2534 8.73377C14.3469 8.52318 14.3989 8.29036 14.3989 8.04556Z" fill="white"/>
<path d="M3.48527 11.4141C2.53445 11.4141 1.83334 12.3025 2.05428 13.2273L2.73491 16.0761C2.78714 16.3004 2.9225 16.4888 3.11597 16.6094C3.3124 16.7315 3.54339 16.7691 3.76999 16.7154L3.86563 16.6962C4.31586 16.5896 4.60278 16.1209 4.49389 15.6538L3.48471 11.4148C3.48463 11.4144 3.48491 11.4141 3.48527 11.4141Z" fill="white"/>
<path d="M0 6.46477V9.61048C0 10.2807 0.545125 10.8258 1.21532 10.8258H1.44848C2.9863 10.8258 4.23296 9.57914 4.23296 8.04132C4.23296 6.50349 2.9863 5.25684 1.44848 5.25684H1.21532C0.545125 5.25684 0 5.79825 0 6.46477Z" fill="white"/>
<path d="M11.7891 15.7297C11.7893 15.7295 11.7896 15.7295 11.7898 15.7297C11.8972 15.8265 12.0405 15.8485 12.172 15.7904C12.3044 15.7316 12.3831 15.6102 12.3831 15.4652V0.613616C12.3831 0.401743 12.2213 0.313453 12.1713 0.2914C12.1212 0.269329 11.9476 0.209005 11.7894 0.351724L7.34313 4.3662C6.70751 4.94003 5.8865 5.25637 5.03023 5.25637C4.91322 5.25637 4.81836 5.35122 4.81836 5.46824V10.6135C4.81836 10.7305 4.91322 10.8253 5.03023 10.8253C5.88656 10.8253 6.70755 11.1417 7.34313 11.7155L11.7883 15.7296C11.7885 15.7298 11.7889 15.7298 11.7891 15.7297Z" fill="white"/>
</svg>
