<svg width="23" height="21" viewBox="0 0 23 21" fill="none" xmlns="http://www.w3.org/2000/svg">
<path d="M1.37711 9.19144C1.37711 9.19144 11.1566 4.91972 14.5483 3.41555C15.8485 2.81393 20.2577 0.888573 20.2577 0.888573C20.2577 0.888573 22.2928 0.0463048 22.1231 2.0919C22.0666 2.93425 21.6144 5.88232 21.1622 9.07111C20.4838 13.5836 19.7489 18.5171 19.7489 18.5171C19.7489 18.5171 19.6359 19.9009 18.6749 20.1416C17.7139 20.3822 16.1311 19.2993 15.8485 19.0586C15.6223 18.8782 11.6088 16.1707 10.1391 14.847C9.74334 14.486 9.29114 13.7641 10.1955 12.9217C12.2306 10.9363 14.6613 8.46949 16.1311 6.9052C16.8094 6.18317 17.4877 4.49855 14.6613 6.54414C10.6478 9.49229 6.69081 12.2599 6.69081 12.2599C6.69081 12.2599 5.78633 12.8615 4.09049 12.32C2.39457 11.7786 0.416066 11.0566 0.416066 11.0566C0.416066 11.0566 -0.940543 10.1541 1.37711 9.19144Z" fill="#332C34"/>
</svg>
