<svg width="18" height="21" viewBox="0 0 18 21" fill="none" xmlns="http://www.w3.org/2000/svg">
<path d="M10.1663 7.28038V20.2207H7.74609V6.37207L10.1663 7.28038Z" fill="#0F0F0F"/>
<path d="M0.490234 6.06898C0.490234 2.75925 2.29912 0.955078 4.41989 0.955078C6.54066 0.955078 6.84006 1.2537 9.24776 2.46063C11.6555 3.66756 12.2667 3.96618 13.4768 3.96618C14.6869 3.96618 15.2857 3.05787 15.2857 1.2537H17.394C17.6934 4.86205 15.5851 6.3676 13.4643 6.3676C11.3436 6.3676 10.7448 6.06898 8.63648 4.86205C6.52819 3.65512 5.91691 3.3565 4.70682 3.3565C3.49673 3.3565 2.89793 4.26481 2.59853 6.3676L0.490234 6.06898Z" fill="#0F0F0F"/>
</svg>
