<svg width="14" height="17" viewBox="0 0 14 17" fill="none" xmlns="http://www.w3.org/2000/svg">
<path fill-rule="evenodd" clip-rule="evenodd" d="M0.0719863 4.3339L1.49337 2.91252C1.54001 2.86652 1.60289 2.84074 1.6684 2.84074C1.7339 2.84074 1.79678 2.86652 1.84343 2.91252C1.88955 2.9591 1.91543 3.022 1.91543 3.08755C1.91543 3.1531 1.88955 3.216 1.84343 3.26258L0.422047 4.68396C0.37547 4.73009 0.312568 4.75596 0.247016 4.75596C0.181465 4.75596 0.118563 4.73009 0.0719863 4.68396C0.0258713 4.63741 0 4.57454 0 4.50902C0 4.4435 0.0258713 4.38063 0.0719863 4.33408V4.3339ZM5.60881 0.500364H8.14178C8.23828 0.500606 8.33075 0.53911 8.3989 0.607433C8.46705 0.675756 8.50532 0.768319 8.50532 0.864821C8.50499 0.961102 8.46657 1.05334 8.39845 1.12139C8.33033 1.18943 8.23806 1.22776 8.14178 1.228H5.60881C5.5123 1.228 5.41974 1.18973 5.35142 1.12158C5.2831 1.05343 5.24459 0.960958 5.24435 0.864456C5.24435 0.767796 5.28275 0.675096 5.3511 0.606747C5.41945 0.538398 5.51215 0.5 5.60881 0.5V0.500364ZM6.59539 9.43592C6.66001 9.37133 6.74502 9.33115 6.83594 9.32221C6.92686 9.31328 7.01807 9.33614 7.09402 9.38692C7.16998 9.43769 7.22597 9.51323 7.25247 9.60066C7.27898 9.6881 7.27434 9.78201 7.23936 9.86641C7.20438 9.95081 7.14121 10.0205 7.06063 10.0635C6.98004 10.1066 6.88703 10.1203 6.79743 10.1025C6.70782 10.0846 6.62718 10.0363 6.56924 9.96564C6.5113 9.895 6.47965 9.80646 6.47967 9.7151C6.47962 9.66323 6.48981 9.61187 6.50967 9.56396C6.52953 9.51605 6.55866 9.47254 6.59539 9.43592ZM7.07538 6.34989C7.07538 6.29673 7.05426 6.24574 7.01667 6.20815C6.97908 6.17056 6.92809 6.14944 6.87493 6.14944C6.82177 6.14944 6.77078 6.17056 6.73319 6.20815C6.6956 6.24574 6.67448 6.29673 6.67448 6.34989V8.94445C6.55524 8.97539 6.44481 9.03357 6.35186 9.1144C6.25891 9.19523 6.18598 9.29652 6.13879 9.41031C6.0916 9.52409 6.07144 9.64727 6.07991 9.77016C6.08837 9.89305 6.12522 10.0123 6.18756 10.1186L4.84964 11.4565C4.83099 11.4752 4.81621 11.4974 4.80615 11.5219C4.79608 11.5463 4.79093 11.5725 4.79099 11.599C4.79105 11.6254 4.79632 11.6516 4.80649 11.676C4.81666 11.7004 4.83154 11.7225 4.85028 11.7412C4.86902 11.7599 4.89125 11.7746 4.9157 11.7847C4.94015 11.7948 4.96634 11.7999 4.99278 11.7999C5.01922 11.7998 5.04539 11.7945 5.06979 11.7844C5.0942 11.7742 5.11636 11.7593 5.13501 11.7406L6.47293 10.4026C6.57115 10.4604 6.68061 10.4963 6.79392 10.5081C6.90723 10.52 7.02175 10.5073 7.12976 10.4711C7.23777 10.4349 7.33675 10.3759 7.42003 10.2981C7.5033 10.2204 7.56893 10.1257 7.61248 10.0204C7.65604 9.91517 7.6765 9.80178 7.6725 9.68793C7.6685 9.57408 7.64012 9.46241 7.58928 9.36046C7.53844 9.25851 7.46633 9.16865 7.3778 9.09695C7.28927 9.02525 7.18639 8.97337 7.07611 8.94482V6.34989H7.07538ZM3.36576 5.92202L3.87764 6.43317C3.91531 6.47082 3.93649 6.52189 3.9365 6.57515C3.93652 6.62841 3.91538 6.6795 3.87773 6.71717C3.84008 6.75484 3.78901 6.77602 3.73575 6.77603C3.68249 6.77605 3.6314 6.75491 3.59373 6.71726L3.08349 6.20593C2.2453 7.10923 1.75894 8.28323 1.71277 9.51465H2.43585C2.48901 9.51465 2.54 9.53576 2.57759 9.57336C2.61518 9.61095 2.6363 9.66193 2.6363 9.7151C2.6363 9.76826 2.61518 9.81925 2.57759 9.85684C2.54 9.89443 2.48901 9.91555 2.43585 9.91555H1.71113C1.7573 11.147 2.24366 12.3211 3.08185 13.2244L3.593 12.7131C3.63074 12.6754 3.68194 12.6542 3.73532 12.6542C3.7887 12.6542 3.83989 12.6754 3.87764 12.7131C3.91538 12.7509 3.93659 12.8021 3.93659 12.8554C3.93659 12.9088 3.91538 12.96 3.87764 12.9978L3.3674 13.5091C4.27072 14.3472 5.44472 14.8335 6.67612 14.8796V14.1565C6.67612 14.1034 6.69724 14.0524 6.73483 14.0148C6.77242 13.9772 6.82341 13.9561 6.87657 13.9561C6.92973 13.9561 6.98072 13.9772 7.01831 14.0148C7.0559 14.0524 7.07702 14.1034 7.07702 14.1565V14.8796C8.30842 14.8336 9.48244 14.3473 10.3857 13.5091L9.87295 12.9978C9.8353 12.9601 9.81415 12.909 9.81415 12.8558C9.81415 12.8026 9.8353 12.7515 9.87295 12.7138C9.91059 12.6762 9.96166 12.655 10.0149 12.655C10.0681 12.655 10.1192 12.6762 10.1569 12.7138L10.6682 13.2252C11.5063 12.3217 11.9925 11.1477 12.0387 9.91628H11.3164C11.2632 9.91628 11.2122 9.89516 11.1746 9.85757C11.137 9.81997 11.1159 9.76899 11.1159 9.71583C11.1159 9.66266 11.137 9.61168 11.1746 9.57409C11.2122 9.53649 11.2632 9.51537 11.3164 9.51537H12.0395C11.9935 8.28373 11.5072 7.10945 10.6689 6.20593L10.1576 6.71726C10.1199 6.75501 10.0688 6.77624 10.0155 6.77629C9.96213 6.77634 9.91096 6.75521 9.87322 6.71753C9.83547 6.67986 9.81424 6.62874 9.81419 6.57541C9.81414 6.52208 9.83527 6.47091 9.87295 6.43317L10.3841 5.92293C9.48109 5.08461 8.30738 4.59794 7.07611 4.5513V5.27474C7.07611 5.32791 7.05499 5.37889 7.0174 5.41648C6.9798 5.45407 6.92882 5.47519 6.87566 5.47519C6.82249 5.47519 6.77151 5.45407 6.73392 5.41648C6.69632 5.37889 6.67521 5.32791 6.67521 5.27474V4.5513C5.4438 4.59752 4.26982 5.08387 3.36649 5.92202H3.36576ZM6.87529 4.14584C5.58673 4.14584 4.33803 4.59263 3.34196 5.41008C2.34589 6.22754 1.66407 7.36508 1.41269 8.62888C1.1613 9.89268 1.3559 11.2045 1.96332 12.341C2.57074 13.4774 3.55341 14.368 4.74388 14.8611C5.93436 15.3542 7.25898 15.4193 8.49206 15.0453C9.72514 14.6712 10.7904 13.8812 11.5063 12.8098C12.2221 11.7384 12.5444 10.4519 12.4181 9.16955C12.2918 7.88719 11.7248 6.6883 10.8136 5.77715C10.297 5.25918 9.68312 4.84842 9.00725 4.56847C8.33138 4.28851 7.60685 4.14488 6.87529 4.14584ZM2.07814 4.9183C0.968242 6.02816 0.277515 7.48853 0.123646 9.05057C-0.0302222 10.6126 0.362288 12.1797 1.2343 13.4848C2.10631 14.7899 3.40387 15.7522 4.90588 16.2079C6.40789 16.6635 8.02142 16.5842 9.47155 15.9836C10.9217 15.3829 12.1187 14.298 12.8586 12.9138C13.5985 11.5295 13.8355 9.93153 13.5293 8.39209C13.2231 6.85264 12.3926 5.467 11.1793 4.47126C9.96594 3.47551 8.44489 2.93128 6.87529 2.93129C5.98426 2.93004 5.10177 3.10488 4.27851 3.44575C3.45526 3.78662 2.70748 4.28681 2.07814 4.91758V4.9183ZM6.87529 2.52966C6.69537 2.52966 6.51715 2.53622 6.34064 2.54934V1.63018H7.40995V2.5497C7.23355 2.5367 7.05533 2.53014 6.87529 2.53002V2.52966ZM1.53036 4.91284C1.6154 4.81771 1.70335 4.7249 1.79422 4.63439C1.8851 4.54389 1.97785 4.45599 2.07249 4.37071L1.6878 3.98584L1.14567 4.52761L1.53036 4.91284Z" fill="white"/>
</svg>
