<svg width="22" height="22" viewBox="0 0 22 22" fill="none" xmlns="http://www.w3.org/2000/svg">
<circle cx="11" cy="11" r="10" stroke="#121212" stroke-width="1.5"/>
<path d="M18.4494 17.6714L17.9368 18.2188L18.4963 18.7429L19.008 18.1719L18.4494 17.6714ZM3.55056 17.6714L2.99203 18.172L3.50371 18.7429L4.06327 18.2188L3.55056 17.6714ZM21 11H20.25C20.25 13.3717 19.3584 15.5333 17.8909 17.1709L18.4494 17.6714L19.008 18.1719C20.7125 16.27 21.75 13.7553 21.75 11H21ZM11 1V1.75C16.1086 1.75 20.25 5.89137 20.25 11H21H21.75C21.75 5.06294 16.9371 0.25 11 0.25V1ZM1 11H1.75C1.75 5.89137 5.89137 1.75 11 1.75V1V0.25C5.06294 0.25 0.25 5.06294 0.25 11H1ZM3.55056 17.6714L4.1091 17.1709C2.6416 15.5333 1.75 13.3717 1.75 11H1H0.25C0.25 13.7553 1.28753 16.27 2.99203 18.172L3.55056 17.6714ZM3.55056 17.6714L4.06327 18.2188C4.60544 17.711 5.69892 17.2201 7.05611 16.858C8.38406 16.5038 9.83946 16.3056 10.9997 16.3056V15.5556V14.8056C9.6936 14.8056 8.10785 15.0251 6.66953 15.4087C5.26046 15.7846 3.86254 16.3516 3.03785 17.124L3.55056 17.6714ZM10.9997 15.5556V16.3056C12.16 16.3056 13.6155 16.5038 14.9436 16.8581C16.3009 17.2201 17.3945 17.711 17.9368 18.2188L18.4494 17.6714L18.9621 17.124C18.1374 16.3516 16.7393 15.7846 15.3301 15.4087C13.8917 15.0251 12.3058 14.8056 10.9997 14.8056V15.5556Z" fill="#121212"/>
<circle cx="10.9991" cy="8.44444" r="4.44444" stroke="#121212" stroke-width="1.5"/>
</svg>
