<svg width="46" height="46" viewBox="0 0 46 46" fill="none" xmlns="http://www.w3.org/2000/svg">
<g filter="url(#filter0_i_2353_7664)">
<rect width="46" height="46" rx="11.5" fill="white" fill-opacity="0.05"/>
</g>
<rect x="0.479566" y="0.479566" width="45.0409" height="45.0409" rx="11.0204" stroke="url(#paint0_linear_2353_7664)" stroke-width="0.959132"/>
<path d="M32.3489 17.8667H25.8046V16H32.3489V17.8667ZM33.9625 27.2C33.5493 28.4105 32.0656 30 29.1936 30C26.3197 30 23.9919 28.3863 23.9919 24.7033C23.9919 21.054 26.1655 19.178 29.102 19.178C31.9833 19.178 33.7428 20.8412 34.127 23.3089C34.1999 23.7812 34.2289 24.4177 34.2158 25.3063H26.7115C26.833 28.3032 29.9677 28.3975 31.0007 27.2H33.9625ZM26.7769 23.4667H31.4186C31.3205 22.0228 30.3566 21.3956 29.1029 21.3956C27.7324 21.3956 26.9742 22.1124 26.7769 23.4667ZM17.8263 29.9888H11.7812V16.0196H18.2816C23.401 16.0952 23.4982 21.1007 20.8245 22.4652C24.0601 23.6412 24.1686 29.9888 17.8263 29.9888ZM14.5859 21.6H17.9366C20.2813 21.6 20.6534 18.8 17.6449 18.8H14.5859V21.6ZM17.7561 24.4H14.5859V27.2149H17.7094C20.5655 27.2149 20.3907 24.4 17.7561 24.4Z" fill="white"/>
<defs>
<filter id="filter0_i_2353_7664" x="0" y="0" width="46" height="46" filterUnits="userSpaceOnUse" color-interpolation-filters="sRGB">
<feFlood flood-opacity="0" result="BackgroundImageFix"/>
<feBlend mode="normal" in="SourceGraphic" in2="BackgroundImageFix" result="shape"/>
<feColorMatrix in="SourceAlpha" type="matrix" values="0 0 0 0 0 0 0 0 0 0 0 0 0 0 0 0 0 0 127 0" result="hardAlpha"/>
<feOffset/>
<feGaussianBlur stdDeviation="0.575"/>
<feComposite in2="hardAlpha" operator="arithmetic" k2="-1" k3="1"/>
<feColorMatrix type="matrix" values="0 0 0 0 0.641667 0 0 0 0 0.641667 0 0 0 0 0.641667 0 0 0 1 0"/>
<feBlend mode="normal" in2="shape" result="effect1_innerShadow_2353_7664"/>
</filter>
<linearGradient id="paint0_linear_2353_7664" x1="34.7931" y1="-22.5908" x2="-13.8035" y2="-5.77601" gradientUnits="userSpaceOnUse">
<stop stop-color="#5C78FA"/>
<stop offset="0.15" stop-color="#3A2DDE"/>
<stop offset="0.33" stop-color="#7413BD"/>
<stop offset="0.5" stop-color="#A72579"/>
<stop offset="0.67" stop-color="#C95453"/>
<stop offset="0.83" stop-color="#B16E5C"/>
<stop offset="1" stop-color="#E0966D"/>
</linearGradient>
</defs>
</svg>
