<svg width="46" height="46" viewBox="0 0 46 46" fill="none" xmlns="http://www.w3.org/2000/svg">
<g filter="url(#filter0_i_2353_7672)">
<rect width="46" height="46" rx="11.5" fill="white" fill-opacity="0.05"/>
</g>
<rect x="0.479566" y="0.479566" width="45.0409" height="45.0409" rx="11.0204" stroke="url(#paint0_linear_2353_7672)" stroke-width="0.959132"/>
<path fill-rule="evenodd" clip-rule="evenodd" d="M26.7529 15.5521L30.4597 19.2528C32.5327 21.3223 32.5327 24.6777 30.4597 26.7472L26.7529 30.4478C24.6799 32.5174 21.3189 32.5174 19.2459 30.4478L15.5391 26.7472C13.4661 24.6777 13.4661 21.3223 15.5391 19.2528L19.2459 15.5521C21.3189 13.4826 24.6799 13.4826 26.7529 15.5521ZM16.4635 25.1569V20.8431C16.4635 18.4307 18.4224 16.475 20.8389 16.475H25.1599C27.5763 16.475 29.5353 18.4307 29.5353 20.8431V25.1569C29.5353 27.5693 27.5763 29.525 25.1599 29.525H20.8389C18.4224 29.525 16.4635 27.5693 16.4635 25.1569Z" fill="white"/>
<defs>
<filter id="filter0_i_2353_7672" x="0" y="0" width="46" height="46" filterUnits="userSpaceOnUse" color-interpolation-filters="sRGB">
<feFlood flood-opacity="0" result="BackgroundImageFix"/>
<feBlend mode="normal" in="SourceGraphic" in2="BackgroundImageFix" result="shape"/>
<feColorMatrix in="SourceAlpha" type="matrix" values="0 0 0 0 0 0 0 0 0 0 0 0 0 0 0 0 0 0 127 0" result="hardAlpha"/>
<feOffset/>
<feGaussianBlur stdDeviation="0.575"/>
<feComposite in2="hardAlpha" operator="arithmetic" k2="-1" k3="1"/>
<feColorMatrix type="matrix" values="0 0 0 0 0.641667 0 0 0 0 0.641667 0 0 0 0 0.641667 0 0 0 1 0"/>
<feBlend mode="normal" in2="shape" result="effect1_innerShadow_2353_7672"/>
</filter>
<linearGradient id="paint0_linear_2353_7672" x1="34.7931" y1="-22.5908" x2="-13.8035" y2="-5.77601" gradientUnits="userSpaceOnUse">
<stop stop-color="#5C78FA"/>
<stop offset="0.15" stop-color="#3A2DDE"/>
<stop offset="0.33" stop-color="#7413BD"/>
<stop offset="0.5" stop-color="#A72579"/>
<stop offset="0.67" stop-color="#C95453"/>
<stop offset="0.83" stop-color="#B16E5C"/>
<stop offset="1" stop-color="#E0966D"/>
</linearGradient>
</defs>
</svg>
