<svg width="46" height="46" viewBox="0 0 46 46" fill="none" xmlns="http://www.w3.org/2000/svg">
<g filter="url(#filter0_i_2353_7676)">
<rect width="46" height="46" rx="11.5" fill="white" fill-opacity="0.05"/>
</g>
<rect x="0.479566" y="0.479566" width="45.0409" height="45.0409" rx="11.0204" stroke="url(#paint0_linear_2353_7676)" stroke-width="0.959132"/>
<path d="M16.5291 22.097C16.5291 22.097 23.5582 19.0238 25.9961 17.9416C26.9306 17.5088 30.0998 16.1236 30.0998 16.1236C30.0998 16.1236 31.5625 15.5176 31.4406 16.9893C31.4 17.5953 31.0749 19.7163 30.7499 22.0105C30.2623 25.2569 29.7341 28.8063 29.7341 28.8063C29.7341 28.8063 29.6529 29.8019 28.9621 29.9751C28.2714 30.1482 27.1337 29.3691 26.9306 29.1959C26.768 29.0661 23.8833 27.1182 22.8269 26.1659C22.5424 25.9062 22.2174 25.3868 22.8675 24.7808C24.3302 23.3523 26.0773 21.5776 27.1337 20.4522C27.6213 19.9328 28.1089 18.7208 26.0773 20.1924C23.1925 22.3135 20.3484 24.3046 20.3484 24.3046C20.3484 24.3046 19.6983 24.7375 18.4794 24.3479C17.2604 23.9584 15.8383 23.4389 15.8383 23.4389C15.8383 23.4389 14.8632 22.7896 16.5291 22.097Z" fill="white"/>
<defs>
<filter id="filter0_i_2353_7676" x="0" y="0" width="46" height="46" filterUnits="userSpaceOnUse" color-interpolation-filters="sRGB">
<feFlood flood-opacity="0" result="BackgroundImageFix"/>
<feBlend mode="normal" in="SourceGraphic" in2="BackgroundImageFix" result="shape"/>
<feColorMatrix in="SourceAlpha" type="matrix" values="0 0 0 0 0 0 0 0 0 0 0 0 0 0 0 0 0 0 127 0" result="hardAlpha"/>
<feOffset/>
<feGaussianBlur stdDeviation="0.575"/>
<feComposite in2="hardAlpha" operator="arithmetic" k2="-1" k3="1"/>
<feColorMatrix type="matrix" values="0 0 0 0 0.641667 0 0 0 0 0.641667 0 0 0 0 0.641667 0 0 0 1 0"/>
<feBlend mode="normal" in2="shape" result="effect1_innerShadow_2353_7676"/>
</filter>
<linearGradient id="paint0_linear_2353_7676" x1="34.7931" y1="-22.5908" x2="-13.8035" y2="-5.77601" gradientUnits="userSpaceOnUse">
<stop stop-color="#5C78FA"/>
<stop offset="0.15" stop-color="#3A2DDE"/>
<stop offset="0.33" stop-color="#7413BD"/>
<stop offset="0.5" stop-color="#A72579"/>
<stop offset="0.67" stop-color="#C95453"/>
<stop offset="0.83" stop-color="#B16E5C"/>
<stop offset="1" stop-color="#E0966D"/>
</linearGradient>
</defs>
</svg>
