<svg width="46" height="46" viewBox="0 0 46 46" fill="none" xmlns="http://www.w3.org/2000/svg">
<g filter="url(#filter0_i_2353_7668)">
<rect width="46" height="46" rx="11.5" fill="white" fill-opacity="0.05"/>
</g>
<rect x="0.479566" y="0.479566" width="45.0409" height="45.0409" rx="11.0204" stroke="url(#paint0_linear_2353_7668)" stroke-width="0.959132"/>
<path d="M20.5586 11H19.25L18.3631 14.3822L17.4471 11H16.1094L16.9382 13.3951C17.2536 14.2675 17.5111 15.1598 17.7088 16.066V19.5498H19.0174V16.066L20.5586 11ZM24.0192 17.5176V15.2967C24.0486 14.7872 23.9218 14.2809 23.6557 13.8451C23.4938 13.6398 23.2873 13.4738 23.0518 13.3597C22.8163 13.2456 22.558 13.1863 22.2962 13.1863C22.0344 13.1863 21.7761 13.2456 21.5406 13.3597C21.3051 13.4738 21.0986 13.6398 20.9367 13.8451C20.6697 14.2805 20.5429 14.7871 20.5732 15.2967V17.5176C20.5419 18.0273 20.6689 18.5342 20.9367 18.9692C21.0986 19.1745 21.3051 19.3405 21.5406 19.4546C21.7761 19.5688 22.0344 19.6281 22.2962 19.6281C22.558 19.6281 22.8163 19.5688 23.0518 19.4546C23.2873 19.3405 23.4938 19.1745 23.6557 18.9692C23.9218 18.5335 24.0486 18.0271 24.0192 17.5176ZM22.856 17.7354C22.856 18.3305 22.6815 18.6208 22.3035 18.6208C21.9254 18.6208 21.7509 18.3305 21.7509 17.7354V15.0644C21.7509 14.4693 21.9254 14.179 22.3035 14.179C22.6815 14.179 22.856 14.4693 22.856 15.0644V17.7354ZM28.3376 19.5934V13.1629H27.1744V18.0692C26.9127 18.4321 26.6655 18.6208 26.4328 18.6208C26.2002 18.6208 26.1857 18.5337 26.1566 18.345C26.1441 18.1953 26.1441 18.0448 26.1566 17.895V13.1629H24.9934V18.2434C24.9795 18.566 25.0138 18.8889 25.0952 19.2015C25.1473 19.3556 25.2508 19.4872 25.3884 19.5744C25.526 19.6616 25.6893 19.699 25.8512 19.6805C26.1065 19.6575 26.3543 19.5825 26.5793 19.4601C26.8044 19.3378 27.002 19.1707 27.1599 18.9692V19.666L28.3376 19.5934ZM24.6735 26.0965C24.563 26.1014 24.4547 26.1283 24.3548 26.1757C24.2549 26.2231 24.1655 26.2899 24.0919 26.3723V30.248C24.165 30.3311 24.2542 30.3984 24.3542 30.4458C24.4542 30.4932 24.5629 30.5198 24.6735 30.5238C25.0079 30.5238 25.1679 30.248 25.1679 29.6674V26.9529C25.1679 26.3868 25.0079 26.0965 24.6735 26.0965ZM28.9483 26.0965C28.5557 26.0965 28.3667 26.3868 28.3667 26.982V27.5626H29.5154V26.982C29.5299 26.3868 29.3263 26.0965 28.9483 26.0965Z" fill="white"/>
<path d="M31.7705 22.8546C31.6648 22.3666 31.409 21.9237 31.0388 21.588C30.6686 21.2522 30.2025 21.0404 29.7058 20.9821C27.3328 20.7623 24.9494 20.6751 22.5666 20.7208C20.1839 20.6751 17.8004 20.7623 15.4274 20.9821C14.9281 21.0375 14.4588 21.2481 14.0858 21.5841C13.7127 21.92 13.4547 22.3644 13.3482 22.8546C13.0706 24.3377 12.9584 25.8468 13.0138 27.3545C12.9583 28.8622 13.0705 30.3714 13.3482 31.8545C13.4559 32.3415 13.7123 32.7832 14.0822 33.1186C14.452 33.454 14.9169 33.6666 15.4129 33.727C17.7908 33.9467 20.179 34.0339 22.5666 33.9883C24.9494 34.0333 27.3328 33.9461 29.7058 33.727C30.2018 33.6666 30.6667 33.454 31.0366 33.1186C31.4064 32.7832 31.6628 32.3415 31.7705 31.8545C32.0481 30.3714 32.1603 28.8622 32.1049 27.3545C32.1603 25.8468 32.0481 24.3377 31.7705 22.8546ZM18.4663 24.1465H17.0123V31.4045H15.7909V24.1465H14.4387V22.9417H18.4663V24.1465ZM21.9559 31.4045H20.8073V30.7077C20.6561 30.9256 20.4597 31.1085 20.2314 31.2438C20.003 31.379 19.7482 31.4635 19.4841 31.4916C19.3246 31.5066 19.1646 31.4675 19.03 31.3806C18.8955 31.2937 18.7942 31.164 18.7426 31.0125C18.662 30.7048 18.6277 30.3868 18.6408 30.069V25.1336H19.7895V29.8077C19.7792 29.9575 19.7792 30.1079 19.7895 30.2577C19.7895 30.4319 19.9058 30.5335 20.0657 30.5335C20.2257 30.5335 20.5456 30.3593 20.7927 29.9964V25.1336H21.9269L21.9559 31.4045ZM26.318 29.5029C26.3333 29.9319 26.2942 30.3611 26.2017 30.7803C26.1547 30.9862 26.0378 31.1695 25.8708 31.2992C25.7039 31.4289 25.4971 31.4968 25.2856 31.4916C25.0468 31.4739 24.8153 31.4019 24.6086 31.2811C24.402 31.1603 24.2257 30.994 24.0933 30.7948V31.4045H22.9447V22.9562H24.0933V25.7433C24.2265 25.546 24.4032 25.3819 24.6099 25.2636C24.8167 25.1453 25.0478 25.076 25.2856 25.061C25.4971 25.0558 25.7039 25.1237 25.8708 25.2534C26.0378 25.383 26.1547 25.5664 26.2017 25.7723C26.2959 26.1912 26.335 26.6207 26.318 27.0497V29.5029ZM30.68 28.4432H28.3827V29.5755C28.3827 30.1706 28.5717 30.4609 28.9643 30.4609C29.093 30.4649 29.2182 30.4186 29.3132 30.3319C29.4083 30.2451 29.4657 30.1248 29.4732 29.9964C29.4876 29.7353 29.4876 29.4736 29.4732 29.2126H30.6509V30.1271C30.6188 30.3764 30.5292 30.6149 30.3892 30.8238C30.2287 31.0555 30.0096 31.2406 29.7542 31.3604C29.4989 31.4803 29.2163 31.5305 28.9352 31.5061C28.6574 31.528 28.3785 31.4796 28.1243 31.3655C27.8702 31.2513 27.649 31.075 27.4812 30.8529C27.2125 30.4182 27.0854 29.911 27.1177 29.4013V27.1949C27.0854 26.6851 27.2125 26.1779 27.4812 25.7433C27.6481 25.5201 27.8691 25.3431 28.1235 25.2288C28.3779 25.1145 28.6572 25.0668 28.9352 25.0901C29.1993 25.0776 29.4625 25.1308 29.701 25.2448C29.9395 25.3588 30.146 25.5301 30.302 25.7433C30.5681 26.179 30.6949 26.6854 30.6655 27.1949L30.68 28.4432Z" fill="white"/>
<defs>
<filter id="filter0_i_2353_7668" x="0" y="0" width="46" height="46" filterUnits="userSpaceOnUse" color-interpolation-filters="sRGB">
<feFlood flood-opacity="0" result="BackgroundImageFix"/>
<feBlend mode="normal" in="SourceGraphic" in2="BackgroundImageFix" result="shape"/>
<feColorMatrix in="SourceAlpha" type="matrix" values="0 0 0 0 0 0 0 0 0 0 0 0 0 0 0 0 0 0 127 0" result="hardAlpha"/>
<feOffset/>
<feGaussianBlur stdDeviation="0.575"/>
<feComposite in2="hardAlpha" operator="arithmetic" k2="-1" k3="1"/>
<feColorMatrix type="matrix" values="0 0 0 0 0.641667 0 0 0 0 0.641667 0 0 0 0 0.641667 0 0 0 1 0"/>
<feBlend mode="normal" in2="shape" result="effect1_innerShadow_2353_7668"/>
</filter>
<linearGradient id="paint0_linear_2353_7668" x1="34.7931" y1="-22.5908" x2="-13.8035" y2="-5.77601" gradientUnits="userSpaceOnUse">
<stop stop-color="#5C78FA"/>
<stop offset="0.15" stop-color="#3A2DDE"/>
<stop offset="0.33" stop-color="#7413BD"/>
<stop offset="0.5" stop-color="#A72579"/>
<stop offset="0.67" stop-color="#C95453"/>
<stop offset="0.83" stop-color="#B16E5C"/>
<stop offset="1" stop-color="#E0966D"/>
</linearGradient>
</defs>
</svg>
